<svg width="823" height="85" viewBox="0 0 823 85" fill="none" xmlns="http://www.w3.org/2000/svg">
<path opacity="0.25" d="M18.8865 66L17.925 66.2751L18.1325 67H18.8865V66ZM0.157759 0.545452V-0.454548H-1.1685L-0.803658 0.820546L0.157759 0.545452ZM15.2749 0.545452L16.2477 0.313709L16.0647 -0.454548H15.2749V0.545452ZM26.1095 46.0249L25.1367 46.2566L25.3197 47.0249H26.1095V46.0249ZM26.6528 46.0249V47.0249H27.4239L27.6199 46.279L26.6528 46.0249ZM38.6059 0.545452V-0.454548H37.8348L37.6388 0.291261L38.6059 0.545452ZM51.5498 0.545452L52.5173 0.292396L52.3219 -0.454548H51.5498V0.545452ZM63.471 46.1207L62.5035 46.3738L62.6989 47.1207H63.471V46.1207ZM64.0463 46.1207V47.1207H64.8364L65.0191 46.352L64.0463 46.1207ZM74.8808 0.545452V-0.454548H74.0906L73.9079 0.31417L74.8808 0.545452ZM89.998 0.545452L90.9594 0.820546L91.3242 -0.454548H89.998V0.545452ZM71.2693 66V67H72.0233L72.2307 66.2751L71.2693 66ZM57.7821 66L56.8219 66.2796L57.0318 67H57.7821V66ZM45.3176 23.2053L46.2777 22.9256L46.0679 22.2053H45.3176V23.2053ZM44.8062 23.2053V22.2053H44.0554L43.8459 22.9263L44.8062 23.2053ZM32.3737 66V67H33.1245L33.334 66.279L32.3737 66ZM19.8479 65.7249L1.11918 0.270359L-0.803658 0.820546L17.925 66.2751L19.8479 65.7249ZM0.157759 1.54545H15.2749V-0.454548H0.157759V1.54545ZM14.3022 0.777196L25.1367 46.2566L27.0822 45.7931L16.2477 0.313709L14.3022 0.777196ZM26.1095 47.0249H26.6528V45.0249H26.1095V47.0249ZM27.6199 46.279L39.5731 0.799644L37.6388 0.291261L25.6856 45.7707L27.6199 46.279ZM38.6059 1.54545H51.5498V-0.454548H38.6059V1.54545ZM50.5824 0.79851L62.5035 46.3738L64.4384 45.8677L52.5173 0.292396L50.5824 0.79851ZM63.471 47.1207H64.0463V45.1207H63.471V47.1207ZM65.0191 46.352L75.8537 0.776735L73.9079 0.31417L63.0734 45.8895L65.0191 46.352ZM74.8808 1.54545H89.998V-0.454548H74.8808V1.54545ZM89.0365 0.270359L70.3078 65.7249L72.2307 66.2751L90.9594 0.820546L89.0365 0.270359ZM71.2693 65H57.7821V67H71.2693V65ZM58.7422 65.7204L46.2777 22.9256L44.3575 23.4849L56.8219 66.2796L58.7422 65.7204ZM45.3176 22.2053H44.8062V24.2053H45.3176V22.2053ZM43.8459 22.9263L31.4134 65.721L33.334 66.279L45.7665 23.4842L43.8459 22.9263ZM32.3737 65H18.8865V67H32.3737V65ZM110.764 37.6193L109.764 37.6092V37.6193H110.764ZM110.764 66V67H111.764V66H110.764ZM97.1491 66H96.1491V67H97.1491V66ZM97.1491 0.545452V-0.454548H96.1491V0.545452H97.1491ZM110.381 0.545452H111.381V-0.454548H110.381V0.545452ZM110.381 25.5703H109.381V26.5703H110.381V25.5703ZM110.956 25.5703V26.5703H111.644L111.89 25.9275L110.956 25.5703ZM116.325 18.7628L116.878 19.5959L116.883 19.5926L116.325 18.7628ZM134.543 18.5071L134.035 19.3691L134.044 19.374L134.543 18.5071ZM140.487 24.8672L139.595 25.3199L139.6 25.3281L140.487 24.8672ZM142.597 34.7429L141.597 34.7373V34.7429H142.597ZM142.597 66V67H143.597V66H142.597ZM128.981 66H127.981V67H128.981V66ZM128.981 37.1719L127.981 37.1648V37.1719H128.981ZM126.68 30.1087L125.941 30.7823L125.946 30.7873L126.68 30.1087ZM115.302 28.7663L114.819 27.8909L114.813 27.8941L115.302 28.7663ZM111.979 32.218L111.097 31.7462L111.095 31.7507L111.979 32.218ZM109.764 37.6193V66H111.764V37.6193H109.764ZM110.764 65H97.1491V67H110.764V65ZM98.1491 66V0.545452H96.1491V66H98.1491ZM97.1491 1.54545H110.381V-0.454548H97.1491V1.54545ZM109.381 0.545452V25.5703H111.381V0.545452H109.381ZM110.381 26.5703H110.956V24.5703H110.381V26.5703ZM111.89 25.9275C112.927 23.2147 114.588 21.1159 116.878 19.5959L115.772 17.9296C113.119 19.6909 111.201 22.1305 110.022 25.2132L111.89 25.9275ZM116.883 19.5926C119.153 18.0666 122.046 17.2699 125.626 17.2699V15.2699C121.748 15.2699 118.441 16.1351 115.767 17.9329L116.883 19.5926ZM125.626 17.2699C128.885 17.2699 131.677 17.9815 134.036 19.369L135.05 17.6452C132.337 16.0498 129.184 15.2699 125.626 15.2699V17.2699ZM134.044 19.374C136.423 20.742 138.272 22.7136 139.595 25.3199L141.379 24.4145C139.889 21.481 137.776 19.2126 135.041 17.6402L134.044 19.374ZM139.6 25.3281C140.937 27.9023 141.617 31.0264 141.597 34.7373L143.596 34.7485C143.618 30.789 142.893 27.3293 141.375 24.4063L139.6 25.3281ZM141.597 34.7429V66H143.597V34.7429H141.597ZM142.597 65H128.981V67H142.597V65ZM129.981 66V37.1719H127.981V66H129.981ZM129.981 37.1789C130.004 33.9828 129.192 31.3532 127.415 29.43L125.946 30.7873C127.28 32.2306 128.002 34.3098 127.981 37.1648L129.981 37.1789ZM127.419 29.4351C125.656 27.4998 123.21 26.5838 120.224 26.5838V28.5838C122.779 28.5838 124.637 29.3511 125.941 30.7823L127.419 29.4351ZM120.224 26.5838C118.225 26.5838 116.414 27.0102 114.819 27.8909L115.786 29.6417C117.046 28.9457 118.516 28.5838 120.224 28.5838V26.5838ZM114.813 27.8941C113.23 28.7818 111.991 30.0765 111.097 31.7462L112.86 32.6899C113.586 31.334 114.562 30.3276 115.791 29.6386L114.813 27.8941ZM111.095 31.7507C110.215 33.4141 109.787 35.3795 109.764 37.6092L111.764 37.6294C111.784 35.6404 112.165 34.0049 112.863 32.6853L111.095 31.7507ZM162.644 63.8906L162.148 64.7592L162.154 64.7626L162.644 63.8906ZM154.27 55.1335L153.382 55.5927L153.383 55.5947L154.27 55.1335ZM154.27 28.3828L153.381 27.9257L154.27 28.3828ZM162.548 19.4659L162.036 18.6066L162.034 18.608L162.548 19.4659ZM184.185 17.8359L183.834 18.7726L183.843 18.7757L184.185 17.8359ZM191.536 22.4702L190.832 23.1809L190.836 23.1845L191.536 22.4702ZM196.457 30.2685L195.521 30.6189L195.522 30.621L196.457 30.2685ZM198.215 44.9382V45.9382H199.215V44.9382H198.215ZM156.763 44.9382H155.763V45.9382H156.763V44.9382ZM156.763 36.5007V35.5007H155.763V36.5007H156.763ZM185.399 36.5007V37.5007H186.399V36.5007H185.399ZM184.121 31.2912L183.25 31.782L183.25 31.782L184.121 31.2912ZM180.573 27.7436L180.068 28.6065L180.075 28.6107L180.082 28.6149L180.573 27.7436ZM169.867 27.8714L170.378 28.731L170.381 28.7289L169.867 27.8714ZM166.159 31.6747L167.029 32.1683L167.032 32.1633L166.159 31.6747ZM164.785 36.9482L163.785 36.9372V36.9482H164.785ZM166.127 51.2663L165.235 51.7179L165.239 51.7263L166.127 51.2663ZM180.062 56.1562L179.741 55.2092L180.062 56.1562ZM183.29 54.2386L182.6 53.5145V53.5145L183.29 54.2386ZM185.335 51.1065L185.401 50.1087L184.663 50.06L184.4 50.7519L185.335 51.1065ZM197.928 51.9375L198.906 52.1442L199.144 51.0156L197.993 50.9397L197.928 51.9375ZM193.997 59.8636L193.245 59.2041L193.244 59.2046L193.997 59.8636ZM186.39 65.1051L186.761 66.0336L186.765 66.0323L186.39 65.1051ZM175.683 65.9588C170.769 65.9588 166.599 64.9643 163.133 63.0186L162.154 64.7626C165.975 66.9079 170.498 67.9588 175.683 67.9588V65.9588ZM163.139 63.0221C159.687 61.0525 157.031 58.2765 155.157 54.6723L153.383 55.5947C155.43 59.5332 158.355 62.5952 162.148 64.7592L163.139 63.0221ZM155.158 54.6744C153.285 51.0508 152.33 46.7297 152.33 41.6783H150.33C150.33 46.982 151.334 51.631 153.382 55.5927L155.158 54.6744ZM152.33 41.6783C152.33 36.7594 153.284 32.4894 155.159 28.8399L153.381 27.9257C151.336 31.9041 150.33 36.4977 150.33 41.6783H152.33ZM155.159 28.8399C157.037 25.1861 159.669 22.3552 163.061 20.3239L162.034 18.608C158.31 20.8379 155.423 23.9516 153.381 27.9257L155.159 28.8399ZM163.059 20.3252C166.461 18.3002 170.476 17.2699 175.14 17.2699V15.2699C170.173 15.2699 165.793 16.3703 162.036 18.6066L163.059 20.3252ZM175.14 17.2699C178.269 17.2699 181.165 17.7739 183.834 18.7726L184.535 16.8993C181.622 15.8099 178.488 15.2699 175.14 15.2699V17.2699ZM183.843 18.7757C186.522 19.7501 188.849 21.2176 190.832 23.1809L192.239 21.7594C190.046 19.5892 187.472 17.9673 184.526 16.8961L183.843 18.7757ZM190.836 23.1845C192.827 25.1359 194.394 27.6057 195.521 30.6189L197.394 29.918C196.178 26.667 194.462 23.9379 192.235 21.7559L190.836 23.1845ZM195.522 30.621C196.642 33.5944 197.215 37.1135 197.215 41.1989H199.215C199.215 36.9319 198.617 33.1642 197.393 29.9159L195.522 30.621ZM197.215 41.1989V44.9382H199.215V41.1989H197.215ZM198.215 43.9382H156.763V45.9382H198.215V43.9382ZM157.763 44.9382V36.5007H155.763V44.9382H157.763ZM156.763 37.5007H185.399V35.5007H156.763V37.5007ZM186.399 36.5007C186.399 34.3911 185.939 32.4815 184.992 30.8003L183.25 31.782C184.007 33.1265 184.399 34.6899 184.399 36.5007H186.399ZM184.992 30.8004C184.05 29.1284 182.736 27.8143 181.064 26.8724L180.082 28.6149C181.436 29.3775 182.487 30.4284 183.25 31.782L184.992 30.8004ZM181.079 26.8807C179.413 25.9049 177.496 25.4332 175.364 25.4332V27.4332C177.194 27.4332 178.751 27.8352 180.068 28.6065L181.079 26.8807ZM175.364 25.4332C173.136 25.4332 171.122 25.952 169.352 27.014L170.381 28.7289C171.807 27.8733 173.458 27.4332 175.364 27.4332V25.4332ZM169.355 27.0119C167.628 28.039 166.268 29.4346 165.287 31.1861L167.032 32.1633C167.841 30.7188 168.952 29.5789 170.378 28.731L169.355 27.0119ZM165.289 31.1811C164.305 32.9153 163.808 34.8411 163.785 36.9372L165.785 36.9591C165.804 35.1774 166.223 33.5876 167.029 32.1683L165.289 31.1811ZM163.785 36.9482V44.9702H165.785V36.9482H163.785ZM163.785 44.9702C163.785 47.5212 164.255 49.7813 165.235 51.7178L167.019 50.8148C166.21 49.2144 165.785 47.2771 165.785 44.9702H163.785ZM165.239 51.7263C166.24 53.6577 167.661 55.1654 169.495 56.2234L170.494 54.4911C169.004 53.6315 167.847 52.4119 167.015 50.8063L165.239 51.7263ZM169.495 56.2234C171.335 57.2851 173.485 57.7955 175.907 57.7955V55.7955C173.77 55.7955 171.978 55.347 170.494 54.4911L169.495 56.2234ZM175.907 57.7955C177.514 57.7955 179.009 57.569 180.383 57.1033L179.741 55.2092C178.6 55.5957 177.326 55.7955 175.907 55.7955V57.7955ZM180.383 57.1033C181.767 56.634 182.972 55.9225 183.98 54.9628L182.6 53.5145C181.818 54.2593 180.871 54.8262 179.741 55.2092L180.383 57.1033ZM183.98 54.9628C184.99 54.0002 185.752 52.827 186.27 51.4612L184.4 50.7519C183.981 51.8576 183.379 52.7726 182.6 53.5145L183.98 54.9628ZM185.269 52.1044L197.862 52.9353L197.993 50.9397L185.401 50.1087L185.269 52.1044ZM196.949 51.7308C196.344 54.5936 195.11 57.0785 193.245 59.2041L194.748 60.5231C196.846 58.1318 198.232 55.3325 198.906 52.1442L196.949 51.7308ZM193.244 59.2046C191.4 61.3099 189 62.9719 186.015 64.178L186.765 66.0323C190.002 64.7241 192.673 62.8919 194.749 60.5226L193.244 59.2046ZM186.019 64.1766C183.07 65.3562 179.631 65.9588 175.683 65.9588V67.9588C179.832 67.9588 183.531 67.3257 186.761 66.0336L186.019 64.1766ZM207.1 66H206.1V67H207.1V66ZM207.1 16.9091V15.9091H206.1V16.9091H207.1ZM220.3 16.9091H221.3V15.9091H220.3V16.9091ZM220.3 25.4744H219.3V26.4744H220.3V25.4744ZM220.811 25.4744V26.4744H221.56L221.771 25.7562L220.811 25.4744ZM225.318 18.571L225.911 19.3759L225.916 19.372L225.318 18.571ZM234.81 16.3338L234.917 15.3396V15.3396L234.81 16.3338ZM236.887 16.6854H237.887V15.9046L237.13 15.7152L236.887 16.6854ZM236.887 28.7663L236.6 29.7242L237.887 30.1104V28.7663H236.887ZM225.765 29.3416L226.246 30.2186L226.25 30.2163L225.765 29.3416ZM222.058 32.9212L221.199 32.4084L221.194 32.4173L222.058 32.9212ZM220.715 66V67H221.715V66H220.715ZM208.1 66V16.9091H206.1V66H208.1ZM207.1 17.9091H220.3V15.9091H207.1V17.9091ZM219.3 16.9091V25.4744H221.3V16.9091H219.3ZM220.3 26.4744H220.811V24.4744H220.3V26.4744ZM221.771 25.7562C222.617 22.8734 224.012 20.776 225.911 19.3759L224.724 17.7662C222.404 19.4769 220.795 21.9817 219.852 25.1926L221.771 25.7562ZM225.916 19.372C227.845 17.9304 230.062 17.206 232.604 17.206V15.206C229.65 15.206 227.009 16.0582 224.719 17.7701L225.916 19.372ZM232.604 17.206C233.245 17.206 233.944 17.246 234.702 17.328L234.917 15.3396C234.099 15.2511 233.327 15.206 232.604 15.206V17.206ZM234.702 17.328C235.457 17.4096 236.103 17.5201 236.645 17.6555L237.13 15.7152C236.478 15.5523 235.739 15.4284 234.917 15.3396L234.702 17.328ZM235.887 16.6854V28.7663H237.887V16.6854H235.887ZM237.175 27.8085C236.461 27.5944 235.516 27.4156 234.365 27.2636L234.104 29.2464C235.211 29.3927 236.035 29.5547 236.6 29.7242L237.175 27.8085ZM234.365 27.2636C233.202 27.1099 232.124 27.0312 231.134 27.0312V29.0312C232.02 29.0312 233.009 29.1018 234.104 29.2464L234.365 27.2636ZM231.134 27.0312C228.981 27.0312 227.021 27.5023 225.28 28.4669L226.25 30.2163C227.662 29.4338 229.282 29.0312 231.134 29.0312V27.0312ZM225.284 28.4646C223.572 29.4032 222.206 30.7226 221.199 32.4084L222.916 33.4339C223.742 32.0515 224.848 30.9846 226.246 30.2186L225.284 28.4646ZM221.194 32.4173C220.199 34.1231 219.715 36.0697 219.715 38.2266H221.715C221.715 36.3777 222.127 34.7874 222.921 33.425L221.194 32.4173ZM219.715 38.2266V66H221.715V38.2266H219.715ZM220.715 65H207.1V67H220.715V65ZM250.974 63.8906L250.478 64.7592L250.484 64.7626L250.974 63.8906ZM242.6 55.1335L241.712 55.5927L241.713 55.5947L242.6 55.1335ZM242.6 28.3828L241.711 27.9257L242.6 28.3828ZM250.878 19.4659L250.366 18.6066L250.364 18.608L250.878 19.4659ZM272.515 17.8359L272.164 18.7726L272.173 18.7757L272.515 17.8359ZM279.866 22.4702L279.162 23.1809L279.166 23.1845L279.866 22.4702ZM284.788 30.2685L283.851 30.6189L283.852 30.621L284.788 30.2685ZM286.545 44.9382V45.9382H287.545V44.9382H286.545ZM245.093 44.9382H244.093V45.9382H245.093V44.9382ZM245.093 36.5007V35.5007H244.093V36.5007H245.093ZM273.729 36.5007V37.5007H274.729V36.5007H273.729ZM272.451 31.2912L271.58 31.782V31.782L272.451 31.2912ZM268.903 27.7436L268.398 28.6065L268.405 28.6107L268.412 28.6149L268.903 27.7436ZM258.197 27.8714L258.708 28.731L258.711 28.7289L258.197 27.8714ZM254.489 31.6747L255.359 32.1683L255.362 32.1633L254.489 31.6747ZM253.115 36.9482L252.115 36.9372V36.9482H253.115ZM254.457 51.2663L253.565 51.7179L253.569 51.7263L254.457 51.2663ZM268.392 56.1562L268.071 55.2092L268.392 56.1562ZM271.62 54.2386L270.93 53.5145V53.5145L271.62 54.2386ZM273.665 51.1065L273.731 50.1087L272.993 50.06L272.73 50.7519L273.665 51.1065ZM286.258 51.9375L287.236 52.1442L287.475 51.0156L286.324 50.9397L286.258 51.9375ZM282.327 59.8636L281.575 59.2041L281.574 59.2046L282.327 59.8636ZM274.72 65.1051L275.091 66.0336L275.095 66.0323L274.72 65.1051ZM264.013 65.9588C259.1 65.9588 254.929 64.9643 251.463 63.0186L250.484 64.7626C254.305 66.9079 258.828 67.9588 264.013 67.9588V65.9588ZM251.469 63.0221C248.017 61.0525 245.361 58.2765 243.487 54.6723L241.713 55.5947C243.76 59.5332 246.686 62.5952 250.478 64.7592L251.469 63.0221ZM243.488 54.6744C241.616 51.0508 240.66 46.7297 240.66 41.6783H238.66C238.66 46.982 239.664 51.631 241.712 55.5927L243.488 54.6744ZM240.66 41.6783C240.66 36.7594 241.614 32.4894 243.489 28.8399L241.711 27.9257C239.666 31.9041 238.66 36.4977 238.66 41.6783H240.66ZM243.489 28.8399C245.367 25.1861 247.999 22.3552 251.391 20.3239L250.364 18.608C246.64 20.8379 243.753 23.9516 241.711 27.9257L243.489 28.8399ZM251.389 20.3252C254.791 18.3002 258.806 17.2699 263.47 17.2699V15.2699C258.503 15.2699 254.123 16.3703 250.366 18.6066L251.389 20.3252ZM263.47 17.2699C266.599 17.2699 269.495 17.7739 272.164 18.7726L272.865 16.8993C269.953 15.8099 266.818 15.2699 263.47 15.2699V17.2699ZM272.173 18.7757C274.852 19.7501 277.179 21.2176 279.162 23.1809L280.569 21.7594C278.376 19.5892 275.802 17.9673 272.857 16.8961L272.173 18.7757ZM279.166 23.1845C281.158 25.1359 282.724 27.6057 283.851 30.6189L285.724 29.918C284.508 26.667 282.793 23.9379 280.566 21.7559L279.166 23.1845ZM283.852 30.621C284.972 33.5944 285.545 37.1135 285.545 41.1989H287.545C287.545 36.9319 286.947 33.1642 285.723 29.9159L283.852 30.621ZM285.545 41.1989V44.9382H287.545V41.1989H285.545ZM286.545 43.9382H245.093V45.9382H286.545V43.9382ZM246.093 44.9382V36.5007H244.093V44.9382H246.093ZM245.093 37.5007H273.729V35.5007H245.093V37.5007ZM274.729 36.5007C274.729 34.3911 274.269 32.4815 273.322 30.8003L271.58 31.782C272.337 33.1265 272.729 34.6899 272.729 36.5007H274.729ZM273.322 30.8004C272.38 29.1284 271.066 27.8143 269.394 26.8724L268.412 28.6149C269.766 29.3775 270.817 30.4284 271.58 31.782L273.322 30.8004ZM269.409 26.8807C267.743 25.9049 265.827 25.4332 263.694 25.4332V27.4332C265.524 27.4332 267.081 27.8352 268.398 28.6065L269.409 26.8807ZM263.694 25.4332C261.466 25.4332 259.452 25.952 257.682 27.014L258.711 28.7289C260.137 27.8733 261.788 27.4332 263.694 27.4332V25.4332ZM257.686 27.0119C255.958 28.039 254.598 29.4346 253.617 31.1861L255.362 32.1633C256.171 30.7188 257.282 29.5789 258.708 28.731L257.686 27.0119ZM253.62 31.1811C252.635 32.9153 252.138 34.8411 252.115 36.9372L254.115 36.9591C254.134 35.1774 254.553 33.5876 255.359 32.1683L253.62 31.1811ZM252.115 36.9482V44.9702H254.115V36.9482H252.115ZM252.115 44.9702C252.115 47.5212 252.585 49.7813 253.565 51.7178L255.35 50.8148C254.54 49.2144 254.115 47.2771 254.115 44.9702H252.115ZM253.569 51.7263C254.57 53.6577 255.991 55.1654 257.825 56.2234L258.824 54.4911C257.334 53.6315 256.177 52.4119 255.345 50.8063L253.569 51.7263ZM257.825 56.2234C259.665 57.2851 261.815 57.7955 264.237 57.7955V55.7955C262.1 55.7955 260.308 55.347 258.824 54.4911L257.825 56.2234ZM264.237 57.7955C265.844 57.7955 267.339 57.569 268.713 57.1033L268.071 55.2092C266.931 55.5957 265.656 55.7955 264.237 55.7955V57.7955ZM268.713 57.1033C270.097 56.634 271.302 55.9225 272.31 54.9628L270.93 53.5145C270.148 54.2593 269.201 54.8262 268.071 55.2092L268.713 57.1033ZM272.31 54.9628C273.32 54.0002 274.082 52.827 274.6 51.4612L272.73 50.7519C272.311 51.8576 271.709 52.7726 270.93 53.5145L272.31 54.9628ZM273.6 52.1044L286.192 52.9353L286.324 50.9397L273.731 50.1087L273.6 52.1044ZM285.279 51.7308C284.674 54.5936 283.44 57.0785 281.575 59.2041L283.078 60.5231C285.176 58.1318 286.563 55.3325 287.236 52.1442L285.279 51.7308ZM281.574 59.2046C279.73 61.3099 277.33 62.9719 274.345 64.178L275.095 66.0323C278.332 64.7241 281.003 62.8919 283.079 60.5226L281.574 59.2046ZM274.349 64.1766C271.4 65.3562 267.961 65.9588 264.013 65.9588V67.9588C268.162 67.9588 271.861 67.3257 275.091 66.0336L274.349 64.1766ZM342.372 16.9091H343.372V15.9091H342.372V16.9091ZM342.372 27.1364V28.1364H343.372V27.1364H342.372ZM312.809 27.1364H311.809V28.1364H312.809V27.1364ZM312.809 16.9091V15.9091H311.809V16.9091H312.809ZM319.52 5.14773V4.14773H318.52V5.14773H319.52ZM333.135 5.14773H334.135V4.14773H333.135V5.14773ZM333.711 53.8551L332.833 54.334L332.839 54.3454L333.711 53.8551ZM335.309 55.2933L334.932 56.2198L334.942 56.2237L335.309 55.2933ZM339.655 55.549L339.82 56.5354L339.836 56.5327L339.851 56.5296L339.655 55.549ZM341.125 55.2614L342.104 55.0546L341.902 54.0984L340.941 54.2785L341.125 55.2614ZM343.267 65.3928L343.565 66.3472L344.433 66.0759L344.245 65.186L343.267 65.3928ZM340.39 66.1278L340.172 65.1521L340.164 65.1538L340.156 65.1558L340.39 66.1278ZM335.884 66.6712L335.848 65.6718L335.845 65.6719L335.884 66.6712ZM327.255 65.3608L326.876 66.2865L326.879 66.2876L327.255 65.3608ZM321.534 60.6946L322.374 60.1517L321.534 60.6946ZM319.52 52.7045L320.52 52.7112V52.7045H319.52ZM341.372 16.9091V27.1364H343.372V16.9091H341.372ZM342.372 26.1364H312.809V28.1364H342.372V26.1364ZM313.809 27.1364V16.9091H311.809V27.1364H313.809ZM312.809 17.9091H342.372V15.9091H312.809V17.9091ZM319.52 6.14773H333.135V4.14773H319.52V6.14773ZM332.135 5.14773V50.9148H334.135V5.14773H332.135ZM332.135 50.9148C332.135 52.2529 332.336 53.4233 332.833 54.334L334.589 53.3763C334.318 52.8806 334.135 52.0908 334.135 50.9148H332.135ZM332.839 54.3454C333.326 55.2111 334.027 55.852 334.932 56.2198L335.685 54.3669C335.227 54.1806 334.862 53.8628 334.582 53.3649L332.839 54.3454ZM334.942 56.2237C335.784 56.5553 336.722 56.7088 337.738 56.7088V54.7088C336.921 54.7088 336.24 54.5853 335.675 54.3629L334.942 56.2237ZM337.738 56.7088C338.433 56.7088 339.127 56.6509 339.82 56.5354L339.491 54.5626C338.905 54.6602 338.321 54.7088 337.738 54.7088V56.7088ZM339.851 56.5296C340.489 56.402 340.975 56.307 341.31 56.2442L340.941 54.2785C340.594 54.3435 340.1 54.4403 339.459 54.5684L339.851 56.5296ZM340.147 55.4682L342.288 65.5995L344.245 65.186L342.104 55.0546L340.147 55.4682ZM342.969 64.4383C342.326 64.6392 341.398 64.8773 340.172 65.1521L340.609 67.1036C341.855 66.8245 342.844 66.5724 343.565 66.3472L342.969 64.4383ZM340.156 65.1558C339.005 65.4336 337.573 65.6095 335.848 65.6718L335.92 67.6705C337.732 67.605 339.304 67.4187 340.625 67.0999L340.156 65.1558ZM335.845 65.6719C332.674 65.7955 329.944 65.3713 327.63 64.434L326.879 66.2876C329.509 67.3531 332.532 67.8025 335.923 67.6704L335.845 65.6719ZM327.633 64.4351C325.361 63.5067 323.62 62.0797 322.374 60.1517L320.694 61.2375C322.175 63.5282 324.248 65.2121 326.876 66.2865L327.633 64.4351ZM322.374 60.1517C321.142 58.2463 320.5 55.7879 320.52 52.7112L318.52 52.6979C318.498 56.0558 319.199 58.9242 320.694 61.2375L322.374 60.1517ZM320.52 52.7045V5.14773H318.52V52.7045H320.52ZM360.014 63.7947L359.505 64.6554L359.511 64.6589L360.014 63.7947ZM351.672 54.9098L350.783 55.3669L350.784 55.369L351.672 54.9098ZM351.672 28.3509L352.561 28.81L352.562 28.808L351.672 28.3509ZM360.014 19.4659L360.519 20.3288L360.521 20.3278L360.014 19.4659ZM385.742 19.4659L385.233 20.3265L385.239 20.3301L385.742 19.4659ZM394.116 28.3509L393.226 28.808L393.227 28.81L394.116 28.3509ZM394.116 54.9098L395.004 55.369L395.005 55.3669L394.116 54.9098ZM385.742 63.7947L386.247 64.6576L386.249 64.6567L385.742 63.7947ZM378.615 54.4943L379.26 55.2581L379.266 55.2528L378.615 54.4943ZM382.035 49.1889L381.091 48.8566L381.089 48.8646L382.035 49.1889ZM382.035 33.9119L381.089 34.2363L381.091 34.2443L382.035 33.9119ZM367.205 28.6065L366.564 27.8392L366.559 27.8435L367.205 28.6065ZM363.721 33.9119L362.778 33.5796L362.775 33.5876L363.721 33.9119ZM363.721 49.1889L362.775 49.5133L362.778 49.5213L363.721 49.1889ZM367.205 54.4943L366.559 55.2573L366.564 55.2621L366.57 55.2669L367.205 54.4943ZM372.894 65.9588C368.073 65.9588 363.961 64.9358 360.517 62.9306L359.511 64.6589C363.312 66.8724 367.785 67.9588 372.894 67.9588V65.9588ZM360.523 62.9341C357.087 60.9011 354.437 58.0801 352.561 54.4506L350.784 55.369C352.829 59.3247 355.739 62.4271 359.505 64.6554L360.523 62.9341ZM352.562 54.4527C350.686 50.8027 349.732 46.5431 349.732 41.6463H347.732C347.732 46.8063 348.738 51.3891 350.783 55.3669L352.562 54.4527ZM349.732 41.6463C349.732 36.7052 350.686 32.4363 352.561 28.81L350.784 27.8917C348.738 31.8506 347.732 36.4454 347.732 41.6463H349.732ZM352.562 28.808C354.438 25.1581 357.087 22.3394 360.519 20.3288L359.508 18.6031C355.739 20.8112 352.827 23.9158 350.783 27.8937L352.562 28.808ZM360.521 20.3278C363.964 18.3028 368.075 17.2699 372.894 17.2699V15.2699C367.784 15.2699 363.309 16.3677 359.507 18.604L360.521 20.3278ZM372.894 17.2699C377.713 17.2699 381.813 18.3028 385.233 20.3265L386.251 18.6053C382.47 16.3676 378.004 15.2699 372.894 15.2699V17.2699ZM385.239 20.3301C388.692 22.3411 391.351 25.1597 393.226 28.808L395.005 27.8937C392.96 23.9142 390.036 20.8095 386.245 18.6018L385.239 20.3301ZM393.227 28.81C395.101 32.4363 396.056 36.7052 396.056 41.6463H398.056C398.056 36.4454 397.05 31.8506 395.004 27.8917L393.227 28.81ZM396.056 41.6463C396.056 46.5431 395.102 50.8027 393.226 54.4527L395.005 55.3669C397.049 51.3891 398.056 46.8063 398.056 41.6463H396.056ZM393.227 54.4506C391.352 58.0786 388.692 60.8993 385.235 62.9328L386.249 64.6567C390.036 62.4288 392.958 59.3263 395.004 55.369L393.227 54.4506ZM385.236 62.9319C381.816 64.9358 377.715 65.9588 372.894 65.9588V67.9588C378.002 67.9588 382.466 66.8725 386.247 64.6576L385.236 62.9319ZM372.958 57.4119C375.417 57.4119 377.542 56.7103 379.26 55.2581L377.969 53.7305C376.662 54.8351 375.015 55.4119 372.958 55.4119V57.4119ZM379.266 55.2528C380.937 53.8172 382.167 51.8873 382.98 49.5132L381.089 48.8646C380.368 50.965 379.318 52.572 377.963 53.7358L379.266 55.2528ZM382.978 49.5213C383.81 47.1581 384.217 44.4964 384.217 41.5504H382.217C382.217 44.3147 381.835 46.7454 381.091 48.8566L382.978 49.5213ZM384.217 41.5504C384.217 38.6045 383.81 35.9428 382.978 33.5796L381.091 34.2443C381.835 36.3555 382.217 38.7861 382.217 41.5504H384.217ZM382.98 33.5876C382.167 31.2135 380.937 29.2836 379.266 27.848L377.963 29.365C379.318 30.5289 380.368 32.1359 381.089 34.2363L382.98 33.5876ZM379.266 27.848C377.548 26.3718 375.422 25.657 372.958 25.657V27.657C375.011 27.657 376.656 28.2418 377.963 29.365L379.266 27.848ZM372.958 25.657C370.475 25.657 368.322 26.3704 366.564 27.8392L367.846 29.3739C369.199 28.2433 370.881 27.657 372.958 27.657V25.657ZM366.559 27.8435C364.867 29.2771 363.615 31.2053 362.778 33.5796L364.664 34.2443C365.405 32.1441 366.475 30.5354 367.851 29.3695L366.559 27.8435ZM362.775 33.5876C361.966 35.9483 361.571 38.6071 361.571 41.5504H363.571C363.571 38.7835 363.943 36.35 364.667 34.2363L362.775 33.5876ZM361.571 41.5504C361.571 44.4937 361.966 47.1526 362.775 49.5132L364.667 48.8646C363.943 46.7508 363.571 44.3173 363.571 41.5504H361.571ZM362.778 49.5213C363.615 51.8955 364.867 53.8238 366.559 55.2573L367.851 53.7313C366.475 52.5654 365.405 50.9568 364.664 48.8566L362.778 49.5213ZM366.57 55.2669C368.328 56.7117 370.479 57.4119 372.958 57.4119V55.4119C370.877 55.4119 369.193 54.8338 367.84 53.7218L366.57 55.2669ZM426.995 66H425.995V67H426.995V66ZM426.995 0.545452V-0.454548H425.995V0.545452H426.995ZM440.61 0.545452H441.61V-0.454548H440.61V0.545452ZM440.61 25.1548H439.61V26.1548H440.61V25.1548ZM441.025 25.1548V26.1548H441.671L441.936 25.5664L441.025 25.1548ZM443.614 21.1278L442.845 20.4888L442.844 20.49L443.614 21.1278ZM448.088 17.6761L448.536 18.5706L448.54 18.5685L448.088 17.6761ZM464.899 19.0824L464.373 19.9324L464.377 19.9351L464.899 19.0824ZM472.154 27.4879L471.254 27.9228L471.255 27.9248L472.154 27.4879ZM472.218 55.3892L471.313 54.9646L471.312 54.9669L472.218 55.3892ZM465.059 63.9226L465.597 64.7655L465.599 64.7645L465.059 63.9226ZM448.216 65.4886L447.786 66.3913L447.79 66.3932L448.216 65.4886ZM443.71 62.1967L442.956 62.8544L442.962 62.8603L443.71 62.1967ZM441.025 58.1378L441.936 57.7251L441.67 57.1378H441.025V58.1378ZM440.418 58.1378V57.1378H439.418V58.1378H440.418ZM440.418 66V67H441.418V66H440.418ZM445.052 54.1747L444.431 54.9588L444.438 54.9641L445.052 54.1747ZM456.27 54.1428L456.891 54.9268L456.897 54.9215L456.27 54.1428ZM459.754 49.0291L458.816 48.683L458.814 48.6881L459.754 49.0291ZM459.786 33.9759L460.725 33.6319L459.786 33.9759ZM456.302 28.9261L456.923 28.1421V28.1421L456.302 28.9261ZM445.02 28.8622L444.413 28.0675L444.408 28.0717L445.02 28.8622ZM441.536 33.848L440.601 33.4959L441.536 33.848ZM427.995 66V0.545452H425.995V66H427.995ZM426.995 1.54545H440.61V-0.454548H426.995V1.54545ZM439.61 0.545452V25.1548H441.61V0.545452H439.61ZM440.61 26.1548H441.025V24.1548H440.61V26.1548ZM441.936 25.5664C442.489 24.3424 443.3 23.0751 444.384 21.7657L442.844 20.49C441.67 21.9078 440.754 23.3252 440.114 24.7432L441.936 25.5664ZM444.383 21.7669C445.434 20.5022 446.81 19.4333 448.536 18.5706L447.641 16.7817C445.702 17.7513 444.095 18.9836 442.845 20.4888L444.383 21.7669ZM448.54 18.5685C450.216 17.7209 452.351 17.2699 454.992 17.2699V15.2699C452.135 15.2699 449.668 15.7564 447.637 16.7838L448.54 18.5685ZM454.992 17.2699C458.386 17.2699 461.506 18.156 464.373 19.9324L465.426 18.2324C462.241 16.2587 458.756 15.2699 454.992 15.2699V17.2699ZM464.377 19.9351C467.212 21.6723 469.511 24.3149 471.254 27.9228L473.055 27.053C471.175 23.1609 468.638 20.1999 465.422 18.2297L464.377 19.9351ZM471.255 27.9248C472.981 31.4778 473.871 35.9936 473.871 41.5185H475.871C475.871 35.7933 474.95 30.9555 473.054 27.051L471.255 27.9248ZM473.871 41.5185C473.871 46.8917 473.003 51.3611 471.313 54.9646L473.124 55.8138C474.971 51.8747 475.871 47.0969 475.871 41.5185H473.871ZM471.312 54.9669C469.632 58.5716 467.363 61.2587 464.52 63.0806L465.599 64.7645C468.807 62.7086 471.31 59.7068 473.125 55.8115L471.312 54.9669ZM464.521 63.0797C461.685 64.8898 458.507 65.799 454.96 65.799V67.799C458.87 67.799 462.425 66.7906 465.597 64.7655L464.521 63.0797ZM454.96 65.799C452.424 65.799 450.33 65.3794 448.642 64.5841L447.79 66.3932C449.81 67.3451 452.211 67.799 454.96 67.799V65.799ZM448.647 64.586C446.917 63.7615 445.529 62.7401 444.458 61.5331L442.962 62.8603C444.235 64.2954 445.851 65.4687 447.786 66.3913L448.647 64.586ZM444.463 61.5391C443.344 60.2567 442.507 58.9848 441.936 57.7251L440.114 58.5505C440.779 60.0181 441.732 61.4521 442.956 62.8544L444.463 61.5391ZM441.025 57.1378H440.418V59.1378H441.025V57.1378ZM439.418 58.1378V66H441.418V58.1378H439.418ZM440.418 65H426.995V67H440.418V65ZM439.322 41.4545C439.322 44.4632 439.739 47.1325 440.599 49.4421L442.474 48.7439C441.715 46.707 441.322 44.2839 441.322 41.4545H439.322ZM440.599 49.4421C441.461 51.7546 442.73 53.6114 444.431 54.9588L445.673 53.3907C444.307 52.309 443.231 50.7781 442.474 48.7439L440.599 49.4421ZM444.438 54.9641C446.17 56.3112 448.258 56.9645 450.645 56.9645V54.9645C448.643 54.9645 447.002 54.4245 445.666 53.3854L444.438 54.9641ZM450.645 56.9645C453.055 56.9645 455.157 56.2995 456.891 54.9268L455.649 53.3587C454.315 54.415 452.667 54.9645 450.645 54.9645V56.9645ZM456.897 54.9215C458.597 53.5525 459.854 51.685 460.694 49.3701L458.814 48.6881C458.077 50.7198 457.012 52.2614 455.643 53.364L456.897 54.9215ZM460.692 49.3752C461.55 47.0484 461.968 44.4026 461.968 41.4545H459.968C459.968 44.2168 459.577 46.6206 458.816 48.683L460.692 49.3752ZM461.968 41.4545C461.968 38.5301 461.562 35.9166 460.725 33.6319L458.847 34.3198C459.587 36.339 459.968 38.7114 459.968 41.4545H461.968ZM460.725 33.6319C459.884 31.3367 458.625 29.4895 456.923 28.1421L455.681 29.7102C457.048 30.7918 458.111 32.311 458.847 34.3198L460.725 33.6319ZM456.923 28.1421C455.187 26.768 453.074 26.1044 450.645 26.1044V28.1044C452.691 28.1044 454.349 28.6553 455.681 29.7102L456.923 28.1421ZM450.645 26.1044C448.244 26.1044 446.147 26.7433 444.413 28.0675L445.627 29.6569C446.962 28.6374 448.615 28.1044 450.645 28.1044V26.1044ZM444.408 28.0717C442.722 29.3779 441.462 31.2058 440.601 33.4959L442.472 34.2001C443.23 32.1863 444.293 30.6903 445.633 29.6528L444.408 28.0717ZM440.601 33.4959C439.739 35.7862 439.322 38.4462 439.322 41.4545H441.322C441.322 38.6248 441.715 36.2138 442.472 34.2001L440.601 33.4959ZM515.437 45.098H514.436L514.437 45.1077L515.437 45.098ZM515.437 16.9091V15.9091H514.437V16.9091H515.437ZM529.052 16.9091H530.052V15.9091H529.052V16.9091ZM529.052 66V67H530.052V66H529.052ZM515.98 66H514.98V67H515.98V66ZM515.98 57.0831H516.98V56.0831H515.98V57.0831ZM515.469 57.0831V56.0831H514.782L514.535 56.7237L515.469 57.0831ZM509.939 64.0185L509.378 63.1906L509.375 63.1928L509.939 64.0185ZM491.914 64.402L492.427 63.5438L491.914 64.402ZM486.065 58.0419L485.172 58.4919L485.175 58.4974L486.065 58.0419ZM483.956 48.1662H482.956L482.956 48.1717L483.956 48.1662ZM483.956 16.9091V15.9091H482.956V16.9091H483.956ZM497.571 16.9091H498.571V15.9091H497.571V16.9091ZM497.571 45.7372H496.571L496.571 45.7446L497.571 45.7372ZM499.904 52.6087L500.643 51.9351L499.904 52.6087ZM510.674 54.0149L511.138 54.9013L511.148 54.8958L510.674 54.0149ZM514.126 50.6271L513.269 50.1126L513.263 50.1217L514.126 50.6271ZM516.437 45.098V16.9091H514.437V45.098H516.437ZM515.437 17.9091H529.052V15.9091H515.437V17.9091ZM528.052 16.9091V66H530.052V16.9091H528.052ZM529.052 65H515.98V67H529.052V65ZM516.98 66V57.0831H514.98V66H516.98ZM515.98 56.0831H515.469V58.0831H515.98V56.0831ZM514.535 56.7237C513.502 59.4075 511.789 61.5567 509.378 63.1907L510.5 64.8463C513.246 62.9859 515.22 60.5115 516.402 57.4425L514.535 56.7237ZM509.375 63.1928C507.014 64.8062 504.099 65.6392 500.575 65.6392V67.6392C504.423 67.6392 507.751 66.7251 510.504 64.8441L509.375 63.1928ZM500.575 65.6392C497.451 65.6392 494.746 64.9309 492.427 63.5438L491.4 65.2601C494.068 66.856 497.137 67.6392 500.575 67.6392V65.6392ZM492.427 63.5438C490.105 62.1547 488.282 60.1791 486.955 57.5864L485.175 58.4974C486.661 61.4019 488.736 63.6663 491.4 65.2601L492.427 63.5438ZM486.958 57.5919C485.658 55.011 484.976 51.8786 484.956 48.1606L482.956 48.1717C482.978 52.1242 483.703 55.5757 485.172 58.4919L486.958 57.5919ZM484.956 48.1662V16.9091H482.956V48.1662H484.956ZM483.956 17.9091H497.571V15.9091H483.956V17.9091ZM496.571 16.9091V45.7372H498.571V16.9091H496.571ZM496.571 45.7446C496.593 48.8195 497.423 51.3712 499.165 53.2823L500.643 51.9351C499.316 50.4796 498.591 48.4504 498.571 45.7299L496.571 45.7446ZM499.165 53.2823C500.914 55.202 503.254 56.1335 506.072 56.1335V54.1335C503.734 54.1335 501.962 53.3818 500.643 51.9351L499.165 53.2823ZM506.072 56.1335C507.871 56.1335 509.564 55.7231 511.137 54.9013L510.211 53.1286C508.93 53.7982 507.555 54.1335 506.072 54.1335V56.1335ZM511.148 54.8958C512.748 54.0359 514.029 52.7716 514.989 51.1325L513.263 50.1217C512.476 51.4656 511.456 52.4598 510.201 53.134L511.148 54.8958ZM514.984 51.1416C515.995 49.4554 516.459 47.4196 516.436 45.0883L514.437 45.1077C514.457 47.1656 514.047 48.8159 513.269 50.1126L514.984 51.1416ZM543.49 83.9936L543.67 83.0099L543.659 83.008L543.49 83.9936ZM539.782 83.0028L538.825 82.7138L538.563 83.5812L539.4 83.9271L539.782 83.0028ZM542.85 72.8395L543.144 71.8834L542.183 71.589L541.893 72.5505L542.85 72.8395ZM547.165 73.6385L547.132 74.6379L547.132 74.638L547.165 73.6385ZM550.521 72.7436L549.966 71.9115L549.958 71.9174L550.521 72.7436ZM552.854 69.4837L553.786 69.8461L553.787 69.8426L552.854 69.4837ZM553.653 67.4062L554.586 67.7652L554.718 67.4231L554.597 67.077L553.653 67.4062ZM536.043 16.9091V15.9091H534.635L535.099 17.2384L536.043 16.9091ZM550.361 16.9091L551.324 16.6378L551.118 15.9091H550.361V16.9091ZM560.524 52.9602L559.562 53.2316L559.767 53.9602H560.524V52.9602ZM561.036 52.9602V53.9602H561.791L561.998 53.2339L561.036 52.9602ZM571.295 16.9091V15.9091H570.54L570.333 16.6354L571.295 16.9091ZM585.709 16.9091L586.653 17.2401L587.12 15.9091H585.709V16.9091ZM566.629 71.3054L565.685 70.9744L565.684 70.9778L566.629 71.3054ZM562.889 78.2088L562.11 77.582L562.103 77.5914L562.889 78.2088ZM556.977 82.7791L556.569 81.866L556.562 81.869L556.977 82.7791ZM548.348 83.4091C546.675 83.4091 545.116 83.2748 543.67 83.01L543.31 84.9773C544.888 85.2663 546.568 85.4091 548.348 85.4091V83.4091ZM543.659 83.008C542.212 82.76 541.053 82.446 540.164 82.0786L539.4 83.9271C540.471 84.3694 541.784 84.7159 543.321 84.9792L543.659 83.008ZM540.74 83.2918L543.808 73.1285L541.893 72.5505L538.825 82.7138L540.74 83.2918ZM542.557 73.7955C544.215 74.304 545.743 74.5916 547.132 74.6379L547.198 72.639C546.03 72.6001 544.682 72.3551 543.144 71.8834L542.557 73.7955ZM547.132 74.638C548.612 74.6865 549.947 74.3455 551.084 73.5698L549.958 71.9174C549.22 72.4201 548.318 72.6758 547.198 72.639L547.132 74.638ZM551.076 73.5757C552.264 72.7831 553.146 71.4929 553.786 69.8461L551.922 69.1212C551.369 70.5426 550.695 71.4257 549.966 71.9116L551.076 73.5757ZM553.787 69.8426L554.586 67.7652L552.72 67.0473L551.921 69.1247L553.787 69.8426ZM554.597 67.077L536.987 16.5798L535.099 17.2384L552.709 67.7355L554.597 67.077ZM536.043 17.9091H550.361V15.9091H536.043V17.9091ZM549.399 17.1804L559.562 53.2316L561.487 52.6889L551.324 16.6378L549.399 17.1804ZM560.524 53.9602H561.036V51.9602H560.524V53.9602ZM561.998 53.2339L572.257 17.1828L570.333 16.6354L560.074 52.6865L561.998 53.2339ZM571.295 17.9091H585.709V15.9091H571.295V17.9091ZM584.765 16.5781L565.685 70.9744L567.572 71.6364L586.653 17.2401L584.765 16.5781ZM565.684 70.9778C564.801 73.5234 563.607 75.7207 562.11 77.582L563.669 78.8356C565.325 76.7765 566.624 74.3715 567.574 71.633L565.684 70.9778ZM562.103 77.5914C560.652 79.4401 558.813 80.8644 556.569 81.866L557.384 83.6923C559.914 82.5632 562.016 80.9406 563.676 78.8263L562.103 77.5914ZM556.562 81.869C554.338 82.8821 551.61 83.4091 548.348 83.4091V85.4091C551.818 85.4091 554.843 84.8494 557.391 83.6892L556.562 81.869ZM628.496 66L627.534 66.2751L627.742 67H628.496V66ZM609.767 0.545452V-0.454548H608.441L608.806 0.820546L609.767 0.545452ZM624.884 0.545452L625.857 0.313709L625.674 -0.454548H624.884V0.545452ZM635.719 46.0249L634.746 46.2566L634.929 47.0249H635.719V46.0249ZM636.262 46.0249V47.0249H637.033L637.229 46.279L636.262 46.0249ZM648.215 0.545452V-0.454548H647.444L647.248 0.291261L648.215 0.545452ZM661.159 0.545452L662.127 0.292396L661.931 -0.454548H661.159V0.545452ZM673.08 46.1207L672.113 46.3738L672.308 47.1207H673.08V46.1207ZM673.656 46.1207V47.1207H674.446L674.629 46.352L673.656 46.1207ZM684.49 0.545452V-0.454548H683.7L683.517 0.31417L684.49 0.545452ZM699.607 0.545452L700.569 0.820546L700.934 -0.454548H699.607V0.545452ZM680.879 66V67H681.633L681.84 66.2751L680.879 66ZM667.391 66L666.431 66.2796L666.641 67H667.391V66ZM654.927 23.2053L655.887 22.9256L655.677 22.2053H654.927V23.2053ZM654.416 23.2053V22.2053H653.665L653.455 22.9263L654.416 23.2053ZM641.983 66V67H642.734L642.943 66.279L641.983 66ZM629.457 65.7249L610.729 0.270359L608.806 0.820546L627.534 66.2751L629.457 65.7249ZM609.767 1.54545H624.884V-0.454548H609.767V1.54545ZM623.912 0.777196L634.746 46.2566L636.692 45.7931L625.857 0.313709L623.912 0.777196ZM635.719 47.0249H636.262V45.0249H635.719V47.0249ZM637.229 46.279L649.182 0.799644L647.248 0.291261L635.295 45.7707L637.229 46.279ZM648.215 1.54545H661.159V-0.454548H648.215V1.54545ZM660.192 0.79851L672.113 46.3738L674.048 45.8677L662.127 0.292396L660.192 0.79851ZM673.08 47.1207H673.656V45.1207H673.08V47.1207ZM674.629 46.352L685.463 0.776735L683.517 0.31417L672.683 45.8895L674.629 46.352ZM684.49 1.54545H699.607V-0.454548H684.49V1.54545ZM698.646 0.270359L679.917 65.7249L681.84 66.2751L700.569 0.820546L698.646 0.270359ZM680.879 65H667.391V67H680.879V65ZM668.352 65.7204L655.887 22.9256L653.967 23.4849L666.431 66.2796L668.352 65.7204ZM654.927 22.2053H654.416V24.2053H654.927V22.2053ZM653.455 22.9263L641.023 65.721L642.943 66.279L655.376 23.4842L653.455 22.9263ZM641.983 65H628.496V67H641.983V65ZM711.704 66V67H712.431L712.655 66.3094L711.704 66ZM696.875 66L695.929 65.6737L695.472 67H696.875V66ZM719.471 0.545452V-0.454548H718.758L718.525 0.219134L719.471 0.545452ZM737.304 0.545452L738.25 0.219547L738.017 -0.454548H737.304V0.545452ZM759.868 66V67H761.271L760.814 65.6741L759.868 66ZM745.039 66L744.088 66.3088L744.312 67H745.039V66ZM728.643 15.5028L729.594 15.194L729.37 14.5028H728.643V15.5028ZM728.132 15.5028V14.5028H727.406L727.181 15.1935L728.132 15.5028ZM710.777 40.272V39.272H709.777V40.272H710.777ZM745.806 40.272H746.806V39.272H745.806V40.272ZM745.806 51.0746V52.0746H746.806V51.0746H745.806ZM710.777 51.0746H709.777V52.0746H710.777V51.0746ZM711.704 65H696.875V67H711.704V65ZM697.82 66.3263L720.416 0.871771L718.525 0.219134L695.929 65.6737L697.82 66.3263ZM719.471 1.54545H737.304V-0.454548H719.471V1.54545ZM736.359 0.871358L758.923 66.3259L760.814 65.6741L738.25 0.219547L736.359 0.871358ZM759.868 65H745.039V67H759.868V65ZM745.99 65.6912L729.594 15.194L727.692 15.8117L744.088 66.3088L745.99 65.6912ZM728.643 14.5028H728.132V16.5028H728.643V14.5028ZM727.181 15.1935L710.753 65.6906L712.655 66.3094L729.083 15.8122L727.181 15.1935ZM710.777 41.272H745.806V39.272H710.777V41.272ZM744.806 40.272V51.0746H746.806V40.272H744.806ZM745.806 50.0746H710.777V52.0746H745.806V50.0746ZM711.777 51.0746V40.272H709.777V51.0746H711.777ZM767.747 66H766.747V67H767.747V66ZM767.747 0.545452V-0.454548H766.747V0.545452H767.747ZM808.144 4.47656L807.661 5.3522L807.664 5.35386L808.144 4.47656ZM819.107 15.6946L818.221 16.1588L818.222 16.1618L819.107 15.6946ZM819.107 50.7869L818.222 50.3213L818.22 50.3244L819.107 50.7869ZM808.08 62.0689L807.601 61.1914L807.599 61.1923L808.08 62.0689ZM781.585 54.1428H780.585V55.1428H781.585V54.1428ZM800.698 51.9695L801.158 52.857L801.161 52.8557L800.698 51.9695ZM807.026 45.1619L806.118 44.7425L806.117 44.7453L807.026 45.1619ZM807.026 21.3516L806.117 21.7682L806.119 21.7734L807.026 21.3516ZM800.729 14.576L801.19 13.6884V13.6884L800.729 14.576ZM781.585 12.4027V11.4027H780.585V12.4027H781.585ZM790.95 65H767.747V67H790.95V65ZM768.747 66V0.545452H766.747V66H768.747ZM767.747 1.54545H791.141V-0.454548H767.747V1.54545ZM791.141 1.54545C797.592 1.54545 803.086 2.82874 807.661 5.3522L808.627 3.60093C803.699 0.882905 797.858 -0.454548 791.141 -0.454548V1.54545ZM807.664 5.35386C812.24 7.8569 815.754 11.451 818.221 16.1588L819.992 15.2305C817.346 10.1796 813.552 6.29508 808.624 3.59927L807.664 5.35386ZM818.222 16.1618C820.709 20.8674 821.974 26.5376 821.974 33.2088H823.974C823.974 26.2863 822.661 20.2803 819.991 15.2274L818.222 16.1618ZM821.974 33.2088C821.974 39.9017 820.709 45.5938 818.222 50.3213L819.992 51.2525C822.661 46.1789 823.974 40.1522 823.974 33.2088H821.974ZM818.22 50.3244C815.754 55.0516 812.219 58.6668 807.601 61.1914L808.56 62.9463C813.53 60.2295 817.346 56.3234 819.993 51.2495L818.22 50.3244ZM807.599 61.1923C803.003 63.716 797.466 65 790.95 65V67C797.729 67 803.612 65.6632 808.562 62.9454L807.599 61.1923ZM781.585 55.1428H790.374V53.1428H781.585V55.1428ZM790.374 55.1428C794.579 55.1428 798.188 54.3986 801.158 52.857L800.237 51.0819C797.624 52.438 794.352 53.1428 790.374 53.1428V55.1428ZM801.161 52.8557C804.183 51.276 806.442 48.8347 807.935 45.5786L806.117 44.7453C804.797 47.6255 802.837 49.7226 800.234 51.0832L801.161 52.8557ZM807.933 45.5814C809.442 42.3162 810.167 38.1747 810.167 33.2088H808.167C808.167 38.0014 807.464 41.8287 806.118 44.7425L807.933 45.5814ZM810.167 33.2088C810.167 28.2845 809.442 24.1741 807.932 20.9297L806.119 21.7734C807.465 24.6654 808.167 28.4598 808.167 33.2088H810.167ZM807.935 20.9349C806.443 17.68 804.194 15.2477 801.19 13.6884L800.269 15.4635C802.847 16.802 804.796 18.8867 806.117 21.7682L807.935 20.9349ZM801.19 13.6884C798.22 12.1468 794.611 11.4027 790.406 11.4027V13.4027C794.384 13.4027 797.656 14.1074 800.269 15.4635L801.19 13.6884ZM790.406 11.4027H781.585V13.4027H790.406V11.4027ZM780.585 12.4027V54.1428H782.585V12.4027H780.585Z" fill="url(#paint0_linear_101_592)"/>
<defs>
<linearGradient id="paint0_linear_101_592" x1="-153.103" y1="51" x2="67.3062" y2="-369.712" gradientUnits="userSpaceOnUse">
<stop offset="0.6896" stop-color="#F42D32"/>
<stop offset="1" stop-color="#FCCB4C"/>
</linearGradient>
</defs>
</svg>
