<svg width="364" height="308" viewBox="0 0 364 308" fill="none" xmlns="http://www.w3.org/2000/svg">
<g clip-path="url(#clip0_204_13)">
<rect width="364" height="308" rx="24" fill="url(#paint0_linear_204_13)"/>
<path d="M364 324C364 300.099 359.292 276.433 350.146 254.352C341 232.27 327.594 212.207 310.693 195.307C293.793 178.406 273.73 165 251.648 155.854C229.567 146.708 205.901 142 182 142C158.099 142 134.433 146.708 112.352 155.854C90.2703 165 70.2068 178.406 53.3066 195.307C36.4063 212.207 23.0003 232.27 13.8539 254.352C4.70756 276.433 -2.08945e-06 300.099 0 324L364 324Z" fill="url(#paint1_linear_204_13)"/>
</g>
<defs>
<linearGradient id="paint0_linear_204_13" x1="25.5" y1="308" x2="364" y2="-20.5" gradientUnits="userSpaceOnUse">
<stop stop-color="#BB0100"/>
<stop offset="0.640194" stop-color="#F42D32"/>
<stop offset="1" stop-color="#FFCD2C"/>
</linearGradient>
<linearGradient id="paint1_linear_204_13" x1="182" y1="142" x2="182" y2="324" gradientUnits="userSpaceOnUse">
<stop stop-color="white" stop-opacity="0.17"/>
<stop offset="1" stop-color="white" stop-opacity="0"/>
</linearGradient>
<clipPath id="clip0_204_13">
<rect width="364" height="308" rx="24" fill="white"/>
</clipPath>
</defs>
</svg>
