<svg width="71" height="71" viewBox="0 0 71 71" fill="none" xmlns="http://www.w3.org/2000/svg">
<g filter="url(#filter0_bii_206_32)">
<circle cx="35.5" cy="35.5" r="35.5" fill="white" fill-opacity="0.095"/>
</g>
<g clip-path="url(#clip0_206_32)">
<path d="M43.7778 29.1734C43.6802 29.1592 43.581 29.1592 43.4834 29.1734C42.4363 29.1388 41.4438 28.6935 40.7162 27.9319C39.9886 27.1703 39.5833 26.1523 39.586 25.0938C39.586 22.8415 41.3945 21 43.6376 21C45.8667 21 47.6892 22.8273 47.6892 25.0938C47.6862 26.153 47.2771 27.1698 46.5477 27.9305C45.8183 28.6913 44.8255 29.1368 43.7778 29.1734ZM48.351 38.99C46.7808 40.0524 44.5797 40.449 42.5469 40.1799C43.0796 39.0183 43.36 37.7293 43.3741 36.3694C43.3741 34.9529 43.0656 33.6072 42.4768 32.4314C44.5517 32.1481 46.7527 32.5448 48.3369 33.6072C50.552 35.0804 50.552 37.5026 48.351 38.99ZM28.2302 29.1734C28.3284 29.1592 28.4265 29.1592 28.5247 29.1734C29.5717 29.1388 30.5643 28.6935 31.2918 27.9319C32.0194 27.1703 32.4248 26.1523 32.4221 25.0938C32.4221 24.5571 32.3174 24.0257 32.1142 23.5299C31.9109 23.034 31.613 22.5835 31.2374 22.204C30.8618 21.8246 30.416 21.5235 29.9253 21.3182C29.4345 21.1128 28.9086 21.0071 28.3774 21.0071C27.8463 21.0071 27.3204 21.1128 26.8296 21.3182C26.3389 21.5235 25.8931 21.8246 25.5175 22.204C25.1419 22.5835 24.844 23.034 24.6407 23.5299C24.4375 24.0257 24.3328 24.5571 24.3328 25.0938C24.3328 27.3036 26.0572 29.1026 28.2302 29.1734ZM28.3859 36.3694C28.3859 37.7434 28.6803 39.0466 29.213 40.2224C27.2363 40.4349 25.1754 40.0099 23.6613 39.0042C21.4462 37.5168 21.4462 35.0945 23.6613 33.6072C25.1614 32.5873 27.2783 32.1765 29.2691 32.4031C28.6943 33.593 28.3859 34.9387 28.3859 36.3694ZM36.1933 40.6473C36.0722 40.6332 35.9499 40.6332 35.8288 40.6473C34.5822 40.605 33.4009 40.0743 32.5348 39.1674C31.6687 38.2606 31.1858 37.0488 31.1883 35.7886C31.2024 33.0972 33.3473 30.9157 36.0251 30.9157C38.6888 30.9157 40.8477 33.0972 40.8477 35.7886C40.847 37.0503 40.3611 38.2622 39.4927 39.1688C38.6243 40.0753 37.4412 40.6054 36.1933 40.6473ZM31.637 43.5796C29.52 45.0103 29.52 47.3617 31.637 48.7782C34.0483 50.4073 38.0018 50.4073 40.4131 48.7782C42.5301 47.3475 42.5301 44.9961 40.4131 43.5796C38.0158 41.9505 34.0623 41.9505 31.637 43.5796Z" fill="white"/>
</g>
<defs>
<filter id="filter0_bii_206_32" x="-74.4293" y="-74.4293" width="219.859" height="219.859" filterUnits="userSpaceOnUse" color-interpolation-filters="sRGB">
<feFlood flood-opacity="0" result="BackgroundImageFix"/>
<feGaussianBlur in="BackgroundImageFix" stdDeviation="37.2147"/>
<feComposite in2="SourceAlpha" operator="in" result="effect1_backgroundBlur_206_32"/>
<feBlend mode="normal" in="SourceGraphic" in2="effect1_backgroundBlur_206_32" result="shape"/>
<feColorMatrix in="SourceAlpha" type="matrix" values="0 0 0 0 0 0 0 0 0 0 0 0 0 0 0 0 0 0 127 0" result="hardAlpha"/>
<feOffset dx="-3.01333" dy="3.01333"/>
<feGaussianBlur stdDeviation="1.50667"/>
<feComposite in2="hardAlpha" operator="arithmetic" k2="-1" k3="1"/>
<feColorMatrix type="matrix" values="0 0 0 0 1 0 0 0 0 1 0 0 0 0 1 0 0 0 0.39 0"/>
<feBlend mode="normal" in2="shape" result="effect2_innerShadow_206_32"/>
<feColorMatrix in="SourceAlpha" type="matrix" values="0 0 0 0 0 0 0 0 0 0 0 0 0 0 0 0 0 0 127 0" result="hardAlpha"/>
<feOffset dx="2.01" dy="-2.01"/>
<feGaussianBlur stdDeviation="10"/>
<feComposite in2="hardAlpha" operator="arithmetic" k2="-1" k3="1"/>
<feColorMatrix type="matrix" values="0 0 0 0 0.84 0 0 0 0 0.84 0 0 0 0 0.84 0 0 0 0.17 0"/>
<feBlend mode="normal" in2="effect2_innerShadow_206_32" result="effect3_innerShadow_206_32"/>
</filter>
<clipPath id="clip0_206_32">
<rect width="40" height="40" fill="white" transform="translate(16 15)"/>
</clipPath>
</defs>
</svg>
