<svg width="114" height="32" viewBox="0 0 114 32" fill="none" xmlns="http://www.w3.org/2000/svg">
<path d="M85.3381 18.1264L85.2173 17.9093L85.1479 17.7876V17.7868L89.9865 9.58416L90.1436 9.3159L90.1974 9.22623H87.1543V9.22662L86.9776 9.51982L84.046 14.3748L82.6732 16.6495C82.5999 16.7754 82.5351 16.8877 82.4813 16.9899C82.4732 17.002 82.4677 17.014 82.4615 17.025C82.4416 17.0624 82.4217 17.0983 82.4049 17.1306C82.3967 17.1462 82.3901 17.1614 82.3815 17.1759C82.371 17.1981 82.3597 17.218 82.3511 17.241C82.3467 17.2467 82.3434 17.2532 82.3414 17.2601C82.3336 17.2761 82.3281 17.2913 82.3207 17.3061C82.3102 17.3306 82.2993 17.3548 82.2895 17.3794C82.2841 17.393 82.2802 17.4082 82.2735 17.4223C82.2653 17.4439 82.2582 17.4659 82.2521 17.4882C82.247 17.5022 82.2439 17.5162 82.24 17.5291C82.233 17.5502 82.2302 17.5708 82.226 17.5899C82.2232 17.6036 82.2201 17.6164 82.2186 17.6305C82.215 17.6503 82.2127 17.6704 82.2115 17.6905C82.2096 17.7026 82.2087 17.7149 82.2088 17.7272C82.2072 17.7478 82.2088 17.7681 82.2096 17.788C82.2096 17.7993 82.2096 17.811 82.2115 17.8207C82.2146 17.8445 82.2185 17.8656 82.2209 17.8901C82.2232 17.8983 82.2232 17.9077 82.2256 17.9159C82.2322 17.944 82.24 17.9728 82.2494 18.0017L82.2536 18.0134C82.2954 18.1451 82.3671 18.289 82.4677 18.4695C82.4732 18.4785 82.4774 18.4879 82.4829 18.4968C82.5118 18.5463 82.541 18.599 82.5722 18.6528L87.6549 27.5148H90.5975L85.3381 18.1264ZM79.23 1.40137V27.5183H81.9051V1.40137H79.23Z" fill="#A2C056"/>
<path d="M113.002 9.36887C112.815 9.2905 112.624 9.22032 112.425 9.15989C112.369 9.14337 112.313 9.12764 112.257 9.11271L112.245 9.10998C112.196 9.09681 112.147 9.08446 112.097 9.07294L112.08 9.06943C112.036 9.05929 111.99 9.04877 111.944 9.0398C111.559 8.96488 111.168 8.92624 110.775 8.92439H110.767C110.672 8.92478 110.579 8.92751 110.484 8.93258C110.458 8.93336 110.432 8.9357 110.405 8.93804C110.34 8.94232 110.274 8.94622 110.209 8.95363C110.174 8.95636 110.14 8.96104 110.106 8.96455C110.049 8.97157 109.993 8.97859 109.936 8.98677C109.901 8.99184 109.867 8.99691 109.832 9.00276C109.775 9.01212 109.719 9.02264 109.663 9.03317C109.641 9.03863 109.619 9.04136 109.595 9.04565C109.586 9.0476 109.576 9.05111 109.567 9.05306C109.503 9.06629 109.44 9.08138 109.377 9.09828C109.353 9.10452 109.331 9.1092 109.308 9.11466C109.224 9.13766 109.144 9.16145 109.061 9.18796L109.048 9.19186C109.04 9.1942 109.031 9.19888 109.023 9.20083C108.907 9.23943 108.795 9.27998 108.685 9.32481C108.672 9.33027 108.661 9.33417 108.648 9.33924C108.537 9.38486 108.427 9.43555 108.319 9.48896C108.309 9.4952 108.296 9.49949 108.284 9.50534C108.275 9.5108 108.264 9.51625 108.254 9.52132C108.18 9.5607 108.105 9.59969 108.033 9.64219L108.029 9.64414L108 9.66091C107.929 9.70302 107.858 9.74668 107.787 9.79191C107.771 9.80322 107.754 9.81531 107.736 9.82622C107.728 9.83246 107.721 9.83675 107.712 9.8426C107.66 9.87769 107.609 9.91434 107.558 9.95021C107.545 9.95879 107.533 9.96815 107.521 9.97711C107.509 9.9853 107.497 9.99466 107.484 10.0032C107.418 10.0524 107.354 10.1023 107.293 10.1541C107.292 10.1545 107.292 10.1549 107.292 10.1553C107.281 10.1638 107.27 10.1725 107.259 10.1814L107.259 10.1822C107.197 10.2343 107.137 10.2876 107.077 10.3421C107.054 10.3627 107.034 10.3846 107.01 10.406C106.966 10.4473 106.923 10.4906 106.879 10.5343L106.849 10.5662L106.817 10.6002C106.798 10.6193 106.78 10.6399 106.761 10.6594C106.724 10.6992 106.688 10.7378 106.655 10.7787H106.654C106.643 10.7897 106.635 10.8002 106.626 10.8111L106.623 10.8123C106.573 10.8739 106.521 10.9347 106.473 10.9983L106.417 11.0708C106.39 11.1082 106.362 11.146 106.335 11.1842C106.326 11.1959 106.317 11.2076 106.31 11.2193C106.301 11.2314 106.292 11.2438 106.284 11.2564C106.276 11.2685 106.267 11.2809 106.259 11.2934C106.213 11.3609 106.168 11.4287 106.125 11.4977C106.125 11.4981 106.125 11.4985 106.124 11.4989C106.117 11.509 106.111 11.5199 106.105 11.5305C106.079 11.5737 106.054 11.6194 106.029 11.6626C106.015 11.6888 105.997 11.7149 105.984 11.7414C105.98 11.7469 105.976 11.7519 105.975 11.757C105.965 11.7777 105.953 11.7983 105.942 11.8194L105.857 11.9847V11.9859C105.848 12.0022 105.84 12.0178 105.832 12.0346C105.826 12.044 105.824 12.0545 105.818 12.0642C105.798 12.106 105.779 12.1492 105.761 12.1921C105.746 12.2264 105.729 12.2604 105.715 12.2947C105.713 12.2982 105.713 12.3025 105.711 12.3056C105.709 12.3099 105.706 12.3142 105.705 12.32C105.696 12.3424 105.687 12.3652 105.68 12.3882C105.657 12.4428 105.635 12.4974 105.615 12.552C105.605 12.5797 105.596 12.607 105.588 12.6331C105.566 12.6935 105.547 12.754 105.528 12.8148C105.524 12.8288 105.52 12.8428 105.516 12.8569L105.504 12.8959C105.48 12.9813 105.456 13.0667 105.435 13.1528L105.434 13.1532V13.1583C105.403 13.29 105.376 13.4228 105.354 13.5564C105.352 13.5599 105.352 13.5638 105.351 13.5673C105.343 13.6195 105.335 13.671 105.328 13.7225L105.316 13.8071C105.314 13.8199 105.314 13.8332 105.313 13.8476C105.303 13.9361 105.293 14.0258 105.288 14.1151C105.288 14.1202 105.287 14.1248 105.287 14.1303C105.286 14.1338 105.286 14.1381 105.285 14.1404C105.281 14.2219 105.279 14.3046 105.278 14.3865C105.276 14.4162 105.275 14.446 105.275 14.4758V27.5182H107.95V14.4758C107.95 13.7275 108.289 12.9403 108.825 12.3781C108.87 12.3301 108.918 12.2837 108.966 12.2389C109.01 12.1995 109.054 12.1621 109.1 12.1258C109.413 11.872 109.774 11.6934 110.166 11.6279C110.273 11.6106 110.382 11.6013 110.491 11.6003L113.399 11.6673C113.424 11.2345 113.447 10.7643 113.472 10.2364C113.473 10.1994 113.476 10.1631 113.478 10.1257L113.479 10.0972C113.482 10.0204 113.486 9.94241 113.488 9.86209C113.488 9.85625 113.49 9.85079 113.49 9.84494V9.82778C113.494 9.75097 113.497 9.67338 113.499 9.59384C113.336 9.51314 113.17 9.43789 113.002 9.36887ZM102.095 13.972C102.094 13.9622 102.093 13.9523 102.093 13.9424C102.088 13.866 102.083 13.7891 102.076 13.7143V13.7077C102.074 13.6956 102.071 13.6835 102.07 13.6714C102.066 13.6281 102.06 13.5856 102.055 13.5427C102.05 13.5158 102.047 13.4885 102.044 13.4616C102.041 13.4375 102.036 13.4125 102.034 13.3891C102.025 13.331 102.013 13.2729 102.002 13.216C101.998 13.1899 101.992 13.1634 101.986 13.1368C101.977 13.0908 101.965 13.0441 101.954 12.9988C101.954 12.9906 101.951 12.984 101.949 12.9754C101.949 12.9754 101.949 12.9746 101.949 12.9746C101.942 12.9485 101.937 12.9224 101.929 12.8963C101.921 12.8639 101.91 12.8312 101.903 12.7988C101.895 12.7742 101.889 12.7493 101.881 12.7247C101.875 12.7041 101.87 12.6834 101.862 12.6623C101.859 12.653 101.856 12.6444 101.854 12.635C101.832 12.5684 101.811 12.5017 101.787 12.4362C101.78 12.4202 101.775 12.4046 101.768 12.389C101.746 12.3305 101.725 12.2724 101.701 12.2151C101.689 12.1882 101.678 12.1605 101.666 12.1336C101.652 12.1028 101.639 12.072 101.625 12.0428C101.62 12.0327 101.617 12.0213 101.611 12.0108C101.565 11.9133 101.519 11.8163 101.467 11.7223C101.459 11.7083 101.451 11.6942 101.443 11.681C101.398 11.5973 101.35 11.5152 101.299 11.4349C101.283 11.4084 101.267 11.3823 101.249 11.3558C101.203 11.2838 101.154 11.2133 101.104 11.1445C101.091 11.1235 101.077 11.1031 101.062 11.0833C100.998 10.997 100.931 10.9129 100.862 10.831C100.842 10.8084 100.823 10.7854 100.803 10.7639C100.741 10.6907 100.677 10.6196 100.61 10.5507C100.606 10.5456 100.601 10.5421 100.598 10.537C100.592 10.5312 100.588 10.5253 100.581 10.5199C100.512 10.4497 100.441 10.3826 100.368 10.3171L100.347 10.2961C100.329 10.2801 100.31 10.2641 100.291 10.2481L100.283 10.2399C100.213 10.179 100.142 10.1201 100.069 10.0633C100.054 10.0516 100.039 10.0387 100.024 10.0266V10.0262C99.9374 9.96108 99.8494 9.89828 99.7597 9.83792C99.7402 9.82466 99.7207 9.81258 99.7016 9.8001C99.7 9.79854 99.6961 9.79659 99.6953 9.79503C99.6187 9.74533 99.5406 9.698 99.461 9.65311C99.4478 9.64454 99.4343 9.63648 99.4205 9.62894C99.4134 9.62465 99.4084 9.62075 99.4002 9.61685C99.3053 9.56331 99.2087 9.51299 99.1105 9.46596L99.0859 9.45465C99.0097 9.41973 98.9327 9.38632 98.8551 9.35445C98.836 9.34626 98.8169 9.33729 98.7974 9.32988C98.7732 9.31975 98.7483 9.30922 98.7233 9.29986C98.6207 9.25977 98.5167 9.22348 98.4114 9.19108C98.3923 9.18523 98.3732 9.18133 98.3549 9.17509C98.2645 9.14806 98.1733 9.12361 98.0816 9.10179C98.0546 9.09517 98.0246 9.08854 97.9954 9.08191C97.8862 9.05736 97.7761 9.03643 97.6655 9.01914C97.6542 9.01719 97.6406 9.01602 97.6273 9.01407C97.5258 8.99942 97.4239 8.98798 97.3216 8.97976L97.2316 8.97235L97.2148 8.97196C97.1122 8.96457 97.0093 8.96054 96.9064 8.95987L96.8842 8.95948C96.8128 8.95948 96.7426 8.96182 96.6709 8.96494C96.6222 8.96728 96.5707 8.96962 96.5216 8.97352C96.4647 8.97703 96.4093 8.98015 96.3527 8.98599C96.3216 8.98911 96.2896 8.99379 96.2576 8.99769C96.2184 9.00242 96.1793 9.00762 96.1403 9.01329C96.125 9.01524 96.1091 9.01641 96.0946 9.01875C96.0595 9.0242 96.0248 9.03044 95.989 9.03746C95.953 9.04319 95.9171 9.04956 95.8814 9.05657L95.8404 9.06397L95.7312 9.08893C95.6841 9.09862 95.6372 9.10941 95.5905 9.12129C95.5535 9.13026 95.5172 9.14156 95.4802 9.1517C95.4349 9.16418 95.3909 9.17626 95.3452 9.1903C95.309 9.20161 95.2735 9.21408 95.238 9.22539L95.2349 9.22617C95.2227 9.23129 95.2102 9.23572 95.1975 9.23943C95.1663 9.24957 95.1367 9.26009 95.1047 9.27101C95.0688 9.28388 95.0337 9.2983 94.9986 9.31156C94.9561 9.32832 94.9129 9.34509 94.8704 9.36264C94.8337 9.37823 94.7978 9.39383 94.7643 9.40942L94.6738 9.44997C94.6633 9.45543 94.6524 9.45933 94.6411 9.46518C94.6068 9.48155 94.5736 9.49871 94.5389 9.51548C94.4984 9.53653 94.4567 9.55719 94.4173 9.57903C94.3835 9.59683 94.3501 9.61542 94.3171 9.63478C94.2774 9.65645 94.2383 9.67907 94.1997 9.70263C94.1666 9.72173 94.1346 9.7424 94.1019 9.76267C94.0637 9.78684 94.027 9.81102 93.9896 9.83597C93.9568 9.85703 93.9272 9.87808 93.8952 9.90069L93.8827 9.90927L93.7849 9.97906C93.7545 10.0017 93.7256 10.0239 93.6956 10.0473C93.6589 10.0754 93.6223 10.1034 93.5884 10.1319L93.5022 10.204C93.4671 10.2337 93.4328 10.2633 93.3985 10.2937C93.3712 10.3183 93.3423 10.3432 93.317 10.3686C93.283 10.3998 93.2497 10.4317 93.2172 10.4645L93.216 10.4649C93.1891 10.4894 93.1638 10.516 93.1388 10.5413L93.1189 10.5643C93.0934 10.5896 93.0686 10.6156 93.0445 10.6423C93.0445 10.6423 93.0429 10.6438 93.0421 10.6438C93.018 10.67 92.9949 10.6965 92.9708 10.723L92.9692 10.7234C92.938 10.7585 92.9076 10.7943 92.8791 10.829C92.8784 10.8302 92.8768 10.8306 92.8768 10.8318C92.8534 10.8587 92.832 10.8852 92.8094 10.9125L92.7735 10.9589C92.7567 10.9803 92.7396 11.0014 92.7232 11.0232C92.7214 11.0243 92.7198 11.0258 92.7185 11.0275C92.6984 11.0553 92.6779 11.0827 92.6569 11.1098V11.1109C92.6487 11.1226 92.6394 11.1355 92.6323 11.1468C92.6128 11.1725 92.5945 11.1991 92.5754 11.2256C92.5746 11.2279 92.5731 11.2299 92.5715 11.2318C92.5524 11.2587 92.5317 11.2864 92.5146 11.3145L92.5138 11.3168L92.4842 11.3616C92.4694 11.3862 92.453 11.4104 92.4389 11.4349L92.4323 11.4431C92.4152 11.4704 92.398 11.4981 92.3816 11.5258C92.3797 11.5266 92.3797 11.5273 92.3789 11.5285C92.3638 11.5543 92.3493 11.5805 92.3352 11.6069C92.327 11.6225 92.3181 11.6373 92.3095 11.6521C92.3087 11.6556 92.3056 11.6591 92.3033 11.6623C92.2881 11.6892 92.2732 11.7164 92.2573 11.7434C92.2573 11.7449 92.2573 11.7457 92.2557 11.7461C92.2471 11.766 92.2376 11.7855 92.2272 11.8046L92.1925 11.874C92.1894 11.8798 92.1859 11.8845 92.1843 11.89L92.1446 11.9679C92.1438 11.9683 92.1438 11.9699 92.143 11.9707C92.1239 12.012 92.106 12.0541 92.0865 12.0966C92.0853 12.0997 92.083 12.1024 92.083 12.1048C92.0814 12.1063 92.0814 12.1079 92.0806 12.1095C92.0776 12.1147 92.075 12.1202 92.0728 12.1258C92.0631 12.15 92.0494 12.1734 92.0405 12.1972C92.0405 12.1988 92.0405 12.1991 92.0393 12.2007C92.0198 12.2475 92.0015 12.2954 91.9832 12.343C91.9703 12.3742 91.959 12.405 91.9469 12.4366C91.9279 12.4888 91.9102 12.5414 91.8939 12.5945C91.8849 12.6222 91.8744 12.6499 91.8666 12.6772C91.8393 12.7676 91.8132 12.8612 91.7906 12.9536V12.9548L91.789 12.9552C91.789 12.9598 91.7874 12.9641 91.7874 12.97C91.7698 13.0372 91.7541 13.105 91.7403 13.1731C91.7332 13.2066 91.7274 13.2413 91.7204 13.2753V13.2811C91.7118 13.3295 91.7017 13.3786 91.6946 13.4285C91.6884 13.4671 91.6853 13.5069 91.6794 13.5462V13.5478C91.6794 13.5501 91.6794 13.5521 91.6779 13.5544C91.6716 13.5985 91.6673 13.6429 91.6611 13.687C91.6567 13.7296 91.6538 13.7724 91.6521 13.8153C91.6471 13.8543 91.6443 13.8921 91.644 13.9318C91.644 13.9365 91.6424 13.9424 91.6424 13.9478C91.6357 14.0452 91.6327 14.1427 91.6334 14.2403V22.5346C91.6337 22.6703 91.639 22.8059 91.6494 22.9412C91.6568 23.0336 91.6646 23.1241 91.6751 23.2149C91.6775 23.2317 91.6783 23.2485 91.681 23.2644C91.6942 23.3685 91.711 23.4715 91.7309 23.5736L91.7469 23.6582C91.7644 23.7421 91.7835 23.8251 91.8038 23.9078C91.8093 23.9319 91.8136 23.955 91.8198 23.9783C91.8467 24.0793 91.8767 24.1791 91.9079 24.2782C91.9149 24.3024 91.9243 24.3261 91.9321 24.3503C91.9675 24.4557 92.0059 24.5601 92.0471 24.6634C92.091 24.7767 92.1395 24.8882 92.1925 24.9975C92.2315 25.0779 92.2701 25.157 92.3138 25.2362C92.32 25.2451 92.3235 25.2549 92.329 25.265L92.354 25.3114C92.389 25.3746 92.4265 25.437 92.4631 25.4982C92.524 25.5971 92.5872 25.6946 92.6526 25.7906C92.6647 25.8081 92.6772 25.8257 92.6908 25.8421C92.7325 25.9013 92.7766 25.961 92.8207 26.0163L92.878 26.0889C92.9197 26.1407 92.9626 26.1922 93.0066 26.2421L93.0636 26.306C93.1209 26.3696 93.1801 26.4316 93.2414 26.492C93.2455 26.4975 93.2501 26.5028 93.255 26.5076C93.3225 26.5731 93.3919 26.6367 93.462 26.6979C93.4796 26.7139 93.4987 26.7287 93.5186 26.7443C93.5712 26.7895 93.625 26.8336 93.6816 26.878C93.7049 26.8948 93.726 26.9108 93.7486 26.9279C93.8063 26.9708 93.8671 27.0137 93.9276 27.0535C93.9444 27.0652 93.9615 27.078 93.979 27.0893C94.059 27.1412 94.1405 27.1911 94.2235 27.2383L94.236 27.2453C94.334 27.3009 94.4345 27.3518 94.5374 27.3977C94.6052 27.4289 94.6738 27.457 94.7413 27.4859L94.8076 27.5104C94.8906 27.5432 94.9752 27.5709 95.0595 27.5985L95.0797 27.606C95.1887 27.6388 95.299 27.667 95.4104 27.6906C95.5171 27.7145 95.6248 27.7336 95.7332 27.7479C95.8147 27.7588 95.8962 27.7685 95.9792 27.774L96.0381 27.7799C96.1422 27.7876 96.2451 27.7915 96.3524 27.7915C96.6214 27.7915 96.8994 27.7682 97.1856 27.7182L100.395 27.2161C100.387 27.1474 100.38 27.0804 100.373 27.0129C100.369 26.9724 100.364 26.933 100.361 26.8924C100.359 26.8637 100.356 26.835 100.353 26.8063C100.35 26.761 100.345 26.7158 100.344 26.6686C100.337 26.5948 100.331 26.5208 100.326 26.4468L100.322 26.3813C100.318 26.3271 100.314 26.2748 100.311 26.2175C100.311 26.2007 100.31 26.1839 100.307 26.1672C100.295 25.9447 100.284 25.7221 100.275 25.4993V25.4927C100.271 25.405 100.267 25.3173 100.265 25.2295C100.265 25.2069 100.263 25.1874 100.261 25.1625V25.1406H96.8838C96.7879 25.1405 96.692 25.1347 96.5968 25.1231C96.5176 25.1154 96.4388 25.1033 96.3609 25.0868H96.3594C96.2842 25.0707 96.2098 25.0513 96.1364 25.0287C96.1321 25.0276 96.1293 25.0276 96.1282 25.0264C96.1161 25.0233 96.1059 25.0198 96.0946 25.0163C96.0216 24.9927 95.9496 24.9663 95.8786 24.9371C95.8736 24.9348 95.87 24.9324 95.8654 24.9293C95.7991 24.902 95.7336 24.8708 95.6704 24.8357C95.6591 24.8287 95.647 24.8236 95.6369 24.8174C95.5631 24.7777 95.4919 24.7334 95.4236 24.6848C95.3667 24.6444 95.3113 24.6019 95.2575 24.5573L95.2302 24.5347C95.1727 24.4864 95.1177 24.4353 95.0653 24.3815C95.0575 24.3745 95.0509 24.3663 95.0427 24.3573C94.9952 24.3085 94.9499 24.2578 94.9066 24.2053C94.8984 24.1967 94.8914 24.1877 94.8832 24.1795C94.8375 24.1219 94.794 24.0624 94.753 24.0014C94.7444 23.9889 94.7378 23.9764 94.7288 23.9635C94.7136 23.939 94.6961 23.9175 94.6832 23.8906C94.6816 23.8906 94.6816 23.8902 94.6816 23.8891C94.6641 23.8602 94.6497 23.8306 94.6313 23.7998C94.5866 23.7212 94.5472 23.6398 94.5132 23.5561C94.5078 23.5428 94.5027 23.528 94.4964 23.5136C94.4719 23.4559 94.4524 23.3962 94.4325 23.3358C94.4268 23.3186 94.4217 23.3011 94.4173 23.2835C94.3951 23.2107 94.3761 23.137 94.3604 23.0625C94.358 23.0516 94.3573 23.041 94.3541 23.0305C94.3412 22.9638 94.3315 22.8966 94.3253 22.8289C94.3126 22.7295 94.3065 22.6293 94.307 22.5291V19.6879H100.761C101.114 19.6905 101.453 19.5534 101.705 19.3066C101.948 19.0695 102.099 18.7346 102.099 18.3498V14.2422C102.101 14.1521 102.1 14.062 102.095 13.972ZM99.4602 14.2422V17.0506H94.3105V14.2422C94.3105 13.0737 95.061 12.0822 96.113 11.7511C96.4383 11.65 96.7804 11.6141 97.1197 11.6455C97.1442 11.6474 97.1669 11.6509 97.1899 11.6537C97.2468 11.6607 97.3025 11.6697 97.3571 11.6794C97.3813 11.6841 97.4043 11.688 97.4281 11.6931C97.4944 11.7083 97.5622 11.7254 97.6281 11.7457C97.6343 11.748 97.6421 11.75 97.6484 11.7519C97.7941 11.7986 97.9351 11.8585 98.0699 11.9309L98.1322 11.9644C98.1872 11.9956 98.2399 12.0288 98.2925 12.0638C98.3022 12.0709 98.3139 12.0767 98.3229 12.0837C98.3845 12.1258 98.4449 12.1718 98.5019 12.219C98.5179 12.2315 98.5323 12.2459 98.549 12.2596C98.5904 12.2958 98.6321 12.3333 98.6711 12.3719C98.6886 12.389 98.7058 12.4058 98.7218 12.4233C98.7623 12.4658 98.8025 12.5099 98.8415 12.5551C98.8516 12.568 98.8633 12.5797 98.8742 12.5929C98.9335 12.6671 98.9891 12.7441 99.0407 12.8238C99.0707 12.8705 99.0988 12.9177 99.1265 12.9665C99.1386 12.9891 99.1514 13.0109 99.1643 13.0339C99.1904 13.0838 99.2146 13.1345 99.2376 13.1856C99.2458 13.2047 99.2555 13.2238 99.2622 13.2425L99.27 13.2573C99.2719 13.262 99.2727 13.2663 99.275 13.271C99.2859 13.3022 99.2965 13.3341 99.309 13.3661C99.321 13.4039 99.3363 13.4414 99.3483 13.48C99.362 13.5256 99.3729 13.5716 99.3842 13.618C99.394 13.6539 99.4045 13.6897 99.4115 13.7256C99.4228 13.781 99.429 13.8371 99.4365 13.894C99.4404 13.9229 99.4458 13.951 99.4493 13.9802C99.4559 14.066 99.4602 14.1533 99.4602 14.2422ZM73.757 14.6029L73.8194 14.6013L73.9492 14.5974L74.1227 14.5919L74.2237 14.5888L74.4771 14.5834H74.481C74.807 14.576 75.1528 14.5705 75.5232 14.5619C75.6106 14.56 75.6987 14.5569 75.7888 14.5549L75.8433 14.5537C75.9654 14.5502 76.0921 14.5467 76.2219 14.5424V14.2083C76.2219 14.1447 76.2188 14.0808 76.2161 14.0176V13.9806C76.213 13.9346 76.2098 13.8901 76.2079 13.8449C76.204 13.8012 76.2009 13.7572 76.1978 13.7139C76.194 13.6712 76.1894 13.6286 76.1841 13.586C76.1833 13.579 76.1833 13.5735 76.1818 13.5673C76.1771 13.5283 76.1728 13.4901 76.1658 13.4511C76.1611 13.4106 76.1541 13.3688 76.1475 13.3291L76.1233 13.1961C76.1152 13.1553 76.1064 13.1146 76.0968 13.0741C76.0886 13.0316 76.0785 12.9879 76.0687 12.9446C76.0586 12.9045 76.0465 12.8643 76.0367 12.8241C76.0359 12.8218 76.0359 12.8195 76.0344 12.8163C76.0246 12.7758 76.011 12.7353 75.9993 12.6951C75.988 12.6557 75.9751 12.6171 75.9626 12.5785C75.9507 12.5423 75.9383 12.5061 75.9256 12.4701C75.9228 12.4663 75.9209 12.4619 75.9202 12.4573C75.9065 12.4183 75.8929 12.3789 75.8777 12.3407C75.8644 12.304 75.8496 12.2678 75.8348 12.2315L75.8301 12.2218C75.8145 12.1824 75.7977 12.1438 75.7813 12.1056C75.7716 12.083 75.7607 12.0627 75.7509 12.0408C75.7474 12.0315 75.7427 12.0217 75.7388 12.0128C75.692 11.9116 75.6423 11.8117 75.5899 11.7133C75.5899 11.7122 75.5899 11.7118 75.5883 11.7114C75.5363 11.6134 75.4797 11.5175 75.4187 11.4248C75.4098 11.408 75.3989 11.3928 75.3891 11.3772L75.3766 11.3577C75.3225 11.2743 75.2657 11.1926 75.2062 11.1129L75.1848 11.0801C75.1175 10.9923 75.0484 10.9057 74.9778 10.8205C74.961 10.8022 74.9445 10.7837 74.9283 10.7651C74.8643 10.6922 74.7996 10.6208 74.7317 10.5514L74.7158 10.5358C74.6321 10.4496 74.5452 10.3667 74.4553 10.2871C74.4373 10.2721 74.4194 10.257 74.4015 10.2419C74.329 10.1795 74.2565 10.1194 74.182 10.0606C74.1676 10.0504 74.1562 10.0395 74.1414 10.0294C74.1391 10.0278 74.1379 10.0259 74.134 10.0247V10.0239C74.0294 9.94609 73.9225 9.87133 73.8135 9.79971C73.7324 9.74724 73.6499 9.69705 73.5659 9.64921C73.5468 9.63829 73.5262 9.6266 73.5082 9.61568C73.4108 9.56148 73.311 9.5108 73.21 9.46245L73.1721 9.44529C73.1683 9.44412 73.1651 9.44217 73.1632 9.44139C73.0961 9.41098 73.0275 9.38252 72.9597 9.35406C72.9374 9.34548 72.9172 9.33495 72.8957 9.32638C72.8715 9.31741 72.8478 9.30727 72.824 9.29869C72.7192 9.25863 72.6131 9.22209 72.5058 9.18913L72.4976 9.18679C72.4863 9.18289 72.4742 9.18016 72.4622 9.17665C72.3669 9.14843 72.2708 9.12307 72.174 9.10062C72.1467 9.094 72.1186 9.08815 72.0929 9.08113C71.9873 9.05829 71.8811 9.03853 71.7744 9.02186C71.7681 9.02147 71.7623 9.01953 71.7576 9.01875C71.7479 9.01778 71.7383 9.01648 71.7287 9.01485C71.7046 9.01095 71.6785 9.00939 71.6547 9.00666C71.5747 8.99691 71.4952 8.98638 71.4141 8.97937H71.4129L71.3236 8.97235C71.2074 8.96381 71.0909 8.95939 70.9743 8.95909C70.9267 8.95909 70.8799 8.96143 70.8332 8.96299H70.8308C70.7903 8.96377 70.7509 8.96416 70.7111 8.96572L70.7021 8.96611C70.6573 8.96884 70.6129 8.97352 70.5696 8.97625L70.5637 8.97664C70.5216 8.97937 70.4791 8.98209 70.4378 8.98638H70.4374C70.3945 8.99106 70.3516 8.9973 70.3095 9.00276L70.3017 9.00393C70.2604 9.00939 70.2179 9.01329 70.1766 9.01953C70.1501 9.0242 70.1224 9.02888 70.0959 9.03434C70.0785 9.03761 70.0611 9.04047 70.0436 9.04292L70.0249 9.04604C69.9906 9.05267 69.9555 9.05774 69.9208 9.06436L69.92 9.06553C69.8728 9.07489 69.8268 9.08659 69.7812 9.09789C69.7789 9.09789 69.7761 9.09906 69.773 9.09984C69.7387 9.10803 69.7036 9.11544 69.6685 9.12402L69.6681 9.12441C69.6299 9.13377 69.5933 9.14546 69.5555 9.15638C69.5437 9.15932 69.532 9.16257 69.5204 9.16613C69.488 9.17509 69.4545 9.18406 69.4225 9.19342L69.4213 9.1942L69.3999 9.20122L69.3106 9.23163C69.2946 9.23709 69.2794 9.24177 69.2642 9.248C69.2357 9.25736 69.2073 9.26594 69.1792 9.27647H69.178V9.27686C69.1679 9.27998 69.1566 9.28505 69.1461 9.28895C69.1141 9.30064 69.0837 9.31351 69.0517 9.32677C69.0365 9.33261 69.0225 9.33768 69.008 9.34392C68.9865 9.35183 68.9652 9.36028 68.9441 9.36926H68.9425L68.9394 9.37121C68.8954 9.39071 68.8497 9.41176 68.8041 9.43282C68.7881 9.44061 68.7722 9.44646 68.7562 9.45387C68.7421 9.46089 68.7273 9.46674 68.7137 9.47454H68.7121C68.6575 9.50027 68.6041 9.5299 68.5503 9.55797C68.5406 9.56382 68.5277 9.56928 68.5172 9.57513C68.509 9.5802 68.4977 9.5841 68.4887 9.59034L68.4871 9.59073C68.4478 9.61256 68.4088 9.63634 68.3678 9.65935C68.3647 9.66091 68.3639 9.66208 68.3612 9.66286C68.332 9.67923 68.3039 9.696 68.275 9.71315C68.2732 9.71367 68.2714 9.7146 68.27 9.71588C68.2696 9.71627 68.2688 9.71744 68.268 9.71744C68.2653 9.71822 68.2653 9.719 68.2637 9.71978C68.2017 9.7576 68.1417 9.79698 68.0805 9.83714C68.045 9.86054 68.0122 9.88471 67.9779 9.90888C67.9358 9.93929 67.8918 9.96854 67.8508 10.0001L67.7767 10.0586C67.7358 10.091 67.6929 10.1237 67.6528 10.1569C67.6266 10.1791 67.6005 10.2013 67.5756 10.2243L67.4621 10.323C67.441 10.3421 67.4215 10.3619 67.4009 10.3822C67.3596 10.4208 67.3182 10.459 67.2788 10.5L67.2324 10.5487C67.1903 10.5932 67.1471 10.6372 67.1069 10.6824C67.0437 10.753 66.9821 10.8251 66.9225 10.8988C66.901 10.925 66.8811 10.953 66.8613 10.9795C66.8207 11.0298 66.7829 11.0809 66.7451 11.1328C66.7388 11.1406 66.7342 11.1495 66.7275 11.1573C66.7115 11.1811 66.6948 11.2041 66.6796 11.2283C66.6331 11.2949 66.5886 11.3628 66.5458 11.4318C66.5373 11.4466 66.5275 11.4607 66.5185 11.4755C66.487 11.5273 66.4581 11.5808 66.4281 11.6342C66.4191 11.6498 66.4098 11.6654 66.4016 11.6817C66.3934 11.697 66.3825 11.7126 66.3751 11.7285C66.3291 11.8151 66.2858 11.9028 66.2452 11.9917C66.2417 11.996 66.2405 11.9999 66.2382 12.0042C66.23 12.026 66.2199 12.0475 66.2105 12.0689C66.1817 12.1352 66.1532 12.2015 66.1255 12.2693C66.1158 12.2966 66.1041 12.3259 66.0939 12.3532C66.0928 12.3563 66.0916 12.3582 66.0916 12.3606C66.066 12.4294 66.0416 12.4987 66.0183 12.5684C66.0101 12.5949 66.0015 12.621 65.9934 12.6487C65.9661 12.7372 65.9392 12.8265 65.9173 12.9169C65.9169 12.9236 65.9142 12.9302 65.9122 12.9368L65.9115 12.9396C65.8089 13.3544 65.7571 13.7806 65.7571 14.2079V22.5681L65.7579 22.6086C65.7586 22.6979 65.7617 22.788 65.7664 22.8753C65.7672 22.9143 65.7727 22.951 65.7754 22.99C65.7801 23.0555 65.7851 23.1217 65.7937 23.1872C65.7984 23.2255 65.8023 23.2641 65.8082 23.3034C65.8167 23.3721 65.8288 23.4403 65.8409 23.5077C65.8464 23.5389 65.8503 23.5709 65.8577 23.6029C65.8775 23.7011 65.8982 23.797 65.9232 23.8918C65.9278 23.9097 65.9333 23.9257 65.9368 23.944C65.9855 24.1218 66.0432 24.2969 66.1095 24.4688C66.1208 24.4981 66.1333 24.5262 66.1435 24.5577C66.1747 24.631 66.2058 24.7032 66.2386 24.7757C66.2476 24.794 66.255 24.8119 66.2632 24.8299C66.3057 24.9192 66.3509 25.0077 66.3988 25.0958C66.4012 25.1016 66.4051 25.1071 66.4078 25.1126C66.4125 25.1207 66.4168 25.1293 66.4226 25.1375C66.4651 25.2135 66.5107 25.2907 66.5583 25.3656C66.6188 25.4621 66.6824 25.5567 66.749 25.6491C66.7599 25.665 66.7716 25.6826 66.7837 25.697C66.8589 25.8011 66.939 25.9016 67.0238 25.998C67.0749 26.0561 67.1268 26.1154 67.1794 26.1711C67.202 26.1949 67.2219 26.2168 67.2453 26.2409C67.3168 26.3144 67.3902 26.3859 67.4656 26.4554C67.5389 26.5232 67.6161 26.5883 67.6949 26.6519C67.7187 26.6725 67.7436 26.6909 67.7682 26.7115C67.8274 26.7552 67.8879 26.8008 67.9479 26.8457C68.0681 26.932 68.1918 27.0133 68.3187 27.0893C68.3932 27.133 68.4692 27.1767 68.5456 27.2161C68.5745 27.2313 68.6033 27.2465 68.633 27.2609C68.7039 27.2975 68.7725 27.3299 68.8455 27.3631C68.8696 27.372 68.8942 27.3853 68.9188 27.3962C69.0123 27.4363 69.1067 27.4734 69.2042 27.5093C69.2264 27.5171 69.2498 27.5249 69.2728 27.5315C69.3496 27.5584 69.4272 27.5849 69.5059 27.6075C69.5375 27.6157 69.5679 27.6255 69.5995 27.6325C69.6841 27.6566 69.7691 27.6773 69.8545 27.6956L69.9087 27.7081C70.0124 27.7299 70.1157 27.7475 70.221 27.7627C70.2491 27.7682 70.2772 27.7709 70.3068 27.7728C70.4197 27.7872 70.5329 27.7986 70.6464 27.8071C70.7532 27.813 70.8628 27.8181 70.9735 27.8181C71.0585 27.8181 71.1427 27.8153 71.227 27.8103L71.3092 27.8044C71.3661 27.8009 71.4219 27.7982 71.478 27.7919C71.5108 27.7884 71.5428 27.7841 71.5755 27.781C71.6254 27.774 71.6761 27.7697 71.726 27.7615C71.7611 27.7565 71.7954 27.7506 71.8297 27.744C71.8769 27.7366 71.9241 27.7288 71.9705 27.7202L72.0761 27.6972L72.2126 27.6668C72.2477 27.6578 72.2828 27.6477 72.3171 27.6391L72.4504 27.6024C72.4859 27.5927 72.5191 27.5806 72.5534 27.5697C72.5971 27.5563 72.6405 27.542 72.6836 27.5268C72.7183 27.5155 72.7518 27.5026 72.7861 27.4898C72.8279 27.4746 72.8708 27.4582 72.9117 27.4422C72.946 27.4289 72.9788 27.4149 73.0123 27.4005C73.0528 27.3829 73.0946 27.3654 73.1359 27.3463L73.2326 27.3014L73.3542 27.2414C73.3862 27.2246 73.4158 27.2079 73.4474 27.1919C73.4876 27.1697 73.527 27.1494 73.5667 27.1256L73.6576 27.0722C73.697 27.048 73.7352 27.0254 73.7738 27.0008C73.803 26.9813 73.8319 26.9615 73.8627 26.9435C73.9013 26.9193 73.9375 26.8928 73.9749 26.8667C74.0022 26.8468 74.0323 26.8273 74.0599 26.8071C74.0972 26.7804 74.1339 26.753 74.1699 26.7248C74.1972 26.703 74.2249 26.6842 74.2506 26.6616C74.2876 26.6328 74.3239 26.6035 74.3586 26.5727C74.384 26.5505 74.4089 26.5302 74.4342 26.508C74.4705 26.4768 74.5056 26.4448 74.5399 26.4121C74.5641 26.3891 74.5879 26.3684 74.6124 26.345C74.6471 26.3119 74.6807 26.2776 74.715 26.2433C74.738 26.2199 74.7606 26.1984 74.7828 26.1746C74.8164 26.1392 74.8499 26.1017 74.8826 26.0662C74.9041 26.0421 74.9244 26.0206 74.9442 25.9976C74.9785 25.9579 75.0113 25.9193 75.0433 25.8799C75.0616 25.8565 75.0823 25.8354 75.0986 25.8116C75.1333 25.7699 75.1661 25.7247 75.1996 25.6806C75.2141 25.6606 75.229 25.641 75.2445 25.6218C75.2807 25.5719 75.315 25.52 75.3501 25.4689C75.3599 25.4529 75.3708 25.4385 75.3805 25.4225C75.4242 25.357 75.4667 25.2892 75.5072 25.2206L75.5088 25.2182C75.5992 25.0654 75.6814 24.9079 75.7552 24.7464C75.7841 24.686 75.8118 24.6244 75.8375 24.5616C75.8457 24.5402 75.8531 24.5203 75.8621 24.4993C75.8843 24.4443 75.9053 24.3909 75.9252 24.3355L75.951 24.2595C75.9677 24.2076 75.9868 24.155 76.0028 24.1027L76.0274 24.0197C76.0422 23.9686 76.0555 23.9167 76.0687 23.8653C76.0769 23.8356 76.0831 23.806 76.0901 23.776C76.103 23.7249 76.1143 23.6742 76.1264 23.6231C76.1319 23.5923 76.1373 23.5615 76.1436 23.53C76.1529 23.4789 76.1615 23.4286 76.1701 23.376L76.1829 23.282C76.188 23.2481 76.1911 23.2138 76.1958 23.1802C76.1966 23.1666 76.1989 23.1525 76.1997 23.1397C76.2079 23.064 76.2134 22.9888 76.2188 22.9135C76.2211 22.8965 76.2227 22.8793 76.2235 22.8621C76.2235 22.8523 76.2266 22.8418 76.2266 22.8317C76.1662 22.8317 75.6819 22.8075 75.0179 22.7646C74.7969 22.7498 74.5555 22.735 74.3044 22.7166C74.0705 22.7007 73.8284 22.6819 73.5839 22.664C73.5823 22.7217 73.5761 22.7786 73.5718 22.8348C73.5687 22.864 73.5687 22.8944 73.5648 22.9241C73.5426 23.0968 73.5021 23.2667 73.4439 23.4309C73.091 24.4396 72.1101 25.1395 70.9751 25.1395C70.8971 25.1395 70.8203 25.1348 70.7439 25.1282L70.6877 25.1227C70.6129 25.1149 70.5385 25.1038 70.4647 25.0896L70.4495 25.0857C70.381 25.0719 70.3132 25.0547 70.2464 25.0342L70.2011 25.0221C70.2 25.0217 70.1988 25.0217 70.1964 25.0202C70.127 24.9979 70.0583 24.9732 69.9906 24.9461L69.968 24.9363C69.9068 24.9104 69.8467 24.8819 69.7878 24.8509C69.7746 24.8431 69.759 24.8365 69.7449 24.8287C69.6823 24.7935 69.6208 24.7561 69.5605 24.7168C69.5516 24.7117 69.5438 24.7055 69.536 24.7C69.4705 24.6554 69.4074 24.6073 69.3469 24.5562C69.2902 24.5109 69.2363 24.4624 69.1854 24.4107C69.1773 24.4026 69.1695 24.3955 69.162 24.3874C69.1154 24.3403 69.0709 24.2911 69.0287 24.24C69.0205 24.2314 69.0131 24.2216 69.0049 24.2127C68.9589 24.1554 68.915 24.0963 68.8735 24.0357C68.8665 24.0271 68.8611 24.0154 68.8536 24.0056L68.8049 23.9319L68.8026 23.9273C68.785 23.8988 68.769 23.868 68.7523 23.838L68.7324 23.8017C68.6978 23.7352 68.6656 23.6675 68.6361 23.5986C68.631 23.5861 68.6271 23.574 68.622 23.5604C68.5911 23.4847 68.564 23.4076 68.5409 23.3292C68.5193 23.2544 68.5003 23.1788 68.484 23.1026C68.4825 23.0948 68.4825 23.0878 68.4809 23.0808C68.4671 23.0086 68.4562 22.9359 68.4481 22.8628C68.4474 22.8453 68.4443 22.8281 68.4435 22.8102C68.4357 22.7279 68.4319 22.6453 68.4322 22.5626V14.2087C68.4326 13.8311 68.5155 13.4582 68.675 13.116C68.8346 12.7739 69.0669 12.4707 69.3558 12.2276C69.6109 12.0115 69.9067 11.8488 70.2257 11.7489C70.5448 11.6491 70.8806 11.6142 71.2133 11.6463C71.2375 11.6486 71.2601 11.6517 71.2847 11.6545C71.3416 11.6619 71.3973 11.6701 71.4547 11.6802C71.4792 11.6849 71.5034 11.6888 71.5279 11.6942C71.5935 11.7087 71.6574 11.7246 71.7213 11.7441C71.7311 11.7476 71.7439 11.75 71.7549 11.7523C71.982 11.8254 72.1986 11.928 72.399 12.0576C72.4126 12.0666 72.4263 12.0748 72.4403 12.0845C72.5019 12.1262 72.5623 12.1715 72.6212 12.2186C72.6353 12.2299 72.6489 12.2428 72.6629 12.2553C72.7681 12.3448 72.8662 12.4422 72.9565 12.5465L72.9959 12.5902C73.0431 12.6483 73.0891 12.7083 73.132 12.7696C73.1398 12.7805 73.146 12.7926 73.1534 12.8039C73.1885 12.8557 73.2213 12.9088 73.2525 12.9626C73.2634 12.9828 73.2747 13.0031 73.2852 13.0238C73.3125 13.0737 73.3371 13.124 73.3585 13.1747C73.3667 13.1946 73.3772 13.2133 73.385 13.232C73.3893 13.2418 73.3932 13.2519 73.3967 13.262C73.4002 13.2667 73.401 13.2706 73.4034 13.2753C73.4147 13.3065 73.426 13.338 73.4353 13.37C73.4462 13.4024 73.4599 13.4343 73.4712 13.4675C73.4841 13.5135 73.4958 13.5611 73.5075 13.6082C73.5157 13.6414 73.5262 13.6737 73.5316 13.7073C73.5429 13.7595 73.5507 13.8137 73.5562 13.8675C73.5617 13.896 73.5675 13.9244 73.5706 13.9537C73.5788 14.0379 73.5827 14.1225 73.5827 14.2075V14.6087C73.6377 14.6075 73.6977 14.6048 73.757 14.6029ZM62.1747 14.4126C62.1731 14.3615 62.1731 14.3112 62.1708 14.2605C62.1687 14.2249 62.1662 14.1893 62.1634 14.1537L62.1564 14.0531L62.1529 14.0048C62.1493 13.9654 62.1447 13.9268 62.1412 13.8878V13.8851C62.1353 13.8391 62.1306 13.7927 62.1244 13.747V13.7459C62.1189 13.7104 62.1139 13.6749 62.1076 13.6402C62.1076 13.6371 62.1076 13.6347 62.1068 13.6324C62.103 13.6052 62.0987 13.578 62.094 13.5509C62.0901 13.5306 62.0877 13.5104 62.0846 13.4897C62.0846 13.4897 62.0838 13.4893 62.0838 13.4885C62.0784 13.4566 62.0718 13.4258 62.0659 13.3942L62.062 13.379C62.0585 13.3587 62.0538 13.338 62.0499 13.3181C62.0433 13.2905 62.039 13.2632 62.032 13.2355V13.2335C62.0238 13.1985 62.0148 13.163 62.007 13.1275L61.9871 13.0526C61.9805 13.0296 61.9766 13.007 61.9704 12.9844C61.9688 12.984 61.9688 12.9832 61.9688 12.9828L61.9431 12.8912C61.9415 12.8869 61.9415 12.883 61.94 12.8791C61.931 12.8495 61.9209 12.8191 61.9127 12.7898C61.9057 12.7719 61.901 12.7536 61.8959 12.7364C61.8846 12.7021 61.8737 12.6674 61.8616 12.6335C61.8702 12.6581 61.8784 12.683 61.8858 12.7083C61.878 12.683 61.8706 12.6584 61.8616 12.6335L61.8121 12.4951C61.7996 12.4615 61.7871 12.428 61.7735 12.3941C61.7727 12.3937 61.7719 12.3925 61.7719 12.391C61.7575 12.3559 61.7427 12.3192 61.7275 12.2838C61.7247 12.276 61.7208 12.2693 61.7193 12.2623C61.7033 12.2249 61.6877 12.1878 61.6706 12.1504C61.6643 12.1364 61.6577 12.1231 61.6507 12.1091L61.6347 12.0732C61.5964 11.9919 61.5561 11.9115 61.5138 11.8322L61.4896 11.7847C61.4853 11.7765 61.4814 11.7695 61.4779 11.7617C61.4255 11.6646 61.3701 11.5692 61.3118 11.4755C61.3037 11.4622 61.2943 11.4494 61.2853 11.4361C61.2349 11.3554 61.182 11.2762 61.1266 11.1987C61.1185 11.1874 61.1111 11.1757 61.1021 11.1647L61.0732 11.1254C61.0159 11.0454 60.9557 10.9675 60.8927 10.8918C60.8857 10.8819 60.8783 10.8722 60.8705 10.863C60.8003 10.7796 60.7278 10.6984 60.6529 10.6193V10.6185C60.5814 10.5445 60.5085 10.4718 60.4342 10.4005C60.4244 10.3924 60.4159 10.3834 60.4077 10.3756L60.4065 10.374C60.3847 10.3545 60.3644 10.335 60.3437 10.3155C60.2634 10.2432 60.1811 10.1729 60.0969 10.105H60.0961L60.0525 10.0719C60.0482 10.0684 60.0435 10.0645 60.0381 10.0613C59.9691 10.0072 59.8985 9.95515 59.8263 9.90537C59.7159 9.82948 59.6033 9.7568 59.4887 9.68742C59.4832 9.68547 59.4793 9.68157 59.4746 9.67923L59.4594 9.67066C59.258 9.5541 59.0486 9.45183 58.8329 9.36458C58.8251 9.36147 58.8185 9.35757 58.8099 9.35523C58.6862 9.30507 58.5607 9.25942 58.4336 9.21837C58.4087 9.21019 58.3825 9.20317 58.3572 9.19537L58.356 9.19459C58.3303 9.18679 58.3022 9.18055 58.2753 9.17276C58.2124 9.1541 58.1491 9.13681 58.0854 9.1209C58.0808 9.11973 58.0761 9.11934 58.0718 9.11778C58.0445 9.11115 58.0172 9.10413 57.9891 9.09789C57.9595 9.09088 57.9279 9.08698 57.8975 9.07957C57.8098 9.06124 57.7244 9.04214 57.6339 9.02888V9.02537H57.6312C57.6242 9.02459 57.618 9.0242 57.6102 9.02264C57.4747 9.00313 57.3387 8.98791 57.2023 8.97703C57.1918 8.97664 57.1817 8.97547 57.1715 8.97469C57.1325 8.97196 57.092 8.97157 57.0526 8.96845C56.9813 8.96494 56.9107 8.96026 56.8382 8.95987C56.8124 8.95948 56.7859 8.95792 56.7606 8.95792H56.7072L56.6257 8.9587C56.3281 8.96894 56.0315 8.99628 55.7371 9.04058L55.7145 9.0437C55.5698 9.06514 55.4236 9.08971 55.2782 9.11778H55.2747L55.2591 9.12129C55.1343 9.14546 55.0091 9.17276 54.8852 9.20083L54.8228 9.21369L54.8006 9.21915C54.5995 9.2657 54.3995 9.31705 54.2009 9.37316C54.1974 9.37472 54.1939 9.3755 54.1919 9.37706C54.1026 9.40163 54.0153 9.42775 53.9299 9.45426C53.9264 9.45465 53.9233 9.45582 53.9202 9.4566L53.905 9.46206C53.8157 9.48896 53.7276 9.51781 53.6422 9.54628C53.6309 9.54979 53.6192 9.55447 53.6075 9.55836C53.5782 9.56733 53.5494 9.57825 53.5197 9.588L53.4776 9.60203C53.4609 9.60788 53.4441 9.61373 53.4277 9.62036C53.39 9.6329 53.3526 9.64616 53.3154 9.66013C53.317 9.7073 53.3201 9.75136 53.3217 9.79581L53.3225 9.81336C53.324 9.83402 53.3248 9.8543 53.3256 9.87418C53.3287 9.92097 53.331 9.96737 53.333 10.0126C53.3392 10.1167 53.3435 10.2146 53.3497 10.3116L53.3665 10.6076V10.6138C53.3695 10.6575 53.3719 10.7011 53.3739 10.7448L53.3774 10.8103C53.3778 10.8267 53.3794 10.8427 53.3802 10.8587C53.3817 10.8856 53.3833 10.914 53.3841 10.9429C53.3848 10.9538 53.3856 10.9639 53.3856 10.9753L53.3915 11.0868C53.393 11.109 53.3938 11.1316 53.395 11.1542C53.3958 11.1764 53.3973 11.1975 53.3977 11.2205C53.3989 11.2416 53.3993 11.2626 53.4008 11.2841L53.4039 11.3574C53.4051 11.3804 53.4055 11.4026 53.4071 11.4264L53.4106 11.5106C53.4113 11.532 53.4125 11.5535 53.4129 11.5757C53.4152 11.6268 53.4168 11.6798 53.4188 11.7348L53.5837 11.7242C53.6289 11.7215 53.6745 11.718 53.7217 11.7161C53.7946 11.7102 53.8671 11.7067 53.9408 11.7009L54.2141 11.681L54.3635 11.6708L55.2934 11.6006C55.3363 11.5979 55.3792 11.594 55.4213 11.5917L55.7305 11.5691C55.801 11.564 55.8685 11.5601 55.9379 11.5554C56.0151 11.55 56.0919 11.5453 56.1668 11.541C56.2557 11.5348 56.3403 11.5309 56.4264 11.5262C56.4818 11.5234 56.5375 11.5192 56.5917 11.5172C56.7302 11.5106 56.8658 11.5047 56.9968 11.5008H56.9629C57.0966 11.4865 57.2309 11.4792 57.3653 11.479C57.4546 11.479 57.5388 11.4833 57.6215 11.4899C57.6429 11.4919 57.6628 11.4934 57.6846 11.4965C57.7647 11.5042 57.8443 11.5156 57.9232 11.5309C57.9965 11.5457 58.0679 11.5644 58.1369 11.5858C58.1556 11.5921 58.1732 11.5968 58.1907 11.603C58.257 11.6252 58.3209 11.6486 58.3818 11.6763C58.3849 11.6771 58.3872 11.6786 58.3899 11.6798C58.4512 11.7075 58.5089 11.7395 58.5646 11.773L58.6099 11.8003C58.6633 11.8338 58.7143 11.8693 58.7627 11.9075L58.7709 11.9141C58.8208 11.9543 58.8656 11.9964 58.9101 12.0401C58.9226 12.0533 58.9346 12.065 58.9463 12.0787C58.9908 12.1258 59.0333 12.1748 59.0734 12.2257C59.1105 12.2744 59.1444 12.3262 59.1791 12.3797C59.1877 12.3953 59.1974 12.4109 59.2068 12.4268C59.2356 12.4775 59.2641 12.5302 59.2902 12.5832C59.2941 12.591 59.2976 12.5972 59.3004 12.6046C59.3203 12.6471 59.3397 12.692 59.3573 12.736L59.3588 12.7407C59.3608 12.7477 59.3627 12.7547 59.3659 12.7629C59.4314 12.9337 59.4809 13.1166 59.5132 13.308C59.5191 13.3369 59.5226 13.3649 59.5273 13.395C59.5378 13.4667 59.546 13.5396 59.553 13.6137C59.5554 13.6429 59.5593 13.6722 59.5612 13.703C59.569 13.804 59.5725 13.9061 59.5725 14.0106V16.1164C59.5389 16.1075 59.5055 16.0981 59.4723 16.088C59.4505 16.0821 59.4302 16.0771 59.4084 16.07L59.3756 16.0619C59.3627 16.0584 59.3499 16.0545 59.3355 16.0513L59.3331 16.0509C59.3165 16.0461 59.2997 16.0416 59.2828 16.0377C59.2645 16.0326 59.2466 16.0291 59.2282 16.0244C59.2218 16.0228 59.2155 16.0209 59.2091 16.019C59.19 16.0143 59.1701 16.0108 59.1526 16.0049L59.1374 16.0014C59.118 15.997 59.0986 15.9923 59.0793 15.9874C59.0596 15.9836 59.0401 15.9791 59.0208 15.9737C58.9974 15.9688 58.974 15.9636 58.9506 15.9581H58.9495C58.9284 15.9535 58.9077 15.95 58.8859 15.9449C58.8633 15.941 58.8418 15.9367 58.8184 15.932C58.7947 15.927 58.7721 15.9227 58.7475 15.918C58.7257 15.9133 58.7042 15.9102 58.6828 15.9063L58.6048 15.893C58.5851 15.8896 58.5653 15.8864 58.5455 15.8837L58.5143 15.8794C58.4953 15.8765 58.4764 15.8735 58.4574 15.8704C58.4395 15.8685 58.4217 15.8661 58.404 15.8634L58.4028 15.863L58.3892 15.8618C58.3604 15.8573 58.3316 15.8536 58.3026 15.8505L58.2578 15.8455L58.2145 15.8408C58.1907 15.8377 58.1677 15.8342 58.1424 15.8326L58.1092 15.8295H58.1084C58.0632 15.8251 58.018 15.8211 57.9728 15.8174C57.9693 15.8174 57.9654 15.8174 57.9618 15.8162H57.9607C57.8944 15.81 57.8246 15.8069 57.7544 15.803C57.7265 15.8017 57.6985 15.8002 57.6706 15.7983L57.6663 15.7979C57.6203 15.7959 57.5708 15.7932 57.5213 15.7921L57.517 15.7917C57.4932 15.7913 57.4714 15.7889 57.4468 15.7889C57.3918 15.7875 57.3368 15.786 57.2819 15.7846L57.2312 15.7843H57.2238L57.2156 15.7839H57.1867C57.1762 15.7831 57.1645 15.7831 57.1536 15.7831C57.1033 15.7826 57.053 15.7824 57.0027 15.7823H56.9949C56.9637 15.7823 56.9325 15.7839 56.9013 15.7843C56.8409 15.7846 56.7797 15.7858 56.7188 15.7882H56.7157C56.707 15.788 56.6983 15.7883 56.6896 15.7889C56.6561 15.7897 56.6233 15.7928 56.5906 15.7956H56.5882L56.4405 15.8037C56.4241 15.8049 56.4069 15.8073 56.3902 15.8088C56.3637 15.81 56.3368 15.8143 56.3106 15.8162C56.2841 15.819 56.2572 15.8225 56.2295 15.8244C56.2098 15.8271 56.1901 15.8295 56.1703 15.8314L56.0786 15.8439L56.0428 15.8478C56.0139 15.8517 55.9843 15.8568 55.9546 15.8618C55.9387 15.8646 55.9219 15.8661 55.9059 15.8696H55.9047L55.7831 15.8899H55.7827C55.7585 15.895 55.7351 15.9001 55.711 15.9043C55.688 15.9102 55.665 15.9137 55.6423 15.9184C55.6404 15.9192 55.6392 15.9192 55.6369 15.9192C55.6006 15.927 55.5648 15.934 55.5304 15.9426L55.5297 15.9429C55.4957 15.9507 55.463 15.9597 55.4298 15.9671C55.41 15.9728 55.3899 15.978 55.3698 15.9827L55.3643 15.9843C55.3214 15.9947 55.2787 16.0064 55.2365 16.0194C55.176 16.0365 55.1152 16.0545 55.0559 16.0739C55.0232 16.0841 54.9928 16.097 54.9608 16.1071C54.9592 16.1071 54.9573 16.1083 54.9553 16.1086C54.9125 16.1235 54.868 16.1391 54.8251 16.1547L54.8236 16.1558C54.7902 16.1677 54.7573 16.1807 54.7249 16.1948C54.7245 16.1948 54.7234 16.1948 54.7226 16.196C54.6816 16.2124 54.6403 16.2283 54.5998 16.2467H54.599L54.5046 16.2888L54.5023 16.29C54.5015 16.29 54.5007 16.29 54.5003 16.2907L54.4512 16.3137L54.3834 16.3461C54.3819 16.3464 54.3804 16.3469 54.3791 16.3477C54.3494 16.3633 54.3194 16.3773 54.289 16.3933L54.2878 16.3937L54.229 16.4256L54.1693 16.4576C54.1674 16.4584 54.1658 16.4599 54.1635 16.4607C54.1373 16.4755 54.1104 16.49 54.0851 16.5052H54.0835L53.9767 16.5703C53.9669 16.5773 53.9556 16.5832 53.9459 16.5898C53.926 16.6006 53.9068 16.6124 53.8882 16.6253L53.8878 16.626C53.8242 16.6666 53.7626 16.7083 53.7018 16.752H53.7007C53.6815 16.7652 53.6632 16.7804 53.6441 16.7941C53.6418 16.7956 53.6394 16.7972 53.6367 16.7999C53.5969 16.8292 53.5587 16.858 53.5201 16.8892C53.5194 16.8904 53.5186 16.8904 53.5178 16.8912C53.4956 16.9087 53.4745 16.927 53.4523 16.9446L53.4484 16.9485C53.4133 16.9773 53.3798 17.0062 53.3455 17.0358C53.3439 17.037 53.3435 17.0386 53.3419 17.0393C53.3205 17.0577 53.2998 17.0779 53.2788 17.0966C53.244 17.127 53.2105 17.1588 53.1782 17.1918C53.1766 17.193 53.1755 17.1937 53.1743 17.1957C53.1544 17.2148 53.1341 17.2339 53.1154 17.2542L53.1119 17.2565L53.0269 17.3458C53.0229 17.3497 53.0192 17.354 53.016 17.3587L53.0098 17.3645L52.961 17.4171L52.9591 17.4195C52.9212 17.462 52.885 17.506 52.8479 17.5493C52.8444 17.5548 52.8398 17.5595 52.8355 17.5645C52.829 17.5732 52.8221 17.5815 52.8148 17.5895C52.7684 17.6476 52.7236 17.7076 52.6795 17.7669L52.6776 17.7692L52.653 17.8051L52.6448 17.8164C52.6392 17.8242 52.6338 17.8323 52.6288 17.8406C52.6027 17.8784 52.5766 17.9139 52.552 17.9529C52.5516 17.9529 52.5512 17.954 52.5505 17.954C52.5376 17.9751 52.5259 17.9946 52.5126 18.0129C52.5111 18.016 52.5095 18.0184 52.5087 18.0211C52.4834 18.0616 52.4577 18.1026 52.4331 18.1439L52.4308 18.1478C52.4187 18.17 52.4058 18.1919 52.3929 18.2145C52.3918 18.2153 52.3914 18.2168 52.3906 18.2188C52.3664 18.2608 52.3435 18.3036 52.322 18.3471H52.3212L52.3192 18.351C52.3075 18.3732 52.2955 18.3954 52.2841 18.418L52.2826 18.4219L52.2771 18.4336C52.2562 18.4745 52.2364 18.516 52.2179 18.558C52.2163 18.5592 52.2155 18.5631 52.214 18.5654C52.2054 18.5857 52.1953 18.6056 52.1867 18.6247C52.1612 18.683 52.1368 18.7417 52.1134 18.8009L52.1087 18.8091L52.0982 18.8344C52.0982 18.8364 52.0982 18.8364 52.0974 18.8379C52.0701 18.9105 52.0432 18.9838 52.0182 19.0578H52.0178C52.0143 19.0672 52.012 19.0781 52.0085 19.0875L52.005 19.0996C51.9976 19.1226 51.991 19.1452 51.9839 19.169C51.9726 19.2052 51.9601 19.2423 51.9504 19.2789L51.9496 19.2809C51.943 19.3 51.9391 19.3206 51.9336 19.3405C51.9327 19.3429 51.932 19.3454 51.9317 19.3479C51.9313 19.3487 51.9313 19.351 51.9305 19.3522C51.9223 19.383 51.9145 19.4162 51.906 19.4462L51.8907 19.5078L51.89 19.5093L51.8724 19.5873L51.872 19.5908C51.8662 19.6158 51.8619 19.6427 51.856 19.6669L51.8436 19.7253C51.835 19.7764 51.8252 19.8275 51.8182 19.8778C51.8113 19.9164 51.8052 19.9551 51.7999 19.994C51.7917 20.0486 51.7855 20.1039 51.7788 20.1581C51.7749 20.1959 51.7707 20.2314 51.7672 20.2685C51.7609 20.3301 51.7578 20.3917 51.7535 20.4552C51.7516 20.4856 51.7484 20.5161 51.7469 20.548C51.7422 20.642 51.7406 20.7363 51.7406 20.8323V22.473C51.7406 22.5759 51.7438 22.6769 51.7492 22.7775C51.7512 22.8094 51.7543 22.8406 51.7574 22.8734C51.7629 22.9439 51.7695 23.0137 51.7777 23.0843L51.7909 23.1896C51.8007 23.2582 51.8124 23.3276 51.8249 23.3962C51.8303 23.427 51.8354 23.4567 51.842 23.4871C51.8607 23.5845 51.8826 23.6809 51.9067 23.7768L51.9134 23.7939C51.9364 23.8832 51.9629 23.9721 51.9906 24.0598C52.0003 24.0902 52.0116 24.1203 52.0218 24.1503C52.0436 24.2142 52.0658 24.2774 52.0904 24.339C52.1032 24.3718 52.1161 24.4045 52.1305 24.438C52.1551 24.4996 52.1828 24.5612 52.2101 24.6213C52.2233 24.6509 52.2358 24.6794 52.2498 24.7086C52.2904 24.7952 52.3341 24.8798 52.3801 24.964C52.3828 24.9683 52.3863 24.973 52.389 24.9796C52.391 24.9843 52.3945 24.9878 52.3968 24.9921C52.4417 25.074 52.4892 25.1519 52.538 25.2307C52.5559 25.2588 52.5738 25.2876 52.5922 25.3153C52.6339 25.3785 52.6772 25.4409 52.7216 25.5032C52.7384 25.5274 52.7555 25.5528 52.7735 25.5761C52.8327 25.6572 52.8951 25.7364 52.9598 25.8124C52.9762 25.8335 52.9942 25.8522 53.0113 25.8725C53.062 25.931 53.1146 25.989 53.1673 26.0452C53.1911 26.0709 53.2148 26.0967 53.2386 26.1204C53.2956 26.1774 53.3529 26.2347 53.4113 26.2912C53.4289 26.306 53.4449 26.3228 53.4624 26.3384C53.5588 26.4274 53.659 26.5122 53.7626 26.5926C53.8223 26.6398 53.8843 26.685 53.9455 26.7299C53.9712 26.749 53.9978 26.7688 54.0239 26.7868C54.1081 26.8437 54.1931 26.901 54.2797 26.9548C54.2863 26.9587 54.2902 26.9615 54.2949 26.963C54.3795 27.0149 54.4656 27.0628 54.553 27.1081C54.5795 27.1233 54.6064 27.1369 54.6337 27.1494C54.7062 27.1868 54.7791 27.2227 54.8528 27.255C54.8766 27.2656 54.8992 27.2777 54.923 27.287C55.0197 27.3284 55.1171 27.3681 55.2162 27.4059C55.2322 27.4102 55.2489 27.4153 55.2657 27.4219C55.3503 27.4508 55.4365 27.4796 55.5223 27.5058C55.5495 27.5139 55.5772 27.5213 55.6049 27.5299C55.6942 27.5545 55.7858 27.5771 55.8778 27.5974C55.8911 27.6013 55.904 27.6052 55.918 27.6079C56.0248 27.6309 56.1324 27.6488 56.2416 27.6648C56.2642 27.6676 56.2857 27.6711 56.3083 27.673C56.3976 27.6851 56.4873 27.6949 56.5777 27.7011C56.6027 27.7038 56.6296 27.7054 56.6549 27.7081C57.8332 27.7868 59.0023 27.4543 59.9628 26.7673C60.6241 26.2959 61.1677 25.6783 61.5512 24.9624C61.9606 24.1954 62.1743 23.3392 62.1735 22.4698V14.5105C62.1763 14.4769 62.1747 14.4453 62.1747 14.4126ZM54.7924 23.8278C54.7748 23.799 54.76 23.7701 54.7436 23.7405C54.7354 23.7261 54.7269 23.7117 54.7191 23.6961C54.685 23.6307 54.6535 23.5639 54.6247 23.496C54.6177 23.4808 54.613 23.4656 54.6068 23.4504C54.5844 23.3937 54.5641 23.3363 54.546 23.2781C54.5393 23.2582 54.5331 23.2391 54.5265 23.2212C54.5055 23.1493 54.4874 23.0766 54.4723 23.0032C54.4691 22.9888 54.4676 22.9755 54.4645 22.9603C54.4527 22.8985 54.4435 22.8362 54.4368 22.7736L54.429 22.7022C54.4227 22.6299 54.4193 22.5573 54.4188 22.4846L54.4181 22.4687V20.5274C54.4163 20.1887 54.4814 19.8529 54.6098 19.5395C54.7382 19.2261 54.9273 18.9411 55.1663 18.7011C55.4062 18.4618 55.6912 18.2724 56.0047 18.1437C56.3182 18.0151 56.6541 17.9499 56.993 17.9517H59.5678V22.4675C59.5678 22.7669 59.5152 23.0547 59.4247 23.3218C59.1058 24.2599 58.2773 24.957 57.2585 25.0611C57.17 25.0705 57.0811 25.0752 56.9922 25.0751C56.8944 25.0745 56.7968 25.0684 56.6997 25.0568C56.6236 25.049 56.5479 25.0376 56.4728 25.0225L56.4545 25.0174C56.3851 25.0026 56.3165 24.9843 56.249 24.9624C56.2447 24.9624 56.2405 24.9615 56.2365 24.9597L56.1987 24.9476C56.1191 24.9222 56.0407 24.8928 55.964 24.8595C55.903 24.8331 55.8432 24.8036 55.785 24.7714C55.7706 24.7632 55.7554 24.757 55.7418 24.7476C55.678 24.712 55.6157 24.6737 55.555 24.633C55.5453 24.6248 55.5359 24.6193 55.5258 24.6112C55.4727 24.5745 55.4211 24.5356 55.3714 24.4946C55.3601 24.4844 55.3472 24.4747 55.3359 24.4649C55.2802 24.4181 55.2268 24.3685 55.176 24.3164C55.1667 24.3082 55.1569 24.2961 55.1476 24.286C55.1032 24.2407 55.0606 24.1936 55.0201 24.1448C55.0115 24.1343 55.0017 24.1214 54.9932 24.1125C54.9481 24.0556 54.9053 23.9969 54.8649 23.9366C54.8563 23.9226 54.847 23.9101 54.838 23.8957C54.8236 23.8727 54.808 23.8505 54.7943 23.8263C54.7931 23.8294 54.7931 23.8286 54.7924 23.8278ZM48.4655 14.4064C48.4651 14.3206 48.4624 14.2356 48.4581 14.1502L48.4577 14.1475C48.4561 14.1147 48.453 14.082 48.4507 14.0488L48.4499 14.0387C48.446 13.9782 48.441 13.9177 48.4351 13.8574C48.4347 13.8562 48.4339 13.8546 48.4339 13.8531C48.4304 13.8157 48.4257 13.779 48.4214 13.7408C48.4214 13.7383 48.4211 13.7358 48.4207 13.7334C48.4132 13.6769 48.4066 13.6215 48.3969 13.5653L48.3965 13.5611L48.3941 13.5466C48.3883 13.5127 48.3832 13.478 48.3766 13.4441V13.4406C48.3665 13.3855 48.3558 13.3305 48.3446 13.2757C48.3446 13.2737 48.3446 13.2725 48.3438 13.2714C48.3384 13.2468 48.3337 13.2218 48.3279 13.1977L48.3197 13.1575C48.3185 13.1571 48.3185 13.156 48.3181 13.1548C48.3045 13.0967 48.2912 13.0382 48.2752 12.9805L48.2733 12.9723C48.2651 12.9411 48.2573 12.9091 48.2487 12.8783C48.2487 12.8772 48.2487 12.8768 48.2479 12.876C48.2245 12.7926 48.1992 12.7091 48.1723 12.6269L48.1711 12.6226C48.1664 12.6089 48.1618 12.5949 48.1563 12.5809L48.1559 12.5801C48.1331 12.5127 48.1088 12.4459 48.083 12.3797C48.0772 12.366 48.0729 12.3508 48.0674 12.3368C48.06 12.3204 48.0538 12.304 48.0467 12.2876C48.0409 12.2752 48.0366 12.2627 48.0308 12.249C48.0064 12.1892 47.9812 12.1296 47.9551 12.0705L47.9309 12.0194C47.8828 11.9159 47.8321 11.8136 47.7789 11.7126C47.7734 11.704 47.7695 11.695 47.7645 11.6864C47.7239 11.6104 47.6791 11.5363 47.635 11.4626C47.6241 11.4443 47.6136 11.4252 47.6023 11.4069V11.4061C47.5987 11.4002 47.5952 11.3956 47.5925 11.3901C47.5841 11.3777 47.576 11.3653 47.5679 11.3527C47.5477 11.3195 47.5258 11.2883 47.5044 11.2564L47.4791 11.2193C47.4732 11.21 47.4681 11.2014 47.4619 11.1924C47.4479 11.1718 47.435 11.1515 47.4206 11.1312C47.404 11.1067 47.387 11.0826 47.3695 11.0587L47.3687 11.0583C47.3062 10.971 47.241 10.8857 47.173 10.8025L47.1714 10.8006C47.1044 10.7187 47.0338 10.6403 46.9628 10.5631C46.9624 10.5627 46.962 10.5616 46.9605 10.5612C46.9498 10.5492 46.9389 10.5373 46.9277 10.5257L46.9012 10.4976C46.8406 10.4337 46.7784 10.3711 46.7145 10.3105C46.6993 10.2968 46.6852 10.2812 46.6704 10.2676C46.5924 10.1962 46.5125 10.1268 46.431 10.0594C46.4118 10.0446 46.3927 10.0296 46.3737 10.0145C46.306 9.96069 46.237 9.9083 46.167 9.85742C46.1452 9.84221 46.1253 9.827 46.1039 9.81219C46.016 9.75164 45.9264 9.69365 45.8352 9.63829C45.8267 9.63244 45.8177 9.62854 45.8099 9.62309C45.726 9.57412 45.641 9.52719 45.5549 9.48233C45.5311 9.46986 45.5073 9.45816 45.4828 9.44607C45.3923 9.40124 45.3005 9.35912 45.2075 9.31975C45.2009 9.3178 45.1962 9.31468 45.19 9.31195C45.0896 9.27127 44.9881 9.2337 44.8855 9.19927C44.8757 9.19537 44.8648 9.19264 44.855 9.18952C44.8422 9.18601 44.8301 9.18172 44.8176 9.1786C44.7307 9.1508 44.6429 9.1257 44.5544 9.10335L44.5232 9.09517L44.4936 9.08698C44.3864 9.06127 44.2784 9.03955 44.1696 9.02186L44.122 9.01485C44.0015 8.996 43.8803 8.98221 43.7586 8.97352L43.7384 8.97274C43.6605 8.96691 43.5825 8.96327 43.5044 8.96182C43.4756 8.96104 43.4475 8.95987 43.4183 8.95987H43.398H43.3828C43.3032 8.96026 43.2202 8.96143 43.1336 8.96377H43.1313L43.1138 8.96455H43.113L43.0857 8.96572H43.0681L43.067 8.96611C42.9835 8.96799 42.9 8.9715 42.8167 8.97664L42.8007 8.97742L42.7855 8.9782H42.782L42.7796 8.97859C42.6793 8.98363 42.5791 8.98987 42.479 8.9973L42.4743 8.99769L42.4732 8.99808H42.4685L42.3121 9.01212L42.4665 8.99808C42.463 8.99808 42.4583 8.99808 42.454 8.99886C42.4272 9.0008 42.4005 9.00327 42.3737 9.00627C42.3098 9.01134 42.2451 9.01758 42.1807 9.02459H42.176L42.1671 9.02537C42.1559 9.02659 42.1447 9.02763 42.1336 9.02849H42.1308L41.9242 9.05306C41.8864 9.05773 41.8493 9.06124 41.8123 9.06553C41.8107 9.06631 41.8092 9.06631 41.8084 9.06709C41.8045 9.06748 41.801 9.06748 41.7982 9.06826C41.7585 9.07333 41.7203 9.07918 41.6817 9.08542C41.6154 9.09439 41.5487 9.10374 41.484 9.11466C41.4832 9.11466 41.4824 9.11583 41.482 9.11583C41.454 9.11973 41.4267 9.1248 41.3994 9.13026C41.3796 9.13452 41.3597 9.13829 41.3397 9.14156C41.284 9.15209 41.2286 9.16145 41.1756 9.17276L41.1736 9.17315C41.084 9.19227 40.9948 9.21359 40.9062 9.23709H40.9046L40.8878 9.24138C40.884 9.24255 40.8801 9.24359 40.8761 9.2445H40.875C40.82 9.25931 40.767 9.27491 40.7163 9.29089L40.7085 9.29323V1.33464H38.0338V27.5171H40.7081V11.8677H43.2502L43.2732 11.8685C43.3457 11.8693 43.4163 11.8732 43.4873 11.8794C43.5146 11.8814 43.5423 11.8853 43.5695 11.888C43.6222 11.8946 43.6752 11.902 43.7267 11.9122C43.8142 11.9282 43.901 11.9482 43.9867 11.9722C44.0019 11.9765 44.0175 11.9804 44.032 11.9851C44.1049 12.0073 44.1739 12.0323 44.2429 12.0603C44.2659 12.0689 44.2873 12.0794 44.3104 12.0892C44.3587 12.1106 44.4063 12.1325 44.4531 12.157C44.4772 12.1683 44.4998 12.1812 44.5232 12.1937C44.5731 12.221 44.6219 12.2498 44.6694 12.2806C44.6854 12.2904 44.7022 12.3001 44.7174 12.3103C44.7786 12.3512 44.8387 12.3953 44.896 12.4405L44.9416 12.4806C44.9841 12.5165 45.0262 12.5528 45.0652 12.5906L45.119 12.6444C45.1584 12.683 45.195 12.7236 45.2309 12.7657C45.2442 12.7813 45.2586 12.7961 45.2715 12.8121C45.3186 12.869 45.3635 12.9275 45.4056 12.9883L45.4329 13.03C45.4648 13.0788 45.496 13.129 45.5249 13.1801L45.5615 13.2464C45.5861 13.2936 45.6095 13.3415 45.6317 13.3911C45.6415 13.4125 45.6516 13.4328 45.6606 13.455C45.6645 13.4632 45.6688 13.4718 45.6715 13.48C45.685 13.5149 45.6975 13.5503 45.7089 13.586C45.721 13.6199 45.7339 13.6539 45.7452 13.6889C45.7608 13.7381 45.7717 13.7884 45.7849 13.8391C45.7924 13.8695 45.8009 13.8999 45.8079 13.9311C45.8193 13.9919 45.8282 14.0539 45.8352 14.1163C45.8387 14.1385 45.8434 14.1599 45.8454 14.1822C45.854 14.2683 45.8586 14.3545 45.8586 14.443V27.5182H48.4659V14.4426C48.4663 14.4305 48.4659 14.4181 48.4655 14.4064ZM34.8885 14.11V14.1065C34.888 14.0338 34.8859 13.9612 34.8822 13.8886V13.8726C34.8819 13.8665 34.8814 13.8603 34.8807 13.8543C34.8787 13.8203 34.8752 13.786 34.8729 13.7513L34.8725 13.7494C34.8678 13.6901 34.8643 13.6297 34.8577 13.572C34.853 13.5283 34.8471 13.4854 34.8413 13.4429V13.4417C34.8335 13.3852 34.8269 13.3298 34.8179 13.2745C34.8117 13.2351 34.8043 13.1977 34.7976 13.1595C34.7965 13.1543 34.7956 13.1491 34.7949 13.1439C34.7854 13.09 34.7751 13.036 34.7641 12.9824L34.7399 12.876L34.7345 12.8526L34.715 12.7754C34.7083 12.7489 34.7025 12.7224 34.6955 12.6959L34.6771 12.6315C34.6705 12.6101 34.6654 12.5886 34.6592 12.5676C34.6444 12.5161 34.6284 12.4651 34.6124 12.414C34.5829 12.3211 34.5505 12.2292 34.5153 12.1383C34.4997 12.0974 34.4845 12.0572 34.4674 12.0163C34.4475 11.967 34.4266 11.9181 34.4046 11.8697C34.3927 11.8415 34.3802 11.8135 34.3672 11.7859L34.3442 11.7352C34.3348 11.7133 34.3239 11.6923 34.3134 11.6712C34.283 11.6084 34.251 11.5461 34.2186 11.4845C34.212 11.4724 34.2065 11.4599 34.1999 11.4478H34.2003C34.1571 11.3701 34.1129 11.2928 34.0677 11.2162L34.0463 11.1827C34.0125 11.1273 33.9777 11.0726 33.9418 11.0185C33.9297 11.0002 33.9172 10.9807 33.904 10.962C33.8845 10.9334 33.8645 10.9052 33.8439 10.8774C33.7695 10.7706 33.6912 10.6666 33.6092 10.5655V10.5651C33.5952 10.5483 33.5811 10.5319 33.5671 10.5144C33.5266 10.4653 33.4844 10.4169 33.4423 10.369L33.442 10.3682C33.433 10.358 33.4236 10.3471 33.4147 10.3378L33.4014 10.3222C33.3831 10.3015 33.3636 10.282 33.3445 10.2625C33.307 10.2224 33.2704 10.1818 33.2322 10.1432L33.2252 10.1366C33.2189 10.13 33.2123 10.1249 33.2061 10.1179C33.1562 10.0679 33.1054 10.0189 33.0536 9.97088L33.0021 9.92448C32.9652 9.89144 32.9279 9.85882 32.8902 9.82661L32.8497 9.79113L32.8493 9.79074C32.8376 9.78178 32.8267 9.77125 32.8154 9.7615C32.7717 9.72485 32.7261 9.69054 32.6824 9.65584C32.6622 9.64024 32.6419 9.62348 32.6216 9.60827C32.6072 9.59739 32.5928 9.5866 32.5783 9.57591L32.5772 9.57513C32.5249 9.53614 32.4715 9.49832 32.4177 9.46128L32.4173 9.4605L32.3619 9.42229C32.2972 9.37979 32.2321 9.33612 32.1654 9.29557L32.1646 9.29518C32.1615 9.29249 32.1581 9.29014 32.1545 9.28817L32.1541 9.28778C32.1034 9.25697 32.052 9.22773 32.0001 9.19849C31.9798 9.18679 31.9596 9.17393 31.9393 9.16301L31.9389 9.16223C31.9241 9.15482 31.9096 9.14701 31.8952 9.13883C31.8905 9.13688 31.887 9.13416 31.8827 9.13182L31.7907 9.08464C31.7638 9.07021 31.7373 9.05579 31.7096 9.04253L31.7089 9.04214C31.6991 9.03746 31.6897 9.03317 31.6804 9.0281C31.6718 9.02342 31.6625 9.01914 31.6535 9.01485C31.5919 8.98521 31.5291 8.95714 31.4667 8.92907C31.4535 8.92322 31.4402 8.9162 31.4262 8.91035L31.416 8.90646L31.4067 8.90295L31.4055 8.90256C31.4043 8.901 31.4032 8.901 31.4024 8.90061L31.4016 8.89983C31.3333 8.87146 31.2641 8.84416 31.195 8.81795V8.81756L31.1291 8.79377H31.1279C31.0647 8.77025 31.0008 8.74841 30.9365 8.72827L30.9357 8.72788C30.9193 8.72164 30.9033 8.71696 30.8869 8.71151C30.8158 8.68938 30.7442 8.66884 30.6721 8.6499C30.6628 8.64795 30.6542 8.64444 30.6444 8.6421C30.6277 8.63743 30.6101 8.63353 30.5934 8.62924H30.5926C30.5797 8.62534 30.5668 8.623 30.5536 8.61988C30.5003 8.60716 30.4468 8.59482 30.3933 8.58284C30.3816 8.58011 30.3692 8.57777 30.3579 8.57465L30.3228 8.56763H30.3224C30.1854 8.54034 30.0474 8.51823 29.9087 8.50135H29.9067C29.787 8.4855 29.6667 8.47444 29.5461 8.46821C29.5321 8.46704 29.5188 8.46509 29.5055 8.46431L29.4802 8.46392L29.4747 8.46353C29.4404 8.46158 29.4053 8.46158 29.3714 8.46041C29.3168 8.45885 29.263 8.45612 29.2084 8.45612C29.1542 8.45612 29.1004 8.45846 29.0462 8.46041H29.0435L29.0174 8.46119C28.9963 8.46119 28.9764 8.46197 28.9554 8.46236L28.9082 8.46392C28.8552 8.46665 28.8033 8.47211 28.7515 8.47562L28.7448 8.47601C28.7133 8.47796 28.6821 8.48108 28.6509 8.48342L28.6174 8.48615C28.5608 8.49238 28.5058 8.50018 28.4501 8.50798C28.4099 8.51305 28.369 8.51656 28.33 8.52319C28.2731 8.53176 28.2173 8.54268 28.1612 8.5536L28.0898 8.56607L28.0465 8.57387C28.0068 8.58206 27.967 8.5922 27.9276 8.60155L27.891 8.60974C27.8499 8.61812 27.8091 8.62748 27.7685 8.63782C27.7143 8.65263 27.6617 8.66823 27.6071 8.68382C27.6036 8.68499 27.5997 8.68577 27.5966 8.68733C27.5635 8.69669 27.5299 8.70566 27.4976 8.71579L27.4968 8.71619L27.4804 8.72164C27.4391 8.7349 27.3978 8.75011 27.3564 8.76375L27.3276 8.7735L27.2395 8.80313C27.2367 8.80434 27.2338 8.80525 27.2309 8.80586L27.1513 8.83783L27.1022 8.85772L27.062 8.8737C27.032 8.88579 27.0016 8.89671 26.9716 8.90957H26.9708C26.9568 8.91571 26.9429 8.92208 26.9291 8.92868C26.8963 8.94349 26.8624 8.95831 26.8293 8.9743C26.8188 8.97859 26.8078 8.98287 26.7977 8.98833C26.772 9.00042 26.7443 9.01173 26.7193 9.02381C26.6751 9.04521 26.6314 9.06809 26.5883 9.09166C26.5743 9.09945 26.5603 9.10608 26.5458 9.11388L26.4729 9.15092L26.471 9.15209C26.4402 9.16925 26.4097 9.18796 26.3789 9.20512C26.3524 9.22014 26.326 9.23547 26.2998 9.25112C26.278 9.26399 26.2554 9.27608 26.2339 9.28933L26.2327 9.29011C26.2074 9.3061 26.182 9.32248 26.1575 9.33885L26.1532 9.34119L26.1337 9.35367L26.0569 9.4024C26.039 9.41527 26.0199 9.42619 26.0023 9.43867L26.0007 9.43983C25.9707 9.46044 25.9409 9.4815 25.9115 9.503C25.8818 9.52405 25.8522 9.54433 25.8233 9.56577L25.7781 9.59774L25.7766 9.59969C25.7688 9.60515 25.7621 9.611 25.7547 9.61646C25.7458 9.62387 25.736 9.63128 25.7267 9.63946C25.6842 9.67182 25.6424 9.70458 25.6011 9.7385C25.5886 9.74863 25.5754 9.75838 25.5633 9.76852C25.5623 9.76903 25.5614 9.76969 25.5606 9.77047L25.5602 9.77086L25.5531 9.7771L25.5188 9.80634C25.4736 9.84572 25.4284 9.88393 25.3832 9.92409C25.3746 9.93267 25.3644 9.94007 25.3559 9.94865L25.3531 9.95138L25.3442 9.95957C25.2868 10.013 25.2307 10.066 25.1753 10.1218L25.1578 10.1389C25.1301 10.1666 25.1032 10.1958 25.0759 10.2247C25.0615 10.2415 25.0455 10.2575 25.0307 10.2738C25.0151 10.2902 24.9991 10.3062 24.9839 10.323C24.9792 10.3276 24.9745 10.3315 24.9699 10.3374C24.9176 10.3951 24.8681 10.4563 24.8178 10.516L24.8174 10.5163C24.8154 10.5191 24.813 10.5216 24.8104 10.5238C24.796 10.5409 24.7808 10.5577 24.7671 10.5752L24.7437 10.6033C24.7028 10.6544 24.6646 10.7082 24.6256 10.7596C24.5952 10.8002 24.5632 10.84 24.5336 10.8817C24.4735 10.9675 24.4158 11.0552 24.3604 11.1441L24.3413 11.1725L24.316 11.2178C24.2973 11.2478 24.2809 11.279 24.2634 11.3098C24.2244 11.3757 24.1889 11.4427 24.153 11.5102C24.1448 11.5262 24.1351 11.5422 24.1265 11.5585C24.0953 11.619 24.0658 11.6804 24.038 11.7426C24.0107 11.8003 23.983 11.858 23.9581 11.9169C23.9032 12.0432 23.8535 12.1717 23.8091 12.3021C23.7959 12.3387 23.7826 12.375 23.7698 12.4124V12.4136C23.7662 12.4261 23.7623 12.4378 23.7592 12.4514C23.723 12.5641 23.6894 12.6775 23.6614 12.793H23.6606L23.6602 12.7965C23.5481 13.2473 23.4915 13.7102 23.4914 14.1748V22.0675L23.4918 22.0807C23.4925 22.1903 23.496 22.2991 23.5023 22.4074L23.5093 22.5084C23.5163 22.6004 23.5245 22.6925 23.535 22.7833C23.5382 22.8067 23.5401 22.8309 23.5432 22.8547C23.5576 22.965 23.5752 23.0742 23.5955 23.1849L23.6146 23.2765C23.6321 23.3627 23.6512 23.4481 23.6715 23.5331C23.6797 23.5631 23.6859 23.5931 23.6941 23.6235C23.7281 23.7551 23.7669 23.8854 23.8103 24.0142C23.838 24.0992 23.8684 24.1838 23.9004 24.2673L23.9374 24.3624C23.978 24.4645 24.0205 24.5651 24.0657 24.663L24.0828 24.6993C24.1253 24.7886 24.1717 24.8798 24.2185 24.9675L24.2357 24.9995C24.2482 25.0237 24.2606 25.0451 24.2743 25.0697C24.3063 25.1266 24.3402 25.1859 24.3753 25.2432C24.3944 25.2751 24.4127 25.3063 24.4318 25.3364C24.4856 25.4214 24.5398 25.5071 24.5983 25.5882C24.6061 25.5984 24.6131 25.6085 24.6193 25.6175C24.6724 25.6908 24.7262 25.7645 24.7815 25.8358L24.8463 25.9154C24.8911 25.9696 24.9355 26.0226 24.9827 26.0764C25.0061 26.1017 25.0295 26.1306 25.0537 26.1559C25.1055 26.2129 25.1593 26.2686 25.2135 26.3236L25.267 26.3786C25.3399 26.4495 25.4132 26.517 25.488 26.5833C25.5091 26.6012 25.5309 26.6183 25.5524 26.6363C25.6093 26.6846 25.6674 26.731 25.7267 26.7774C25.7547 26.7993 25.7836 26.8199 25.8128 26.8421C25.869 26.8839 25.9259 26.9244 25.9836 26.9634C26.0927 27.038 26.2048 27.1081 26.3197 27.1736C26.3298 27.1802 26.3411 27.1849 26.3517 27.1911C26.4324 27.2352 26.5146 27.2792 26.5981 27.3178L26.6944 27.3623C26.7575 27.3911 26.8215 27.4188 26.8854 27.4445C26.9209 27.4582 26.956 27.473 26.9911 27.4855C27.0613 27.5112 27.1311 27.5358 27.2028 27.5588C27.2317 27.567 27.2597 27.5775 27.2897 27.5861C27.3872 27.6153 27.4866 27.6426 27.5876 27.6656C27.6184 27.6726 27.6496 27.6777 27.6816 27.6855C27.7549 27.7003 27.8286 27.7147 27.9038 27.726C27.9444 27.7335 27.9845 27.7377 28.0247 27.7436C28.0957 27.7529 28.1674 27.7604 28.2395 27.7678C28.2789 27.7709 28.3175 27.776 28.3577 27.7787C28.4559 27.7849 28.555 27.788 28.6556 27.7884L28.6891 27.7892C28.8341 27.7892 28.9811 27.7834 29.1308 27.7697C29.2814 27.758 29.4312 27.7393 29.58 27.7136L33.0411 27.1876L33.3254 27.1463L33.2466 25.0911L33.2057 23.992L33.2006 23.8602L33.1948 23.7222L33.1912 23.6325H29.1831C29.1302 23.6316 29.0774 23.6285 29.0248 23.6231C29.0018 23.6204 28.9807 23.6157 28.9585 23.613C28.8994 23.6049 28.841 23.5924 28.7838 23.5756C28.7819 23.5752 28.7799 23.5752 28.778 23.574C28.7406 23.5639 28.7047 23.5502 28.6688 23.5389C28.6497 23.5307 28.629 23.5257 28.6111 23.5159C28.5593 23.4959 28.5088 23.4725 28.4598 23.4461C28.4528 23.4426 28.447 23.4379 28.4407 23.4348C28.3953 23.4094 28.3512 23.3816 28.3086 23.3518C28.2933 23.3424 28.2781 23.3292 28.2629 23.3171C28.2314 23.2936 28.2005 23.2692 28.1705 23.2438C28.1553 23.2294 28.1409 23.2165 28.1261 23.2032C28.0964 23.1746 28.0676 23.1449 28.0399 23.1143C28.029 23.1026 28.0169 23.0898 28.0064 23.0765C27.9697 23.0339 27.9355 22.9891 27.9042 22.9424C27.9031 22.9412 27.9023 22.9393 27.9003 22.9381C27.8761 22.9008 27.8531 22.8627 27.8313 22.8239C27.8235 22.811 27.8177 22.7981 27.811 22.7845C27.7956 22.7557 27.7816 22.7261 27.7689 22.696C27.7627 22.6835 27.7572 22.6698 27.751 22.6554C27.7353 22.6168 27.7211 22.5775 27.7085 22.5377C27.7073 22.5334 27.705 22.5295 27.7038 22.5252C27.691 22.4816 27.6796 22.4375 27.6699 22.393L27.6617 22.347C27.6554 22.315 27.6504 22.2827 27.6465 22.2503L27.641 22.2016C27.637 22.1578 27.6348 22.1138 27.6344 22.0698L27.634 22.06V20.2544H32.8169C33.0896 20.2559 33.3597 20.2033 33.6119 20.0996C33.864 19.996 34.0931 19.8434 34.2859 19.6506C34.4787 19.4579 34.6314 19.2288 34.7351 18.9767C34.8388 18.7245 34.8914 18.4543 34.89 18.1817V14.1677C34.8904 14.1533 34.8893 14.1323 34.8885 14.11ZM27.634 16.1141V14.174C27.634 13.3049 28.3358 12.6027 29.2057 12.6027C29.2139 12.6027 29.2225 12.6039 29.2307 12.6042C29.2689 12.6042 29.3059 12.6062 29.343 12.6101C29.3617 12.6117 29.3804 12.6148 29.3987 12.6171C29.4268 12.621 29.4552 12.6253 29.4825 12.6304L29.5387 12.6417C29.5668 12.6487 29.5952 12.6557 29.6225 12.6643C29.6385 12.669 29.6553 12.6725 29.6712 12.6783C29.7126 12.692 29.7535 12.7072 29.7937 12.7243C29.8054 12.7294 29.8167 12.7349 29.8284 12.7407C29.858 12.754 29.8872 12.768 29.9157 12.7832C29.9313 12.7922 29.9465 12.8004 29.9613 12.8093C30.0005 12.8331 30.0391 12.8578 30.0771 12.8834C30.1036 12.9025 30.1298 12.9228 30.1547 12.9431C30.1645 12.9513 30.175 12.9579 30.1844 12.9672C30.2187 12.9953 30.251 13.0253 30.2826 13.0573L30.3072 13.0834C30.3306 13.108 30.3528 13.1329 30.375 13.1587L30.4039 13.1949C30.4322 13.2318 30.4594 13.2695 30.4854 13.308C30.508 13.3423 30.5298 13.3782 30.5497 13.4148C30.5524 13.4184 30.5544 13.4223 30.5567 13.4258C30.5781 13.4667 30.5984 13.5096 30.6171 13.5533C30.6214 13.563 30.6249 13.5735 30.6284 13.5844C30.637 13.6063 30.6472 13.6281 30.6546 13.6507V13.6515C30.6585 13.662 30.6616 13.6737 30.6655 13.6847C30.6702 13.7006 30.6741 13.7166 30.6799 13.7326C30.6929 13.7803 30.7043 13.8284 30.7142 13.8769C30.7209 13.9108 30.7251 13.9451 30.7298 13.9802C30.7381 14.0442 30.7425 14.1087 30.7431 14.1732V16.1133H27.8118L27.634 16.1141ZM21.8051 1.59704L21.8031 1.6411L21.8043 1.59704L21.8164 1.33503C21.7895 1.31709 21.7501 1.29604 21.7025 1.27342C21.6924 1.26836 21.6791 1.26368 21.6686 1.25822C21.6803 1.26407 21.6932 1.26836 21.7041 1.2742C21.7039 1.2742 21.7042 1.2742 21.7041 1.2742C21.6916 1.26758 21.6756 1.26212 21.662 1.25549C21.6503 1.24964 21.6378 1.24535 21.6257 1.2395C21.6202 1.23755 21.6167 1.23482 21.6105 1.23288C21.5941 1.22625 21.5762 1.21884 21.5586 1.2126C21.5376 1.20441 21.5165 1.19622 21.4935 1.18843C21.4613 1.17638 21.4288 1.16494 21.3961 1.15412C21.3933 1.15373 21.3902 1.15217 21.3867 1.15139C21.3469 1.13852 21.3044 1.12604 21.2604 1.11201C21.251 1.10967 21.2424 1.10655 21.2327 1.10382C21.2311 1.10382 21.2292 1.10304 21.2272 1.10226H21.2264L21.2175 1.09992C21.1988 1.09446 21.1793 1.08978 21.1606 1.08471C21.1481 1.0812 21.1348 1.07731 21.1216 1.07458L21.0943 1.06678C21.0853 1.06405 21.0748 1.0621 21.0654 1.05976L21.0483 1.05508C21.0169 1.04714 20.9855 1.0396 20.9539 1.03247H20.9531L20.9184 1.02506C20.8802 1.01687 20.8424 1.00829 20.8022 1.0005L20.7753 0.995427L20.7449 0.989969C20.7122 0.98373 20.6786 0.977492 20.6443 0.971644H20.6439C20.6354 0.970084 20.6256 0.969304 20.617 0.967355C20.6139 0.967247 20.6107 0.966722 20.6077 0.965795C20.5652 0.959557 20.5223 0.952539 20.4786 0.94708H20.4775L20.4443 0.942791C20.4412 0.942401 20.4385 0.942401 20.4361 0.941621L20.4342 0.941232L20.4236 0.940842C20.3842 0.935518 20.3447 0.930839 20.3051 0.926805C20.2895 0.924466 20.2731 0.923686 20.2572 0.922516C20.2131 0.917908 20.1689 0.914138 20.1246 0.911209L20.0969 0.90965L20.0646 0.9077H20.0607C20.0204 0.905081 19.9801 0.902871 19.9398 0.901072L19.8992 0.900292H19.8747L19.861 0.899902C19.822 0.901072 19.7827 0.899902 19.7425 0.899902C19.6532 0.899902 19.5647 0.902632 19.4762 0.90731L19.4399 0.91004L19.39 0.914329C19.33 0.917557 19.27 0.922759 19.2103 0.929924C19.1768 0.933044 19.1444 0.937722 19.1113 0.941232C19.0225 0.952357 18.9341 0.966009 18.8461 0.982171C18.7908 0.991918 18.7354 1.00362 18.68 1.01531C18.6496 1.02233 18.618 1.02818 18.5876 1.03559C18.5248 1.05001 18.4625 1.06678 18.4005 1.08393C18.3781 1.08923 18.3559 1.09509 18.3338 1.10148C18.2511 1.12604 18.1685 1.15139 18.0874 1.17946C18.0636 1.18765 18.0398 1.197 18.0164 1.20558C17.9587 1.22625 17.901 1.24691 17.8441 1.27031C17.8121 1.28239 17.7817 1.29604 17.7501 1.30968C17.7014 1.32996 17.6526 1.3514 17.6043 1.37324L17.5146 1.41457C17.4425 1.44927 17.3719 1.48475 17.3025 1.52062C17.2834 1.53076 17.2643 1.54011 17.2456 1.55103C17.1606 1.59665 17.0772 1.64539 16.9949 1.69607L16.9929 1.69646L16.9208 1.74247C16.9021 1.75378 16.8845 1.76626 16.8662 1.77834C16.8233 1.80641 16.7789 1.83449 16.7364 1.86334C16.7122 1.8805 16.6869 1.89726 16.6627 1.91481C16.5843 1.97134 16.5071 2.02866 16.4303 2.08792L16.4299 2.08831C16.4135 2.10079 16.3983 2.11404 16.382 2.12691C16.3944 2.11716 16.4069 2.10547 16.4206 2.09533C16.4069 2.10508 16.3948 2.11716 16.3816 2.12769C16.35 2.15264 16.3208 2.17916 16.29 2.2045C16.2599 2.22945 16.2291 2.25363 16.1999 2.27936C16.1907 2.28765 16.1815 2.29583 16.1722 2.30392L16.1266 2.34447C16.067 2.39784 16.0085 2.45244 15.9511 2.50823L15.9071 2.54995C15.8704 2.58699 15.8353 2.62442 15.7999 2.66185L15.7063 2.75894L15.6447 2.82834V2.8299H15.6435C15.5944 2.88448 15.5464 2.93946 15.4996 2.99638V2.99755C15.4809 3.02056 15.461 3.04356 15.4427 3.06656C15.4061 3.11101 15.3721 3.15663 15.3374 3.20186C15.3121 3.23422 15.2864 3.26502 15.263 3.29777C15.2576 3.30451 15.2527 3.31154 15.2481 3.31883C15.2392 3.33131 15.2294 3.34417 15.2209 3.35782L15.1897 3.40266C15.1557 3.451 15.1218 3.49974 15.0883 3.54926L15.059 3.5941C15.0507 3.60588 15.0427 3.61798 15.0353 3.63036H15.0345C14.9877 3.70366 14.9421 3.77852 14.8972 3.85377C14.8902 3.86508 14.8828 3.87677 14.8762 3.88847C14.8267 3.97425 14.7803 4.0608 14.735 4.14931C14.7315 4.15594 14.7276 4.16296 14.7245 4.16998C14.7148 4.19015 14.7048 4.21016 14.6945 4.23002L14.6941 4.23158C14.6594 4.30098 14.6266 4.36999 14.5947 4.44095L14.5943 4.44212C14.5841 4.4663 14.5721 4.49008 14.5619 4.51387C14.5522 4.53804 14.5432 4.56143 14.5335 4.58444C14.5042 4.65267 14.4758 4.72051 14.4496 4.78952C14.4477 4.79342 14.4465 4.79771 14.4453 4.80161L14.4239 4.85893C14.411 4.89363 14.3997 4.92911 14.388 4.96342C14.374 5.00397 14.3596 5.04452 14.3463 5.08546C14.3431 5.09562 14.3402 5.10589 14.3377 5.11626C14.3311 5.13458 14.3253 5.1533 14.3194 5.17201C14.2956 5.24882 14.275 5.3268 14.2535 5.40673C14.2488 5.42545 14.243 5.44416 14.2375 5.46327V5.46444L14.2367 5.466L14.2317 5.48744L14.2371 5.46561L14.2375 5.46483C14.2321 5.48432 14.2293 5.50343 14.2247 5.52214C14.2278 5.51083 14.229 5.49875 14.2317 5.48744C14.2065 5.59144 14.1839 5.69596 14.1631 5.80092C14.1627 5.80521 14.1615 5.80911 14.1607 5.81223L14.158 5.82899C14.1393 5.92803 14.1233 6.02823 14.1104 6.12921C14.1054 6.16313 14.1022 6.19705 14.0983 6.23215C14.0892 6.30772 14.0821 6.38351 14.0769 6.45946C14.0656 6.59616 14.0596 6.73324 14.059 6.87041L14.0582 6.88717V31.8999L14.2371 31.8905L18.2051 31.6675V16.6498H21.315V12.5033H18.2055L18.2051 12.5029V6.88522C18.2051 6.01614 18.9069 5.31394 19.7425 5.31394H21.6491L21.8019 1.68282L21.8051 1.59704ZM4.6285 1.79238L0.660507 1.53661L0.481934 1.52491V27.5182H4.6285V1.79238Z" fill="#A2C056"/>
<path d="M11.7063 5.15288L11.7059 5.14469L11.7055 5.14391C11.7031 5.12208 11.6981 5.10141 11.6961 5.07958L11.6953 5.07334C11.6879 5.02032 11.6817 4.96768 11.6708 4.91582L11.67 4.91153C11.6641 4.88424 11.6567 4.85695 11.6501 4.82966C11.6493 4.82927 11.6493 4.82849 11.6493 4.82771C11.6443 4.80626 11.6384 4.78599 11.633 4.76493C11.6271 4.74115 11.6224 4.71853 11.6146 4.69514C11.6057 4.66551 11.594 4.63549 11.5838 4.60507L11.5834 4.6039C11.5731 4.57369 11.562 4.54379 11.5499 4.51423L11.5386 4.48226L11.5382 4.4807L11.5129 4.4226L11.5109 4.42026C11.4912 4.37587 11.4703 4.33206 11.4481 4.28887L11.4474 4.28692C11.4373 4.26764 11.4269 4.24854 11.4162 4.2296L11.4158 4.22882C11.399 4.19919 11.3807 4.17112 11.3631 4.14227C11.3507 4.12199 11.339 4.10172 11.3261 4.08339L11.3257 4.08183L11.3249 4.08027C11.3191 4.0713 11.3136 4.06195 11.3074 4.05298V4.05181C11.2691 3.99584 11.2284 3.94159 11.1853 3.88922V3.88844L11.183 3.88649C11.1717 3.87168 11.1588 3.85842 11.1464 3.8436C11.1134 3.80472 11.0787 3.767 11.043 3.73053C11.036 3.7243 11.0306 3.71806 11.0243 3.71182L10.9962 3.68336C10.9881 3.67634 10.9803 3.66971 10.9721 3.66191C10.9413 3.63306 10.9101 3.60343 10.8773 3.57496C10.8652 3.56522 10.8532 3.55391 10.8407 3.54377C10.8146 3.52155 10.7853 3.50244 10.758 3.48178C10.7307 3.46072 10.7038 3.43928 10.6758 3.42018C10.6633 3.41121 10.6504 3.40341 10.6375 3.39522C10.6044 3.373 10.5697 3.35311 10.5354 3.33323C10.5047 3.31312 10.473 3.29477 10.4403 3.27825C10.3942 3.25469 10.3475 3.23233 10.3003 3.21119C10.2835 3.20378 10.2664 3.19559 10.2484 3.18819C10.2012 3.1683 10.1529 3.15154 10.1042 3.13438C10.087 3.12853 10.0695 3.12112 10.0519 3.11527C10.0414 3.11177 10.0313 3.10943 10.0211 3.10709C9.96339 3.08976 9.90499 3.07481 9.84605 3.06225C9.825 3.05718 9.80316 3.05328 9.78172 3.04899C9.75403 3.04353 9.72518 3.0408 9.6975 3.03613C9.67333 3.03262 9.64993 3.02794 9.62576 3.02521C9.60392 3.02248 9.58326 3.01897 9.56181 3.01702H9.55441C9.48403 3.01023 9.41339 3.00659 9.34269 3.0061H9.33996C9.2621 3.00657 9.1843 3.0106 9.1068 3.01819C9.08029 3.02053 9.05456 3.02638 9.02921 3.0295C8.97801 3.03552 8.92703 3.04332 8.87637 3.05289C8.84635 3.05952 8.81672 3.06771 8.78631 3.0759C8.74502 3.085 8.70405 3.09553 8.66349 3.10748L8.6553 3.11021C8.62333 3.11956 8.59175 3.13165 8.56017 3.14296C8.52118 3.15738 8.4818 3.17025 8.44359 3.18546L8.44242 3.18585C8.41084 3.1991 8.38081 3.21392 8.35001 3.22835L8.29348 3.25525C8.24352 3.27832 8.19519 3.30476 8.14882 3.3344C8.11626 3.35299 8.08415 3.37236 8.05252 3.39249L8.04511 3.39639C8.01665 3.41589 7.98819 3.43694 7.96011 3.45644C7.92825 3.47892 7.89705 3.50232 7.86654 3.52662C7.86537 3.5274 7.86537 3.52818 7.8642 3.52818C7.83747 3.55023 7.81121 3.57285 7.78544 3.59602L7.76127 3.61668C7.73904 3.63618 7.71799 3.65567 7.69693 3.67556C7.67183 3.69919 7.64764 3.72377 7.62441 3.74925C7.59673 3.7781 7.56944 3.80773 7.54331 3.83854C7.52616 3.85803 7.51095 3.8787 7.49419 3.8978L7.47781 3.91846C7.46572 3.93406 7.45403 3.95083 7.44194 3.96681C7.42964 3.98241 7.41768 3.99827 7.40607 4.01438V4.01516C7.39554 4.02959 7.38579 4.0444 7.37527 4.05961C7.36708 4.07286 7.35772 4.08573 7.34914 4.09977C7.33034 4.12826 7.31253 4.15739 7.29573 4.1871C7.29261 4.19256 7.28871 4.19763 7.28637 4.20348L7.28403 4.20465C7.2669 4.23419 7.25039 4.26409 7.23451 4.29433C7.2275 4.30719 7.22243 4.32123 7.21502 4.33527C7.20449 4.35866 7.1928 4.38088 7.18149 4.40428L7.1811 4.40623C7.16692 4.43641 7.15353 4.46697 7.14094 4.49785L7.14055 4.49941C7.12495 4.53723 7.11131 4.57622 7.09805 4.61482L7.09727 4.61755C7.08674 4.64913 7.07544 4.68032 7.06647 4.7123L7.06608 4.71425C7.05984 4.7353 7.05477 4.75674 7.04892 4.77897C7.04463 4.79807 7.03918 4.81757 7.03411 4.83589V4.83823C7.02982 4.85734 7.02319 4.87644 7.01929 4.89516C7.01617 4.90842 7.015 4.92167 7.01227 4.93493V4.9361C7.00993 4.94663 7.00876 4.95793 7.00681 4.96807C7.00136 5.00004 6.99707 5.03123 6.99239 5.06398L6.992 5.06788C6.98701 5.10012 6.98298 5.13249 6.97991 5.16497V5.16614C6.97835 5.17628 6.97874 5.1868 6.97835 5.19694C6.97265 5.25799 6.96952 5.31926 6.96899 5.38058C6.96899 5.45388 6.97328 5.5264 6.97991 5.59775C6.98108 5.61491 6.98342 5.63207 6.98576 5.64961C6.99317 5.71355 7.00253 5.77672 7.01422 5.8391L7.01851 5.86211C7.03255 5.92995 7.05087 5.99779 7.07076 6.06407L7.08674 6.11281C7.10468 6.16779 7.12495 6.2212 7.1464 6.27462C7.15186 6.2867 7.15614 6.29918 7.1616 6.31283C7.19526 6.38958 7.23287 6.46454 7.27428 6.53741C7.28715 6.5608 7.30158 6.58303 7.31522 6.60525C7.33043 6.62981 7.34525 6.65633 7.36123 6.68011C7.36942 6.69181 7.37683 6.70428 7.38501 6.71637C7.43077 6.78351 7.48037 6.84795 7.53357 6.90937C7.57061 6.95343 7.6096 6.99632 7.65015 7.03765C7.65833 7.04584 7.66691 7.05558 7.67588 7.06416C7.73389 7.12157 7.79493 7.17585 7.85874 7.22675C7.90514 7.26457 7.9531 7.30044 8.00261 7.33436L8.02601 7.35152C8.14811 7.43243 8.27685 7.50287 8.41084 7.56206L8.42643 7.56908C8.49038 7.59598 8.55588 7.62015 8.62216 7.6416C8.63581 7.64628 8.64906 7.64979 8.66271 7.65369C8.73005 7.67477 8.79836 7.69259 8.86741 7.7071C8.93798 7.72192 9.00972 7.73167 9.08185 7.73985C9.09589 7.74141 9.10953 7.74336 9.12357 7.74414C9.27602 7.76006 9.42973 7.75967 9.58209 7.74297C9.59418 7.74219 9.60509 7.73946 9.61679 7.73751C9.68268 7.72972 9.74819 7.72114 9.81213 7.70749C9.83357 7.70398 9.85385 7.69657 9.8749 7.69229C9.92832 7.67942 9.98173 7.66694 10.034 7.65096C10.0585 7.64277 10.0831 7.6338 10.1073 7.62522C10.1544 7.60957 10.201 7.59227 10.2469 7.57337C10.2734 7.56284 10.2987 7.54997 10.3245 7.53789C10.3666 7.51839 10.4095 7.49851 10.45 7.47706C10.4769 7.46342 10.5026 7.44704 10.528 7.43222C10.5674 7.40922 10.6052 7.38661 10.6426 7.36204C10.6683 7.3445 10.6937 7.32617 10.719 7.30824C10.7543 7.28303 10.789 7.25703 10.8231 7.23026C10.8481 7.21037 10.8715 7.18932 10.8964 7.16826C10.9284 7.14058 10.96 7.11173 10.99 7.08249C11.0138 7.06026 11.0364 7.03609 11.059 7.0123C11.1112 6.95835 11.1604 6.9016 11.2064 6.84231C11.2781 6.75195 11.3429 6.65628 11.4002 6.55612C11.4173 6.52613 11.434 6.49584 11.4501 6.46528C11.484 6.39797 11.5158 6.32957 11.5452 6.26019C11.56 6.22276 11.5733 6.18533 11.5858 6.14673C11.5975 6.11281 11.6092 6.07928 11.6189 6.04458C11.6298 6.00598 11.6404 5.96738 11.6493 5.928C11.6575 5.89213 11.6665 5.85704 11.6735 5.82156C11.6809 5.7814 11.6864 5.74163 11.6918 5.7003C11.6973 5.66365 11.7027 5.627 11.7055 5.58996C11.707 5.57592 11.707 5.56071 11.7082 5.5459C11.7117 5.49092 11.7164 5.43595 11.7164 5.38019C11.7169 5.3043 11.7135 5.22843 11.7063 5.15288ZM7.27 8.72435V27.5182H11.4162V8.95867L7.27 8.72435Z" fill="#A2C056"/>
</svg>
