<svg width="245" height="50" viewBox="0 0 245 50" fill="none" xmlns="http://www.w3.org/2000/svg">
<g clip-path="url(#clip0_251_938)">
<path d="M39.5 46C50.8218 46 60 36.8218 60 25.5C60 14.1782 50.8218 5 39.5 5C28.1782 5 19 14.1782 19 25.5C19 36.8218 28.1782 46 39.5 46Z" fill="#003E81"/>
<path d="M24.4106 25.4999C24.4109 17.1663 31.1663 10.4109 39.4999 10.4106C47.8335 10.4109 54.589 17.1663 54.5892 25.4999C54.589 33.8335 47.8335 40.589 39.4999 40.5892C31.1663 40.589 24.4109 33.8335 24.4106 25.4999Z" fill="white"/>
<path d="M29.2615 15.2615C26.6407 17.8826 25.0207 21.5006 25.0205 25.5001C25.0207 29.4995 26.6407 33.1174 29.2615 35.7387C31.8827 38.3595 35.5006 39.9795 39.5001 39.9796C43.4995 39.9795 47.1174 38.3595 49.7387 35.7387C52.3595 33.1174 53.9795 29.4995 53.9796 25.5001C53.9795 21.5007 52.3595 17.8828 49.7387 15.2615C47.1174 12.6407 43.4995 11.0207 39.5001 11.0205C35.5006 11.0207 31.8827 12.6407 29.2615 15.2615Z" fill="#199FD6"/>
<path d="M31.0171 33.0294C32.5032 32.856 33.1966 32.6827 33.1966 31.048V19.3082C31.8096 17.5993 31.4134 17.525 31.0913 17.525V16.9058H36.3172L44.9116 27.4814H44.9611V19.9769C44.9611 18.4909 44.6639 17.6736 42.6578 17.525V16.9058H47.9828V17.525C46.1995 17.7479 46.0509 18.3175 46.0509 19.5064V34.0944H45.3574L34.3359 20.6704H34.2864V30.5774C34.2864 32.3607 34.8065 32.8312 36.6393 33.0294V33.6486H31.0171V33.0294Z" fill="white"/>
</g>
<path d="M80.404 32.48V27.916C80.404 27.5613 80.348 27.328 80.236 27.216C80.1427 27.104 79.9093 27.048 79.536 27.048H71.976C70.5013 27.048 69.764 26.3107 69.764 24.836V19.796C69.764 18.3213 70.5013 17.584 71.976 17.584H82.616C84.0907 17.584 84.828 18.3213 84.828 19.796V22.904H80.32V20.104C80.32 19.7307 80.264 19.4973 80.152 19.404C80.04 19.292 79.8067 19.236 79.452 19.236H75.168C74.7947 19.236 74.552 19.292 74.44 19.404C74.3467 19.4973 74.3 19.7307 74.3 20.104V24.528C74.3 24.9013 74.3467 25.144 74.44 25.256C74.552 25.3493 74.7947 25.396 75.168 25.396H82.7C84.1747 25.396 84.912 26.1333 84.912 27.608V32.788C84.912 34.2627 84.1747 35 82.7 35H72.06C70.5853 35 69.848 34.2627 69.848 32.788V29.68H74.356V32.48C74.356 32.8533 74.4027 33.096 74.496 33.208C74.608 33.3013 74.8507 33.348 75.224 33.348H79.536C79.9093 33.348 80.1427 33.3013 80.236 33.208C80.348 33.096 80.404 32.8533 80.404 32.48ZM99.1345 32.48V27.916C99.1345 27.5613 99.0785 27.328 98.9665 27.216C98.8731 27.104 98.6398 27.048 98.2665 27.048H90.7065C89.2318 27.048 88.4945 26.3107 88.4945 24.836V19.796C88.4945 18.3213 89.2318 17.584 90.7065 17.584H101.346C102.821 17.584 103.558 18.3213 103.558 19.796V22.904H99.0505V20.104C99.0505 19.7307 98.9945 19.4973 98.8825 19.404C98.7705 19.292 98.5371 19.236 98.1825 19.236H93.8985C93.5251 19.236 93.2825 19.292 93.1705 19.404C93.0771 19.4973 93.0305 19.7307 93.0305 20.104V24.528C93.0305 24.9013 93.0771 25.144 93.1705 25.256C93.2825 25.3493 93.5251 25.396 93.8985 25.396H101.43C102.905 25.396 103.642 26.1333 103.642 27.608V32.788C103.642 34.2627 102.905 35 101.43 35H90.7905C89.3158 35 88.5785 34.2627 88.5785 32.788V29.68H93.0865V32.48C93.0865 32.8533 93.1331 33.096 93.2265 33.208C93.3385 33.3013 93.5811 33.348 93.9545 33.348H98.2665C98.6398 33.348 98.8731 33.3013 98.9665 33.208C99.0785 33.096 99.1345 32.8533 99.1345 32.48ZM122.877 23.716H118.341V20.104C118.341 19.7307 118.285 19.4973 118.173 19.404C118.061 19.292 117.828 19.236 117.473 19.236H112.937C112.582 19.236 112.349 19.292 112.237 19.404C112.125 19.4973 112.069 19.7307 112.069 20.104V32.48C112.069 32.8533 112.125 33.096 112.237 33.208C112.349 33.3013 112.582 33.348 112.937 33.348H117.473C117.828 33.348 118.061 33.3013 118.173 33.208C118.285 33.096 118.341 32.8533 118.341 32.48V28.896H122.877V32.788C122.877 34.2627 122.14 35 120.665 35H109.745C108.27 35 107.533 34.2627 107.533 32.788V19.796C107.533 18.3213 108.27 17.584 109.745 17.584H120.665C122.14 17.584 122.877 18.3213 122.877 19.796V23.716ZM146.207 17.584H150.379V35H146.375L138.507 21.98V35H134.335V17.584H138.423L146.207 30.576V17.584ZM158.872 27.216H164.92V23.94C164.92 23.5853 164.864 23.352 164.752 23.24C164.658 23.128 164.425 23.072 164.052 23.072H159.74C159.366 23.072 159.124 23.128 159.012 23.24C158.918 23.352 158.872 23.5853 158.872 23.94V27.216ZM156.772 21.42H166.908C168.382 21.42 169.12 22.1573 169.12 23.632V28.868H158.872V32.48C158.872 32.8533 158.918 33.096 159.012 33.208C159.124 33.3013 159.366 33.348 159.74 33.348H163.996C164.369 33.348 164.602 33.3013 164.696 33.208C164.808 33.096 164.864 32.8533 164.864 32.48V30.828H169.064V32.788C169.064 34.2627 168.326 35 166.852 35H156.772C155.297 35 154.56 34.2627 154.56 32.788V23.632C154.56 22.1573 155.297 21.42 156.772 21.42ZM182.993 32.48V23.94C182.993 23.5853 182.937 23.352 182.825 23.24C182.713 23.128 182.48 23.072 182.125 23.072H178.205C177.533 23.072 177.197 23.38 177.197 23.996V32.452C177.197 33.0493 177.533 33.348 178.205 33.348H182.125C182.48 33.348 182.713 33.3013 182.825 33.208C182.937 33.096 182.993 32.8533 182.993 32.48ZM178.765 21.42H185.093C186.568 21.42 187.305 22.1573 187.305 23.632V32.788C187.305 34.2627 186.568 35 185.093 35H178.765C177.944 35 177.421 34.72 177.197 34.16V38.948H172.857V21.42H177.141V22.4C177.365 21.7467 177.906 21.42 178.765 21.42ZM201.116 32.48V23.94C201.116 23.5853 201.06 23.352 200.948 23.24C200.836 23.128 200.602 23.072 200.248 23.072H196.244C195.87 23.072 195.628 23.128 195.516 23.24C195.422 23.352 195.376 23.5853 195.376 23.94V32.48C195.376 32.8533 195.422 33.096 195.516 33.208C195.628 33.3013 195.87 33.348 196.244 33.348H200.248C200.602 33.348 200.836 33.3013 200.948 33.208C201.06 33.096 201.116 32.8533 201.116 32.48ZM193.276 21.42H203.216C204.69 21.42 205.428 22.1573 205.428 23.632V32.788C205.428 34.2627 204.69 35 203.216 35H193.276C191.801 35 191.064 34.2627 191.064 32.788V23.632C191.064 22.1573 191.801 21.42 193.276 21.42ZM213.952 35H209.612V16.268H213.952V35ZM222.838 35H218.498V21.42H222.838V35ZM218.414 19.152V16.24H222.922V19.152H218.414Z" fill="white"/>
<defs>
<clipPath id="clip0_251_938">
<rect width="41" height="41" fill="white" transform="translate(19 5)"/>
</clipPath>
</defs>
</svg>
