<svg width="115" height="36" viewBox="0 0 115 36" fill="none" xmlns="http://www.w3.org/2000/svg">
<g clip-path="url(#clip0_251_855)">
<path d="M80.3666 19.1959L80.267 19.0738L80.2098 19.0053L84.1995 14.3909L84.329 14.24L84.3734 14.1896H81.8641L81.7184 14.3547L79.3012 17.0856L78.1692 18.3652C78.1088 18.436 78.0553 18.4991 78.011 18.5566C78.0043 18.5634 77.9998 18.5702 77.9946 18.5764C77.9782 18.5974 77.9618 18.6176 77.948 18.6358C77.9412 18.6446 77.9358 18.6531 77.9287 18.6613C77.92 18.6737 77.9107 18.6849 77.9036 18.6979C77.9 18.7011 77.8973 18.7047 77.8956 18.7086C77.8892 18.7176 77.8847 18.7262 77.8785 18.7345C77.8699 18.7483 77.8609 18.7619 77.8528 18.7757C77.8484 18.7834 77.8452 18.7919 77.8396 18.7999C77.8329 18.812 77.827 18.8244 77.822 18.8369C77.8178 18.8448 77.8152 18.8527 77.812 18.8599C77.8062 18.8718 77.8039 18.8834 77.8005 18.8941C77.7982 18.9018 77.7956 18.909 77.7944 18.917C77.7914 18.9281 77.7895 18.9394 77.7885 18.9507C77.7869 18.9575 77.7862 18.9644 77.7863 18.9714C77.785 18.983 77.7863 18.9944 77.7869 19.0056C77.7869 19.0119 77.7869 19.0185 77.7885 19.024C77.7911 19.0373 77.7943 19.0492 77.7963 19.063C77.7982 19.0676 77.7982 19.0729 77.8001 19.0775C77.8056 19.0933 77.812 19.1095 77.8198 19.1258L77.8232 19.1324C77.8577 19.2064 77.9168 19.2874 77.9998 19.3889C78.0043 19.394 78.0078 19.3993 78.0123 19.4043C78.0361 19.4321 78.0602 19.4618 78.0859 19.492L82.2769 24.4769H84.7033L80.3666 19.1959ZM75.3301 9.78809V24.4789H77.5359V9.78809H75.3301Z" fill="#A2C056"/>
<path d="M103.177 14.2701C103.023 14.2261 102.865 14.1866 102.701 14.1526C102.655 14.1433 102.609 14.1345 102.563 14.1261L102.553 14.1245C102.513 14.1171 102.472 14.1102 102.431 14.1037L102.417 14.1017C102.381 14.096 102.343 14.0901 102.305 14.085C101.987 14.0429 101.665 14.0212 101.341 14.0201H101.334C101.256 14.0203 101.179 14.0219 101.101 14.0247C101.079 14.0252 101.058 14.0265 101.036 14.0278C100.982 14.0302 100.928 14.0324 100.874 14.0366C100.845 14.0381 100.817 14.0407 100.789 14.0427C100.742 14.0467 100.696 14.0506 100.649 14.0552C100.62 14.0581 100.592 14.0609 100.563 14.0642C100.516 14.0695 100.47 14.0754 100.424 14.0813C100.406 14.0844 100.388 14.0859 100.368 14.0883C100.36 14.0894 100.352 14.0914 100.345 14.0925C100.292 14.0999 100.24 14.1084 100.188 14.1179C100.168 14.1214 100.15 14.1241 100.131 14.1271C100.062 14.1401 99.996 14.1535 99.9276 14.1684L99.9168 14.1706C99.9103 14.1719 99.9028 14.1745 99.8962 14.1756C99.8006 14.1973 99.7082 14.2201 99.6175 14.2454C99.6068 14.2484 99.5977 14.2506 99.587 14.2535C99.4955 14.2791 99.4048 14.3076 99.3157 14.3377C99.3075 14.3412 99.2968 14.3436 99.2869 14.3469C99.2795 14.35 99.2704 14.353 99.2621 14.3559C99.2011 14.378 99.1393 14.4 99.0799 14.4239L99.0766 14.425L99.0527 14.4344C98.9942 14.4581 98.9356 14.4827 98.8771 14.5081C98.8639 14.5145 98.8499 14.5213 98.835 14.5274C98.8284 14.5309 98.8227 14.5333 98.8152 14.5366C98.7724 14.5564 98.7303 14.577 98.6883 14.5971C98.6775 14.602 98.6676 14.6072 98.6577 14.6123C98.6479 14.6169 98.638 14.6221 98.6272 14.627C98.5728 14.6546 98.52 14.6827 98.4697 14.7118C98.4689 14.7121 98.4689 14.7123 98.4689 14.7125C98.4599 14.7173 98.4508 14.7222 98.4417 14.7272C98.3906 14.7565 98.3411 14.7869 98.2916 14.8176C98.2727 14.8292 98.2562 14.8415 98.2364 14.8535C98.2001 14.8768 98.1647 14.9011 98.1284 14.9257L98.1036 14.9436L98.0773 14.9628C98.0616 14.9735 98.0467 14.9851 98.0311 14.9961C98.0006 15.0185 97.9709 15.0402 97.9437 15.0632C97.9346 15.0694 97.9272 15.0753 97.9198 15.0814L97.9173 15.0821C97.8761 15.1167 97.8332 15.1509 97.7936 15.1867L97.7474 15.2275C97.7252 15.2485 97.7021 15.2698 97.6798 15.2913C97.6724 15.2978 97.665 15.3044 97.6592 15.311C97.6518 15.3178 97.6444 15.3248 97.6378 15.3319C97.6312 15.3387 97.6237 15.3457 97.6172 15.3527C97.5792 15.3907 97.5421 15.4288 97.5067 15.4676C97.5067 15.4678 97.5067 15.4681 97.5058 15.4683C97.5001 15.474 97.4951 15.4801 97.4902 15.4861C97.4687 15.5104 97.4481 15.5361 97.4275 15.5604C97.416 15.5751 97.4011 15.5898 97.3904 15.6047C97.3871 15.6078 97.3838 15.6106 97.383 15.6135C97.3747 15.6251 97.3648 15.6367 97.3558 15.6486L97.2857 15.7415V15.7422C97.2783 15.7514 97.2717 15.7602 97.2651 15.7696C97.2601 15.7749 97.2585 15.7808 97.2535 15.7863C97.237 15.8098 97.2214 15.8341 97.2065 15.8582C97.1942 15.8775 97.1801 15.8966 97.1686 15.9159C97.1669 15.9179 97.1669 15.9203 97.1653 15.9221C97.1636 15.9245 97.1612 15.9269 97.1603 15.9302C97.1529 15.9428 97.1455 15.9556 97.1397 15.9685C97.1208 15.9992 97.1026 16.0299 97.0861 16.0607C97.0779 16.0762 97.0705 16.0916 97.0639 16.1063C97.0457 16.1402 97.0301 16.1743 97.0144 16.2085C97.0111 16.2164 97.0078 16.2242 97.0045 16.2322L96.9946 16.2541C96.9748 16.3021 96.955 16.3502 96.9377 16.3986L96.9369 16.3988V16.4017C96.9113 16.4758 96.8891 16.5505 96.8709 16.6256C96.8693 16.6276 96.8693 16.6298 96.8684 16.6318C96.8618 16.6611 96.8553 16.6901 96.8495 16.7191L96.8396 16.7666C96.8379 16.7738 96.8379 16.7813 96.8371 16.7894C96.8289 16.8392 96.8206 16.8897 96.8165 16.9399C96.8165 16.9428 96.8157 16.9454 96.8157 16.9484C96.8149 16.9504 96.8149 16.9528 96.814 16.9541C96.8107 17 96.8091 17.0465 96.8083 17.0926C96.8066 17.1093 96.8058 17.126 96.8058 17.1428V24.4791H99.0115V17.1428C99.0115 16.7219 99.291 16.2791 99.733 15.9628C99.7701 15.9358 99.8097 15.9097 99.8492 15.8845C99.8855 15.8624 99.9218 15.8413 99.9597 15.8209C100.218 15.6782 100.515 15.5777 100.839 15.5408C100.927 15.5311 101.017 15.5259 101.107 15.5253L103.505 15.563C103.525 15.3196 103.544 15.0551 103.565 14.7581C103.566 14.7373 103.568 14.7169 103.57 14.6959L103.57 14.6798C103.573 14.6366 103.576 14.5928 103.578 14.5476C103.578 14.5443 103.58 14.5412 103.58 14.5379V14.5283C103.583 14.4851 103.585 14.4414 103.587 14.3967C103.453 14.3513 103.316 14.309 103.177 14.2701ZM94.1837 16.8594C94.1829 16.8539 94.182 16.8483 94.182 16.8428C94.1779 16.7998 94.1738 16.7565 94.168 16.7144V16.7107C94.1664 16.7039 94.1639 16.6971 94.1631 16.6903C94.1598 16.666 94.1548 16.6421 94.1507 16.6179C94.1466 16.6028 94.1441 16.5874 94.1416 16.5723C94.1391 16.5587 94.135 16.5447 94.1334 16.5315C94.126 16.4988 94.1161 16.4662 94.107 16.4342C94.1037 16.4195 94.0987 16.4046 94.0938 16.3896C94.0864 16.3637 94.0765 16.3375 94.0674 16.312C94.0674 16.3074 94.0649 16.3037 94.0633 16.2988C94.0575 16.2841 94.0534 16.269 94.0468 16.2543C94.0402 16.2361 94.0311 16.2177 94.0254 16.1995C94.0188 16.1856 94.0138 16.1716 94.0072 16.1578C94.0023 16.1462 93.9981 16.1346 93.9916 16.1227C93.9891 16.1175 93.9866 16.1126 93.985 16.1073C93.9668 16.0699 93.9495 16.0324 93.9297 15.9955C93.9239 15.9865 93.9198 15.9777 93.914 15.969C93.8959 15.9361 93.8786 15.9034 93.8588 15.8711C93.8489 15.856 93.8398 15.8404 93.8299 15.8253C93.8184 15.808 93.8077 15.7907 93.7961 15.7742C93.792 15.7685 93.7895 15.7621 93.7846 15.7562C93.7467 15.7014 93.7087 15.6468 93.6659 15.5939C93.6593 15.5861 93.6527 15.5781 93.6461 15.5707C93.609 15.5236 93.5694 15.4775 93.5273 15.4323C93.5141 15.4174 93.5009 15.4027 93.4861 15.3878C93.4482 15.3473 93.4078 15.3076 93.3665 15.2689C93.3558 15.2571 93.3443 15.2456 93.3319 15.2345C93.2791 15.186 93.2239 15.1387 93.167 15.0926C93.1505 15.0799 93.1348 15.0669 93.1183 15.0548C93.0672 15.0137 93.0144 14.9737 92.9592 14.9349C92.9559 14.9321 92.9518 14.9301 92.9493 14.9272C92.9444 14.924 92.9411 14.9206 92.9353 14.9176C92.8784 14.8781 92.8198 14.8404 92.7597 14.8035L92.7423 14.7917C92.7275 14.7827 92.7118 14.7737 92.6962 14.7647L92.6896 14.7601C92.6318 14.7258 92.5733 14.6927 92.5131 14.6608C92.5007 14.6542 92.4884 14.6469 92.476 14.6401C92.4046 14.6035 92.332 14.5679 92.2581 14.534C92.242 14.5265 92.2259 14.5197 92.2102 14.5127C92.2088 14.5118 92.2056 14.5107 92.205 14.5099C92.1418 14.4819 92.0774 14.4553 92.0118 14.43C92.0009 14.4252 91.9898 14.4207 91.9784 14.4164C91.9725 14.414 91.9684 14.4118 91.9616 14.4096C91.8834 14.3795 91.8037 14.3512 91.7228 14.3248L91.7025 14.3184C91.6397 14.2988 91.5762 14.28 91.5122 14.262C91.4964 14.2574 91.4807 14.2524 91.4646 14.2482C91.4446 14.2425 91.4241 14.2366 91.4035 14.2313C91.3189 14.2088 91.2331 14.1884 91.1463 14.1701C91.1306 14.1668 91.1148 14.1647 91.0997 14.1611C91.0252 14.1459 90.95 14.1322 90.8744 14.1199C90.8521 14.1162 90.8274 14.1125 90.8033 14.1087C90.7133 14.0949 90.6225 14.0831 90.5313 14.0734C90.522 14.0723 90.5107 14.0717 90.4998 14.0706C90.4161 14.0623 90.3321 14.0559 90.2477 14.0513L90.1735 14.0471L90.1596 14.0469C90.075 14.0427 89.9902 14.0405 89.9054 14.0401L89.8871 14.0399C89.8282 14.0399 89.7703 14.0412 89.7112 14.0429C89.671 14.0442 89.6285 14.0456 89.5881 14.0478C89.5411 14.0497 89.4955 14.0515 89.4488 14.0548C89.4232 14.0565 89.3968 14.0592 89.3704 14.0614C89.3381 14.064 89.3058 14.0669 89.2737 14.0701C89.261 14.0712 89.2479 14.0719 89.236 14.0732C89.207 14.0763 89.1784 14.0798 89.1489 14.0837C89.1192 14.0869 89.0896 14.0905 89.0602 14.0945L89.0264 14.0986L88.9363 14.1127C88.8975 14.1181 88.8588 14.1242 88.8203 14.1309C88.7898 14.1359 88.7599 14.1423 88.7294 14.148C88.692 14.155 88.6557 14.1618 88.618 14.1697C88.5882 14.1761 88.5589 14.1831 88.5297 14.1894L88.5271 14.1899C88.517 14.1928 88.5067 14.1952 88.4963 14.1973C88.4705 14.203 88.4461 14.209 88.4197 14.2151C88.3901 14.2223 88.3612 14.2304 88.3323 14.2379C88.2972 14.2473 88.2616 14.2568 88.2265 14.2666C88.1963 14.2754 88.1667 14.2842 88.1391 14.293L88.0644 14.3158C88.0558 14.3188 88.0468 14.321 88.0375 14.3243C88.0092 14.3335 87.9818 14.3432 87.9532 14.3526C87.9198 14.3645 87.8854 14.3761 87.8529 14.3884C87.8251 14.3984 87.7975 14.4088 87.7703 14.4197C87.7376 14.4319 87.7053 14.4446 87.6735 14.4579C87.6462 14.4686 87.6198 14.4803 87.5929 14.4917C87.5614 14.5052 87.5311 14.5189 87.5003 14.5329C87.4732 14.5447 87.4488 14.5566 87.4224 14.5693L87.4121 14.5741L87.3315 14.6134C87.3064 14.6261 87.2826 14.6386 87.2579 14.6518C87.2276 14.6676 87.1974 14.6833 87.1695 14.6993L87.0984 14.7399C87.0694 14.7566 87.0412 14.7733 87.0129 14.7904C86.9904 14.8042 86.9665 14.8182 86.9457 14.8325C86.9176 14.85 86.8902 14.868 86.8634 14.8864L86.8624 14.8867C86.8402 14.9004 86.8194 14.9154 86.7987 14.9296L86.7823 14.9426C86.7613 14.9568 86.7409 14.9714 86.721 14.9864C86.721 14.9864 86.7197 14.9873 86.719 14.9873C86.6991 15.002 86.6801 15.0169 86.6602 15.0318L86.6589 15.0321C86.6332 15.0518 86.6081 15.0719 86.5846 15.0915C86.584 15.0921 86.5827 15.0924 86.5827 15.093C86.5634 15.1082 86.5458 15.1231 86.5271 15.1384L86.4975 15.1645C86.4837 15.1766 86.4696 15.1884 86.456 15.2007C86.4546 15.2013 86.4532 15.2022 86.4522 15.2031C86.4356 15.2188 86.4187 15.2342 86.4014 15.2494V15.25C86.3946 15.2566 86.387 15.2639 86.3811 15.2702C86.365 15.2847 86.3499 15.2996 86.3342 15.3146C86.3335 15.3158 86.3323 15.317 86.331 15.318C86.3152 15.3332 86.2981 15.3488 86.284 15.3646L86.2834 15.3659L86.259 15.3911C86.2468 15.4049 86.2333 15.4185 86.2216 15.4323L86.2162 15.4369C86.2021 15.4523 86.1879 15.4678 86.1744 15.4834C86.1728 15.4839 86.1728 15.4843 86.1722 15.4849C86.1597 15.4994 86.1477 15.5142 86.1361 15.529C86.1294 15.5378 86.122 15.5461 86.1149 15.5545C86.1143 15.5564 86.1117 15.5584 86.1098 15.5602C86.0973 15.5753 86.085 15.5906 86.0719 15.6058C86.0719 15.6067 86.0719 15.6071 86.0706 15.6073C86.0635 15.6185 86.0556 15.6295 86.0471 15.6402L86.0185 15.6793C86.0159 15.6825 86.013 15.6852 86.0117 15.6883L85.979 15.7321C85.9783 15.7323 85.9783 15.7332 85.9776 15.7337C85.9619 15.7569 85.9471 15.7806 85.9311 15.8045C85.9301 15.8062 85.9282 15.8078 85.9282 15.8091C85.9268 15.8099 85.9268 15.8108 85.9262 15.8117C85.9237 15.8147 85.9216 15.8178 85.9198 15.8209C85.9118 15.8345 85.9005 15.8477 85.8931 15.8611C85.8931 15.862 85.8931 15.8621 85.8921 15.863C85.8761 15.8894 85.861 15.9163 85.8459 15.9431C85.8352 15.9606 85.8259 15.978 85.8159 15.9957C85.8003 16.0251 85.7857 16.0547 85.7722 16.0846C85.7648 16.1001 85.7562 16.1157 85.7497 16.1311C85.7272 16.1819 85.7057 16.2346 85.6871 16.2866V16.2872L85.6857 16.2875C85.6857 16.29 85.6844 16.2925 85.6844 16.2958C85.6699 16.3336 85.657 16.3717 85.6456 16.41C85.6397 16.4289 85.635 16.4484 85.6292 16.4675V16.4708C85.6221 16.498 85.6138 16.5256 85.6079 16.5537C85.6028 16.5754 85.6002 16.5978 85.5954 16.6199V16.6208C85.5954 16.6221 85.5954 16.6232 85.5941 16.6245C85.5889 16.6493 85.5854 16.6743 85.5803 16.6991C85.5767 16.7231 85.5743 16.7471 85.5729 16.7713C85.5687 16.7932 85.5664 16.8145 85.5662 16.8368C85.5662 16.8394 85.5649 16.8428 85.5649 16.8458C85.5593 16.9006 85.5569 16.9554 85.5574 17.0103V21.6759C85.5577 21.7522 85.5621 21.8285 85.5706 21.9046C85.5767 21.9566 85.5832 22.0075 85.5918 22.0585C85.5938 22.068 85.5945 22.0774 85.5967 22.0864C85.6076 22.1449 85.6214 22.2029 85.6378 22.2603L85.651 22.3079C85.6655 22.3551 85.6812 22.4018 85.698 22.4483C85.7025 22.4618 85.706 22.4748 85.7111 22.4879C85.7333 22.5448 85.7581 22.6009 85.7838 22.6566C85.7896 22.6703 85.7973 22.6836 85.8037 22.6972C85.8329 22.7565 85.8646 22.8152 85.8986 22.8733C85.9348 22.937 85.9748 22.9998 86.0185 23.0612C86.0506 23.1065 86.0824 23.151 86.1185 23.1955C86.1236 23.2005 86.1265 23.206 86.131 23.2117L86.1516 23.2378C86.1805 23.2734 86.2114 23.3085 86.2416 23.3429C86.2918 23.3985 86.3439 23.4534 86.3978 23.5074C86.4078 23.5172 86.4181 23.5271 86.4293 23.5363C86.4637 23.5696 86.5001 23.6032 86.5364 23.6343L86.5837 23.6752C86.6181 23.7043 86.6534 23.7333 86.6897 23.7613L86.7367 23.7973C86.784 23.8331 86.8328 23.8679 86.8833 23.9019C86.8867 23.905 86.8905 23.908 86.8945 23.9107C86.9502 23.9475 87.0074 23.9833 87.0652 24.0177C87.0797 24.0267 87.0955 24.035 87.1119 24.0438C87.1553 24.0692 87.1996 24.0941 87.2463 24.119C87.2655 24.1285 87.2829 24.1375 87.3016 24.1471C87.3491 24.1712 87.3993 24.1954 87.4491 24.2177C87.463 24.2243 87.4771 24.2315 87.4915 24.2379C87.5575 24.2671 87.6247 24.2951 87.6931 24.3217L87.7034 24.3256C87.7843 24.3569 87.8671 24.3855 87.952 24.4114C88.0079 24.4289 88.0644 24.4447 88.1201 24.461L88.1748 24.4748C88.2432 24.4932 88.313 24.5088 88.3825 24.5243L88.3991 24.5285C88.489 24.547 88.58 24.5628 88.6718 24.5761C88.7598 24.5896 88.8486 24.6003 88.938 24.6083C89.0052 24.6145 89.0724 24.6199 89.1408 24.623L89.1894 24.6263C89.2752 24.6307 89.3601 24.6329 89.4486 24.6329C89.6704 24.6329 89.8996 24.6198 90.1356 24.5916L92.7819 24.3092C92.7753 24.2706 92.7696 24.2329 92.7638 24.1949C92.7605 24.1721 92.7564 24.15 92.7539 24.1271C92.7522 24.111 92.7498 24.0948 92.7473 24.0787C92.7448 24.0532 92.7407 24.0278 92.7399 24.0012C92.7341 23.9597 92.7291 23.9181 92.725 23.8765L92.7217 23.8396C92.7184 23.8091 92.7151 23.7797 92.7127 23.7475C92.7127 23.738 92.7118 23.7286 92.7094 23.7192C92.6995 23.594 92.6904 23.4688 92.683 23.3435V23.3398C92.6797 23.2905 92.6764 23.2411 92.6747 23.1917C92.6747 23.179 92.6731 23.1681 92.6714 23.1541V23.1417H89.8867C89.8076 23.1417 89.7286 23.1384 89.6501 23.1319C89.5848 23.1276 89.5198 23.1208 89.4556 23.1115H89.4543C89.3923 23.1024 89.331 23.0915 89.2704 23.0788C89.2669 23.0782 89.2646 23.0782 89.2637 23.0775C89.2537 23.0758 89.2453 23.0738 89.236 23.0718C89.1758 23.0585 89.1164 23.0437 89.0579 23.0273C89.0537 23.026 89.0508 23.0246 89.047 23.0229C88.9923 23.0075 88.9383 22.99 88.8862 22.9702C88.8769 22.9663 88.8669 22.9634 88.8586 22.9599C88.7977 22.9376 88.739 22.9127 88.6827 22.8854C88.6358 22.8626 88.5901 22.8387 88.5457 22.8136L88.5232 22.8009C88.4758 22.7738 88.4305 22.745 88.3873 22.7147C88.3808 22.7108 88.3754 22.7062 88.3686 22.7011C88.3295 22.6737 88.2921 22.6452 88.2564 22.6156C88.2496 22.6108 88.2439 22.6057 88.2371 22.6011C88.1994 22.5687 88.1636 22.5353 88.1297 22.5009C88.1227 22.4939 88.1172 22.4869 88.1098 22.4796C88.0973 22.4658 88.0828 22.4537 88.0722 22.4386C88.0709 22.4386 88.0709 22.4384 88.0709 22.4378C88.0564 22.4215 88.0446 22.4049 88.0294 22.3875C87.9925 22.3433 87.96 22.2975 87.932 22.2505C87.9276 22.243 87.9234 22.2347 87.9182 22.2266C87.898 22.1941 87.8819 22.1605 87.8655 22.1265C87.8608 22.1169 87.8566 22.107 87.8529 22.0971C87.8346 22.0562 87.819 22.0147 87.806 21.9728C87.804 21.9667 87.8035 21.9607 87.8008 21.9548C87.7902 21.9173 87.7822 21.8795 87.7771 21.8414C87.7666 21.7855 87.7616 21.7291 87.762 21.6728V20.0746H93.0837C93.3748 20.0761 93.6543 19.9989 93.8621 19.8601C94.0625 19.7267 94.187 19.5384 94.187 19.3219V17.0114C94.1886 16.9607 94.1878 16.91 94.1837 16.8594ZM92.0111 17.0114V18.5911H87.7649V17.0114C87.7649 16.3541 88.3837 15.7964 89.2511 15.6101C89.5194 15.5533 89.8015 15.5331 90.0812 15.5507C90.1014 15.5518 90.1202 15.5538 90.1391 15.5554C90.186 15.5593 90.232 15.5644 90.277 15.5698C90.2969 15.5725 90.3159 15.5747 90.3355 15.5775C90.3902 15.5861 90.4461 15.5957 90.5004 15.6071C90.5056 15.6084 90.512 15.6095 90.5172 15.6106C90.6373 15.6369 90.7536 15.6706 90.8647 15.7113L90.9161 15.7301C90.9615 15.7477 91.0049 15.7664 91.0483 15.786C91.0563 15.79 91.0659 15.7933 91.0733 15.7972C91.1241 15.8209 91.1739 15.8468 91.2209 15.8733C91.2341 15.8804 91.246 15.8885 91.2598 15.8962C91.2939 15.9165 91.3283 15.9376 91.3605 15.9593C91.3749 15.969 91.3891 15.9784 91.4023 15.9883C91.4357 16.0122 91.4688 16.037 91.501 16.0624C91.5093 16.0697 91.5189 16.0762 91.5279 16.0837C91.5768 16.1254 91.6227 16.1687 91.6652 16.2135C91.69 16.2398 91.7131 16.2664 91.736 16.2938C91.7459 16.3065 91.7565 16.3188 91.7671 16.3317C91.7887 16.3598 91.8086 16.3883 91.8276 16.4171C91.8343 16.4278 91.8423 16.4385 91.8479 16.4491L91.8543 16.4574C91.8559 16.46 91.8565 16.4624 91.8584 16.4651C91.8674 16.4826 91.8761 16.5006 91.8864 16.5186C91.8963 16.5398 91.909 16.5609 91.9188 16.5827C91.9301 16.6083 91.9391 16.6342 91.9485 16.6603C91.9565 16.6805 91.9652 16.7006 91.971 16.7208C91.9803 16.752 91.9854 16.7835 91.9916 16.8155C91.9948 16.8318 91.9992 16.8476 92.0021 16.864C92.0076 16.9123 92.0111 16.9614 92.0111 17.0114ZM70.8173 17.2143L70.8687 17.2134L70.9757 17.2112L71.1188 17.2081L71.2021 17.2064L71.411 17.2033H71.4142C71.683 17.1992 71.9682 17.1961 72.2736 17.1912C72.3457 17.1902 72.4183 17.1884 72.4926 17.1873L72.5375 17.1866C72.6382 17.1846 72.7427 17.1827 72.8497 17.1803V16.9923C72.8497 16.9565 72.8472 16.9206 72.8449 16.8851V16.8642C72.8424 16.8384 72.8397 16.8133 72.8382 16.7879C72.835 16.7633 72.8324 16.7386 72.8298 16.7142C72.8267 16.6902 72.8229 16.6662 72.8185 16.6423C72.8179 16.6383 72.8179 16.6352 72.8167 16.6318C72.8128 16.6098 72.8092 16.5883 72.8035 16.5664C72.7996 16.5436 72.7938 16.5201 72.7884 16.4978L72.7684 16.423C72.7617 16.4 72.7545 16.3771 72.7466 16.3543C72.7398 16.3304 72.7315 16.3058 72.7234 16.2815C72.7151 16.2589 72.7051 16.2363 72.697 16.2137C72.6963 16.2124 72.6963 16.2111 72.6951 16.2093C72.687 16.1865 72.6758 16.1638 72.6662 16.1411C72.6568 16.119 72.6462 16.0973 72.6359 16.0756C72.6261 16.0552 72.6159 16.0348 72.6054 16.0146C72.6031 16.0124 72.6015 16.01 72.6009 16.0074C72.5896 15.9854 72.5784 15.9633 72.5659 15.9418C72.5549 15.9212 72.5427 15.9008 72.5305 15.8804L72.5267 15.8749C72.5138 15.8528 72.4999 15.831 72.4864 15.8096C72.4784 15.7968 72.4694 15.7854 72.4613 15.7731C72.4585 15.7679 72.4546 15.7624 72.4514 15.7574C72.4128 15.7004 72.3718 15.6442 72.3286 15.5889C72.3286 15.5883 72.3286 15.588 72.3273 15.5878C72.2844 15.5327 72.2377 15.4787 72.1874 15.4266C72.1801 15.4172 72.1711 15.4086 72.163 15.3998L72.1527 15.3889C72.1081 15.3419 72.0613 15.296 72.0122 15.2512L71.9946 15.2327C71.9391 15.1833 71.8821 15.1346 71.8239 15.0867C71.81 15.0764 71.7964 15.066 71.7831 15.0555C71.7303 15.0145 71.6769 14.9744 71.621 14.9353L71.6078 14.9265C71.5388 14.8781 71.4672 14.8314 71.393 14.7866C71.3782 14.7782 71.3634 14.7697 71.3487 14.7612C71.2889 14.7261 71.2291 14.6923 71.1677 14.6592C71.1558 14.6535 71.1464 14.6474 71.1342 14.6417C71.1323 14.6408 71.1313 14.6397 71.1281 14.639C71.0419 14.5953 70.9537 14.5528 70.8638 14.5125C70.797 14.483 70.7289 14.4547 70.6597 14.4278C70.6439 14.4217 70.6269 14.4151 70.6121 14.409C70.5318 14.3785 70.4495 14.35 70.3662 14.3228L70.335 14.3131C70.3318 14.3125 70.3292 14.3114 70.3276 14.3109C70.2723 14.2938 70.2157 14.2778 70.1598 14.2618C70.1414 14.257 70.1248 14.2511 70.1071 14.2462C70.0871 14.2412 70.0676 14.2355 70.0479 14.2307C69.9615 14.2081 69.874 14.1876 69.7856 14.169L69.7788 14.1677C69.7695 14.1655 69.7595 14.164 69.7496 14.162C69.671 14.1461 69.5918 14.1319 69.512 14.1193C69.4895 14.1155 69.4663 14.1122 69.4451 14.1083C69.358 14.0954 69.2705 14.0843 69.1825 14.0749C69.1773 14.0747 69.1725 14.0736 69.1686 14.0732C69.1606 14.0727 69.1527 14.0719 69.1448 14.071C69.1249 14.0688 69.1034 14.0679 69.0838 14.0664C69.0178 14.0609 68.9523 14.055 68.8854 14.051H68.8844L68.8108 14.0471C68.715 14.0423 68.6189 14.0398 68.5227 14.0396C68.4835 14.0396 68.4449 14.041 68.4064 14.0418H68.4044C68.371 14.0423 68.3385 14.0425 68.3057 14.0434L68.2983 14.0436C68.2614 14.0451 68.2248 14.0478 68.189 14.0493L68.1842 14.0495C68.1495 14.051 68.1144 14.0526 68.0804 14.055C68.045 14.0576 68.0093 14.0611 67.9746 14.0642L67.9681 14.0649C67.9341 14.0679 67.899 14.0701 67.865 14.0736C67.8431 14.0763 67.8203 14.0789 67.7985 14.082C67.7841 14.0838 67.7698 14.0854 67.7553 14.0868L67.7399 14.0885C67.7116 14.0923 67.6827 14.0951 67.6541 14.0989L67.6534 14.0995C67.6145 14.1048 67.5766 14.1114 67.539 14.1177C67.5371 14.1177 67.5348 14.1184 67.5322 14.1188C67.5039 14.1234 67.475 14.1276 67.446 14.1324C67.4145 14.1377 67.384 14.1445 67.3529 14.1506C67.3431 14.1523 67.3335 14.1541 67.3239 14.1561C67.2972 14.1611 67.2696 14.1662 67.2432 14.1715L67.2422 14.1719L67.2246 14.1758L67.1509 14.1929C67.1377 14.196 67.1252 14.1986 67.1127 14.2022C67.0892 14.2074 67.0657 14.2122 67.0426 14.2182H67.0416C67.0333 14.2199 67.0239 14.223 67.0153 14.2252C66.9889 14.2318 66.9638 14.239 66.9374 14.2465C66.9249 14.2497 66.9134 14.2526 66.9014 14.2561C66.8837 14.2606 66.8661 14.2653 66.8487 14.2704H66.8474L66.8448 14.2715C66.8086 14.2824 66.7709 14.2943 66.7333 14.3061C66.7201 14.3105 66.707 14.3138 66.6938 14.318C66.6822 14.3219 66.67 14.3252 66.6587 14.3296H66.6574C66.6124 14.3441 66.5684 14.3607 66.524 14.3765C66.516 14.3798 66.5054 14.3829 66.4967 14.3862C66.49 14.389 66.4806 14.3912 66.4732 14.3947L66.4719 14.3949C66.4395 14.4072 66.4073 14.4206 66.3735 14.4335C66.371 14.4344 66.3703 14.4351 66.3681 14.4355C66.344 14.4447 66.3208 14.4542 66.297 14.4638C66.2955 14.4641 66.294 14.4646 66.2929 14.4653C66.2926 14.4656 66.2919 14.4662 66.2912 14.4662C66.289 14.4667 66.289 14.4671 66.2877 14.4675C66.2366 14.4888 66.1871 14.511 66.1366 14.5335C66.1074 14.5467 66.0803 14.5603 66.052 14.5739C66.0173 14.591 65.981 14.6075 65.9472 14.6252L65.8861 14.6581C65.8524 14.6763 65.817 14.6947 65.784 14.7134C65.7624 14.7259 65.7408 14.7384 65.7203 14.7513L65.6267 14.8068C65.6093 14.8176 65.5932 14.8287 65.5763 14.8401C65.5422 14.8619 65.5081 14.8833 65.4756 14.9064L65.4373 14.9338C65.4026 14.9588 65.367 14.9836 65.3338 15.009C65.2817 15.0487 65.2309 15.0893 65.1818 15.1307C65.1641 15.1455 65.1476 15.1612 65.1313 15.1761C65.0978 15.2044 65.0667 15.2332 65.0355 15.2624C65.0303 15.2667 65.0265 15.2717 65.021 15.2761C65.0078 15.2895 64.994 15.3025 64.9815 15.3161C64.9432 15.3535 64.9065 15.3917 64.8712 15.4305C64.8642 15.4389 64.8561 15.4468 64.8487 15.4551C64.8227 15.4843 64.7989 15.5144 64.7741 15.5444C64.7667 15.5532 64.759 15.5619 64.7523 15.5711C64.7455 15.5797 64.7365 15.5885 64.7304 15.5974C64.6925 15.6461 64.6568 15.6955 64.6233 15.7455C64.6204 15.7479 64.6194 15.7501 64.6175 15.7525C64.6108 15.7648 64.6025 15.7769 64.5947 15.7889C64.571 15.8262 64.5475 15.8635 64.5246 15.9016C64.5166 15.917 64.507 15.9335 64.4986 15.9488C64.4977 15.9506 64.4967 15.9516 64.4967 15.953C64.4756 15.9917 64.4554 16.0307 64.4362 16.0699C64.4295 16.0848 64.4224 16.0995 64.4157 16.115C64.3932 16.1648 64.371 16.2151 64.3529 16.2659C64.3526 16.2697 64.3504 16.2734 64.3487 16.2771L64.3482 16.2787C64.2636 16.512 64.2208 16.7517 64.2208 16.9921V21.6947L64.2215 21.7175C64.2221 21.7677 64.2246 21.8184 64.2285 21.8675C64.2292 21.8894 64.2337 21.9101 64.2359 21.932C64.2398 21.9689 64.2439 22.0061 64.251 22.043C64.2549 22.0645 64.2581 22.0862 64.263 22.1083C64.27 22.147 64.28 22.1853 64.2899 22.2232C64.2945 22.2408 64.2977 22.2588 64.3038 22.2768C64.3201 22.332 64.3372 22.386 64.3578 22.4393C64.3616 22.4494 64.3661 22.4584 64.369 22.4687C64.4092 22.5687 64.4567 22.6672 64.5114 22.7639C64.5207 22.7803 64.531 22.7961 64.5395 22.8139C64.5652 22.8551 64.5908 22.8957 64.6179 22.9365C64.6253 22.9468 64.6314 22.9568 64.6382 22.967C64.6732 23.0172 64.7105 23.067 64.75 23.1165C64.7519 23.1198 64.7552 23.1229 64.7574 23.126C64.7613 23.1305 64.7648 23.1354 64.7696 23.14C64.8046 23.1827 64.8422 23.2262 64.8815 23.2683C64.9314 23.3226 64.9838 23.3758 65.0387 23.4278C65.0477 23.4367 65.0574 23.4466 65.0673 23.4547C65.1293 23.5133 65.1954 23.5698 65.2653 23.624C65.3075 23.6567 65.3502 23.6901 65.3936 23.7214C65.4123 23.7348 65.4287 23.7471 65.448 23.7607C65.5069 23.802 65.5674 23.8422 65.6296 23.8813C65.69 23.9195 65.7537 23.9561 65.8187 23.9918C65.8383 24.0034 65.8588 24.0138 65.8791 24.0254C65.9279 24.05 65.9778 24.0756 66.0273 24.1009C66.1264 24.1494 66.2284 24.1951 66.333 24.2379C66.3945 24.2625 66.4571 24.287 66.5201 24.3092C66.544 24.3178 66.5677 24.3263 66.5922 24.3344C66.6507 24.355 66.7072 24.3732 66.7674 24.3919C66.7873 24.3969 66.8076 24.4044 66.8279 24.4105C66.905 24.4331 66.9828 24.4539 67.0632 24.4741C67.0815 24.4785 67.1008 24.4829 67.1198 24.4866C67.1831 24.5018 67.2471 24.5167 67.312 24.5294C67.338 24.534 67.3631 24.5395 67.3891 24.5434C67.4589 24.557 67.529 24.5686 67.5994 24.5789L67.6441 24.586C67.7296 24.5982 67.8148 24.6081 67.9016 24.6167C67.9248 24.6198 67.9479 24.6213 67.9724 24.6224C68.0654 24.6305 68.1588 24.6369 68.2524 24.6416C68.3404 24.645 68.4308 24.6478 68.5221 24.6478C68.5922 24.6478 68.6616 24.6463 68.7311 24.6434L68.7989 24.6401C68.8458 24.6382 68.8918 24.6366 68.9381 24.6331C68.9651 24.6311 68.9915 24.6287 69.0185 24.627C69.0596 24.623 69.1014 24.6206 69.1426 24.616C69.1715 24.6132 69.1998 24.6099 69.2281 24.6062C69.267 24.602 69.3059 24.5976 69.3442 24.5928L69.4313 24.5798L69.5438 24.5627C69.5727 24.5577 69.6017 24.552 69.63 24.5471L69.7399 24.5265C69.7692 24.521 69.7965 24.5142 69.8248 24.5081C69.8608 24.5006 69.8966 24.4925 69.9322 24.484C69.9608 24.4776 69.9884 24.4704 70.0167 24.4632C70.0512 24.4546 70.0865 24.4454 70.1202 24.4364C70.1485 24.4289 70.1756 24.421 70.2032 24.4129C70.2366 24.403 70.2711 24.3932 70.3051 24.3824L70.3849 24.3572L70.4851 24.3234C70.5115 24.314 70.5359 24.3046 70.562 24.2956C70.5951 24.2831 70.6276 24.2717 70.6603 24.2583L70.7353 24.2283C70.7678 24.2147 70.7993 24.2019 70.8311 24.1881C70.8552 24.1771 70.879 24.166 70.9044 24.1559C70.9362 24.1423 70.9661 24.1274 70.9969 24.1127C71.0194 24.1015 71.0443 24.0905 71.067 24.0791C71.0978 24.0641 71.128 24.0487 71.1577 24.0329C71.1802 24.0206 71.2031 24.01 71.2243 23.9973C71.2548 23.9811 71.2847 23.9646 71.3133 23.9473C71.3343 23.9348 71.3548 23.9234 71.3756 23.9109C71.4056 23.8934 71.4345 23.8754 71.4628 23.857C71.4828 23.844 71.5024 23.8324 71.5226 23.8192C71.5512 23.8006 71.5789 23.7813 71.6072 23.762C71.6261 23.7488 71.6448 23.7368 71.6631 23.7234C71.6908 23.7035 71.7184 23.6824 71.7454 23.6624C71.7631 23.6488 71.7798 23.6367 71.7962 23.6238C71.8245 23.6015 71.8515 23.5798 71.8779 23.5576C71.893 23.5444 71.91 23.5326 71.9235 23.5192C71.9521 23.4957 71.9791 23.4703 72.0068 23.4455C72.0187 23.4342 72.031 23.4232 72.0438 23.4124C72.0736 23.3843 72.1019 23.3552 72.1309 23.3264C72.1389 23.3174 72.1479 23.3093 72.1559 23.3003C72.192 23.2635 72.227 23.2253 72.2604 23.1867L72.2617 23.1854C72.3363 23.0994 72.404 23.0108 72.4649 22.92C72.4887 22.886 72.5116 22.8514 72.5328 22.8161C72.5395 22.804 72.5456 22.7928 72.553 22.781C72.5713 22.7501 72.5887 22.72 72.6051 22.6889L72.6263 22.6461C72.6401 22.6169 72.6559 22.5873 72.6691 22.5579L72.6893 22.5112C72.7015 22.4825 72.7125 22.4533 72.7234 22.4244C72.7302 22.4077 72.7353 22.391 72.741 22.3742C72.7517 22.3454 72.761 22.3169 72.771 22.2881C72.7755 22.2708 72.78 22.2535 72.7852 22.2358C72.7928 22.207 72.7999 22.1787 72.807 22.1492L72.8176 22.0963C72.8218 22.0772 72.8243 22.0579 72.8282 22.039C72.8289 22.0314 72.8307 22.0234 72.8314 22.0162C72.8382 21.9737 72.8427 21.9314 72.8472 21.889C72.8491 21.8794 72.8504 21.8698 72.851 21.8601C72.851 21.8546 72.8536 21.8487 72.8536 21.843C72.8038 21.843 72.4045 21.8294 71.8569 21.8052C71.6747 21.7969 71.4757 21.7886 71.2686 21.7782C71.0758 21.7693 70.8761 21.7587 70.6745 21.7487C70.6732 21.7811 70.6681 21.8131 70.6645 21.8447C70.662 21.8612 70.662 21.8783 70.6588 21.895C70.6405 21.9921 70.6071 22.0877 70.5591 22.18C70.2681 22.7474 69.4593 23.1411 68.5234 23.1411C68.4591 23.1411 68.3958 23.1385 68.3328 23.1348L68.2864 23.1317C68.2247 23.1273 68.1634 23.121 68.1025 23.1131L68.09 23.1109C68.0335 23.1031 67.9776 23.0934 67.9225 23.0819L67.8852 23.0751C67.8843 23.0749 67.8833 23.0749 67.8813 23.074C67.8241 23.0615 67.7674 23.0476 67.7116 23.0323L67.693 23.0268C67.6425 23.0123 67.593 22.9962 67.5444 22.9788C67.5335 22.9744 67.5207 22.9707 67.509 22.9663C67.4574 22.9465 67.4067 22.9255 67.357 22.9034C67.3496 22.9005 67.3432 22.897 67.3368 22.8939C67.2828 22.8688 67.2307 22.8418 67.1809 22.813C67.1341 22.7875 67.0897 22.7603 67.0477 22.7312C67.041 22.7266 67.0346 22.7226 67.0284 22.7181C66.99 22.6916 66.9533 22.6639 66.9185 22.6352C66.9117 22.6303 66.9056 22.6248 66.8989 22.6198C66.8609 22.5876 66.8247 22.5543 66.7905 22.5202C66.7847 22.5154 66.7803 22.5088 66.7741 22.5033L66.7339 22.4618L66.732 22.4593C66.7175 22.4432 66.7043 22.4259 66.6906 22.409L66.6742 22.3886C66.6456 22.3512 66.6191 22.3131 66.5948 22.2744C66.5906 22.2673 66.5873 22.2605 66.5831 22.2529C66.5577 22.2103 66.5353 22.1669 66.5163 22.1228C66.4984 22.0808 66.4828 22.0382 66.4693 21.9954C66.4681 21.991 66.4681 21.987 66.4668 21.9831C66.4554 21.9425 66.4464 21.9016 66.4397 21.8605C66.4392 21.8506 66.4366 21.841 66.4359 21.8309C66.4295 21.7846 66.4264 21.7381 66.4266 21.6916V16.9925C66.427 16.7801 66.4953 16.5704 66.6268 16.3779C66.7584 16.1855 66.95 16.0149 67.1882 15.8782C67.3985 15.7566 67.6424 15.6651 67.9055 15.6089C68.1686 15.5528 68.4455 15.5331 68.7198 15.5512C68.7398 15.5525 68.7584 15.5542 68.7787 15.5558C68.8256 15.56 68.8715 15.5646 68.9189 15.5703C68.9391 15.5729 68.959 15.5751 68.9792 15.5781C69.0333 15.5863 69.086 15.5952 69.1387 15.6062C69.1468 15.6082 69.1573 15.6095 69.1664 15.6108C69.3537 15.6519 69.5323 15.7097 69.6975 15.7826C69.7087 15.7876 69.72 15.7922 69.7316 15.7977C69.7823 15.8211 69.8322 15.8466 69.8807 15.8731C69.8923 15.8795 69.9036 15.8867 69.9151 15.8938C70.0018 15.9441 70.0827 15.9989 70.1572 16.0576L70.1897 16.0821C70.2286 16.1148 70.2665 16.1486 70.3019 16.1831C70.3083 16.1892 70.3134 16.196 70.3195 16.2023C70.3485 16.2315 70.3755 16.2614 70.4013 16.2916C70.4103 16.303 70.4196 16.3144 70.4282 16.326C70.4507 16.3541 70.471 16.3824 70.4887 16.4109C70.4954 16.4221 70.5041 16.4326 70.5105 16.4432C70.5141 16.4487 70.5173 16.4543 70.5202 16.46C70.523 16.4627 70.5237 16.4649 70.5257 16.4675C70.535 16.4851 70.5443 16.5028 70.552 16.5208C70.561 16.539 70.5723 16.5569 70.5816 16.5756C70.5922 16.6015 70.6019 16.6283 70.6115 16.6548C70.6183 16.6734 70.6269 16.6916 70.6314 16.7105C70.6407 16.7399 70.6471 16.7704 70.6517 16.8006C70.6562 16.8167 70.661 16.8326 70.6636 16.8491C70.6703 16.8965 70.6735 16.9441 70.6735 16.9919V17.2175C70.7189 17.2169 70.7684 17.2154 70.8173 17.2143ZM61.2669 17.1072C61.2656 17.0785 61.2656 17.0502 61.2637 17.0217C61.262 17.0017 61.2599 16.9816 61.2576 16.9616L61.2518 16.905L61.249 16.8779C61.246 16.8557 61.2422 16.834 61.2393 16.812V16.8105C61.2344 16.7846 61.2306 16.7585 61.2255 16.7328V16.7322C61.2209 16.7123 61.2168 16.6923 61.2116 16.6728C61.2116 16.671 61.2116 16.6697 61.2109 16.6684C61.2078 16.6531 61.2043 16.6378 61.2004 16.6225C61.1972 16.6111 61.1952 16.5998 61.1926 16.5881C61.1926 16.5881 61.192 16.5879 61.192 16.5874C61.1875 16.5695 61.1821 16.5522 61.1772 16.5344L61.174 16.5258C61.1711 16.5144 61.1672 16.5028 61.164 16.4916C61.1586 16.4761 61.155 16.4607 61.1493 16.4451V16.444C61.1425 16.4243 61.1351 16.4043 61.1287 16.3844L61.1122 16.3422C61.1068 16.3293 61.1036 16.3166 61.0985 16.3039C61.0972 16.3037 61.0972 16.3032 61.0972 16.303L61.076 16.2515C61.0746 16.249 61.0746 16.2468 61.0734 16.2446C61.066 16.228 61.0577 16.2109 61.0509 16.1944C61.0451 16.1843 61.0413 16.1741 61.037 16.1644C61.0277 16.1451 61.0187 16.1256 61.0088 16.1065L60.9679 16.0286C60.9576 16.0097 60.9473 15.9909 60.9361 15.9718C60.9355 15.9716 60.9348 15.9709 60.9348 15.9701C60.9229 15.9503 60.9107 15.9297 60.8982 15.9098C60.8959 15.9054 60.8927 15.9016 60.8914 15.8977C60.8782 15.8767 60.8654 15.8558 60.8513 15.8348C60.8461 15.8269 60.8406 15.8194 60.8349 15.8115L60.8217 15.7913C60.7901 15.7456 60.7569 15.7004 60.722 15.6558L60.702 15.629C60.6985 15.6244 60.6953 15.6205 60.6924 15.6161C60.6492 15.5615 60.6035 15.5078 60.5554 15.4551C60.5487 15.4476 60.541 15.4404 60.5336 15.433C60.492 15.3876 60.4484 15.343 60.4027 15.2994C60.396 15.2931 60.3899 15.2865 60.3825 15.2803L60.3587 15.2582C60.3114 15.2132 60.2618 15.1694 60.2098 15.1268C60.2041 15.1212 60.198 15.1158 60.1915 15.1106C60.1337 15.0637 60.0739 15.018 60.0121 14.9735C59.9532 14.9319 59.8931 14.8905 59.8318 14.8504C59.8237 14.8459 59.8167 14.8408 59.8099 14.8364L59.8089 14.8355C59.791 14.8246 59.7742 14.8136 59.7572 14.8026C59.691 14.762 59.6231 14.7224 59.5537 14.6842L59.5171 14.6656C59.5135 14.6636 59.5096 14.6614 59.5052 14.6596C59.4483 14.6292 59.3901 14.5999 59.3305 14.5719C59.2395 14.5292 59.1467 14.4884 59.0522 14.4493C59.0476 14.4482 59.0444 14.446 59.0405 14.4447L59.028 14.4399C58.8619 14.3743 58.6893 14.3168 58.5114 14.2677C58.505 14.266 58.4995 14.2638 58.4925 14.2625C58.3905 14.2343 58.287 14.2086 58.1822 14.1855C58.1616 14.1809 58.14 14.1769 58.1192 14.1725L58.1182 14.1721C58.097 14.1677 58.0738 14.1642 58.0516 14.1598C57.9998 14.1493 57.9476 14.1396 57.8951 14.1307C57.8913 14.13 57.8874 14.1298 57.8838 14.1289C57.8613 14.1252 57.8388 14.1212 57.8157 14.1177C57.7912 14.1138 57.7652 14.1116 57.7401 14.1074C57.6678 14.0971 57.5974 14.0864 57.5228 14.0789V14.0769H57.5205C57.5148 14.0765 57.5097 14.0763 57.5032 14.0754C57.3915 14.0644 57.2794 14.0559 57.1669 14.0497C57.1582 14.0495 57.1499 14.0489 57.1415 14.0484C57.1093 14.0469 57.0759 14.0467 57.0435 14.0449C56.9847 14.0429 56.9264 14.0403 56.8667 14.0401C56.8454 14.0399 56.8235 14.039 56.8027 14.039H56.7586L56.6914 14.0394C56.4461 14.0452 56.2015 14.0606 55.9587 14.0855L55.9401 14.0872C55.8208 14.0993 55.7002 14.1131 55.5803 14.1289H55.5775L55.5646 14.1309C55.4617 14.1445 55.3585 14.1598 55.2563 14.1756L55.2048 14.1829L55.1865 14.1859C55.0207 14.2121 54.8558 14.241 54.692 14.2726C54.6892 14.2734 54.6863 14.2739 54.6846 14.2747C54.611 14.2886 54.539 14.3033 54.4686 14.3182C54.4657 14.3184 54.4632 14.3191 54.4606 14.3195L54.4481 14.3226C54.3744 14.3377 54.3018 14.3539 54.2314 14.3699C54.222 14.3719 54.2124 14.3745 54.2028 14.3767C54.1786 14.3818 54.1548 14.3879 54.1304 14.3934L54.0956 14.4013C54.0819 14.4046 54.068 14.4079 54.0545 14.4116C54.0234 14.4187 53.9926 14.4261 53.9619 14.434C53.9632 14.4605 53.9658 14.4853 53.9671 14.5103L53.9678 14.5202C53.969 14.5318 53.9696 14.5432 53.9703 14.5544C53.9729 14.5807 53.9748 14.6068 53.9764 14.6322C53.9815 14.6908 53.9851 14.7459 53.9902 14.8004L54.004 14.9669V14.9704C54.0065 14.995 54.0085 15.0195 54.0101 15.0441L54.013 15.0809C54.0134 15.0902 54.0147 15.0992 54.0153 15.1082C54.0166 15.1233 54.0179 15.1393 54.0185 15.1555C54.0191 15.1617 54.0198 15.1673 54.0198 15.1738L54.0246 15.2365C54.0259 15.249 54.0265 15.2617 54.0275 15.2744C54.0282 15.2869 54.0294 15.2987 54.0298 15.3117C54.0308 15.3236 54.0311 15.3354 54.0323 15.3475L54.0349 15.3887C54.0359 15.4016 54.0362 15.4141 54.0375 15.4275L54.0404 15.4749C54.041 15.4869 54.042 15.499 54.0423 15.5115C54.0442 15.5402 54.0455 15.57 54.0472 15.601L54.1831 15.595C54.2204 15.5935 54.258 15.5915 54.2969 15.5905C54.357 15.5871 54.4168 15.5852 54.4776 15.5819L54.7029 15.5707L54.8261 15.565L55.5929 15.5255C55.6283 15.524 55.6636 15.5218 55.6983 15.5205L55.9533 15.5078C56.0114 15.5049 56.0671 15.5027 56.1243 15.5001C56.188 15.497 56.2513 15.4944 56.3131 15.492C56.3864 15.4885 56.4561 15.4863 56.5271 15.4836C56.5728 15.4821 56.6187 15.4797 56.6634 15.4786C56.7776 15.4749 56.8894 15.4715 56.9974 15.4694H56.9695C57.0797 15.4613 57.1905 15.4572 57.3013 15.4571C57.3749 15.4571 57.4443 15.4595 57.5125 15.4632C57.5302 15.4643 57.5466 15.4652 57.5646 15.4669C57.6306 15.4713 57.6963 15.4777 57.7613 15.4863C57.8218 15.4946 57.8806 15.5051 57.9375 15.5172C57.9529 15.5207 57.9675 15.5234 57.9819 15.5268C58.0366 15.5393 58.0892 15.5525 58.1395 15.5681C58.142 15.5685 58.1439 15.5694 58.1461 15.57C58.1967 15.5856 58.2443 15.6036 58.2902 15.6225L58.3275 15.6378C58.3716 15.6567 58.4136 15.6766 58.4535 15.6981L58.4603 15.7018C58.5014 15.7244 58.5384 15.7481 58.5751 15.7727C58.5854 15.7801 58.5953 15.7867 58.6049 15.7944C58.6416 15.8209 58.6767 15.8485 58.7097 15.8771C58.7403 15.9045 58.7683 15.9336 58.7969 15.9637C58.804 15.9725 58.812 15.9813 58.8197 15.9902C58.8435 16.0187 58.867 16.0484 58.8885 16.0782C58.8917 16.0826 58.8946 16.0861 58.8969 16.0902C58.9133 16.1141 58.9293 16.1394 58.9438 16.1642L58.9451 16.1668C58.9467 16.1707 58.9483 16.1747 58.9509 16.1793C59.0049 16.2754 59.0457 16.3782 59.0724 16.4859C59.0772 16.5022 59.0801 16.5179 59.084 16.5348C59.0927 16.5752 59.0994 16.6162 59.1052 16.6579C59.1072 16.6743 59.1104 16.6908 59.1119 16.7081C59.1184 16.7649 59.1213 16.8223 59.1213 16.8811V18.0656C59.0936 18.0606 59.066 18.0553 59.0386 18.0497C59.0207 18.0463 59.0039 18.0435 58.986 18.0395L58.9589 18.035C58.9483 18.033 58.9377 18.0308 58.9258 18.029L58.9239 18.0288C58.9102 18.0261 58.8963 18.0236 58.8824 18.0214C58.8673 18.0185 58.8525 18.0165 58.8374 18.0139C58.8321 18.013 58.8269 18.0119 58.8216 18.0108C58.8059 18.0082 58.7895 18.0062 58.775 18.0029L58.7625 18.0009C58.7465 17.9985 58.7305 17.9958 58.7146 17.9931C58.6983 17.9909 58.6823 17.9884 58.6664 17.9854C58.6471 17.9826 58.6278 17.9797 58.6085 17.9766H58.6076C58.5902 17.974 58.5731 17.972 58.5551 17.9692C58.5365 17.967 58.5188 17.9645 58.4995 17.9619C58.4799 17.9591 58.4613 17.9567 58.441 17.954C58.423 17.9514 58.4053 17.9496 58.3877 17.9474L58.3233 17.94C58.3071 17.9381 58.2908 17.9363 58.2744 17.9347L58.2487 17.9323C58.233 17.9307 58.2175 17.929 58.2018 17.9273C58.187 17.9262 58.1724 17.9248 58.1578 17.9233L58.1568 17.9231L58.1456 17.9224C58.1218 17.9199 58.0981 17.9178 58.0742 17.9161L58.0372 17.9132L58.0015 17.9106C57.9819 17.9089 57.9629 17.9069 57.9421 17.906L57.9147 17.9042C57.8774 17.9018 57.8395 17.8995 57.8022 17.8974C57.7993 17.8974 57.7961 17.8974 57.7931 17.8968H57.7922C57.7376 17.8933 57.68 17.8915 57.6221 17.8893C57.5991 17.8886 57.576 17.8878 57.553 17.8867L57.5495 17.8865C57.5116 17.8853 57.4707 17.8838 57.4299 17.8832L57.4264 17.883C57.4068 17.8828 57.3888 17.8814 57.3685 17.8814C57.3231 17.8806 57.2778 17.8798 57.2325 17.879L57.1907 17.8788H57.1846L57.1779 17.8786H57.154C57.1454 17.8781 57.1357 17.8781 57.1267 17.8781C57.0853 17.8779 57.0438 17.8778 57.0023 17.8777H56.9959C56.9701 17.8777 56.9444 17.8786 56.9187 17.8788C56.8689 17.879 56.8184 17.8797 56.7682 17.881H56.7657C56.7585 17.8809 56.7513 17.8811 56.7441 17.8814C56.7165 17.8819 56.6895 17.8836 56.6625 17.8852H56.6605L56.5387 17.8897C56.5252 17.8904 56.511 17.8918 56.4973 17.8926C56.4754 17.8933 56.4532 17.8957 56.4316 17.8968C56.4098 17.8983 56.3876 17.9003 56.3648 17.9014C56.3485 17.9029 56.3323 17.9042 56.3159 17.9053L56.2403 17.9123L56.2108 17.9145C56.187 17.9167 56.1626 17.9196 56.1381 17.9224C56.125 17.924 56.1111 17.9248 56.0979 17.9268H56.0969L55.9967 17.9382C55.9767 17.9411 55.9571 17.944 55.9372 17.9463C55.9183 17.9496 55.8993 17.9516 55.8806 17.9543C55.879 17.9547 55.878 17.9547 55.8761 17.9547C55.8462 17.9591 55.8167 17.963 55.7883 17.9679C55.7603 17.9723 55.7327 17.9775 55.7053 17.9816C55.689 17.9849 55.6725 17.9878 55.6559 17.9904L55.6513 17.9913C55.616 17.9972 55.5808 18.0038 55.546 18.0111C55.4961 18.0207 55.4459 18.0308 55.397 18.0417C55.3701 18.0475 55.345 18.0547 55.3186 18.0604C55.3173 18.0604 55.3157 18.0611 55.3141 18.0612C55.2788 18.0696 55.2421 18.0784 55.2067 18.0872L55.2055 18.0878C55.178 18.0945 55.1508 18.1018 55.1241 18.1097C55.1238 18.1097 55.1229 18.1097 55.1222 18.1104C55.0884 18.1196 55.0544 18.1286 55.021 18.1389L54.9425 18.1626L54.9406 18.1633C54.9399 18.1633 54.9393 18.1633 54.9389 18.1637L54.8984 18.1766L54.8425 18.1948C54.8413 18.195 54.8401 18.1953 54.839 18.1957C54.8145 18.2045 54.7898 18.2124 54.7647 18.2214L54.7637 18.2216L54.7152 18.2396L54.666 18.2576C54.6644 18.258 54.6631 18.2588 54.6612 18.2593C54.6396 18.2676 54.6174 18.2758 54.5966 18.2843H54.5952L54.5072 18.3209C54.4991 18.3249 54.4898 18.3282 54.4818 18.3319C54.4654 18.338 54.4495 18.3446 54.4342 18.3519C54.3818 18.3747 54.3306 18.3986 54.2805 18.4232H54.2796C54.2638 18.4306 54.2487 18.4391 54.2329 18.4468C54.231 18.4477 54.2291 18.4486 54.2268 18.4501C54.194 18.4666 54.1625 18.4828 54.1307 18.5003C54.1301 18.501 54.1294 18.501 54.1288 18.5015C54.1105 18.5113 54.0931 18.5216 54.0748 18.5315L54.0716 18.5337C54.0426 18.5499 54.015 18.5661 53.9867 18.5828C53.9854 18.5835 53.9851 18.5844 53.9837 18.5848C53.9661 18.5951 53.949 18.6065 53.9317 18.617C53.903 18.6341 53.8754 18.652 53.8488 18.6705C53.8474 18.6712 53.8465 18.6716 53.8456 18.6727C53.8291 18.6835 53.8124 18.6942 53.797 18.7056L53.7941 18.7069L53.724 18.7572C53.7207 18.7594 53.7177 18.7618 53.715 18.7644L53.7099 18.7677L53.6697 18.7973L53.6681 18.7986C53.6369 18.8225 53.607 18.8473 53.5764 18.8716C53.5735 18.8747 53.5697 18.8774 53.5662 18.8802C53.5608 18.8851 53.5551 18.8897 53.5491 18.8942C53.5109 18.9269 53.4739 18.9607 53.4376 18.994L53.436 18.9953L53.4157 19.0155L53.4089 19.0219C53.4043 19.0263 53.3999 19.0308 53.3958 19.0355C53.3742 19.0568 53.3527 19.0767 53.3324 19.0987C53.3321 19.0987 53.3318 19.0993 53.3312 19.0993C53.3206 19.1111 53.3109 19.1221 53.2999 19.1324C53.2987 19.1342 53.2974 19.1355 53.2967 19.137C53.2759 19.1598 53.2547 19.1829 53.2344 19.2061L53.2325 19.2083C53.2225 19.2208 53.2119 19.2331 53.2012 19.2458C53.2003 19.2463 53.2 19.2471 53.1993 19.2482C53.1794 19.2719 53.1605 19.2959 53.1428 19.3204L53.1405 19.3226C53.1308 19.3351 53.1209 19.3476 53.1115 19.3603L53.1103 19.3625L53.1058 19.3691C53.0885 19.3921 53.0722 19.4154 53.0569 19.439C53.0556 19.4397 53.055 19.4419 53.0537 19.4432C53.0466 19.4546 53.0383 19.4658 53.0312 19.4765C53.0102 19.5093 52.9901 19.5424 52.9708 19.5757L52.9669 19.5803L52.9582 19.5945C52.9582 19.5956 52.9582 19.5956 52.9576 19.5965C52.9351 19.6373 52.9129 19.6785 52.8923 19.7202C52.8894 19.7255 52.8872 19.7316 52.8843 19.7369L52.8814 19.7437C52.8753 19.7566 52.8698 19.7693 52.864 19.7827C52.8547 19.8031 52.8444 19.8239 52.8364 19.8445L52.8357 19.8457C52.8303 19.8564 52.8271 19.868 52.8225 19.8792C52.8218 19.8805 52.8212 19.8819 52.821 19.8833C52.8206 19.8838 52.8206 19.8851 52.82 19.8858C52.8132 19.9031 52.8068 19.9218 52.7998 19.9386L52.7871 19.9733L52.7866 19.9741L52.7721 20.018L52.7717 20.02C52.7669 20.034 52.7634 20.0492 52.7585 20.0628L52.7483 20.0956C52.7412 20.1244 52.7331 20.1531 52.7274 20.1814C52.7217 20.2031 52.7166 20.2249 52.7123 20.2468C52.7055 20.2775 52.7004 20.3086 52.6949 20.3391C52.6917 20.3603 52.6882 20.3803 52.6853 20.4012C52.6801 20.4358 52.6776 20.4705 52.674 20.5062C52.6725 20.5233 52.6698 20.5405 52.6686 20.5584C52.6647 20.6113 52.6634 20.6643 52.6634 20.7183V21.6412C52.6634 21.6991 52.666 21.7559 52.6705 21.8125C52.6721 21.8304 52.6747 21.848 52.6772 21.8664C52.6818 21.9061 52.6872 21.9454 52.694 21.9851L52.7049 22.0443C52.7129 22.0829 52.7226 22.1219 52.7329 22.1605C52.7373 22.1778 52.7415 22.1945 52.747 22.2116C52.7624 22.2664 52.7805 22.3207 52.8003 22.3746L52.8059 22.3842C52.8248 22.4345 52.8467 22.4845 52.8695 22.5338C52.8775 22.5509 52.8868 22.5678 52.8952 22.5847C52.9132 22.6206 52.9315 22.6562 52.9518 22.6908C52.9624 22.7093 52.973 22.7277 52.9849 22.7465C53.0052 22.7812 53.028 22.8158 53.0505 22.8496C53.0614 22.8663 53.0717 22.8823 53.0832 22.8987C53.1167 22.9475 53.1528 22.995 53.1907 23.0424C53.1929 23.0448 53.1958 23.0475 53.198 23.0512C53.1997 23.0538 53.2026 23.0558 53.2045 23.0582C53.2415 23.1043 53.2806 23.1481 53.3209 23.1924C53.3356 23.2082 53.3504 23.2244 53.3656 23.24C53.4 23.2756 53.4357 23.3107 53.4723 23.3457C53.4861 23.3593 53.5002 23.3736 53.5151 23.3867C53.5639 23.4323 53.6153 23.4769 53.6687 23.5196C53.6822 23.5315 53.697 23.542 53.7111 23.5534C53.753 23.5863 53.7963 23.619 53.8398 23.6506C53.8594 23.665 53.8789 23.6795 53.8986 23.6929C53.9456 23.7249 53.9928 23.7572 54.041 23.789C54.0555 23.7973 54.0687 23.8067 54.0831 23.8155C54.1626 23.8656 54.2452 23.9133 54.3306 23.9585C54.3799 23.985 54.431 24.0105 54.4815 24.0357C54.5026 24.0465 54.5246 24.0576 54.5461 24.0677C54.6155 24.0997 54.6856 24.132 54.757 24.1622C54.7625 24.1644 54.7657 24.166 54.7696 24.1668C54.8393 24.196 54.9103 24.223 54.9824 24.2485C55.0042 24.257 55.0264 24.2647 55.0489 24.2717C55.1087 24.2927 55.1688 24.3129 55.2296 24.3311C55.2492 24.3371 55.2678 24.3439 55.2875 24.3491C55.3672 24.3724 55.4475 24.3947 55.5292 24.416C55.5424 24.4184 55.5562 24.4213 55.57 24.425C55.6398 24.4412 55.7109 24.4574 55.7816 24.4722C55.8041 24.4767 55.8269 24.4809 55.8497 24.4857C55.9234 24.4996 55.9989 24.5123 56.0748 24.5237C56.0857 24.5259 56.0964 24.5281 56.1079 24.5296C56.196 24.5425 56.2847 24.5526 56.3747 24.5616C56.3934 24.5632 56.4111 24.5651 56.4297 24.5662C56.5034 24.573 56.5773 24.5785 56.6519 24.582C56.6725 24.5835 56.6947 24.5844 56.7155 24.586C57.6871 24.6302 58.6511 24.4432 59.4431 24.0568C59.9884 23.7916 60.4366 23.4442 60.7528 23.0415C61.0904 22.6101 61.2666 22.1285 61.2659 21.6394V17.1623C61.2683 17.1434 61.2669 17.1256 61.2669 17.1072ZM55.1798 22.4033C55.1653 22.3871 55.1531 22.3708 55.1395 22.3542C55.1328 22.3461 55.1258 22.338 55.1193 22.3292C55.0912 22.2924 55.0652 22.2548 55.0415 22.2167C55.0357 22.2081 55.0318 22.1996 55.0267 22.191C55.0083 22.1591 54.9915 22.1268 54.9766 22.0941C54.9711 22.0829 54.966 22.0721 54.9605 22.0621C54.9432 22.0216 54.9283 21.9807 54.9158 21.9395C54.9132 21.9314 54.912 21.9239 54.9094 21.9153C54.8997 21.8806 54.8921 21.8455 54.8866 21.8103L54.8801 21.7701C54.8749 21.7295 54.8721 21.6886 54.8717 21.6477L54.8711 21.6388V20.5468C54.8697 20.3563 54.9233 20.1674 55.0292 19.9911C55.1351 19.8148 55.291 19.6545 55.4881 19.5195C55.6859 19.3849 55.9209 19.2784 56.1794 19.206C56.4379 19.1336 56.7149 19.097 56.9943 19.098H59.1174V21.6381C59.1174 21.8065 59.074 21.9684 58.9994 22.1187C58.7364 22.6463 58.0533 23.0385 57.2132 23.097C57.1403 23.1023 57.0669 23.105 56.9936 23.1049C56.913 23.1046 56.8325 23.1011 56.7525 23.0946C56.6897 23.0902 56.6273 23.0838 56.5654 23.0753L56.5503 23.0724C56.4931 23.0641 56.4365 23.0538 56.3808 23.0415C56.3773 23.0415 56.3738 23.041 56.3705 23.04L56.3394 23.0332C56.2737 23.0189 56.2091 23.0024 56.1458 22.9836C56.0955 22.9688 56.0462 22.9522 55.9982 22.9341C55.9864 22.9295 55.9738 22.926 55.9626 22.9207C55.91 22.9007 55.8586 22.8791 55.8086 22.8562C55.8006 22.8516 55.7928 22.8485 55.7845 22.844C55.7407 22.8233 55.6982 22.8014 55.6572 22.7784C55.6479 22.7726 55.6372 22.7672 55.6279 22.7617C55.582 22.7353 55.538 22.7074 55.4961 22.6781C55.4884 22.6735 55.4803 22.6667 55.4727 22.661C55.436 22.6355 55.4009 22.6091 55.3675 22.5816C55.3604 22.5757 55.3524 22.5684 55.3453 22.5634C55.3082 22.5314 55.2729 22.4984 55.2396 22.4645C55.2325 22.4566 55.2248 22.4496 55.2174 22.4415C55.2055 22.4285 55.1926 22.4161 55.1813 22.4024C55.1804 22.4042 55.1804 22.4037 55.1798 22.4033ZM49.9629 17.1038C49.9625 17.0555 49.9603 17.0077 49.9568 16.9596L49.9564 16.9581C49.9551 16.9397 49.9526 16.9213 49.9507 16.9026L49.95 16.8969C49.9468 16.8629 49.9427 16.8289 49.9378 16.7949C49.9375 16.7943 49.9368 16.7934 49.9368 16.7925C49.9339 16.7715 49.93 16.7508 49.9265 16.7294C49.9265 16.7279 49.9262 16.7265 49.9259 16.7252C49.9197 16.6934 49.9143 16.6622 49.9063 16.6306L49.906 16.6283L49.904 16.6201C49.8992 16.601 49.895 16.5815 49.8896 16.5625V16.5605C49.8812 16.5295 49.8724 16.4986 49.8632 16.4677C49.8632 16.4666 49.8632 16.4659 49.8625 16.4653C49.8581 16.4515 49.8542 16.4374 49.8494 16.4239L49.8426 16.4012C49.8416 16.401 49.8416 16.4004 49.8413 16.3997C49.8301 16.367 49.8191 16.3341 49.8059 16.3017L49.8044 16.2971C49.7976 16.2795 49.7912 16.2615 49.7841 16.2442C49.7841 16.2436 49.7841 16.2434 49.7834 16.2429C49.7641 16.196 49.7433 16.149 49.7211 16.1028L49.7201 16.1004C49.7162 16.0927 49.7124 16.0848 49.7079 16.0769C49.6891 16.039 49.6687 16.001 49.6475 15.9637C49.6427 15.956 49.6391 15.9475 49.6346 15.9396C49.6285 15.9304 49.6234 15.9212 49.6175 15.9119C49.6127 15.905 49.6092 15.8979 49.6044 15.8902C49.5843 15.8566 49.5635 15.8231 49.542 15.7898L49.522 15.7611C49.4824 15.7028 49.4406 15.6453 49.3967 15.5885C49.3922 15.5837 49.389 15.5786 49.3848 15.5738C49.3514 15.531 49.3144 15.4893 49.2781 15.4479C49.2691 15.4376 49.2604 15.4268 49.2511 15.4165C49.2481 15.4132 49.2452 15.4102 49.243 15.4071C49.2361 15.4001 49.2294 15.3931 49.2227 15.386C49.2061 15.3674 49.188 15.3498 49.1704 15.3319L49.1495 15.311C49.1446 15.3058 49.1404 15.3009 49.1353 15.2959C49.1238 15.2843 49.1131 15.2729 49.1013 15.2615C49.0876 15.2477 49.0736 15.2341 49.0591 15.2207C49.0076 15.1716 48.9532 15.1234 48.8971 15.0766L48.8958 15.0755C48.8405 15.0294 48.7823 14.9853 48.7238 14.9419C48.7235 14.9417 48.7231 14.9411 48.7219 14.9408C48.7131 14.9341 48.7041 14.9274 48.6948 14.9209L48.673 14.9051C48.623 14.8691 48.5717 14.8339 48.5191 14.7998C48.5065 14.7921 48.4949 14.7833 48.4827 14.7757C48.4184 14.7355 48.3525 14.6965 48.2853 14.6586C48.2695 14.6502 48.2537 14.6418 48.238 14.6333C48.1822 14.603 48.1253 14.5736 48.0676 14.545C48.0496 14.5364 48.0332 14.5278 48.0156 14.5195C47.9431 14.4855 47.8692 14.4528 47.794 14.4217C47.787 14.4184 47.7796 14.4162 47.7732 14.4131C47.704 14.3856 47.6339 14.3592 47.5629 14.334C47.5433 14.3269 47.5236 14.3204 47.5034 14.3136C47.4288 14.2883 47.3531 14.2647 47.2764 14.2425C47.271 14.2414 47.2671 14.2397 47.262 14.2381C47.1792 14.2152 47.0955 14.1941 47.0109 14.1747C47.0028 14.1725 46.9939 14.171 46.9858 14.1693C46.9752 14.1673 46.9652 14.1649 46.9549 14.1631C46.8833 14.1475 46.8109 14.1334 46.7379 14.1208L46.7122 14.1162L46.6878 14.1116C46.5994 14.0971 46.5103 14.0849 46.4206 14.0749L46.3814 14.071C46.282 14.0604 46.1821 14.0526 46.0817 14.0478L46.0651 14.0473C46.0008 14.044 45.9365 14.042 45.8721 14.0412C45.8484 14.0407 45.8252 14.0401 45.8011 14.0401H45.7844H45.7719C45.7062 14.0403 45.6378 14.041 45.5664 14.0423H45.5645L45.5501 14.0427L45.5269 14.0434H45.5124L45.5115 14.0436C45.4426 14.0446 45.3738 14.0466 45.3051 14.0495L45.2919 14.05L45.2793 14.0504H45.2765L45.2745 14.0506C45.1918 14.0534 45.1092 14.057 45.0266 14.0611L45.0227 14.0614L45.0218 14.0616H45.018L44.889 14.0695L45.0163 14.0616C45.0134 14.0616 45.0096 14.0616 45.006 14.062C44.9839 14.0631 44.9619 14.0645 44.9398 14.0662C44.8871 14.069 44.8338 14.0725 44.7807 14.0765H44.7768L44.7694 14.0769C44.7602 14.0776 44.751 14.0782 44.7418 14.0787H44.7395L44.5692 14.0925C44.538 14.0951 44.5074 14.0971 44.4769 14.0995C44.4756 14.1 44.4743 14.1 44.4737 14.1004C44.4705 14.1006 44.4676 14.1006 44.4653 14.101C44.4325 14.1039 44.401 14.1072 44.3692 14.1107C44.3145 14.1157 44.2595 14.121 44.2062 14.1271C44.2055 14.1271 44.2049 14.1278 44.2045 14.1278C44.1814 14.13 44.1589 14.1329 44.1364 14.1359C44.1201 14.1383 44.1037 14.1404 44.0872 14.1423C44.0413 14.1482 43.9956 14.1535 43.9519 14.1598L43.9502 14.16C43.8764 14.1708 43.8028 14.1828 43.7298 14.196H43.7284L43.7146 14.1984C43.7114 14.1991 43.7082 14.1997 43.7049 14.2002H43.704C43.6587 14.2085 43.615 14.2173 43.5732 14.2263L43.5667 14.2276V9.75089H41.3613V24.4785H43.5664V15.6757H45.6625L45.6815 15.6762C45.7413 15.6766 45.7995 15.6788 45.858 15.6823C45.8805 15.6834 45.9034 15.6856 45.9258 15.6872C45.9693 15.6909 46.013 15.695 46.0554 15.7008C46.1276 15.7098 46.1991 15.721 46.2698 15.7345C46.2823 15.7369 46.2952 15.7391 46.3072 15.7418C46.3673 15.7543 46.4242 15.7683 46.4811 15.7841C46.5 15.7889 46.5177 15.7948 46.5367 15.8003C46.5765 15.8124 46.6158 15.8247 46.6544 15.8385C46.6743 15.8448 46.6929 15.8521 46.7122 15.8591C46.7533 15.8745 46.7936 15.8907 46.8327 15.908C46.8459 15.9135 46.8598 15.919 46.8723 15.9247C46.9228 15.9477 46.9723 15.9725 47.0196 15.9979L47.0572 16.0205C47.0922 16.0407 47.1269 16.0611 47.1591 16.0824L47.2035 16.1126C47.236 16.1343 47.2661 16.1572 47.2957 16.1809C47.3067 16.1896 47.3186 16.198 47.3292 16.207C47.368 16.239 47.4051 16.2719 47.4398 16.3061L47.4623 16.3295C47.4886 16.357 47.5143 16.3852 47.5382 16.414L47.5683 16.4513C47.5886 16.4778 47.6079 16.5047 47.6262 16.5326C47.6343 16.5447 47.6426 16.5561 47.65 16.5686C47.6533 16.5732 47.6568 16.578 47.659 16.5827C47.6702 16.6023 47.6805 16.6222 47.6899 16.6423C47.6999 16.6613 47.7105 16.6805 47.7198 16.7002C47.7327 16.7278 47.7417 16.7561 47.7525 16.7846C47.7587 16.8017 47.7657 16.8188 47.7715 16.8364C47.7809 16.8706 47.7882 16.9055 47.794 16.9406C47.7969 16.9531 47.8008 16.9651 47.8024 16.9776C47.8095 17.0261 47.8133 17.0746 47.8133 17.1243V24.4791H49.9632V17.1241C49.9635 17.1173 49.9632 17.1103 49.9629 17.1038ZM38.7678 16.937V16.9351C38.7674 16.8942 38.7656 16.8533 38.7626 16.8125V16.8035C38.7623 16.8001 38.7619 16.7966 38.7614 16.7932C38.7597 16.7741 38.7568 16.7548 38.7549 16.7353L38.7546 16.7342C38.7507 16.7008 38.7478 16.6669 38.7424 16.6344C38.7385 16.6098 38.7337 16.5857 38.7289 16.5618V16.5611C38.7224 16.5293 38.717 16.4982 38.7096 16.4671C38.7045 16.4449 38.6984 16.4239 38.6928 16.4024C38.6919 16.3994 38.6912 16.3965 38.6906 16.3936C38.6828 16.3633 38.6743 16.3329 38.6652 16.3028L38.6453 16.2429L38.6408 16.2297L38.6247 16.1863C38.6192 16.1714 38.6144 16.1565 38.6086 16.1416L38.5935 16.1054C38.588 16.0933 38.5838 16.0812 38.5787 16.0694C38.5665 16.0405 38.5533 16.0118 38.5401 15.983C38.5158 15.9308 38.4891 15.8791 38.4601 15.8279C38.4472 15.8049 38.4347 15.7823 38.4206 15.7593C38.4042 15.7316 38.3869 15.7041 38.3688 15.6769C38.359 15.661 38.3487 15.6452 38.3379 15.6297L38.319 15.6012C38.3112 15.5889 38.3022 15.5771 38.2936 15.5652C38.2685 15.5299 38.2421 15.4948 38.2154 15.4602C38.21 15.4534 38.2054 15.4463 38.2 15.4395C38.1644 15.3958 38.1283 15.3524 38.091 15.3093L38.0733 15.2904C38.0455 15.2593 38.0168 15.2285 37.9872 15.1981C37.9772 15.1878 37.9669 15.1768 37.956 15.1663C37.9399 15.1502 37.9234 15.1343 37.9065 15.1187C37.8451 15.0586 37.7805 15.0001 37.7129 14.9432C37.7014 14.9338 37.6898 14.9243 37.6782 14.9145C37.6448 14.8869 37.61 14.8597 37.5753 14.8327C37.5679 14.827 37.5599 14.8204 37.5525 14.8152L37.5416 14.8064C37.5265 14.7947 37.5104 14.7838 37.4947 14.7728C37.4637 14.7503 37.4336 14.7274 37.4021 14.7057L37.3963 14.702C37.3911 14.6983 37.3857 14.6954 37.3805 14.6915C37.3394 14.6633 37.2975 14.6358 37.2548 14.6088L37.2123 14.5827C37.1819 14.5641 37.1512 14.5457 37.1201 14.5276L37.0867 14.5077C37.077 14.5026 37.0677 14.4965 37.0584 14.491C37.0224 14.4704 36.9848 14.4511 36.9487 14.4316C36.9321 14.4228 36.9153 14.4134 36.8986 14.4048C36.8867 14.3987 36.8748 14.3926 36.8629 14.3866L36.862 14.3862C36.8189 14.3642 36.7748 14.343 36.7305 14.3221L36.6845 14.3002C36.6311 14.2763 36.5774 14.2517 36.5224 14.2289C36.5199 14.2274 36.5164 14.2259 36.5134 14.2247C36.4716 14.2074 36.4289 14.1908 36.3861 14.1743C36.3694 14.1677 36.3527 14.1605 36.336 14.1543C36.3238 14.1502 36.3115 14.1453 36.2996 14.1407C36.2958 14.1396 36.2929 14.1381 36.2893 14.1368L36.2135 14.1103C36.1913 14.1021 36.1694 14.094 36.1466 14.0866C36.1385 14.0839 36.1302 14.0813 36.1225 14.0785C36.1154 14.0758 36.1078 14.0734 36.1003 14.071C36.0495 14.0543 35.9978 14.0385 35.9463 14.0228C35.9354 14.0195 35.9245 14.0155 35.9129 14.0122L35.9045 14.01L35.8968 14.0081L35.8958 14.0078C35.8949 14.007 35.8939 14.007 35.8933 14.0067L35.8926 14.0063C35.8363 13.9903 35.7792 13.975 35.7223 13.9602L35.6679 13.9466H35.6669C35.6148 13.9334 35.5621 13.9211 35.5091 13.9098C35.4956 13.9063 35.4817 13.9034 35.4682 13.9004C35.4096 13.8879 35.3506 13.8764 35.2911 13.8657C35.2834 13.8646 35.2763 13.8627 35.2683 13.8613C35.2545 13.8587 35.24 13.8565 35.2262 13.8541C35.2156 13.8519 35.2043 13.8506 35.1934 13.8488C35.1494 13.8417 35.1053 13.8347 35.0612 13.828C35.0516 13.8265 35.0413 13.8251 35.032 13.8234L35.0031 13.8194C34.8901 13.8041 34.776 13.7917 34.6616 13.7822H34.66C34.5613 13.7732 34.4621 13.767 34.3627 13.7635C34.3511 13.7629 34.3401 13.7618 34.3292 13.7613L34.3083 13.7611L34.3038 13.7609C34.2755 13.7598 34.2466 13.7598 34.2186 13.7591C34.1736 13.7583 34.1292 13.7567 34.0842 13.7567C34.0395 13.7567 33.9951 13.758 33.9505 13.7591H33.9482L33.9267 13.7596C33.9093 13.7596 33.8929 13.76 33.8756 13.7602L33.8367 13.7611C33.793 13.7626 33.7502 13.7657 33.7075 13.7677L33.7019 13.7679C33.676 13.769 33.6502 13.7708 33.6245 13.7721L33.5969 13.7736C33.5502 13.7771 33.5049 13.7815 33.4589 13.7859C33.4258 13.7887 33.3921 13.7907 33.3599 13.7944C33.313 13.7993 33.267 13.8054 33.2207 13.8116L33.1618 13.8186L33.1261 13.823C33.0934 13.8276 33.0606 13.8333 33.0281 13.8385L32.9979 13.8431C32.964 13.8478 32.9304 13.8531 32.8969 13.8589C32.8522 13.8673 32.8088 13.876 32.7638 13.8848C32.7609 13.8855 32.7577 13.8859 32.7552 13.8868C32.7279 13.892 32.7002 13.8971 32.6735 13.9028L32.6594 13.9061C32.6253 13.9135 32.5912 13.9221 32.5571 13.9298L32.5334 13.9352L32.4607 13.9519C32.4584 13.9526 32.456 13.9531 32.4536 13.9534L32.388 13.9714L32.3475 13.9826L32.3144 13.9916C32.2896 13.9984 32.2646 14.0046 32.2398 14.0118C32.2283 14.0152 32.2162 14.0188 32.2048 14.0225C32.1777 14.0309 32.1498 14.0392 32.1225 14.0482C32.1138 14.0506 32.1048 14.053 32.0964 14.0561C32.0752 14.0629 32.0524 14.0693 32.0318 14.076C31.9953 14.0881 31.9593 14.101 31.9238 14.1142C31.9122 14.1186 31.9007 14.1223 31.8887 14.1267L31.8286 14.1475L31.827 14.1482C31.8016 14.1579 31.7765 14.1684 31.7511 14.178C31.7292 14.1865 31.7075 14.1951 31.6859 14.2039C31.6679 14.2111 31.6493 14.2179 31.6315 14.2254L31.6305 14.2258C31.6097 14.2348 31.5887 14.244 31.5685 14.2533L31.565 14.2546L31.5489 14.2616L31.4856 14.289C31.4708 14.2962 31.4551 14.3024 31.4406 14.3094L31.4393 14.3101C31.4145 14.3216 31.3899 14.3335 31.3657 14.3456C31.3412 14.3574 31.3168 14.3688 31.293 14.3809L31.2557 14.3989L31.2545 14.4C31.248 14.403 31.2425 14.4063 31.2364 14.4094C31.2291 14.4136 31.221 14.4177 31.2133 14.4223C31.1783 14.4406 31.1438 14.459 31.1098 14.4781C31.0995 14.4838 31.0886 14.4892 31.0786 14.4949C31.0778 14.4952 31.077 14.4956 31.0764 14.496L31.0702 14.4998L31.0419 14.5162C31.0046 14.5384 30.9674 14.5599 30.9301 14.5825C30.923 14.5873 30.9146 14.5914 30.9076 14.5963L30.9053 14.5978L30.8979 14.6024C30.8506 14.6325 30.8043 14.6623 30.7587 14.6937L30.7442 14.7033C30.7214 14.7189 30.6992 14.7353 30.6767 14.7515C30.6648 14.761 30.6516 14.77 30.6394 14.7792C30.6266 14.7884 30.6134 14.7974 30.6008 14.8068C30.597 14.8094 30.5931 14.8116 30.5893 14.8149C30.5462 14.8474 30.5054 14.8818 30.4639 14.9154C30.4622 14.917 30.4599 14.9186 30.4578 14.9198C30.4459 14.9294 30.4334 14.9389 30.4221 14.9487L30.4028 14.9645C30.3691 14.9933 30.3376 15.0235 30.3054 15.0524C30.2803 15.0753 30.2539 15.0977 30.2295 15.1211C30.18 15.1694 30.1324 15.2187 30.0867 15.2687L30.071 15.2847L30.0501 15.3102C30.0347 15.327 30.0212 15.3446 30.0067 15.3619C29.9746 15.399 29.9453 15.4367 29.9157 15.4746C29.9089 15.4836 29.9009 15.4926 29.8939 15.5018C29.8681 15.5358 29.8438 15.5704 29.8209 15.6054C29.7984 15.6378 29.7755 15.6703 29.755 15.7034C29.7097 15.7745 29.6688 15.8467 29.6321 15.9201C29.6213 15.9407 29.6103 15.9611 29.5997 15.9821V15.9828C29.5968 15.9898 29.5936 15.9964 29.591 16.0041C29.5611 16.0675 29.5334 16.1312 29.5104 16.1962L29.5094 16.1982C29.4169 16.4518 29.3703 16.7121 29.3702 16.9735V21.4131L29.3705 21.4205C29.3711 21.4822 29.374 21.5434 29.3792 21.6043L29.3849 21.6611C29.3907 21.7129 29.3975 21.7647 29.4061 21.8158C29.4088 21.8289 29.4103 21.8425 29.4129 21.8559C29.4248 21.918 29.4393 21.9794 29.456 22.0417L29.4718 22.0932C29.4862 22.1417 29.5019 22.1897 29.5187 22.2375C29.5254 22.2544 29.5306 22.2713 29.5373 22.2884C29.5654 22.3624 29.5973 22.4357 29.6331 22.5081C29.656 22.556 29.681 22.6035 29.7074 22.6505L29.7379 22.704C29.7714 22.7614 29.8065 22.818 29.8437 22.8731L29.8578 22.8935C29.8929 22.9437 29.9311 22.995 29.9697 23.0444L29.9839 23.0624C29.9942 23.076 30.0044 23.088 30.0157 23.1019C30.0421 23.1339 30.0701 23.1672 30.099 23.1995C30.1148 23.2174 30.1298 23.2349 30.1456 23.2519C30.19 23.2997 30.2347 23.3479 30.2829 23.3935C30.2893 23.3993 30.2951 23.4049 30.3002 23.41C30.344 23.4512 30.3883 23.4927 30.4339 23.5328L30.4874 23.5776C30.5243 23.6081 30.5609 23.6379 30.5998 23.6681C30.6191 23.6824 30.6384 23.6986 30.6584 23.7128C30.7011 23.7449 30.7455 23.7762 30.7902 23.8072L30.8343 23.8381C30.8944 23.878 30.9548 23.916 31.0165 23.9533C31.0339 23.9633 31.0519 23.9729 31.0696 23.9831C31.1165 24.0102 31.1644 24.0363 31.2133 24.0624C31.2364 24.0748 31.2602 24.0863 31.2843 24.0988C31.3307 24.1223 31.3776 24.1451 31.4252 24.1671C31.5151 24.209 31.6075 24.2485 31.7023 24.2853C31.7106 24.289 31.7199 24.2917 31.7287 24.2951C31.7952 24.32 31.863 24.3447 31.9318 24.3664L32.0113 24.3914C32.0633 24.4076 32.1161 24.4232 32.1687 24.4377C32.198 24.4454 32.227 24.4537 32.2559 24.4607C32.3138 24.4752 32.3713 24.489 32.4305 24.502C32.4543 24.5066 32.4774 24.5125 32.5021 24.5173C32.5825 24.5338 32.6645 24.5491 32.7477 24.5621C32.7731 24.566 32.7989 24.5689 32.8253 24.5732C32.8857 24.5816 32.9465 24.5897 33.0085 24.596C33.042 24.6002 33.075 24.6026 33.1082 24.6059C33.1667 24.6112 33.2258 24.6154 33.2853 24.6195C33.3178 24.6213 33.3496 24.6242 33.3827 24.6257C33.4637 24.6292 33.5454 24.6309 33.6284 24.6311L33.656 24.6316C33.7756 24.6316 33.8968 24.6283 34.0202 24.6206C34.1444 24.614 34.2679 24.6035 34.3906 24.5891L37.2445 24.2932L37.4789 24.2699L37.4139 23.1139L37.3802 22.4957L37.376 22.4215L37.3712 22.3439L37.3683 22.2934H34.0633C34.0197 22.2929 33.9762 22.2912 33.9328 22.2881C33.9138 22.2866 33.8964 22.284 33.8781 22.2825C33.8294 22.2779 33.7813 22.2709 33.7341 22.2614C33.7325 22.2612 33.7309 22.2612 33.7293 22.2605C33.6985 22.2548 33.6689 22.2471 33.6393 22.2408C33.6235 22.2362 33.6064 22.2334 33.5917 22.2278C33.549 22.2166 33.5073 22.2034 33.4669 22.1886C33.4612 22.1866 33.4564 22.184 33.4512 22.1822C33.4137 22.1679 33.3774 22.1523 33.3423 22.1355C33.3296 22.1303 33.3171 22.1228 33.3046 22.116C33.2786 22.1028 33.2531 22.0891 33.2284 22.0748C33.2159 22.0667 33.204 22.0594 33.1918 22.052C33.1673 22.0359 33.1435 22.0192 33.1207 22.0019C33.1117 21.9954 33.1017 21.9882 33.0931 21.9807C33.0628 21.9567 33.0346 21.9315 33.0088 21.9053C33.0079 21.9046 33.0072 21.9035 33.0056 21.9028C32.9856 21.8819 32.9667 21.8604 32.9487 21.8386C32.9423 21.8313 32.9375 21.8241 32.932 21.8164C32.9193 21.8002 32.9077 21.7836 32.8972 21.7667C32.8921 21.7596 32.8876 21.7519 32.8825 21.7438C32.8695 21.7221 32.8578 21.7 32.8474 21.6776C32.8464 21.6752 32.8446 21.673 32.8436 21.6706C32.833 21.6461 32.8236 21.6212 32.8156 21.5962L32.8088 21.5703C32.8037 21.5523 32.7995 21.5342 32.7963 21.5159L32.7918 21.4886C32.7885 21.4639 32.7867 21.4392 32.7863 21.4144L32.786 21.4089V20.3933H37.0596C37.2845 20.3941 37.5072 20.3645 37.7152 20.3062C37.923 20.2479 38.1119 20.1621 38.2709 20.0536C38.4299 19.9452 38.5558 19.8164 38.6413 19.6745C38.7268 19.5327 38.7702 19.3807 38.769 19.2274V16.9695C38.7694 16.9614 38.7684 16.9496 38.7678 16.937ZM32.786 18.0643V16.973C32.786 16.4842 33.3647 16.0892 34.082 16.0892C34.0887 16.0892 34.0958 16.0898 34.1026 16.09C34.1341 16.09 34.1646 16.0911 34.1952 16.0933C34.2106 16.0942 34.226 16.096 34.2411 16.0973C34.2643 16.0995 34.2877 16.1019 34.3102 16.1048L34.3565 16.1111C34.3797 16.115 34.4031 16.119 34.4256 16.1238C34.4388 16.1265 34.4527 16.1284 34.4658 16.1317C34.4999 16.1394 34.5337 16.148 34.5668 16.1576C34.5765 16.1604 34.5858 16.1635 34.5954 16.1668C34.6198 16.1743 34.6439 16.1822 34.6674 16.1907C34.6803 16.1958 34.6928 16.2004 34.705 16.2054C34.7373 16.2188 34.7692 16.2327 34.8005 16.2471C34.8223 16.2578 34.8439 16.2692 34.8645 16.2806C34.8726 16.2853 34.8812 16.289 34.889 16.2942C34.9173 16.31 34.9439 16.3269 34.9699 16.3449L34.9902 16.3596C35.0095 16.3734 35.0278 16.3874 35.0461 16.4019L35.07 16.4223C35.0933 16.443 35.1157 16.4642 35.1372 16.4859C35.1558 16.5052 35.1738 16.5254 35.1902 16.546C35.1924 16.548 35.1941 16.5502 35.196 16.5522C35.2136 16.5752 35.2303 16.5993 35.2458 16.6239C35.2493 16.6293 35.2522 16.6352 35.2551 16.6414C35.2622 16.6537 35.2706 16.666 35.2767 16.6787C35.2799 16.6846 35.2824 16.6916 35.2857 16.6978C35.2895 16.7067 35.2928 16.7157 35.2975 16.7247C35.3083 16.7516 35.3177 16.7786 35.3258 16.8059C35.3313 16.825 35.3348 16.8443 35.3387 16.864C35.3455 16.9 35.3492 16.9363 35.3497 16.9726V18.0639H32.9326L32.786 18.0643ZM27.9797 9.89849L27.989 9.75111C27.9669 9.74102 27.9344 9.72918 27.8951 9.71645C27.8868 9.71361 27.8758 9.71097 27.8672 9.7079C27.8768 9.71119 27.8875 9.71361 27.8964 9.71689C27.8965 9.71689 27.8963 9.71689 27.8964 9.71689C27.8861 9.71317 27.8729 9.7101 27.8617 9.70637C27.8521 9.70308 27.8418 9.70066 27.8318 9.69737C27.8273 9.69627 27.8244 9.69474 27.8193 9.69365C27.8057 9.68992 27.791 9.68575 27.7765 9.68224C27.7592 9.67763 27.7418 9.67303 27.7228 9.66864C27.6962 9.66187 27.6694 9.65543 27.6425 9.64935C27.6402 9.64913 27.6376 9.64825 27.6347 9.64781C27.6019 9.64057 27.5669 9.63355 27.5306 9.62566C27.5228 9.62434 27.5157 9.62259 27.5077 9.62105C27.5064 9.62105 27.5049 9.62061 27.5032 9.62017L27.4952 9.61886C27.4798 9.61579 27.4637 9.61315 27.4483 9.6103C27.438 9.60833 27.427 9.60614 27.4161 9.6046L27.3936 9.60022C27.3862 9.59868 27.3775 9.59758 27.3698 9.59627L27.3557 9.59364C27.3298 9.58917 27.3039 9.58493 27.2779 9.58092L27.2486 9.57675C27.2171 9.57214 27.1859 9.56732 27.1528 9.56293L27.1306 9.56008L27.1055 9.55701C27.0786 9.5535 27.0509 9.54999 27.0226 9.5467C27.0156 9.54583 27.0072 9.54539 27.0001 9.54429C26.9975 9.54423 26.9949 9.54393 26.9924 9.54341C26.9573 9.5399 26.922 9.53596 26.8859 9.53289H26.885L26.8577 9.53047C26.8551 9.53025 26.8529 9.53025 26.8509 9.52981L26.8493 9.5296L26.8406 9.52938C26.8081 9.52638 26.7755 9.52375 26.7429 9.52148C26.73 9.52016 26.7165 9.51973 26.7034 9.51907C26.667 9.51648 26.6306 9.51436 26.594 9.51271L26.5712 9.51183L26.5446 9.51073H26.5414C26.5081 9.50926 26.4749 9.50802 26.4417 9.50701L26.4082 9.50657H26.388L26.3767 9.50635C26.3445 9.50701 26.3121 9.50635 26.279 9.50635C26.2053 9.50635 26.1324 9.50788 26.0594 9.51051L26.0295 9.51205L25.9883 9.51446C25.9388 9.51628 25.8894 9.5192 25.8401 9.52324C25.8125 9.52499 25.7858 9.52762 25.7585 9.5296C25.6853 9.53585 25.6124 9.54353 25.5398 9.55262C25.4942 9.55811 25.4486 9.56469 25.4029 9.57126C25.3778 9.57521 25.3518 9.5785 25.3267 9.58267C25.2749 9.59078 25.2235 9.60022 25.1724 9.60986C25.1539 9.61284 25.1356 9.61614 25.1174 9.61974C25.0492 9.63355 24.9811 9.64781 24.9142 9.6636C24.8946 9.66821 24.875 9.67347 24.8557 9.67829C24.8081 9.68992 24.7606 9.70154 24.7136 9.7147C24.6872 9.7215 24.6622 9.72918 24.6361 9.73685C24.596 9.74826 24.5557 9.76032 24.5159 9.7726L24.4419 9.79585C24.3825 9.81537 24.3243 9.83532 24.2671 9.8555C24.2513 9.86121 24.2356 9.86646 24.2201 9.87261C24.15 9.89827 24.0813 9.92568 24.0134 9.95419L24.0118 9.95441L23.9523 9.98029C23.9369 9.98665 23.9224 9.99367 23.9073 10.0005C23.8719 10.0163 23.8353 10.0321 23.8003 10.0483C23.7803 10.0579 23.7595 10.0674 23.7395 10.0772C23.6749 10.109 23.6112 10.1413 23.5479 10.1746C23.5343 10.1816 23.5215 10.1893 23.508 10.1965C23.5183 10.1911 23.5286 10.1845 23.5399 10.1788C23.5286 10.1843 23.5189 10.1906 23.508 10.1965C23.482 10.2106 23.4576 10.2259 23.4322 10.2402C23.4074 10.2542 23.382 10.2678 23.3579 10.2823C23.3503 10.287 23.3427 10.2916 23.335 10.2961L23.2974 10.3189C23.2483 10.3489 23.2001 10.3797 23.1527 10.411L23.1165 10.4345C23.0862 10.4553 23.0573 10.4764 23.0281 10.4974L22.9509 10.5521L22.9001 10.5911V10.592H22.8991C22.8586 10.6227 22.819 10.6536 22.7804 10.6856V10.6863C22.765 10.6992 22.7486 10.7122 22.7335 10.7251C22.7034 10.7501 22.6753 10.7758 22.6467 10.8012C22.6258 10.8194 22.6047 10.8367 22.5854 10.8551C22.5809 10.8589 22.5769 10.8629 22.5731 10.867C22.5657 10.874 22.5577 10.8812 22.5506 10.8889L22.5249 10.9141C22.4969 10.9413 22.4689 10.9688 22.4413 10.9966L22.4171 11.0218C22.4103 11.0285 22.4037 11.0353 22.3976 11.0422C22.359 11.0835 22.3208 11.1256 22.2837 11.1679C22.278 11.1743 22.2719 11.1808 22.2664 11.1874C22.2256 11.2357 22.1873 11.2844 22.15 11.3341C22.1471 11.3379 22.1439 11.3418 22.1413 11.3458C22.1333 11.3571 22.1251 11.3684 22.1166 11.3795L22.1163 11.3804C22.0877 11.4195 22.0606 11.4583 22.0343 11.4982L22.034 11.4988C22.0256 11.5124 22.0157 11.5258 22.0073 11.5392C21.9993 11.5528 21.9918 11.566 21.9838 11.5789C21.9597 11.6173 21.9363 11.6554 21.9147 11.6943C21.9131 11.6965 21.9121 11.6989 21.9111 11.7011L21.8935 11.7333C21.8828 11.7528 21.8735 11.7728 21.8639 11.7921C21.8523 11.8149 21.8404 11.8377 21.8295 11.8607C21.8268 11.8664 21.8245 11.8722 21.8224 11.878C21.8169 11.8884 21.8122 11.8989 21.8073 11.9094C21.7877 11.9526 21.7707 11.9965 21.753 12.0414C21.7491 12.052 21.7443 12.0625 21.7398 12.0732V12.0739C21.7353 12.0849 21.733 12.0958 21.7292 12.1064C21.7318 12.1 21.7328 12.0932 21.735 12.0868C21.7142 12.1453 21.6956 12.2041 21.6784 12.2632C21.6781 12.2656 21.6771 12.2678 21.6764 12.2695L21.6742 12.279C21.6588 12.3347 21.6456 12.391 21.635 12.4478C21.6308 12.4669 21.6282 12.486 21.625 12.5057C21.6175 12.5482 21.6116 12.5909 21.6073 12.6336C21.598 12.7105 21.5931 12.7876 21.5926 12.8648L21.5919 12.8742V26.9438L21.7394 26.9386L25.0113 26.8131V18.3657H27.5756V16.0333H25.0116L25.0113 12.8731C25.0113 12.3842 25.59 11.9892 26.279 11.9892H27.8511L27.9771 9.94674L27.9797 9.89849ZM13.8166 10.0084L10.5447 9.8645L10.3975 9.85791V24.4791H13.8166V10.0084Z" fill="#A2C056"/>
<path d="M19.6528 11.8985L19.6525 11.8939C19.6505 11.8816 19.646 11.8695 19.6444 11.8573L19.6437 11.8537C19.6376 11.8239 19.6325 11.7943 19.6235 11.7651L19.6229 11.7627C19.618 11.7474 19.6119 11.732 19.6064 11.7167C19.6058 11.7165 19.6058 11.716 19.6058 11.7156C19.6017 11.7035 19.5968 11.6921 19.5923 11.6803C19.5875 11.6669 19.5836 11.6542 19.5772 11.641C19.5698 11.6243 19.5602 11.6074 19.5518 11.5903L19.5514 11.5897C19.543 11.5727 19.5338 11.5559 19.5238 11.5392L19.5145 11.5213L19.5142 11.5204L19.4933 11.4877L19.4917 11.4864C19.4754 11.4614 19.4582 11.4368 19.4399 11.4125L19.4393 11.4114C19.431 11.4005 19.4224 11.3898 19.4136 11.3791C19.3997 11.3625 19.3843 11.3462 19.3698 11.33C19.3596 11.3186 19.3499 11.3072 19.3393 11.2969L19.339 11.296L19.3383 11.2951C19.3335 11.2901 19.329 11.2848 19.3239 11.2798V11.2791C19.2923 11.2476 19.2587 11.2171 19.2232 11.1877L19.2213 11.1861C19.212 11.1778 19.2013 11.1703 19.1911 11.162C19.1639 11.1401 19.1353 11.1189 19.1059 11.0984C19.1001 11.0949 19.0956 11.0914 19.0904 11.0879L19.0673 11.0719C19.0606 11.0679 19.0542 11.0642 19.0474 11.0598C19.022 11.0436 18.9963 11.0269 18.9692 11.0109C18.9592 11.0054 18.9494 10.9991 18.939 10.9934C18.9175 10.9809 18.8934 10.9701 18.8709 10.9585C18.8483 10.9466 18.8262 10.9346 18.8031 10.9238C18.7928 10.9188 18.7821 10.9144 18.7715 10.9098C18.7442 10.8973 18.7156 10.8861 18.6873 10.8749C18.662 10.8636 18.6359 10.8533 18.6089 10.844C18.5709 10.8307 18.5324 10.8182 18.4935 10.8063C18.4796 10.8021 18.4655 10.7975 18.4507 10.7933C18.4117 10.7822 18.3719 10.7727 18.3318 10.7631C18.3176 10.7598 18.3031 10.7556 18.2886 10.7523C18.28 10.7504 18.2716 10.749 18.2632 10.7477C18.2156 10.738 18.1675 10.7296 18.1189 10.7225C18.1015 10.7197 18.0835 10.7175 18.0659 10.715C18.043 10.712 18.0192 10.7104 17.9964 10.7078C17.9765 10.7058 17.9572 10.7032 17.9373 10.7017C17.9192 10.7001 17.9022 10.6982 17.8845 10.6971H17.8784C17.8204 10.6932 17.7621 10.6912 17.7038 10.6909H17.7016C17.6374 10.6912 17.5732 10.6934 17.5093 10.6977C17.4875 10.699 17.4663 10.7023 17.4454 10.7041C17.4031 10.7075 17.3611 10.7119 17.3193 10.7172C17.2946 10.721 17.2701 10.7256 17.2451 10.7302C17.211 10.7353 17.1772 10.7412 17.1438 10.7479L17.137 10.7495C17.1107 10.7547 17.0846 10.7615 17.0586 10.7679C17.0265 10.776 16.994 10.7833 16.9625 10.7918L16.9615 10.792C16.9355 10.7995 16.9107 10.8078 16.8853 10.8159L16.8387 10.8311C16.7975 10.844 16.7577 10.8589 16.7194 10.8756C16.6926 10.886 16.6661 10.8969 16.64 10.9083L16.6339 10.9105C16.6104 10.9214 16.587 10.9333 16.5638 10.9442C16.5376 10.9569 16.5118 10.97 16.4867 10.9837C16.4857 10.9841 16.4857 10.9846 16.4847 10.9846C16.4627 10.997 16.441 11.0097 16.4198 11.0227L16.3999 11.0344C16.3815 11.0453 16.3642 11.0563 16.3468 11.0675C16.3261 11.0808 16.3062 11.0946 16.287 11.1089C16.2642 11.1252 16.2417 11.1418 16.2201 11.1592C16.206 11.1701 16.1935 11.1818 16.1796 11.1925L16.1661 11.2041C16.1562 11.2129 16.1465 11.2223 16.1366 11.2313C16.1264 11.2401 16.1166 11.249 16.107 11.2581C16.0983 11.2662 16.0903 11.275 16.0816 11.2835C16.0748 11.291 16.0671 11.2982 16.06 11.3061C16.0445 11.3221 16.0299 11.3385 16.016 11.3552C16.0134 11.3583 16.0102 11.3612 16.0083 11.3644L16.0064 11.3651C15.9922 11.3817 15.9786 11.3985 15.9655 11.4155C15.9597 11.4228 15.9556 11.4307 15.9494 11.4386C15.9408 11.4517 15.9311 11.4642 15.9218 11.4774L15.9215 11.4785C15.9098 11.4955 15.8987 11.5127 15.8884 11.53L15.888 11.5309C15.8752 11.5522 15.8639 11.5741 15.853 11.5958L15.8524 11.5974C15.8437 11.6151 15.8344 11.6327 15.827 11.6507L15.8266 11.6518C15.8215 11.6636 15.8173 11.6757 15.8125 11.6882C15.809 11.6989 15.8045 11.7099 15.8003 11.7202V11.7215C15.7967 11.7322 15.7913 11.743 15.7881 11.7535C15.7855 11.761 15.7845 11.7684 15.7823 11.7759V11.7765C15.7803 11.7825 15.7794 11.7888 15.7778 11.7945C15.7733 11.8125 15.7697 11.8301 15.7659 11.8485L15.7656 11.8507C15.7614 11.8688 15.7581 11.887 15.7556 11.9053V11.9059C15.7543 11.9116 15.7546 11.9176 15.7543 11.9233C15.7496 11.9576 15.747 11.9921 15.7466 12.0266C15.7466 12.0678 15.7501 12.1086 15.7556 12.1487C15.7566 12.1584 15.7585 12.168 15.7604 12.1779C15.7665 12.2139 15.7742 12.2494 15.7839 12.2845L15.7874 12.2974C15.799 12.3356 15.8141 12.3737 15.8305 12.411L15.8437 12.4384C15.8585 12.4694 15.8752 12.4994 15.8929 12.5295C15.8974 12.5363 15.9009 12.5433 15.9054 12.551C15.9332 12.5941 15.9642 12.6363 15.9983 12.6773C16.0089 12.6904 16.0208 12.7029 16.0321 12.7154C16.0446 12.7293 16.0568 12.7442 16.07 12.7575C16.0768 12.7641 16.0829 12.7711 16.0896 12.7779C16.1273 12.8157 16.1682 12.852 16.2121 12.8865C16.2427 12.9113 16.2748 12.9354 16.3082 12.9587C16.315 12.9633 16.3221 12.9688 16.3295 12.9736C16.3773 13.0059 16.4276 13.0364 16.4802 13.065C16.5185 13.0863 16.558 13.1065 16.5989 13.1256L16.6182 13.1352C16.7188 13.1807 16.825 13.2204 16.9355 13.2536L16.9483 13.2576C17.0011 13.2727 17.0551 13.2863 17.1097 13.2984C17.121 13.301 17.1319 13.303 17.1432 13.3052C17.1987 13.317 17.255 13.3271 17.3119 13.3352C17.3701 13.3436 17.4293 13.3491 17.4888 13.3537C17.5003 13.3545 17.5116 13.3556 17.5232 13.3561C17.6489 13.365 17.7756 13.3648 17.9012 13.3554C17.9112 13.355 17.9202 13.3534 17.9299 13.3523C17.9842 13.348 18.0382 13.3431 18.0909 13.3354C18.1086 13.3335 18.1253 13.3293 18.1427 13.3269C18.1867 13.3197 18.2308 13.3126 18.2739 13.3037C18.2941 13.299 18.3144 13.294 18.3343 13.2892C18.3731 13.2804 18.4116 13.2706 18.4494 13.26C18.4713 13.2541 18.4921 13.2468 18.5134 13.24C18.5481 13.2291 18.5835 13.2179 18.6169 13.2058C18.6391 13.1982 18.6603 13.1889 18.6812 13.1806C18.7137 13.1677 18.7449 13.155 18.7757 13.1411C18.7969 13.1313 18.8178 13.121 18.8387 13.1109C18.8678 13.0967 18.8964 13.0821 18.9245 13.067C18.9451 13.0558 18.9644 13.044 18.985 13.0321C19.0114 13.0166 19.0374 13.0003 19.0622 12.9839C19.0818 12.9714 19.1004 12.9578 19.119 12.9444C19.1621 12.9141 19.2027 12.8821 19.2406 12.8488C19.2997 12.798 19.3531 12.7441 19.4004 12.6878C19.4145 12.6709 19.4283 12.6539 19.4415 12.6367C19.4695 12.5988 19.4957 12.5604 19.5199 12.5213C19.5322 12.5003 19.5431 12.4792 19.5534 12.4575C19.5631 12.4384 19.5727 12.4196 19.5807 12.4001C19.5897 12.3784 19.5984 12.3566 19.6058 12.3345C19.6125 12.3143 19.62 12.2946 19.6257 12.2746C19.6318 12.252 19.6364 12.2297 19.6408 12.2064C19.6454 12.1858 19.6498 12.1652 19.6521 12.1443C19.6534 12.1364 19.6534 12.1279 19.6544 12.1196C19.6572 12.0886 19.6611 12.0577 19.6611 12.0263C19.6615 11.9837 19.6587 11.941 19.6528 11.8985ZM15.9948 13.9074V24.479H19.4136V14.0392L15.9948 13.9074Z" fill="#A2C056"/>
</g>
<defs>
<clipPath id="clip0_251_855">
<rect width="94" height="18" fill="white" transform="translate(10 9)"/>
</clipPath>
</defs>
</svg>
