<svg width="164" height="22" viewBox="0 0 164 22" fill="none" xmlns="http://www.w3.org/2000/svg">
<path fill-rule="evenodd" clip-rule="evenodd" d="M124.502 1.67642L133.771 21.9214L137.838 13.628L141.903 21.9214L151.009 1.67642H146.374L141.494 12.7337L139.707 8.99374L143.122 1.75722L138.812 1.67549L137.836 4.35854L136.536 1.67549H132.388L135.722 8.83028L134.013 12.6529L128.81 1.67642H124.502ZM39.3958 0.87959L51.4755 12.2693V1.60491H55.3844V21.3595L43.3307 9.74599V20.7094H39.3958V0.87959ZM57.5743 1.65692H65.8204C67.0806 1.65692 70.6627 2.61535 70.789 6.47321C70.8902 9.34664 68.521 10.6849 68.521 10.6849C69.8064 11.2904 71.7734 12.7773 71.7734 15.803C71.7734 18.7545 69.1767 20.9221 66.9552 20.9221H57.5743V1.65506V1.65692ZM61.5334 9.42373H64.535C65.7201 9.27142 66.6274 8.36407 66.6274 7.07873C66.6274 5.71631 65.4414 4.96127 64.4589 4.88419H61.5334V9.42373ZM61.5576 17.8221H65.0384C65.9216 17.744 67.4326 16.9899 67.4326 15.2495C67.4326 13.5593 65.9448 12.7522 65.1378 12.7262H61.5567V17.8211L61.5576 17.8221ZM86.7006 5.7804C82.565 3.03141 76.9667 5.83054 76.6129 10.9236C76.4606 17.1042 82.5632 19.6507 86.7006 16.9769V20.937C79.387 23.6599 72.6789 18.5158 72.6538 11.0508C72.6789 4.72166 79.6646 -0.876607 86.7006 1.9216V5.7804ZM158.123 13.7515C152.292 9.86394 152.758 10.2754 152.332 9.6039C151.903 8.93337 150.685 5.45813 153.489 2.46861C156.293 -0.519049 161.965 2.04234 161.965 2.04234V5.88441C161.965 5.88441 157.147 3.07878 155.807 5.64016C154.465 8.20154 159.465 9.72463 159.465 9.72463C159.465 9.72463 162.819 11.6768 163.123 13.81C163.428 15.9451 163.183 20.2135 159.77 21.0057C159.77 21.0057 156.476 22.8362 152.024 20.52L152.086 16.1903C152.086 16.1903 153.975 18.2632 156.66 18.1425C159.343 18.0189 160.136 15.0935 158.124 13.7524L158.123 13.7515ZM112.816 1.51947V20.911H123.426L123.489 17.679H117.009V13.0438H123.489V9.44602H117.009V5.11729H123.489V1.51947H112.816ZM94.9633 0.919524L107.042 12.4207V1.65041H110.951V21.5963L98.8955 9.87229V20.9435H94.9633V0.919524Z" fill="black"/>
<path fill-rule="evenodd" clip-rule="evenodd" d="M31.8665 20.7263C31.3074 20.9752 30.687 21.0857 30.0248 21.0857L3.55845 21.0643C2.0623 20.9482 0.592149 19.713 0.175158 18.2364C-0.269695 16.7597 0.162155 15.2367 1.13823 14.1584C2.0818 13.1861 3.29563 12.7802 4.64318 12.9325C3.37549 12.0688 2.84241 10.6414 3.02537 9.11088C3.1944 7.78004 4.15747 6.48263 5.39173 5.95233C6.80151 5.31802 8.58092 5.66257 9.68701 6.73059C9.45762 5.95233 9.33689 4.83416 9.65172 4.03454C10.0297 2.7715 11.2565 1.64869 12.5029 1.38493C14.1671 1.02645 15.7524 1.65518 16.709 3.08261C16.891 3.35101 16.9988 3.6547 17.1408 3.93796C17.6201 2.57183 19.002 1.44066 20.4053 1.29485C21.8541 1.10818 23.2239 1.73041 24.1322 2.94981C24.8408 3.96303 25.0823 5.47497 24.6244 6.69437H24.6783C25.7296 5.74894 27.3204 5.40439 28.6754 5.92911C29.9691 6.35632 31.0678 7.73639 31.2433 9.09602C31.4393 10.6005 30.9257 11.9165 29.788 12.8907C31.5136 12.7876 33.1527 13.7052 33.8604 15.31C34.4799 16.7124 34.2988 18.5874 33.2465 19.7251C32.8231 20.1532 32.3698 20.5127 31.8646 20.7263H31.8665Z" fill="white"/>
<path fill-rule="evenodd" clip-rule="evenodd" d="M29.0619 12.9315L19.2742 19.4761L22.5711 11.6406L24.1341 7.99165C24.7675 6.81219 25.9609 6.05993 27.2629 6.03857C28.5093 6.03857 29.6144 6.63852 30.3165 7.7149C31.0381 8.79127 31.079 10.5512 30.3574 11.6396C30.0191 12.1539 29.5788 12.5933 29.0637 12.9305L29.0619 12.9315Z" fill="#0088CC"/>
<path fill-rule="evenodd" clip-rule="evenodd" d="M24.1878 6.75183L19.3474 18.1945L19.1319 16.9463L17.6766 7.5663C17.643 7.30125 17.6845 7.03208 17.7963 6.78942C17.9081 6.54675 18.0858 6.34035 18.3091 6.19367L19.0047 5.7804C19.0455 5.63645 18.8431 5.58722 18.7483 5.538L17.3869 5.525C17.2996 4.17187 17.8921 2.94597 19.0381 2.20671C19.9278 1.6272 21.2828 1.47582 22.2747 1.94482C23.5609 2.46954 24.4581 3.84125 24.4794 5.24174C24.4729 5.75904 24.3847 6.29026 24.1897 6.75275L24.1878 6.75183Z" fill="#6360A6"/>
<path fill-rule="evenodd" clip-rule="evenodd" d="M14.8925 18.2352L10.1273 6.76381C9.61555 5.53513 9.83101 3.92103 10.7077 2.92917C11.6448 1.88715 12.9663 1.44601 14.3269 1.79707C15.4794 2.08032 16.5577 3.18363 16.8418 4.36309C16.9756 4.80516 16.9561 5.33638 16.9301 5.81838L14.8943 18.2352H14.8925Z" fill="#B44549"/>
<path fill-rule="evenodd" clip-rule="evenodd" d="M4.70559 12.5181C3.72766 11.6693 3.29116 10.5372 3.4314 9.22773C3.57349 7.90339 4.61829 6.60598 5.86462 6.20756C7.14531 5.80729 8.54024 6.12398 9.47081 7.08427C9.86086 7.45668 10.1033 7.89874 10.3057 8.35381L14.9121 19.5002L4.70559 12.52V12.5181Z" fill="#D76F2C"/>
<path fill-rule="evenodd" clip-rule="evenodd" d="M3.65979 20.6611C2.3856 20.5181 1.40488 19.8299 0.805866 18.6625C0.199418 17.483 0.35637 15.8113 1.17271 14.7665C2.06055 13.7022 3.34589 13.1664 4.64144 13.4283C5.16895 13.5137 5.61102 13.7403 6.02801 14.0032L15.9364 20.6657L3.65979 20.6611Z" fill="#ECB731"/>
<path fill-rule="evenodd" clip-rule="evenodd" d="M30.5615 20.6611C31.8357 20.5181 32.8164 19.8299 33.4154 18.6625C34.0219 17.483 33.8631 15.8113 33.0486 14.7665C32.1607 13.7022 30.8754 13.1664 29.5798 13.4283C29.0523 13.5137 28.6103 13.7403 28.1933 14.0032L18.2839 20.6657L30.5596 20.662L30.5615 20.6611Z" fill="#64B054"/>
</svg>
