<svg width="115" height="36" viewBox="0 0 115 36" fill="none" xmlns="http://www.w3.org/2000/svg">
<g clip-path="url(#clip0_251_843)">
<path fill-rule="evenodd" clip-rule="evenodd" d="M85.5073 12.1243L91.7243 25.7033L94.4521 20.1406L97.1787 25.7033L103.286 12.1243H100.177L96.9043 19.5408L95.7057 17.0323L97.9963 12.1785L95.1054 12.1237L94.4508 13.9233L93.5788 12.1237H90.7966L93.0329 16.9226L91.8866 19.4866L88.3968 12.1243H85.5073ZM28.4238 11.5898L36.5261 19.2293V12.0763H39.1479V25.3264L31.0631 17.5368V24.8903H28.4238V11.5898ZM40.6167 12.1112H46.1476C46.9929 12.1112 49.3955 12.7541 49.4802 15.3417C49.5481 17.269 47.959 18.1666 47.959 18.1666C48.8212 18.5727 50.1405 19.57 50.1405 21.5994C50.1405 23.5791 48.3988 25.033 46.9088 25.033H40.6167V12.11V12.1112ZM43.2722 17.3207H45.2855C46.0804 17.2185 46.6889 16.6099 46.6889 15.7478C46.6889 14.834 45.8934 14.3276 45.2344 14.2759H43.2722V17.3207ZM43.2884 22.9537H45.6231C46.2155 22.9013 47.229 22.3955 47.229 21.2282C47.229 20.0945 46.2311 19.5532 45.6898 19.5357H43.2878V22.9531L43.2884 22.9537ZM60.1527 14.877C57.3788 13.0331 53.6238 14.9106 53.3865 18.3267C53.2844 22.4722 57.3776 24.1802 60.1527 22.3868V25.043C55.2472 26.8693 50.7479 23.419 50.731 18.412C50.7479 14.1668 55.4334 10.4119 60.1527 12.2888V14.877ZM108.058 20.2234C104.147 17.6159 104.459 17.8919 104.174 17.4415C103.886 16.9918 103.069 14.6608 104.95 12.6556C106.83 10.6517 110.635 12.3697 110.635 12.3697V14.9467C110.635 14.9467 107.403 13.0649 106.505 14.7829C105.604 16.5009 108.958 17.5225 108.958 17.5225C108.958 17.5225 111.208 18.8319 111.412 20.2627C111.616 21.6948 111.452 24.5577 109.163 25.0891C109.163 25.0891 106.953 26.3168 103.967 24.7633L104.009 21.8592C104.009 21.8592 105.276 23.2496 107.077 23.1686C108.876 23.0857 109.408 21.1236 108.059 20.224L108.058 20.2234ZM77.6691 12.019V25.0255H84.7855L84.8278 22.8577H80.4815V19.7488H84.8278V17.3356H80.4815V14.4322H84.8278V12.019H77.6691ZM65.6947 11.6166L73.7963 19.3308V12.1069H76.4182V25.4852L68.3322 17.6215V25.0473H65.6947V11.6166Z" fill="black"/>
<path fill-rule="evenodd" clip-rule="evenodd" d="M23.3739 24.9019C22.9989 25.0688 22.5827 25.1429 22.1386 25.1429L4.38677 25.1286C3.38325 25.0507 2.39717 24.2222 2.11748 23.2318C1.81911 22.2413 2.10876 21.2198 2.76345 20.4966C3.39633 19.8444 4.21048 19.5722 5.11433 19.6743C4.26405 19.095 3.90649 18.1376 4.02921 17.111C4.14259 16.2184 4.78855 15.3482 5.6164 14.9925C6.56199 14.567 7.7555 14.7981 8.49738 15.5145C8.34353 14.9925 8.26255 14.2425 8.47371 13.7062C8.72724 12.859 9.55009 12.1059 10.3861 11.929C11.5023 11.6885 12.5656 12.1103 13.2073 13.0677C13.3293 13.2477 13.4016 13.4514 13.4969 13.6414C13.8184 12.7251 14.7452 11.9664 15.6865 11.8686C16.6582 11.7434 17.577 12.1607 18.1862 12.9786C18.6615 13.6582 18.8235 14.6723 18.5164 15.4902H18.5525C19.2577 14.8561 20.3247 14.625 21.2335 14.9769C22.1012 15.2635 22.8382 16.1891 22.9559 17.1011C23.0873 18.1102 22.7428 18.9929 21.9798 19.6463C23.1372 19.5771 24.2366 20.1926 24.7112 21.269C25.1268 22.2096 25.0053 23.4672 24.2995 24.2303C24.0155 24.5175 23.7115 24.7586 23.3726 24.9019H23.3739Z" fill="white"/>
<path fill-rule="evenodd" clip-rule="evenodd" d="M21.4927 19.6736L14.9277 24.0633L17.1391 18.8078L18.1874 16.3603C18.6123 15.5692 19.4127 15.0646 20.286 15.0503C21.122 15.0503 21.8632 15.4527 22.3342 16.1747C22.8182 16.8966 22.8456 18.0771 22.3616 18.8071C22.1347 19.152 21.8394 19.4468 21.4939 19.6729L21.4927 19.6736Z" fill="#0088CC"/>
<path fill-rule="evenodd" clip-rule="evenodd" d="M18.2235 15.5289L14.9769 23.2038L14.8323 22.3666L13.8562 16.0752C13.8337 15.8974 13.8615 15.7169 13.9365 15.5541C14.0115 15.3913 14.1307 15.2529 14.2805 15.1545L14.747 14.8773C14.7744 14.7808 14.6386 14.7477 14.575 14.7147L13.6619 14.706C13.6034 13.7984 14.0008 12.9762 14.7694 12.4803C15.3662 12.0916 16.275 11.9901 16.9403 12.3047C17.803 12.6566 18.4048 13.5767 18.4191 14.516C18.4147 14.863 18.3556 15.2193 18.2248 15.5295L18.2235 15.5289Z" fill="#6360A6"/>
<path fill-rule="evenodd" clip-rule="evenodd" d="M11.9887 23.2308L8.79251 15.5366C8.44927 14.7124 8.59378 13.6298 9.1818 12.9645C9.81035 12.2656 10.6967 11.9697 11.6093 12.2052C12.3823 12.3952 13.1056 13.1352 13.2961 13.9263C13.3859 14.2228 13.3728 14.5791 13.3554 14.9024L11.9899 23.2308H11.9887Z" fill="#B44549"/>
<path fill-rule="evenodd" clip-rule="evenodd" d="M5.15602 19.3965C4.50009 18.8272 4.20731 18.0678 4.30138 17.1895C4.39668 16.3012 5.09746 15.431 5.93341 15.1638C6.79241 14.8953 7.72804 15.1077 8.3522 15.7518C8.61382 16.0016 8.77643 16.2981 8.91219 16.6034L12.0018 24.0796L5.15602 19.3978V19.3965Z" fill="#D76F2C"/>
<path fill-rule="evenodd" clip-rule="evenodd" d="M4.45459 24.8582C3.59995 24.7623 2.94215 24.3007 2.54037 23.5177C2.1336 22.7266 2.23888 21.6053 2.78642 20.9046C3.38192 20.1907 4.24404 19.8313 5.11301 20.007C5.46683 20.0643 5.76334 20.2162 6.04303 20.3926L12.6889 24.8613L4.45459 24.8582Z" fill="#ECB731"/>
<path fill-rule="evenodd" clip-rule="evenodd" d="M22.4986 24.8582C23.3533 24.7623 24.0111 24.3007 24.4129 23.5177C24.8196 22.7266 24.7131 21.6053 24.1668 20.9046C23.5713 20.1907 22.7092 19.8313 21.8402 20.007C21.4864 20.0643 21.1899 20.2162 20.9102 20.3926L14.2637 24.8613L22.4974 24.8589L22.4986 24.8582Z" fill="#64B054"/>
</g>
<defs>
<clipPath id="clip0_251_843">
<rect width="110" height="14.7561" fill="white" transform="translate(2 11)"/>
</clipPath>
</defs>
</svg>
