<svg width="115" height="36" viewBox="0 0 115 36" fill="none" xmlns="http://www.w3.org/2000/svg">
<path d="M30.4047 8.60573L28.3774 8.59623H25.2384C25.022 8.59623 23.3375 8.61243 23.3375 8.61243L23.3076 11.3352L23 11.3446L23.0191 8.28457L23.0069 7.02732C24.0778 7.07905 27.9433 7.11307 31.9545 7.11307C36.6324 7.11307 39.6462 7.06685 40.8286 7.03143L40.815 8.42333L40.8396 11.5188L40.5212 11.5147C40.5226 11.263 40.4695 10.2357 40.4723 10.135C40.4737 10.0983 40.4042 8.71859 40.396 8.61524L39.0531 8.59612H35.0281L33.4866 8.60152L33.488 27.6943C33.488 27.7215 33.5166 28.9474 33.5234 29.2019C33.6786 29.2237 35.1697 29.3257 35.4392 29.327L35.5439 29.3257L35.5453 29.8454C35.4637 29.8454 35.3644 29.8549 35.2814 29.8535C34.4337 29.844 33.0663 29.742 32.0948 29.742C31.1383 29.742 29.7885 29.8372 28.7911 29.8521C28.7639 29.8536 28.5598 29.8482 28.4835 29.8441L28.4808 29.2889C28.4917 29.2903 28.5516 29.2889 28.6454 29.2848C29.0672 29.2685 30.1054 29.1991 30.3749 29.176L30.4184 29.1693L30.4047 8.60573ZM56.174 7.00151C56.174 7.00151 57.6856 11.6985 57.9319 12.387C58.1782 13.0741 62.7977 24.962 62.7977 24.962C62.7977 24.962 64.9665 19.8406 66.8987 14.345C67.2906 13.2319 67.8036 11.7815 68.1819 10.6059L69.3439 7H70.533C70.533 7 70.8283 9.09959 70.9317 10.0357C71.2364 12.7558 73.223 23.811 73.9211 27.448C74.0952 28.3584 74.2272 29.1447 74.2272 29.1447C74.4314 29.1598 75.2355 29.24 75.7117 29.2795C75.811 29.2877 76.0778 29.3026 76.1389 29.3026L76.1416 29.8495C76.1416 29.8495 75.9252 29.8617 75.8068 29.8617C74.7415 29.855 73.0801 29.7584 72.0568 29.7584C71.1453 29.7584 70.2689 29.8372 69.3573 29.8563C69.2021 29.8605 69.0456 29.8522 68.8879 29.8522V29.3106C68.8933 29.3093 69.0145 29.3026 69.0784 29.3052C69.5233 29.2834 70.7031 29.1678 70.82 29.1623C70.8214 28.9636 70.7561 28.2752 70.6608 27.5716C70.5942 27.0751 70.4812 26.226 70.3614 25.3893C70.1016 23.7633 68.9002 17.0253 68.5438 15.1545C68.4852 14.8469 68.4484 14.6756 68.4484 14.6756C68.4484 14.6756 64.7284 24.2206 63.9786 26.101C63.9052 26.2846 63.8521 26.4153 63.8358 26.4587C63.1186 28.2697 62.5159 29.8836 62.5159 29.8836L61.4587 29.878L55.6609 14.9762L55.5235 14.6292C55.5235 14.6292 55.0173 17.4227 54.2867 21.3645C53.9017 23.4951 53.1015 28.8208 53.0471 29.1719C53.5083 29.2399 54.4159 29.3133 54.6636 29.3066C54.7207 29.3066 54.8174 29.3079 54.8895 29.3079V29.8467C54.786 29.8617 54.544 29.8629 54.5343 29.8629C53.6594 29.8439 53.0281 29.7773 52.0839 29.7773C51.8363 29.7773 50.5232 29.8453 50.0607 29.8615C49.8675 29.8711 49.5952 29.8494 49.5422 29.8507L49.5436 29.3175C49.5885 29.3175 49.6797 29.2984 49.7382 29.2969C50.1573 29.2779 50.8009 29.214 51.3466 29.1419C51.3914 28.8792 51.8636 26.2546 52.0133 25.3252C52.5929 22.246 54.3006 11.9636 54.5155 10.5771C54.7032 9.07896 54.9209 7.21631 54.94 7.01091C55.393 7.01922 56.174 7.00151 56.174 7.00151ZM48.4754 29.8672C47.689 29.8672 46.3556 29.7366 45.3555 29.7366C44.3662 29.7366 43.0246 29.8658 42.0587 29.8658C41.9769 29.8672 41.8315 29.8495 41.7525 29.8495V29.3066C41.943 29.3026 42.796 29.225 43.0342 29.2073C43.3117 29.187 43.5703 29.1734 43.6832 29.1367C43.6832 29.1367 43.6859 28.4835 43.6887 27.4698C43.6996 23.9661 43.72 14.0646 43.6873 9.58263C43.6846 8.96808 43.6828 8.35354 43.6819 7.73899C43.5009 7.72128 43.2478 7.69676 43.0668 7.67236C42.8397 7.66015 41.9063 7.5716 41.747 7.5621L41.7429 7.02052C42.6681 7.02052 44.0425 7.11436 45.1568 7.11436C46.2221 7.11436 47.6686 7.02041 48.7611 7.02041L48.7598 7.58521C48.5856 7.59741 48.1637 7.62333 48.15 7.62463C47.8317 7.65595 46.9378 7.7567 46.7187 7.7715V9.51449C46.7173 13.5272 46.7147 24.0232 46.7132 27.5582V28.7038C46.7118 28.9733 46.7147 29.1352 46.7173 29.1461C46.7227 29.165 47.282 29.2182 47.4113 29.2263C47.6575 29.2549 48.6739 29.2997 48.7052 29.3066H48.7719V29.8494C48.7054 29.8494 48.5435 29.8672 48.4754 29.8672ZM81.7665 8.65606L81.7625 17.6418L87.5317 17.6609C87.5588 17.6609 89.0583 17.6144 89.0951 17.6144C89.1863 17.6144 90.2164 17.5547 90.2557 17.541C90.2557 17.541 90.272 17.447 90.2952 17.379C90.3795 16.8347 90.4842 16.3191 90.5115 15.9151C90.5115 15.9151 90.5387 15.7437 90.5401 15.6266L90.868 15.6198C90.8694 15.6606 90.8856 15.764 90.8843 15.911C90.8803 16.4525 90.8408 17.5778 90.8421 18.3138C90.8448 19.3764 90.8734 20.333 90.8789 20.8148C90.8829 20.9509 90.8747 21.1698 90.8747 21.1698H90.5142C90.5083 21.1167 90.5016 21.0636 90.4939 21.0107C90.4313 20.3997 90.3795 19.967 90.2844 19.3425C90.2817 19.3112 90.2611 19.1983 90.2544 19.1275C90.0708 19.1153 89.585 19.0976 89.3265 19.0894C89.2135 19.0867 87.8079 19.0758 86.2255 19.0743C85.5778 19.073 84.4118 19.1043 83.9178 19.103C83.3396 19.103 82.3844 19.1397 81.7612 19.1628L81.7666 27.3091L81.7912 28.3595L85.2935 28.4208L90.2817 28.4154C90.3048 28.4154 91.4233 28.3704 91.7743 28.3771C91.8478 28.3786 91.9974 28.3662 91.9974 28.3662C92.03 28.1023 92.0709 27.5688 92.1117 27.06C92.1158 27.0002 92.241 25.649 92.241 25.2857L92.5471 25.2816C92.5471 25.6258 92.4818 29.8943 92.4818 29.8943C91.9199 29.8943 90.1945 29.8915 88.0625 29.8603C86.7712 29.8426 85.3316 29.8426 83.9097 29.8221C82.7587 29.8044 81.6183 29.7636 80.5829 29.7649C79.104 29.7664 77.6575 29.8642 77.0955 29.8642C76.9663 29.8657 76.739 29.8562 76.6901 29.8562V29.3186H76.7934C77.1404 29.3159 78.1596 29.256 78.6901 29.1581C78.6901 29.0507 78.7255 27.7213 78.7255 27.6941L78.7242 10.0668C78.7242 9.25174 78.7091 7.89245 78.7091 7.77269C78.4085 7.73727 78.301 7.71825 78.2384 7.70465C77.9186 7.65972 77.2886 7.6053 76.9526 7.58078C76.8683 7.58235 76.784 7.57599 76.7009 7.56178C76.7009 7.56178 76.6995 7.03391 76.6968 7.027C76.773 7.0311 76.9308 7.0203 77.2125 7.0216C77.8071 7.023 78.901 7.11145 80.2385 7.11274C81.0793 7.11415 82.4346 7.07333 83.4061 7.05972C84.7899 7.05972 85.8417 7.04752 87.1819 7.03791C89.3712 7.0243 91.2408 7.00799 91.9714 7.00529C92.1852 7.00389 92.3007 7.00259 92.3007 7.00259C92.3007 7.04471 92.2993 7.09244 92.2993 7.14817C92.3007 7.31685 92.2939 7.61491 92.2966 7.97949C92.3021 9.11557 92.3306 10.9022 92.3306 11.4859L92.023 11.4873L92.0205 11.3267C91.9892 10.9281 91.9224 9.80283 91.8382 8.85584C91.83 8.7715 91.8149 8.70617 91.8149 8.70617C91.6327 8.69937 90.8843 8.67485 90.8707 8.66395C90.8585 8.65304 90.2624 8.64343 90.2502 8.63673C90.2447 8.63403 88.2868 8.62161 86.2676 8.62042C84.8907 8.61912 83.5354 8.62863 82.7041 8.62863C82.4999 8.62755 81.7665 8.65606 81.7665 8.65606Z" fill="#ED1D2D"/>
</svg>
