<svg width="115" height="36" viewBox="0 0 115 36" fill="none" xmlns="http://www.w3.org/2000/svg">
<g clip-path="url(#clip0_251_872)">
<path d="M31.4238 32.5801C39.3161 32.5801 45.7139 26.1822 45.7139 18.2901C45.7139 10.3979 39.3161 4 31.4238 4C23.5317 4 17.1338 10.3979 17.1338 18.2901C17.1338 26.1822 23.5317 32.5801 31.4238 32.5801Z" fill="#009BFF"/>
<path d="M53.8797 14.9763C54.3304 15.0028 54.7679 14.8304 55.086 14.5123C55.3777 14.1411 55.5235 13.6639 55.4704 13.1867V7.49983H58.0554V13.1867C58.1217 14.2737 57.7107 15.3342 56.9419 16.0897C56.0935 16.8056 54.9932 17.1768 53.8797 17.1105C52.7662 17.1768 51.666 16.8056 50.8176 16.0897C50.0222 15.3342 49.5848 14.2737 49.6378 13.1867V7.49983H52.2227V13.1867C52.1962 13.6639 52.342 14.1278 52.6469 14.499C52.965 14.8304 53.4158 15.0028 53.8797 14.9763ZM63.1987 17.1238C62.4564 17.1238 61.714 16.9912 61.0115 16.7261C60.3354 16.4742 59.6991 16.0898 59.1689 15.5993L60.415 14.0218C60.7862 14.3532 61.1971 14.6183 61.661 14.8039C62.1515 15.0028 62.6685 15.0955 63.1855 15.0955C63.4904 15.1088 63.7953 15.0425 64.0604 14.8967C64.2593 14.7774 64.3918 14.5521 64.3785 14.3134C64.3785 14.0616 64.2327 13.823 64.0074 13.7169C63.5964 13.4783 63.1457 13.306 62.6817 13.1867L62.0985 13.0276C61.3694 12.8685 60.7066 12.5239 60.1631 12.0069C59.7124 11.5429 59.4738 10.9067 59.5003 10.2571C59.5003 9.71359 59.6726 9.17009 59.9908 8.73264C60.3222 8.28193 60.7729 7.92402 61.3031 7.71193C61.9129 7.46006 62.5757 7.3275 63.2252 7.34075C63.9278 7.34075 64.6171 7.47331 65.2667 7.73843C65.903 7.9903 66.4995 8.33496 67.0165 8.78567L65.7307 10.4029C65.3727 10.098 64.975 9.84615 64.5509 9.66057C64.1399 9.46173 63.676 9.34242 63.212 9.34242C62.9204 9.32916 62.6155 9.38219 62.3504 9.528C62.1383 9.63406 62.0057 9.87266 62.019 10.1113C62.0322 10.3366 62.1383 10.5487 62.3371 10.6813C62.6685 10.8934 63.0529 11.0525 63.4373 11.132L64.1399 11.3308C64.9485 11.5032 65.7041 11.9009 66.2874 12.4709C66.6983 12.9348 66.9237 13.5313 66.9237 14.1543C66.9369 14.7111 66.7646 15.2679 66.4598 15.7319C66.1283 16.1826 65.6644 16.5405 65.1474 16.7526C64.5376 17.0177 63.8748 17.137 63.1987 17.1238ZM74.7581 16.9382L74.1615 15.2281H70.6354L70.0389 16.9912H67.4937L70.9535 7.55285H73.9495L77.3562 16.9382H74.7581ZM71.2186 13.2662H73.459L72.3985 9.96546L71.2186 13.2662ZM52.4348 29.0409V21.6838H49.6245V19.6424H57.7903V21.6838H55.0197V29.0409H52.4348ZM63.2252 29.2133C62.3504 29.2265 61.4754 29.0144 60.7066 28.5903C59.9908 28.1793 59.3942 27.5828 58.9833 26.8537C58.5459 26.0849 58.3205 25.21 58.347 24.3218C58.3338 23.659 58.4531 22.9829 58.6917 22.3599C58.917 21.7766 59.275 21.2464 59.7124 20.8089C60.1498 20.3715 60.6801 20.0268 61.2634 19.7882C62.5227 19.311 63.9146 19.311 65.1739 19.7882C65.7572 20.0268 66.2742 20.3715 66.7248 20.8089C67.1623 21.2464 67.5202 21.7766 67.7456 22.3599C68.0107 22.9829 68.1565 23.6457 68.1698 24.3218C68.183 25.21 67.971 26.0849 67.5335 26.8537C67.1225 27.5828 66.5128 28.1661 65.7837 28.577C65.0016 29.0144 64.1134 29.2398 63.2252 29.2133ZM63.2252 27.0923C63.6494 27.1056 64.0604 26.9863 64.405 26.7476C64.7497 26.509 65.0281 26.1644 65.2004 25.7799C65.3992 25.3292 65.5053 24.8388 65.4921 24.3351C65.5053 23.8446 65.3992 23.3541 65.2004 22.8902C65.0281 22.4792 64.763 22.1346 64.405 21.8694C63.6892 21.3922 62.7481 21.3922 62.0322 21.8694C61.6743 22.1346 61.4092 22.4792 61.2368 22.8902C61.038 23.3409 60.9319 23.8313 60.9452 24.3351C60.9319 24.8256 61.038 25.316 61.2368 25.7799C61.4092 26.1644 61.6875 26.509 62.0322 26.7476C62.3769 26.973 62.8011 27.0923 63.2252 27.0923ZM69.6014 29.0409V19.6027H73.3264C74.1881 19.5894 75.0497 19.7882 75.8053 20.1992C76.5079 20.5836 77.0911 21.1669 77.4888 21.8562C78.2977 23.3939 78.2977 25.2232 77.4888 26.7476C77.0911 27.4502 76.5079 28.0202 75.8053 28.4047C75.0497 28.8156 74.1881 29.0277 73.3264 29.0012L69.6014 29.0409ZM72.1466 26.9995H73.3264C73.9495 27.026 74.546 26.7477 74.9304 26.2704C75.3413 25.7137 75.5534 25.0244 75.5269 24.3351C75.5534 23.6457 75.3413 22.9564 74.9304 22.3997C74.546 21.9092 73.9495 21.6441 73.3264 21.6706H72.1466V26.9995ZM85.7078 29.0409L85.1112 27.2779H81.5716L80.975 29.0409H78.4303L81.8898 19.6027H84.8858L88.3454 29.0409H85.7078ZM82.2342 25.3558H84.4883L83.3744 22.055L82.2342 25.3558ZM93.3298 25.6342V29.0277H90.7051V25.6342L87.3646 19.5894H90.2806L92.0309 23.3806L93.767 19.6424H96.6837L93.3298 25.6342Z" fill="#404040"/>
</g>
<defs>
<clipPath id="clip0_251_872">
<rect width="80" height="28.7023" fill="white" transform="translate(17 4)"/>
</clipPath>
</defs>
</svg>
