<svg width="93" height="31" viewBox="0 0 93 31" fill="none" xmlns="http://www.w3.org/2000/svg">
<path d="M10.3369 2.32498L7.64347 2.31236H3.47308C3.1857 2.31236 0.947628 2.33388 0.947628 2.33388L0.907885 5.95132L0.499268 5.9638L0.524663 1.89829L0.50845 0.22795C1.93115 0.296674 7.06685 0.341869 12.3959 0.341869C18.6109 0.341869 22.615 0.280462 24.1859 0.233402L24.1678 2.08265L24.2004 6.19523L23.7774 6.18978C23.7793 5.85534 23.7087 4.49046 23.7124 4.35674C23.7143 4.30795 23.622 2.47492 23.6111 2.33761L21.8269 2.31221H16.4795L14.4314 2.31939L14.4333 27.6855C14.4333 27.7217 14.4713 29.3504 14.4804 29.6884C14.6865 29.7174 16.6676 29.8529 17.0256 29.8547L17.1648 29.8529L17.1666 30.5434C17.0582 30.5434 16.9262 30.556 16.816 30.5542C15.6897 30.5415 13.873 30.406 12.5823 30.406C11.3116 30.406 9.51826 30.5325 8.19313 30.5523C8.15697 30.5543 7.8858 30.5471 7.78451 30.5417L7.78092 29.8041C7.79541 29.8059 7.8749 29.8041 7.99958 29.7986C8.55999 29.777 9.93936 29.6847 10.2973 29.654L10.3552 29.6451L10.3369 2.32498ZM44.5733 0.193659C44.5733 0.193659 46.5816 6.43397 46.9088 7.34863C47.236 8.26156 53.3733 24.0555 53.3733 24.0555C53.3733 24.0555 56.2547 17.2513 58.8218 9.94998C59.3425 8.47118 60.024 6.54416 60.5266 4.98229L62.0704 0.19165H63.6503C63.6503 0.19165 64.0426 2.9811 64.1799 4.22474C64.5848 7.83859 67.2241 22.5263 68.1516 27.3583C68.3829 28.5678 68.5583 29.6125 68.5583 29.6125C68.8295 29.6325 69.8978 29.7391 70.5305 29.7915C70.6625 29.8024 71.0169 29.8223 71.0981 29.8223L71.1017 30.5489C71.1017 30.5489 70.8142 30.5651 70.6569 30.5651C69.2416 30.5562 67.0342 30.4278 65.6748 30.4278C64.4637 30.4278 63.2994 30.5325 62.0883 30.5579C61.8821 30.5634 61.6742 30.5524 61.4646 30.5524V29.8329C61.4718 29.8311 61.6328 29.8222 61.7177 29.8257C62.3088 29.7968 63.8762 29.6431 64.0315 29.6359C64.0334 29.3719 63.9466 28.4573 63.8201 27.5225C63.7315 26.8628 63.5815 25.7348 63.4223 24.6232C63.0771 22.4629 61.481 13.511 61.0074 11.0255C60.9296 10.6168 60.8807 10.3892 60.8807 10.3892C60.8807 10.3892 55.9384 23.0704 54.9422 25.5687C54.8447 25.8126 54.7742 25.9862 54.7526 26.0439C53.7997 28.45 52.999 30.5941 52.999 30.5941L51.5944 30.5867L43.8916 10.7886L43.7091 10.3276C43.7091 10.3276 43.0365 14.0389 42.0659 19.2759C41.5544 22.1066 40.4913 29.1821 40.419 29.6486C41.0317 29.7389 42.2376 29.8365 42.5666 29.8275C42.6425 29.8275 42.7709 29.8293 42.8668 29.8293V30.5451C42.7293 30.5651 42.4077 30.5666 42.3949 30.5666C41.2325 30.5414 40.3938 30.4529 39.1393 30.4529C38.8103 30.4529 37.0658 30.5433 36.4513 30.5648C36.1946 30.5776 35.8329 30.5487 35.7625 30.5504L35.7643 29.842C35.824 29.842 35.9451 29.8166 36.0229 29.8147C36.5797 29.7894 37.4347 29.7045 38.1597 29.6087C38.2193 29.2597 38.8466 25.7727 39.0455 24.538C39.8155 20.4471 42.0843 6.7862 42.3699 4.94412C42.6193 2.95369 42.9085 0.479031 42.9339 0.206141C43.5357 0.217189 44.5733 0.193659 44.5733 0.193659ZM34.3452 30.5724C33.3004 30.5724 31.5288 30.3988 30.2001 30.3988C28.8858 30.3988 27.1034 30.5705 25.8201 30.5705C25.7115 30.5724 25.5182 30.5489 25.4133 30.5489V29.8276C25.6664 29.8223 26.7997 29.7191 27.1161 29.6956C27.4848 29.6686 27.8284 29.6506 27.9784 29.6018C27.9784 29.6018 27.9819 28.734 27.9857 27.3872C28.0002 22.7323 28.0273 9.57751 27.9838 3.62286C27.9802 2.80639 27.9778 1.98992 27.9766 1.17345C27.7362 1.14992 27.3999 1.11735 27.1595 1.08493C26.8577 1.06871 25.6176 0.951065 25.406 0.938439L25.4005 0.218911C26.6298 0.218911 28.4557 0.343591 29.9361 0.343591C31.3515 0.343591 33.2732 0.218767 34.7247 0.218767L34.723 0.969143C34.4916 0.985355 33.931 1.01979 33.9129 1.02151C33.49 1.06312 32.3023 1.19698 32.0113 1.21664V3.53233C32.0094 8.86344 32.0059 22.8082 32.004 27.5047V29.0267C32.0021 29.3847 32.0059 29.5998 32.0094 29.6143C32.0166 29.6395 32.7597 29.7101 32.9314 29.7209C33.2585 29.7589 34.6089 29.8184 34.6504 29.8275H34.7391V30.5487C34.6507 30.5487 34.4356 30.5724 34.3452 30.5724ZM78.5748 2.39184L78.5695 14.33L86.2342 14.3554C86.2703 14.3554 88.2625 14.2937 88.3113 14.2937C88.4325 14.2937 89.801 14.2143 89.8533 14.1961C89.8533 14.1961 89.8749 14.0713 89.9057 13.9809C90.0178 13.2578 90.1569 12.5728 90.1931 12.036C90.1931 12.036 90.2293 11.8083 90.2311 11.6527L90.6668 11.6437C90.6686 11.6979 90.6902 11.8352 90.6884 12.0305C90.6831 12.75 90.6306 14.245 90.6323 15.2228C90.6359 16.6346 90.6739 17.9055 90.6812 18.5456C90.6865 18.7264 90.6757 19.0173 90.6757 19.0173H90.1967C90.1889 18.9467 90.1799 18.8762 90.1697 18.8058C90.0865 17.9941 90.0178 17.4193 89.8914 16.5896C89.8878 16.548 89.8605 16.3979 89.8516 16.3039C89.6076 16.2877 88.9622 16.2642 88.6187 16.2533C88.4687 16.2497 86.6012 16.2352 84.4988 16.2332C83.6384 16.2315 82.0892 16.2731 81.4329 16.2714C80.6648 16.2714 79.3957 16.3201 78.5677 16.3508L78.5749 27.1737L78.6076 28.5693L83.2607 28.6507L89.8878 28.6435C89.9185 28.6435 91.4045 28.5838 91.8708 28.5927C91.9685 28.5946 92.1672 28.5782 92.1672 28.5782C92.2106 28.2276 92.2649 27.5188 92.3191 26.8428C92.3246 26.7633 92.4909 24.9682 92.4909 24.4855L92.8975 24.48C92.8975 24.9374 92.8108 30.6083 92.8108 30.6083C92.0643 30.6083 89.772 30.6047 86.9394 30.5632C85.2238 30.5397 83.3113 30.5397 81.4222 30.5124C79.8929 30.4889 78.3779 30.4347 77.0023 30.4364C75.0374 30.4384 73.1157 30.5684 72.369 30.5684C72.1974 30.5704 71.8954 30.5578 71.8304 30.5578V29.8435H71.9677C72.4287 29.8399 73.7827 29.7603 74.4876 29.6303C74.4876 29.4876 74.5346 27.7214 74.5346 27.6852L74.5328 4.26606C74.5328 3.18325 74.5128 1.37733 74.5128 1.21822C74.1134 1.17116 73.9706 1.1459 73.8874 1.12783C73.4626 1.06814 72.6256 0.995829 72.1792 0.96326C72.0672 0.965346 71.9552 0.956892 71.8448 0.938009C71.8448 0.938009 71.8429 0.236702 71.8393 0.227519C71.9405 0.232971 72.1502 0.218624 72.5244 0.220345C73.3144 0.222211 74.7678 0.339717 76.5447 0.341439C77.6618 0.343304 79.4624 0.28907 80.7531 0.270992C82.5915 0.270992 83.9889 0.254779 85.7695 0.24201C88.6781 0.223932 91.162 0.202268 92.1327 0.198681C92.4167 0.196815 92.5702 0.195094 92.5702 0.195094C92.5702 0.251049 92.5683 0.314465 92.5683 0.388498C92.5702 0.612607 92.5612 1.0086 92.5647 1.49297C92.5721 3.00233 92.6099 5.37598 92.6099 6.15147L92.2013 6.15333L92.1979 5.93999C92.1563 5.41042 92.0676 3.91541 91.9557 2.65727C91.9448 2.54522 91.9248 2.45842 91.9248 2.45842C91.6827 2.44938 90.6884 2.41681 90.6703 2.40232C90.6541 2.38783 89.8622 2.37506 89.846 2.36616C89.8387 2.36257 87.2375 2.34607 84.5548 2.3445C82.7255 2.34277 80.9249 2.3554 79.8204 2.3554C79.5492 2.35397 78.5749 2.39184 78.5748 2.39184Z" fill="#ED1D2D"/>
</svg>
