<svg width="131" height="47" viewBox="0 0 131 47" fill="none" xmlns="http://www.w3.org/2000/svg">
<path d="M23.6192 46.7999C36.5427 46.7999 47.0192 36.3234 47.0192 23.4C47.0192 10.4765 36.5427 0 23.6192 0C10.6958 0 0.219238 10.4765 0.219238 23.4C0.219238 36.3234 10.6958 46.7999 23.6192 46.7999Z" fill="#009BFF"/>
<path d="M60.3905 17.9734C61.1285 18.0168 61.8449 17.7346 62.3658 17.2136C62.8434 16.6058 63.0822 15.8244 62.9953 15.043V5.73072H67.2282V15.043C67.3367 16.8229 66.6638 18.5595 65.4048 19.7967C64.0155 20.9689 62.2139 21.5767 60.3905 21.4682C58.5671 21.5767 56.7655 20.9689 55.3762 19.7967C54.0738 18.5595 53.3575 16.8229 53.4443 15.043V5.73072H57.6771V15.043C57.6337 15.8244 57.8725 16.5841 58.3718 17.1919C58.8927 17.7346 59.6308 18.0168 60.3905 17.9734ZM75.6504 21.4899C74.4348 21.4899 73.2192 21.2728 72.0688 20.8387C70.9617 20.4262 69.9198 19.7968 69.0515 18.9936L71.092 16.4105C71.6998 16.9532 72.3727 17.3873 73.1324 17.6912C73.9356 18.0168 74.7821 18.1687 75.6287 18.1687C76.128 18.1904 76.6272 18.0819 77.0614 17.8431C77.387 17.6478 77.604 17.2788 77.5823 16.888C77.5823 16.4756 77.3435 16.0849 76.9745 15.9112C76.3016 15.5205 75.5636 15.2383 74.8038 15.043L73.8487 14.7825C72.6549 14.522 71.5695 13.9576 70.6795 13.111C69.9415 12.3513 69.5508 11.3094 69.5942 10.2457C69.5942 9.35576 69.8764 8.46578 70.3974 7.74945C70.94 7.01142 71.6781 6.42534 72.5463 6.07803C73.5448 5.6656 74.6302 5.44853 75.6938 5.47023C76.8443 5.47023 77.973 5.6873 79.0367 6.12144C80.0786 6.53387 81.0554 7.09825 81.902 7.83628L79.7964 10.4845C79.2103 9.98526 78.5591 9.57283 77.8645 9.26893C77.1916 8.94333 76.4319 8.74797 75.6721 8.74797C75.1946 8.72626 74.6953 8.81309 74.2612 9.05186C73.9139 9.22552 73.6968 9.61624 73.7185 10.007C73.7402 10.376 73.9139 10.7233 74.2395 10.9404C74.7821 11.2877 75.4116 11.5482 76.0411 11.6784L77.1916 12.004C78.5157 12.2862 79.753 12.9374 80.7081 13.8708C81.381 14.6305 81.75 15.6073 81.75 16.6275C81.7717 17.5392 81.4895 18.4509 80.9903 19.2107C80.4476 19.9487 79.6879 20.5348 78.8413 20.8821C77.8428 21.3162 76.7575 21.5116 75.6504 21.4899ZM94.5788 21.186L93.602 18.3858H87.8279L86.8511 21.2728H82.6834L88.3489 5.81754H93.2547L98.8333 21.186H94.5788ZM88.783 15.1732H92.4515L90.715 9.76819L88.783 15.1732ZM58.0245 41.0043V28.957H53.4226V25.6142H66.794V28.957H62.2573V41.0043H58.0245ZM75.6938 41.2865C74.2612 41.3082 72.8285 40.9609 71.5695 40.2663C70.3974 39.5934 69.4205 38.6166 68.7476 37.4227C68.0313 36.1637 67.6623 34.7311 67.7057 33.2767C67.684 32.1914 67.8794 31.0843 68.2701 30.0641C68.6391 29.109 69.2252 28.2407 69.9415 27.5244C70.6578 26.8081 71.5261 26.2437 72.4812 25.853C74.5434 25.0715 76.8226 25.0715 78.8847 25.853C79.8398 26.2437 80.6864 26.8081 81.4244 27.5244C82.1408 28.2407 82.7268 29.109 83.0959 30.0641C83.53 31.0843 83.7688 32.1696 83.7905 33.2767C83.8122 34.7311 83.4649 36.1637 82.7485 37.4227C82.0756 38.6166 81.0771 39.5717 79.8832 40.2446C78.6025 40.9609 77.1482 41.3299 75.6938 41.2865ZM75.6938 37.8134C76.3884 37.8351 77.0614 37.6398 77.6257 37.249C78.1901 36.8583 78.646 36.2939 78.9281 35.6644C79.2537 34.9264 79.4274 34.1233 79.4057 33.2984C79.4274 32.4953 79.2537 31.6921 78.9281 30.9324C78.646 30.2594 78.2118 29.6951 77.6257 29.2609C76.4536 28.4795 74.9124 28.4795 73.7402 29.2609C73.1541 29.6951 72.72 30.2594 72.4378 30.9324C72.1122 31.6704 71.9385 32.4735 71.9602 33.2984C71.9385 34.1016 72.1122 34.9047 72.4378 35.6644C72.72 36.2939 73.1758 36.8583 73.7402 37.249C74.3046 37.6181 74.9992 37.8134 75.6938 37.8134ZM86.1348 41.0043V25.5491H92.2344C93.6454 25.5274 95.0563 25.853 96.2936 26.5259C97.4441 27.1554 98.3992 28.1105 99.0504 29.2392C100.375 31.7572 100.375 34.7528 99.0504 37.249C98.3992 38.3995 97.4441 39.3329 96.2936 39.9624C95.0563 40.6353 93.6454 40.9826 92.2344 40.9392L86.1348 41.0043ZM90.3025 37.6615H92.2344C93.2547 37.7049 94.2315 37.2491 94.861 36.4676C95.5339 35.5559 95.8812 34.4272 95.8378 33.2984C95.8812 32.1696 95.5339 31.0409 94.861 30.1292C94.2315 29.3261 93.2547 28.8919 92.2344 28.9353H90.3025V37.6615ZM112.509 41.0043L111.532 38.1173H105.736L104.759 41.0043H100.592L106.257 25.5491H111.163L116.828 41.0043H112.509ZM106.821 34.9698H110.512L108.688 29.5648L106.821 34.9698ZM124.99 35.4257V40.9826H120.692V35.4257L115.222 25.5274H119.997L122.863 31.7355L125.706 25.6142H130.482L124.99 35.4257Z" fill="#404040"/>
</svg>
