<svg width="1440" height="800" viewBox="0 0 1440 800" fill="none" xmlns="http://www.w3.org/2000/svg">
<g clip-path="url(#clip0_0_4)">
<rect width="1440" height="800" fill="white"/>
<g filter="url(#filter0_f_0_4)">
<path d="M211.13 843.949C203.115 773.814 209.69 702.778 230.443 635.306C251.195 567.833 285.675 505.38 331.718 451.871C377.762 398.361 434.373 354.951 497.995 324.367C561.618 293.783 630.878 276.686 701.424 274.15C771.971 271.614 842.279 283.693 907.934 309.629C973.589 335.566 1033.17 374.799 1082.94 424.864C1132.7 474.928 1171.58 534.744 1197.12 600.552C1222.67 666.361 1234.33 736.74 1231.37 807.27L1095.44 801.57C1097.61 749.782 1089.05 698.104 1070.29 649.783C1051.54 601.462 1022.99 557.541 986.447 520.78C949.905 484.018 906.155 455.211 857.947 436.166C809.738 417.122 758.113 408.252 706.312 410.115C654.512 411.977 603.656 424.531 556.94 446.988C510.224 469.445 468.656 501.32 434.848 540.61C401.039 579.901 375.721 625.758 360.484 675.301C345.246 724.845 340.418 777.004 346.303 828.503L211.13 843.949Z" fill="url(#paint0_linear_0_4)"/>
</g>
<circle cx="720" cy="698" r="512" fill="url(#paint1_linear_0_4)" fill-opacity="0.42"/>
<g opacity="0.29">
<path d="M950.025 169.006L958.832 171.586L951.608 184.931C950.745 186.509 949.622 188.023 948.183 189.408C947.694 189.899 947.147 190.346 946.571 190.815C943.952 192.926 940.585 194.781 936.498 196.273C935.117 196.785 933.677 197.254 932.152 197.68C930.627 198.107 928.986 198.512 927.288 198.853C925.158 199.3 922.913 199.663 920.553 199.961C918.078 200.26 915.546 200.494 912.926 200.644C910.969 200.75 908.984 200.814 906.94 200.835C877.209 201.07 841.55 191.604 816.913 176.958C815.215 175.956 813.604 174.933 812.049 173.888C809.804 172.396 807.675 170.861 805.66 169.283C804.019 167.983 802.523 166.703 801.113 165.403C799.904 164.294 798.81 163.164 797.803 162.056C796.795 160.947 795.874 159.86 795.04 158.773C792.565 155.532 790.895 152.356 790.032 149.307C789.859 148.646 789.687 148.006 789.571 147.346C789.053 144.531 789.255 141.845 790.147 139.351C790.406 138.562 790.78 137.795 791.183 137.048L798.004 124.427L806.063 126.794C806.984 126.474 807.934 126.154 808.941 125.856C812.654 124.747 816.885 123.873 821.576 123.276C824.31 122.935 827.131 122.701 830.009 122.551C833.721 122.381 837.52 122.359 841.406 122.487C867.654 123.425 897.442 131.335 919.92 143.316C923.259 145.086 926.425 146.962 929.418 148.923C931.893 150.543 934.253 152.228 936.441 153.955C939.808 156.619 942.657 159.284 944.96 161.928C947.061 164.316 948.73 166.661 949.996 168.985H950.025V169.006Z" fill="url(#paint2_linear_0_4)"/>
<path d="M944.182 139.735C941.995 138.008 939.635 136.323 937.16 134.703C934.195 132.763 931 130.887 927.662 129.096C905.184 117.094 875.396 109.184 849.148 108.246C845.262 108.097 841.434 108.118 837.75 108.31C834.872 108.438 832.052 108.694 829.318 109.035C824.626 109.632 820.395 110.485 816.683 111.615C812.394 112.894 808.768 114.493 805.832 116.369C801.458 119.14 798.579 122.509 797.284 126.282C796.392 128.776 796.219 131.463 796.709 134.277C796.824 134.916 796.997 135.577 797.169 136.238C798.033 139.287 799.702 142.442 802.177 145.704C803.012 146.791 803.933 147.9 804.94 148.987C805.947 150.096 807.07 151.204 808.25 152.313C809.631 153.613 811.157 154.892 812.797 156.193C814.783 157.771 816.913 159.306 819.187 160.798C820.741 161.843 822.381 162.866 824.051 163.868C848.687 178.514 884.347 188.001 914.077 187.745C916.092 187.745 918.107 187.66 920.064 187.554C922.683 187.404 925.216 187.191 927.691 186.871C930.08 186.573 932.324 186.21 934.425 185.763C936.124 185.422 937.764 185.038 939.289 184.59C940.815 184.164 942.283 183.695 943.635 183.183C947.722 181.669 951.09 179.836 953.709 177.725C954.284 177.278 954.802 176.809 955.32 176.318C957.479 174.208 959.004 171.884 959.839 169.368C961.105 165.573 960.789 161.374 958.889 156.939C957.594 153.933 955.579 150.842 952.788 147.687C950.485 145.064 947.636 142.399 944.269 139.713H944.182V139.735Z" fill="url(#paint3_linear_0_4)"/>
<path d="M927.259 141.674C907.746 126.324 871.683 116.347 844.974 118.606C843.852 118.713 842.701 118.82 841.607 118.969C814.639 122.423 809.286 138.199 829.634 154.188C849.982 170.199 888.318 180.368 915.286 176.915C916.38 176.765 917.445 176.616 918.481 176.424C942.657 172.16 946.772 157.024 927.259 141.674Z" fill="url(#paint4_linear_0_4)"/>
<path d="M925.101 141.973C924.468 141.483 923.835 140.992 923.144 140.502C904.12 126.666 871.137 117.84 846.471 119.929C846.241 119.929 846.04 119.972 845.809 119.993C844.946 120.078 844.111 120.164 843.277 120.27C838.154 120.931 833.837 122.04 830.383 123.532C822.18 127.092 818.727 132.742 820.453 139.287C821.49 143.124 824.281 147.282 828.973 151.503C829.836 152.292 830.786 153.102 831.822 153.891C832.743 154.637 833.721 155.34 834.729 156.044C836.83 157.536 839.132 158.943 841.521 160.308C858.329 169.773 881.584 175.956 901.529 176.233C904.379 176.276 907.17 176.19 909.847 175.977C911.113 175.871 912.38 175.743 913.617 175.593C914.682 175.466 915.69 175.295 916.668 175.124C916.956 175.082 917.215 175.018 917.503 174.975C924.036 173.739 928.986 171.628 932.21 168.921C937.764 164.294 938.398 157.899 933.764 150.948C931.807 148.006 928.9 144.979 925.043 141.952H925.101V141.973Z" fill="#ECECEC"/>
<path d="M925.101 141.973C924.468 141.483 923.835 140.992 923.144 140.502C904.12 126.666 871.137 117.84 846.471 119.929C846.241 119.929 846.04 119.972 845.809 119.993C844.946 120.078 844.111 120.164 843.277 120.27C838.154 120.931 833.837 122.04 830.383 123.532C822.18 127.092 818.727 132.742 820.453 139.287C821.49 143.124 824.281 147.282 828.973 151.503C829.836 152.292 830.786 153.102 831.822 153.891C832.743 154.637 833.721 155.34 834.729 156.044C836.83 157.536 839.132 158.943 841.521 160.308C858.329 169.773 881.584 175.956 901.529 176.233C904.379 176.276 907.17 176.19 909.847 175.977C911.113 175.871 912.38 175.743 913.617 175.593C914.682 175.466 915.69 175.295 916.668 175.124C916.956 175.082 917.215 175.018 917.503 174.975C924.036 173.739 928.986 171.628 932.21 168.921C937.764 164.294 938.398 157.899 933.764 150.948C931.807 148.006 928.9 144.979 925.043 141.952H925.101V141.973Z" fill="#ECB0B0"/>
<path d="M920.496 145.49C921.158 145.981 921.82 146.471 922.453 146.961C926.31 150.01 929.217 153.037 931.174 155.958C933.879 160.03 934.771 163.889 933.966 167.321C933.476 167.876 932.901 168.43 932.296 168.963C929.044 171.67 924.122 173.781 917.589 175.017C917.33 175.081 917.042 175.124 916.755 175.167C915.776 175.337 914.769 175.486 913.704 175.636C912.466 175.785 911.2 175.934 909.934 176.019C907.257 176.233 904.465 176.318 901.616 176.275C881.671 175.998 858.416 169.816 841.608 160.35C839.19 159.007 836.916 157.578 834.815 156.086C833.808 155.382 832.829 154.658 831.908 153.933C830.901 153.123 829.951 152.334 829.059 151.545C824.368 147.324 821.576 143.167 820.54 139.329C820.022 137.325 819.964 135.406 820.396 133.594C822.123 131.633 824.598 129.927 827.793 128.542C831.246 127.049 835.564 125.919 840.687 125.28C841.521 125.173 842.385 125.088 843.219 125.003C843.45 125.003 843.651 124.96 843.881 124.939C868.547 122.849 901.529 131.697 920.554 145.512H920.496V145.49Z" fill="url(#paint5_linear_0_4)"/>
<path d="M953.68 177.747C936.498 190.027 907.861 188.449 885.671 184.995C852.343 179.005 819.59 166.021 802.408 145.534V145.576C797.918 139.735 795.069 132.891 797.256 126.282C794.839 132.913 797.429 139.905 801.919 145.832V145.789C815.417 162.866 840.571 174.57 866.877 181.734C893.701 188.364 931.404 193.481 953.68 177.747Z" fill="url(#paint6_linear_0_4)" fill-opacity="0.92"/>
<path d="M709.503 194.61L713.647 195.825L710.251 202.093C709.848 202.839 709.33 203.542 708.639 204.203C708.409 204.438 708.15 204.651 707.891 204.864C706.654 205.866 705.071 206.719 703.142 207.423C702.509 207.657 701.818 207.87 701.099 208.083C700.379 208.297 699.631 208.467 698.825 208.638C697.818 208.851 696.782 209.021 695.659 209.149C694.479 209.299 693.299 209.405 692.062 209.469C691.141 209.512 690.191 209.554 689.241 209.554C675.282 209.661 658.532 205.227 646.962 198.341C646.185 197.872 645.408 197.403 644.688 196.912C643.623 196.209 642.616 195.484 641.695 194.738C640.918 194.119 640.227 193.522 639.565 192.925C638.99 192.392 638.472 191.881 638.011 191.348C637.551 190.836 637.119 190.325 636.716 189.813C635.565 188.278 634.788 186.786 634.356 185.357C634.27 185.059 634.183 184.739 634.126 184.44C633.895 183.119 633.982 181.861 634.385 180.688C634.5 180.326 634.672 179.963 634.874 179.601L638.069 173.674L641.868 174.783C642.299 174.634 642.76 174.484 643.22 174.335C644.976 173.802 646.962 173.397 649.149 173.12C650.444 172.949 651.768 172.843 653.121 172.779C654.848 172.694 656.661 172.694 658.474 172.779C670.793 173.227 684.809 176.936 695.371 182.564C696.954 183.396 698.422 184.27 699.832 185.187C701.012 185.954 702.106 186.743 703.142 187.553C704.725 188.811 706.049 190.069 707.143 191.305C708.121 192.435 708.927 193.544 709.503 194.61Z" fill="url(#paint7_linear_0_4)"/>
<path d="M706.739 180.859C705.703 180.049 704.609 179.26 703.429 178.493C702.019 177.576 700.551 176.702 698.968 175.871C688.406 170.242 674.418 166.511 662.071 166.085C660.229 166.021 658.445 166.021 656.718 166.085C655.365 166.149 654.041 166.256 652.746 166.426C650.53 166.703 648.544 167.108 646.817 167.641C644.803 168.238 643.105 169.006 641.723 169.88C639.68 171.18 638.327 172.758 637.694 174.527C637.291 175.7 637.205 176.958 637.435 178.28C637.492 178.578 637.55 178.898 637.665 179.196C638.068 180.625 638.845 182.117 640.025 183.631C640.428 184.142 640.831 184.654 641.32 185.187C641.809 185.699 642.328 186.232 642.874 186.765C643.536 187.362 644.227 187.98 645.004 188.577C645.954 189.323 646.932 190.048 647.997 190.751C648.717 191.242 649.494 191.711 650.271 192.18C661.841 199.066 678.591 203.522 692.55 203.394C693.5 203.394 694.45 203.351 695.371 203.308C696.608 203.244 697.788 203.138 698.968 202.989C700.091 202.839 701.127 202.669 702.134 202.477C702.94 202.306 703.688 202.136 704.408 201.923C705.127 201.731 705.818 201.496 706.451 201.262C708.38 200.558 709.963 199.684 711.2 198.703C711.459 198.49 711.718 198.277 711.949 198.043C712.956 197.062 713.675 195.953 714.078 194.781C714.683 192.99 714.539 191.029 713.618 188.939C713.013 187.532 712.064 186.061 710.74 184.59C709.646 183.354 708.322 182.096 706.739 180.838V180.859Z" fill="url(#paint8_linear_0_4)"/>
<path d="M698.796 181.776C689.615 174.57 672.692 169.88 660.144 170.946C659.626 170.988 659.079 171.052 658.561 171.116C645.897 172.737 643.393 180.156 652.948 187.66C662.504 195.186 680.521 199.961 693.184 198.341C693.702 198.277 694.192 198.192 694.681 198.106C706.02 196.102 707.978 189.003 698.796 181.776Z" fill="url(#paint9_linear_0_4)"/>
<path d="M697.789 181.904C697.501 181.669 697.185 181.435 696.868 181.222C687.946 174.719 672.433 170.583 660.834 171.543C660.719 171.543 660.633 171.543 660.518 171.564L659.309 171.692C656.891 171.991 654.877 172.523 653.265 173.227C649.408 174.89 647.797 177.555 648.603 180.625C649.092 182.437 650.416 184.377 652.603 186.36C653.006 186.743 653.467 187.106 653.927 187.49C654.359 187.831 654.819 188.172 655.308 188.513C656.316 189.216 657.381 189.877 658.503 190.517C666.418 194.973 677.326 197.872 686.708 198C688.061 198 689.356 198 690.623 197.893C691.227 197.851 691.803 197.787 692.407 197.723C692.896 197.659 693.386 197.595 693.846 197.51C693.99 197.488 694.105 197.467 694.22 197.446C697.3 196.87 699.602 195.868 701.128 194.589C703.718 192.414 704.035 189.408 701.847 186.146C700.926 184.761 699.574 183.354 697.76 181.925L697.789 181.904Z" fill="#ECECEC"/>
<path d="M697.789 181.904C697.501 181.669 697.185 181.435 696.868 181.222C687.946 174.719 672.433 170.583 660.834 171.543C660.719 171.543 660.633 171.543 660.518 171.564L659.309 171.692C656.891 171.991 654.877 172.523 653.265 173.227C649.408 174.89 647.797 177.555 648.603 180.625C649.092 182.437 650.416 184.377 652.603 186.36C653.006 186.743 653.467 187.106 653.927 187.49C654.359 187.831 654.819 188.172 655.308 188.513C656.316 189.216 657.381 189.877 658.503 190.517C666.418 194.973 677.326 197.872 686.708 198C688.061 198 689.356 198 690.623 197.893C691.227 197.851 691.803 197.787 692.407 197.723C692.896 197.659 693.386 197.595 693.846 197.51C693.99 197.488 694.105 197.467 694.22 197.446C697.3 196.87 699.602 195.868 701.128 194.589C703.718 192.414 704.035 189.408 701.847 186.146C700.926 184.761 699.574 183.354 697.76 181.925L697.789 181.904Z" fill="#CF3837"/>
<path d="M695.602 183.545C695.918 183.78 696.235 183.993 696.523 184.228C698.336 185.656 699.689 187.084 700.61 188.449C701.876 190.346 702.308 192.18 701.905 193.779C701.674 194.034 701.415 194.29 701.128 194.546C699.602 195.825 697.271 196.806 694.22 197.403C694.105 197.424 693.961 197.446 693.846 197.467C693.385 197.552 692.896 197.616 692.407 197.68C691.831 197.744 691.227 197.808 690.623 197.851C689.356 197.957 688.061 197.979 686.708 197.957C677.326 197.829 666.418 194.93 658.503 190.474C657.381 189.835 656.316 189.174 655.308 188.47C654.819 188.129 654.387 187.809 653.927 187.447C653.438 187.063 653.006 186.701 652.603 186.317C650.387 184.334 649.092 182.373 648.602 180.582C648.343 179.644 648.343 178.727 648.545 177.896C649.351 176.979 650.502 176.169 652.027 175.529C653.639 174.826 655.683 174.293 658.071 173.994L659.28 173.867C659.28 173.867 659.482 173.867 659.597 173.845C671.195 172.865 686.68 177.022 695.63 183.524L695.602 183.545Z" fill="url(#paint10_linear_0_4)"/>
<path d="M711.201 198.703C703.142 204.459 689.673 203.734 679.254 202.114C663.597 199.3 648.2 193.203 640.141 183.566C638.011 180.837 636.659 177.64 637.695 174.527C636.572 177.64 637.781 180.923 639.882 183.716C646.243 191.732 658.072 197.211 670.419 200.579C683.025 203.692 700.725 206.101 711.201 198.703Z" fill="url(#paint11_linear_0_4)"/>
<path d="M920.064 301.484L916.351 303.509L921.993 309.137C922.654 309.798 923.432 310.416 924.353 310.928C924.669 311.099 924.986 311.269 925.331 311.44C926.914 312.186 928.814 312.762 931.001 313.081C931.72 313.188 932.498 313.273 933.303 313.337C934.109 313.401 934.915 313.444 935.779 313.444C936.843 313.444 937.966 313.444 939.146 313.337C940.355 313.252 941.592 313.124 942.859 312.953C943.808 312.826 944.758 312.676 945.708 312.484C959.753 309.862 974.978 302.123 984.131 292.956C984.764 292.338 985.339 291.698 985.915 291.059C986.721 290.142 987.469 289.225 988.16 288.308C988.707 287.541 989.196 286.795 989.656 286.07C990.031 285.43 990.376 284.812 990.664 284.194C990.952 283.576 991.211 282.979 991.412 282.382C992.045 280.612 992.276 278.971 992.189 277.457C992.189 277.137 992.132 276.817 992.074 276.498C991.844 275.133 991.297 273.875 990.462 272.788C990.203 272.447 989.916 272.106 989.599 271.807L984.274 266.478L980.878 268.332C980.389 268.268 979.9 268.204 979.382 268.162C977.453 267.97 975.295 267.949 972.992 268.119C971.64 268.204 970.287 268.354 968.905 268.546C967.121 268.801 965.337 269.143 963.523 269.569C951.32 272.426 938.57 278.885 929.994 286.603C928.727 287.754 927.547 288.927 926.454 290.121C925.561 291.123 924.727 292.125 923.978 293.148C922.827 294.726 921.935 296.239 921.302 297.689C920.697 299.011 920.323 300.269 920.122 301.462H920.064V301.484Z" fill="url(#paint12_linear_0_4)"/>
<path d="M915.228 291.698C914.451 293.446 914.02 295.088 913.905 296.623C913.732 298.882 914.307 300.908 915.545 302.571C916.351 303.679 917.445 304.639 918.826 305.427C919.143 305.598 919.459 305.769 919.805 305.939C921.388 306.685 923.287 307.261 925.474 307.581C926.194 307.687 926.971 307.773 927.777 307.837C928.583 307.901 929.389 307.943 930.252 307.943C931.317 307.943 932.439 307.922 933.619 307.837C934.828 307.751 936.066 307.623 937.332 307.453C938.282 307.325 939.232 307.176 940.182 306.984C954.227 304.362 969.452 296.623 978.604 287.455C979.237 286.837 979.813 286.198 980.388 285.558C981.194 284.641 981.943 283.725 982.633 282.808C983.18 282.04 983.67 281.294 984.13 280.569C984.504 279.93 984.849 279.311 985.137 278.693C985.425 278.075 985.684 277.478 985.886 276.881C986.519 275.112 986.749 273.47 986.663 271.956C986.663 271.637 986.605 271.317 986.548 270.997C986.317 269.633 985.771 268.375 984.936 267.287C983.698 265.625 981.77 264.303 979.237 263.407C977.539 262.789 975.553 262.363 973.308 262.171C971.38 261.979 969.221 261.958 966.919 262.128C965.566 262.213 964.214 262.363 962.832 262.555C961.048 262.81 959.263 263.152 957.45 263.578C945.247 266.435 932.497 272.894 923.92 280.612C922.654 281.763 921.474 282.936 920.38 284.13C919.488 285.132 918.653 286.134 917.905 287.157C916.754 288.735 915.862 290.248 915.228 291.698Z" fill="url(#paint13_linear_0_4)"/>
<path d="M926.223 286.517C932.842 277.499 948.183 269.483 961.163 268.076C961.71 268.012 962.257 267.969 962.803 267.926C976.1 267.074 981.252 274.024 974.345 283.426C967.437 292.827 951.061 301.163 937.764 301.995C937.217 302.037 936.699 302.059 936.181 302.059C924.093 302.272 919.603 295.514 926.223 286.496V286.517Z" fill="url(#paint14_linear_0_4)"/>
<path d="M927.287 286.454C927.489 286.155 927.719 285.878 927.949 285.58C934.598 277.308 948.672 270.123 960.645 268.844C960.76 268.844 960.846 268.823 960.961 268.801C961.393 268.759 961.796 268.716 962.199 268.695C964.731 268.524 966.948 268.674 968.818 269.057C973.279 269.974 975.841 272.319 976.129 275.581C976.301 277.478 975.668 279.696 974.172 282.126C973.884 282.574 973.567 283.043 973.222 283.512C972.905 283.938 972.56 284.364 972.214 284.791C971.466 285.686 970.632 286.56 969.711 287.434C963.379 293.446 953.449 298.478 944.096 300.46C942.772 300.738 941.419 300.951 940.124 301.1C939.491 301.164 938.886 301.228 938.282 301.271C937.764 301.313 937.246 301.313 936.756 301.335H936.353C933.072 301.335 930.396 300.802 928.41 299.821C925.014 298.158 923.632 295.195 924.668 291.485C925.1 289.929 925.964 288.223 927.259 286.432H927.287V286.454Z" fill="#ECECEC"/>
<path d="M927.287 286.454C927.489 286.155 927.719 285.878 927.949 285.58C934.598 277.308 948.672 270.123 960.645 268.844C960.76 268.844 960.846 268.823 960.961 268.801C961.393 268.759 961.796 268.716 962.199 268.695C964.731 268.524 966.948 268.674 968.818 269.057C973.279 269.974 975.841 272.319 976.129 275.581C976.301 277.478 975.668 279.696 974.172 282.126C973.884 282.574 973.567 283.043 973.222 283.512C972.905 283.938 972.56 284.364 972.214 284.791C971.466 285.686 970.632 286.56 969.711 287.434C963.379 293.446 953.449 298.478 944.096 300.46C942.772 300.738 941.419 300.951 940.124 301.1C939.491 301.164 938.886 301.228 938.282 301.271C937.764 301.313 937.246 301.313 936.756 301.335H936.353C933.072 301.335 930.396 300.802 928.41 299.821C925.014 298.158 923.632 295.195 924.668 291.485C925.1 289.929 925.964 288.223 927.259 286.432H927.287V286.454Z" fill="#CF3837"/>
<path d="M930.051 287.711C929.821 288.009 929.591 288.286 929.389 288.585C928.065 290.376 927.23 292.06 926.799 293.637C926.194 295.791 926.425 297.709 927.403 299.244C927.72 299.458 928.094 299.671 928.468 299.863C930.454 300.843 933.131 301.376 936.412 301.376H936.815C937.304 301.376 937.822 301.355 938.34 301.312C938.944 301.27 939.549 301.227 940.182 301.142C941.477 300.992 942.801 300.779 944.154 300.502C953.507 298.541 963.437 293.488 969.769 287.476C970.69 286.623 971.524 285.728 972.273 284.833C972.618 284.406 972.963 283.98 973.28 283.553C973.625 283.084 973.942 282.615 974.23 282.168C975.726 279.737 976.36 277.52 976.187 275.623C976.101 274.621 975.813 273.725 975.295 272.915C974.143 272.148 972.704 271.572 970.949 271.21C969.078 270.826 966.862 270.698 964.329 270.847C963.926 270.868 963.494 270.911 963.091 270.954C962.976 270.954 962.89 270.975 962.775 270.996C950.802 272.276 936.728 279.481 930.08 287.732H930.051V287.711Z" fill="url(#paint15_linear_0_4)"/>
<path d="M919.805 305.96C929.965 310.16 943.204 306.791 953.076 303.146C967.783 297.262 981.051 288.137 985.714 276.902C986.865 273.747 987.066 270.271 984.937 267.351C987.182 270.25 987.124 273.789 986.002 276.987C982.49 286.261 972.59 294.085 961.394 299.884C949.853 305.469 932.958 311.354 919.805 305.981V305.96Z" fill="#CF3837"/>
</g>
<path d="M660.058 724.776L662.27 721.766H664.314L661.864 725.028C662.116 724.958 662.382 724.916 662.634 724.916C664.748 724.916 666.176 726.4 666.176 728.472C666.176 730.656 664.552 732.182 662.368 732.182C660.156 732.182 658.504 730.558 658.504 728.458C658.504 727.226 658.91 726.33 660.058 724.776ZM660.338 728.472C660.338 729.718 661.164 730.586 662.368 730.586C663.53 730.586 664.37 729.718 664.37 728.472C664.37 727.24 663.544 726.386 662.368 726.386C661.15 726.386 660.338 727.24 660.338 728.472ZM674.191 731.986L667.093 732V730.656L670.439 727.828C671.825 726.652 672.287 725.98 672.287 725C672.287 723.838 671.657 723.18 670.579 723.18C669.459 723.18 668.759 723.964 668.745 725.28H666.967C666.981 723.04 668.409 721.584 670.579 721.584C672.763 721.584 674.121 722.83 674.121 724.902C674.121 726.33 673.337 727.408 671.783 728.738L669.935 730.32H674.191V731.986ZM680.517 724.258C680.517 725.84 679.397 726.946 677.843 726.946C676.289 726.946 675.169 725.84 675.169 724.258C675.169 722.69 676.289 721.57 677.843 721.57C679.397 721.57 680.517 722.69 680.517 724.258ZM686.131 721.78L678.361 732H676.653L684.423 721.78H686.131ZM679.159 724.258C679.159 723.446 678.627 722.886 677.843 722.886C677.059 722.886 676.541 723.446 676.541 724.258C676.541 725.07 677.073 725.63 677.843 725.63C678.627 725.63 679.159 725.07 679.159 724.258ZM687.629 729.494C687.629 731.062 686.523 732.182 684.969 732.182C683.401 732.182 682.295 731.062 682.295 729.494C682.295 727.926 683.401 726.806 684.969 726.806C686.523 726.806 687.629 727.926 687.629 729.494ZM686.271 729.494C686.271 728.682 685.739 728.122 684.969 728.122C684.185 728.122 683.653 728.682 683.653 729.494C683.653 730.306 684.185 730.866 684.969 730.866C685.739 730.866 686.271 730.306 686.271 729.494Z" fill="white"/>
</g>
<defs>
<filter id="filter0_f_0_4" x="-155.181" y="-89.1807" width="1750" height="1296.13" filterUnits="userSpaceOnUse" color-interpolation-filters="sRGB">
<feFlood flood-opacity="0" result="BackgroundImageFix"/>
<feBlend mode="normal" in="SourceGraphic" in2="BackgroundImageFix" result="shape"/>
<feGaussianBlur stdDeviation="181.5" result="effect1_foregroundBlur_0_4"/>
</filter>
<linearGradient id="paint0_linear_0_4" x1="1355.59" y1="197.835" x2="121.413" y2="443.371" gradientUnits="userSpaceOnUse">
<stop stop-color="#F42D32"/>
<stop offset="0.145833" stop-color="#FCA12E"/>
<stop offset="0.484375" stop-color="#FCA12E"/>
<stop offset="1" stop-color="#FCCB4C"/>
</linearGradient>
<linearGradient id="paint1_linear_0_4" x1="720" y1="161.5" x2="720" y2="1210" gradientUnits="userSpaceOnUse">
<stop stop-color="#FD7073"/>
<stop offset="0.21892" stop-color="#F0BF92"/>
<stop offset="0.686866" stop-color="white" stop-opacity="0"/>
</linearGradient>
<linearGradient id="paint2_linear_0_4" x1="789.284" y1="161.629" x2="958.832" y2="161.629" gradientUnits="userSpaceOnUse">
<stop stop-color="#D24236"/>
<stop offset="1" stop-color="#DD8E56"/>
</linearGradient>
<linearGradient id="paint3_linear_0_4" x1="796.45" y1="147.942" x2="960.587" y2="147.942" gradientUnits="userSpaceOnUse">
<stop stop-color="#EE5A55"/>
<stop offset="1" stop-color="#F0BF92"/>
</linearGradient>
<linearGradient id="paint4_linear_0_4" x1="817.287" y1="147.963" x2="939.606" y2="147.963" gradientUnits="userSpaceOnUse">
<stop stop-color="#D24236"/>
<stop offset="1" stop-color="#DD8E56"/>
</linearGradient>
<linearGradient id="paint5_linear_0_4" x1="799.328" y1="176.286" x2="935.517" y2="151.37" gradientUnits="userSpaceOnUse">
<stop offset="0.09375" stop-color="#FB6064"/>
<stop offset="1" stop-color="#FECB47"/>
</linearGradient>
<linearGradient id="paint6_linear_0_4" x1="796.335" y1="157.217" x2="953.68" y2="157.217" gradientUnits="userSpaceOnUse">
<stop stop-color="#D24236"/>
<stop offset="1" stop-color="#DD8E56"/>
</linearGradient>
<linearGradient id="paint7_linear_0_4" x1="634.01" y1="191.135" x2="713.647" y2="191.135" gradientUnits="userSpaceOnUse">
<stop stop-color="#D24236"/>
<stop offset="1" stop-color="#DD8E56"/>
</linearGradient>
<linearGradient id="paint8_linear_0_4" x1="637.32" y1="184.739" x2="714.452" y2="184.739" gradientUnits="userSpaceOnUse">
<stop stop-color="#EE5A55"/>
<stop offset="1" stop-color="#F0BF92"/>
</linearGradient>
<linearGradient id="paint9_linear_0_4" x1="647.135" y1="184.739" x2="704.61" y2="184.739" gradientUnits="userSpaceOnUse">
<stop stop-color="#D24236"/>
<stop offset="1" stop-color="#DD8E56"/>
</linearGradient>
<linearGradient id="paint10_linear_0_4" x1="638.633" y1="197.965" x2="702.643" y2="186.246" gradientUnits="userSpaceOnUse">
<stop offset="0.6896" stop-color="#F42D32"/>
<stop offset="1" stop-color="#FCCB4C"/>
</linearGradient>
<linearGradient id="paint11_linear_0_4" x1="637.263" y1="189.067" x2="711.201" y2="189.067" gradientUnits="userSpaceOnUse">
<stop stop-color="#D24236"/>
<stop offset="1" stop-color="#DD8E56"/>
</linearGradient>
<linearGradient id="paint12_linear_0_4" x1="916.351" y1="289.971" x2="992.218" y2="289.971" gradientUnits="userSpaceOnUse">
<stop stop-color="#D24236"/>
<stop offset="1" stop-color="#DD8E56"/>
</linearGradient>
<linearGradient id="paint13_linear_0_4" x1="913.876" y1="284.982" x2="986.691" y2="284.982" gradientUnits="userSpaceOnUse">
<stop stop-color="#EE5A55"/>
<stop offset="1" stop-color="#F0BF92"/>
</linearGradient>
<linearGradient id="paint14_linear_0_4" x1="923.172" y1="284.982" x2="977.424" y2="284.982" gradientUnits="userSpaceOnUse">
<stop stop-color="#D24236"/>
<stop offset="1" stop-color="#DD8E56"/>
</linearGradient>
<linearGradient id="paint15_linear_0_4" x1="917.41" y1="301.376" x2="977.661" y2="293.264" gradientUnits="userSpaceOnUse">
<stop offset="0.6896" stop-color="#F42D32"/>
<stop offset="1" stop-color="#FCCB4C"/>
</linearGradient>
<clipPath id="clip0_0_4">
<rect width="1440" height="800" fill="white"/>
</clipPath>
</defs>
</svg>
