<svg width="1326" height="207" viewBox="0 0 1326 207" fill="none" xmlns="http://www.w3.org/2000/svg">
<path opacity="0.2" d="M137.687 62.2148V63.2148H138.812L138.68 62.0977L137.687 62.2148ZM105.179 62.2148L104.189 62.3546L104.31 63.2148H105.179V62.2148ZM101.542 51.0078L100.667 51.4912L100.67 51.4968L101.542 51.0078ZM94.4917 42.5469L93.8621 43.3238L93.8621 43.3238L94.4917 42.5469ZM84.5464 37.2031L84.2302 38.1518L84.2339 38.153L84.5464 37.2031ZM51.8901 41.2109L52.4416 42.0452L52.4465 42.0419L51.8901 41.2109ZM38.3081 58.1328L39.2247 58.5327L39.2257 58.5304L38.3081 58.1328ZM38.3081 112.312L37.3915 112.712L37.3938 112.717L38.3081 112.312ZM51.9644 129.012L51.4229 129.852L51.9644 129.012ZM84.1753 132.945L83.8821 131.989L83.8785 131.99L84.1753 132.945ZM94.0464 127.973L94.6508 128.769L94.6594 128.763L94.0464 127.973ZM101.171 119.883L100.317 119.362L100.312 119.372L101.171 119.883ZM105.179 109.047L105.184 108.047L104.346 108.043L104.196 108.867L105.179 109.047ZM137.687 109.195L138.68 109.315L138.814 108.2L137.692 108.195L137.687 109.195ZM131.378 129.383L130.491 128.922L130.49 128.925L131.378 129.383ZM117.945 146.676L118.615 147.418L118.615 147.418L117.945 146.676ZM97.9058 158.699L98.2595 159.635L98.2627 159.633L97.9058 158.699ZM35.3394 153.875L34.8398 154.741L34.8415 154.742L35.3394 153.875ZM10.105 127.23L9.22055 127.697L9.22211 127.7L10.105 127.23ZM10.2534 42.6953L11.1347 43.1678L10.2534 42.6953ZM35.6362 16.125L36.1311 16.994L36.1341 16.9923L35.6362 16.125ZM96.1987 10.6328L95.8863 11.5827L95.8881 11.5833L96.1987 10.6328ZM116.312 21.4687L115.681 22.2445L115.685 22.2477L116.312 21.4687ZM130.562 38.7617L129.681 39.2343L129.683 39.2392L130.562 38.7617ZM137.687 61.2148H105.179V63.2148H137.687V61.2148ZM106.169 62.0751C105.561 57.763 104.314 53.9061 102.415 50.5188L100.67 51.4968C102.433 54.6408 103.61 58.2552 104.189 62.3546L106.169 62.0751ZM102.418 50.5244C100.526 47.0994 98.0937 44.1786 95.1213 41.7699L93.8621 43.3238C96.6293 45.5662 98.897 48.286 100.667 51.4912L102.418 50.5244ZM95.1213 41.7699C92.1506 39.3626 88.7263 37.5254 84.8589 36.2532L84.2339 38.153C87.8873 39.3548 91.0932 41.08 93.8621 43.3238L95.1213 41.7699ZM84.8626 36.2544C81.0389 34.9799 76.8983 34.3477 72.4487 34.3477V36.3477C76.7075 36.3477 80.632 36.9524 84.2302 38.1518L84.8626 36.2544ZM72.4487 34.3477C64.408 34.3477 57.3563 36.348 51.3338 40.38L52.4465 42.0419C58.1011 38.2562 64.7551 36.3477 72.4487 36.3477V34.3477ZM51.3387 40.3767C45.3144 44.3589 40.6715 50.1638 37.3906 57.7352L39.2257 58.5304C42.377 51.2581 46.7888 45.7817 52.4416 42.0452L51.3387 40.3767ZM37.3915 57.733C34.1061 65.2641 32.4839 74.364 32.4839 85H34.4839C34.4839 74.5578 36.0778 65.7463 39.2247 58.5327L37.3915 57.733ZM32.4839 85C32.4839 95.9284 34.1048 105.178 37.3915 112.712L39.2247 111.913C36.0791 104.702 34.4839 95.7435 34.4839 85H32.4839ZM37.3938 112.717C40.7255 120.239 45.3951 125.97 51.4229 129.852L52.5058 128.171C46.8566 124.532 42.422 119.131 39.2224 111.908L37.3938 112.717ZM51.4229 129.852C57.4395 133.728 64.3855 135.652 72.2261 135.652V133.652C64.7281 133.652 58.1663 131.817 52.5058 128.171L51.4229 129.852ZM72.2261 135.652C76.6192 135.652 80.7036 135.072 84.4721 133.9L83.8785 131.99C80.3241 133.095 76.4423 133.652 72.2261 133.652V135.652ZM84.4685 133.901C88.283 132.732 91.6804 131.023 94.6508 128.769L93.442 127.176C90.6728 129.277 87.4895 130.883 83.8821 131.989L84.4685 133.901ZM94.6594 128.763C97.6297 126.458 100.088 123.666 102.031 120.393L100.312 119.372C98.4944 122.433 96.2027 125.034 93.4334 127.183L94.6594 128.763ZM102.025 120.403C104.026 117.121 105.401 113.391 106.163 109.227L104.196 108.867C103.473 112.817 102.177 116.311 100.317 119.362L102.025 120.403ZM105.175 110.047L137.682 110.195L137.692 108.195L105.184 108.047L105.175 110.047ZM136.694 109.076C135.868 115.928 133.802 122.543 130.491 128.922L132.266 129.844C135.684 123.26 137.824 116.415 138.68 109.315L136.694 109.076ZM130.49 128.925C127.232 135.245 122.83 140.914 117.274 145.934L118.615 147.418C124.341 142.245 128.894 136.386 132.267 129.841L130.49 128.925ZM117.275 145.933C111.784 150.889 105.214 154.836 97.5488 157.765L98.2627 159.633C106.134 156.625 112.923 152.556 118.615 147.418L117.275 145.933ZM97.552 157.764C89.9648 160.633 81.3545 162.078 71.7065 162.078V164.078C81.5534 164.078 90.4093 162.604 98.2595 159.635L97.552 157.764ZM71.7065 162.078C58.306 162.078 46.3584 159.048 35.8372 153.008L34.8415 154.742C45.6953 160.973 57.9925 164.078 71.7065 164.078V162.078ZM35.839 153.009C25.3752 146.974 17.0914 138.235 10.9879 126.761L9.22211 127.7C15.4884 139.481 24.0275 148.505 34.8398 154.741L35.839 153.009ZM10.9894 126.764C4.94693 115.312 1.90186 101.404 1.90186 85H-0.0981445C-0.0981445 101.648 2.99219 115.893 9.22055 127.697L10.9894 126.764ZM1.90186 85C1.90186 68.5479 4.99575 54.6175 11.1347 43.1678L9.37211 42.2228C3.04234 54.0283 -0.0981445 68.301 -0.0981445 85H1.90186ZM11.1347 43.1678C17.2869 31.6935 25.6191 22.98 36.1311 16.994L35.1414 15.256C24.2783 21.4419 15.6887 30.4419 9.37211 42.2228L11.1347 43.1678ZM36.1341 16.9923C46.6575 10.951 58.5067 7.92187 71.7065 7.92187V5.92187C58.1876 5.92187 45.99 9.02811 35.1384 15.2577L36.1341 16.9923ZM71.7065 7.92187C80.4195 7.92187 88.4769 9.14545 95.8863 11.5827L96.5112 9.68288C88.8789 7.17225 80.6082 5.92187 71.7065 5.92187V7.92187ZM95.8881 11.5833C103.349 14.0214 109.943 17.5763 115.681 22.2445L116.943 20.693C111.004 15.8612 104.189 12.1921 96.5094 9.68228L95.8881 11.5833ZM115.685 22.2477C121.416 26.8613 126.08 32.5202 129.681 39.2343L131.443 38.2891C127.721 31.347 122.886 25.4772 116.939 20.6898L115.685 22.2477ZM129.683 39.2392C133.326 45.941 135.668 53.6333 136.694 62.332L138.68 62.0977C137.628 53.1818 135.22 45.2387 131.441 38.2842L129.683 39.2392ZM181.736 155.879L181.227 156.74L181.233 156.743L181.736 155.879ZM162.365 135.246L161.475 135.703L161.476 135.705L162.365 135.246ZM162.365 73.5703L163.253 74.0295L163.254 74.0274L162.365 73.5703ZM181.736 52.9375L182.241 53.8003L182.243 53.7994L181.736 52.9375ZM241.482 52.9375L240.973 53.7981L240.979 53.8016L241.482 52.9375ZM260.927 73.5703L260.038 74.0274L260.039 74.0295L260.927 73.5703ZM260.927 135.246L261.816 135.705L261.817 135.703L260.927 135.246ZM241.482 155.879L241.987 156.742L241.989 156.741L241.482 155.879ZM224.931 134.281L225.577 135.045L225.583 135.04L224.931 134.281ZM232.873 121.961L231.929 121.629L231.927 121.637L232.873 121.961ZM232.873 86.4844L231.927 86.8087L231.929 86.8167L232.873 86.4844ZM198.435 74.1641L197.794 73.3967L197.789 73.4011L198.435 74.1641ZM190.345 86.4844L189.402 86.152L189.399 86.16L190.345 86.4844ZM190.345 121.961L189.399 122.285L189.402 122.293L190.345 121.961ZM198.435 134.281L197.789 135.044L197.794 135.049L197.8 135.054L198.435 134.281ZM211.646 162.227C200.261 162.227 190.472 159.809 182.239 155.015L181.233 156.743C189.823 161.746 199.973 164.227 211.646 164.227V162.227ZM182.245 155.018C174.048 150.168 167.721 143.431 163.253 134.787L161.476 135.705C166.113 144.676 172.7 151.694 181.227 156.74L182.245 155.018ZM163.254 134.789C158.786 126.096 156.537 115.991 156.537 104.445H154.537C154.537 116.254 156.839 126.683 161.475 135.703L163.254 134.789ZM156.537 104.445C156.537 92.7992 158.787 82.6705 163.253 74.0295L161.476 73.1112C156.838 82.0847 154.537 92.5394 154.537 104.445H156.537ZM163.254 74.0274C167.722 65.3347 174.048 58.6 182.241 53.8003L181.23 52.0746C172.7 57.0719 166.112 64.0924 161.475 73.1132L163.254 74.0274ZM182.243 53.7994C190.475 48.9571 200.263 46.5156 211.646 46.5156V44.5156C199.972 44.5156 189.82 47.022 181.229 52.0756L182.243 53.7994ZM211.646 46.5156C223.029 46.5156 232.791 48.9572 240.973 53.7981L241.991 52.0769C233.448 47.022 223.32 44.5156 211.646 44.5156V46.5156ZM240.979 53.8016C249.221 58.6017 255.571 65.3363 260.038 74.0274L261.817 73.1132C257.179 64.0908 250.566 57.0701 241.985 52.0733L240.979 53.8016ZM260.039 74.0295C264.505 82.6705 266.755 92.7992 266.755 104.445H268.755C268.755 92.5394 266.454 82.0847 261.816 73.1112L260.039 74.0295ZM266.755 104.445C266.755 115.991 264.506 126.096 260.038 134.789L261.817 135.703C266.453 126.683 268.755 116.254 268.755 104.445H266.755ZM260.039 134.787C255.572 143.43 249.221 150.166 240.975 155.017L241.989 156.741C250.566 151.696 257.178 144.677 261.816 135.705L260.039 134.787ZM240.976 155.016C232.795 159.809 223.031 162.227 211.646 162.227V164.227C223.318 164.227 233.445 161.746 241.987 156.742L240.976 155.016ZM211.794 139.734C217.24 139.734 221.858 138.188 225.577 135.045L224.286 133.517C220.978 136.312 216.838 137.734 211.794 137.734V139.734ZM225.583 135.04C229.254 131.886 231.99 127.617 233.819 122.285L231.927 121.637C230.192 126.695 227.634 130.64 224.279 133.523L225.583 135.04ZM233.816 122.293C235.691 116.972 236.619 110.944 236.619 104.223H234.619C234.619 110.762 233.716 116.559 231.929 121.629L233.816 122.293ZM236.619 104.223C236.619 97.5016 235.691 91.4733 233.816 86.152L231.929 86.8167C233.716 91.886 234.619 97.6833 234.619 104.223H236.619ZM233.819 86.16C231.99 80.8279 229.254 76.5597 225.583 73.4056L224.279 74.9226C227.634 77.8049 230.192 81.7502 231.927 86.8087L233.819 86.16ZM225.583 73.4056C221.864 70.2109 217.245 68.6367 211.794 68.6367V70.6367C216.834 70.6367 220.972 72.0808 224.279 74.9226L225.583 73.4056ZM211.794 68.6367C206.297 68.6367 201.608 70.2094 197.794 73.3967L199.076 74.9314C202.486 72.0823 206.703 70.6367 211.794 70.6367V68.6367ZM197.789 73.4011C194.068 76.5531 191.281 80.8197 189.402 86.152L191.288 86.8167C193.071 81.7584 195.677 77.8115 199.081 74.927L197.789 73.4011ZM189.399 86.16C187.576 91.4788 186.673 97.5042 186.673 104.223H188.673C188.673 97.6807 189.552 91.8806 191.291 86.8087L189.399 86.16ZM186.673 104.223C186.673 110.941 187.576 116.966 189.399 122.285L191.291 121.637C189.552 116.565 188.673 110.765 188.673 104.223H186.673ZM189.402 122.293C191.281 127.626 194.068 131.892 197.789 135.044L199.081 133.518C195.677 130.634 193.071 126.687 191.288 121.629L189.402 122.293ZM197.8 135.054C201.615 138.189 206.301 139.734 211.794 139.734V137.734C206.699 137.734 202.48 136.311 199.07 133.509L197.8 135.054ZM288.314 161H287.314V162H288.314V161ZM288.314 47V46H287.314V47H288.314ZM318.447 47H319.447V46H318.447V47ZM318.447 67.1133H317.447V68.1133H318.447V67.1133ZM319.783 67.1133V68.1133H320.488L320.725 67.4483L319.783 67.1133ZM331.658 51.3047L331.086 50.4841V50.4841L331.658 51.3047ZM371.513 51.3789L370.933 52.1936L370.938 52.1971L371.513 51.3789ZM382.498 67.1133L381.534 67.3794L381.736 68.1133H382.498V67.1133ZM383.685 67.1133V68.1133H384.391L384.627 67.4487L383.685 67.1133ZM396.302 51.4531L396.843 52.2945L396.844 52.2934L396.302 51.4531ZM443.951 55.6836L443.236 56.3828L443.241 56.3881L443.951 55.6836ZM453.97 161V162H454.97V161H453.97ZM422.427 161H421.427V162H422.427V161ZM417.38 76.3164L416.695 77.0446V77.0446L417.38 76.3164ZM391.33 77.0586L392.076 77.7236L392.081 77.7185L391.33 77.0586ZM386.505 161V162H387.505V161H386.505ZM355.853 161H354.853V162H355.853V161ZM351.029 76.5391L350.306 77.2298L350.311 77.2354L351.029 76.5391ZM328.986 74.2383L329.516 75.0863L329.52 75.0838L328.986 74.2383ZM322.38 81.5859L323.266 82.05L323.269 82.0442L322.38 81.5859ZM319.931 161V162H320.931V161H319.931ZM289.314 161V47H287.314V161H289.314ZM288.314 48H318.447V46H288.314V48ZM317.447 47V67.1133H319.447V47H317.447ZM318.447 68.1133H319.783V66.1133H318.447V68.1133ZM320.725 67.4483C323.034 60.9548 326.868 55.8593 332.229 52.1253L331.086 50.4841C325.365 54.4688 321.282 59.9124 318.841 66.7783L320.725 67.4483ZM332.229 52.1253C337.58 48.3989 344.004 46.5156 351.548 46.5156V44.5156C343.655 44.5156 336.819 46.4918 331.086 50.4841L332.229 52.1253ZM351.548 46.5156C359.193 46.5156 365.636 48.4238 370.933 52.1936L372.093 50.5642C366.406 46.5163 359.54 44.5156 351.548 44.5156V46.5156ZM370.938 52.1971C376.236 55.9196 379.763 60.9668 381.534 67.3794L383.461 66.8471C381.571 59.9994 377.775 54.557 372.088 50.5607L370.938 52.1971ZM382.498 68.1133H383.685V66.1133H382.498V68.1133ZM384.627 67.4487C386.875 61.1354 390.934 56.0894 396.843 52.2945L395.762 50.6117C389.498 54.6346 385.146 60.0287 382.743 66.7779L384.627 67.4487ZM396.844 52.2934C402.796 48.4539 409.85 46.5156 418.048 46.5156V44.5156C409.523 44.5156 402.08 46.5357 395.76 50.6128L396.844 52.2934ZM418.048 46.5156C428.453 46.5156 436.817 49.8208 443.236 56.3828L444.666 54.9844C437.824 47.9891 428.919 44.5156 418.048 44.5156V46.5156ZM443.241 56.3881C449.683 62.8779 452.97 72.1426 452.97 84.332H454.97C454.97 71.7819 451.578 61.9476 444.66 54.9791L443.241 56.3881ZM452.97 84.332V161H454.97V84.332H452.97ZM453.97 160H422.427V162H453.97V160ZM423.427 161V90.5664H421.427V161H423.427ZM423.427 90.5664C423.427 84.0629 421.697 79.0057 418.066 75.5882L416.695 77.0446C419.793 79.9604 421.427 84.4032 421.427 90.5664H423.427ZM418.066 75.5882C414.498 72.2301 410.039 70.5664 404.763 70.5664V72.5664C409.581 72.5664 413.534 74.0693 416.695 77.0446L418.066 75.5882ZM404.763 70.5664C398.792 70.5664 394.018 72.4821 390.578 76.3987L392.081 77.7185C395.073 74.3122 399.255 72.5664 404.763 72.5664V70.5664ZM390.583 76.3936C387.169 80.228 385.505 85.2584 385.505 91.3828H387.505C387.505 85.6322 389.058 81.1131 392.076 77.7236L390.583 76.3936ZM385.505 91.3828V161H387.505V91.3828H385.505ZM386.505 160H355.853V162H386.505V160ZM356.853 161V89.8984H354.853V161H356.853ZM356.853 89.8984C356.853 84.1055 355.181 79.3824 351.747 75.8427L350.311 77.2354C353.309 80.3259 354.853 84.5091 354.853 89.8984H356.853ZM351.752 75.8483C348.371 72.3086 343.914 70.5664 338.486 70.5664V72.5664C343.448 72.5664 347.354 74.1393 350.306 77.2298L351.752 75.8483ZM338.486 70.5664C334.794 70.5664 331.441 71.5051 328.452 73.3928L329.52 75.0838C332.172 73.4089 335.151 72.5664 338.486 72.5664V70.5664ZM328.456 73.3903C325.519 75.2259 323.199 77.8161 321.492 81.1276L323.269 82.0442C324.827 79.0224 326.911 76.7142 329.516 75.0863L328.456 73.3903ZM321.495 81.1219C319.773 84.4077 318.931 88.2343 318.931 92.5703H320.931C320.931 88.4948 321.722 84.9985 323.266 82.0499L321.495 81.1219ZM318.931 92.5703V161H320.931V92.5703H318.931ZM319.931 160H288.314V162H319.931V160ZM478.945 161H477.945V162H478.945V161ZM478.945 47V46H477.945V47H478.945ZM510.562 47H511.562V46H510.562V47ZM510.562 161V162H511.562V161H510.562ZM482.73 27.6289L482.039 28.352L482.045 28.3573L482.05 28.3625L482.73 27.6289ZM482.73 5.06641L483.415 5.79493L483.415 5.79461L482.73 5.06641ZM506.851 5.06641L506.16 5.78952L506.166 5.79478L506.171 5.79997L506.851 5.06641ZM506.851 27.6289L507.536 28.3574L507.536 28.3571L506.851 27.6289ZM479.945 161V47H477.945V161H479.945ZM478.945 48H510.562V46H478.945V48ZM509.562 47V161H511.562V47H509.562ZM510.562 160H478.945V162H510.562V160ZM494.828 31.3047C490.372 31.3047 486.584 29.8366 483.41 26.8953L482.05 28.3625C485.605 31.6556 489.882 33.3047 494.828 33.3047V31.3047ZM483.421 26.9058C480.294 23.9191 478.757 20.3916 478.757 16.2734H476.757C476.757 20.9626 478.536 25.0054 482.039 28.352L483.421 26.9058ZM478.757 16.2734C478.757 12.2088 480.291 8.7327 483.415 5.79493L482.045 4.33789C478.539 7.63448 476.757 11.6297 476.757 16.2734H478.757ZM483.415 5.79461C486.591 2.80585 490.377 1.3164 494.828 1.3164V-0.683601C489.877 -0.683601 485.598 0.99361 482.045 4.33821L483.415 5.79461ZM494.828 1.3164C499.278 1.3164 503.036 2.8055 506.16 5.78952L507.542 4.3433C504.035 0.993965 499.778 -0.683601 494.828 -0.683601V1.3164ZM506.171 5.79997C509.344 8.73928 510.898 12.214 510.898 16.2734H512.898C512.898 11.6245 511.087 7.6279 507.531 4.33284L506.171 5.79997ZM510.898 16.2734C510.898 20.3865 509.341 23.9126 506.166 26.9007L507.536 28.3571C511.091 25.0119 512.898 20.9677 512.898 16.2734H510.898ZM506.166 26.9004C503.043 29.8369 499.283 31.3047 494.828 31.3047V33.3047C499.773 33.3047 504.029 31.6553 507.536 28.3574L506.166 26.9004ZM567.506 95.0938L566.506 95.0836V95.0938H567.506ZM567.506 161V162H568.506V161H567.506ZM535.889 161H534.889V162H535.889V161ZM535.889 47V46H534.889V47H535.889ZM566.022 47H567.022V46H566.022V47ZM566.022 67.1133H565.022V68.1133H566.022V67.1133ZM567.358 67.1133V68.1133H568.047L568.292 67.469L567.358 67.1133ZM580.049 51.3789L580.594 52.2174L580.599 52.2141L580.049 51.3789ZM622.354 50.7109L622.861 49.849L622.354 50.7109ZM636.084 65.5547L635.193 66.0074L635.194 66.0102L636.084 65.5547ZM640.983 161V162H641.983V161H640.983ZM609.366 161H608.366V162H609.366V161ZM609.366 94.0547L608.366 94.0476V94.0547H609.366ZM604.022 77.7266L603.283 78.4006L603.288 78.4052L604.022 77.7266ZM577.823 74.5352L577.334 73.6629L577.328 73.6661L577.823 74.5352ZM570.252 82.5508L569.366 82.0886L569.363 82.0934L570.252 82.5508ZM566.506 95.0938V161H568.506V95.0938H566.506ZM567.506 160H535.889V162H567.506V160ZM536.889 161V47H534.889V161H536.889ZM535.889 48H566.022V46H535.889V48ZM565.022 47V67.1133H567.022V47H565.022ZM566.022 68.1133H567.358V66.1133H566.022V68.1133ZM568.292 67.469C570.741 61.0365 574.835 55.961 580.594 52.2173L579.504 50.5405C573.389 54.5156 569.022 59.9296 566.423 66.7576L568.292 67.469ZM580.599 52.2141C586.344 48.4318 593.344 46.5156 601.647 46.5156V44.5156C593.028 44.5156 585.629 46.5083 579.499 50.5437L580.599 52.2141ZM601.647 46.5156C609.414 46.5156 616.136 48.2133 621.847 51.5729L622.861 49.849C616.796 46.2815 609.713 44.5156 601.647 44.5156V46.5156ZM621.847 51.5729C627.561 54.934 632.009 59.7354 635.193 66.0074L636.976 65.102C633.629 58.5093 628.923 53.4149 622.861 49.849L621.847 51.5729ZM635.194 66.0102C638.373 72.2226 639.983 79.6791 639.983 88.4141H641.983C641.983 79.4355 640.328 71.6523 636.975 65.0992L635.194 66.0102ZM639.983 88.4141V161H641.983V88.4141H639.983ZM640.983 160H609.366V162H640.983V160ZM610.366 161V94.0547H608.366V161H610.366ZM610.366 94.0618C610.416 86.9125 608.589 81.1955 604.756 77.0479L603.288 78.4052C606.679 82.0753 608.414 87.2438 608.366 94.0476L610.366 94.0618ZM604.761 77.0525C600.925 72.8486 595.663 70.7891 589.104 70.7891V72.7891C595.212 72.7891 599.895 74.6878 603.283 78.4006L604.761 77.0525ZM589.104 70.7891C584.701 70.7891 580.768 71.7375 577.334 73.6629L578.312 75.4074C581.409 73.6713 584.996 72.7891 589.104 72.7891V70.7891ZM577.328 73.6661C573.933 75.5987 571.279 78.4177 569.366 82.0886L571.139 83.0129C572.888 79.6579 575.28 77.1331 578.317 75.4042L577.328 73.6661ZM569.363 82.0934C567.495 85.7265 566.557 90.0687 566.506 95.0836L568.506 95.1039C568.555 90.3219 569.448 86.3022 571.142 83.0081L569.363 82.0934ZM690.914 201.895L691.273 200.961L691.27 200.96L690.914 201.895ZM673.546 190.539L672.802 191.207L673.546 190.539ZM665.16 174.359L665.026 173.368L663.955 173.512L664.182 174.569L665.16 174.359ZM694.402 170.426L695.333 170.061L695.047 169.33L694.269 169.435L694.402 170.426ZM698.632 176.809L699.348 176.11L698.632 176.809ZM706.277 181.559L706.636 180.625L706.628 180.622L706.277 181.559ZM735 178.367L734.407 177.562L734.397 177.569L735 178.367ZM741.753 140.812H742.753V139.812H741.753V140.812ZM740.417 140.812V139.812H739.763L739.501 140.412L740.417 140.812ZM734.183 149.793L734.896 150.494L734.183 149.793ZM684.531 153.43L684.033 154.297L684.04 154.301L684.531 153.43ZM667.832 135.098L666.936 135.543L666.939 135.549L667.832 135.098ZM667.98 71.418L667.08 70.9811L667.98 71.418ZM684.753 51.9727L684.231 51.12L684.228 51.1216L684.753 51.9727ZM723.867 48.7813L723.415 49.6737L723.424 49.6777L723.867 48.7813ZM734.257 56.7969L733.482 57.4288L733.488 57.4353L733.493 57.4417L734.257 56.7969ZM740.417 66.1484L739.512 66.5721L739.781 67.1484H740.417V66.1484ZM741.605 66.1484V67.1484H742.605V66.1484H741.605ZM741.605 47V46H740.605V47H741.605ZM773 47H774V46H773V47ZM765.875 186.457L765.066 185.869L765.875 186.457ZM746.132 201.152L745.77 200.22L745.764 200.223L746.132 201.152ZM730.843 131.832L731.427 132.644L731.429 132.643L730.843 131.832ZM739.007 120.848L738.079 120.475L738.078 120.48L739.007 120.848ZM739.082 86.2617L738.147 86.6169L738.148 86.6201L739.082 86.2617ZM704.792 74.9062L705.406 75.6956L705.413 75.6903L704.792 74.9062ZM696.703 86.4844L697.641 86.8314L696.703 86.4844ZM696.703 120.699L695.768 121.056L695.773 121.067L696.703 120.699ZM704.792 131.758L704.194 132.559L704.201 132.564L704.207 132.568L704.792 131.758ZM717.261 205.125C707.106 205.125 698.452 203.726 691.273 200.961L690.554 202.828C698.021 205.703 706.932 207.125 717.261 207.125V205.125ZM691.27 200.96C684.114 198.234 678.469 194.53 674.291 189.871L672.802 191.207C677.233 196.147 683.166 200.013 690.558 202.829L691.27 200.96ZM674.291 189.871C670.096 185.194 667.385 179.957 666.137 174.149L664.182 174.569C665.507 180.736 668.387 186.285 672.802 191.207L674.291 189.871ZM665.293 175.35L694.535 171.417L694.269 169.435L665.026 173.368L665.293 175.35ZM693.471 170.79C694.416 173.206 695.906 175.444 697.916 177.507L699.348 176.11C697.5 174.215 696.169 172.198 695.333 170.061L693.471 170.79ZM697.916 177.507C699.969 179.612 702.652 181.267 705.926 182.495L706.628 180.622C703.569 179.475 701.155 177.964 699.348 176.11L697.916 177.507ZM705.918 182.492C709.28 183.785 713.318 184.414 718.003 184.414V182.414C713.486 182.414 709.706 181.806 706.636 180.625L705.918 182.492ZM718.003 184.414C725.047 184.414 730.939 182.689 735.602 179.165L734.397 177.569C730.154 180.775 724.715 182.414 718.003 182.414V184.414ZM735.592 179.172C740.443 175.601 742.753 169.668 742.753 161.668H740.753C740.753 169.303 738.561 174.503 734.407 177.562L735.592 179.172ZM742.753 161.668V140.812H740.753V161.668H742.753ZM741.753 139.812H740.417V141.812H741.753V139.812ZM739.501 140.412C738.171 143.452 736.167 146.346 733.47 149.092L734.896 150.494C737.74 147.599 739.893 144.506 741.334 141.213L739.501 140.412ZM733.47 149.092C730.81 151.799 727.369 154.03 723.117 155.77L723.874 157.621C728.331 155.798 732.014 153.428 734.896 150.494L733.47 149.092ZM723.117 155.77C718.912 157.49 713.851 158.367 707.91 158.367V160.367C714.041 160.367 719.371 159.463 723.874 157.621L723.117 155.77ZM707.91 158.367C699.511 158.367 691.889 156.427 685.022 152.558L684.04 154.301C691.225 158.349 699.189 160.367 707.91 160.367V158.367ZM685.029 152.563C678.245 148.665 672.805 142.711 668.724 134.646L666.939 135.549C671.171 143.911 676.864 150.178 684.033 154.297L685.029 152.563ZM668.727 134.653C664.709 126.569 662.671 116.294 662.671 103.777H660.671C660.671 116.495 662.74 127.1 666.936 135.543L668.727 134.653ZM662.671 103.777C662.671 90.9654 664.758 80.3393 668.88 71.8549L667.08 70.9811C662.79 79.8143 660.671 90.7611 660.671 103.777H662.671ZM668.88 71.8549C673.017 63.3365 678.49 57.0124 685.279 52.8237L684.228 51.1216C677.064 55.5423 671.354 62.1817 667.08 70.9811L668.88 71.8549ZM685.276 52.8253C692.142 48.6185 699.655 46.5156 707.835 46.5156V44.5156C699.292 44.5156 691.417 46.7175 684.231 51.12L685.276 52.8253ZM707.835 46.5156C714.11 46.5156 719.288 47.5864 723.415 49.6736L724.318 47.8889C719.836 45.622 714.326 44.5156 707.835 44.5156V46.5156ZM723.424 49.6777C727.62 51.7518 730.964 54.3397 733.482 57.4288L735.032 56.1649C732.306 52.8218 728.723 50.0659 724.31 47.8848L723.424 49.6777ZM733.493 57.4417C736.12 60.5556 738.121 63.5994 739.512 66.5721L741.323 65.7247C739.844 62.562 737.738 59.3715 735.022 56.152L733.493 57.4417ZM740.417 67.1484H741.605V65.1484H740.417V67.1484ZM742.605 66.1484V47H740.605V66.1484H742.605ZM741.605 48H773V46H741.605V48ZM772 47V162.113H774V47H772ZM772 162.113C772 171.643 769.668 179.541 765.066 185.869L766.683 187.045C771.581 180.311 774 171.979 774 162.113H772ZM765.066 185.869C760.442 192.227 754.025 197.016 745.77 200.22L746.494 202.085C755.063 198.758 761.807 193.749 766.683 187.045L765.066 185.869ZM745.764 200.223C737.541 203.483 728.046 205.125 717.261 205.125V207.125C728.247 207.125 738 205.452 746.501 202.082L745.764 200.223ZM717.929 136.617C723.196 136.617 727.715 135.31 731.427 132.644L730.26 131.02C726.946 133.401 722.855 134.617 717.929 134.617V136.617ZM731.429 132.643C735.17 129.941 737.998 126.114 739.937 121.216L738.078 120.48C736.256 125.082 733.642 128.577 730.258 131.021L731.429 132.643ZM739.935 121.221C741.924 116.274 742.902 110.401 742.902 103.629H740.902C740.902 110.216 739.95 115.823 738.08 120.475L739.935 121.221ZM742.902 103.629C742.902 96.8587 741.949 90.9427 740.015 85.9034L738.148 86.6201C739.974 91.3776 740.902 97.0397 740.902 103.629H742.902ZM740.016 85.9065C738.082 80.8163 735.26 76.8166 731.525 73.9631L730.31 75.5525C733.7 78.1417 736.321 81.8113 738.147 86.6169L740.016 85.9065ZM731.525 73.9631C727.764 71.0907 723.214 69.6758 717.929 69.6758V71.6758C722.838 71.6758 726.946 72.9822 730.31 75.5525L731.525 73.9631ZM717.929 69.6758C712.543 69.6758 707.936 71.1423 704.172 74.1222L705.413 75.6903C708.774 73.0295 712.925 71.6758 717.929 71.6758V69.6758ZM704.179 74.1169C700.446 77.0203 697.649 81.0447 695.765 86.1374L697.641 86.8314C699.418 82.0282 702.014 78.3339 705.406 75.6956L704.179 74.1169ZM695.765 86.1374C693.885 91.2185 692.957 97.0548 692.957 103.629H694.957C694.957 97.2394 695.859 91.6461 697.641 86.8314L695.765 86.1374ZM692.957 103.629C692.957 110.299 693.884 116.115 695.768 121.056L697.637 120.343C695.86 115.684 694.957 110.12 694.957 103.629H692.957ZM695.773 121.067C697.71 125.961 700.51 129.809 704.194 132.559L705.391 130.956C702.049 128.462 699.456 124.938 697.632 120.331L695.773 121.067ZM704.207 132.568C707.969 135.286 712.563 136.617 717.929 136.617V134.617C712.905 134.617 708.741 133.376 705.378 130.947L704.207 132.568ZM941.383 79.5078L941.445 80.5059L942.515 80.4401L942.375 79.3769L941.383 79.5078ZM912.438 81.2891L911.457 81.4852L911.629 82.3408L912.499 82.2872L912.438 81.2891ZM909.247 74.6094L908.468 75.2364L908.475 75.2458L909.247 74.6094ZM902.79 69.7852L902.363 70.6896L902.373 70.6944L902.383 70.699L902.79 69.7852ZM880.969 71.0469L881.486 71.9033L881.495 71.8977L880.969 71.0469ZM879.188 86.1133L878.534 86.8701V86.8701L879.188 86.1133ZM890.395 90.6406L890.185 91.6184L890.198 91.6209L890.395 90.6406ZM911.028 94.7969L911.229 93.8173L911.225 93.8166L911.028 94.7969ZM935.817 105.781L935.137 106.515L935.817 105.781ZM937.375 145.34L936.587 144.724L936.584 144.729L937.375 145.34ZM919.415 158.551L919.795 159.475L919.798 159.474L919.415 158.551ZM857.145 153.801L856.565 154.616L856.571 154.619L857.145 153.801ZM841.485 127.973L841.432 126.974L840.342 127.031L840.495 128.112L841.485 127.973ZM872.583 126.34L873.562 126.14L873.39 125.296L872.53 125.341L872.583 126.34ZM879.411 136.879L878.853 137.709L878.861 137.714L879.411 136.879ZM906.649 137.25L907.183 138.095L907.187 138.093L906.649 137.25ZM911.844 128.863L912.844 128.878L912.844 128.862L912.844 128.846L911.844 128.863ZM908.208 121.812L907.587 122.597L907.597 122.605L908.208 121.812ZM897.223 117.508L897.419 116.527L897.419 116.527L897.223 117.508ZM877.481 113.574L877.285 114.555L877.286 114.555L877.481 113.574ZM852.618 101.996L851.904 102.697L851.907 102.7L852.618 101.996ZM850.465 62.0664L849.668 61.4628L849.664 61.4676L850.465 62.0664ZM867.313 49.8203L866.946 48.8901L866.944 48.891L867.313 49.8203ZM926.836 54.6445L926.243 55.4497L926.246 55.4514L926.836 54.6445ZM941.322 78.5097L912.377 80.2909L912.499 82.2872L941.445 80.5059L941.322 78.5097ZM913.419 81.0929C912.891 78.4544 911.754 76.0772 910.018 73.973L908.475 75.2458C910.005 77.0999 910.996 79.1758 911.457 81.4852L913.419 81.0929ZM910.026 73.9824C908.281 71.8153 905.995 70.1154 903.196 68.8713L902.383 70.699C904.928 71.8299 906.946 73.3462 908.468 75.2364L910.026 73.9824ZM903.216 68.8807C900.43 67.5665 897.135 66.9297 893.364 66.9297V68.9297C896.915 68.9297 899.904 69.5298 902.363 70.6896L903.216 68.8807ZM893.364 66.9297C888.324 66.9297 884 67.9995 880.444 70.1961L881.495 71.8977C884.668 69.9379 888.607 68.9297 893.364 68.9297V66.9297ZM880.453 70.1905C876.842 72.3677 874.922 75.3879 874.922 79.2109H876.922C876.922 76.2058 878.367 73.7833 881.486 71.9032L880.453 70.1905ZM874.922 79.2109C874.922 82.2413 876.152 84.8123 878.534 86.8701L879.842 85.3565C877.87 83.6539 876.922 81.6233 876.922 79.2109H874.922ZM878.534 86.8701C880.907 88.9194 884.848 90.471 890.185 91.6183L890.605 89.663C885.354 88.5342 881.823 87.0676 879.842 85.3565L878.534 86.8701ZM890.198 91.6209L910.83 95.7772L911.225 93.8166L890.592 89.6603L890.198 91.6209ZM910.827 95.7764C921.818 98.0335 929.881 101.641 935.137 106.515L936.497 105.048C930.867 99.8279 922.405 96.1123 911.229 93.8173L910.827 95.7764ZM935.137 106.515C940.353 111.351 942.981 117.704 942.981 125.672H944.981C944.981 117.213 942.167 110.305 936.497 105.048L935.137 106.515ZM942.981 125.672C942.981 132.931 940.847 139.268 936.587 144.724L938.164 145.955C942.711 140.131 944.981 133.356 944.981 125.672H942.981ZM936.584 144.729C932.352 150.211 926.515 154.517 919.031 157.627L919.798 159.474C927.553 156.251 933.691 151.75 938.167 145.951L936.584 144.729ZM919.034 157.626C911.607 160.684 903.007 162.227 893.215 162.227V164.227C903.215 164.227 912.082 162.652 919.795 159.475L919.034 157.626ZM893.215 162.227C878.254 162.227 866.454 159.111 857.719 152.982L856.571 154.619C865.748 161.058 877.995 164.227 893.215 164.227V162.227ZM857.725 152.986C849.044 146.813 843.971 138.448 842.475 127.833L840.495 128.112C842.067 139.268 847.434 148.122 856.565 154.616L857.725 152.986ZM841.537 128.971L872.635 127.338L872.53 125.341L841.432 126.974L841.537 128.971ZM871.603 126.54C872.591 131.376 875.005 135.126 878.853 137.709L879.968 136.049C876.593 133.783 874.454 130.506 873.562 126.14L871.603 126.54ZM878.861 137.714C882.679 140.225 887.512 141.441 893.29 141.441V139.441C887.786 139.441 883.366 138.283 879.96 136.043L878.861 137.714ZM893.29 141.441C898.949 141.441 903.608 140.356 907.183 138.095L906.114 136.405C902.961 138.399 898.713 139.441 893.29 139.441V141.441ZM907.187 138.093C910.823 135.774 912.789 132.695 912.844 128.878L910.844 128.849C910.801 131.86 909.303 134.372 906.111 136.407L907.187 138.093ZM912.844 128.846C912.789 125.657 911.421 123.027 908.818 121.02L907.597 122.605C909.744 124.259 910.8 126.33 910.844 128.881L912.844 128.846ZM908.828 121.028C906.273 119.005 902.432 117.53 897.419 116.527L897.027 118.488C901.911 119.465 905.392 120.859 907.587 122.597L908.828 121.028ZM897.419 116.527L877.676 112.593L877.286 114.555L897.028 118.489L897.419 116.527ZM877.677 112.594C866.653 110.389 858.579 106.591 853.328 101.292L851.907 102.7C857.542 108.385 866.043 112.307 877.285 114.555L877.677 112.594ZM853.331 101.295C848.142 96.0108 845.528 89.2708 845.528 80.9922H843.528C843.528 89.7344 846.307 96.997 851.904 102.697L853.331 101.295ZM845.528 80.9922C845.528 73.8606 847.451 67.768 851.266 62.6652L849.664 61.4676C845.563 66.9534 843.528 73.4779 843.528 80.9922H845.528ZM851.263 62.67C855.143 57.5446 860.599 53.5637 867.682 50.7497L866.944 48.891C859.579 51.8165 853.804 55.9996 849.668 61.4628L851.263 62.67ZM867.68 50.7505C874.812 47.9367 883.193 46.5156 892.844 46.5156V44.5156C883.001 44.5156 874.361 45.9644 866.946 48.8901L867.68 50.7505ZM892.844 46.5156C907.113 46.5156 918.209 49.5323 926.243 55.4497L927.429 53.8393C918.938 47.5849 907.372 44.5156 892.844 44.5156V46.5156ZM926.246 55.4514C934.331 61.3713 939.041 69.4115 940.392 79.6388L942.375 79.3769C940.955 68.625 935.966 60.0897 927.427 53.8377L926.246 55.4514ZM985.488 155.879L984.979 156.74L984.985 156.743L985.488 155.879ZM966.117 135.246L965.227 135.703L965.228 135.705L966.117 135.246ZM966.117 73.5703L967.005 74.0295L967.006 74.0274L966.117 73.5703ZM985.488 52.9375L985.993 53.8003L985.995 53.7994L985.488 52.9375ZM1045.23 52.9375L1044.72 53.7981L1044.73 53.8016L1045.23 52.9375ZM1064.68 73.5703L1063.79 74.0274L1063.79 74.0295L1064.68 73.5703ZM1064.68 135.246L1065.57 135.705L1065.57 135.703L1064.68 135.246ZM1045.23 155.879L1045.74 156.742L1045.74 156.741L1045.23 155.879ZM1028.68 134.281L1029.33 135.045L1029.33 135.04L1028.68 134.281ZM1036.62 121.961L1035.68 121.629L1035.68 121.637L1036.62 121.961ZM1036.62 86.4844L1035.68 86.8087L1035.68 86.8167L1036.62 86.4844ZM1002.19 74.1641L1001.55 73.3967L1001.54 73.4011L1002.19 74.1641ZM994.097 86.4844L993.154 86.152L993.151 86.16L994.097 86.4844ZM994.097 121.961L993.151 122.285L993.154 122.293L994.097 121.961ZM1002.19 134.281L1001.54 135.044L1001.55 135.049L1001.55 135.054L1002.19 134.281ZM1015.4 162.227C1004.01 162.227 994.224 159.809 985.991 155.015L984.985 156.743C993.575 161.746 1003.73 164.227 1015.4 164.227V162.227ZM985.997 155.018C977.8 150.168 971.473 143.431 967.005 134.787L965.228 135.705C969.865 144.676 976.452 151.694 984.979 156.74L985.997 155.018ZM967.006 134.789C962.538 126.096 960.289 115.991 960.289 104.445H958.289C958.289 116.254 960.591 126.683 965.227 135.703L967.006 134.789ZM960.289 104.445C960.289 92.7992 962.539 82.6705 967.005 74.0295L965.228 73.1112C960.59 82.0847 958.289 92.5394 958.289 104.445H960.289ZM967.006 74.0274C971.474 65.3347 977.8 58.6 985.993 53.8003L984.982 52.0746C976.452 57.0719 969.864 64.0924 965.227 73.1132L967.006 74.0274ZM985.995 53.7994C994.227 48.9571 1004.02 46.5156 1015.4 46.5156V44.5156C1003.72 44.5156 993.572 47.022 984.981 52.0756L985.995 53.7994ZM1015.4 46.5156C1026.78 46.5156 1036.54 48.9572 1044.72 53.7981L1045.74 52.0769C1037.2 47.022 1027.07 44.5156 1015.4 44.5156V46.5156ZM1044.73 53.8016C1052.97 58.6017 1059.32 65.3363 1063.79 74.0274L1065.57 73.1132C1060.93 64.0908 1054.32 57.0701 1045.74 52.0733L1044.73 53.8016ZM1063.79 74.0295C1068.26 82.6705 1070.51 92.7992 1070.51 104.445H1072.51C1072.51 92.5394 1070.21 82.0847 1065.57 73.1112L1063.79 74.0295ZM1070.51 104.445C1070.51 115.991 1068.26 126.096 1063.79 134.789L1065.57 135.703C1070.2 126.683 1072.51 116.254 1072.51 104.445H1070.51ZM1063.79 134.787C1059.32 143.43 1052.97 150.166 1044.73 155.017L1045.74 156.741C1054.32 151.696 1060.93 144.677 1065.57 135.705L1063.79 134.787ZM1044.73 155.016C1036.55 159.809 1026.78 162.227 1015.4 162.227V164.227C1027.07 164.227 1037.2 161.746 1045.74 156.742L1044.73 155.016ZM1015.55 139.734C1020.99 139.734 1025.61 138.188 1029.33 135.045L1028.04 133.517C1024.73 136.312 1020.59 137.734 1015.55 137.734V139.734ZM1029.33 135.04C1033.01 131.886 1035.74 127.617 1037.57 122.285L1035.68 121.637C1033.94 126.695 1031.39 130.64 1028.03 133.523L1029.33 135.04ZM1037.57 122.293C1039.44 116.972 1040.37 110.944 1040.37 104.223H1038.37C1038.37 110.762 1037.47 116.559 1035.68 121.629L1037.57 122.293ZM1040.37 104.223C1040.37 97.5016 1039.44 91.4733 1037.57 86.152L1035.68 86.8167C1037.47 91.886 1038.37 97.6833 1038.37 104.223H1040.37ZM1037.57 86.16C1035.74 80.8279 1033.01 76.5597 1029.33 73.4056L1028.03 74.9226C1031.39 77.8049 1033.94 81.7502 1035.68 86.8087L1037.57 86.16ZM1029.33 73.4056C1025.62 70.2109 1021 68.6367 1015.55 68.6367V70.6367C1020.59 70.6367 1024.72 72.0808 1028.03 74.9226L1029.33 73.4056ZM1015.55 68.6367C1010.05 68.6367 1005.36 70.2094 1001.55 73.3967L1002.83 74.9314C1006.24 72.0823 1010.46 70.6367 1015.55 70.6367V68.6367ZM1001.54 73.4011C997.82 76.5531 995.033 80.8197 993.154 86.152L995.04 86.8167C996.823 81.7584 999.429 77.8115 1002.83 74.927L1001.54 73.4011ZM993.151 86.16C991.328 91.4788 990.425 97.5042 990.425 104.223H992.425C992.425 97.6807 993.304 91.8806 995.043 86.8087L993.151 86.16ZM990.425 104.223C990.425 110.941 991.328 116.966 993.151 122.285L995.043 121.637C993.304 116.565 992.425 110.765 992.425 104.223H990.425ZM993.154 122.293C995.033 127.626 997.82 131.892 1001.54 135.044L1002.83 133.518C999.429 130.634 996.823 126.687 995.04 121.629L993.154 122.293ZM1001.55 135.054C1005.37 138.189 1010.05 139.734 1015.55 139.734V137.734C1010.45 137.734 1006.23 136.311 1002.82 133.509L1001.55 135.054ZM1113.66 155.879L1113.15 156.74L1113.16 156.743L1113.66 155.879ZM1094.29 135.246L1093.4 135.703L1093.4 135.705L1094.29 135.246ZM1094.29 73.5703L1095.18 74.0295L1095.18 74.0274L1094.29 73.5703ZM1113.66 52.9375L1114.17 53.8003L1114.17 53.7994L1113.66 52.9375ZM1173.41 52.9375L1172.9 53.7981L1172.91 53.8016L1173.41 52.9375ZM1192.85 73.5703L1191.97 74.0274L1191.97 74.0295L1192.85 73.5703ZM1192.85 135.246L1193.74 135.705L1193.74 135.703L1192.85 135.246ZM1173.41 155.879L1173.92 156.742L1173.92 156.741L1173.41 155.879ZM1156.86 134.281L1157.5 135.045L1157.51 135.04L1156.86 134.281ZM1164.8 121.961L1163.86 121.629L1163.85 121.637L1164.8 121.961ZM1164.8 86.4844L1163.85 86.8087L1163.86 86.8167L1164.8 86.4844ZM1130.36 74.1641L1129.72 73.3967L1129.72 73.4011L1130.36 74.1641ZM1122.27 86.4844L1121.33 86.152L1121.33 86.16L1122.27 86.4844ZM1122.27 121.961L1121.33 122.285L1121.33 122.293L1122.27 121.961ZM1130.36 134.281L1129.72 135.044L1129.72 135.049L1129.73 135.054L1130.36 134.281ZM1143.57 162.227C1132.19 162.227 1122.4 159.809 1114.17 155.015L1113.16 156.743C1121.75 161.746 1131.9 164.227 1143.57 164.227V162.227ZM1114.17 155.018C1105.98 150.168 1099.65 143.431 1095.18 134.787L1093.4 135.705C1098.04 144.676 1104.63 151.694 1113.15 156.74L1114.17 155.018ZM1095.18 134.789C1090.71 126.096 1088.46 115.991 1088.46 104.445H1086.46C1086.46 116.254 1088.77 126.683 1093.4 135.703L1095.18 134.789ZM1088.46 104.445C1088.46 92.7992 1090.71 82.6705 1095.18 74.0295L1093.4 73.1112C1088.77 82.0847 1086.46 92.5394 1086.46 104.445H1088.46ZM1095.18 74.0274C1099.65 65.3347 1105.98 58.6 1114.17 53.8003L1113.16 52.0746C1104.63 57.0719 1098.04 64.0924 1093.4 73.1132L1095.18 74.0274ZM1114.17 53.7994C1122.4 48.9571 1132.19 46.5156 1143.57 46.5156V44.5156C1131.9 44.5156 1121.75 47.022 1113.16 52.0756L1114.17 53.7994ZM1143.57 46.5156C1154.96 46.5156 1164.72 48.9572 1172.9 53.7981L1173.92 52.0769C1165.38 47.022 1155.25 44.5156 1143.57 44.5156V46.5156ZM1172.91 53.8016C1181.15 58.6017 1187.5 65.3363 1191.97 74.0274L1193.74 73.1132C1189.11 64.0908 1182.49 57.0701 1173.91 52.0733L1172.91 53.8016ZM1191.97 74.0295C1196.43 82.6705 1198.68 92.7992 1198.68 104.445H1200.68C1200.68 92.5394 1198.38 82.0847 1193.74 73.1112L1191.97 74.0295ZM1198.68 104.445C1198.68 115.991 1196.43 126.096 1191.97 134.789L1193.74 135.703C1198.38 126.683 1200.68 116.254 1200.68 104.445H1198.68ZM1191.97 134.787C1187.5 143.43 1181.15 150.166 1172.9 155.017L1173.92 156.741C1182.49 151.696 1189.11 144.677 1193.74 135.705L1191.97 134.787ZM1172.9 155.016C1164.72 159.809 1154.96 162.227 1143.57 162.227V164.227C1155.25 164.227 1165.37 161.746 1173.92 156.742L1172.9 155.016ZM1143.72 139.734C1149.17 139.734 1153.79 138.188 1157.5 135.045L1156.21 133.517C1152.91 136.312 1148.77 137.734 1143.72 137.734V139.734ZM1157.51 135.04C1161.18 131.886 1163.92 127.617 1165.75 122.285L1163.85 121.637C1162.12 126.695 1159.56 130.64 1156.21 133.523L1157.51 135.04ZM1165.74 122.293C1167.62 116.972 1168.55 110.944 1168.55 104.223H1166.55C1166.55 110.762 1165.64 116.559 1163.86 121.629L1165.74 122.293ZM1168.55 104.223C1168.55 97.5016 1167.62 91.4733 1165.74 86.152L1163.86 86.8167C1165.64 91.886 1166.55 97.6833 1166.55 104.223H1168.55ZM1165.75 86.16C1163.92 80.8279 1161.18 76.5597 1157.51 73.4056L1156.21 74.9226C1159.56 77.8049 1162.12 81.7502 1163.85 86.8087L1165.75 86.16ZM1157.51 73.4056C1153.79 70.2109 1149.17 68.6367 1143.72 68.6367V70.6367C1148.76 70.6367 1152.9 72.0808 1156.21 74.9226L1157.51 73.4056ZM1143.72 68.6367C1138.22 68.6367 1133.54 70.2094 1129.72 73.3967L1131 74.9314C1134.41 72.0823 1138.63 70.6367 1143.72 70.6367V68.6367ZM1129.72 73.4011C1126 76.5531 1123.21 80.8197 1121.33 86.152L1123.22 86.8167C1125 81.7584 1127.6 77.8115 1131.01 74.927L1129.72 73.4011ZM1121.33 86.16C1119.5 91.4788 1118.6 97.5042 1118.6 104.223H1120.6C1120.6 97.6807 1121.48 91.8806 1123.22 86.8087L1121.33 86.16ZM1118.6 104.223C1118.6 110.941 1119.5 116.966 1121.33 122.285L1123.22 121.637C1121.48 116.565 1120.6 110.765 1120.6 104.223H1118.6ZM1121.33 122.293C1123.21 127.626 1126 131.892 1129.72 135.044L1131.01 133.518C1127.6 130.634 1125 126.687 1123.22 121.629L1121.33 122.293ZM1129.73 135.054C1133.54 138.189 1138.23 139.734 1143.72 139.734V137.734C1138.63 137.734 1134.41 136.311 1131 133.509L1129.73 135.054ZM1251.86 95.0938L1250.86 95.0836V95.0938H1251.86ZM1251.86 161V162H1252.86V161H1251.86ZM1220.24 161H1219.24V162H1220.24V161ZM1220.24 47V46H1219.24V47H1220.24ZM1250.37 47H1251.37V46H1250.37V47ZM1250.37 67.1133H1249.37V68.1133H1250.37V67.1133ZM1251.71 67.1133V68.1133H1252.4L1252.65 67.469L1251.71 67.1133ZM1264.4 51.3789L1264.95 52.2174L1264.95 52.2141L1264.4 51.3789ZM1306.71 50.7109L1307.21 49.849L1306.71 50.7109ZM1320.44 65.5547L1319.55 66.0074L1319.55 66.0102L1320.44 65.5547ZM1325.34 161V162H1326.34V161H1325.34ZM1293.72 161H1292.72V162H1293.72V161ZM1293.72 94.0547L1292.72 94.0476V94.0547H1293.72ZM1288.37 77.7266L1287.64 78.4006L1287.64 78.4052L1288.37 77.7266ZM1262.18 74.5352L1261.69 73.6629L1261.68 73.6661L1262.18 74.5352ZM1254.6 82.5508L1253.72 82.0886L1253.72 82.0934L1254.6 82.5508ZM1250.86 95.0938V161H1252.86V95.0938H1250.86ZM1251.86 160H1220.24V162H1251.86V160ZM1221.24 161V47H1219.24V161H1221.24ZM1220.24 48H1250.37V46H1220.24V48ZM1249.37 47V67.1133H1251.37V47H1249.37ZM1250.37 68.1133H1251.71V66.1133H1250.37V68.1133ZM1252.65 67.469C1255.09 61.0365 1259.19 55.961 1264.95 52.2173L1263.86 50.5405C1257.74 54.5156 1253.37 59.9296 1250.78 66.7576L1252.65 67.469ZM1264.95 52.2141C1270.7 48.4318 1277.7 46.5156 1286 46.5156V44.5156C1277.38 44.5156 1269.98 46.5083 1263.85 50.5437L1264.95 52.2141ZM1286 46.5156C1293.77 46.5156 1300.49 48.2133 1306.2 51.5729L1307.21 49.849C1301.15 46.2815 1294.07 44.5156 1286 44.5156V46.5156ZM1306.2 51.5729C1311.91 54.934 1316.36 59.7354 1319.55 66.0074L1321.33 65.102C1317.98 58.5093 1313.28 53.4149 1307.21 49.849L1306.2 51.5729ZM1319.55 66.0102C1322.73 72.2226 1324.34 79.6791 1324.34 88.4141H1326.34C1326.34 79.4355 1324.68 71.6523 1321.33 65.0992L1319.55 66.0102ZM1324.34 88.4141V161H1326.34V88.4141H1324.34ZM1325.34 160H1293.72V162H1325.34V160ZM1294.72 161V94.0547H1292.72V161H1294.72ZM1294.72 94.0618C1294.77 86.9125 1292.94 81.1955 1289.11 77.0479L1287.64 78.4052C1291.03 82.0753 1292.77 87.2438 1292.72 94.0476L1294.72 94.0618ZM1289.11 77.0525C1285.28 72.8486 1280.02 70.7891 1273.46 70.7891V72.7891C1279.56 72.7891 1284.25 74.6878 1287.64 78.4006L1289.11 77.0525ZM1273.46 70.7891C1269.05 70.7891 1265.12 71.7375 1261.69 73.6629L1262.66 75.4074C1265.76 73.6713 1269.35 72.7891 1273.46 72.7891V70.7891ZM1261.68 73.6661C1258.29 75.5987 1255.63 78.4177 1253.72 82.0886L1255.49 83.0129C1257.24 79.6579 1259.63 77.1331 1262.67 75.4042L1261.68 73.6661ZM1253.72 82.0934C1251.85 85.7265 1250.91 90.0687 1250.86 95.0836L1252.86 95.1039C1252.91 90.3219 1253.8 86.3022 1255.49 83.0081L1253.72 82.0934Z" fill="url(#paint0_linear_118_4525)"/>
<defs>
<linearGradient id="paint0_linear_118_4525" x1="-255.405" y1="112" x2="59.9274" y2="-539.696" gradientUnits="userSpaceOnUse">
<stop offset="0.6896" stop-color="#F42D32"/>
<stop offset="1" stop-color="#FCCB4C"/>
</linearGradient>
</defs>
</svg>
