<svg width="725" height="629" viewBox="0 0 725 629" fill="none" xmlns="http://www.w3.org/2000/svg">
<g opacity="0.47" filter="url(#filter0_f_90_2917)">
<path opacity="0.77" d="M407.232 400.217C407.232 478.536 335.545 542.025 247.116 542.025C158.686 542.025 87 478.536 87 400.217C87 321.899 158.686 258.409 247.116 258.409C335.545 258.409 407.232 321.899 407.232 400.217Z" fill="#FFAFA8"/>
<ellipse cx="409.544" cy="279.828" rx="112.456" ry="103.828" fill="#FFAFA8"/>
</g>
<g clip-path="url(#clip0_90_2917)">
<path d="M498.492 77.4835L501.76 78.7759L499.079 85.4619C498.759 86.2523 498.342 87.0106 497.808 87.7049C497.627 87.9505 497.424 88.1748 497.21 88.4098C496.238 89.4672 494.989 90.3964 493.472 91.144C492.959 91.4004 492.425 91.6353 491.859 91.8489C491.293 92.0626 490.684 92.2655 490.054 92.4364C489.264 92.6607 488.431 92.8422 487.555 92.9918C486.636 93.1413 485.697 93.2588 484.725 93.3335C483.998 93.3869 483.261 93.419 482.503 93.4297C471.47 93.5472 458.237 88.805 449.094 81.4674C448.464 80.9654 447.866 80.4527 447.289 79.9294C446.456 79.1817 445.666 78.4127 444.918 77.6224C444.309 76.9708 443.754 76.33 443.23 75.6785C442.782 75.1231 442.376 74.557 442.002 74.0016C441.628 73.4462 441.287 72.9015 440.977 72.3568C440.058 70.7334 439.439 69.1419 439.118 67.6146C439.054 67.2835 438.99 66.9631 438.947 66.632C438.755 65.2222 438.83 63.8764 439.161 62.6268C439.257 62.2316 439.396 61.8471 439.546 61.4733L442.077 55.1503L445.067 56.3359C445.409 56.1757 445.762 56.0155 446.136 55.8659C447.513 55.3105 449.083 54.8726 450.824 54.5736C451.839 54.4027 452.886 54.2852 453.954 54.2104C455.332 54.125 456.741 54.1143 458.183 54.1784C467.924 54.6484 478.978 58.6109 487.32 64.6134C488.559 65.4999 489.734 66.4398 490.845 67.4224C491.763 68.2341 492.639 69.0779 493.451 69.943C494.7 71.2781 495.758 72.6131 496.612 73.9375C497.392 75.1338 498.011 76.3086 498.481 77.4728H498.492V77.4835Z" fill="url(#paint0_linear_90_2917)"/>
<path d="M496.324 62.819C495.512 61.9538 494.636 61.1101 493.718 60.2983C492.618 59.3264 491.432 58.3865 490.193 57.4893C481.851 51.4761 470.797 47.5136 461.056 47.0437C459.614 46.9689 458.194 46.9796 456.827 47.0757C455.759 47.1398 454.712 47.268 453.697 47.4389C451.956 47.7379 450.386 48.1652 449.009 48.7312C447.417 49.3721 446.071 50.1731 444.982 51.113C443.359 52.5015 442.29 54.189 441.81 56.0795C441.479 57.3291 441.415 58.6749 441.596 60.0847C441.639 60.4051 441.703 60.7362 441.767 61.0673C442.088 62.5947 442.707 64.1754 443.626 65.8095C443.935 66.3542 444.277 66.9096 444.651 67.4543C445.025 68.0097 445.441 68.5651 445.879 69.1205C446.392 69.772 446.958 70.4129 447.567 71.0644C448.304 71.8548 449.094 72.6238 449.938 73.3714C450.515 73.8948 451.123 74.4074 451.743 74.9094C460.885 82.247 474.119 86.9999 485.152 86.8717C485.899 86.8717 486.647 86.829 487.373 86.7756C488.345 86.7008 489.285 86.594 490.204 86.4338C491.09 86.2843 491.923 86.1027 492.703 85.8784C493.333 85.7075 493.942 85.5153 494.508 85.291C495.074 85.0774 495.619 84.8424 496.121 84.5861C497.637 83.8277 498.887 82.9092 499.859 81.8518C500.073 81.6275 500.265 81.3926 500.457 81.1469C501.258 80.0895 501.824 78.9253 502.134 77.665C502.604 75.7639 502.486 73.6598 501.782 71.4382C501.301 69.9323 500.553 68.3836 499.517 66.8028C498.663 65.4891 497.605 64.154 496.356 62.8083H496.324V62.819Z" fill="url(#paint1_linear_90_2917)"/>
<path d="M490.044 63.7908C482.802 56.1007 469.419 51.1022 459.508 52.2343C459.091 52.2877 458.664 52.3411 458.258 52.4159C448.25 54.1462 446.264 62.0498 453.815 70.0603C461.366 78.0814 475.593 83.1761 485.6 81.4458C486.006 81.371 486.401 81.2963 486.786 81.2002C495.758 79.064 497.285 71.4808 490.044 63.7908Z" fill="url(#paint2_linear_90_2917)"/>
<path d="M489.243 63.9404C489.008 63.6947 488.773 63.4491 488.516 63.2034C481.456 56.2717 469.216 51.8499 460.063 52.8966C459.978 52.8966 459.903 52.918 459.817 52.9287C459.497 52.9714 459.187 53.0141 458.878 53.0675C456.976 53.3986 455.374 53.954 454.093 54.7016C451.049 56.4853 449.767 59.3157 450.408 62.5946C450.792 64.5171 451.828 66.5998 453.569 68.7146C453.89 69.1098 454.242 69.5156 454.627 69.9108C454.968 70.2847 455.332 70.6371 455.705 70.9896C456.485 71.7372 457.34 72.4421 458.226 73.1257C464.464 77.8679 473.093 80.9653 480.495 81.1041C481.553 81.1255 482.589 81.0828 483.582 80.976C484.052 80.9225 484.522 80.8585 484.981 80.7837C485.376 80.7196 485.75 80.6342 486.113 80.5487C486.22 80.5274 486.316 80.4953 486.423 80.474C488.847 79.8545 490.684 78.7971 491.881 77.4407C493.942 75.123 494.177 71.9188 492.457 68.4369C491.731 66.963 490.652 65.4463 489.221 63.9297H489.243V63.9404Z" fill="#ECECEC"/>
<path d="M489.243 63.9404C489.008 63.6947 488.773 63.4491 488.516 63.2034C481.456 56.2717 469.216 51.8499 460.063 52.8966C459.978 52.8966 459.903 52.918 459.817 52.9287C459.497 52.9714 459.187 53.0141 458.878 53.0675C456.976 53.3986 455.374 53.954 454.093 54.7016C451.049 56.4853 449.767 59.3157 450.408 62.5946C450.792 64.5171 451.828 66.5998 453.569 68.7146C453.89 69.1098 454.242 69.5156 454.627 69.9108C454.968 70.2847 455.332 70.6371 455.705 70.9896C456.485 71.7372 457.34 72.4421 458.226 73.1257C464.464 77.8679 473.093 80.9653 480.495 81.1041C481.553 81.1255 482.589 81.0828 483.582 80.976C484.052 80.9225 484.522 80.8585 484.981 80.7837C485.376 80.7196 485.75 80.6342 486.113 80.5487C486.22 80.5274 486.316 80.4953 486.423 80.474C488.847 79.8545 490.684 78.7971 491.881 77.4407C493.942 75.123 494.177 71.9188 492.457 68.4369C491.731 66.963 490.652 65.4463 489.221 63.9297H489.243V63.9404Z" fill="#ECB0B0"/>
<path d="M487.534 65.7027C487.779 65.9484 488.025 66.194 488.26 66.4397C489.691 67.967 490.77 69.4836 491.496 70.9469C492.5 72.9869 492.831 74.9201 492.532 76.6397C492.351 76.9173 492.137 77.195 491.913 77.4621C490.706 78.8185 488.879 79.8759 486.455 80.4954C486.359 80.5274 486.252 80.5488 486.145 80.5701C485.782 80.6556 485.408 80.7303 485.013 80.8051C484.554 80.8799 484.084 80.9546 483.614 80.9973C482.621 81.1042 481.585 81.1469 480.527 81.1255C473.125 80.9867 464.496 77.8893 458.258 73.1471C457.361 72.4742 456.517 71.7586 455.737 71.011C455.364 70.6585 455 70.2954 454.659 69.9322C454.285 69.5264 453.932 69.1312 453.601 68.736C451.86 66.6212 450.824 64.5385 450.44 62.616C450.248 61.612 450.226 60.6508 450.386 59.7429C451.027 58.7603 451.946 57.9058 453.131 57.2116C454.413 56.464 456.015 55.8979 457.916 55.5775C458.226 55.5241 458.546 55.4813 458.856 55.4386C458.942 55.4386 459.016 55.4173 459.102 55.4066C468.255 54.3599 480.495 58.7923 487.555 65.7134H487.534V65.7027Z" fill="url(#paint3_linear_90_2917)"/>
<path d="M499.848 81.8626C493.472 88.0146 482.845 87.2243 474.61 85.494C462.242 82.4928 450.087 75.9883 443.711 65.7242V65.7455C442.045 62.8191 440.987 59.3906 441.799 56.0796C440.902 59.4013 441.863 62.9045 443.529 65.8737V65.8524C448.539 74.4075 457.873 80.2712 467.636 83.8599C477.59 87.1815 491.581 89.7449 499.848 81.8626Z" fill="url(#paint4_linear_90_2917)" fill-opacity="0.92"/>
<path d="M409.234 90.3108L410.772 90.9196L409.512 94.0597C409.362 94.4335 409.17 94.786 408.914 95.1171C408.828 95.2346 408.732 95.3414 408.636 95.4482C408.177 95.9502 407.589 96.3774 406.874 96.7298C406.639 96.8473 406.382 96.9541 406.115 97.0609C405.848 97.1677 405.57 97.2532 405.271 97.3386C404.898 97.4454 404.513 97.5309 404.097 97.595C403.659 97.6697 403.221 97.7231 402.761 97.7552C402.42 97.7765 402.067 97.7979 401.715 97.7979C396.535 97.8513 390.319 95.6297 386.025 92.1799C385.737 91.9449 385.448 91.7099 385.181 91.4643C384.786 91.1118 384.412 90.7487 384.07 90.3749C383.782 90.0651 383.526 89.7661 383.28 89.467C383.066 89.2 382.874 88.9437 382.703 88.6767C382.532 88.4203 382.372 88.164 382.223 87.9077C381.795 87.1386 381.507 86.391 381.347 85.6754C381.315 85.5259 381.283 85.3657 381.261 85.2161C381.176 84.5539 381.208 83.9238 381.358 83.3363C381.4 83.1548 381.464 82.9732 381.539 82.7916L382.725 79.8224L384.134 80.3778C384.295 80.3031 384.466 80.2283 384.636 80.1535C385.288 79.8865 386.025 79.6836 386.837 79.5447C387.317 79.4593 387.809 79.4059 388.311 79.3738C388.951 79.3311 389.624 79.3311 390.297 79.3738C394.869 79.5981 400.07 81.4566 403.99 84.2762C404.577 84.6928 405.122 85.1307 405.645 85.59C406.083 85.9745 406.489 86.3696 406.874 86.7755C407.461 87.4057 407.952 88.0358 408.358 88.6553C408.721 89.2214 409.02 89.7768 409.234 90.3108Z" fill="url(#paint5_linear_90_2917)"/>
<path d="M408.208 83.4218C407.824 83.0159 407.418 82.6207 406.98 82.2362C406.457 81.777 405.912 81.3391 405.325 80.9225C401.405 78.1028 396.214 76.2337 391.632 76.0201C390.949 75.9881 390.286 75.9881 389.646 76.0201C389.144 76.0522 388.652 76.1056 388.172 76.191C387.349 76.3299 386.612 76.5328 385.971 76.7998C385.224 77.0989 384.594 77.4834 384.081 77.9213C383.323 78.5728 382.821 79.3632 382.586 80.2496C382.436 80.8371 382.404 81.4672 382.49 82.1294C382.511 82.279 382.532 82.4392 382.575 82.5887C382.724 83.3043 383.013 84.0519 383.451 84.8103C383.6 85.0666 383.75 85.3229 383.931 85.59C384.113 85.8463 384.305 86.1133 384.508 86.3803C384.754 86.6794 385.01 86.9891 385.299 87.2882C385.651 87.662 386.014 88.0251 386.409 88.3776C386.676 88.6233 386.965 88.8582 387.253 89.0932C391.547 92.543 397.763 94.7753 402.943 94.7112C403.295 94.7112 403.648 94.6898 403.99 94.6685C404.449 94.6364 404.887 94.583 405.325 94.5083C405.741 94.4335 406.126 94.3481 406.5 94.2519C406.799 94.1665 407.076 94.081 407.343 93.9742C407.61 93.8781 407.867 93.7606 408.102 93.6431C408.817 93.2907 409.405 92.8528 409.864 92.3615C409.96 92.2547 410.056 92.1479 410.142 92.0304C410.515 91.5391 410.782 90.9837 410.932 90.3962C411.156 89.4991 411.103 88.5164 410.761 87.4697C410.537 86.7648 410.184 86.0279 409.693 85.2909C409.287 84.6714 408.796 84.0413 408.208 83.4111V83.4218Z" fill="url(#paint6_linear_90_2917)"/>
<path d="M405.261 83.8812C401.854 80.2711 395.573 77.9214 390.917 78.4554C390.724 78.4768 390.522 78.5088 390.329 78.5408C385.63 79.3526 384.701 83.0694 388.247 86.829C391.793 90.5993 398.479 92.9917 403.178 92.18C403.37 92.1479 403.552 92.1052 403.733 92.0625C407.942 91.0585 408.668 87.5019 405.261 83.8812Z" fill="url(#paint7_linear_90_2917)"/>
<path d="M404.887 83.9454C404.78 83.8279 404.663 83.7104 404.545 83.6036C401.234 80.346 395.477 78.274 391.173 78.7546C391.13 78.7546 391.098 78.7546 391.056 78.7653L390.607 78.8294C389.71 78.9789 388.962 79.2459 388.364 79.5984C386.933 80.4315 386.335 81.7665 386.634 83.3045C386.815 84.2124 387.307 85.1843 388.118 86.1776C388.268 86.3699 388.439 86.5515 388.61 86.7437C388.77 86.9146 388.941 87.0855 389.122 87.2564C389.496 87.6088 389.891 87.9399 390.308 88.2604C393.245 90.4926 397.293 91.9452 400.775 92.0092C401.277 92.0092 401.758 92.0092 402.227 91.9558C402.452 91.9345 402.665 91.9024 402.89 91.8704C403.071 91.8384 403.253 91.8063 403.424 91.7636C403.477 91.7529 403.52 91.7422 403.563 91.7316C404.705 91.4432 405.56 90.9412 406.126 90.3003C407.087 89.2109 407.205 87.705 406.393 86.0708C406.051 85.3766 405.549 84.6717 404.876 83.9561L404.887 83.9454Z" fill="#ECECEC"/>
<path d="M404.887 83.9454C404.78 83.8279 404.663 83.7104 404.545 83.6036C401.234 80.346 395.477 78.274 391.173 78.7546C391.13 78.7546 391.098 78.7546 391.056 78.7653L390.607 78.8294C389.71 78.9789 388.962 79.2459 388.364 79.5984C386.933 80.4315 386.335 81.7665 386.634 83.3045C386.815 84.2124 387.307 85.1843 388.118 86.1776C388.268 86.3699 388.439 86.5515 388.61 86.7437C388.77 86.9146 388.941 87.0855 389.122 87.2564C389.496 87.6088 389.891 87.9399 390.308 88.2604C393.245 90.4926 397.293 91.9452 400.775 92.0092C401.277 92.0092 401.758 92.0092 402.227 91.9558C402.452 91.9345 402.665 91.9024 402.89 91.8704C403.071 91.8384 403.253 91.8063 403.424 91.7636C403.477 91.7529 403.52 91.7422 403.563 91.7316C404.705 91.4432 405.56 90.9412 406.126 90.3003C407.087 89.2109 407.205 87.705 406.393 86.0708C406.051 85.3766 405.549 84.6717 404.876 83.9561L404.887 83.9454Z" fill="#CF3837"/>
<path d="M404.075 84.7677C404.193 84.8852 404.31 84.992 404.417 85.1095C405.09 85.8251 405.592 86.5407 405.934 87.2242C406.404 88.1748 406.564 89.0934 406.414 89.8944C406.329 90.0226 406.233 90.1507 406.126 90.2789C405.56 90.9197 404.695 91.411 403.563 91.7101C403.52 91.7208 403.466 91.7315 403.424 91.7421C403.253 91.7849 403.071 91.8169 402.89 91.849C402.676 91.881 402.452 91.913 402.227 91.9344C401.757 91.9878 401.277 91.9985 400.775 91.9878C397.293 91.9237 393.245 90.4712 390.308 88.2389C389.891 87.9185 389.496 87.5874 389.122 87.2349C388.941 87.064 388.781 86.9038 388.61 86.7223C388.428 86.53 388.268 86.3484 388.118 86.1562C387.296 85.1629 386.815 84.1803 386.634 83.2831C386.538 82.8132 386.538 82.3539 386.612 81.9373C386.911 81.4781 387.339 81.0722 387.905 80.7518C388.503 80.3993 389.261 80.1323 390.148 79.9828L390.596 79.9187C390.596 79.9187 390.671 79.9187 390.714 79.908C395.018 79.4167 400.764 81.4994 404.086 84.757L404.075 84.7677Z" fill="url(#paint8_linear_90_2917)"/>
<path d="M409.864 92.3613C406.874 95.2451 401.875 94.882 398.009 94.0702C392.198 92.6604 386.484 89.6057 383.494 84.7781C382.703 83.411 382.201 81.8089 382.586 80.2495C382.169 81.8089 382.618 83.4537 383.398 84.8529C385.758 88.8688 390.148 91.6137 394.73 93.3012C399.408 94.8606 405.976 96.0675 409.864 92.3613Z" fill="url(#paint9_linear_90_2917)"/>
<path d="M487.373 143.853L485.996 144.868L488.089 147.687C488.335 148.018 488.623 148.328 488.965 148.585C489.082 148.67 489.2 148.755 489.328 148.841C489.915 149.215 490.62 149.503 491.432 149.663C491.699 149.717 491.988 149.759 492.287 149.791C492.586 149.823 492.885 149.845 493.205 149.845C493.6 149.845 494.017 149.845 494.455 149.791C494.903 149.749 495.363 149.685 495.833 149.599C496.185 149.535 496.537 149.46 496.89 149.364C502.102 148.05 507.752 144.173 511.149 139.581C511.384 139.271 511.597 138.951 511.811 138.63C512.11 138.171 512.387 137.712 512.644 137.252C512.847 136.868 513.028 136.494 513.199 136.131C513.338 135.811 513.466 135.501 513.573 135.191C513.68 134.881 513.776 134.582 513.851 134.283C514.086 133.397 514.171 132.574 514.139 131.816C514.139 131.656 514.118 131.496 514.096 131.335C514.011 130.652 513.808 130.022 513.498 129.477C513.402 129.306 513.295 129.135 513.178 128.986L511.202 126.315L509.942 127.245C509.76 127.213 509.578 127.181 509.386 127.159C508.671 127.063 507.87 127.052 507.015 127.138C506.513 127.181 506.011 127.255 505.498 127.351C504.836 127.48 504.174 127.651 503.501 127.864C498.973 129.295 494.241 132.532 491.058 136.398C490.588 136.975 490.15 137.562 489.745 138.16C489.413 138.662 489.104 139.164 488.826 139.677C488.399 140.467 488.068 141.226 487.833 141.952C487.608 142.614 487.47 143.244 487.395 143.842H487.373V143.853Z" fill="url(#paint10_linear_90_2917)"/>
<path d="M485.579 138.951C485.291 139.826 485.13 140.649 485.088 141.418C485.024 142.55 485.237 143.565 485.696 144.398C485.995 144.953 486.401 145.434 486.914 145.829C487.032 145.914 487.149 146 487.277 146.085C487.865 146.459 488.57 146.747 489.381 146.908C489.648 146.961 489.937 147.004 490.236 147.036C490.535 147.068 490.834 147.089 491.154 147.089C491.549 147.089 491.966 147.079 492.404 147.036C492.852 146.993 493.312 146.929 493.782 146.844C494.134 146.779 494.487 146.705 494.839 146.609C500.051 145.295 505.701 141.418 509.098 136.825C509.333 136.515 509.546 136.195 509.76 135.875C510.059 135.415 510.337 134.956 510.593 134.497C510.796 134.112 510.977 133.738 511.148 133.375C511.287 133.055 511.415 132.745 511.522 132.435C511.629 132.126 511.725 131.827 511.8 131.528C512.035 130.641 512.12 129.819 512.088 129.06C512.088 128.9 512.067 128.74 512.046 128.58C511.96 127.896 511.757 127.266 511.447 126.721C510.988 125.888 510.273 125.226 509.333 124.777C508.702 124.468 507.966 124.254 507.132 124.158C506.417 124.062 505.616 124.051 504.761 124.137C504.259 124.179 503.757 124.254 503.245 124.35C502.582 124.478 501.92 124.649 501.247 124.863C496.719 126.294 491.987 129.53 488.804 133.397C488.335 133.973 487.897 134.561 487.491 135.159C487.16 135.661 486.85 136.163 486.572 136.676C486.145 137.466 485.814 138.224 485.579 138.951Z" fill="url(#paint11_linear_90_2917)"/>
<path d="M489.659 136.355C492.115 131.837 497.808 127.821 502.625 127.116C502.828 127.084 503.031 127.063 503.234 127.041C508.168 126.614 510.08 130.096 507.517 134.806C504.954 139.516 498.876 143.692 493.942 144.109C493.739 144.13 493.547 144.141 493.354 144.141C488.869 144.248 487.202 140.862 489.659 136.344V136.355Z" fill="url(#paint12_linear_90_2917)"/>
<path d="M490.054 136.323C490.129 136.174 490.214 136.035 490.3 135.885C492.767 131.741 497.99 128.142 502.433 127.501C502.476 127.501 502.508 127.49 502.55 127.48C502.711 127.458 502.86 127.437 503.01 127.426C503.95 127.341 504.772 127.415 505.466 127.608C507.122 128.067 508.072 129.242 508.179 130.876C508.243 131.827 508.008 132.937 507.453 134.155C507.346 134.379 507.228 134.614 507.1 134.849C506.983 135.063 506.855 135.276 506.727 135.49C506.449 135.939 506.139 136.377 505.797 136.814C503.448 139.826 499.763 142.347 496.292 143.34C495.8 143.479 495.298 143.586 494.818 143.661C494.583 143.693 494.358 143.725 494.134 143.746C493.942 143.767 493.75 143.767 493.568 143.778H493.418C492.201 143.778 491.208 143.511 490.471 143.02C489.21 142.187 488.698 140.702 489.082 138.844C489.242 138.064 489.563 137.21 490.043 136.312H490.054V136.323Z" fill="#ECECEC"/>
<path d="M490.054 136.323C490.129 136.174 490.214 136.035 490.3 135.885C492.767 131.741 497.99 128.142 502.433 127.501C502.476 127.501 502.508 127.49 502.55 127.48C502.711 127.458 502.86 127.437 503.01 127.426C503.95 127.341 504.772 127.415 505.466 127.608C507.122 128.067 508.072 129.242 508.179 130.876C508.243 131.827 508.008 132.937 507.453 134.155C507.346 134.379 507.228 134.614 507.1 134.849C506.983 135.063 506.855 135.276 506.727 135.49C506.449 135.939 506.139 136.377 505.797 136.814C503.448 139.826 499.763 142.347 496.292 143.34C495.8 143.479 495.298 143.586 494.818 143.661C494.583 143.693 494.358 143.725 494.134 143.746C493.942 143.767 493.75 143.767 493.568 143.778H493.418C492.201 143.778 491.208 143.511 490.471 143.02C489.21 142.187 488.698 140.702 489.082 138.844C489.242 138.064 489.563 137.21 490.043 136.312H490.054V136.323Z" fill="#CF3837"/>
<path d="M491.08 136.953C490.994 137.102 490.909 137.241 490.834 137.391C490.343 138.288 490.033 139.132 489.873 139.922C489.648 141.001 489.734 141.962 490.097 142.731C490.214 142.838 490.353 142.945 490.492 143.041C491.229 143.532 492.222 143.799 493.44 143.799H493.59C493.771 143.799 493.963 143.788 494.156 143.767C494.38 143.746 494.604 143.724 494.839 143.682C495.32 143.607 495.811 143.5 496.313 143.361C499.784 142.379 503.469 139.847 505.819 136.835C506.161 136.408 506.47 135.96 506.748 135.511C506.876 135.297 507.004 135.084 507.122 134.87C507.25 134.635 507.368 134.4 507.474 134.176C508.03 132.958 508.265 131.848 508.201 130.897C508.169 130.395 508.062 129.946 507.869 129.541C507.442 129.156 506.908 128.868 506.257 128.686C505.562 128.494 504.74 128.43 503.8 128.505C503.651 128.515 503.49 128.537 503.341 128.558C503.298 128.558 503.266 128.569 503.223 128.579C498.78 129.22 493.557 132.83 491.09 136.964H491.08V136.953Z" fill="url(#paint13_linear_90_2917)"/>
<path d="M487.277 146.096C491.048 148.2 495.961 146.512 499.624 144.686C505.082 141.738 510.006 137.167 511.736 131.538C512.163 129.957 512.238 128.216 511.448 126.753C512.281 128.205 512.259 129.978 511.843 131.581C510.54 136.227 506.866 140.146 502.711 143.052C498.428 145.85 492.158 148.798 487.277 146.106V146.096Z" fill="#CF3837"/>
<path d="M464.325 137.364L467.711 136.424L469.604 143.375C469.824 144.199 469.949 145.055 469.942 145.931C469.945 146.236 469.918 146.537 469.89 146.854C469.752 148.283 469.315 149.778 468.556 151.289C468.301 151.802 468.017 152.312 467.694 152.824C467.371 153.335 467.008 153.864 466.608 154.38C466.113 155.036 465.557 155.683 464.949 156.33C464.306 157.003 463.627 157.664 462.897 158.309C462.349 158.79 461.781 159.26 461.182 159.725C452.451 166.471 439.034 170.666 427.316 170.324C426.51 170.303 425.724 170.255 424.948 170.185C423.833 170.091 422.739 169.954 421.666 169.774C420.787 169.621 419.958 169.445 419.148 169.24C418.455 169.068 417.79 168.861 417.157 168.643C416.524 168.425 415.923 168.197 415.347 167.949C413.635 167.207 412.182 166.311 411.005 165.286C410.755 165.06 410.51 164.843 410.277 164.605C409.273 163.596 408.521 162.477 408.032 161.281C407.871 160.907 407.75 160.517 407.644 160.129L405.851 153.558L408.952 152.701C409.128 152.367 409.312 152.027 409.521 151.682C410.285 150.408 411.274 149.112 412.482 147.824C413.189 147.076 413.953 146.351 414.76 145.648C415.808 144.749 416.926 143.89 418.115 143.072C426.17 137.574 437.378 134.071 447.652 133.831C449.175 133.791 450.679 133.833 452.158 133.947C453.38 134.041 454.587 134.186 455.757 134.387C457.558 134.699 459.207 135.126 460.687 135.668C462.03 136.152 463.233 136.716 464.31 137.362L464.318 137.355L464.325 137.364Z" fill="url(#paint14_linear_90_2917)"/>
<path d="M453.754 126.972C452.585 126.771 451.377 126.626 450.155 126.532C448.691 126.42 447.179 126.384 445.649 126.416C435.369 126.647 424.161 130.15 416.106 135.648C414.91 136.458 413.784 137.323 412.751 138.224C411.937 138.919 411.18 139.652 410.473 140.4C409.264 141.688 408.269 142.976 407.511 144.258C406.628 145.729 406.037 147.179 405.735 148.586C405.277 150.672 405.442 152.663 406.198 154.461C406.688 155.657 407.448 156.77 408.443 157.785C408.67 158.015 408.921 158.24 409.171 158.466C410.348 159.491 411.795 160.379 413.513 161.129C414.089 161.377 414.696 161.614 415.323 161.823C415.956 162.041 416.623 162.233 417.307 162.412C418.109 162.622 418.947 162.792 419.825 162.945C420.89 163.131 421.984 163.268 423.108 163.356C423.884 163.426 424.679 163.468 425.475 163.495C437.193 163.837 450.617 159.651 459.342 152.897C459.938 152.446 460.509 151.961 461.056 151.481C461.787 150.835 462.472 150.183 463.108 149.502C463.725 148.848 464.281 148.201 464.767 147.552C465.167 147.036 465.537 146.515 465.853 145.995C466.176 145.483 466.469 144.967 466.715 144.46C467.468 142.941 467.911 141.455 468.049 140.025C468.084 139.717 468.096 139.414 468.101 139.102C468.103 137.775 467.853 136.505 467.34 135.313C466.569 133.513 465.206 131.905 463.305 130.558C462.013 129.646 460.483 128.861 458.704 128.225C457.23 127.692 455.581 127.264 453.773 126.944L453.747 126.963L453.754 126.972Z" fill="url(#paint15_linear_90_2917)"/>
<path d="M449.329 131.533C438.916 129.764 425.225 133.844 418 140.723C417.7 141.017 417.391 141.317 417.112 141.621C410.171 149.035 413.351 156.539 424.205 158.377C435.065 160.224 449.487 155.711 456.429 148.297C456.707 147.993 456.977 147.695 457.226 147.387C463.096 140.273 459.743 133.303 449.329 131.533Z" fill="url(#paint16_linear_90_2917)"/>
<path d="M448.781 132.135C448.445 132.081 448.109 132.027 447.757 131.985C437.945 130.711 425.514 134.563 418.842 140.916C418.774 140.968 418.727 141.03 418.666 141.09C418.436 141.317 418.214 141.538 417.999 141.767C416.682 143.178 415.739 144.587 415.167 145.956C413.814 149.214 414.498 152.245 416.986 154.475C418.452 155.777 420.534 156.814 423.198 157.451C423.692 157.573 424.218 157.685 424.763 157.768C425.261 157.86 425.763 157.923 426.274 157.979C427.347 158.105 428.453 158.152 429.573 158.163C437.408 158.186 446.161 155.454 452.149 151.103C453.006 150.482 453.807 149.823 454.535 149.139C454.878 148.813 455.214 148.479 455.535 148.142C455.812 147.853 456.059 147.56 456.297 147.272C456.369 147.191 456.427 147.108 456.499 147.026C458.06 145.07 458.888 143.119 459.024 141.316C459.272 138.224 457.527 135.526 454.056 133.784C452.588 133.046 450.813 132.487 448.757 132.14L448.774 132.127L448.781 132.135Z" fill="#ECECEC"/>
<path d="M448.781 132.135C448.445 132.081 448.109 132.027 447.757 131.985C437.945 130.711 425.514 134.563 418.842 140.916C418.774 140.968 418.727 141.03 418.666 141.09C418.436 141.317 418.214 141.538 417.999 141.767C416.682 143.178 415.739 144.587 415.167 145.956C413.814 149.214 414.498 152.245 416.986 154.475C418.452 155.777 420.534 156.814 423.198 157.451C423.692 157.573 424.218 157.685 424.763 157.768C425.261 157.86 425.763 157.923 426.274 157.979C427.347 158.105 428.453 158.152 429.573 158.163C437.408 158.186 446.161 155.454 452.149 151.103C453.006 150.482 453.807 149.823 454.535 149.139C454.878 148.813 455.214 148.479 455.535 148.142C455.812 147.853 456.059 147.56 456.297 147.272C456.369 147.191 456.427 147.108 456.499 147.026C458.06 145.07 458.888 143.119 459.024 141.316C459.272 138.224 457.527 135.526 454.056 133.784C452.588 133.046 450.813 132.487 448.757 132.14L448.774 132.127L448.781 132.135Z" fill="#ECB0B0"/>
<path d="M448.479 134.572C448.823 134.62 449.168 134.668 449.503 134.722C451.566 135.078 453.341 135.637 454.802 136.367C456.833 137.389 458.263 138.732 459.061 140.284C459.084 140.615 459.081 140.965 459.063 141.314C458.918 143.123 458.098 145.068 456.537 147.024C456.48 147.108 456.407 147.189 456.335 147.271C456.097 147.558 455.844 147.843 455.574 148.141C455.252 148.477 454.922 148.82 454.573 149.137C453.845 149.822 453.044 150.48 452.188 151.101C446.199 155.452 437.446 158.184 429.611 158.161C428.489 158.165 427.385 158.103 426.312 157.977C425.801 157.921 425.293 157.85 424.801 157.766C424.258 157.668 423.739 157.565 423.236 157.449C420.572 156.812 418.49 155.775 417.024 154.473C416.266 153.788 415.669 153.034 415.249 152.213C415.168 151.042 415.386 149.807 415.913 148.538C416.485 147.169 417.422 145.752 418.746 144.35C418.961 144.12 419.19 143.893 419.412 143.672C419.48 143.621 419.527 143.559 419.588 143.499C426.26 137.145 438.698 133.302 448.503 134.568L448.486 134.58L448.479 134.572Z" fill="url(#paint17_linear_90_2917)"/>
<path d="M468.047 140.04C466.669 148.792 457.714 154.569 450.101 158.153C438.424 163.215 424.805 165.354 413.53 161.009L413.542 161.026C410.449 159.696 407.538 157.598 406.19 154.467C407.476 157.658 410.355 159.873 413.475 161.238L413.462 161.221C422.616 165.026 433.599 164.076 443.551 161.054C453.495 157.703 466.204 151.312 468.047 140.04Z" fill="url(#paint18_linear_90_2917)" fill-opacity="0.92"/>
<path d="M400.846 201.411L402.44 200.969L403.328 204.234C403.434 204.622 403.493 205.02 403.488 205.438C403.491 205.584 403.478 205.727 403.466 205.87C403.402 206.547 403.191 207.242 402.833 207.955C402.716 208.19 402.576 208.43 402.428 208.676C402.279 208.922 402.109 209.158 401.922 209.407C401.688 209.717 401.433 210.017 401.139 210.319C400.835 210.643 400.517 210.95 400.17 211.252C399.911 211.475 399.642 211.705 399.361 211.917C395.26 215.083 388.962 217.058 383.456 216.894C383.085 216.881 382.713 216.867 382.352 216.832C381.824 216.789 381.307 216.725 380.809 216.633C380.392 216.559 380.007 216.475 379.631 216.385C379.299 216.301 378.991 216.212 378.694 216.102C378.403 216 378.121 215.893 377.847 215.778C377.043 215.422 376.362 215 375.802 214.525C375.687 214.425 375.565 214.317 375.457 214.21C374.99 213.734 374.636 213.211 374.401 212.653C374.325 212.482 374.267 212.299 374.217 212.109L373.373 209.025L374.833 208.618C374.915 208.462 375.007 208.299 375.098 208.136C375.457 207.531 375.922 206.924 376.486 206.324C376.818 205.966 377.178 205.628 377.559 205.299C378.045 204.879 378.582 204.473 379.144 204.102C382.926 201.525 388.197 199.871 393.024 199.758C393.744 199.736 394.442 199.757 395.137 199.808C395.718 199.851 396.28 199.921 396.832 200.013C397.68 200.162 398.452 200.368 399.149 200.618C399.78 200.85 400.354 201.113 400.846 201.411Z" fill="url(#paint19_linear_90_2917)"/>
<path d="M395.875 196.533C395.323 196.441 394.761 196.37 394.18 196.327C393.486 196.276 392.787 196.255 392.067 196.277C387.24 196.391 381.972 198.029 378.187 200.621C377.623 201.008 377.094 201.407 376.603 201.819C376.221 202.147 375.862 202.486 375.53 202.844C374.957 203.45 374.492 204.057 374.141 204.656C373.725 205.345 373.454 206.032 373.309 206.691C373.097 207.667 373.173 208.601 373.52 209.45C373.755 210.008 374.109 210.531 374.577 211.007C374.684 211.114 374.797 211.229 374.922 211.322C375.472 211.803 376.153 212.226 376.96 212.567C377.234 212.681 377.507 212.795 377.813 212.899C378.113 212.994 378.427 213.091 378.75 213.182C379.126 213.272 379.517 213.365 379.928 213.43C380.434 213.515 380.943 213.586 381.471 213.629C381.832 213.664 382.204 213.678 382.575 213.691C388.081 213.855 394.386 211.888 398.48 208.714C398.761 208.502 399.03 208.272 399.289 208.049C399.637 207.747 399.954 207.44 400.258 207.116C400.545 206.806 400.801 206.506 401.041 206.203C401.228 205.955 401.398 205.719 401.547 205.473C401.702 205.236 401.835 204.987 401.952 204.752C402.31 204.039 402.515 203.336 402.585 202.667C402.598 202.524 402.61 202.381 402.607 202.235C402.609 201.618 402.487 201.014 402.253 200.455C401.891 199.604 401.256 198.852 400.352 198.223C399.748 197.796 399.022 197.421 398.186 197.129C397.489 196.879 396.717 196.673 395.868 196.524L395.875 196.533Z" fill="url(#paint20_linear_90_2917)"/>
<path d="M393.8 198.676C388.905 197.85 382.478 199.762 379.085 202.995C378.944 203.128 378.802 203.276 378.668 203.418C375.408 206.899 376.907 210.424 382.003 211.286C387.105 212.156 393.882 210.034 397.142 206.553C397.276 206.412 397.395 206.268 397.514 206.124C400.266 202.786 398.701 199.511 393.8 198.676Z" fill="url(#paint21_linear_90_2917)"/>
<path d="M393.54 198.953C393.384 198.924 393.22 198.901 393.062 198.886C388.456 198.284 382.614 200.101 379.47 203.08C379.435 203.106 379.41 203.125 379.382 203.159L379.063 203.481C378.437 204.141 378.002 204.805 377.737 205.446C377.098 206.974 377.425 208.4 378.591 209.447C379.283 210.061 380.261 210.541 381.508 210.844C381.743 210.907 381.989 210.949 382.241 210.999C382.472 211.039 382.711 211.072 382.959 211.099C383.47 211.155 383.985 211.181 384.51 211.185C388.199 211.195 392.305 209.914 395.121 207.866C395.522 207.563 395.905 207.273 396.248 206.947C396.414 206.795 396.565 206.641 396.725 206.48C396.85 206.345 396.976 206.21 397.086 206.073C397.123 206.032 397.15 205.998 397.178 205.964C397.916 205.044 398.295 204.129 398.36 203.276C398.47 201.828 397.656 200.555 396.023 199.741C395.332 199.393 394.506 199.133 393.538 198.968L393.54 198.953Z" fill="#ECECEC"/>
<path d="M393.54 198.953C393.384 198.924 393.22 198.901 393.062 198.886C388.456 198.284 382.614 200.101 379.47 203.08C379.435 203.106 379.41 203.125 379.382 203.159L379.063 203.481C378.437 204.141 378.002 204.805 377.737 205.446C377.098 206.974 377.425 208.4 378.591 209.447C379.283 210.061 380.261 210.541 381.508 210.844C381.743 210.907 381.989 210.949 382.241 210.999C382.472 211.039 382.711 211.072 382.959 211.099C383.47 211.155 383.985 211.181 384.51 211.185C388.199 211.195 392.305 209.914 395.121 207.866C395.522 207.563 395.905 207.273 396.248 206.947C396.414 206.795 396.565 206.641 396.725 206.48C396.85 206.345 396.976 206.21 397.086 206.073C397.123 206.032 397.15 205.998 397.178 205.964C397.916 205.044 398.295 204.129 398.36 203.276C398.47 201.828 397.656 200.555 396.023 199.741C395.332 199.393 394.506 199.133 393.538 198.968L393.54 198.953Z" fill="#CF3837"/>
<path d="M393.388 200.098C393.553 200.121 393.711 200.136 393.867 200.165C394.835 200.33 395.667 200.599 396.352 200.938C397.3 201.413 397.982 202.049 398.345 202.778C398.354 202.932 398.355 203.092 398.347 203.259C398.282 204.112 397.888 205.025 397.165 205.946C397.137 205.981 397.101 206.021 397.073 206.056C396.963 206.193 396.837 206.328 396.712 206.463C396.561 206.617 396.401 206.778 396.235 206.93C395.892 207.256 395.515 207.554 395.108 207.848C392.292 209.897 388.186 211.178 384.497 211.168C383.972 211.163 383.457 211.138 382.946 211.082C382.698 211.055 382.474 211.024 382.228 210.982C381.967 210.938 381.73 210.89 381.495 210.826C380.24 210.53 379.264 210.036 378.578 209.429C378.218 209.112 377.941 208.746 377.75 208.368C377.711 207.822 377.808 207.24 378.066 206.643C378.331 206.002 378.775 205.331 379.392 204.678L379.711 204.356C379.711 204.356 379.771 204.311 379.798 204.277C382.936 201.29 388.776 199.487 393.39 200.083L393.388 200.098Z" fill="url(#paint22_linear_90_2917)"/>
<path d="M402.585 202.667C401.938 206.771 397.731 209.494 394.157 211.178C388.672 213.556 382.271 214.564 376.975 212.515C375.52 211.901 374.153 210.926 373.52 209.45C374.128 210.945 375.477 211.987 376.943 212.633C381.247 214.414 386.405 213.957 391.078 212.541C395.75 210.965 401.718 207.968 402.585 202.667Z" fill="url(#paint23_linear_90_2917)"/>
<path d="M495.468 197.018L494.98 198.658L498.35 199.646C498.746 199.762 499.163 199.835 499.59 199.834C499.735 199.831 499.88 199.828 500.034 199.819C500.728 199.763 501.464 199.568 502.209 199.207C502.454 199.088 502.71 198.949 502.968 198.794C503.226 198.639 503.477 198.476 503.733 198.283C504.048 198.044 504.38 197.793 504.697 197.487C505.03 197.182 505.357 196.854 505.681 196.503C505.923 196.239 506.159 195.967 506.383 195.678C509.749 191.487 511.919 184.988 511.86 179.276C511.861 178.887 511.838 178.503 511.815 178.118C511.777 177.572 511.722 177.038 511.649 176.517C511.58 176.088 511.499 175.68 511.416 175.287C511.334 174.948 511.25 174.623 511.148 174.312C511.046 174 510.943 173.704 510.822 173.42C510.475 172.571 510.048 171.864 509.565 171.278C509.468 171.15 509.355 171.035 509.241 170.92C508.761 170.426 508.219 170.046 507.643 169.798C507.464 169.72 507.275 169.648 507.091 169.599L503.905 168.66L503.46 170.161C503.296 170.245 503.132 170.329 502.965 170.428C502.336 170.783 501.691 171.257 501.061 171.841C500.686 172.177 500.331 172.54 499.98 172.925C499.528 173.427 499.103 173.962 498.695 174.539C495.945 178.411 494.121 183.845 493.913 188.849C493.886 189.592 493.89 190.325 493.927 191.047C493.966 191.647 494.021 192.234 494.109 192.811C494.244 193.699 494.437 194.503 494.688 195.224C494.908 195.888 495.177 196.474 495.478 196.997L495.461 197.01L495.468 197.018Z" fill="url(#paint24_linear_90_2917)"/>
<path d="M491.08 194.189C491.378 195.061 491.746 195.814 492.176 196.453C492.807 197.395 493.589 198.076 494.458 198.464C495.031 198.727 495.645 198.865 496.292 198.871C496.438 198.869 496.583 198.866 496.737 198.857C497.431 198.801 498.167 198.606 498.911 198.245C499.156 198.126 499.412 197.987 499.67 197.832C499.928 197.677 500.179 197.514 500.435 197.321C500.75 197.082 501.076 196.823 501.4 196.525C501.732 196.22 502.06 195.892 502.383 195.541C502.626 195.277 502.862 195.005 503.085 194.716C506.452 190.525 508.622 184.026 508.563 178.314C508.563 177.925 508.541 177.541 508.518 177.156C508.48 176.609 508.424 176.076 508.352 175.555C508.282 175.126 508.201 174.718 508.119 174.325C508.036 173.986 507.952 173.661 507.85 173.35C507.749 173.038 507.645 172.742 507.525 172.458C507.178 171.609 506.75 170.902 506.267 170.316C506.171 170.188 506.057 170.073 505.943 169.958C505.463 169.464 504.921 169.084 504.346 168.836C503.477 168.448 502.507 168.351 501.487 168.56C500.797 168.693 500.08 168.967 499.358 169.392C498.729 169.747 498.083 170.222 497.453 170.805C497.078 171.142 496.723 171.504 496.372 171.89C495.921 172.391 495.496 172.927 495.088 173.503C492.337 177.375 490.514 182.809 490.305 187.813C490.278 188.556 490.283 189.289 490.32 190.011C490.358 190.611 490.414 191.198 490.501 191.775C490.637 192.663 490.83 193.468 491.08 194.189Z" fill="url(#paint25_linear_90_2917)"/>
<path d="M492.771 189.658C492.007 184.573 494.127 177.937 497.546 174.47C497.688 174.322 497.837 174.183 497.986 174.044C501.665 170.728 505.29 172.353 506.084 177.656C506.879 182.96 504.548 189.955 500.863 193.263C500.714 193.402 500.567 193.526 500.413 193.642C496.899 196.432 493.528 194.735 492.764 189.65L492.771 189.658Z" fill="url(#paint26_linear_90_2917)"/>
<path d="M493.067 189.394C493.036 189.23 493.021 189.068 492.999 188.897C492.469 184.103 494.465 178.083 497.624 174.893C497.658 174.867 497.677 174.839 497.705 174.805C497.82 174.691 497.926 174.584 498.039 174.485C498.737 173.851 499.439 173.414 500.108 173.149C501.706 172.518 503.173 172.882 504.243 174.121C504.867 174.841 505.35 175.869 505.641 177.175C505.691 177.418 505.738 177.677 505.778 177.941C505.813 178.183 505.839 178.43 505.866 178.678C505.915 179.203 505.932 179.74 505.923 180.295C505.864 184.115 504.444 188.347 502.274 191.232C501.965 191.639 501.629 192.027 501.291 192.377C501.123 192.544 500.963 192.705 500.797 192.857C500.656 192.99 500.503 193.106 500.365 193.224L500.245 193.314C499.274 194.048 498.321 194.434 497.436 194.486C495.929 194.581 494.624 193.706 493.811 191.991C493.469 191.273 493.209 190.398 493.052 189.392L493.06 189.386L493.067 189.394Z" fill="#ECECEC"/>
<path d="M493.067 189.394C493.036 189.23 493.021 189.068 492.999 188.897C492.469 184.103 494.465 178.083 497.624 174.893C497.658 174.867 497.677 174.839 497.705 174.805C497.82 174.691 497.926 174.584 498.039 174.485C498.737 173.851 499.439 173.414 500.108 173.149C501.706 172.518 503.173 172.882 504.243 174.121C504.867 174.841 505.35 175.869 505.641 177.175C505.691 177.418 505.738 177.677 505.778 177.941C505.813 178.183 505.839 178.43 505.866 178.678C505.915 179.203 505.932 179.74 505.923 180.295C505.864 184.115 504.444 188.347 502.274 191.232C501.965 191.639 501.629 192.027 501.291 192.377C501.123 192.544 500.963 192.705 500.797 192.857C500.656 192.99 500.503 193.106 500.365 193.224L500.245 193.314C499.274 194.048 498.321 194.434 497.436 194.486C495.929 194.581 494.624 193.706 493.811 191.991C493.469 191.273 493.209 190.398 493.052 189.392L493.06 189.386L493.067 189.394Z" fill="#CF3837"/>
<path d="M494.265 189.279C494.287 189.45 494.302 189.612 494.333 189.776C494.482 190.788 494.743 191.648 495.092 192.375C495.563 193.371 496.211 194.087 496.964 194.481C497.123 194.496 497.298 194.497 497.466 194.49C498.351 194.438 499.304 194.052 500.275 193.318L500.395 193.228C500.54 193.118 500.687 192.994 500.827 192.861C500.993 192.709 501.159 192.556 501.321 192.381C501.659 192.031 501.987 191.65 502.304 191.236C504.481 188.36 505.894 184.119 505.953 180.299C505.968 179.752 505.945 179.208 505.896 178.682C505.87 178.434 505.843 178.187 505.808 177.946C505.769 177.681 505.721 177.422 505.671 177.179C505.38 175.873 504.897 174.845 504.273 174.125C503.945 173.744 503.589 173.451 503.191 173.243C502.619 173.193 502.019 173.285 501.389 173.533C500.72 173.798 500.025 174.243 499.32 174.869C499.207 174.968 499.092 175.082 498.986 175.189C498.952 175.215 498.933 175.243 498.905 175.277C495.747 178.467 493.756 184.496 494.28 189.281L494.271 189.287L494.265 189.279Z" fill="url(#paint27_linear_90_2917)"/>
<path d="M496.743 198.866C501.02 198.271 503.922 193.963 505.744 190.297C508.321 184.655 509.493 178.039 507.48 172.505C506.868 170.987 505.878 169.552 504.365 168.862C505.906 169.518 506.958 170.946 507.591 172.475C509.353 176.967 508.784 182.31 507.221 187.132C505.491 191.947 502.267 198.079 496.75 198.874L496.743 198.866Z" fill="#CF3837"/>
<path d="M431.574 543.417L264.694 447.074C248.85 437.921 250.842 421.946 269.13 411.383L412.892 328.385C431.198 317.822 458.864 316.675 474.708 325.828L641.57 422.171C657.414 431.324 655.421 447.3 637.134 457.863L493.372 540.861C475.066 551.424 447.399 552.57 431.555 543.417H431.574Z" fill="#FFAFA8"/>
<path d="M637.152 452.074L493.39 535.072C475.083 545.635 447.417 546.781 431.554 537.628L264.693 441.304C258.641 437.809 255.202 433.335 254.262 428.524C252.984 435.328 256.367 442 264.693 446.811L431.554 543.154C447.398 552.307 475.083 551.161 493.39 540.598L637.152 457.6C648.466 451.059 653.541 442.451 652.019 434.689C650.853 440.835 645.854 447.093 637.152 452.112V452.074Z" fill="url(#paint28_linear_90_2917)"/>
<g opacity="0.58">
<path d="M431.574 525.562L264.694 429.219C248.85 420.066 250.842 404.091 269.13 393.528L412.892 310.53C431.198 299.967 458.864 298.82 474.709 307.973L641.57 404.316C657.414 413.469 655.422 429.445 637.134 440.008L493.372 523.006C475.066 533.569 447.4 534.715 431.555 525.562H431.574Z" fill="url(#paint29_linear_90_2917)"/>
</g>
<path d="M575.297 410.202C575.52 369.056 517.917 335.388 446.638 335.002C375.358 334.616 317.395 367.659 317.172 408.806C316.949 449.952 374.552 483.62 445.832 484.006C517.111 484.392 575.075 451.349 575.297 410.202Z" fill="url(#paint30_linear_90_2917)"/>
<path d="M574 0H319V406.317C319.206 425.096 331.751 443.875 356.614 458.255C406.566 487.129 487.278 487.26 536.911 458.575C561.831 444.176 574.169 425.246 573.962 406.317V0H574Z" fill="url(#paint31_linear_90_2917)"/>
<path d="M561.991 400.209C562.191 363.308 510.535 333.114 446.615 332.768C382.696 332.422 330.716 362.056 330.517 398.957C330.317 435.857 381.973 466.052 445.892 466.398C509.812 466.744 561.792 437.11 561.991 400.209Z" fill="url(#paint32_linear_90_2917)"/>
<path d="M330.496 333.515V399.372L561.992 399.805V333.929L330.496 333.515Z" fill="url(#paint33_linear_90_2917)"/>
<path d="M561.973 334.353C562.173 297.452 510.517 267.257 446.597 266.911C382.678 266.566 330.698 296.199 330.499 333.1C330.299 370.001 381.954 400.195 445.874 400.541C509.794 400.887 561.774 371.253 561.973 334.353Z" fill="#ECECEC"/>
<path d="M551.204 332.329C551.385 298.864 504.536 271.481 446.564 271.167C388.592 270.853 341.449 297.728 341.268 331.193C341.087 364.658 387.936 392.041 445.908 392.355C503.88 392.668 551.023 365.794 551.204 332.329Z" fill="white"/>
<path opacity="0.36" d="M445.934 276.36C392.951 276.266 350.136 300.981 350.305 331.58C350.475 362.159 393.552 387.043 446.535 387.137C499.518 387.231 542.333 362.516 542.164 331.918C541.995 301.339 498.917 276.454 445.934 276.36Z" fill="url(#paint34_linear_90_2917)"/>
<g style="mix-blend-mode:screen">
<path d="M397.499 224.205H392.274C390.8 224.205 389.605 225.399 389.605 226.873V264.632C389.605 266.106 390.8 267.301 392.274 267.301H397.499C398.973 267.301 400.168 266.106 400.168 264.632V226.873C400.168 225.399 398.973 224.205 397.499 224.205Z" fill="#132B40"/>
<path d="M516.434 233.076H511.209C509.735 233.076 508.54 234.271 508.54 235.745V262.02C508.54 263.494 509.735 264.689 511.209 264.689H516.434C517.908 264.689 519.102 263.494 519.102 262.02V235.745C519.102 234.271 517.908 233.076 516.434 233.076Z" fill="#132B40"/>
<path d="M545.415 214.262H540.19C538.716 214.262 537.521 215.457 537.521 216.931V223.321C537.521 224.795 538.716 225.99 540.19 225.99H545.415C546.889 225.99 548.084 224.795 548.084 223.321V216.931C548.084 215.457 546.889 214.262 545.415 214.262Z" fill="#132B40"/>
<path d="M545.29 204.384L540.086 204.232C538.601 204.188 537.453 202.951 537.496 201.486L537.957 185.761C538.001 184.277 539.238 183.129 540.703 183.172L545.907 183.324C547.391 183.368 548.54 184.605 548.497 186.07L548.036 201.795C547.992 203.279 546.755 204.427 545.29 204.384Z" fill="#132B40"/>
<path d="M363.875 236.121H358.65C357.176 236.121 355.981 237.316 355.981 238.789V254.54C355.981 256.014 357.176 257.209 358.65 257.209H363.875C365.349 257.209 366.544 256.014 366.544 254.54V238.789C366.544 237.316 365.349 236.121 363.875 236.121Z" fill="#132B40"/>
<path d="M491.248 147.615H496.454C497.939 147.615 499.123 148.818 499.123 150.284V176.541C499.123 178.025 497.92 179.209 496.454 179.209H491.248C489.763 179.209 488.579 178.007 488.579 176.541V150.284C488.579 148.799 489.782 147.615 491.248 147.615Z" fill="#132B40"/>
<path d="M348.557 0H359.12V38.3416C359.12 39.8264 357.917 41.0105 356.451 41.0105H351.245C349.76 41.0105 348.576 39.8076 348.576 38.3416V0H348.557Z" fill="#132B40"/>
<path d="M551.749 53.3774H556.955C558.44 53.3774 559.624 54.5803 559.624 56.0463V95.1021C559.624 96.5869 558.421 97.771 556.955 97.771H551.749C550.264 97.771 549.08 96.5681 549.08 95.1021V56.0651C549.08 54.5803 550.283 53.3962 551.749 53.3962V53.3774Z" fill="#132B40"/>
<path d="M425.936 99.8198H431.142C432.627 99.8198 433.811 101.023 433.811 102.489V147.39C433.811 148.875 432.608 150.059 431.142 150.059H425.936C424.451 150.059 423.267 148.856 423.267 147.39V102.489C423.267 101.004 424.47 99.8198 425.936 99.8198Z" fill="#132B40"/>
<path d="M524.008 11.0513H529.214C530.699 11.0513 531.883 12.2541 531.883 13.7201V39.9766C531.883 41.4614 530.68 42.6455 529.214 42.6455H524.008C522.523 42.6455 521.339 41.4426 521.339 39.9766V13.7389C521.339 12.2541 522.542 11.0701 524.008 11.0701V11.0513Z" fill="#132B40"/>
<path d="M351.226 56.9111H356.432C357.917 56.9111 359.101 58.114 359.101 59.58V75.3113C359.101 76.7961 357.898 77.9802 356.432 77.9802H351.226C349.741 77.9802 348.557 76.7773 348.557 75.3113V59.58C348.557 58.0952 349.76 56.9111 351.226 56.9111Z" fill="#132B40"/>
<path d="M489.82 25.8242H484.595C483.121 25.8242 481.926 27.0191 481.926 28.4931V54.7684C481.926 56.2423 483.121 57.4372 484.595 57.4372H489.82C491.294 57.4372 492.489 56.2423 492.489 54.7684V28.4931C492.489 27.0191 491.294 25.8242 489.82 25.8242Z" fill="#132B40"/>
<path d="M338.671 129.497H343.877C345.362 129.497 346.546 130.7 346.546 132.166V158.422C346.546 159.907 345.343 161.091 343.877 161.091H338.671C337.186 161.091 336.002 159.888 336.002 158.422V132.166C336.002 130.681 337.205 129.497 338.671 129.497Z" fill="#132B40"/>
</g>
<path opacity="0.8" d="M281.466 63.0156L262.465 96.4925L301.499 94.4231L281.466 63.0156Z" fill="#EA2928"/>
<path opacity="0.7" d="M281.466 63.0156H271.789L254 94.5962L262.465 96.4925L281.466 63.0156Z" fill="#F06969"/>
<path opacity="0.8" d="M291.829 136.074L273.985 140.552V95.8837L291.829 94.9355V136.074Z" fill="url(#paint35_linear_90_2917)"/>
<path opacity="0.7" d="M273.985 140.551L264.017 138.406V96.4093L273.985 95.8833V140.551Z" fill="url(#paint36_linear_90_2917)"/>
<g opacity="0.51">
<path opacity="0.8" d="M280.729 177.298L270.366 195.557L291.655 194.429L280.729 177.298Z" fill="#EA2928"/>
<path opacity="0.7" d="M280.729 177.298H275.451L265.749 194.523L270.366 195.557L280.729 177.298Z" fill="#F06969"/>
<path opacity="0.8" d="M286.381 217.146L276.649 219.588V195.225L286.381 194.708V217.146Z" fill="url(#paint37_linear_90_2917)"/>
<path opacity="0.7" d="M276.649 219.588L271.212 218.418V195.512L276.649 195.225V219.588Z" fill="url(#paint38_linear_90_2917)"/>
</g>
<g opacity="0.51">
<path opacity="0.8" d="M281.588 256.335L274.325 269.132L289.246 268.341L281.588 256.335Z" fill="#EA2928"/>
<path opacity="0.7" d="M281.588 256.335H277.889L271.089 268.407L274.325 269.132L281.588 256.335Z" fill="#F06969"/>
<path opacity="0.8" d="M285.55 284.262L278.729 285.974V268.899L285.55 268.537V284.262Z" fill="url(#paint39_linear_90_2917)"/>
<path opacity="0.7" d="M278.728 285.974L274.918 285.154V269.1L278.728 268.899V285.974Z" fill="url(#paint40_linear_90_2917)"/>
</g>
</g>
<path d="M698.662 344.449C698.662 362.298 673.482 376.77 642.421 376.77C611.361 376.77 586.167 362.298 586.167 344.449C586.167 340.58 587.359 336.864 589.527 333.417C597.375 320.994 618.087 312.114 642.421 312.114C666.756 312.114 688.084 321.25 695.649 333.978C697.609 337.265 698.662 340.788 698.662 344.449Z" stroke="#F99696" stroke-width="0.950575" stroke-miterlimit="10"/>
<path opacity="0.7" d="M683.124 260.602V338.56H683.048C683.027 338.698 683.007 338.837 682.972 338.968C682.972 338.975 682.972 338.989 682.972 338.996C682.944 339.127 682.917 339.252 682.882 339.383C682.882 339.383 682.882 339.397 682.882 339.404C682.847 339.536 682.806 339.667 682.764 339.806C682.723 339.944 682.674 340.082 682.619 340.214C682.563 340.345 682.508 340.484 682.445 340.622C682.383 340.754 682.321 340.892 682.252 341.024C682.12 341.28 681.974 341.536 681.815 341.792C681.808 341.799 681.794 341.813 681.794 341.82C681.545 342.214 681.261 342.602 680.942 342.989C680.942 342.989 680.935 342.996 680.935 343.003C680.721 343.252 680.499 343.501 680.27 343.744C680.257 343.757 680.243 343.771 680.229 343.785C680 344.02 679.758 344.249 679.508 344.484C679.377 344.595 679.252 344.713 679.121 344.823C678.968 344.955 678.823 345.079 678.663 345.204C678.372 345.446 678.061 345.675 677.742 345.91C677.576 346.028 677.416 346.138 677.25 346.256C677.084 346.374 676.911 346.484 676.745 346.595C676.571 346.706 676.398 346.817 676.218 346.927C676.038 347.038 675.858 347.149 675.671 347.253C675.484 347.363 675.297 347.467 675.11 347.578C674.923 347.689 674.722 347.792 674.528 347.896C674.389 347.972 674.237 348.048 674.092 348.125C673.932 348.208 673.766 348.291 673.6 348.374C673.26 348.54 672.921 348.706 672.575 348.865C672.394 348.948 672.214 349.031 672.027 349.107C671.889 349.17 671.743 349.239 671.598 349.294C671.522 349.329 671.445 349.364 671.362 349.398C670.718 349.668 670.06 349.931 669.381 350.18C669.166 350.263 668.945 350.346 668.723 350.422C667.171 350.976 665.516 351.481 663.777 351.938C663.258 352.07 662.738 352.201 662.205 352.326C661.858 352.409 661.512 352.492 661.159 352.568C660.66 352.672 660.161 352.782 659.656 352.879C658.769 353.059 657.848 353.225 656.926 353.378C656.622 353.433 656.31 353.481 656.005 353.523C655.645 353.578 655.278 353.634 654.911 353.689C654.661 353.724 654.405 353.758 654.156 353.793C653.65 353.862 653.137 353.924 652.618 353.98C652.292 354.021 651.96 354.056 651.627 354.091C650.283 354.229 648.919 354.347 647.526 354.43C647.249 354.45 646.972 354.464 646.695 354.478C646.557 354.485 646.418 354.492 646.28 354.499C646.023 354.513 645.76 354.52 645.497 354.533C645.074 354.554 644.666 354.575 644.236 354.589C644.091 354.589 643.945 354.589 643.8 354.596C643.599 354.596 643.405 354.603 643.204 354.61C643.169 354.61 643.128 354.61 643.093 354.61C642.795 354.617 642.497 354.623 642.206 354.63H642.165C641.819 354.63 641.472 354.63 641.119 354.63C640.392 354.63 639.671 354.623 638.958 354.61C638.785 354.61 638.618 354.603 638.445 354.596C637.468 354.575 636.506 354.533 635.55 354.478C635.273 354.464 634.995 354.45 634.718 354.43C633.326 354.347 631.955 354.229 630.618 354.091C630.285 354.056 629.96 354.021 629.627 353.98C629.108 353.924 628.602 353.862 628.089 353.793C627.84 353.758 627.584 353.724 627.334 353.689C626.96 353.634 626.6 353.585 626.24 353.523C625.935 353.481 625.623 353.433 625.318 353.378C624.39 353.225 623.476 353.059 622.589 352.879C622.084 352.776 621.578 352.672 621.086 352.568C620.733 352.492 620.379 352.409 620.04 352.326C619.507 352.201 618.987 352.07 618.468 351.938C616.722 351.481 615.073 350.976 613.522 350.422C613.3 350.346 613.078 350.27 612.864 350.18C612.185 349.931 611.52 349.668 610.883 349.398C610.654 349.308 610.432 349.211 610.218 349.107C610.037 349.024 609.857 348.948 609.677 348.865C609.331 348.706 608.985 348.54 608.645 348.374C608.479 348.291 608.313 348.208 608.153 348.125C608.001 348.048 607.855 347.972 607.717 347.896C607.516 347.792 607.322 347.689 607.135 347.578C606.948 347.474 606.761 347.363 606.574 347.253C606.387 347.149 606.207 347.038 606.027 346.927C605.847 346.817 605.673 346.706 605.5 346.595C605.327 346.477 605.161 346.367 604.995 346.256C604.828 346.138 604.669 346.028 604.503 345.91C604.184 345.682 603.872 345.446 603.582 345.204C603.422 345.079 603.27 344.955 603.124 344.823C602.993 344.706 602.868 344.595 602.736 344.484C602.487 344.249 602.245 344.02 602.016 343.785C602.002 343.764 601.988 343.757 601.974 343.744C601.739 343.501 601.517 343.245 601.309 343.003C601.309 343.003 601.309 342.996 601.303 342.989C600.984 342.602 600.7 342.214 600.451 341.82C600.451 341.813 600.437 341.799 600.43 341.792C600.277 341.543 600.132 341.287 599.993 341.024C599.924 340.892 599.862 340.754 599.799 340.622C599.737 340.484 599.682 340.345 599.626 340.214C599.571 340.076 599.522 339.937 599.481 339.806C599.439 339.674 599.398 339.543 599.363 339.404C599.363 339.397 599.363 339.383 599.363 339.383C599.328 339.252 599.294 339.12 599.273 338.996C599.273 338.989 599.273 338.975 599.273 338.968C599.245 338.83 599.218 338.691 599.197 338.56H599.121V261.764H599.889L600.215 261.75L605.216 261.681L677.507 260.678L682.681 260.608H682.903L683.221 260.602H683.124Z" fill="url(#paint41_linear_90_2917)"/>
<path opacity="0.7" d="M641.077 307.699C664.299 307.699 683.124 300.036 683.124 290.583C683.124 281.13 664.299 273.467 641.077 273.467C617.855 273.467 599.03 281.13 599.03 290.583C599.03 300.036 617.855 307.699 641.077 307.699Z" fill="url(#paint42_linear_90_2917)"/>
<path opacity="0.5" d="M641.077 307.117C618.093 307.117 599.418 299.608 599.037 290.292C599.037 290.389 599.03 290.486 599.03 290.583C599.03 300.037 617.858 307.699 641.077 307.699C664.297 307.699 683.124 300.037 683.124 290.583C683.124 290.486 683.124 290.389 683.117 290.292C682.736 299.608 664.061 307.117 641.077 307.117Z" fill="white"/>
<path opacity="0.8" d="M640.967 307.699C617.74 307.699 598.92 300.037 598.92 290.583V338.566H599.003C600.326 347.536 618.606 354.644 640.974 354.644C663.341 354.644 681.621 347.536 682.944 338.566H683.027V290.583C683.027 300.037 664.2 307.699 640.981 307.699H640.967Z" fill="url(#paint43_linear_90_2917)"/>
<path d="M673.246 258.497C665.53 254.76 653.989 252.386 641.077 252.386C628.165 252.386 616.625 254.76 608.908 258.497H599.024V269.71C599.231 279.115 617.976 286.714 641.07 286.714C664.165 286.714 682.91 279.115 683.117 269.71V258.497H673.233H673.246Z" fill="url(#paint44_linear_90_2917)"/>
<path d="M641.077 275.613C664.299 275.613 683.124 267.95 683.124 258.497C683.124 249.045 664.299 241.382 641.077 241.382C617.855 241.382 599.03 249.045 599.03 258.497C599.03 267.95 617.855 275.613 641.077 275.613Z" fill="#FBF0F0"/>
<path d="M641.077 274.99C618.114 274.99 599.446 267.495 599.037 258.186C599.037 258.29 599.03 258.394 599.03 258.497C599.03 267.952 617.858 275.613 641.077 275.613C664.297 275.613 683.124 267.952 683.124 258.497C683.124 258.394 683.124 258.29 683.117 258.186C682.709 267.495 664.04 274.99 641.077 274.99Z" fill="white"/>
<path d="M709.378 361.254C714.04 354.9 713.527 342.519 707.487 330.587C701.363 318.503 691.506 310.717 683.568 310.91L683.09 309.983L678.733 312.184V312.198C670.746 316.669 670.06 331.59 677.292 345.854C684.524 360.126 696.958 368.41 705.298 364.617V364.631L709.911 362.299L709.371 361.247L709.378 361.254Z" fill="url(#paint45_linear_90_2917)"/>
<path d="M709.679 362.388C718.017 358.17 718.828 343.01 711.49 328.527C704.151 314.043 691.443 305.721 683.104 309.939C674.766 314.156 673.955 329.316 681.293 343.8C688.632 358.283 701.34 366.605 709.679 362.388Z" fill="url(#paint46_linear_90_2917)"/>
<defs>
<filter id="filter0_f_90_2917" x="0.621483" y="89.6215" width="607.757" height="538.782" filterUnits="userSpaceOnUse" color-interpolation-filters="sRGB">
<feFlood flood-opacity="0" result="BackgroundImageFix"/>
<feBlend mode="normal" in="SourceGraphic" in2="BackgroundImageFix" result="shape"/>
<feGaussianBlur stdDeviation="43.1893" result="effect1_foregroundBlur_90_2917"/>
</filter>
<linearGradient id="paint0_linear_90_2917" x1="438.841" y1="73.788" x2="501.76" y2="73.788" gradientUnits="userSpaceOnUse">
<stop stop-color="#D24236"/>
<stop offset="1" stop-color="#DD8E56"/>
</linearGradient>
<linearGradient id="paint1_linear_90_2917" x1="441.5" y1="66.931" x2="502.412" y2="66.931" gradientUnits="userSpaceOnUse">
<stop stop-color="#EE5A55"/>
<stop offset="1" stop-color="#F0BF92"/>
</linearGradient>
<linearGradient id="paint2_linear_90_2917" x1="449.233" y1="66.9415" x2="494.625" y2="66.9415" gradientUnits="userSpaceOnUse">
<stop stop-color="#D24236"/>
<stop offset="1" stop-color="#DD8E56"/>
</linearGradient>
<linearGradient id="paint3_linear_90_2917" x1="442.568" y1="81.1309" x2="493.858" y2="74.18" gradientUnits="userSpaceOnUse">
<stop offset="0.09375" stop-color="#FB6064"/>
<stop offset="1" stop-color="#FECB47"/>
</linearGradient>
<linearGradient id="paint4_linear_90_2917" x1="441.457" y1="71.5772" x2="499.848" y2="71.5772" gradientUnits="userSpaceOnUse">
<stop stop-color="#D24236"/>
<stop offset="1" stop-color="#DD8E56"/>
</linearGradient>
<linearGradient id="paint5_linear_90_2917" x1="381.219" y1="88.5698" x2="410.772" y2="88.5698" gradientUnits="userSpaceOnUse">
<stop stop-color="#D24236"/>
<stop offset="1" stop-color="#DD8E56"/>
</linearGradient>
<linearGradient id="paint6_linear_90_2917" x1="382.447" y1="85.3657" x2="411.071" y2="85.3657" gradientUnits="userSpaceOnUse">
<stop stop-color="#EE5A55"/>
<stop offset="1" stop-color="#F0BF92"/>
</linearGradient>
<linearGradient id="paint7_linear_90_2917" x1="386.089" y1="85.3658" x2="407.418" y2="85.3658" gradientUnits="userSpaceOnUse">
<stop stop-color="#D24236"/>
<stop offset="1" stop-color="#DD8E56"/>
</linearGradient>
<linearGradient id="paint8_linear_90_2917" x1="382.934" y1="91.9915" x2="407.041" y2="88.7224" gradientUnits="userSpaceOnUse">
<stop offset="0.6896" stop-color="#F42D32"/>
<stop offset="1" stop-color="#FCCB4C"/>
</linearGradient>
<linearGradient id="paint9_linear_90_2917" x1="382.426" y1="87.5337" x2="409.864" y2="87.5337" gradientUnits="userSpaceOnUse">
<stop stop-color="#D24236"/>
<stop offset="1" stop-color="#DD8E56"/>
</linearGradient>
<linearGradient id="paint10_linear_90_2917" x1="485.996" y1="138.085" x2="514.15" y2="138.085" gradientUnits="userSpaceOnUse">
<stop stop-color="#D24236"/>
<stop offset="1" stop-color="#DD8E56"/>
</linearGradient>
<linearGradient id="paint11_linear_90_2917" x1="485.077" y1="135.586" x2="512.099" y2="135.586" gradientUnits="userSpaceOnUse">
<stop stop-color="#EE5A55"/>
<stop offset="1" stop-color="#F0BF92"/>
</linearGradient>
<linearGradient id="paint12_linear_90_2917" x1="488.527" y1="135.586" x2="508.66" y2="135.586" gradientUnits="userSpaceOnUse">
<stop stop-color="#D24236"/>
<stop offset="1" stop-color="#DD8E56"/>
</linearGradient>
<linearGradient id="paint13_linear_90_2917" x1="486.388" y1="143.799" x2="508.929" y2="141.551" gradientUnits="userSpaceOnUse">
<stop offset="0.6896" stop-color="#F42D32"/>
<stop offset="1" stop-color="#FCCB4C"/>
</linearGradient>
<linearGradient id="paint14_linear_90_2917" x1="414.506" y1="170.379" x2="464.704" y2="132.445" gradientUnits="userSpaceOnUse">
<stop stop-color="#D24236"/>
<stop offset="1" stop-color="#DD8E56"/>
</linearGradient>
<linearGradient id="paint15_linear_90_2917" x1="412.493" y1="163.305" x2="461.09" y2="126.582" gradientUnits="userSpaceOnUse">
<stop stop-color="#EE5A55"/>
<stop offset="1" stop-color="#F0BF92"/>
</linearGradient>
<linearGradient id="paint16_linear_90_2917" x1="418.669" y1="158.651" x2="454.884" y2="131.284" gradientUnits="userSpaceOnUse">
<stop stop-color="#D24236"/>
<stop offset="1" stop-color="#DD8E56"/>
</linearGradient>
<linearGradient id="paint17_linear_90_2917" x1="421.906" y1="173.99" x2="458.636" y2="137.523" gradientUnits="userSpaceOnUse">
<stop offset="0.09375" stop-color="#FB6064"/>
<stop offset="1" stop-color="#FECB47"/>
</linearGradient>
<linearGradient id="paint18_linear_90_2917" x1="415.26" y1="167.037" x2="461.846" y2="131.834" gradientUnits="userSpaceOnUse">
<stop stop-color="#D24236"/>
<stop offset="1" stop-color="#DD8E56"/>
</linearGradient>
<linearGradient id="paint19_linear_90_2917" x1="377.445" y1="216.912" x2="401.024" y2="199.094" gradientUnits="userSpaceOnUse">
<stop stop-color="#D24236"/>
<stop offset="1" stop-color="#DD8E56"/>
</linearGradient>
<linearGradient id="paint20_linear_90_2917" x1="376.494" y1="213.615" x2="399.33" y2="196.358" gradientUnits="userSpaceOnUse">
<stop stop-color="#EE5A55"/>
<stop offset="1" stop-color="#F0BF92"/>
</linearGradient>
<linearGradient id="paint21_linear_90_2917" x1="379.399" y1="211.419" x2="396.416" y2="198.56" gradientUnits="userSpaceOnUse">
<stop stop-color="#D24236"/>
<stop offset="1" stop-color="#DD8E56"/>
</linearGradient>
<linearGradient id="paint22_linear_90_2917" x1="380.877" y1="218.607" x2="398.139" y2="201.465" gradientUnits="userSpaceOnUse">
<stop offset="0.6896" stop-color="#F42D32"/>
<stop offset="1" stop-color="#FCCB4C"/>
</linearGradient>
<linearGradient id="paint23_linear_90_2917" x1="377.784" y1="215.358" x2="399.675" y2="198.815" gradientUnits="userSpaceOnUse">
<stop stop-color="#D24236"/>
<stop offset="1" stop-color="#DD8E56"/>
</linearGradient>
<linearGradient id="paint24_linear_90_2917" x1="490.891" y1="193.247" x2="513.353" y2="176.273" gradientUnits="userSpaceOnUse">
<stop stop-color="#D24236"/>
<stop offset="1" stop-color="#DD8E56"/>
</linearGradient>
<linearGradient id="paint25_linear_90_2917" x1="488.651" y1="191.807" x2="510.21" y2="175.516" gradientUnits="userSpaceOnUse">
<stop stop-color="#EE5A55"/>
<stop offset="1" stop-color="#F0BF92"/>
</linearGradient>
<linearGradient id="paint26_linear_90_2917" x1="491.404" y1="189.727" x2="507.466" y2="177.589" gradientUnits="userSpaceOnUse">
<stop stop-color="#D24236"/>
<stop offset="1" stop-color="#DD8E56"/>
</linearGradient>
<linearGradient id="paint27_linear_90_2917" x1="494.65" y1="197.569" x2="511.277" y2="182.186" gradientUnits="userSpaceOnUse">
<stop offset="0.6896" stop-color="#F42D32"/>
<stop offset="1" stop-color="#FCCB4C"/>
</linearGradient>
<linearGradient id="paint28_linear_90_2917" x1="181.492" y1="549.335" x2="638.557" y2="424.583" gradientUnits="userSpaceOnUse">
<stop offset="0.6896" stop-color="#F42D32"/>
<stop offset="1" stop-color="#FCCB4C"/>
</linearGradient>
<linearGradient id="paint29_linear_90_2917" x1="181.495" y1="531.743" x2="662.693" y2="462.743" gradientUnits="userSpaceOnUse">
<stop offset="0.6896" stop-color="#F42D32"/>
<stop offset="1" stop-color="#FCCB4C"/>
</linearGradient>
<linearGradient id="paint30_linear_90_2917" x1="574.747" y1="511.831" x2="566.978" y2="328.468" gradientUnits="userSpaceOnUse">
<stop offset="0.6896" stop-color="#F42D32"/>
<stop offset="1" stop-color="#FCCB4C"/>
</linearGradient>
<linearGradient id="paint31_linear_90_2917" x1="446.49" y1="380.338" x2="446.49" y2="4.13555" gradientUnits="userSpaceOnUse">
<stop offset="0.17" stop-color="#FFAFA8"/>
<stop offset="0.9999" stop-color="white" stop-opacity="0"/>
<stop offset="1" stop-color="white" stop-opacity="0"/>
</linearGradient>
<linearGradient id="paint32_linear_90_2917" x1="330.494" y1="399.589" x2="561.991" y2="399.589" gradientUnits="userSpaceOnUse">
<stop stop-color="#B7B1C1"/>
<stop offset="0.32" stop-color="#A8A4B5"/>
<stop offset="0.64" stop-color="#C6C0D0"/>
</linearGradient>
<linearGradient id="paint33_linear_90_2917" x1="330.496" y1="366.651" x2="561.992" y2="366.651" gradientUnits="userSpaceOnUse">
<stop stop-color="#B7B1C1"/>
<stop offset="0.15" stop-color="#A8A4B5"/>
<stop offset="0.32" stop-color="#A8A4B5"/>
<stop offset="0.45" stop-color="#B6B1C1"/>
<stop offset="0.64" stop-color="#C6C0D0"/>
</linearGradient>
<linearGradient id="paint34_linear_90_2917" x1="315.377" y1="387.138" x2="547.188" y2="353.899" gradientUnits="userSpaceOnUse">
<stop offset="0.6896" stop-color="#F42D32"/>
<stop offset="1" stop-color="#FCCB4C"/>
</linearGradient>
<linearGradient id="paint35_linear_90_2917" x1="282.907" y1="140.552" x2="282.907" y2="94.9355" gradientUnits="userSpaceOnUse">
<stop stop-color="#FCA12E"/>
<stop offset="1" stop-color="#EA2928"/>
</linearGradient>
<linearGradient id="paint36_linear_90_2917" x1="267.586" y1="137.86" x2="268.029" y2="95.4775" gradientUnits="userSpaceOnUse">
<stop stop-color="#FFC170"/>
<stop offset="1" stop-color="#FF5351"/>
</linearGradient>
<linearGradient id="paint37_linear_90_2917" x1="281.515" y1="219.588" x2="281.515" y2="194.708" gradientUnits="userSpaceOnUse">
<stop stop-color="#FCA12E"/>
<stop offset="1" stop-color="#EA2928"/>
</linearGradient>
<linearGradient id="paint38_linear_90_2917" x1="273.158" y1="218.12" x2="273.4" y2="195.004" gradientUnits="userSpaceOnUse">
<stop stop-color="#FFC170"/>
<stop offset="1" stop-color="#FF5351"/>
</linearGradient>
<linearGradient id="paint39_linear_90_2917" x1="282.139" y1="285.974" x2="282.139" y2="268.537" gradientUnits="userSpaceOnUse">
<stop stop-color="#FCA12E"/>
<stop offset="1" stop-color="#EA2928"/>
</linearGradient>
<linearGradient id="paint40_linear_90_2917" x1="276.282" y1="284.946" x2="276.452" y2="268.744" gradientUnits="userSpaceOnUse">
<stop stop-color="#FFC170"/>
<stop offset="1" stop-color="#FF5351"/>
</linearGradient>
<linearGradient id="paint41_linear_90_2917" x1="599.024" y1="307.623" x2="683.124" y2="307.623" gradientUnits="userSpaceOnUse">
<stop stop-color="#F9B496"/>
<stop offset="1" stop-color="#FFAFAF"/>
</linearGradient>
<linearGradient id="paint42_linear_90_2917" x1="599.023" y1="290.583" x2="683.124" y2="290.583" gradientUnits="userSpaceOnUse">
<stop stop-color="#F9AE96"/>
<stop offset="1" stop-color="#FFA9A9"/>
</linearGradient>
<linearGradient id="paint43_linear_90_2917" x1="598.913" y1="322.607" x2="683.014" y2="322.607" gradientUnits="userSpaceOnUse">
<stop stop-color="#FA4848"/>
<stop offset="1" stop-color="#F9D196"/>
</linearGradient>
<linearGradient id="paint44_linear_90_2917" x1="599.024" y1="269.55" x2="683.124" y2="269.55" gradientUnits="userSpaceOnUse">
<stop stop-color="#F1F2FB" stop-opacity="0"/>
<stop offset="1" stop-color="#F7E2E2"/>
</linearGradient>
<linearGradient id="paint45_linear_90_2917" x1="676.56" y1="312.829" x2="715.014" y2="357.571" gradientUnits="userSpaceOnUse">
<stop stop-color="#FF5F5C"/>
<stop offset="1" stop-color="#FDA62E"/>
</linearGradient>
<linearGradient id="paint46_linear_90_2917" x1="683.116" y1="309.962" x2="709.657" y2="362.435" gradientUnits="userSpaceOnUse">
<stop stop-color="#FFAFA8"/>
<stop offset="1" stop-color="#FFCFA2"/>
</linearGradient>
<clipPath id="clip0_90_2917">
<rect width="398.302" height="549.601" fill="white" transform="translate(254)"/>
</clipPath>
</defs>
</svg>
