<svg width="536" height="476" viewBox="0 0 536 476" fill="none" xmlns="http://www.w3.org/2000/svg">
<g opacity="0.8">
<path d="M230.915 86.5951H252.541C252.541 95.9942 251.585 104.915 249.674 113.359C247.842 121.802 245.572 128.692 242.863 134.029C240.235 139.365 237.566 144.025 234.858 148.008C232.15 151.911 229.84 154.699 227.928 156.371L225.18 159H198.058L189.097 129.966C187.982 133.71 186.23 138.011 183.84 142.87C181.53 147.649 179.459 151.513 177.627 154.46L174.879 159H148.952L126.609 86.5951H164.485L171.295 133.67C172.49 132.475 173.963 130.325 175.716 127.218C177.548 124.032 179.061 120.806 180.256 117.54C181.53 114.195 182.685 109.774 183.721 104.278C184.836 98.7024 185.433 92.8081 185.513 86.5951H211.201L218.012 133.67C223.587 126.661 227.451 116.863 229.601 104.278C230.477 98.7024 230.915 92.8081 230.915 86.5951ZM310.487 159L305.708 146.933H275.241L270.7 159H253.734L273.926 86.5951H316.461L336.653 159H310.487ZM299.615 131.4L290.176 107.504L281.095 131.4H299.615ZM365.966 146.933C371.462 146.933 375.724 144.025 378.75 138.21C381.777 132.396 383.291 126.302 383.291 119.93C383.291 113.478 382.136 108.34 379.826 104.517C377.516 100.694 374.529 98.7821 370.865 98.7821H370.148L365.249 146.933H365.966ZM365.488 159H342.07L334.901 86.5951H370.148C387.911 86.5951 400.137 91.454 406.828 101.172C410.333 106.349 412.085 112.482 412.085 119.572C412.085 145.857 396.553 159 365.488 159Z" fill="url(#paint0_linear_204_3)"/>
<path d="M230.915 86.5951V74.2851H218.605V86.5951H230.915ZM252.541 86.5951H264.851V74.2851H252.541V86.5951ZM249.674 113.359L237.668 110.64L237.655 110.694L237.644 110.748L249.674 113.359ZM242.863 134.029L231.886 128.458L231.853 128.524L231.82 128.59L242.863 134.029ZM234.858 148.008L244.972 155.026L245.005 154.978L245.038 154.93L234.858 148.008ZM227.928 156.371L219.822 147.107L219.617 147.287L219.419 147.476L227.928 156.371ZM225.18 159V171.31H230.12L233.689 167.896L225.18 159ZM198.058 159L186.296 162.63L188.975 171.31H198.058V159ZM189.097 129.966L200.86 126.336L188.888 87.5477L177.3 126.452L189.097 129.966ZM183.84 142.87L172.794 137.438L172.775 137.475L172.757 137.513L183.84 142.87ZM177.627 154.46L167.173 147.961L167.134 148.023L167.096 148.086L177.627 154.46ZM174.879 159V171.31H181.818L185.411 165.374L174.879 159ZM148.952 159L137.189 162.63L139.868 171.31H148.952V159ZM126.609 86.5951V74.2851H109.928L114.847 90.2249L126.609 86.5951ZM164.485 86.5951L176.668 84.8326L175.142 74.2851H164.485V86.5951ZM171.295 133.67L159.112 135.433L162.629 159.745L179.999 142.375L171.295 133.67ZM175.716 127.218L165.044 121.082L165.019 121.126L164.994 121.17L175.716 127.218ZM180.256 117.54L168.752 113.158L168.723 113.234L168.695 113.311L180.256 117.54ZM183.721 104.278L171.65 101.864L171.636 101.931L171.624 101.999L183.721 104.278ZM185.513 86.5951V74.2851H173.36L173.204 86.4373L185.513 86.5951ZM211.201 86.5951L223.384 84.8326L221.858 74.2851H211.201V86.5951ZM218.012 133.67L205.828 135.433L209.908 163.632L227.645 141.334L218.012 133.67ZM229.601 104.278L241.735 106.352L241.749 106.271L241.762 106.189L229.601 104.278ZM230.915 98.9051H252.541V74.2851H230.915V98.9051ZM240.231 86.5951C240.231 95.1571 239.361 103.162 237.668 110.64L261.68 116.077C263.81 106.669 264.851 96.8314 264.851 86.5951H240.231ZM237.644 110.748C235.945 118.576 233.959 124.372 231.886 128.458L253.841 139.599C257.184 133.011 259.738 125.028 261.704 115.969L237.644 110.748ZM231.82 128.59C229.388 133.527 227.001 137.671 224.679 141.086L245.038 154.93C248.132 150.379 251.081 145.204 253.907 139.468L231.82 128.59ZM224.745 140.99C222.205 144.649 220.581 146.443 219.822 147.107L236.035 165.636C239.099 162.954 242.095 159.172 244.972 155.026L224.745 140.99ZM219.419 147.476L216.671 150.104L233.689 167.896L236.437 165.267L219.419 147.476ZM225.18 146.69H198.058V171.31H225.18V146.69ZM209.821 155.37L200.86 126.336L177.335 133.597L186.296 162.63L209.821 155.37ZM177.3 126.452C176.44 129.339 174.987 132.979 172.794 137.438L194.887 148.303C197.473 143.044 199.525 138.081 200.895 133.481L177.3 126.452ZM172.757 137.513C170.549 142.082 168.689 145.522 167.173 147.961L188.082 160.959C190.23 157.503 192.512 153.216 194.924 148.227L172.757 137.513ZM167.096 148.086L164.348 152.626L185.411 165.374L188.159 160.834L167.096 148.086ZM174.879 146.69H148.952V171.31H174.879V146.69ZM160.715 155.37L138.372 82.9654L114.847 90.2249L137.189 162.63L160.715 155.37ZM126.609 98.9051H164.485V74.2851H126.609V98.9051ZM152.301 88.3577L159.112 135.433L183.478 131.908L176.668 84.8326L152.301 88.3577ZM179.999 142.375C182.453 139.921 184.604 136.517 186.437 133.266L164.994 121.17C164.234 122.516 163.618 123.507 163.141 124.203C162.629 124.95 162.446 125.11 162.59 124.966L179.999 142.375ZM186.387 133.354C188.55 129.594 190.367 125.732 191.816 121.77L168.695 113.311C167.755 115.881 166.546 118.471 165.044 121.082L186.387 133.354ZM191.759 121.923C193.396 117.627 194.714 112.419 195.818 106.557L171.624 101.999C170.657 107.129 169.665 110.763 168.752 113.158L191.759 121.923ZM195.792 106.692C197.069 100.309 197.734 93.6546 197.822 86.7529L173.204 86.4373C173.133 91.9615 172.603 97.0962 171.65 101.864L195.792 106.692ZM185.513 98.9051H211.201V74.2851H185.513V98.9051ZM199.018 88.3577L205.828 135.433L230.195 131.908L223.384 84.8326L199.018 88.3577ZM227.645 141.334C234.945 132.157 239.375 120.163 241.735 106.352L217.467 102.205C215.526 113.563 212.229 121.165 208.378 126.007L227.645 141.334ZM241.762 106.189C242.747 99.9218 243.225 93.3848 243.225 86.5951H218.605C218.605 92.2313 218.208 97.4831 217.44 102.367L241.762 106.189ZM310.487 159L299.042 163.533L302.122 171.31H310.487V159ZM305.708 146.933L317.153 142.4L314.073 134.623H305.708V146.933ZM275.241 146.933V134.623H266.72L263.719 142.598L275.241 146.933ZM270.7 159V171.31H279.221L282.222 163.335L270.7 159ZM253.734 159L241.877 155.693L237.522 171.31H253.734V159ZM273.926 86.5951V74.2851H264.58L262.069 83.2883L273.926 86.5951ZM316.461 86.5951L328.319 83.2883L325.808 74.2851H316.461V86.5951ZM336.653 159V171.31H352.866L348.511 155.693L336.653 159ZM299.615 131.4V143.71H317.713L311.064 126.878L299.615 131.4ZM290.176 107.504L301.625 102.982L289.953 73.434L278.668 103.131L290.176 107.504ZM281.095 131.4L269.588 127.027L263.249 143.71H281.095V131.4ZM321.932 154.467L317.153 142.4L294.263 151.465L299.042 163.533L321.932 154.467ZM305.708 134.623H275.241V159.243H305.708V134.623ZM263.719 142.598L259.179 154.665L282.222 163.335L286.762 151.267L263.719 142.598ZM270.7 146.69H253.734V171.31H270.7V146.69ZM265.592 162.307L285.784 89.9019L262.069 83.2883L241.877 155.693L265.592 162.307ZM273.926 98.9051H316.461V74.2851H273.926V98.9051ZM304.604 89.9019L324.796 162.307L348.511 155.693L328.319 83.2883L304.604 89.9019ZM336.653 146.69H310.487V171.31H336.653V146.69ZM311.064 126.878L301.625 102.982L278.726 112.027L288.165 135.923L311.064 126.878ZM278.668 103.131L269.588 127.027L292.602 135.773L301.683 111.877L278.668 103.131ZM281.095 143.71H299.615V119.09H281.095V143.71ZM378.75 138.21L389.67 143.894L378.75 138.21ZM379.826 104.517L390.362 98.1514V98.1514L379.826 104.517ZM370.148 98.7821V86.4721H359.027L357.901 97.5361L370.148 98.7821ZM365.249 146.933L353.002 145.687L351.623 159.243H365.249V146.933ZM342.07 159L329.82 160.213L330.919 171.31H342.07V159ZM334.901 86.5951V74.2851H321.312L322.651 87.808L334.901 86.5951ZM406.828 101.172L417.022 94.2711L416.995 94.2308L416.967 94.1907L406.828 101.172ZM365.966 159.243C377.03 159.243 385.016 152.834 389.67 143.894L367.831 132.527C367.007 134.11 366.407 134.542 366.347 134.583C366.325 134.598 366.319 134.6 366.327 134.596C366.336 134.592 366.342 134.59 366.341 134.59C366.34 134.59 366.316 134.598 366.261 134.605C366.206 134.613 366.11 134.623 365.966 134.623V159.243ZM389.67 143.894C393.583 136.377 395.601 128.339 395.601 119.93L370.981 119.93C370.981 124.265 369.972 128.415 367.831 132.527L389.67 143.894ZM395.601 119.93C395.601 112.174 394.238 104.566 390.362 98.1514L369.289 110.883C370.034 112.115 370.981 114.782 370.981 119.93L395.601 119.93ZM390.362 98.1514C386.392 91.58 379.836 86.4721 370.865 86.4721V111.092C370.698 111.092 370.423 111.069 370.085 110.972C369.745 110.874 369.447 110.731 369.217 110.584C368.763 110.293 368.864 110.178 369.289 110.883L390.362 98.1514ZM370.865 86.4721H370.148V111.092H370.865V86.4721ZM357.901 97.5361L353.002 145.687L377.496 148.178L382.395 100.028L357.901 97.5361ZM365.249 159.243H365.966V134.623H365.249V159.243ZM365.488 146.69H342.07V171.31H365.488V146.69ZM354.32 157.787L347.151 85.3822L322.651 87.808L329.82 160.213L354.32 157.787ZM334.901 98.9051H370.148V74.2851H334.901V98.9051ZM370.148 98.9051C386.012 98.9051 393.293 103.22 396.689 108.153L416.967 94.1907C406.982 79.6882 389.809 74.2851 370.148 74.2851V98.9051ZM396.634 108.072C398.581 110.948 399.775 114.602 399.775 119.572H424.395C424.395 110.363 422.085 101.751 417.022 94.2711L396.634 108.072ZM399.775 119.572C399.775 130.228 396.724 136.158 392.484 139.746C387.851 143.666 379.579 146.69 365.488 146.69V171.31C382.463 171.31 397.488 167.763 408.388 158.54C419.681 148.985 424.395 135.201 424.395 119.572H399.775Z" fill="url(#paint1_linear_204_3)"/>
<path d="M244.915 72.5951H266.541C266.541 81.9942 265.585 90.9154 263.674 99.3586C261.842 107.802 259.572 114.692 256.863 120.029C254.235 125.365 251.566 130.025 248.858 134.008C246.15 137.911 243.84 140.699 241.928 142.371L239.18 145H212.058L203.097 115.966C201.982 119.71 200.23 124.011 197.84 128.87C195.53 133.649 193.459 137.513 191.627 140.46L188.879 145H162.952L140.609 72.5951H178.485L185.295 119.67C186.49 118.475 187.963 116.325 189.716 113.218C191.548 110.032 193.061 106.806 194.256 103.54C195.53 100.195 196.685 95.7742 197.721 90.2782C198.836 84.7024 199.433 78.8081 199.513 72.5951H225.201L232.012 119.67C237.587 112.661 241.451 102.863 243.601 90.2782C244.477 84.7024 244.915 78.8081 244.915 72.5951ZM324.487 145L319.708 132.933H289.241L284.7 145H267.734L287.926 72.5951H330.461L350.653 145H324.487ZM313.615 117.4L304.176 93.5041L295.095 117.4H313.615ZM379.966 132.933C385.462 132.933 389.724 130.025 392.75 124.21C395.777 118.396 397.291 112.302 397.291 105.93C397.291 99.4781 396.136 94.3405 393.826 90.5171C391.516 86.6938 388.529 84.7821 384.865 84.7821H384.148L379.249 132.933H379.966ZM379.488 145H356.07L348.901 72.5951H384.148C401.911 72.5951 414.137 77.454 420.828 87.1717C424.333 92.3491 426.085 98.4824 426.085 105.572C426.085 131.857 410.553 145 379.488 145Z" fill="white"/>
<path d="M244.915 72.5951V60.2851H232.605V72.5951H244.915ZM266.541 72.5951H278.851V60.2851H266.541V72.5951ZM263.674 99.3586L251.668 96.6403L251.655 96.6943L251.644 96.7483L263.674 99.3586ZM256.863 120.029L245.886 114.458L245.853 114.524L245.82 114.59L256.863 120.029ZM248.858 134.008L258.972 141.026L259.005 140.978L259.038 140.93L248.858 134.008ZM241.928 142.371L233.822 133.107L233.617 133.287L233.419 133.476L241.928 142.371ZM239.18 145V157.31H244.12L247.689 153.896L239.18 145ZM212.058 145L200.296 148.63L202.975 157.31H212.058V145ZM203.097 115.966L214.86 112.336L202.888 73.5477L191.3 112.452L203.097 115.966ZM197.84 128.87L186.794 123.438L186.775 123.475L186.757 123.513L197.84 128.87ZM191.627 140.46L181.173 133.961L181.134 134.023L181.096 134.086L191.627 140.46ZM188.879 145V157.31H195.818L199.411 151.374L188.879 145ZM162.952 145L151.189 148.63L153.868 157.31H162.952V145ZM140.609 72.5951V60.2851H123.928L128.847 76.2249L140.609 72.5951ZM178.485 72.5951L190.668 70.8326L189.142 60.2851H178.485V72.5951ZM185.295 119.67L173.112 121.433L176.629 145.745L193.999 128.375L185.295 119.67ZM189.716 113.218L179.044 107.082L179.019 107.126L178.994 107.17L189.716 113.218ZM194.256 103.54L182.752 99.1581L182.723 99.2344L182.695 99.3109L194.256 103.54ZM197.721 90.2782L185.65 87.864L185.636 87.9314L185.624 87.999L197.721 90.2782ZM199.513 72.5951V60.2851H187.36L187.204 72.4373L199.513 72.5951ZM225.201 72.5951L237.384 70.8326L235.858 60.2851H225.201V72.5951ZM232.012 119.67L219.828 121.433L223.908 149.632L241.645 127.334L232.012 119.67ZM243.601 90.2782L255.735 92.3517L255.749 92.2705L255.762 92.1891L243.601 90.2782ZM244.915 84.9051H266.541V60.2851H244.915V84.9051ZM254.231 72.5951C254.231 81.1571 253.361 89.1615 251.668 96.6403L275.68 102.077C277.81 92.6692 278.851 82.8314 278.851 72.5951H254.231ZM251.644 96.7483C249.945 104.576 247.959 110.372 245.886 114.458L267.841 125.599C271.184 119.011 273.738 111.028 275.704 101.969L251.644 96.7483ZM245.82 114.59C243.388 119.527 241.001 123.671 238.679 127.086L259.038 140.93C262.132 136.379 265.081 131.204 267.907 125.468L245.82 114.59ZM238.745 126.99C236.205 130.649 234.581 132.443 233.822 133.107L250.035 151.636C253.099 148.954 256.095 145.172 258.972 141.026L238.745 126.99ZM233.419 133.476L230.671 136.104L247.689 153.896L250.437 151.267L233.419 133.476ZM239.18 132.69H212.058V157.31H239.18V132.69ZM223.821 141.37L214.86 112.336L191.335 119.597L200.296 148.63L223.821 141.37ZM191.3 112.452C190.44 115.339 188.987 118.979 186.794 123.438L208.887 134.303C211.473 129.044 213.525 124.081 214.895 119.481L191.3 112.452ZM186.757 123.513C184.549 128.082 182.689 131.522 181.173 133.961L202.082 146.959C204.23 143.503 206.512 139.216 208.924 134.227L186.757 123.513ZM181.096 134.086L178.348 138.626L199.411 151.374L202.159 146.834L181.096 134.086ZM188.879 132.69H162.952V157.31H188.879V132.69ZM174.715 141.37L152.372 68.9654L128.847 76.2249L151.189 148.63L174.715 141.37ZM140.609 84.9051H178.485V60.2851H140.609V84.9051ZM166.301 74.3577L173.112 121.433L197.478 117.908L190.668 70.8326L166.301 74.3577ZM193.999 128.375C196.453 125.921 198.604 122.517 200.437 119.266L178.994 107.17C178.234 108.516 177.618 109.507 177.141 110.203C176.629 110.95 176.446 111.11 176.59 110.966L193.999 128.375ZM200.387 119.354C202.55 115.594 204.367 111.732 205.816 107.77L182.695 99.3109C181.755 101.881 180.546 104.471 179.044 107.082L200.387 119.354ZM205.759 107.923C207.396 103.627 208.714 98.4193 209.818 92.5573L185.624 87.999C184.657 93.1291 183.665 96.7628 182.752 99.1581L205.759 107.923ZM209.792 92.6923C211.069 86.3086 211.734 79.6546 211.822 72.7529L187.204 72.4373C187.133 77.9615 186.603 83.0962 185.65 87.864L209.792 92.6923ZM199.513 84.9051H225.201V60.2851H199.513V84.9051ZM213.018 74.3577L219.828 121.433L244.195 117.908L237.384 70.8326L213.018 74.3577ZM241.645 127.334C248.945 118.157 253.375 106.163 255.735 92.3517L231.467 88.2046C229.526 99.5633 226.229 107.165 222.378 112.007L241.645 127.334ZM255.762 92.1891C256.747 85.9218 257.225 79.3848 257.225 72.5951H232.605C232.605 78.2313 232.208 83.4831 231.44 88.3672L255.762 92.1891ZM324.487 145L313.042 149.533L316.122 157.31H324.487V145ZM319.708 132.933L331.153 128.4L328.073 120.623H319.708V132.933ZM289.241 132.933V120.623H280.72L277.719 128.598L289.241 132.933ZM284.7 145V157.31H293.221L296.222 149.335L284.7 145ZM267.734 145L255.877 141.693L251.522 157.31H267.734V145ZM287.926 72.5951V60.2851H278.58L276.069 69.2883L287.926 72.5951ZM330.461 72.5951L342.319 69.2883L339.808 60.2851L330.461 60.2851V72.5951ZM350.653 145V157.31H366.866L362.511 141.693L350.653 145ZM313.615 117.4V129.71H331.713L325.064 112.878L313.615 117.4ZM304.176 93.5041L315.625 88.9817L303.953 59.434L292.668 89.1314L304.176 93.5041ZM295.095 117.4L283.588 113.027L277.249 129.71H295.095V117.4ZM335.932 140.467L331.153 128.4L308.263 137.465L313.042 149.533L335.932 140.467ZM319.708 120.623H289.241V145.243H319.708V120.623ZM277.719 128.598L273.179 140.665L296.222 149.335L300.762 137.267L277.719 128.598ZM284.7 132.69H267.734V157.31H284.7V132.69ZM279.592 148.307L299.784 75.9019L276.069 69.2883L255.877 141.693L279.592 148.307ZM287.926 84.9051H330.461V60.2851H287.926V84.9051ZM318.604 75.9019L338.796 148.307L362.511 141.693L342.319 69.2883L318.604 75.9019ZM350.653 132.69H324.487V157.31H350.653V132.69ZM325.064 112.878L315.625 88.9817L292.726 98.0265L302.165 121.923L325.064 112.878ZM292.668 89.1314L283.588 113.027L306.602 121.773L315.683 97.8768L292.668 89.1314ZM295.095 129.71H313.615V105.09H295.095V129.71ZM392.75 124.21L403.67 129.894L392.75 124.21ZM393.826 90.5171L404.362 84.1514V84.1514L393.826 90.5171ZM384.148 84.7821V72.4721H373.027L371.901 83.5361L384.148 84.7821ZM379.249 132.933L367.002 131.687L365.623 145.243H379.249V132.933ZM356.07 145L343.82 146.213L344.919 157.31H356.07V145ZM348.901 72.5951V60.2851H335.312L336.651 73.808L348.901 72.5951ZM420.828 87.1717L431.022 80.2711L430.995 80.2308L430.967 80.1907L420.828 87.1717ZM379.966 145.243C391.03 145.243 399.016 138.834 403.67 129.894L381.831 118.527C381.007 120.11 380.407 120.542 380.347 120.583C380.325 120.598 380.319 120.6 380.327 120.596C380.336 120.592 380.342 120.59 380.341 120.59C380.34 120.59 380.316 120.598 380.261 120.605C380.206 120.613 380.11 120.623 379.966 120.623V145.243ZM403.67 129.894C407.583 122.377 409.601 114.339 409.601 105.93L384.981 105.93C384.981 110.265 383.972 114.415 381.831 118.527L403.67 129.894ZM409.601 105.93C409.601 98.1744 408.238 90.5661 404.362 84.1514L383.289 96.8828C384.034 98.1149 384.981 100.782 384.981 105.93L409.601 105.93ZM404.362 84.1514C400.392 77.58 393.836 72.4721 384.865 72.4721V97.0921C384.698 97.0921 384.423 97.0685 384.085 96.9715C383.745 96.8737 383.447 96.7315 383.217 96.5842C382.763 96.2933 382.864 96.1784 383.289 96.8828L404.362 84.1514ZM384.865 72.4721H384.148V97.0921H384.865V72.4721ZM371.901 83.5361L367.002 131.687L391.496 134.178L396.395 86.028L371.901 83.5361ZM379.249 145.243H379.966V120.623H379.249V145.243ZM379.488 132.69H356.07V157.31H379.488V132.69ZM368.32 143.787L361.151 71.3822L336.651 73.808L343.82 146.213L368.32 143.787ZM348.901 84.9051H384.148V60.2851H348.901V84.9051ZM384.148 84.9051C400.012 84.9051 407.293 89.2198 410.689 94.1527L430.967 80.1907C420.982 65.6882 403.809 60.2851 384.148 60.2851V84.9051ZM410.634 94.0722C412.581 96.9477 413.775 100.602 413.775 105.572H438.395C438.395 96.3631 436.085 87.7505 431.022 80.2711L410.634 94.0722ZM413.775 105.572C413.775 116.228 410.724 122.158 406.484 125.746C401.851 129.666 393.579 132.69 379.488 132.69V157.31C396.463 157.31 411.488 153.763 422.388 144.54C433.681 134.985 438.395 121.201 438.395 105.572H413.775Z" fill="url(#paint2_linear_204_3)"/>
<path d="M107.694 65.9999L119.016 60.1003L127.011 88.6311L115.406 92.065L107.694 65.9999Z" fill="#BA2A21" fill-opacity="0.9"/>
<path d="M118.516 60.1001L130.516 60.6002L137.833 85.6653L127.016 88.6001L118.516 60.1001Z" fill="#EC3529"/>
</g>
<path opacity="0.1" d="M272.396 304.901C288.78 304.901 302.061 299.966 302.061 293.878C302.061 287.791 288.78 282.856 272.396 282.856C256.012 282.856 242.731 287.791 242.731 293.878C242.731 299.966 256.012 304.901 272.396 304.901Z" fill="#141414"/>
<path d="M272.396 417.419C362.456 417.419 435.463 388.192 435.463 352.14C435.463 316.087 362.456 286.861 272.396 286.861C182.337 286.861 109.329 316.087 109.329 352.14C109.329 388.192 182.337 417.419 272.396 417.419Z" fill="url(#paint3_linear_204_3)"/>
<path d="M377.43 314.355C352.331 302.199 314.76 294.475 272.759 294.475C230.759 294.475 193.188 302.199 168.088 314.355H135.926V350.831H135.939C136.614 381.436 197.604 406.17 272.753 406.17C347.901 406.17 408.892 381.442 409.566 350.831H409.579V314.355H377.417H377.43Z" fill="url(#paint4_linear_204_3)"/>
<path d="M272.759 370.05C348.326 370.05 409.585 345.115 409.585 314.355C409.585 283.595 348.326 258.66 272.759 258.66C197.192 258.66 135.933 283.595 135.933 314.355C135.933 345.115 197.192 370.05 272.759 370.05Z" fill="url(#paint5_linear_204_3)"/>
<path d="M272.396 358.134C338.99 358.134 392.976 338.075 392.976 313.331C392.976 288.588 338.99 268.529 272.396 268.529C205.801 268.529 151.816 288.588 151.816 313.331C151.816 338.075 205.801 358.134 272.396 358.134Z" fill="#FFFAFA"/>
<path d="M272.759 368.016C198.026 368.016 137.295 343.625 135.965 313.338C135.952 313.675 135.933 314.018 135.933 314.355C135.933 345.116 197.195 370.051 272.759 370.051C348.323 370.051 409.585 345.116 409.585 314.355C409.585 314.012 409.566 313.675 409.553 313.338C408.217 343.632 347.486 368.016 272.759 368.016Z" fill="white"/>
<path d="M332.187 294.455C317.938 287.554 296.607 283.167 272.759 283.167C248.912 283.167 227.58 287.554 213.332 294.455H195.075V315.165H195.081C195.464 332.544 230.09 346.586 272.759 346.586C315.428 346.586 350.054 332.544 350.437 315.165H350.443V294.455H332.187Z" fill="url(#paint6_linear_204_3)"/>
<path d="M272.759 326.078C315.663 326.078 350.443 311.92 350.443 294.455C350.443 276.991 315.663 262.833 272.759 262.833C229.855 262.833 195.075 276.991 195.075 294.455C195.075 311.92 229.855 326.078 272.759 326.078Z" fill="url(#paint7_linear_204_3)"/>
<path d="M272.558 319.319C310.368 319.319 341.02 307.929 341.02 293.878C341.02 279.828 310.368 268.438 272.558 268.438C234.748 268.438 204.096 279.828 204.096 293.878C204.096 307.929 234.748 319.319 272.558 319.319Z" fill="#FFFAFA"/>
<path d="M272.759 324.924C230.33 324.924 195.847 311.076 195.088 293.878C195.081 294.073 195.068 294.261 195.068 294.455C195.068 311.919 229.851 326.077 272.753 326.077C315.655 326.077 350.437 311.919 350.437 294.455C350.437 294.261 350.431 294.066 350.418 293.878C349.659 311.076 315.181 324.924 272.746 324.924H272.759Z" fill="white"/>
<path opacity="0.5" d="M350.177 170.908L274.763 214.291L203.344 169.768L203.091 170.305L274.763 214.991V275.145L275.463 274.186V214.991L350.45 171.452L350.177 170.908Z" fill="#EA2A28"/>
<path opacity="0.8" d="M45.7155 102L27.9255 133.344L64.4718 131.406L45.7155 102Z" fill="#EA2928"/>
<path opacity="0.7" d="M45.7153 102H36.655L20 131.568L27.9254 133.344L45.7153 102Z" fill="#F06969"/>
<path opacity="0.8" d="M55.4181 170.403L38.7112 174.595V132.773L55.4181 131.886V170.403Z" fill="url(#paint8_linear_204_3)"/>
<path opacity="0.7" d="M38.7112 174.595L29.3784 172.586V133.266L38.7112 132.773V174.595Z" fill="url(#paint9_linear_204_3)"/>
<path d="M60.6143 47.9035C53.305 37.9437 51.8587 26.5455 57.3844 22.502C62.9102 18.452 73.3519 23.2601 80.6612 33.2199C87.9705 43.1796 89.4168 54.5778 83.891 58.6278C78.3653 62.6778 67.9235 57.8697 60.6143 47.9099V47.9035ZM80.5445 33.2976C73.2806 23.4027 62.9296 18.6075 57.4688 22.6121C52.0079 26.6168 53.4671 37.9178 60.731 47.8127C67.9949 57.7076 78.3459 62.5028 83.8067 58.4982C89.2676 54.4936 87.8083 43.1925 80.5445 33.2976Z" fill="white"/>
<g style="mix-blend-mode:soft-light" opacity="0.5">
<path d="M180.774 243.38C184.062 220.279 167.926 198.804 144.798 195.519C121.671 192.234 100.184 208.349 96.8893 231.457C93.6012 254.564 109.731 276.039 132.858 279.324C155.986 282.61 177.479 266.487 180.767 243.373L180.774 243.38ZM161.538 270.291C161.492 270.324 161.447 270.356 161.395 270.382C161.233 270.492 161.077 270.609 160.909 270.712C160.779 270.803 160.643 270.887 160.513 270.972C160.26 271.134 160.007 271.296 159.748 271.451C159.242 271.762 158.729 272.06 158.211 272.345C158.016 272.456 157.821 272.559 157.627 272.663C157.419 272.78 157.199 272.89 156.985 273C156.965 273.013 156.939 273.026 156.92 273.039C156.699 273.155 156.479 273.259 156.252 273.369C155.668 273.654 155.078 273.92 154.481 274.179L153.917 274.412C153.398 274.626 152.866 274.834 152.335 275.015C152.172 275.08 152.01 275.132 151.842 275.19C151.31 275.378 150.778 275.546 150.24 275.708C149.987 275.786 149.74 275.858 149.481 275.929C149.468 275.929 149.462 275.935 149.455 275.935C149.241 276 149.027 276.052 148.806 276.11C148.709 276.136 148.612 276.162 148.515 276.182C148.365 276.22 148.216 276.259 148.067 276.292C147.905 276.331 147.743 276.369 147.574 276.408C147.412 276.447 147.25 276.48 147.094 276.512C146.731 276.59 146.368 276.661 145.998 276.726C145.784 276.771 145.57 276.804 145.35 276.842C145.129 276.881 144.902 276.914 144.682 276.946C144.422 276.985 144.163 277.024 143.903 277.05C143.877 277.05 143.851 277.063 143.826 277.063C143.605 277.095 143.385 277.121 143.164 277.141C143.041 277.154 142.918 277.166 142.794 277.179C142.606 277.199 142.425 277.218 142.23 277.231C141.653 277.283 141.076 277.322 140.498 277.341C140.297 277.348 140.096 277.361 139.895 277.361C139.811 277.361 139.733 277.361 139.649 277.361C139.441 277.374 139.221 277.374 139 277.374C138.968 277.374 138.935 277.374 138.903 277.374C138.326 277.374 137.749 277.367 137.165 277.341C136.873 277.328 136.581 277.309 136.289 277.296C135.965 277.277 135.647 277.251 135.316 277.218C135.038 277.192 134.765 277.166 134.486 277.134C134.344 277.121 134.201 277.102 134.058 277.082C133.773 277.05 133.481 277.011 133.202 276.972C132.787 276.914 132.366 276.842 131.95 276.771C131.775 276.739 131.6 276.713 131.425 276.68C131.01 276.603 130.601 276.518 130.193 276.434C129.538 276.285 128.889 276.123 128.254 275.955C127.936 275.864 127.618 275.773 127.3 275.676C127.002 275.585 126.697 275.495 126.399 275.391C126.373 275.391 126.347 275.378 126.327 275.365C126.023 275.268 125.718 275.164 125.419 275.054C125.108 274.944 124.803 274.827 124.492 274.711C123.882 274.477 123.279 274.225 122.683 273.965C122.384 273.836 122.086 273.7 121.794 273.557C121.509 273.421 121.223 273.285 120.944 273.149C120.938 273.149 120.925 273.136 120.918 273.136C120.627 272.987 120.341 272.844 120.056 272.689C119.79 272.546 119.518 272.404 119.258 272.255C119.051 272.138 118.837 272.015 118.636 271.892C118.473 271.801 118.318 271.71 118.162 271.613C117.916 271.471 117.682 271.322 117.442 271.166C117.209 271.017 116.975 270.861 116.742 270.706C116.476 270.531 116.21 270.35 115.95 270.168C115.685 269.98 115.432 269.799 115.172 269.604C114.913 269.416 114.66 269.222 114.407 269.028C114.167 268.846 113.933 268.658 113.7 268.47C113.479 268.295 113.265 268.114 113.051 267.926C112.948 267.835 112.844 267.751 112.747 267.66C112.293 267.278 111.852 266.883 111.43 266.475C111.248 266.306 111.073 266.138 110.898 265.969C110.853 265.924 110.807 265.878 110.762 265.833C110.561 265.639 110.373 265.444 110.178 265.243C109.283 264.317 108.427 263.351 107.623 262.34C107.428 262.101 107.24 261.861 107.059 261.615C100.8 253.404 97.6936 242.784 99.2631 231.781C99.3474 231.185 99.4447 230.601 99.5549 230.018C99.5938 229.798 99.6392 229.584 99.6846 229.364C99.7106 229.247 99.73 229.124 99.7625 229.007C99.7949 228.852 99.8273 228.696 99.8597 228.541C99.8987 228.385 99.9311 228.236 99.97 228.081C100.015 227.906 100.061 227.718 100.106 227.549C100.171 227.284 100.242 227.024 100.314 226.765C100.379 226.526 100.45 226.279 100.521 226.04C100.632 225.67 100.748 225.301 100.865 224.931C101.066 224.303 101.293 223.687 101.527 223.072C101.643 222.767 101.76 222.463 101.89 222.158C101.981 221.931 102.078 221.704 102.182 221.478C102.253 221.322 102.318 221.167 102.389 221.005C102.629 220.473 102.876 219.955 103.135 219.43C103.252 219.203 103.368 218.983 103.492 218.756C103.634 218.484 103.784 218.212 103.933 217.946C104.036 217.752 104.147 217.557 104.263 217.369C104.374 217.181 104.484 216.987 104.601 216.799C104.711 216.611 104.828 216.423 104.944 216.235C105.016 216.119 105.087 216.009 105.165 215.898C105.95 214.68 106.793 213.501 107.701 212.38C107.785 212.276 107.869 212.172 107.954 212.069C108.161 211.822 108.362 211.576 108.57 211.343C108.726 211.161 108.881 210.98 109.043 210.805C109.05 210.792 109.056 210.792 109.063 210.779C109.244 210.585 109.419 210.39 109.601 210.196C109.815 209.963 110.029 209.742 110.243 209.522C110.366 209.392 110.496 209.269 110.619 209.14C110.684 209.075 110.743 209.017 110.807 208.958C110.931 208.835 111.054 208.719 111.177 208.602C111.333 208.446 111.495 208.297 111.657 208.148C111.787 208.025 111.923 207.909 112.059 207.785C112.189 207.669 112.319 207.559 112.442 207.442C112.636 207.267 112.837 207.099 113.038 206.93C113.136 206.846 113.233 206.762 113.33 206.684C113.518 206.528 113.706 206.373 113.901 206.217C114.147 206.023 114.394 205.828 114.64 205.641L114.803 205.517C115.004 205.362 115.218 205.206 115.425 205.057C115.685 204.869 115.95 204.682 116.216 204.5C116.443 204.338 116.677 204.183 116.917 204.027C117.021 203.962 117.124 203.891 117.228 203.826C117.455 203.677 117.682 203.535 117.909 203.392C118.162 203.243 118.415 203.087 118.668 202.938C118.934 202.783 119.2 202.627 119.466 202.478C119.68 202.362 119.894 202.245 120.108 202.135C120.257 202.051 120.4 201.973 120.555 201.895C120.737 201.804 120.925 201.707 121.107 201.617C121.275 201.532 121.437 201.454 121.606 201.377C121.645 201.351 121.684 201.338 121.723 201.318C121.891 201.234 122.06 201.156 122.229 201.079C122.248 201.072 122.267 201.059 122.28 201.053C122.501 200.956 122.721 200.852 122.948 200.755C122.981 200.742 123.02 200.729 123.046 200.716C123.325 200.599 123.61 200.476 123.889 200.359C124.194 200.236 124.492 200.12 124.797 200.003C125.069 199.899 125.335 199.802 125.614 199.705C125.698 199.673 125.783 199.647 125.867 199.614C126.12 199.523 126.386 199.439 126.639 199.355C126.918 199.264 127.19 199.18 127.469 199.096C127.508 199.083 127.547 199.07 127.586 199.063C127.819 198.992 128.053 198.927 128.293 198.863C128.416 198.824 128.545 198.791 128.675 198.759C128.876 198.707 129.084 198.655 129.285 198.603C129.415 198.571 129.538 198.539 129.667 198.506C129.843 198.467 130.024 198.422 130.199 198.383C131.127 198.176 132.054 198.007 132.995 197.865C133.027 197.865 133.053 197.858 133.085 197.852C133.261 197.826 133.442 197.8 133.617 197.78C133.857 197.748 134.097 197.722 134.337 197.69C134.59 197.657 134.849 197.631 135.109 197.612C135.265 197.599 135.427 197.586 135.582 197.573C135.835 197.554 136.082 197.528 136.335 197.515C136.672 197.495 137.009 197.476 137.34 197.463C137.385 197.463 137.431 197.463 137.47 197.463C137.762 197.45 138.06 197.443 138.352 197.443C138.391 197.443 138.423 197.443 138.462 197.443C138.76 197.443 139.065 197.443 139.363 197.443C140.044 197.456 140.725 197.482 141.419 197.528C141.737 197.547 142.055 197.573 142.373 197.599C142.652 197.625 142.931 197.651 143.209 197.683C143.404 197.703 143.592 197.729 143.787 197.754C144.02 197.78 144.254 197.806 144.494 197.845C166.331 200.949 181.559 221.218 178.452 243.036C178.426 243.198 178.4 243.36 178.374 243.529C178.342 243.756 178.303 243.976 178.264 244.203C178.225 244.436 178.18 244.676 178.134 244.909C178.095 245.11 178.056 245.311 178.011 245.512C177.907 246.017 177.797 246.523 177.674 247.015C177.35 248.318 176.967 249.588 176.526 250.825C176.442 251.059 176.357 251.292 176.273 251.512C176.189 251.746 176.098 251.972 176.007 252.206C175.916 252.432 175.825 252.659 175.728 252.886C175.637 253.113 175.54 253.34 175.436 253.56C175.307 253.858 175.17 254.156 175.028 254.448C174.892 254.733 174.755 255.018 174.619 255.297C174.619 255.303 174.606 255.316 174.606 255.322C174.457 255.614 174.314 255.899 174.159 256.184C174.016 256.45 173.873 256.722 173.724 256.981C173.607 257.189 173.484 257.403 173.361 257.603C173.27 257.765 173.173 257.921 173.082 258.076C172.933 258.323 172.777 258.569 172.622 258.815C172.479 259.042 172.33 259.269 172.174 259.496C171.999 259.761 171.817 260.027 171.636 260.293C171.454 260.552 171.273 260.811 171.084 261.057C171.084 261.057 171.084 261.064 171.071 261.07C170.883 261.329 170.695 261.582 170.494 261.828C170.313 262.068 170.131 262.301 169.937 262.528C169.755 262.749 169.58 262.969 169.392 263.189C169.307 263.293 169.217 263.397 169.126 263.494C168.743 263.947 168.341 264.388 167.932 264.822C167.777 264.984 167.628 265.146 167.472 265.302C167.414 265.36 167.355 265.418 167.29 265.483C167.096 265.684 166.901 265.872 166.7 266.066C166.545 266.222 166.389 266.371 166.227 266.52C166.129 266.611 166.039 266.701 165.941 266.786C165.247 267.421 164.534 268.036 163.795 268.619C163.555 268.814 163.315 269.002 163.068 269.183C162.776 269.403 162.485 269.624 162.18 269.838C161.972 269.987 161.765 270.136 161.551 270.278L161.538 270.291Z" fill="#222221"/>
</g>
<path opacity="0.3" d="M163.782 268.626C164.521 268.036 165.235 267.427 165.929 266.792C166.026 266.701 166.117 266.617 166.214 266.526C166.376 266.377 166.532 266.228 166.687 266.073C166.888 265.878 167.083 265.684 167.278 265.49C167.342 265.425 167.401 265.366 167.459 265.308C167.615 265.146 167.771 264.991 167.92 264.829C168.328 264.394 168.73 263.954 169.113 263.5C169.204 263.403 169.295 263.299 169.379 263.196C169.567 262.982 169.742 262.755 169.924 262.535C170.118 262.301 170.3 262.068 170.481 261.835C170.676 261.589 170.871 261.329 171.059 261.077C171.059 261.077 171.065 261.064 171.072 261.064C171.26 260.811 171.441 260.552 171.623 260.299C171.805 260.033 171.986 259.774 172.161 259.502C172.31 259.275 172.46 259.049 172.609 258.822C172.764 258.575 172.92 258.329 173.069 258.083C173.167 257.927 173.257 257.772 173.348 257.61C173.471 257.409 173.588 257.195 173.711 256.988C173.86 256.729 174.003 256.457 174.146 256.191C174.295 255.906 174.451 255.621 174.593 255.329C174.593 255.323 174.606 255.31 174.606 255.303C174.749 255.018 174.885 254.739 175.015 254.454C175.158 254.163 175.294 253.865 175.423 253.566C175.521 253.346 175.618 253.119 175.715 252.893C175.728 252.86 175.741 252.834 175.754 252.802C175.839 252.607 175.916 252.413 175.994 252.219C176.033 252.128 176.066 252.044 176.098 251.959C176.137 251.862 176.176 251.765 176.208 251.668C176.312 251.389 176.416 251.117 176.513 250.838C176.954 249.601 177.337 248.331 177.661 247.035C177.739 246.711 177.817 246.38 177.888 246.056C177.927 245.881 177.959 245.7 177.992 245.525C178.031 245.324 178.076 245.123 178.115 244.922C178.16 244.689 178.199 244.456 178.245 244.216C178.284 243.996 178.316 243.769 178.355 243.542C178.381 243.38 178.407 243.218 178.433 243.056C181.539 221.238 166.305 200.969 144.474 197.865C144.241 197.832 144.001 197.8 143.767 197.774C143.573 197.748 143.385 197.722 143.19 197.703C142.911 197.67 142.632 197.644 142.353 197.618C142.036 197.592 141.718 197.567 141.4 197.547C140.713 197.502 140.032 197.476 139.344 197.463C139.046 197.463 138.741 197.463 138.443 197.463C138.404 197.463 138.365 197.463 138.332 197.463C138.034 197.463 137.742 197.469 137.45 197.482C137.411 197.482 137.366 197.482 137.327 197.482C136.996 197.495 136.659 197.515 136.322 197.534C136.069 197.554 135.822 197.567 135.57 197.592C135.407 197.605 135.252 197.618 135.096 197.638C134.837 197.657 134.584 197.69 134.324 197.716C134.084 197.748 133.844 197.774 133.604 197.806C133.429 197.832 133.248 197.852 133.073 197.878C133.04 197.878 133.014 197.884 132.982 197.891C132.041 198.033 131.107 198.202 130.187 198.409C130.011 198.448 129.83 198.493 129.655 198.532C129.525 198.564 129.395 198.59 129.272 198.629C129.071 198.681 128.863 198.733 128.662 198.785C128.533 198.817 128.403 198.85 128.28 198.888C128.04 198.953 127.806 199.025 127.573 199.089C127.534 199.096 127.501 199.109 127.456 199.122C127.177 199.206 126.905 199.29 126.626 199.381C126.373 199.459 126.107 199.549 125.854 199.64C125.77 199.666 125.686 199.698 125.601 199.731C125.329 199.828 125.056 199.925 124.784 200.029C124.479 200.146 124.174 200.262 123.876 200.385C123.597 200.502 123.312 200.619 123.033 200.742C123 200.755 122.968 200.768 122.936 200.781C122.715 200.878 122.495 200.982 122.268 201.079C122.248 201.085 122.229 201.098 122.216 201.105C122.047 201.182 121.872 201.26 121.71 201.344C121.671 201.364 121.632 201.377 121.593 201.403C121.424 201.48 121.262 201.558 121.094 201.642C120.912 201.733 120.724 201.83 120.542 201.921C120.387 201.999 120.238 202.077 120.095 202.161C119.874 202.271 119.667 202.388 119.453 202.504C119.187 202.653 118.921 202.809 118.655 202.964C118.402 203.113 118.149 203.262 117.896 203.418C117.663 203.561 117.436 203.703 117.215 203.852C117.112 203.917 117.008 203.988 116.904 204.053C116.671 204.209 116.437 204.364 116.204 204.526C115.938 204.707 115.672 204.895 115.412 205.083C115.205 205.232 114.991 205.388 114.79 205.543L114.628 205.667C114.381 205.854 114.128 206.049 113.888 206.243C113.694 206.392 113.506 206.548 113.318 206.71C113.22 206.788 113.123 206.872 113.026 206.956C112.825 207.125 112.63 207.293 112.429 207.468C112.299 207.578 112.176 207.695 112.046 207.811C111.91 207.935 111.774 208.058 111.644 208.174C111.489 208.323 111.32 208.472 111.164 208.628C111.041 208.745 110.918 208.868 110.795 208.984C110.736 209.043 110.671 209.101 110.607 209.166C110.477 209.295 110.354 209.418 110.23 209.548C110.01 209.768 109.796 209.989 109.588 210.222C109.407 210.416 109.232 210.604 109.05 210.805C109.05 210.812 109.037 210.818 109.031 210.831C108.868 211.006 108.713 211.187 108.557 211.369C108.35 211.609 108.142 211.848 107.941 212.095C107.857 212.198 107.772 212.302 107.688 212.406C106.787 213.527 105.937 214.7 105.152 215.924C105.081 216.034 105.003 216.151 104.932 216.261C104.815 216.449 104.698 216.637 104.588 216.825C104.471 217.013 104.354 217.207 104.251 217.395C104.14 217.583 104.024 217.778 103.92 217.972C103.771 218.244 103.622 218.51 103.479 218.782C103.356 219.002 103.239 219.229 103.122 219.456C102.863 219.974 102.616 220.499 102.376 221.031C102.305 221.186 102.24 221.342 102.169 221.504C102.065 221.73 101.974 221.957 101.877 222.184C101.747 222.482 101.63 222.787 101.514 223.098C101.28 223.707 101.06 224.322 100.852 224.957C100.735 225.32 100.619 225.69 100.508 226.065C100.431 226.305 100.366 226.545 100.301 226.791C100.23 227.05 100.158 227.31 100.093 227.575C100.048 227.75 100.003 227.932 99.9572 228.107C99.9183 228.262 99.8859 228.411 99.8469 228.567C99.8145 228.722 99.7756 228.878 99.7497 229.033C99.7172 229.15 99.6978 229.273 99.6718 229.39C99.6264 229.604 99.581 229.824 99.5421 230.044C99.4319 230.627 99.3346 231.217 99.2503 231.807C97.6808 242.816 100.787 253.43 107.046 261.64C107.234 261.887 107.422 262.126 107.61 262.366C108.414 263.377 109.271 264.343 110.166 265.269C110.36 265.47 110.555 265.671 110.749 265.859C110.795 265.904 110.84 265.956 110.885 265.995C111.061 266.17 111.242 266.338 111.417 266.5C111.845 266.909 112.286 267.304 112.734 267.686C112.831 267.777 112.935 267.868 113.039 267.952C113.253 268.133 113.473 268.315 113.687 268.496C113.921 268.684 114.161 268.872 114.394 269.054C114.647 269.254 114.9 269.442 115.159 269.63C115.419 269.818 115.672 270.006 115.938 270.194C116.204 270.375 116.463 270.557 116.729 270.732C116.962 270.887 117.196 271.043 117.429 271.192C117.669 271.347 117.909 271.49 118.149 271.639C118.305 271.736 118.461 271.827 118.623 271.918C118.824 272.041 119.038 272.157 119.245 272.281C119.511 272.423 119.777 272.572 120.043 272.715C120.328 272.864 120.614 273.013 120.906 273.162C120.912 273.162 120.925 273.175 120.932 273.175C121.21 273.311 121.496 273.453 121.781 273.583C122.073 273.719 122.371 273.855 122.67 273.991C123.266 274.251 123.87 274.503 124.479 274.737C124.791 274.853 125.095 274.963 125.407 275.08C125.705 275.19 126.01 275.287 126.315 275.391C126.341 275.404 126.36 275.41 126.386 275.417C126.684 275.514 126.983 275.611 127.287 275.702C127.605 275.799 127.923 275.89 128.241 275.981C128.883 276.156 129.531 276.318 130.18 276.46C130.589 276.551 130.997 276.629 131.412 276.706C131.587 276.739 131.756 276.771 131.938 276.797C132.353 276.868 132.768 276.94 133.189 276.998C133.475 277.037 133.76 277.076 134.045 277.108C134.188 277.128 134.331 277.147 134.473 277.16C134.752 277.192 135.025 277.218 135.304 277.244C135.628 277.27 135.952 277.296 136.276 277.322C136.568 277.341 136.86 277.354 137.152 277.367C137.729 277.393 138.313 277.4 138.89 277.4C138.923 277.4 138.955 277.4 138.987 277.4C139.201 277.4 139.422 277.4 139.636 277.387C139.72 277.387 139.798 277.387 139.882 277.387C140.084 277.387 140.278 277.374 140.486 277.367C141.063 277.341 141.64 277.309 142.217 277.257C142.405 277.244 142.593 277.225 142.782 277.205C142.905 277.199 143.028 277.179 143.151 277.167C143.372 277.141 143.592 277.115 143.813 277.089C143.839 277.089 143.865 277.082 143.891 277.076C144.15 277.043 144.409 277.011 144.669 276.972C144.896 276.94 145.123 276.907 145.337 276.868C145.557 276.836 145.771 276.797 145.985 276.752C146.355 276.687 146.718 276.616 147.081 276.538C147.244 276.506 147.406 276.473 147.561 276.434C147.73 276.395 147.892 276.363 148.054 276.318C148.203 276.285 148.353 276.246 148.502 276.207C148.599 276.182 148.696 276.162 148.794 276.136C149.008 276.078 149.222 276.02 149.442 275.961C149.455 275.961 149.462 275.961 149.468 275.955C149.721 275.883 149.974 275.812 150.227 275.734C150.765 275.579 151.297 275.404 151.829 275.216C151.998 275.158 152.16 275.099 152.322 275.041C152.854 274.853 153.385 274.652 153.904 274.438L154.469 274.205C155.065 273.946 155.655 273.68 156.239 273.395C156.46 273.285 156.68 273.175 156.907 273.065C156.933 273.058 156.953 273.045 156.972 273.026C157.186 272.922 157.407 272.805 157.614 272.689C157.815 272.585 158.003 272.481 158.198 272.371C158.717 272.086 159.229 271.782 159.735 271.477C159.994 271.315 160.247 271.153 160.5 270.998C160.63 270.913 160.76 270.829 160.896 270.738C161.058 270.635 161.22 270.525 161.382 270.408C161.434 270.382 161.479 270.35 161.525 270.317C161.732 270.175 161.94 270.026 162.154 269.877C162.459 269.663 162.751 269.442 163.043 269.222C163.289 269.034 163.529 268.846 163.769 268.658L163.782 268.626ZM133.313 276.201C111.91 273.155 96.9738 253.288 100.022 231.904C103.07 210.52 122.962 195.597 144.364 198.642C165.766 201.681 180.696 221.555 177.655 242.939C174.606 264.323 154.721 279.247 133.319 276.201H133.313Z" fill="white"/>
<path d="M138.598 431.351C138.955 448.056 115.672 462.111 86.5967 462.727C57.5153 463.349 33.6484 450.305 33.2917 433.599C33.2139 429.977 34.2515 426.471 36.2102 423.205C43.3054 411.418 62.5157 402.696 85.2996 402.21C108.408 401.718 128.228 409.85 135.563 421.611C137.463 424.651 138.52 427.923 138.598 431.351Z" stroke="#F99696" stroke-width="0.89" stroke-miterlimit="10"/>
<path d="M125.809 424.949C120.581 415.183 104.568 408.308 85.7667 408.71C66.725 409.118 50.8548 416.862 46.2759 427.035L44.8037 427.074L44.9529 433.923H44.9788C45.7895 446.76 64.2929 456.694 86.7849 456.214C109.277 455.735 127.339 445.017 127.599 432.154H127.625L127.469 424.903L125.809 424.949Z" fill="url(#paint10_linear_204_3)"/>
<path d="M127.475 425.311C127.754 438.427 109.478 449.456 86.6551 449.942C63.8258 450.428 45.089 440.189 44.8101 427.074C44.7517 424.229 45.5624 421.482 47.106 418.916C52.6771 409.662 67.7561 402.813 85.6368 402.431C103.777 402.042 119.336 408.431 125.095 417.659C126.587 420.043 127.417 422.616 127.475 425.305V425.311Z" fill="url(#paint11_linear_204_3)"/>
<path d="M118.973 424.741C119.193 435.168 104.672 443.928 86.5318 444.317C68.3916 444.706 53.5072 436.567 53.2867 426.147C53.0661 415.721 67.5874 406.96 85.7276 406.571C103.868 406.183 118.752 414.322 118.973 424.741Z" fill="url(#paint12_linear_204_3)"/>
<path d="M86.4996 442.807C69.2285 443.177 55.0056 435.692 54.8045 426.121C54.597 416.55 68.4891 408.464 85.7602 408.094C103.031 407.725 117.254 415.209 117.462 424.78C117.669 434.351 103.777 442.438 86.5061 442.807H86.4996ZM85.7602 408.295C68.5994 408.664 54.7981 416.654 55.0056 426.115C55.2066 435.576 69.3323 442.969 86.4996 442.606C103.66 442.237 117.462 434.247 117.254 424.787C117.053 415.326 102.928 407.932 85.7602 408.295Z" fill="white"/>
<path d="M125.232 398.063C120.004 388.298 103.991 381.423 85.1895 381.825C66.1479 382.233 50.2776 389.976 45.6988 400.15L44.2266 400.189L44.3757 407.038H44.4017C45.2124 419.875 63.7158 429.809 86.2078 429.329C108.7 428.85 126.762 418.132 127.022 405.269H127.048L126.892 398.018L125.232 398.063Z" fill="url(#paint13_linear_204_3)"/>
<path d="M86.1015 423.047C108.931 422.557 127.209 411.527 126.927 398.41C126.645 385.293 107.91 375.057 85.0807 375.547C62.2514 376.037 43.9731 387.067 44.255 400.184C44.5369 413.301 63.2722 423.537 86.1015 423.047Z" fill="url(#paint14_linear_204_3)"/>
<path d="M85.9875 417.424C104.126 417.035 118.648 408.27 118.424 397.848C118.2 387.425 103.314 379.291 85.1764 379.68C67.0383 380.069 52.516 388.834 52.74 399.257C52.964 409.679 67.8494 417.813 85.9875 417.424Z" fill="url(#paint15_linear_204_3)"/>
<path d="M85.9225 415.916C68.6513 416.285 54.4284 408.801 54.2274 399.23C54.0199 389.659 67.9055 381.572 85.1831 381.203C102.454 380.833 116.677 388.318 116.885 397.888C117.092 407.459 103.207 415.546 85.9289 415.916H85.9225ZM85.1831 381.403C68.0222 381.773 54.2209 389.763 54.4284 399.223C54.6295 408.684 68.7551 416.078 85.9225 415.715C103.083 415.345 116.885 407.356 116.677 397.895C116.476 388.434 102.35 381.041 85.1831 381.403Z" fill="white"/>
<path d="M124.661 371.172C119.433 361.406 103.42 354.531 84.6187 354.933C65.577 355.341 49.7068 363.085 45.128 373.258L43.6558 373.297L43.8049 380.146H43.8309C44.6416 392.983 63.145 402.917 85.637 402.437C108.129 401.958 126.191 391.24 126.451 378.377H126.477L126.321 371.126L124.661 371.172Z" fill="url(#paint16_linear_204_3)"/>
<path d="M85.5307 396.161C108.36 395.671 126.638 384.641 126.356 371.524C126.075 358.407 107.339 348.171 84.5099 348.66C61.6806 349.15 43.4023 360.18 43.6842 373.297C43.9661 386.414 62.7014 396.65 85.5307 396.161Z" fill="url(#paint17_linear_204_3)"/>
<path d="M117.818 370.964C118.039 381.39 103.518 390.151 85.3775 390.54C67.2373 390.929 52.3529 382.79 52.1324 372.37C51.9119 361.944 66.4331 353.183 84.5733 352.794C102.713 352.406 117.598 360.544 117.818 370.964Z" fill="url(#paint18_linear_204_3)"/>
<path d="M85.3517 389.03C68.0805 389.4 53.8576 381.915 53.6566 372.344C53.4491 362.773 67.3412 354.686 84.6123 354.317C101.883 353.948 116.106 361.432 116.314 371.003C116.521 380.574 102.629 388.661 85.3581 389.03H85.3517ZM84.6123 354.518C67.4514 354.887 53.6501 362.877 53.8576 372.338C54.0587 381.799 68.1843 389.192 85.3517 388.829C102.513 388.46 116.314 380.47 116.106 371.009C115.905 361.549 101.78 354.155 84.6123 354.518Z" fill="white"/>
<path d="M464.434 444.447C464.434 461.159 440.859 474.708 411.778 474.708C382.696 474.708 359.108 461.159 359.108 444.447C359.108 440.824 360.224 437.345 362.254 434.118C369.602 422.486 388.994 414.172 411.778 414.172C434.562 414.172 454.531 422.726 461.613 434.643C463.449 437.721 464.434 441.019 464.434 444.447Z" stroke="#F99696" stroke-width="0.89" stroke-miterlimit="10"/>
<path opacity="0.7" d="M449.887 365.942V438.933H449.816C449.796 439.062 449.777 439.192 449.744 439.315C449.744 439.321 449.744 439.334 449.744 439.341C449.718 439.464 449.692 439.581 449.66 439.704C449.66 439.704 449.66 439.717 449.66 439.723C449.628 439.846 449.589 439.969 449.55 440.099C449.511 440.229 449.465 440.358 449.414 440.481C449.362 440.604 449.31 440.734 449.251 440.864C449.193 440.987 449.135 441.116 449.07 441.239C448.947 441.479 448.81 441.719 448.661 441.959C448.655 441.965 448.642 441.978 448.642 441.985C448.408 442.354 448.142 442.717 447.844 443.08C447.844 443.08 447.838 443.086 447.838 443.093C447.637 443.326 447.429 443.559 447.215 443.786C447.202 443.799 447.189 443.812 447.176 443.825C446.962 444.045 446.735 444.259 446.502 444.479C446.378 444.583 446.262 444.693 446.138 444.797C445.996 444.92 445.859 445.037 445.71 445.153C445.438 445.38 445.146 445.594 444.848 445.814C444.692 445.924 444.543 446.028 444.387 446.138C444.232 446.248 444.069 446.352 443.914 446.456C443.752 446.559 443.59 446.663 443.421 446.767C443.252 446.87 443.084 446.974 442.909 447.071C442.733 447.175 442.558 447.272 442.383 447.376C442.208 447.48 442.02 447.577 441.838 447.674C441.709 447.745 441.566 447.817 441.43 447.888C441.281 447.966 441.125 448.043 440.969 448.121C440.652 448.277 440.334 448.432 440.009 448.581C439.841 448.659 439.672 448.737 439.497 448.808C439.367 448.866 439.231 448.931 439.095 448.983C439.024 449.015 438.952 449.048 438.874 449.08C438.271 449.333 437.655 449.579 437.02 449.812C436.819 449.89 436.611 449.968 436.403 450.039C434.951 450.558 433.401 451.031 431.773 451.458C431.286 451.581 430.8 451.705 430.301 451.821C429.976 451.899 429.652 451.977 429.321 452.048C428.854 452.145 428.387 452.249 427.914 452.34C427.084 452.508 426.221 452.664 425.359 452.806C425.073 452.858 424.781 452.903 424.496 452.942C424.159 452.994 423.815 453.046 423.471 453.098C423.238 453.13 422.998 453.163 422.764 453.195C422.291 453.26 421.811 453.318 421.325 453.37C421.02 453.409 420.708 453.441 420.397 453.474C419.139 453.603 417.861 453.713 416.558 453.791C416.298 453.811 416.039 453.823 415.779 453.836C415.65 453.843 415.52 453.849 415.39 453.856C415.15 453.869 414.904 453.875 414.657 453.888C414.262 453.908 413.879 453.927 413.477 453.94C413.341 453.94 413.205 453.94 413.068 453.947C412.88 453.947 412.699 453.953 412.511 453.96C412.478 453.96 412.439 453.96 412.407 453.96C412.128 453.966 411.849 453.973 411.577 453.979H411.538C411.213 453.979 410.889 453.979 410.558 453.979C409.877 453.979 409.203 453.973 408.535 453.96C408.373 453.96 408.217 453.953 408.055 453.947C407.141 453.927 406.239 453.888 405.344 453.836C405.085 453.823 404.825 453.811 404.566 453.791C403.262 453.713 401.978 453.603 400.726 453.474C400.415 453.441 400.11 453.409 399.799 453.37C399.312 453.318 398.839 453.26 398.359 453.195C398.126 453.163 397.886 453.13 397.652 453.098C397.302 453.046 396.965 453.001 396.627 452.942C396.342 452.903 396.05 452.858 395.765 452.806C394.896 452.664 394.04 452.508 393.209 452.34C392.736 452.242 392.263 452.145 391.802 452.048C391.471 451.977 391.141 451.899 390.823 451.821C390.323 451.705 389.837 451.581 389.351 451.458C387.716 451.031 386.173 450.558 384.72 450.039C384.512 449.968 384.305 449.897 384.104 449.812C383.468 449.579 382.846 449.333 382.249 449.08C382.035 448.996 381.827 448.905 381.626 448.808C381.458 448.73 381.289 448.659 381.12 448.581C380.796 448.432 380.472 448.277 380.154 448.121C379.998 448.043 379.843 447.966 379.694 447.888C379.551 447.817 379.415 447.745 379.285 447.674C379.097 447.577 378.915 447.48 378.74 447.376C378.565 447.279 378.39 447.175 378.215 447.071C378.04 446.974 377.871 446.87 377.702 446.767C377.534 446.663 377.372 446.559 377.21 446.456C377.047 446.346 376.892 446.242 376.736 446.138C376.58 446.028 376.431 445.924 376.276 445.814C375.977 445.6 375.685 445.38 375.413 445.153C375.264 445.037 375.121 444.92 374.985 444.797C374.862 444.687 374.745 444.583 374.622 444.479C374.388 444.259 374.161 444.045 373.947 443.825C373.934 443.805 373.921 443.799 373.908 443.786C373.688 443.559 373.48 443.319 373.286 443.093C373.286 443.093 373.286 443.086 373.279 443.08C372.981 442.717 372.715 442.354 372.482 441.985C372.482 441.978 372.469 441.965 372.462 441.959C372.319 441.725 372.183 441.486 372.054 441.239C371.989 441.116 371.93 440.987 371.872 440.864C371.814 440.734 371.762 440.604 371.71 440.481C371.658 440.352 371.612 440.222 371.574 440.099C371.535 439.976 371.496 439.853 371.463 439.723C371.463 439.717 371.463 439.704 371.463 439.704C371.431 439.581 371.398 439.457 371.379 439.341C371.379 439.334 371.379 439.321 371.379 439.315C371.353 439.185 371.327 439.056 371.308 438.933H371.236V367.031H371.956L372.261 367.018L376.944 366.953L444.627 366.013L449.472 365.949H449.679L449.978 365.942H449.887Z" fill="url(#paint19_linear_204_3)"/>
<path opacity="0.7" d="M410.519 410.038C432.261 410.038 449.887 402.864 449.887 394.013C449.887 385.163 432.261 377.988 410.519 377.988C388.777 377.988 371.152 385.163 371.152 394.013C371.152 402.864 388.777 410.038 410.519 410.038Z" fill="url(#paint20_linear_204_3)"/>
<path opacity="0.5" d="M410.519 409.494C389 409.494 371.515 402.463 371.158 393.741C371.158 393.832 371.152 393.923 371.152 394.013C371.152 402.865 388.78 410.038 410.519 410.038C432.259 410.038 449.887 402.865 449.887 394.013C449.887 393.923 449.887 393.832 449.88 393.741C449.524 402.463 432.039 409.494 410.519 409.494Z" fill="white"/>
<path opacity="0.8" d="M410.416 410.038C388.67 410.038 371.048 402.865 371.048 394.013V438.939H371.126C372.365 447.337 389.48 453.992 410.422 453.992C431.364 453.992 448.48 447.337 449.719 438.939H449.796V394.013C449.796 402.865 432.169 410.038 410.429 410.038H410.416Z" fill="url(#paint21_linear_204_3)"/>
<path d="M440.639 363.972C433.414 360.473 422.609 358.25 410.52 358.25C398.43 358.25 387.625 360.473 380.4 363.972H371.146V374.47C371.34 383.276 388.89 390.391 410.513 390.391C432.136 390.391 449.686 383.276 449.881 374.47V363.972H440.626H440.639Z" fill="url(#paint22_linear_204_3)"/>
<path d="M410.519 379.997C432.261 379.997 449.887 372.823 449.887 363.972C449.887 355.122 432.261 347.947 410.519 347.947C388.777 347.947 371.152 355.122 371.152 363.972C371.152 372.823 388.777 379.997 410.519 379.997Z" fill="white"/>
<path d="M410.416 376.576C429.579 376.576 445.114 370.803 445.114 363.681C445.114 356.559 429.579 350.786 410.416 350.786C391.253 350.786 375.718 356.559 375.718 363.681C375.718 370.803 391.253 376.576 410.416 376.576Z" fill="#F8E6E6"/>
<path d="M410.519 379.414C389.02 379.414 371.541 372.396 371.158 363.681C371.158 363.778 371.152 363.875 371.152 363.972C371.152 372.824 388.78 379.997 410.519 379.997C432.259 379.997 449.887 372.824 449.887 363.972C449.887 363.875 449.887 363.778 449.88 363.681C449.498 372.396 432.019 379.414 410.519 379.414Z" fill="white"/>
<path d="M474.468 460.18C478.832 454.232 478.352 442.639 472.697 431.468C466.964 420.154 457.735 412.864 450.302 413.045L449.855 412.177L445.775 414.237V414.25C438.297 418.436 437.655 432.407 444.426 445.762C451.197 459.124 462.839 466.881 470.648 463.33V463.343L474.967 461.159L474.461 460.174L474.468 460.18Z" fill="url(#paint23_linear_204_3)"/>
<path d="M474.749 461.242C482.556 457.293 483.316 443.099 476.445 429.539C469.574 415.978 457.675 408.186 449.868 412.135C442.061 416.084 441.302 430.278 448.172 443.839C455.043 457.399 466.942 465.191 474.749 461.242Z" fill="url(#paint24_linear_204_3)"/>
<path opacity="0.2" d="M56.5 20.5L140.5 313.331C140.5 338.078 194.486 358.134 261.08 358.134C327.674 358.134 381.66 338.072 381.66 313.331L476.5 26L56.5 20.5Z" fill="url(#paint25_linear_204_3)"/>
<path opacity="0.8" d="M510.218 78L486.546 119.725L535.188 117.139L510.218 78Z" fill="#EA2928"/>
<path opacity="0.7" d="M510.218 78H498.168L476 117.359L486.546 119.725L510.218 78Z" fill="#F06969"/>
<path opacity="0.8" d="M523.131 169.037L500.898 174.617V118.96L523.131 117.781V169.037Z" fill="url(#paint26_linear_204_3)"/>
<path opacity="0.7" d="M500.898 174.616L488.485 171.947V119.621L500.898 118.96V174.616Z" fill="url(#paint27_linear_204_3)"/>
<path d="M25.1821 354.445C24.0383 355.236 22.8868 356.026 21.7354 356.817C16.6842 351.698 12.4007 345.872 9 339.525C10.1054 338.681 11.2108 337.837 12.3163 337C15.6863 343.447 20.0235 349.334 25.1821 354.445Z" fill="white"/>
<path d="M16.6577 359.396C15.4986 360.171 14.3394 360.946 13.1803 361.721C8.30568 356.71 4.14501 351.038 0.836426 344.867C1.93417 344 3.03191 343.14 4.13733 342.288C7.43056 348.589 11.6526 354.353 16.6654 359.388L16.6577 359.396Z" fill="white"/>
<path opacity="0.3" d="M93.5313 284.103C115.617 283.691 133.187 265.468 132.774 243.402C132.362 221.335 114.123 203.781 92.0375 204.193C69.9518 204.605 52.3822 222.828 52.7947 244.894C53.2072 266.961 71.4456 284.515 93.5313 284.103Z" fill="url(#paint28_linear_204_3)"/>
<path opacity="0.5" d="M82.7212 218.313C78.9076 219.752 75.1071 219.045 74.238 216.739C73.369 214.432 75.7492 211.393 79.5627 209.954C83.3762 208.516 87.1768 209.222 88.0458 211.529C88.9149 213.836 86.5347 216.875 82.7212 218.313Z" fill="white"/>
<path opacity="0.5" d="M74.0366 225.15C71.9418 225.94 69.8534 225.552 69.3735 224.288C68.8935 223.018 70.2036 221.353 72.305 220.562C74.3998 219.772 76.4882 220.16 76.9681 221.424C77.448 222.694 76.1379 224.359 74.0431 225.15H74.0366Z" fill="white"/>
<path d="M137.935 248.965C141.019 223.871 122.953 201.138 97.808 198.472C73.4317 195.887 51.224 213.481 48.1773 237.808C47.3128 244.744 48.0598 251.495 50.1274 257.705C51.6034 262.143 50.114 267.026 46.3831 269.849C37.6584 275.576 28.9082 282.005 20.141 288.978C19.2404 289.693 18.3402 290.42 17.4402 291.154C16.465 291.941 15.4899 292.734 14.5152 293.54C13.6216 294.274 12.728 295.007 11.8285 295.76C10.629 296.758 9.42986 297.768 8.23089 298.784C4.50018 301.614 3.76406 306.937 6.59425 310.66C8.05251 312.582 10.1726 313.705 12.3839 313.958C14.4797 314.194 16.6633 313.668 18.4722 312.29C19.8141 311.359 21.1494 310.422 22.4721 309.491C23.4249 308.82 24.3714 308.149 25.3114 307.478C26.3517 306.734 27.3857 305.99 28.4132 305.247C29.3593 304.563 30.2926 303.879 31.226 303.196C40.384 296.493 49.1241 289.693 57.3942 282.765C60.9372 280.081 65.7663 279.796 69.5672 282.1C74.9275 285.352 81.0574 287.542 87.6857 288.331C112.301 291.254 134.883 273.554 137.91 248.966L137.935 248.965ZM89.8506 282.682C89.7098 282.673 89.5688 282.658 89.4278 282.643C89.146 282.619 88.8576 282.588 88.582 282.557C88.1718 282.511 87.7549 282.452 87.3444 282.393C87.1711 282.366 86.998 282.345 86.8248 282.318C86.414 282.253 86.0095 282.181 85.605 282.109C84.9561 281.979 84.3133 281.837 83.6831 281.688C83.3678 281.608 83.0525 281.527 82.737 281.44C82.4409 281.358 82.1383 281.277 81.8418 281.183C81.8163 281.184 81.7904 281.172 81.7709 281.159C81.4682 281.072 81.1653 280.978 80.8687 280.877C80.5592 280.777 80.256 280.671 79.9464 280.564C79.3399 280.351 78.7394 280.118 78.145 279.879C77.8478 279.759 77.5504 279.633 77.2593 279.501C76.9747 279.374 76.6901 279.248 76.4119 279.121C76.4055 279.121 76.3924 279.109 76.386 279.109C76.0947 278.97 75.8099 278.837 75.5248 278.692C75.2591 278.559 74.9871 278.426 74.7277 278.286C74.5203 278.176 74.3063 278.061 74.105 277.945C73.943 277.86 73.7873 277.775 73.6314 277.683C73.385 277.55 73.1511 277.409 72.9107 277.262C72.6768 277.122 72.4428 276.975 72.2087 276.828C71.9422 276.663 71.6756 276.491 71.4153 276.319C71.1485 276.141 70.8946 275.969 70.6339 275.785C70.3735 275.607 70.1192 275.422 69.865 275.237C69.6239 275.065 69.389 274.886 69.154 274.708C68.9322 274.541 68.7167 274.368 68.5009 274.189C68.3963 274.102 68.2919 274.022 68.1937 273.935C67.7364 273.571 67.2916 273.193 66.8656 272.803C66.6823 272.641 66.5054 272.48 66.3284 272.319C66.2825 272.275 66.2366 272.232 66.1907 272.189C65.9875 272.002 65.7971 271.816 65.6002 271.623C64.6941 270.735 63.8253 269.807 63.0063 268.832C62.8083 268.601 62.6167 268.37 62.4313 268.133C56.0488 260.213 52.7042 249.835 53.9528 238.953C54.0197 238.364 54.0997 237.786 54.1926 237.209C54.2249 236.991 54.2639 236.779 54.3026 236.561C54.325 236.445 54.3408 236.323 54.3696 236.208C54.3974 236.053 54.4251 235.899 54.4528 235.745C54.4869 235.591 54.5148 235.443 54.549 235.289C54.5889 235.116 54.6286 234.929 54.6687 234.762C54.7254 234.499 54.7886 234.241 54.8519 233.984C54.9093 233.746 54.9729 233.502 55.0366 233.263C55.1352 232.897 55.2402 232.53 55.3452 232.163C55.5261 231.538 55.733 230.925 55.9463 230.313C56.053 230.01 56.1597 229.706 56.2792 229.403C56.3625 229.177 56.4521 228.951 56.5482 228.725C56.6142 228.57 56.6739 228.415 56.7397 228.253C56.9616 227.723 57.1903 227.206 57.4315 226.682C57.5403 226.455 57.6493 226.235 57.7645 226.008C57.8976 225.736 58.0372 225.464 58.1768 225.199C58.2738 225.004 58.3771 224.81 58.4869 224.622C58.5904 224.433 58.6937 224.239 58.8036 224.051C58.907 223.863 59.0169 223.674 59.1268 223.486C59.1938 223.369 59.2611 223.259 59.3348 223.148C60.0745 221.927 60.8727 220.742 61.7363 219.614C61.8165 219.509 61.8968 219.405 61.977 219.3C62.1746 219.052 62.3659 218.804 62.5639 218.569C62.7123 218.386 62.8606 218.203 63.0155 218.026C63.0216 218.013 63.028 218.013 63.034 218C63.2075 217.804 63.3747 217.608 63.5482 217.411C63.7526 217.176 63.9574 216.953 64.1621 216.73C64.2799 216.599 64.4043 216.474 64.5221 216.343C64.5842 216.278 64.6401 216.219 64.7024 216.16C64.8204 216.035 64.9386 215.917 65.0567 215.798C65.2058 215.641 65.3614 215.49 65.517 215.339C65.6413 215.214 65.7723 215.095 65.903 214.97C66.0276 214.852 66.1523 214.74 66.2705 214.622C66.4573 214.444 66.6507 214.273 66.8441 214.101C66.9376 214.016 67.0311 213.93 67.1247 213.851C67.3057 213.693 67.4867 213.534 67.674 213.376C67.9114 213.178 68.1488 212.98 68.3863 212.788L68.5426 212.662C68.7364 212.504 68.9429 212.345 69.1432 212.192C69.3935 212 69.6502 211.808 69.9071 211.622C70.1262 211.456 70.3518 211.297 70.5839 211.137C70.6843 211.071 70.7845 210.997 70.8849 210.931C71.1044 210.778 71.324 210.631 71.5436 210.485C71.7886 210.331 72.0334 210.171 72.2784 210.018C72.536 209.857 72.7936 209.697 73.0513 209.543C73.2589 209.422 73.4664 209.301 73.6742 209.187C73.8187 209.1 73.9571 209.02 74.1082 208.939C74.2846 208.845 74.4671 208.744 74.6434 208.65C74.8072 208.562 74.9647 208.481 75.1286 208.4C75.1662 208.373 75.2042 208.36 75.2419 208.339C75.4057 208.252 75.5696 208.171 75.7335 208.09C75.7525 208.083 75.7713 208.069 75.7839 208.063C75.9983 207.961 76.2126 207.853 76.4335 207.751C76.465 207.737 76.503 207.724 76.5282 207.71C76.7996 207.588 77.0772 207.459 77.3486 207.336C77.6453 207.207 77.9359 207.084 78.2328 206.961C78.4982 206.851 78.7574 206.748 79.0293 206.645C79.1114 206.611 79.1937 206.583 79.2758 206.549C79.5224 206.453 79.7819 206.363 80.0286 206.273C80.3007 206.176 80.5666 206.086 80.8389 205.995C80.8768 205.981 80.9148 205.967 80.9529 205.96C81.1809 205.884 81.409 205.813 81.6435 205.743C81.7637 205.701 81.8905 205.666 82.0174 205.631C82.2139 205.574 82.4168 205.518 82.6133 205.461C82.7402 205.426 82.8606 205.39 82.9874 205.355C83.1588 205.312 83.3363 205.262 83.5076 205.219C84.4151 204.99 85.3235 204.799 86.2455 204.633C86.2774 204.633 86.3028 204.625 86.3345 204.618C86.5062 204.588 86.6843 204.557 86.8561 204.534C87.0915 204.495 87.327 204.463 87.5624 204.425C87.8105 204.386 88.0652 204.354 88.3201 204.327C88.473 204.311 88.6322 204.293 88.7851 204.276C89.0336 204.25 89.2755 204.218 89.5242 204.199C89.8557 204.17 90.1871 204.142 90.5124 204.121C90.5571 204.119 90.6018 204.118 90.6401 204.117C90.9271 204.096 91.2206 204.082 91.5079 204.074C91.5462 204.073 91.5781 204.072 91.6164 204.071C91.9101 204.063 92.2102 204.055 92.5039 204.047C93.1747 204.041 93.8457 204.049 94.5301 204.075C94.8435 204.085 95.1571 204.102 95.4706 204.119C95.7459 204.137 96.0211 204.155 96.2965 204.18C96.4886 204.193 96.6744 204.214 96.8667 204.234C97.0972 204.253 97.3278 204.273 97.5651 204.305C119.146 206.774 134.684 226.331 132.213 247.908C132.192 248.069 132.171 248.229 132.15 248.395C132.124 248.62 132.092 248.838 132.06 249.062C132.028 249.293 131.989 249.531 131.951 249.762C131.918 249.961 131.885 250.159 131.846 250.359C131.758 250.859 131.663 251.36 131.555 251.849C131.27 253.14 130.928 254.402 130.527 255.633C130.45 255.865 130.374 256.097 130.297 256.317C130.22 256.549 130.137 256.774 130.054 257.007C129.97 257.233 129.887 257.458 129.797 257.684C129.714 257.91 129.624 258.136 129.528 258.356C129.409 258.653 129.283 258.951 129.15 259.242C129.024 259.526 128.897 259.811 128.771 260.089C128.771 260.095 128.758 260.109 128.758 260.115C128.62 260.406 128.487 260.691 128.341 260.976C128.208 261.242 128.075 261.513 127.935 261.773C127.826 261.98 127.71 262.194 127.594 262.395C127.509 262.557 127.418 262.713 127.332 262.869C127.192 263.116 127.045 263.362 126.899 263.609C126.765 263.836 126.624 264.064 126.477 264.291C126.311 264.558 126.14 264.824 125.968 265.091C125.796 265.351 125.625 265.611 125.446 265.859C125.446 265.859 125.446 265.866 125.434 265.872C125.256 266.133 125.077 266.387 124.886 266.635C124.714 266.876 124.541 267.11 124.356 267.339C124.183 267.561 124.016 267.783 123.837 268.005C123.757 268.109 123.67 268.214 123.584 268.312C123.219 268.769 122.835 269.214 122.445 269.653C122.296 269.817 122.153 269.98 122.004 270.138C121.948 270.197 121.893 270.256 121.83 270.321C121.644 270.524 121.458 270.715 121.265 270.912C121.116 271.069 120.967 271.22 120.811 271.371C120.718 271.463 120.631 271.555 120.537 271.641C119.871 272.285 119.186 272.911 118.474 273.505C118.243 273.703 118.011 273.895 117.774 274.08C117.492 274.305 117.211 274.53 116.917 274.749C116.716 274.901 116.516 275.053 116.309 275.2C116.265 275.233 116.222 275.266 116.171 275.293C116.015 275.406 115.864 275.525 115.701 275.631C115.576 275.724 115.444 275.811 115.319 275.897C115.074 276.064 114.829 276.23 114.578 276.39C114.089 276.711 113.592 277.018 113.089 277.313C112.901 277.427 112.712 277.534 112.523 277.641C112.322 277.762 112.108 277.876 111.9 277.991C111.881 278.004 111.856 278.017 111.837 278.031C111.623 278.151 111.409 278.26 111.189 278.374C110.622 278.671 110.048 278.948 109.467 279.22L108.918 279.465C108.413 279.689 107.895 279.908 107.377 280.101C107.219 280.169 107.061 280.225 106.896 280.287C106.378 280.486 105.859 280.666 105.333 280.841C105.086 280.924 104.845 281.001 104.592 281.078C104.579 281.078 104.573 281.085 104.567 281.085C104.358 281.155 104.148 281.212 103.933 281.275C103.838 281.303 103.743 281.331 103.647 281.353C103.502 281.395 103.356 281.438 103.21 281.474C103.051 281.516 102.893 281.559 102.728 281.602C102.569 281.644 102.41 281.681 102.258 281.717C101.903 281.803 101.547 281.883 101.185 281.957C100.975 282.007 100.766 282.045 100.55 282.089C100.333 282.134 100.111 282.172 99.8947 282.209C99.6403 282.255 99.386 282.3 99.1313 282.333C99.1058 282.333 99.0806 282.347 99.055 282.347C98.8388 282.385 98.6225 282.417 98.4059 282.442C98.2849 282.458 98.164 282.474 98.043 282.49C97.8584 282.514 97.6801 282.538 97.4889 282.556C96.9221 282.623 96.3549 282.677 95.7872 282.712C95.5894 282.723 95.3919 282.742 95.1939 282.747C95.1109 282.749 95.0343 282.751 94.9513 282.754C94.7474 282.772 94.5303 282.778 94.3132 282.784C94.2813 282.785 94.2494 282.786 94.2174 282.786C93.6492 282.802 93.0808 282.811 92.5055 282.801C92.2178 282.796 91.93 282.785 91.6423 282.78C91.3225 282.77 91.009 282.753 90.6825 282.73C90.4072 282.712 90.1384 282.694 89.863 282.669L89.8506 282.682Z" fill="url(#paint29_linear_204_3)"/>
<path d="M66.2182 56.5787C69.7983 49.509 67.2559 37.3137 59.2981 26.4728C51.243 15.4957 40.1851 9.38507 32.3375 10.8819L31.7084 10.0396L27.7522 12.9361L27.7652 12.9491C20.5727 18.6968 22.3432 33.6007 31.8576 46.5671C41.372 59.5336 55.0695 65.7025 62.7225 60.5768L62.7355 60.5898L66.9252 57.5248L66.2182 56.5722V56.5787Z" fill="url(#paint30_linear_204_3)"/>
<path d="M66.6941 57.7093C74.2709 52.1586 72.5836 36.9901 62.9255 23.8295C53.2674 10.6689 39.2958 4.49989 31.719 10.0506C24.1422 15.6013 25.8294 30.7698 35.4876 43.9304C45.1457 57.091 59.1173 63.26 66.6941 57.7093Z" fill="url(#paint31_linear_204_3)"/>
<path d="M63.5331 52.4898C57.5145 56.9026 46.4112 51.9973 38.7387 41.5386C31.0663 31.08 29.7238 19.0272 35.7424 14.6208C41.761 10.208 52.8644 15.1133 60.5368 25.572C68.2093 36.0306 69.5518 48.0834 63.5331 52.4898Z" fill="url(#paint32_linear_204_3)"/>
<defs>
<linearGradient id="paint0_linear_204_3" x1="126.401" y1="124" x2="433.266" y2="113.441" gradientUnits="userSpaceOnUse">
<stop stop-color="#EC3529"/>
<stop offset="1" stop-color="#F99B55"/>
</linearGradient>
<linearGradient id="paint1_linear_204_3" x1="168.267" y1="138.292" x2="414.405" y2="124.06" gradientUnits="userSpaceOnUse">
<stop stop-color="#BA2A21"/>
<stop offset="1" stop-color="#F99F57"/>
</linearGradient>
<linearGradient id="paint2_linear_204_3" x1="182.267" y1="124.292" x2="428.405" y2="110.06" gradientUnits="userSpaceOnUse">
<stop stop-color="#EC3529"/>
<stop offset="1" stop-color="#F99F57"/>
</linearGradient>
<linearGradient id="paint3_linear_204_3" x1="109.336" y1="352.14" x2="435.463" y2="352.14" gradientUnits="userSpaceOnUse">
<stop stop-color="#E92428"/>
<stop offset="1" stop-color="#FDAC2E"/>
</linearGradient>
<linearGradient id="paint4_linear_204_3" x1="135.933" y1="350.319" x2="409.592" y2="350.319" gradientUnits="userSpaceOnUse">
<stop stop-color="#FBF1F1"/>
<stop offset="1" stop-color="#F7E2E2"/>
</linearGradient>
<linearGradient id="paint5_linear_204_3" x1="135.933" y1="314.355" x2="409.592" y2="314.355" gradientUnits="userSpaceOnUse">
<stop stop-color="#FBF0F0"/>
<stop offset="1" stop-color="#FBF3F3"/>
</linearGradient>
<linearGradient id="paint6_linear_204_3" x1="195.075" y1="314.873" x2="350.45" y2="314.873" gradientUnits="userSpaceOnUse">
<stop stop-color="#FBF1F1"/>
<stop offset="1" stop-color="#F7E2E2"/>
</linearGradient>
<linearGradient id="paint7_linear_204_3" x1="195.075" y1="294.455" x2="350.45" y2="294.455" gradientUnits="userSpaceOnUse">
<stop stop-color="#FBF0F0"/>
<stop offset="1" stop-color="#F4F3FB"/>
</linearGradient>
<linearGradient id="paint8_linear_204_3" x1="47.0646" y1="174.595" x2="47.0646" y2="131.886" gradientUnits="userSpaceOnUse">
<stop stop-color="#FCA12E"/>
<stop offset="1" stop-color="#EA2928"/>
</linearGradient>
<linearGradient id="paint9_linear_204_3" x1="32.7199" y1="172.075" x2="33.1352" y2="132.393" gradientUnits="userSpaceOnUse">
<stop stop-color="#FFC170"/>
<stop offset="1" stop-color="#FF5351"/>
</linearGradient>
<linearGradient id="paint10_linear_204_3" x1="53.6233" y1="411.129" x2="74.7079" y2="470.166" gradientUnits="userSpaceOnUse">
<stop stop-color="#FF5F5C"/>
<stop offset="1" stop-color="#FDA62E"/>
</linearGradient>
<linearGradient id="paint11_linear_204_3" x1="86.1428" y1="402.435" x2="86.1428" y2="449.984" gradientUnits="userSpaceOnUse">
<stop stop-color="#FFAFA8"/>
<stop offset="1" stop-color="#FFCFA2"/>
</linearGradient>
<linearGradient id="paint12_linear_204_3" x1="53.5627" y1="409.513" x2="74.5819" y2="458.806" gradientUnits="userSpaceOnUse">
<stop stop-color="#EA2A28"/>
<stop offset="1" stop-color="#FC952F"/>
</linearGradient>
<linearGradient id="paint13_linear_204_3" x1="53.0462" y1="384.243" x2="74.1308" y2="443.281" gradientUnits="userSpaceOnUse">
<stop stop-color="#FF5F5C"/>
<stop offset="1" stop-color="#FDA62E"/>
</linearGradient>
<linearGradient id="paint14_linear_204_3" x1="85.0812" y1="375.568" x2="86.1003" y2="423.073" gradientUnits="userSpaceOnUse">
<stop stop-color="#FFAFA8"/>
<stop offset="1" stop-color="#FFCFA2"/>
</linearGradient>
<linearGradient id="paint15_linear_204_3" x1="52.6764" y1="383.331" x2="74.7274" y2="432.147" gradientUnits="userSpaceOnUse">
<stop stop-color="#EA2A28"/>
<stop offset="1" stop-color="#FC952F"/>
</linearGradient>
<linearGradient id="paint16_linear_204_3" x1="52.4754" y1="357.352" x2="73.56" y2="416.389" gradientUnits="userSpaceOnUse">
<stop stop-color="#FF5F5C"/>
<stop offset="1" stop-color="#FDA62E"/>
</linearGradient>
<linearGradient id="paint17_linear_204_3" x1="84.5104" y1="348.681" x2="85.5295" y2="396.187" gradientUnits="userSpaceOnUse">
<stop stop-color="#FFAFA8"/>
<stop offset="1" stop-color="#FFCFA2"/>
</linearGradient>
<linearGradient id="paint18_linear_204_3" x1="52.4084" y1="355.736" x2="73.4276" y2="405.029" gradientUnits="userSpaceOnUse">
<stop stop-color="#FF8281"/>
<stop offset="1" stop-color="#FC952F"/>
</linearGradient>
<linearGradient id="paint19_linear_204_3" x1="371.146" y1="409.967" x2="449.887" y2="409.967" gradientUnits="userSpaceOnUse">
<stop stop-color="#F9B496"/>
<stop offset="1" stop-color="#FFAFAF"/>
</linearGradient>
<linearGradient id="paint20_linear_204_3" x1="371.145" y1="394.013" x2="449.887" y2="394.013" gradientUnits="userSpaceOnUse">
<stop stop-color="#F9AE96"/>
<stop offset="1" stop-color="#FFA9A9"/>
</linearGradient>
<linearGradient id="paint21_linear_204_3" x1="371.042" y1="423.996" x2="449.783" y2="423.996" gradientUnits="userSpaceOnUse">
<stop stop-color="#FA4848"/>
<stop offset="1" stop-color="#F9D196"/>
</linearGradient>
<linearGradient id="paint22_linear_204_3" x1="371.146" y1="374.321" x2="449.887" y2="374.321" gradientUnits="userSpaceOnUse">
<stop stop-color="#F1F2FB" stop-opacity="0"/>
<stop offset="1" stop-color="#F7E2E2"/>
</linearGradient>
<linearGradient id="paint23_linear_204_3" x1="443.741" y1="414.842" x2="479.744" y2="456.733" gradientUnits="userSpaceOnUse">
<stop stop-color="#FF5F5C"/>
<stop offset="1" stop-color="#FDA62E"/>
</linearGradient>
<linearGradient id="paint24_linear_204_3" x1="449.879" y1="412.157" x2="474.729" y2="461.286" gradientUnits="userSpaceOnUse">
<stop stop-color="#FFAFA8"/>
<stop offset="1" stop-color="#FFCFA2"/>
</linearGradient>
<linearGradient id="paint25_linear_204_3" x1="260.779" y1="249.997" x2="261.08" y2="39.1768" gradientUnits="userSpaceOnUse">
<stop stop-color="#FA4848"/>
<stop offset="1" stop-color="#FDAD2E" stop-opacity="0"/>
</linearGradient>
<linearGradient id="paint26_linear_204_3" x1="512.014" y1="174.617" x2="512.014" y2="117.781" gradientUnits="userSpaceOnUse">
<stop stop-color="#FCA12E"/>
<stop offset="1" stop-color="#EA2928"/>
</linearGradient>
<linearGradient id="paint27_linear_204_3" x1="492.929" y1="171.263" x2="493.482" y2="118.454" gradientUnits="userSpaceOnUse">
<stop stop-color="#FFC170"/>
<stop offset="1" stop-color="#FF5351"/>
</linearGradient>
<linearGradient id="paint28_linear_204_3" x1="53.2277" y1="238.531" x2="132.414" y2="249.811" gradientUnits="userSpaceOnUse">
<stop stop-color="#EA2928"/>
<stop offset="1" stop-color="#FA9D48"/>
</linearGradient>
<linearGradient id="paint29_linear_204_3" x1="39.7127" y1="228.42" x2="96.3807" y2="298.745" gradientUnits="userSpaceOnUse">
<stop stop-color="#FC9E2E"/>
<stop offset="1" stop-color="#EA2A28"/>
</linearGradient>
<linearGradient id="paint30_linear_204_3" x1="28.088" y1="12.721" x2="63.0275" y2="60.4138" gradientUnits="userSpaceOnUse">
<stop stop-color="#FF5F5C"/>
<stop offset="1" stop-color="#FDA62E"/>
</linearGradient>
<linearGradient id="paint31_linear_204_3" x1="31.7343" y1="10.0715" x2="66.6739" y2="57.7643" gradientUnits="userSpaceOnUse">
<stop stop-color="#FFAFA8"/>
<stop offset="1" stop-color="#FFCFA2"/>
</linearGradient>
<linearGradient id="paint32_linear_204_3" x1="32.1278" y1="16.2153" x2="63.4908" y2="52.5493" gradientUnits="userSpaceOnUse">
<stop stop-color="#FF8281"/>
<stop offset="1" stop-color="#FC952F"/>
</linearGradient>
</defs>
</svg>
