<svg width="717" height="108" viewBox="0 0 717 108" fill="none" xmlns="http://www.w3.org/2000/svg">
<path opacity="0.4" d="M0.514293 84H-0.485707V85H0.514293V84ZM0.514293 0.363634V-0.636366H-0.485707V0.363634H0.514293ZM18.1972 0.363634H19.1972V-0.636366H18.1972V0.363634ZM18.1972 37.2404H17.1972V38.2404H18.1972V37.2404ZM19.2998 37.2404V38.2404H19.7744L20.0745 37.8727L19.2998 37.2404ZM49.3975 0.363634V-0.636366H48.9228L48.6227 -0.268669L49.3975 0.363634ZM70.5924 0.363634L71.3624 1.00175L72.72 -0.636366H70.5924V0.363634ZM39.5555 37.8121L38.7855 37.174L38.3059 37.7528L38.7285 38.3744L39.5555 37.8121ZM70.96 84V85H72.8491L71.7869 83.4377L70.96 84ZM49.8058 84L48.9736 84.5545L49.2705 85H49.8058V84ZM26.8957 49.6143L27.7279 49.0599L26.9786 47.9352L26.1221 48.9806L26.8957 49.6143ZM18.1972 60.2322L17.4236 59.5985L17.1972 59.8749V60.2322H18.1972ZM18.1972 84V85H19.1972V84H18.1972ZM1.51429 84V0.363634H-0.485707V84H1.51429ZM0.514293 1.36363H18.1972V-0.636366H0.514293V1.36363ZM17.1972 0.363634V37.2404H19.1972V0.363634H17.1972ZM18.1972 38.2404H19.2998V36.2404H18.1972V38.2404ZM20.0745 37.8727L50.1722 0.995937L48.6227 -0.268669L18.5251 36.6081L20.0745 37.8727ZM49.3975 1.36363H70.5924V-0.636366H49.3975V1.36363ZM69.8225 -0.274483L38.7855 37.174L40.3254 38.4503L71.3624 1.00175L69.8225 -0.274483ZM38.7285 38.3744L70.133 84.5623L71.7869 83.4377L40.3824 37.2499L38.7285 38.3744ZM70.96 83H49.8058V85H70.96V83ZM50.638 83.4455L27.7279 49.0599L26.0635 50.1688L48.9736 84.5545L50.638 83.4455ZM26.1221 48.9806L17.4236 59.5985L18.9707 60.866L27.6692 50.2481L26.1221 48.9806ZM17.1972 60.2322V84H19.1972V60.2322H17.1972ZM18.1972 83H0.514293V85H18.1972V83ZM86.7949 81.3047L86.2993 82.1733L86.3054 82.1767L86.7949 81.3047ZM76.0953 70.1151L75.207 70.5742L75.208 70.5763L76.0953 70.1151ZM76.0953 35.9336L75.2059 35.4765L76.0953 35.9336ZM86.6724 24.5398L86.1609 23.6805L86.1587 23.6818L86.6724 24.5398ZM114.32 22.457L113.969 23.3937L113.978 23.3968L114.32 22.457ZM123.713 28.3786L123.009 29.0893L123.013 29.0928L123.713 28.3786ZM130.002 38.343L129.065 38.6935L129.066 38.6956L130.002 38.343ZM132.248 57.0877V58.0877H133.248V57.0877H132.248ZM79.2807 57.0877H78.2807V58.0877H79.2807V57.0877ZM79.2807 46.3065V45.3065H78.2807V46.3065H79.2807ZM115.872 46.3065V47.3065H116.872V46.3065H115.872ZM114.238 39.6499L113.367 40.1407V40.1407L114.238 39.6499ZM109.705 35.1168L109.2 35.9797L109.207 35.984L109.214 35.9881L109.705 35.1168ZM96.0243 35.2802L96.5354 36.1397L96.5388 36.1377L96.0243 35.2802ZM91.2871 40.1399L92.1568 40.6335L92.1596 40.6285L91.2871 40.1399ZM89.5311 46.8782L88.5311 46.8672V46.8782H89.5311ZM91.2463 65.1736L90.354 65.6252L90.3584 65.6337L91.2463 65.1736ZM109.052 71.4219L108.731 70.4748L109.052 71.4219ZM113.176 68.9716L112.487 68.2475L113.176 68.9716ZM115.79 64.9695L115.856 63.9716L115.117 63.9229L114.855 64.6148L115.79 64.9695ZM131.88 66.0312L132.859 66.238L133.097 65.1094L131.946 65.0334L131.88 66.0312ZM126.857 76.1591L126.105 75.4996L126.105 75.5001L126.857 76.1591ZM117.138 82.8565L117.509 83.785L117.512 83.7837L117.138 82.8565ZM103.457 84.2251C97.1403 84.2251 91.7622 82.9465 87.2845 80.4327L86.3054 82.1767C91.1387 84.8901 96.8686 86.2251 103.457 86.2251V84.2251ZM87.2905 80.4361C82.8326 77.8925 79.4005 74.3056 76.9826 69.6539L75.208 70.5763C77.7997 75.5623 81.5006 79.4352 86.2993 82.1732L87.2905 80.4361ZM76.9837 69.6559C74.5663 64.9788 73.3382 59.4118 73.3382 52.9222H71.3382C71.3382 59.6642 72.6149 65.559 75.207 70.5742L76.9837 69.6559ZM73.3382 52.9222C73.3382 46.6006 74.5646 41.0996 76.9847 36.3907L75.2059 35.4765C72.6167 40.5143 71.3382 46.339 71.3382 52.9222H73.3382ZM76.9847 36.3907C79.4072 31.6775 82.8053 28.021 87.1861 25.3977L86.1587 23.6818C81.4462 26.5036 77.793 30.443 75.2059 35.4765L76.9847 36.3907ZM87.1839 25.3991C91.5803 22.7822 96.7612 21.456 102.763 21.456V19.456C96.4581 19.456 90.9123 20.8523 86.1609 23.6805L87.1839 25.3991ZM102.763 21.456C106.792 21.456 110.524 22.105 113.969 23.3937L114.67 21.5204C110.982 20.141 107.01 19.456 102.763 19.456V21.456ZM113.978 23.3968C117.439 24.6552 120.446 26.5519 123.009 29.0893L124.416 27.6678C121.643 24.9235 118.388 22.8725 114.662 21.5172L113.978 23.3968ZM123.013 29.0928C125.59 31.6184 127.612 34.8103 129.065 38.6935L130.938 37.9926C129.396 33.8715 127.225 30.4204 124.412 27.6643L123.013 29.0928ZM129.066 38.6956C130.511 42.533 131.248 47.0643 131.248 52.3097H133.248C133.248 46.8827 132.487 42.1028 130.937 37.9905L129.066 38.6956ZM131.248 52.3097V57.0877H133.248V52.3097H131.248ZM132.248 56.0877H79.2807V58.0877H132.248V56.0877ZM80.2807 57.0877V46.3065H78.2807V57.0877H80.2807ZM79.2807 47.3065H115.872V45.3065H79.2807V47.3065ZM116.872 46.3065C116.872 43.6523 116.293 41.2603 115.109 39.159L113.367 40.1407C114.361 41.9054 114.872 43.9511 114.872 46.3065H116.872ZM115.109 39.159C113.931 37.0668 112.288 35.4243 110.196 34.2456L109.214 35.9881C110.988 36.9874 112.368 38.3669 113.367 40.1407L115.109 39.159ZM110.21 34.2539C108.13 33.0354 105.732 32.4425 103.048 32.4425V34.4425C105.429 34.4425 107.468 34.9657 109.2 35.9797L110.21 34.2539ZM103.048 32.4425C100.247 32.4425 97.7237 33.0944 95.5098 34.4227L96.5388 36.1377C98.4088 35.0157 100.569 34.4425 103.048 34.4425V32.4425ZM95.5133 34.4206C93.3479 35.7082 91.644 37.4559 90.4146 39.6513L92.1596 40.6285C93.2171 38.7401 94.6714 37.248 96.5354 36.1397L95.5133 34.4206ZM90.4174 39.6463C89.1846 41.8184 88.5601 44.2325 88.5311 46.8672L90.531 46.8892C90.5565 44.5688 91.1027 42.4907 92.1568 40.6335L90.4174 39.6463ZM88.5311 46.8782V57.1286H90.5311V46.8782H88.5311ZM88.5311 57.1286C88.5311 60.3543 89.1255 63.1974 90.354 65.6252L92.1385 64.7221C91.0801 62.6305 90.5311 60.1102 90.5311 57.1286H88.5311ZM90.3584 65.6337C91.6134 68.0563 93.3923 69.9427 95.688 71.2671L96.6874 69.5347C94.7359 68.4089 93.2205 66.8104 92.1342 64.7136L90.3584 65.6337ZM95.688 71.2671C97.9898 72.5951 100.687 73.2386 103.743 73.2386V71.2386C100.972 71.2386 98.6327 70.657 96.6874 69.5347L95.688 71.2671ZM103.743 73.2386C105.77 73.2386 107.65 72.953 109.373 72.3689L108.731 70.4748C107.241 70.9797 105.582 71.2386 103.743 71.2386V73.2386ZM109.373 72.3689C111.106 71.7813 112.61 70.8922 113.866 69.6957L112.487 68.2475C111.456 69.229 110.21 69.9734 108.731 70.4748L109.373 72.3689ZM113.866 69.6957C115.125 68.4964 116.077 67.0332 116.725 65.3241L114.855 64.6148C114.305 66.0638 113.514 67.2688 112.487 68.2475L113.866 69.6957ZM115.724 65.9673L131.814 67.0291L131.946 65.0334L115.856 63.9716L115.724 65.9673ZM130.902 65.8245C130.119 69.5278 128.521 72.7466 126.105 75.4996L127.609 76.8186C130.257 73.7998 132.007 70.2667 132.859 66.238L130.902 65.8245ZM126.105 75.5001C123.716 78.2268 120.612 80.3741 116.763 81.9294L117.512 83.7837C121.614 82.1263 124.989 79.8088 127.609 76.8181L126.105 75.5001ZM116.766 81.9281C112.959 83.4509 108.529 84.2251 103.457 84.2251V86.2251C108.73 86.2251 113.421 85.4204 117.509 83.785L116.766 81.9281ZM146.449 106.992L146.629 106.008L146.618 106.006L146.449 106.992ZM141.712 105.726L140.755 105.437L140.493 106.304L141.33 106.65L141.712 105.726ZM145.632 92.7393L145.926 91.7833L144.965 91.4888L144.675 92.4503L145.632 92.7393ZM151.146 93.7603L151.112 94.7597L151.113 94.7598L151.146 93.7603ZM155.434 92.6168L154.879 91.7847L154.87 91.7906L155.434 92.6168ZM158.415 88.4513L159.347 88.8138L159.348 88.8103L158.415 88.4513ZM159.436 85.7969L160.369 86.1559L160.501 85.8137L160.38 85.4676L159.436 85.7969ZM136.934 21.2727V20.2727H135.526L135.99 21.602L136.934 21.2727ZM155.229 21.2727L156.192 21.0014L155.986 20.2727H155.229V21.2727ZM168.216 67.3381L167.253 67.6094L167.459 68.3381H168.216V67.3381ZM168.869 67.3381V68.3381H169.624L169.831 67.6118L168.869 67.3381ZM181.978 21.2727V20.2727H181.223L181.016 20.999L181.978 21.2727ZM200.396 21.2727L201.34 21.6037L201.807 20.2727H200.396V21.2727ZM176.016 90.7791L175.072 90.4481L175.071 90.4515L176.016 90.7791ZM171.238 99.6001L170.459 98.9733L170.451 98.9827L171.238 99.6001ZM163.683 105.44L163.275 104.527L163.268 104.53L163.683 105.44ZM152.657 106.523C150.504 106.523 148.496 106.35 146.629 106.008L146.269 107.975C148.268 108.342 150.398 108.523 152.657 108.523V106.523ZM146.618 106.006C144.757 105.687 143.255 105.281 142.094 104.802L141.33 106.65C142.673 107.205 144.33 107.643 146.28 107.977L146.618 106.006ZM142.669 106.015L146.59 93.0284L144.675 92.4503L140.755 105.437L142.669 106.015ZM145.339 93.6954C147.441 94.34 149.368 94.7016 151.112 94.7597L151.179 92.7609C149.656 92.7101 147.907 92.391 145.926 91.7833L145.339 93.6954ZM151.113 94.7598C152.953 94.8201 154.599 94.3963 155.997 93.4431L154.87 91.7906C153.872 92.4709 152.659 92.8094 151.178 92.7608L151.113 94.7598ZM155.988 93.4489C157.443 92.4787 158.541 90.8867 159.347 88.8138L157.483 88.0889C156.764 89.9364 155.874 91.1214 154.879 91.7848L155.988 93.4489ZM159.348 88.8103L160.369 86.1559L158.502 85.4379L157.481 88.0924L159.348 88.8103ZM160.38 85.4676L137.878 20.9434L135.99 21.602L158.491 86.1262L160.38 85.4676ZM136.934 22.2727H155.229V20.2727H136.934V22.2727ZM154.267 21.5441L167.253 67.6094L169.178 67.0667L156.192 21.0014L154.267 21.5441ZM168.216 68.3381H168.869V66.3381H168.216V68.3381ZM169.831 67.6118L182.94 21.5464L181.016 20.999L167.907 67.0644L169.831 67.6118ZM181.978 22.2727H200.396V20.2727H181.978V22.2727ZM199.453 20.9417L175.072 90.4481L176.96 91.1101L201.34 21.6037L199.453 20.9417ZM175.071 90.4515C173.934 93.731 172.394 96.5675 170.459 98.9734L172.017 100.227C174.111 97.6233 175.757 94.5791 176.961 91.1068L175.071 90.4515ZM170.451 98.9827C168.568 101.382 166.182 103.229 163.275 104.527L164.09 106.353C167.282 104.928 169.933 102.882 172.024 100.218L170.451 98.9827ZM163.268 104.53C160.381 105.845 156.854 106.523 152.657 106.523V108.523C157.062 108.523 160.886 107.812 164.097 106.35L163.268 104.53ZM236.242 84H235.242V85H236.242V84ZM236.242 0.363634V-0.636366H235.242V0.363634H236.242ZM291.618 0.363634H292.618V-0.636366H291.618V0.363634ZM291.618 14.9428V15.9428H292.618V14.9428H291.618ZM253.925 14.9428V13.9428H252.925V14.9428H253.925ZM253.925 34.8718H252.925V35.8718H253.925V34.8718ZM287.943 34.8718H288.943V33.8718H287.943V34.8718ZM287.943 49.451V50.451H288.943V49.451H287.943ZM253.925 49.451V48.451H252.925V49.451H253.925ZM253.925 84V85H254.925V84H253.925ZM237.242 84V0.363634H235.242V84H237.242ZM236.242 1.36363H291.618V-0.636366H236.242V1.36363ZM290.618 0.363634V14.9428H292.618V0.363634H290.618ZM291.618 13.9428H253.925V15.9428H291.618V13.9428ZM252.925 14.9428V34.8718H254.925V14.9428H252.925ZM253.925 35.8718H287.943V33.8718H253.925V35.8718ZM286.943 34.8718V49.451H288.943V34.8718H286.943ZM287.943 48.451H253.925V50.451H287.943V48.451ZM252.925 49.451V84H254.925V49.451H252.925ZM253.925 83H236.242V85H253.925V83ZM310.506 81.3047L310.01 82.1733L310.016 82.1767L310.506 81.3047ZM299.806 70.1151L298.918 70.5742L298.919 70.5763L299.806 70.1151ZM299.806 35.9336L298.917 35.4765L299.806 35.9336ZM310.383 24.5398L309.872 23.6805L309.87 23.6818L310.383 24.5398ZM338.031 22.457L337.68 23.3937L337.689 23.3968L338.031 22.457ZM347.423 28.3786L346.72 29.0893L346.724 29.0928L347.423 28.3786ZM353.713 38.343L352.776 38.6935L352.777 38.6956L353.713 38.343ZM355.959 57.0877V58.0877H356.959V57.0877H355.959ZM302.992 57.0877H301.992V58.0877H302.992V57.0877ZM302.992 46.3065V45.3065H301.992V46.3065H302.992ZM339.583 46.3065V47.3065H340.583V46.3065H339.583ZM337.949 39.6499L337.078 40.1407V40.1407L337.949 39.6499ZM333.416 35.1168L332.911 35.9797L332.918 35.984L332.925 35.9881L333.416 35.1168ZM319.735 35.2802L320.246 36.1397L320.25 36.1377L319.735 35.2802ZM314.998 40.1399L315.868 40.6335L315.871 40.6285L314.998 40.1399ZM313.242 46.8782L312.242 46.8672V46.8782H313.242ZM314.957 65.1736L314.065 65.6252L314.069 65.6337L314.957 65.1736ZM332.763 71.4219L332.442 70.4748L332.763 71.4219ZM336.887 68.9716L336.198 68.2475L336.887 68.9716ZM339.501 64.9695L339.567 63.9716L338.828 63.9229L338.566 64.6148L339.501 64.9695ZM355.591 66.0312L356.569 66.238L356.808 65.1094L355.657 65.0334L355.591 66.0312ZM350.568 76.1591L349.816 75.4996L349.816 75.5001L350.568 76.1591ZM340.849 82.8565L341.22 83.785L341.223 83.7837L340.849 82.8565ZM327.168 84.2251C320.851 84.2251 315.473 82.9465 310.995 80.4327L310.016 82.1767C314.85 84.8901 320.58 86.2251 327.168 86.2251V84.2251ZM311.001 80.4361C306.544 77.8925 303.111 74.3056 300.694 69.6539L298.919 70.5763C301.511 75.5623 305.212 79.4352 310.01 82.1732L311.001 80.4361ZM300.695 69.6559C298.277 64.9788 297.049 59.4118 297.049 52.9222H295.049C295.049 59.6642 296.326 65.559 298.918 70.5742L300.695 69.6559ZM297.049 52.9222C297.049 46.6006 298.276 41.0996 300.696 36.3907L298.917 35.4765C296.328 40.5143 295.049 46.339 295.049 52.9222H297.049ZM300.696 36.3907C303.118 31.6775 306.516 28.021 310.897 25.3977L309.87 23.6818C305.157 26.5036 301.504 30.443 298.917 35.4765L300.696 36.3907ZM310.895 25.3991C315.291 22.7822 320.472 21.456 326.474 21.456V19.456C320.169 19.456 314.623 20.8523 309.872 23.6805L310.895 25.3991ZM326.474 21.456C330.503 21.456 334.235 22.105 337.68 23.3937L338.381 21.5204C334.693 20.141 330.721 19.456 326.474 19.456V21.456ZM337.689 23.3968C341.15 24.6552 344.156 26.5519 346.72 29.0893L348.127 27.6678C345.354 24.9235 342.099 22.8725 338.372 21.5172L337.689 23.3968ZM346.724 29.0928C349.301 31.6184 351.323 34.8103 352.776 38.6935L354.649 37.9926C353.107 33.8715 350.936 30.4204 348.123 27.6643L346.724 29.0928ZM352.777 38.6956C354.222 42.533 354.959 47.0643 354.959 52.3097H356.959C356.959 46.8827 356.198 42.1028 354.648 37.9905L352.777 38.6956ZM354.959 52.3097V57.0877H356.959V52.3097H354.959ZM355.959 56.0877H302.992V58.0877H355.959V56.0877ZM303.992 57.0877V46.3065H301.992V57.0877H303.992ZM302.992 47.3065H339.583V45.3065H302.992V47.3065ZM340.583 46.3065C340.583 43.6523 340.004 41.2603 338.82 39.159L337.078 40.1407C338.072 41.9054 338.583 43.9511 338.583 46.3065H340.583ZM338.82 39.159C337.642 37.0668 335.999 35.4243 333.907 34.2456L332.925 35.9881C334.699 36.9874 336.078 38.3669 337.078 40.1407L338.82 39.159ZM333.921 34.2539C331.841 33.0354 329.443 32.4425 326.759 32.4425V34.4425C329.14 34.4425 331.179 34.9657 332.911 35.9797L333.921 34.2539ZM326.759 32.4425C323.958 32.4425 321.435 33.0944 319.221 34.4227L320.25 36.1377C322.12 35.0157 324.279 34.4425 326.759 34.4425V32.4425ZM319.224 34.4206C317.059 35.7082 315.355 37.4559 314.126 39.6513L315.871 40.6285C316.928 38.7401 318.382 37.248 320.246 36.1397L319.224 34.4206ZM314.128 39.6463C312.896 41.8184 312.271 44.2325 312.242 46.8672L314.242 46.8892C314.267 44.5688 314.814 42.4907 315.868 40.6335L314.128 39.6463ZM312.242 46.8782V57.1286H314.242V46.8782H312.242ZM312.242 57.1286C312.242 60.3543 312.836 63.1974 314.065 65.6252L315.849 64.7221C314.791 62.6305 314.242 60.1102 314.242 57.1286H312.242ZM314.069 65.6337C315.324 68.0563 317.103 69.9427 319.399 71.2671L320.398 69.5347C318.447 68.4089 316.931 66.8104 315.845 64.7136L314.069 65.6337ZM319.399 71.2671C321.701 72.5951 324.398 73.2386 327.454 73.2386V71.2386C324.683 71.2386 322.344 70.657 320.398 69.5347L319.399 71.2671ZM327.454 73.2386C329.481 73.2386 331.361 72.953 333.084 72.3689L332.442 70.4748C330.952 70.9797 329.293 71.2386 327.454 71.2386V73.2386ZM333.084 72.3689C334.817 71.7813 336.321 70.8922 337.577 69.6957L336.198 68.2475C335.167 69.229 333.921 69.9734 332.442 70.4748L333.084 72.3689ZM337.577 69.6957C338.836 68.4964 339.788 67.0332 340.436 65.3241L338.566 64.6148C338.016 66.0638 337.225 67.2688 336.198 68.2475L337.577 69.6957ZM339.435 65.9673L355.525 67.0291L355.657 65.0334L339.567 63.9716L339.435 65.9673ZM354.613 65.8245C353.83 69.5278 352.232 72.7466 349.816 75.4996L351.32 76.8186C353.968 73.7998 355.718 70.2667 356.569 66.238L354.613 65.8245ZM349.816 75.5001C347.427 78.2268 344.322 80.3741 340.474 81.9294L341.223 83.7837C345.324 82.1263 348.7 79.8088 351.32 76.8181L349.816 75.5001ZM340.477 81.9281C336.67 83.4509 332.24 84.2251 327.168 84.2251V86.2251C332.441 86.2251 337.132 85.4204 341.22 83.785L340.477 81.9281ZM374.499 83.1016L374.087 84.0128L374.094 84.0157L374.499 83.1016ZM367.067 76.8533L366.227 77.3966L366.233 77.4061L367.067 76.8533ZM366.291 57.7003L365.411 57.225L366.291 57.7003ZM371.518 51.983L370.97 51.1462L371.518 51.983ZM379.032 48.7159L378.781 47.748L378.779 47.7486L379.032 48.7159ZM387.935 47.1641L388.031 48.1595L388.039 48.1586L387.935 47.1641ZM396.756 46.1023L396.901 47.0918L396.912 47.0899L396.756 46.1023ZM401.616 44.5504L401.056 43.7218L401.616 44.5504ZM400.676 35.2802L400.015 36.0304L400.021 36.0359L400.676 35.2802ZM386.342 35.2393L386.935 36.045L386.942 36.0393L386.342 35.2393ZM382.667 40.3849L382.586 41.3817L383.4 41.4478L383.627 40.663L382.667 40.3849ZM366.577 39.0781L365.599 38.8686L365.36 39.9826L366.496 40.0748L366.577 39.0781ZM371.395 29.1953L372.153 29.8486L372.156 29.8449L371.395 29.1953ZM380.666 22.7429L381.034 23.6728L381.037 23.6714L380.666 22.7429ZM403.903 21.6811L403.654 22.6498L403.656 22.6503L403.903 21.6811ZM412.438 25.479L411.868 26.3012L411.873 26.3041L412.438 25.479ZM418.359 32.0948L417.478 32.5668L417.48 32.5705L418.359 32.0948ZM420.524 84V85H421.524V84H420.524ZM404.025 84H403.025V85H404.025V84ZM404.025 75.3015H405.025V74.3015H404.025V75.3015ZM403.535 75.3015V74.3015H402.925L402.646 74.8444L403.535 75.3015ZM399.492 80.4879L400.149 81.242L400.156 81.236L399.492 80.4879ZM393.407 83.9592L393.733 84.9046L393.743 84.9011L393.407 83.9592ZM396.96 71.6669L397.417 72.5564L397.427 72.5513L396.96 71.6669ZM401.575 67.5014L400.733 66.962L401.575 67.5014ZM403.249 54.9233H404.249V53.0806L402.704 54.0849L403.249 54.9233ZM401.003 55.9034L401.285 56.8628L401.294 56.8602L401.303 56.8574L401.003 55.9034ZM397.858 56.6793L398.041 57.6625L398.052 57.6604L398.063 57.6581L397.858 56.6793ZM394.346 57.2919L394.485 58.2823L394.496 58.2807L394.507 58.2789L394.346 57.2919ZM391.161 57.7411L391.02 56.7512L391.016 56.7517L391.161 57.7411ZM385.811 59.1705L386.205 60.0896L385.811 59.1705ZM382.258 61.8249L383.049 62.4375L383.056 62.428L382.258 61.8249ZM383.565 71.3402L382.975 72.1478L382.983 72.1531L382.99 72.1582L383.565 71.3402ZM385.199 84.1843C381.313 84.1843 377.888 83.5106 374.905 82.1874L374.094 84.0157C377.372 85.4695 381.08 86.1843 385.199 86.1843V84.1843ZM374.911 82.1904C371.944 80.8488 369.616 78.8869 367.9 76.3005L366.233 77.4061C368.166 80.3193 370.792 82.5229 374.087 84.0127L374.911 82.1904ZM367.906 76.3101C366.237 73.7312 365.371 70.4743 365.371 66.4805H363.371C363.371 70.7632 364.302 74.4215 366.227 77.3966L367.906 76.3101ZM365.371 66.4805C365.371 63.1141 365.99 60.3615 367.17 58.1756L365.411 57.225C364.033 59.7763 363.371 62.8771 363.371 66.4805H365.371ZM367.17 58.1756C368.373 55.9499 370.002 54.1697 372.065 52.8197L370.97 51.1462C368.623 52.6821 366.768 54.7134 365.411 57.225L367.17 58.1756ZM372.065 52.8197C374.172 51.4415 376.576 50.3937 379.286 49.6832L378.779 47.7486C375.88 48.5083 373.275 49.6385 370.97 51.1462L372.065 52.8197ZM379.283 49.6838C382.061 48.9628 384.976 48.4542 388.031 48.1594L387.839 46.1687C384.686 46.4729 381.666 46.9988 378.781 47.748L379.283 49.6838ZM388.039 48.1586C391.693 47.7768 394.649 47.4213 396.901 47.0917L396.611 45.1128C394.398 45.4367 391.473 45.789 387.831 46.1695L388.039 48.1586ZM396.912 47.0899C399.186 46.7295 400.983 46.1848 402.175 45.379L401.056 43.7218C400.234 44.2773 398.791 44.7672 396.599 45.1146L396.912 47.0899ZM402.175 45.379C403.488 44.4921 404.127 43.1565 404.127 41.5284H402.127C402.127 42.5684 401.758 43.2475 401.056 43.7218L402.175 45.379ZM404.127 41.5284V41.2834H402.127V41.5284H404.127ZM404.127 41.2834C404.127 38.4695 403.227 36.1676 401.331 34.5245L400.021 36.0359C401.393 37.2242 402.127 38.9245 402.127 41.2834H404.127ZM401.338 34.53C399.489 32.9004 396.933 32.1566 393.816 32.1566V34.1566C396.634 34.1566 398.651 34.8285 400.015 36.0304L401.338 34.53ZM393.816 32.1566C390.544 32.1566 387.819 32.8821 385.742 34.4393L386.942 36.0393C388.568 34.8196 390.826 34.1566 393.816 34.1566V32.1566ZM385.75 34.4337C383.734 35.9162 382.371 37.8115 381.706 40.1069L383.627 40.663C384.161 38.8201 385.248 37.2851 386.935 36.045L385.75 34.4337ZM382.748 39.3882L366.657 38.0814L366.496 40.0748L382.586 41.3817L382.748 39.3882ZM367.554 39.2877C368.338 35.6295 369.873 32.4905 372.153 29.8485L370.638 28.5421C368.126 31.4541 366.448 34.9036 365.599 38.8686L367.554 39.2877ZM372.156 29.8449C374.435 27.1771 377.385 25.1164 381.034 23.6727L380.298 21.813C376.378 23.3641 373.148 25.605 370.635 28.5457L372.156 29.8449ZM381.037 23.6714C384.708 22.2032 388.988 21.456 393.897 21.456V19.456C388.788 19.456 384.247 20.2334 380.294 21.8144L381.037 23.6714ZM393.897 21.456C397.303 21.456 400.555 21.855 403.654 22.6498L404.151 20.7124C400.88 19.8737 397.461 19.456 393.897 19.456V21.456ZM403.656 22.6503C406.765 23.4406 409.498 24.6603 411.868 26.3012L413.007 24.6569C410.422 22.8674 407.465 21.5551 404.149 20.7119L403.656 22.6503ZM411.873 26.3041C414.244 27.9281 416.11 30.0118 417.478 32.5668L419.241 31.6228C417.723 28.7872 415.641 26.4604 413.003 24.654L411.873 26.3041ZM417.48 32.5705C418.827 35.0626 419.524 38.0903 419.524 41.6918H421.524C421.524 37.8335 420.777 34.4632 419.239 31.6191L417.48 32.5705ZM419.524 41.6918V84H421.524V41.6918H419.524ZM420.524 83H404.025V85H420.524V83ZM405.025 84V75.3015H403.025V84H405.025ZM404.025 74.3015H403.535V76.3015H404.025V74.3015ZM402.646 74.8444C401.696 76.6919 400.426 78.3226 398.828 79.7399L400.156 81.236C401.934 79.6584 403.359 77.8316 404.424 75.7586L402.646 74.8444ZM398.835 79.7338C397.253 81.1123 395.337 82.21 393.072 83.0172L393.743 84.9011C396.215 84.0203 398.356 82.8039 400.149 81.242L398.835 79.7338ZM393.081 83.0138C390.839 83.7869 388.217 84.1843 385.199 84.1843V86.1843C388.388 86.1843 391.238 85.7649 393.733 84.9045L393.081 83.0138ZM390.181 74.1779C392.873 74.1779 395.294 73.6472 397.417 72.5563L396.503 70.7775C394.705 71.7013 392.607 72.1779 390.181 72.1779V74.1779ZM397.427 72.5513C399.529 71.442 401.201 69.9391 402.417 68.0408L400.733 66.962C399.716 68.5486 398.312 69.8227 396.493 70.7825L397.427 72.5513ZM402.417 68.0408C403.643 66.1267 404.249 63.9632 404.249 61.5799H402.249C402.249 63.6071 401.739 65.3913 400.733 66.962L402.417 68.0408ZM404.249 61.5799V54.9233H402.249V61.5799H404.249ZM402.704 54.0849C402.265 54.3703 401.611 54.6642 400.703 54.9494L401.303 56.8574C402.301 56.5436 403.144 56.1841 403.794 55.7617L402.704 54.0849ZM400.721 54.944C399.826 55.2073 398.804 55.4597 397.654 55.7005L398.063 57.6581C399.254 57.4089 400.329 57.144 401.285 56.8628L400.721 54.944ZM397.676 55.6962C396.512 55.9126 395.349 56.1155 394.186 56.3049L394.507 58.2789C395.685 58.0871 396.863 57.8816 398.041 57.6625L397.676 55.6962ZM394.208 56.3015C393.037 56.465 391.974 56.6149 391.02 56.7512L391.302 58.7311C392.254 58.5951 393.315 58.4455 394.485 58.2823L394.208 56.3015ZM391.016 56.7517C388.908 57.0608 387.038 57.5567 385.417 58.2513L386.205 60.0896C387.634 59.4774 389.33 59.0204 391.306 58.7305L391.016 56.7517ZM385.417 58.2513C383.763 58.9604 382.427 59.9432 381.461 61.2218L383.056 62.428C383.777 61.4741 384.811 60.6873 386.205 60.0896L385.417 58.2513ZM381.468 61.2124C380.464 62.5076 379.992 64.0961 379.992 65.9087H381.992C381.992 64.4543 382.365 63.3202 383.049 62.4375L381.468 61.2124ZM379.992 65.9087C379.992 68.5541 380.97 70.6834 382.975 72.1478L384.155 70.5326C382.73 69.4922 381.992 68.0006 381.992 65.9087H379.992ZM382.99 72.1582C384.939 73.5287 387.359 74.1779 390.181 74.1779V72.1779C387.666 72.1779 385.676 71.602 384.14 70.5222L382.99 72.1582ZM467.385 21.2727H468.385V20.2727H467.385V21.2727ZM467.385 34.3409V35.3409H468.385V34.3409H467.385ZM429.61 34.3409H428.61V35.3409H429.61V34.3409ZM429.61 21.2727V20.2727H428.61V21.2727H429.61ZM438.186 6.24432V5.24432H437.186V6.24432H438.186ZM455.583 6.24432H456.583V5.24432H455.583V6.24432ZM456.318 68.4815L455.44 68.9604L455.447 68.9718L456.318 68.4815ZM458.36 70.3192L457.984 71.2458L457.994 71.2497L458.36 70.3192ZM463.914 70.646L464.078 71.6323L464.094 71.6297L464.11 71.6265L463.914 70.646ZM465.793 70.2784L466.771 70.0716L466.569 69.1154L465.608 69.2955L465.793 70.2784ZM468.529 83.2241L468.827 84.1786L469.695 83.9072L469.507 83.0173L468.529 83.2241ZM464.853 84.1634L464.635 83.1876L464.627 83.1894L464.619 83.1913L464.853 84.1634ZM459.095 84.8576L459.059 83.8582L459.056 83.8584L459.095 84.8576ZM448.069 83.1832L447.691 84.1089L447.693 84.1101L448.069 83.1832ZM440.759 77.2209L441.599 76.678L440.759 77.2209ZM438.186 67.0114L439.186 67.018V67.0114H438.186ZM466.385 21.2727V34.3409H468.385V21.2727H466.385ZM467.385 33.3409H429.61V35.3409H467.385V33.3409ZM430.61 34.3409V21.2727H428.61V34.3409H430.61ZM429.61 22.2727H467.385V20.2727H429.61V22.2727ZM438.186 7.24432H455.583V5.24432H438.186V7.24432ZM454.583 6.24432V64.7244H456.583V6.24432H454.583ZM454.583 64.7244C454.583 66.4118 454.837 67.8544 455.44 68.9604L457.196 68.0027C456.819 67.3118 456.583 66.2497 456.583 64.7244H454.583ZM455.447 68.9718C456.04 70.0269 456.889 70.801 457.984 71.2457L458.736 69.3928C458.089 69.1296 457.576 68.6786 457.19 67.9913L455.447 68.9718ZM457.994 71.2497C459.031 71.6582 460.194 71.8501 461.464 71.8501V69.8501C460.393 69.8501 459.486 69.6882 458.727 69.3888L457.994 71.2497ZM461.464 71.8501C462.336 71.8501 463.208 71.7774 464.078 71.6323L463.75 69.6596C462.986 69.7868 462.225 69.8501 461.464 69.8501V71.8501ZM464.11 71.6265C464.926 71.4634 465.547 71.3418 465.977 71.2613L465.608 69.2955C465.167 69.3783 464.536 69.5018 463.718 69.6654L464.11 71.6265ZM464.814 70.4852L467.55 83.4309L469.507 83.0173L466.771 70.0716L464.814 70.4852ZM468.23 82.2696C467.398 82.5297 466.204 82.8358 464.635 83.1876L465.072 85.1391C466.661 84.783 467.917 84.4629 468.827 84.1786L468.23 82.2696ZM464.619 83.1913C463.124 83.5519 461.276 83.7781 459.059 83.8583L459.131 85.8569C461.434 85.7737 463.424 85.5371 465.088 85.1354L464.619 83.1913ZM459.056 83.8584C454.973 84.0174 451.444 83.4719 448.444 82.2564L447.693 84.1101C451.01 85.4537 454.832 86.0245 459.134 85.8568L459.056 83.8584ZM448.447 82.2576C445.495 81.0509 443.224 79.192 441.599 76.678L439.919 77.7638C441.779 80.6404 444.381 82.7563 447.691 84.1089L448.447 82.2576ZM441.599 76.678C439.988 74.1866 439.16 70.9885 439.186 67.018L437.186 67.0047C437.158 71.2563 438.045 74.8645 439.919 77.7638L441.599 76.678ZM439.186 67.0114V6.24432H437.186V67.0114H439.186ZM518.943 57.2919H517.943L517.943 57.3016L518.943 57.2919ZM518.943 21.2727V20.2727H517.943V21.2727H518.943ZM536.34 21.2727H537.34V20.2727H536.34V21.2727ZM536.34 84V85H537.34V84H536.34ZM519.638 84H518.638V85H519.638V84ZM519.638 72.6062H520.638V71.6062H519.638V72.6062ZM518.984 72.6062V71.6062H518.298L518.051 72.2467L518.984 72.6062ZM511.919 81.468L511.358 80.6402L511.355 80.6424L511.919 81.468ZM488.887 81.9581L489.4 81.1L488.887 81.9581ZM481.413 73.8313L480.52 74.2813L480.523 74.2868L481.413 73.8313ZM478.718 61.2124H477.718L477.718 61.2179L478.718 61.2124ZM478.718 21.2727V20.2727H477.718V21.2727H478.718ZM496.115 21.2727H497.115V20.2727H496.115V21.2727ZM496.115 58.1087H495.115L495.115 58.116L496.115 58.1087ZM499.096 66.8888L499.835 66.2152L499.096 66.8888ZM512.859 68.6857L513.322 69.5721L513.332 69.5666L512.859 68.6857ZM517.269 64.3569L516.411 63.8424L516.406 63.8515L517.269 64.3569ZM519.943 57.2919V21.2727H517.943V57.2919H519.943ZM518.943 22.2727H536.34V20.2727H518.943V22.2727ZM535.34 21.2727V84H537.34V21.2727H535.34ZM536.34 83H519.638V85H536.34V83ZM520.638 84V72.6062H518.638V84H520.638ZM519.638 71.6062H518.984V73.6062H519.638V71.6062ZM518.051 72.2467C516.709 75.7296 514.485 78.521 511.358 80.6402L512.48 82.2959C515.942 79.9502 518.427 76.8336 519.917 72.9656L518.051 72.2467ZM511.355 80.6424C508.284 82.7411 504.501 83.8168 499.954 83.8168V85.8168C504.826 85.8168 509.021 84.66 512.483 82.2937L511.355 80.6424ZM499.954 83.8168C495.918 83.8168 492.411 82.9013 489.4 81.1L488.373 82.8162C491.733 84.8264 495.604 85.8168 499.954 85.8168V83.8168ZM489.4 81.1C486.386 79.2966 484.021 76.732 482.303 73.3758L480.523 74.2868C482.4 77.9548 485.017 80.8081 488.373 82.8162L489.4 81.1ZM482.306 73.3813C480.621 70.0369 479.744 65.9901 479.718 61.2068L477.718 61.2179C477.746 66.2357 478.666 70.6016 480.52 74.2813L482.306 73.3813ZM479.718 61.2124V21.2727H477.718V61.2124H479.718ZM478.718 22.2727H496.115V20.2727H478.718V22.2727ZM495.115 21.2727V58.1087H497.115V21.2727H495.115ZM495.115 58.116C495.143 61.9959 496.189 65.1838 498.357 67.5625L499.835 66.2152C498.083 64.2923 497.141 61.6267 497.115 58.1013L495.115 58.116ZM498.357 67.5625C500.533 69.9497 503.443 71.1151 506.978 71.1151V69.1151C503.924 69.1151 501.58 68.1296 499.835 66.2152L498.357 67.5625ZM506.978 71.1151C509.232 71.1151 511.352 70.6011 513.322 69.5721L512.395 67.7994C510.717 68.6762 508.916 69.1151 506.978 69.1151V71.1151ZM513.332 69.5666C515.329 68.4937 516.929 66.9157 518.132 64.8623L516.406 63.8515C515.376 65.6097 514.036 66.9175 512.385 67.8048L513.332 69.5666ZM518.126 64.8714C519.387 62.7708 519.972 60.2231 519.943 57.2822L517.943 57.3016C517.969 59.9691 517.438 62.1314 516.411 63.8424L518.126 64.8714ZM550.256 84H549.256V85H550.256V84ZM550.256 21.2727V20.2727H549.256V21.2727H550.256ZM567.122 21.2727H568.122V20.2727H567.122V21.2727ZM567.122 32.2173H566.122V33.2173H567.122V32.2173ZM567.775 32.2173V33.2173H568.524L568.735 32.4991L567.775 32.2173ZM573.534 23.3963L574.127 24.2012L574.132 24.1973L573.534 23.3963ZM585.663 20.5376L585.77 19.5434V19.5434L585.663 20.5376ZM588.317 20.9869H589.317V20.2061L588.56 20.0167L588.317 20.9869ZM588.317 36.4236L588.03 37.3815L589.317 37.7677V36.4236H588.317ZM574.105 37.1587L574.586 38.0357L574.59 38.0335L574.105 37.1587ZM569.368 41.7326L568.51 41.2198L568.504 41.2287L569.368 41.7326ZM567.653 84V85H568.653V84H567.653ZM551.256 84V21.2727H549.256V84H551.256ZM550.256 22.2727H567.122V20.2727H550.256V22.2727ZM566.122 21.2727V32.2173H568.122V21.2727H566.122ZM567.122 33.2173H567.775V31.2173H567.122V33.2173ZM568.735 32.4991C569.83 28.77 571.642 26.0333 574.127 24.2012L572.94 22.5915C570.034 24.7342 568.008 27.8782 566.816 31.9355L568.735 32.4991ZM574.132 24.1973C576.647 22.3177 579.538 21.3743 582.845 21.3743V19.3743C579.127 19.3743 575.811 20.4455 572.935 22.5953L574.132 24.1973ZM582.845 21.3743C583.675 21.3743 584.578 21.4262 585.555 21.5318L585.77 19.5434C584.733 19.4313 583.757 19.3743 582.845 19.3743V21.3743ZM585.555 21.5318C586.529 21.6372 587.367 21.7802 588.075 21.957L588.56 20.0167C587.742 19.8124 586.811 19.6559 585.77 19.5434L585.555 21.5318ZM587.317 20.9869V36.4236H589.317V20.9869H587.317ZM588.604 35.4658C587.713 35.1984 586.523 34.9723 585.058 34.7788L584.797 36.7616C586.218 36.9494 587.287 37.1588 588.03 37.3815L588.604 35.4658ZM585.058 34.7788C583.581 34.5837 582.216 34.4844 580.966 34.4844V36.4844C582.112 36.4844 583.388 36.5756 584.797 36.7616L585.058 34.7788ZM580.966 34.4844C578.257 34.4844 575.8 35.0768 573.621 36.284L574.59 38.0335C576.44 37.0082 578.557 36.4844 580.966 36.4844V34.4844ZM573.625 36.2818C571.48 37.457 569.771 39.1079 568.51 41.2199L570.227 42.2453C571.307 40.4368 572.756 39.0385 574.586 38.0357L573.625 36.2818ZM568.504 41.2287C567.261 43.3607 566.653 45.7986 566.653 48.5117H568.653C568.653 46.1065 569.189 44.025 570.232 42.2365L568.504 41.2287ZM566.653 48.5117V84H568.653V48.5117H566.653ZM567.653 83H550.256V85H567.653V83ZM606.316 81.3047L605.821 82.1733L605.827 82.1767L606.316 81.3047ZM595.617 70.1151L594.728 70.5742L594.73 70.5763L595.617 70.1151ZM595.617 35.9336L594.727 35.4765L595.617 35.9336ZM606.194 24.5398L605.682 23.6805L605.68 23.6818L606.194 24.5398ZM633.841 22.457L633.491 23.3937L633.5 23.3968L633.841 22.457ZM643.234 28.3786L642.531 29.0893L642.534 29.0928L643.234 28.3786ZM649.523 38.343L648.586 38.6935L648.587 38.6956L649.523 38.343ZM651.769 57.0877V58.0877H652.769V57.0877H651.769ZM598.802 57.0877H597.802V58.0877H598.802V57.0877ZM598.802 46.3065V45.3065H597.802V46.3065H598.802ZM635.393 46.3065V47.3065H636.393V46.3065H635.393ZM633.76 39.6499L632.888 40.1407V40.1407L633.76 39.6499ZM629.227 35.1168L628.721 35.9797L628.728 35.984L628.736 35.9881L629.227 35.1168ZM615.546 35.2802L616.057 36.1397L616.06 36.1377L615.546 35.2802ZM610.809 40.1399L611.678 40.6335L611.681 40.6285L610.809 40.1399ZM609.053 46.8782L608.053 46.8672V46.8782H609.053ZM610.768 65.1736L609.875 65.6252L609.88 65.6337L610.768 65.1736ZM628.573 71.4219L628.252 70.4748L628.573 71.4219ZM632.698 68.9716L632.008 68.2475L632.698 68.9716ZM635.311 64.9695L635.377 63.9716L634.639 63.9229L634.376 64.6148L635.311 64.9695ZM651.402 66.0312L652.38 66.238L652.618 65.1094L651.467 65.0334L651.402 66.0312ZM646.379 76.1591L645.627 75.4996L645.626 75.5001L646.379 76.1591ZM636.659 82.8565L637.03 83.785L637.034 83.7837L636.659 82.8565ZM622.978 84.2251C616.662 84.2251 611.284 82.9465 606.806 80.4327L605.827 82.1767C610.66 84.8901 616.39 86.2251 622.978 86.2251V84.2251ZM606.812 80.4361C602.354 77.8925 598.922 74.3056 596.504 69.6539L594.73 70.5763C597.321 75.5623 601.022 79.4352 605.821 82.1732L606.812 80.4361ZM596.505 69.6559C594.088 64.9788 592.86 59.4118 592.86 52.9222H590.86C590.86 59.6642 592.136 65.559 594.728 70.5742L596.505 69.6559ZM592.86 52.9222C592.86 46.6006 594.086 41.0996 596.506 36.3907L594.727 35.4765C592.138 40.5143 590.86 46.339 590.86 52.9222H592.86ZM596.506 36.3907C598.929 31.6775 602.327 28.021 606.708 25.3977L605.68 23.6818C600.968 26.5036 597.314 30.443 594.727 35.4765L596.506 36.3907ZM606.705 25.3991C611.102 22.7822 616.283 21.456 622.284 21.456V19.456C615.98 19.456 610.434 20.8523 605.682 23.6805L606.705 25.3991ZM622.284 21.456C626.313 21.456 630.046 22.105 633.491 23.3937L634.192 21.5204C630.504 20.141 626.532 19.456 622.284 19.456V21.456ZM633.5 23.3968C636.96 24.6552 639.967 26.5519 642.531 29.0893L643.938 27.6678C641.165 24.9235 637.91 22.8725 634.183 21.5172L633.5 23.3968ZM642.534 29.0928C645.112 31.6184 647.134 34.8103 648.586 38.6935L650.46 37.9926C648.918 33.8715 646.747 30.4204 643.934 27.6643L642.534 29.0928ZM648.587 38.6956C650.033 42.533 650.769 47.0643 650.769 52.3097H652.769C652.769 46.8827 652.008 42.1028 650.459 37.9905L648.587 38.6956ZM650.769 52.3097V57.0877H652.769V52.3097H650.769ZM651.769 56.0877H598.802V58.0877H651.769V56.0877ZM599.802 57.0877V46.3065H597.802V57.0877H599.802ZM598.802 47.3065H635.393V45.3065H598.802V47.3065ZM636.393 46.3065C636.393 43.6523 635.815 41.2603 634.631 39.159L632.888 40.1407C633.883 41.9054 634.393 43.9511 634.393 46.3065H636.393ZM634.631 39.159C633.452 37.0668 631.81 35.4243 629.717 34.2456L628.736 35.9881C630.51 36.9874 631.889 38.3669 632.888 40.1407L634.631 39.159ZM629.732 34.2539C627.652 33.0354 625.253 32.4425 622.57 32.4425V34.4425C624.951 34.4425 626.99 34.9657 628.721 35.9797L629.732 34.2539ZM622.57 32.4425C619.768 32.4425 617.245 33.0944 615.031 34.4227L616.06 36.1377C617.93 35.0157 620.09 34.4425 622.57 34.4425V32.4425ZM615.035 34.4206C612.869 35.7082 611.166 37.4559 609.936 39.6513L611.681 40.6285C612.739 38.7401 614.193 37.248 616.057 36.1397L615.035 34.4206ZM609.939 39.6463C608.706 41.8184 608.082 44.2325 608.053 46.8672L610.052 46.8892C610.078 44.5688 610.624 42.4907 611.678 40.6335L609.939 39.6463ZM608.053 46.8782V57.1286H610.053V46.8782H608.053ZM608.053 57.1286C608.053 60.3543 608.647 63.1974 609.875 65.6252L611.66 64.7221C610.602 62.6305 610.053 60.1102 610.053 57.1286H608.053ZM609.88 65.6337C611.135 68.0563 612.914 69.9427 615.209 71.2671L616.209 69.5347C614.257 68.4089 612.742 66.8104 611.656 64.7136L609.88 65.6337ZM615.209 71.2671C617.511 72.5951 620.209 73.2386 623.264 73.2386V71.2386C620.493 71.2386 618.154 70.657 616.209 69.5347L615.209 71.2671ZM623.264 73.2386C625.291 73.2386 627.171 72.953 628.894 72.3689L628.252 70.4748C626.763 70.9797 625.103 71.2386 623.264 71.2386V73.2386ZM628.894 72.3689C630.628 71.7813 632.131 70.8922 633.387 69.6957L632.008 68.2475C630.978 69.229 629.731 69.9734 628.252 70.4748L628.894 72.3689ZM633.387 69.6957C634.647 68.4964 635.598 67.0332 636.246 65.3241L634.376 64.6148C633.827 66.0638 633.036 67.2688 632.008 68.2475L633.387 69.6957ZM635.246 65.9673L651.336 67.0291L651.467 65.0334L635.377 63.9716L635.246 65.9673ZM650.423 65.8245C649.641 69.5278 648.042 72.7466 645.627 75.4996L647.13 76.8186C649.779 73.7998 651.529 70.2667 652.38 66.238L650.423 65.8245ZM645.626 75.5001C643.237 78.2268 640.133 80.3741 636.284 81.9294L637.034 83.7837C641.135 82.1263 644.51 79.8088 647.131 76.8181L645.626 75.5001ZM636.288 81.9281C632.481 83.4509 628.051 84.2251 622.978 84.2251V86.2251C628.252 86.2251 632.942 85.4204 637.03 83.785L636.288 81.9281ZM715.313 39.1598L715.375 40.1579L716.445 40.092L716.305 39.0289L715.313 39.1598ZM699.386 40.1399L698.406 40.336L698.577 41.1916L699.448 41.138L699.386 40.1399ZM697.63 36.4645L696.851 37.0915L696.859 37.1009L697.63 36.4645ZM694.077 33.81L693.651 34.7144L693.661 34.7192L693.671 34.7238L694.077 33.81ZM682.071 34.5043L682.587 35.3607L682.596 35.3551L682.071 34.5043ZM681.091 42.7944L680.437 43.5512L681.091 42.7944ZM687.257 45.2855L687.047 46.2633L687.06 46.2658L687.257 45.2855ZM698.61 47.5724L698.812 46.5929L698.808 46.5921L698.61 47.5724ZM712.25 53.6165L711.57 54.3497L712.25 53.6165ZM713.108 75.3832L712.32 74.7678L712.316 74.7721L713.108 75.3832ZM703.225 82.6523L703.606 83.577L703.609 83.5758L703.225 82.6523ZM668.962 80.0387L668.382 80.8537L668.388 80.8573L668.962 80.0387ZM660.345 65.8271L660.293 64.8284L659.203 64.8857L659.355 65.9666L660.345 65.8271ZM677.456 64.9286L678.436 64.7285L678.264 63.8848L677.404 63.93L677.456 64.9286ZM681.213 70.7276L680.656 71.558L680.664 71.5632L681.213 70.7276ZM696.201 70.9318L696.735 71.777L696.739 71.775L696.201 70.9318ZM699.06 66.3171L700.06 66.3316L700.06 66.3157L700.06 66.2999L699.06 66.3171ZM697.059 62.4375L696.438 63.2216L696.448 63.2295L697.059 62.4375ZM691.015 60.0689L691.211 59.0883L691.21 59.0882L691.015 60.0689ZM680.152 57.9045L679.956 58.8851L679.956 58.8852L680.152 57.9045ZM666.471 51.5337L665.757 52.2344L665.761 52.2376L666.471 51.5337ZM665.287 29.5629L664.489 28.9593L664.486 28.9641L665.287 29.5629ZM674.557 22.8246L674.19 21.8944L674.188 21.8952L674.557 22.8246ZM707.309 25.479L706.716 26.2842L706.718 26.2859L707.309 25.479ZM715.252 38.1617L699.325 39.1418L699.448 41.138L715.375 40.1579L715.252 38.1617ZM700.367 39.9438C700.062 38.4179 699.403 37.0421 698.402 35.8281L696.859 37.1009C697.654 38.0649 698.166 39.1394 698.406 40.336L700.367 39.9438ZM698.409 35.8375C697.399 34.5828 696.081 33.6062 694.484 32.8962L693.671 34.7238C695.014 35.3207 696.064 36.1137 696.851 37.0915L698.409 35.8375ZM694.504 32.9056C692.897 32.1477 691.016 31.7891 688.891 31.7891V33.7891C690.796 33.7891 692.372 34.111 693.651 34.7144L694.504 32.9056ZM688.891 31.7891C686.054 31.7891 683.589 32.3916 681.546 33.6535L682.596 35.3551C684.256 34.33 686.337 33.7891 688.891 33.7891V31.7891ZM681.555 33.6479C679.457 34.9127 678.294 36.7089 678.294 38.9964H680.294C680.294 37.5268 680.982 36.3283 682.587 35.3606L681.555 33.6479ZM678.294 38.9964C678.294 40.8028 679.034 42.339 680.437 43.5512L681.745 42.0376C680.752 41.1806 680.294 40.1849 680.294 38.9964H678.294ZM680.437 43.5512C681.831 44.7549 684.091 45.6278 687.047 46.2632L687.468 44.3078C684.597 43.6909 682.747 42.903 681.745 42.0376L680.437 43.5512ZM687.06 46.2658L698.413 48.5527L698.808 46.5921L687.455 44.3052L687.06 46.2658ZM698.409 48.552C704.415 49.7854 708.762 51.746 711.57 54.3497L712.93 52.8832C709.749 49.933 705.002 47.8642 698.812 46.5929L698.409 48.552ZM711.57 54.3497C714.338 56.9162 715.743 60.287 715.743 64.5611H717.743C717.743 59.7963 716.152 55.8707 712.93 52.8832L711.57 54.3497ZM715.743 64.5611C715.743 68.4597 714.599 71.848 712.32 74.7678L713.896 75.9985C716.463 72.7109 717.743 68.8845 717.743 64.5611H715.743ZM712.316 74.7721C710.043 77.7175 706.899 80.0426 702.841 81.7289L703.609 83.5758C707.937 81.7772 711.381 79.2562 713.9 75.9942L712.316 74.7721ZM702.844 81.7277C698.822 83.3839 694.15 84.2251 688.809 84.2251V86.2251C694.358 86.2251 699.297 85.3512 703.606 83.577L702.844 81.7277ZM688.809 84.2251C680.635 84.2251 674.243 82.5225 669.536 79.2201L668.388 80.8573C673.537 84.4702 680.376 86.2251 688.809 86.2251V84.2251ZM669.542 79.2238C664.866 75.8991 662.141 71.4069 661.335 65.6875L659.355 65.9666C660.237 72.2263 663.257 77.2086 668.383 80.8537L669.542 79.2238ZM660.398 66.8257L677.509 65.9272L677.404 63.93L660.293 64.8284L660.398 66.8257ZM676.477 65.1288C677.042 67.8955 678.432 70.0651 680.656 71.5579L681.771 69.8973C680.02 68.7221 678.905 67.0256 678.436 64.7285L676.477 65.1288ZM680.664 71.5632C682.858 73.0055 685.61 73.6879 688.85 73.6879V71.6879C685.883 71.6879 683.544 71.0634 681.763 69.8921L680.664 71.5632ZM688.85 73.6879C692.017 73.6879 694.673 73.0811 696.735 71.777L695.667 70.0866C694.026 71.1239 691.781 71.6879 688.85 71.6879V73.6879ZM696.739 71.775C698.84 70.435 700.026 68.6129 700.06 66.3316L698.06 66.3026C698.038 67.7784 697.319 69.0328 695.663 70.0887L696.739 71.775ZM700.06 66.2999C700.027 64.4014 699.204 62.8288 697.669 61.6455L696.448 63.2295C697.527 64.0608 698.038 65.0747 698.06 66.3344L700.06 66.2999ZM697.679 61.6535C696.192 60.476 693.998 59.6457 691.211 59.0883L690.818 61.0495C693.477 61.5811 695.312 62.3298 696.438 63.2215L697.679 61.6535ZM691.21 59.0882L680.347 56.9238L679.956 58.8852L690.819 61.0496L691.21 59.0882ZM680.348 56.9239C674.331 55.7205 669.985 53.6587 667.181 50.8298L665.761 52.2376C668.947 55.4528 673.721 57.6382 679.956 58.8851L680.348 56.9239ZM667.184 50.8331C664.421 48.0186 663.02 44.4275 663.02 39.9766H661.02C661.02 44.8911 662.586 49.0048 665.757 52.2344L667.184 50.8331ZM663.02 39.9766C663.02 36.1386 664.053 32.8832 666.087 30.1617L664.486 28.9641C662.164 32.0687 661.02 35.7558 661.02 39.9766H663.02ZM666.084 30.1664C668.161 27.4222 671.092 25.2772 674.926 23.7539L674.188 21.8952C670.072 23.5301 666.822 25.8772 664.489 28.9593L666.084 30.1664ZM674.924 23.7548C678.784 22.2317 683.337 21.456 688.605 21.456V19.456C683.146 19.456 678.334 20.2594 674.19 21.8944L674.924 23.7548ZM688.605 21.456C696.398 21.456 702.398 23.104 706.716 26.2842L707.902 24.6739C703.127 21.1566 696.657 19.456 688.605 19.456V21.456ZM706.718 26.2859C711.065 29.4686 713.594 33.7813 714.322 39.2907L716.305 39.0289C715.508 32.9948 712.7 28.187 707.9 24.6722L706.718 26.2859Z" fill="url(#paint0_linear_0_8)"/>
<defs>
<linearGradient id="paint0_linear_0_8" x1="-139.533" y1="60" x2="96.5141" y2="-335.192" gradientUnits="userSpaceOnUse">
<stop offset="0.6896" stop-color="#F42D32"/>
<stop offset="1" stop-color="#FCCB4C"/>
</linearGradient>
</defs>
</svg>
