<svg width="241" height="29" viewBox="0 0 241 29" fill="none" xmlns="http://www.w3.org/2000/svg">
<path d="M107.23 6.43593L108.452 6.60825C107.084 7.23494 106.031 7.16913 107.198 7.46943C107.219 6.95648 108.362 6.78886 109.506 6.68915C110.658 6.5744 111.801 6.46715 111.83 5.94669L112.636 6.10176C112.414 6.10816 112.378 6.16834 112.157 6.17473C113.732 6.55259 113.207 5.35022 115.191 5.35295C115.882 5.37916 116.377 5.4949 115.925 5.651L117.424 5.28152C117.866 5.26872 117.777 5.45688 117.334 5.46968L119.656 5.21763L119.638 5.24772C119.958 5.06829 120.695 4.7854 121.05 4.66652C121.652 4.78281 120.757 4.78572 120.925 4.90731L122.202 4.59703C122.75 4.83376 121.694 5.14519 120.799 5.1481C122.088 6.11298 121.855 4.83668 124.492 5.31058L123.287 5.5005C124.117 6.04049 125.048 5.78879 126.446 6.08274C126.11 5.90746 123.633 5.29858 125.017 4.98131C125.415 5.03619 125.938 5.05399 126.683 4.80886C126.717 5.17119 127.444 5.04669 128.365 4.98356L128.327 5.46624C129.311 5.28272 129.224 5.04082 129.801 4.79483C130.917 4.78552 131.163 5.17159 131.437 5.4748C133.217 5.5142 130.182 4.90243 132.282 4.76995C133.769 4.92855 134.807 4.70757 136.571 4.38473C137.616 4.53349 136.401 4.68565 136.773 4.81584L137.687 4.41314C137.909 4.41429 137.846 4.53469 137.81 4.59486C138.582 4.43287 137.866 4.11227 139.08 3.96011C139.402 3.44118 141.601 4.65222 143.101 4.08657C143.473 4.2243 142.923 4.3799 143.037 4.56911C145.112 4.19506 144.81 4.29913 146.522 3.78739L147.973 4.11934C146.912 3.74414 148.279 3.3287 149.485 2.98788C149.105 2.81237 148.787 2.65228 148.566 2.57569L150.49 2.33666C150.719 2.42085 150.524 2.57828 150.204 2.78034C150.337 2.7433 150.461 2.70622 150.559 2.669C151.24 2.85361 150.875 3.13088 150.378 3.39238L149.697 3.08706C149.217 3.37883 148.773 3.69342 148.869 3.98062C148.993 3.92845 149.232 3.88442 149.498 3.85562C149.374 3.93042 149.294 4.00546 149.347 4.051C149.409 4.10414 149.613 3.99956 149.923 3.88045L150.346 4.42588L150.453 4.21518L152.932 4.57508C154.724 4.06375 156.313 3.36276 159.157 3.24922C158.429 3.61515 158.968 3.88956 158.912 4.34952C158.162 3.82503 156.715 4.4664 155.254 4.30794C156.015 4.39488 155.837 4.60521 155.642 4.67965L158.275 4.33867C158.193 4.7155 158.813 4.6508 159.486 4.83537C159.011 4.05578 161.463 4.41554 162.536 4.22493C162.588 4.48173 162.312 4.72928 161.019 4.61696C162.407 5.24283 162.928 3.80444 164.298 4.34723C163.979 4.34558 163.811 4.29189 163.678 4.41946C164.432 4.21965 166.229 4.48549 165.785 4.6869L165.466 4.67016C167.555 4.91488 171.841 5.14833 172.226 4.53163C172.234 4.61467 171.867 5.28427 171.734 5.4043L175.721 3.53116C175.328 4.05728 176.437 5.45884 174.665 5.63828C175.151 5.75398 175.762 5.89295 176.834 5.77778C176.507 5.678 176.077 4.92128 176.555 4.90867C177.756 5.61657 177.404 5.29031 178.906 5.98468C178.411 5.80858 179.088 5.01232 179.894 5.12967C179.752 5.24211 179.845 5.982 179.544 6.0408L181.655 5.41795C181.132 5.51333 181.466 6.11865 181.88 6.40751C181.695 6.21793 183.607 6.61262 184.147 6.58524L183.334 6.29432C185.573 6.66807 185.739 5.35611 187.988 5.63937C187.686 5.78116 187.141 6.63847 188.265 6.86309C188.558 6.67599 189.225 6.21919 190.078 5.80109C190.921 5.39803 191.951 5.04875 192.978 5.02389L193.313 5.32742L194.89 5.26768C193.816 5.78272 190.923 6.7335 189.389 7.08771C190.202 7.37864 189.573 7.39047 190.83 7.54788C191.227 7.84419 190.085 7.793 189.713 7.7609L192.598 8.32662C192.556 7.8058 194.92 8.15002 194.896 7.71228L191.626 7.77081C191.585 7.24999 193.723 6.61219 195.785 7.00766C196.271 7.2818 195.214 7.8422 195.231 8.01582C195.532 7.88157 197.259 7.97351 197.427 8.12528L196.496 8.26381C197.61 8.61665 198.518 7.87439 199.799 8.55253C200.268 8.65304 201.088 9.40424 201.231 9.11828C200.579 8.43585 200.801 6.65638 201.423 6.30499C201.502 6.33558 202.103 6.57259 202.749 6.83246C203.385 7.11492 204.065 7.45042 204.304 7.63274C204.983 8.22476 202.882 8.47796 203.464 8.98648C203.527 8.85854 203.997 8.77044 204.183 8.74877C204.651 8.95491 203.88 9.13199 204.977 9.26594C205.281 8.79218 207.172 9.71491 205.59 8.93713C206.688 8.98809 206.696 9.24466 207.944 9.45484C207.627 9.05331 209.339 8.55666 210.446 8.60767C210.348 8.72033 210.551 8.93264 210.648 9.03123C212.816 9.48761 213.93 9.89326 215.956 10.3187C216.106 10.4779 217.034 10.8449 216.564 10.9707C216.874 10.9497 217.194 10.8382 217.813 10.9621C218.89 11.6618 216.415 10.721 217.173 11.4417C217.334 11.1709 218.892 11.3978 219.822 11.4177C219.683 10.9114 217.805 10.8715 216.875 10.8592C217.046 10.2414 218.775 9.94099 220.971 10.1259C222.697 10.3461 221.579 10.6874 221.898 10.6664C225.012 11.4823 224.922 10.1916 227.406 11.2231C228.315 11.8464 227.198 12.0067 227.329 12.3469C225.921 12.1887 225.313 11.6272 224.384 11.4413L225.462 11.8845C224.984 11.9197 224.045 11.8093 223.586 11.5881C224.336 12.1352 228.886 12.8076 231.148 13.8304C231.618 13.8102 232.397 13.8746 232.106 13.6241L231.327 13.4767C230.736 12.9756 232.904 13.4245 231.994 13.0199C233.092 13.0708 234.359 13.0321 235.729 13.59L235.833 14.1036C235.851 13.9679 234.994 13.5937 234.542 13.614C235.215 13.5798 236.52 14.7938 237.39 14.3984L236.498 13.8279C237.606 13.8789 239.05 13.7506 240.27 14.2322C239.857 13.6416 239.96 14.2004 239.247 13.4573C239.791 14.2976 235.991 12.5577 237.005 13.5589C236.292 12.7177 235.494 12.8796 234.453 12.0518C234.434 12.2101 234.787 12.4458 233.735 12.0858C233.673 12.1156 233.54 12.1376 233.451 12.1522L233.38 12.1217L233.433 12.1521C233.38 12.1594 233.371 12.1669 233.451 12.1673C233.681 12.2968 233.866 12.4335 233.919 12.5319C233.271 12.7247 231.572 12.2632 230.935 12.2825C230.325 12.0455 231.254 12.1861 230.963 11.9356L230.015 11.9684C230.043 11.6215 228.514 10.9798 230.072 11.184C229.621 11.061 229.179 10.9304 228.728 10.8149C227.985 10.4489 226.897 10.1339 226.171 10.1151C225.552 9.90063 224.426 10.1061 225.073 9.98114L222.869 9.70566L222.869 9.62266C220.773 9.10629 218.372 9.19194 216.119 8.05607C215.384 7.99191 214.604 7.96524 213.428 7.6498L213.27 7.32455C212.322 7.25174 210.563 6.52586 210.093 6.75731C209.292 5.8025 205.642 5.76851 204.05 5.3302L203.906 5.69162C202.791 5.45195 201.684 5.43867 200.249 5.37843L200.265 5.72558C199.007 5.82469 197.221 5.03831 195.3 4.79447C195.452 4.68208 195.929 4.79018 196.257 4.9126C194.118 3.84523 191.359 4.72879 189.378 3.95649C188.838 4.0216 188.475 3.93673 188.121 3.81418C188.166 3.8144 188.21 3.81463 188.254 3.81486C188.201 3.80704 188.121 3.79909 188.042 3.79113C187.821 3.70699 187.6 3.6153 187.352 3.53103C187.555 3.63771 187.75 3.72926 187.927 3.77544C187.528 3.73565 186.917 3.7174 186.306 3.73687L186.113 3.35108L185.971 3.35034C185.405 3.15124 185.474 3.46849 185.747 3.7717C185.437 3.80028 185.154 3.83653 184.932 3.90329C184.545 3.26751 183.346 3.9328 182.792 3.23579C182.347 3.49757 179.771 3.13716 179.378 3.74627C179.37 3.66323 179.202 3.602 179.521 3.63383C178.866 3.49463 178.22 3.33284 177.608 3.47303L177.38 2.98897L175.863 3.50171C175.014 3.1578 174.67 2.96739 175.584 2.67787C173.411 3.0665 173.847 2.75187 171.993 3.16479L172.11 2.87114C171.464 2.83761 170.408 3.15658 170.046 2.88309C169.357 2.54754 167.586 2.38747 165.523 2.23343C163.459 2.1322 161.121 2.02956 159.289 1.68809C159.958 2.59695 157.591 1.2266 157.41 1.89717C157.208 1.67731 156.695 1.53885 157.307 1.38357C155.41 1.51711 154.483 0.923797 153.16 1.47528C152.949 1.26292 153.578 1.17564 153.384 1.04637C153.233 1.09086 152.781 1.22433 152.587 1.09506C152.401 0.965831 152.871 0.922994 153.173 0.834016C151.241 0.846651 151.025 1.48686 150.872 2.08966C149.899 1.79791 149.411 1.83311 148.701 2.21423C148.365 2.01632 147.799 1.80213 148.996 1.74042C148.322 1.70675 144.878 1.40975 144.814 1.8923C144.602 1.77048 143.875 1.84971 143.697 1.90161C142.192 1.85609 142.05 1.80254 140.57 1.88542L140.986 1.95548C140.408 2.54853 139.754 2.10754 138.567 2.19948L138.603 2.1393C135.849 1.77043 137.423 2.35954 134.706 1.93804L134.864 2.29347C134.638 3.07698 132.456 1.88112 130.895 2.21257L131.47 2.41171C130.627 2.67897 129.03 1.44086 128.154 1.38351C127.959 1.32214 128.446 1.26431 128.704 1.19773C126.42 0.846386 128.435 1.68677 126.769 1.87431C126.443 1.63118 127.127 1.20466 125.993 1.21388C125.409 1.03732 122.772 2.20068 121.189 1.78505C121.542 1.96796 121.896 2.14333 121.133 2.328C119.945 2.43503 117.84 1.76772 116.818 2.47165C116.659 2.42556 116.597 2.37997 116.588 2.33465C115.692 2.56391 113.654 2.82497 113.138 3.19955C112.161 2.02501 107.552 4.21183 107.434 3.1021L104.65 3.44231L104.704 3.31432C102.905 3.41818 102.31 3.75462 101.724 4.09111C101.299 4.05118 101.583 3.91684 101.61 3.85662C98.9697 3.90331 98.7038 3.93212 96.6265 4.78149L96.336 4.44046C95.7852 4.73186 92.4743 4.32992 90.0077 5.07919C90.0257 5.03402 90.0615 4.95875 90.2568 4.87677C87.4714 5.63193 83.1969 4.83267 82.4274 6.3075L80.6171 6.91681C83.0723 6.65791 80.3836 7.54938 81.4285 7.6227C80.4883 7.84418 78.8686 7.58681 80.0303 7.34384L80.225 7.38257C80.5036 6.61443 77.15 7.58545 77.1082 7.11745C74.7231 7.5427 72.3473 7.86238 70.0071 8.16715C67.667 8.46438 65.3796 8.83733 63.1452 9.24073L63.8073 9.68177L62.2468 9.95285C61.8041 9.90529 61.584 9.64008 62.7012 9.44969C62.0378 9.25763 60.9174 10.0667 60.9168 10.1874C58.6923 10.3871 61.5853 9.39864 60.9203 9.51592L60.0245 9.73009L60.2458 9.75387C59.5707 10.1125 59.5782 10.3691 58.2481 10.6263C57.3796 10.6972 57.7267 10.3897 57.3898 10.4408C57.3812 10.403 57.266 10.4099 56.8755 10.5362L54.9159 10.9108L55.8181 11.1645C55.0188 11.5602 53.9825 11.5322 55.0264 11.8168C54.2568 11.594 52.4216 11.8939 50.6832 12.2998C48.9449 12.7058 47.286 13.1574 46.852 13.1401C45.7594 13.7305 44.5622 13.9884 43.0988 14.3203C43.4886 14.3223 43.8674 14.7317 42.5904 14.9892C42.7112 13.9033 40.1447 15.1501 38.8802 14.7135C39.9508 14.9454 35.3492 15.7364 37.0042 16.0317C35.9314 16.2223 36.8111 15.6836 35.9342 15.6715C33.5989 16.7383 30.356 16.88 27.3565 17.9208C27.3558 18.0566 27.949 18.1049 27.3713 18.4792L25.5119 18.3186C24.9348 18.5571 25.2504 19.2 23.9754 19.0878C24.1699 19.1492 24.4706 19.2413 24.0801 19.3977C17.8553 20.5802 12.2143 23.6595 5.75127 24.6673C6.6728 24.6192 6.14903 24.8353 5.53665 25.0585C5.96231 24.9702 5.67681 25.361 5.84442 25.4977L3.14025 25.9515C2.92445 26.5691 0.521651 26.9867 0.501122 27.5298L1.23834 27.1488C0.489529 28.0579 3.29047 27.7329 3.48164 28.4506C4.32848 27.4289 6.94668 28.1819 8.41613 26.6729C8.90341 26.6604 8.16634 27.0112 8.46713 27.0882C8.80609 26.6372 9.35674 26.3609 10.5007 26.1179L10.4116 26.2306C13.4203 25.122 14.8562 24.9634 18.3866 24.0461L17.9804 23.795C18.7432 23.6028 18.9378 23.6566 19.3278 23.6285C19.9519 22.847 17.2339 24.2665 17.7607 23.4619C19.0345 23.8005 23.0132 21.8443 24.0113 22.4078C25.1559 22.0591 23.5168 22.1185 24.6613 21.7774L25.0504 21.9001L25.2294 21.5464C26.001 21.3693 26.4963 21.5228 26.5928 21.6968C26.3978 21.726 26.0957 21.898 25.9004 21.9724C26.9813 21.9403 28.6245 21.0887 28.9967 21.068L27.8353 21.2581C30.8884 20.1271 34.8697 19.3781 37.7641 18.118L37.4723 18.0184C39.7181 17.1246 39.4227 17.7192 41.9514 16.925L41.8714 16.9849C42.3336 16.693 42.9904 16.4324 43.7088 16.2776C43.1223 16.6292 45.0638 16.3375 44.2732 16.7634C46.723 15.8255 45.4542 16.2112 46.9476 15.2079L47.4251 15.3839C47.9231 15.0017 47.9327 14.866 49.2103 14.4878C48.2156 14.9731 50.1747 14.704 49.0732 15.2944C51.9791 15.234 52.9346 13.7526 54.4551 14.364C55.488 13.3433 51.9565 14.4567 52.6137 14.1432C51.9499 14.0266 53.477 13.363 54.3634 13.2545C55.2501 13.0855 56.1406 13.8974 58.3312 13.4108C58.1095 13.4549 58.1092 13.5153 57.8963 13.5595C58.7733 13.5715 59.432 12.9563 60.5299 13.0525C60.9669 12.4813 61.851 12.8254 61.8542 12.2068C61.1889 12.3844 60.5236 12.5545 59.8671 12.7473C60.9676 12.3455 61.8668 11.475 63.8513 11.4324C63.7354 11.5752 63.2114 11.8441 62.8474 12.0007C63.4494 12.0641 63.8855 11.6816 64.5053 11.7452C64.5021 12.3563 62.0749 12.3513 60.9641 13.0321C61.6278 13.1638 63.1743 12.1608 62.7364 12.913C63.4058 11.9356 64.9438 12.5925 66.2683 11.6939L66.2664 12.0636C66.4884 11.9591 66.9327 11.7049 67.3671 11.6242L66.6996 12.2319C67.8101 11.6189 69.1186 12.101 70.228 11.6993C67.7896 12.147 69.5742 11.3715 68.4761 11.313C71.3692 10.2943 70.4395 11.9192 73.7653 11.1669C73.3217 11.2928 72.0021 11.2483 72.6768 10.9651C73.3414 10.9232 74.2184 10.9127 74.6518 11.0357C76.8688 10.5794 74.2193 10.7316 75.1249 10.3515C75.9826 10.6502 76.1809 9.98728 77.1303 9.68285L77.2171 10.0379C79.8225 9.8326 77.7265 9.17288 80.0921 9.09459L79.2295 9.73899L80.4004 9.42817L80.2386 9.87248C81.4814 9.37341 81.9065 9.3907 83.2091 9.31445C82.8558 9.1089 83.2392 8.63556 84.374 8.46035C85.1885 8.55511 84.0087 8.86589 85.6047 8.57235C85.2844 8.84986 84.946 9.19518 84.1765 8.96484C84.1315 9.09287 83.865 9.24239 83.8112 9.37038C84.6964 9.48814 85.9119 9.11718 86.4971 9.02213C86.2667 9.04357 86.0008 9.06483 85.8504 9.03387L88.0871 8.18533C88.4853 8.27038 88.2099 8.41231 87.9434 8.56937C88.4046 8.45859 88.7068 8.26398 89.3984 8.1393C89.2727 8.45554 89.3686 8.75029 88.4106 9.0094L90.5751 8.40947C90.7518 8.51601 91.7788 8.61187 91.5123 8.76139C92.779 8.77549 94.4405 7.8108 96.1235 7.8346C96.2036 7.76711 96.3634 7.69249 96.7005 7.60369C98.2515 7.46083 99.6764 7.7021 101.442 7.11519L102.556 7.53593C103.975 7.27166 101.053 7.01509 103.412 6.5746C105.079 6.23617 104.109 6.96301 104.72 7.04917C105.519 6.69869 106.922 6.01182 108.524 6.28419C108.019 6.43247 107.611 6.40018 107.133 6.48824L107.23 6.43593ZM124.972 4.98108C124.635 5.07742 123.961 5.34555 123.696 5.14046C124.061 4.70475 124.379 4.88747 124.972 4.98108ZM152.095 3.72571C151.837 3.84509 151.439 3.78267 150.988 3.63698C151.316 3.6085 151.688 3.62551 152.095 3.72571ZM227.62 10.779C227.62 10.779 227.594 10.7789 227.576 10.7863C226.869 10.4809 227.116 10.5953 227.62 10.779ZM229.133 11.2999C229.301 11.2932 229.31 11.2405 229.257 11.1723C229.115 11.2319 228.77 11.1396 228.381 11.0319C228.46 11.1531 228.646 11.2521 229.133 11.2999ZM57.2739 10.5911L57.6015 10.6154C56.9447 10.861 57.1048 10.7335 57.2739 10.5911Z" fill="url(#paint0_linear_0_266)"/>
<defs>
<linearGradient id="paint0_linear_0_266" x1="-43.1401" y1="28.2092" x2="156.135" y2="-109.547" gradientUnits="userSpaceOnUse">
<stop offset="0.6896" stop-color="#F42D32"/>
<stop offset="1" stop-color="#FCCB4C"/>
</linearGradient>
</defs>
</svg>
