<?xml version="1.0" encoding="utf-8"?>
<!-- Generator: Adobe Illustrator 26.3.1, SVG Export Plug-In . SVG Version: 6.00 Build 0)  -->
<svg version="1.1" id="Layer_1" xmlns="http://www.w3.org/2000/svg" xmlns:xlink="http://www.w3.org/1999/xlink" x="0px" y="0px"
	 viewBox="0 0 100 50" style="enable-background:new 0 0 100 50;" xml:space="preserve">
<style type="text/css">
	.st0{fill:none;stroke:url(#SVGID_1_);stroke-width:9.5331;stroke-linecap:round;stroke-miterlimit:10;}
	.st1{fill:url(#SVGID_00000097487699467290462920000004253604683317638796_);}
	.st2{fill:#E84040;}
	.st3{fill:url(#SVGID_00000134965857391962264010000003863331881494429109_);}
	
		.st4{fill:none;stroke:url(#SVGID_00000102534761059946025370000013479217525501239451_);stroke-width:7.1047;stroke-miterlimit:10;}
	
		.st5{fill:none;stroke:url(#SVGID_00000081632660622724623090000009220541316026291891_);stroke-width:10.2393;stroke-linecap:round;stroke-miterlimit:10;}
	.st6{fill:url(#SVGID_00000014602874621485730250000013189385804660958392_);}
	.st7{fill:url(#SVGID_00000127024808941653885770000013401445573212541589_);}
	.st8{fill:url(#SVGID_00000025426176824626901750000009613212963683012497_);}
	.st9{fill:url(#SVGID_00000119825697835480981090000017548816990343675016_);}
	.st10{fill:url(#SVGID_00000106843178809542259400000014974916100432571028_);}
	.st11{fill:url(#SVGID_00000000906677189937370450000013410673605241126812_);}
	.st12{fill:url(#SVGID_00000156568879717361043310000005472027280376050348_);}
	.st13{fill:url(#SVGID_00000102523744112511109400000018262642306603298717_);}
	.st14{fill:url(#SVGID_00000050651536963790285980000005411157126512862881_);}
	.st15{fill:url(#SVGID_00000001655382356396633580000006533292125603066037_);}
	.st16{fill:url(#SVGID_00000029011354756440907890000003905354075995127998_);}
	.st17{fill:url(#SVGID_00000078043707240591923980000013485138999280081826_);}
	.st18{fill:url(#SVGID_00000018951896643863431780000008572437544303644335_);}
	
		.st19{fill:none;stroke:url(#SVGID_00000145034749763047793770000009905629614052734105_);stroke-width:9.5331;stroke-miterlimit:10;}
	
		.st20{fill:none;stroke:url(#SVGID_00000178911547652085849300000011378746887449868423_);stroke-width:9.5331;stroke-miterlimit:10;}
	.st21{fill:url(#SVGID_00000026160920453485484890000012231235073910826908_);}
	
		.st22{fill:none;stroke:url(#SVGID_00000134211859228048512120000012324933994586416308_);stroke-width:2.0106;stroke-linecap:round;stroke-miterlimit:10;}
	.st23{fill:url(#SVGID_00000157998917518213293280000011501426344854922121_);}
	.st24{fill:url(#SVGID_00000165955466694727069600000005247116660338977206_);}
	
		.st25{fill:none;stroke:url(#SVGID_00000117648436423533430410000010879371121085465742_);stroke-width:1.4985;stroke-miterlimit:10;}
	
		.st26{fill:none;stroke:url(#SVGID_00000008833652530741904820000014991053852515253632_);stroke-width:2.1596;stroke-linecap:round;stroke-miterlimit:10;}
	.st27{fill:url(#SVGID_00000049208952281777712460000001630077195066506635_);}
	.st28{fill:url(#SVGID_00000040549736589334099520000010513978428900179354_);}
	.st29{fill:url(#SVGID_00000109751947696504046080000018408291484750622346_);}
	.st30{fill:url(#SVGID_00000179629844558466680930000014329653659911624117_);}
	.st31{fill:url(#SVGID_00000008124165137573690540000017867905165847403144_);}
	.st32{fill:url(#SVGID_00000079483985208282441320000015410517186724443021_);}
	.st33{fill:url(#SVGID_00000088846649797305974860000001058846759685277616_);}
	.st34{fill:url(#SVGID_00000026873115171396231280000001278370811758728082_);}
	.st35{fill:url(#SVGID_00000168833363674128844090000008957442039566450080_);}
	.st36{fill:url(#SVGID_00000147199272752910750190000002213725647139337896_);}
	.st37{fill:url(#SVGID_00000086663927613622171400000000652387558597461635_);}
	.st38{fill:url(#SVGID_00000044176036885356342400000000332940307255436721_);}
	.st39{fill:url(#SVGID_00000148656115057956313970000002679302694674632117_);}
	
		.st40{fill:none;stroke:url(#SVGID_00000158715677139044077150000001308210657538175616_);stroke-width:2.0106;stroke-miterlimit:10;}
	
		.st41{fill:none;stroke:url(#SVGID_00000118357336839354278190000008358357783139832192_);stroke-width:2.0106;stroke-miterlimit:10;}
	.st42{fill:url(#SVGID_00000175282456539559833540000016736279683239061171_);}
</style>
<linearGradient id="SVGID_1_" gradientUnits="userSpaceOnUse" x1="6514.0488" y1="7969.437" x2="6617.6318" y2="7969.437" gradientTransform="matrix(-0.9994 3.378905e-02 -3.378905e-02 -0.9994 7203.854 8282.8145)">
	<stop  offset="0.2432" style="stop-color:#E84040"/>
	<stop  offset="1" style="stop-color:#F9B233"/>
</linearGradient>
<path class="st0" d="M328.2,502.2c9.3-9.3,21.9-15.2,36-15.7c29.5-1,54.3,22.1,55.3,51.7c1,29.5-22.1,54.3-51.7,55.3
	c-16.2,0.5-31-6.2-41.1-17.2"/>
<path d="M385.9,534.7c-0.1-0.3-0.1-0.6-0.2-0.8c0,0.1,0.2,0.5,0.2,1C385.9,534.8,385.9,534.7,385.9,534.7z"/>
<path d="M385,534.2c0.2,0.2,0.3,0.2,0.4,0.3c-0.1,0.1-0.3,0.3-0.4,0.4c-0.1-0.1-0.2-0.2-0.2-0.3C384.8,534.5,384.9,534.4,385,534.2z
	"/>
<linearGradient id="SVGID_00000163759253509793646920000009200027829422013345_" gradientUnits="userSpaceOnUse" x1="345.9511" y1="532.3574" x2="353.1206" y2="532.3574">
	<stop  offset="0.2432" style="stop-color:#E84040"/>
	<stop  offset="1" style="stop-color:#F9B233"/>
</linearGradient>
<path style="fill:url(#SVGID_00000163759253509793646920000009200027829422013345_);" d="M353.1,532.3c0,2-1.6,3.6-3.6,3.6
	c-1.9,0-3.6-1.5-3.6-3.6c0-2,1.6-3.6,3.6-3.6C351.5,528.8,353.1,530.4,353.1,532.3z"/>
<path class="st2" d="M385.9,533.2C385.9,533.2,385.9,533.2,385.9,533.2c-0.1,0.2-0.1,0.5-0.2,0.7c-0.8,1.7-1.6,3.4-2.4,5.1
	c-0.7,1.4-1.3,2.8-2,4.2c-0.7,1.5-1.4,3.1-2.2,4.6c-0.6,1.3-1.2,2.6-1.8,3.9c-0.5,1.2-1.1,2.3-1.6,3.5c-0.5,0.9-1.2,1.5-2.3,1.7
	c-1.4,0.2-2.7-0.2-3.7-1.3c-0.4-0.4-0.6-0.9-0.8-1.4c-0.6-1.2-1.1-2.4-1.7-3.6c-0.4-0.9-0.9-1.8-1.3-2.8c-0.2,0.5-0.4,0.9-0.6,1.3
	c-0.6,1.2-1.1,2.4-1.7,3.6c-0.4,0.8-0.7,1.6-1.1,2.3c-0.6,1.1-1.6,1.7-2.9,1.8c-1.4,0.1-2.5-0.4-3.3-1.6c-0.4-0.6-0.6-1.3-0.9-1.9
	c-0.7-1.4-1.4-2.8-2-4.3c-0.4-0.8-0.8-1.7-1.2-2.5c-0.7-1.4-1.3-2.7-2-4.1c-0.5-1.1-0.3-2.1,0.4-3.1c1-1.4,2.9-2.1,4.5-1.5
	c0.9,0.3,1.6,1,1.9,1.9c0.2,0.5,0.5,1,0.7,1.5c0.5,1.1,1,2.1,1.5,3.2c0,0.1,0.1,0.1,0.1,0.2c0.4-0.8,0.7-1.6,1.1-2.3
	c0.8-1.7,1.6-3.4,2.4-5.1c0.5-1.1,2-1.8,3.3-1.7c1.5,0.1,2.5,0.9,3.1,2.3c0.7,1.6,1.5,3.1,2.2,4.7c0.3,0.7,0.6,1.3,0.9,2
	c0,0.1,0.1,0.1,0.1,0.2c0.2-0.4,0.4-0.7,0.5-1.1c0.5-1.2,1.1-2.3,1.6-3.5c0.6-1.3,1.2-2.6,1.8-3.9c0.6-1.3,1.2-2.6,1.8-3.9
	c0.3-0.6,0.6-1.3,0.9-1.9c0.5-0.9,1.4-1.4,2.5-1.4c1.6-0.1,2.9,0.5,3.7,1.9c0.1,0.2,0.2,0.4,0.3,0.6c0,0,0,0,0,0
	c0,0.1,0.2,0.5,0.2,1C385.9,532.8,385.9,533,385.9,533.2z"/>
<linearGradient id="SVGID_00000137843576526153570480000014722496795627418511_" gradientUnits="userSpaceOnUse" x1="349.854" y1="542.6843" x2="359.3261" y2="542.6843">
	<stop  offset="0.2432" style="stop-color:#E84040"/>
	<stop  offset="1" style="stop-color:#F9B233"/>
</linearGradient>
<path style="fill:url(#SVGID_00000137843576526153570480000014722496795627418511_);" d="M359.3,544.7c0,0-0.9,3.2-3.6,3.2
	c0,0-2.5,0.2-3.7-1.6c-0.6-1.3-1.3-2.7-1.9-4c-0.4-0.9-0.2-2,0.3-2.8c0.8-1.4,2.7-2.2,4.3-1.9c1.5,0.3,2,1.3,2,1.3L359.3,544.7z"/>
<linearGradient id="SVGID_00000170981365101146837700000015685115681688196772_" gradientUnits="userSpaceOnUse" x1="331.0187" y1="540" x2="331.0187" y2="540">
	<stop  offset="0.2432" style="stop-color:#E84040"/>
	<stop  offset="1" style="stop-color:#F9B233"/>
</linearGradient>
<path style="fill:none;stroke:url(#SVGID_00000170981365101146837700000015685115681688196772_);stroke-width:7.1047;stroke-miterlimit:10;" d="
	M331,540"/>
<linearGradient id="SVGID_00000031191514212436879680000002791159064079412641_" gradientUnits="userSpaceOnUse" x1="323.761" y1="540" x2="406.0429" y2="540">
	<stop  offset="0.2432" style="stop-color:#E84040"/>
	<stop  offset="1" style="stop-color:#F9B233"/>
</linearGradient>
<circle style="fill:none;stroke:url(#SVGID_00000031191514212436879680000002791159064079412641_);stroke-width:10.2393;stroke-linecap:round;stroke-miterlimit:10;" cx="364.9" cy="540" r="36"/>
<g>
	<g>
		<path class="st2" d="M558.7,502.6c-6.3,13.5-12,26.2-17.2,38.2c-5.2,12-8.3,19.2-9.4,21.8h-17.5c-0.6-1.6-2.4-6-5.5-13.2
			c-3.1-7.2-7.1-16.1-11.9-26.7h-0.4c-4.5,9.4-8.5,18-12.1,25.8c-3.6,7.8-5.6,12.5-6.3,14H461c-0.6-1.5-3.2-7.7-7.9-18.6
			c-4.7-10.9-10.8-24.6-18.3-40.9l19.9-4.6c0.4,1.2,2.2,5.8,5.4,13.8c3.2,8,7.1,17.5,11.5,28.5l0.4,0c4.3-9.4,8.2-18.1,11.6-26
			s5.3-12.4,5.7-13.3h16.5c0.5,1.5,2.4,6.1,5.7,13.8c3.2,7.7,6.8,16.2,10.8,25.5l0.4,0c4.6-10.9,8.5-20.2,11.6-28
			c3.1-7.8,5-12.6,5.5-14.3L558.7,502.6z"/>
		<path class="st2" d="M657,558.7l-19.6,5.1c-0.4-1-1.4-3.3-3.1-6.8s-3.6-7.5-5.9-11.9h-30.6c-2.3,4.5-4.3,8.5-6,12s-2.7,5.7-3,6.7
			l-18.5-4.9c1.1-1.9,5.3-9.3,12.5-22.3c7.3-13,14.2-25.5,20.9-37.4h20.4c6.9,12.6,14,25.4,21.2,38.4
			C652.6,550.7,656.5,557.7,657,558.7z M623.7,535.4c-1.5-3.2-3.2-6.7-5-10.5s-3.6-7.6-5.5-11.3l-0.2,0c-1.5,3-3.3,6.8-5.4,11.3
			c-2.1,4.5-3.8,8-5.1,10.5l0,0L623.7,535.4L623.7,535.4z"/>
		<path class="st2" d="M752.7,531.3c0,5.5-1.7,10.3-5.2,14.5c-3.5,4.2-8,7.5-13.5,10c-4.8,2.2-10.2,3.9-16.2,5.1
			c-6,1.2-13,1.7-21,1.7c-3.7,0-7.8,0-12.3-0.1s-7-0.1-7.5-0.1c0-0.3,0-3.6,0.1-9.9c0.1-6.3,0.1-13.7,0.1-22.1c0-3.5,0-7.9-0.1-13.1
			c0-5.2-0.1-11.1-0.2-17.6c0.6,0,3.3,0,8,0s8,0,9.9,0c8.8,0,16.5,0.6,23.1,1.7c6.6,1.2,12.4,3,17.5,5.5c5.9,2.9,10.2,6.4,13,10.5
			C751.2,521.3,752.7,526,752.7,531.3z M732.2,530.8c0-3.1-0.9-6-2.6-8.6c-1.8-2.6-4.5-4.8-8.3-6.6c-3.4-1.6-7.1-2.7-11-3.3
			c-4-0.6-7.8-0.9-11.3-0.9c-0.4,0-0.8,0-1.3,0c-0.5,0-0.8,0-0.9,0c0,3.2-0.1,6.2-0.1,9.1s0,5.2,0,7.1c0,1.7,0,4.3,0,7.9
			s0,8.6,0.1,14.9c0.4,0,0.7,0,1,0c0.3,0,0.6,0,1,0c3.6,0,7.4-0.3,11.5-1.1c4-0.7,7.4-1.6,10-2.8c4.1-1.8,7.1-4.1,9.1-6.7
			C731.2,537.3,732.2,534.3,732.2,530.8z"/>
	</g>
</g>
<g>
	
		<linearGradient id="SVGID_00000017482462935069021120000007051204263478425504_" gradientUnits="userSpaceOnUse" x1="460.329" y1="588.4028" x2="497.0901" y2="588.4028">
		<stop  offset="0.6507" style="stop-color:#E84040"/>
		<stop  offset="1" style="stop-color:#F9B233"/>
	</linearGradient>
	<path style="fill:url(#SVGID_00000017482462935069021120000007051204263478425504_);" d="M468.8,600.3l-8.5-23.8h2.3l5.8,16.4
		l1.6,5.1h0.1c0.6-2.1,1.2-3.7,1.6-4.9l5.9-16.7h2.4l5.9,16.6l1.6,4.9h0.1c0.6-2.1,1.1-3.8,1.6-5.1l5.7-16.4h2.2l-8.4,23.8h-2.5
		l-6.2-17.7l-1.2-4h-0.1c-0.4,1.6-0.9,2.9-1.2,4l-6.2,17.7H468.8z"/>
	
		<linearGradient id="SVGID_00000172438557669810583690000008601253256457651869_" gradientUnits="userSpaceOnUse" x1="504.9705" y1="588.4028" x2="507.2598" y2="588.4028">
		<stop  offset="0.6507" style="stop-color:#E84040"/>
		<stop  offset="1" style="stop-color:#F9B233"/>
	</linearGradient>
	<path style="fill:url(#SVGID_00000172438557669810583690000008601253256457651869_);" d="M505,600.3v-23.8h2.3v23.8H505z"/>
	
		<linearGradient id="SVGID_00000084520629889493193750000008981354759499174837_" gradientUnits="userSpaceOnUse" x1="517.3853" y1="588.4028" x2="540.4986" y2="588.4028">
		<stop  offset="0.6507" style="stop-color:#E84040"/>
		<stop  offset="1" style="stop-color:#F9B233"/>
	</linearGradient>
	<path style="fill:url(#SVGID_00000084520629889493193750000008981354759499174837_);" d="M517.4,600.3v-23.8h2.6l14.6,16.8l3.7,4.5
		h0.1v-21.3h2.2v23.8h-2.4l-14.4-16.4l-4-4.8h-0.1v21.2H517.4z"/>
	
		<linearGradient id="SVGID_00000042721259597311184080000000591165810005344148_" gradientUnits="userSpaceOnUse" x1="559.5607" y1="588.4028" x2="586.5045" y2="588.4028">
		<stop  offset="0.6507" style="stop-color:#E84040"/>
		<stop  offset="1" style="stop-color:#F9B233"/>
	</linearGradient>
	<path style="fill:url(#SVGID_00000042721259597311184080000000591165810005344148_);" d="M559.6,600.3l12.2-23.8h2.6l12.2,23.8
		h-2.4l-3.9-7.6h-14.5l-3.9,7.6H559.6z M571.3,581.8l-4.8,9.4h13l-4.8-9.4l-1.7-3.5h-0.1C572.4,579.6,571.8,580.8,571.3,581.8z"/>
	
		<linearGradient id="SVGID_00000116956571808436052770000003522692463770211477_" gradientUnits="userSpaceOnUse" x1="593.9885" y1="588.4028" x2="613.2277" y2="588.4028">
		<stop  offset="0.6507" style="stop-color:#E84040"/>
		<stop  offset="1" style="stop-color:#F9B233"/>
	</linearGradient>
	<path style="fill:url(#SVGID_00000116956571808436052770000003522692463770211477_);" d="M594,600.3v-23.8h2.3v22.2h16.9v1.6H594z"
		/>
	
		<linearGradient id="SVGID_00000066500565226029667270000007961824668781019026_" gradientUnits="userSpaceOnUse" x1="621.5479" y1="588.4028" x2="640.787" y2="588.4028">
		<stop  offset="0.6507" style="stop-color:#E84040"/>
		<stop  offset="1" style="stop-color:#F9B233"/>
	</linearGradient>
	<path style="fill:url(#SVGID_00000066500565226029667270000007961824668781019026_);" d="M621.5,600.3v-23.8h2.3v22.2h16.9v1.6
		H621.5z"/>
	
		<linearGradient id="SVGID_00000053531498641709912240000002423523613221581238_" gradientUnits="userSpaceOnUse" x1="660.6857" y1="588.4028" x2="684.8115" y2="588.4028">
		<stop  offset="0.6507" style="stop-color:#E84040"/>
		<stop  offset="1" style="stop-color:#F9B233"/>
	</linearGradient>
	<path style="fill:url(#SVGID_00000053531498641709912240000002423523613221581238_);" d="M660.7,600.3v-23.8h11
		c4.4,0,7.7,1.1,9.9,3.2c2.2,2.2,3.3,5.1,3.3,8.7c0,3.6-1.1,6.5-3.4,8.6c-2.3,2.1-5.6,3.2-10,3.2H660.7z M663,598.8h8.3
		c3.7,0,6.5-0.9,8.3-2.7c1.9-1.8,2.8-4.3,2.8-7.6c0-3.3-0.9-5.8-2.7-7.7c-1.8-1.8-4.5-2.7-8.2-2.7H663V598.8z"/>
	
		<linearGradient id="SVGID_00000018205104656064231330000008769400770766396085_" gradientUnits="userSpaceOnUse" x1="689.3023" y1="588.4028" x2="716.246" y2="588.4028">
		<stop  offset="0.6507" style="stop-color:#E84040"/>
		<stop  offset="1" style="stop-color:#F9B233"/>
	</linearGradient>
	<path style="fill:url(#SVGID_00000018205104656064231330000008769400770766396085_);" d="M689.3,600.3l12.2-23.8h2.6l12.2,23.8
		h-2.4l-3.9-7.6h-14.5l-3.9,7.6H689.3z M701.1,581.8l-4.8,9.4h13l-4.8-9.4l-1.7-3.5h-0.1C702.1,579.6,701.6,580.8,701.1,581.8z"/>
	
		<linearGradient id="SVGID_00000034066338386767339300000011412964106253924510_" gradientUnits="userSpaceOnUse" x1="717.4788" y1="588.4028" x2="742.5294" y2="588.4028">
		<stop  offset="0.6507" style="stop-color:#E84040"/>
		<stop  offset="1" style="stop-color:#F9B233"/>
	</linearGradient>
	<path style="fill:url(#SVGID_00000034066338386767339300000011412964106253924510_);" d="M728.8,600.3v-10.6l-11.4-13.2h2.5
		l10,11.6h0.1l10-11.6h2.5l-11.4,13.3v10.5H728.8z"/>
</g>
<linearGradient id="SVGID_00000059269656738896461680000008094714612727593605_" gradientUnits="userSpaceOnUse" x1="-10037.0391" y1="10696.8613" x2="-10025.9609" y2="10711.3135" gradientTransform="matrix(-1 0 0 -1 -9669.3301 11188.665)">
	<stop  offset="0.2432" style="stop-color:#E84040"/>
	<stop  offset="1" style="stop-color:#F9B233"/>
</linearGradient>
<polygon style="fill:url(#SVGID_00000059269656738896461680000008094714612727593605_);" points="352.8,469.1 363.7,469.1 
	363.7,489.9 352.8,489.9 "/>
<linearGradient id="SVGID_00000042714783194708094420000012547233248359860881_" gradientUnits="userSpaceOnUse" x1="-10050.3291" y1="10696.8613" x2="-10039.251" y2="10711.3135" gradientTransform="matrix(-1 0 0 -1 -9669.3301 11188.665)">
	<stop  offset="0.2432" style="stop-color:#E84040"/>
	<stop  offset="1" style="stop-color:#F9B233"/>
</linearGradient>
<polygon style="fill:url(#SVGID_00000042714783194708094420000012547233248359860881_);" points="366.1,469.1 377,469.1 377,489.9 
	366.1,489.9 "/>
<linearGradient id="SVGID_00000043453850193814087770000000873143697352353411_" gradientUnits="userSpaceOnUse" x1="359.9158" y1="242.1524" x2="370.9946" y2="256.605" gradientTransform="matrix(1 0 0 1 3.3921 346.0437)">
	<stop  offset="0.2432" style="stop-color:#E84040"/>
	<stop  offset="1" style="stop-color:#F9B233"/>
</linearGradient>
<rect x="367.3" y="590.1" style="fill:url(#SVGID_00000043453850193814087770000000873143697352353411_);" width="10.9" height="20.8"/>
<linearGradient id="SVGID_00000080916962027641395970000015959285902665248129_" gradientUnits="userSpaceOnUse" x1="346.6259" y1="242.1524" x2="357.7047" y2="256.605" gradientTransform="matrix(1 0 0 1 3.3921 346.0437)">
	<stop  offset="0.2432" style="stop-color:#E84040"/>
	<stop  offset="1" style="stop-color:#F9B233"/>
</linearGradient>
<rect x="354" y="590.1" style="fill:url(#SVGID_00000080916962027641395970000015959285902665248129_);" width="10.9" height="20.8"/>
<linearGradient id="SVGID_00000057109951321874930570000012631180991974960575_" gradientUnits="userSpaceOnUse" x1="307.9657" y1="508.3684" x2="412.982" y2="508.3684">
	<stop  offset="0.2432" style="stop-color:#E84040"/>
	<stop  offset="1" style="stop-color:#F9B233"/>
</linearGradient>
<path style="fill:none;stroke:url(#SVGID_00000057109951321874930570000012631180991974960575_);stroke-width:9.5331;stroke-miterlimit:10;" d="
	M393.5,518l13-13c-9.8-11.4-24.3-18.6-40.5-18.6c-27.7,0-50.5,21.1-53.2,48"/>
<linearGradient id="SVGID_00000178204294564957811640000015393920074414743936_" gradientUnits="userSpaceOnUse" x1="308.8489" y1="574.051" x2="409.3427" y2="574.051">
	<stop  offset="0.2432" style="stop-color:#E84040"/>
	<stop  offset="1" style="stop-color:#F9B233"/>
</linearGradient>
<path style="fill:none;stroke:url(#SVGID_00000178204294564957811640000015393920074414743936_);stroke-width:9.5331;stroke-miterlimit:10;" d="
	M313.5,550.8c5,24.4,26.6,42.7,52.4,42.7c14.1,0,27-5.5,36.5-14.4l-12.9-12.9"/>
<linearGradient id="SVGID_00000152960420318479890230000014010938380479555769_" gradientUnits="userSpaceOnUse" x1="304.5567" y1="542.6564" x2="317.255" y2="542.6564">
	<stop  offset="0.2432" style="stop-color:#E84040"/>
	<stop  offset="1" style="stop-color:#F9B233"/>
</linearGradient>
<path style="fill:url(#SVGID_00000152960420318479890230000014010938380479555769_);" d="M313.4,536.8c-0.1,0-0.3-0.1-0.4-0.1
	c0,0,0,0,0,0c-0.7-0.2-1.4-0.4-2.1-0.3c-3.5,0-6.3,2.8-6.3,6.3c0,3.6,3,6.4,6.3,6.3c3.5,0.1,6.4-2.9,6.4-6.4
	C317.2,540.1,315.7,537.8,313.4,536.8z"/>
<linearGradient id="SVGID_00000097499130649841675790000003745852394187240882_" gradientUnits="userSpaceOnUse" x1="6893.0957" y1="8496.376" x2="6914.9424" y2="8496.376" gradientTransform="matrix(-0.9994 3.378905e-02 -3.378905e-02 -0.9994 7203.854 8282.8145)">
	<stop  offset="0.2432" style="stop-color:#E84040"/>
	<stop  offset="1" style="stop-color:#F9B233"/>
</linearGradient>
<path style="fill:none;stroke:url(#SVGID_00000097499130649841675790000003745852394187240882_);stroke-width:2.0106;stroke-linecap:round;stroke-miterlimit:10;" d="
	M7.3,16.6c2-2,4.6-3.2,7.6-3.3c6.2-0.2,11.4,4.7,11.7,10.9c0.2,6.2-4.7,11.4-10.9,11.7C12.3,36,9.2,34.6,7,32.3"/>
<path d="M19.5,23.5c0-0.1,0-0.1,0-0.2C19.5,23.3,19.5,23.4,19.5,23.5C19.5,23.5,19.5,23.5,19.5,23.5z"/>
<path d="M19.3,23.4C19.4,23.4,19.4,23.4,19.3,23.4c0,0.1,0,0.1,0,0.2C19.3,23.5,19.3,23.5,19.3,23.4C19.3,23.5,19.3,23.4,19.3,23.4z
	"/>
<linearGradient id="SVGID_00000147912739023893549360000017106551565963233164_" gradientUnits="userSpaceOnUse" x1="11.0967" y1="23.0041" x2="12.6088" y2="23.0041">
	<stop  offset="0.2432" style="stop-color:#E84040"/>
	<stop  offset="1" style="stop-color:#F9B233"/>
</linearGradient>
<path style="fill:url(#SVGID_00000147912739023893549360000017106551565963233164_);" d="M12.6,23c0,0.4-0.3,0.8-0.8,0.8
	c-0.4,0-0.8-0.3-0.8-0.8c0-0.4,0.3-0.8,0.8-0.8C12.3,22.2,12.6,22.6,12.6,23z"/>
<path class="st2" d="M19.5,23.2C19.5,23.2,19.5,23.2,19.5,23.2c0,0,0,0.1-0.1,0.1c-0.2,0.4-0.3,0.7-0.5,1.1
	c-0.1,0.3-0.3,0.6-0.4,0.9c-0.2,0.3-0.3,0.7-0.5,1c-0.1,0.3-0.3,0.5-0.4,0.8c-0.1,0.2-0.2,0.5-0.3,0.7c-0.1,0.2-0.3,0.3-0.5,0.4
	c-0.3,0-0.6,0-0.8-0.3c-0.1-0.1-0.1-0.2-0.2-0.3c-0.1-0.3-0.2-0.5-0.4-0.8c-0.1-0.2-0.2-0.4-0.3-0.6c0,0.1-0.1,0.2-0.1,0.3
	c-0.1,0.3-0.2,0.5-0.4,0.8c-0.1,0.2-0.1,0.3-0.2,0.5c-0.1,0.2-0.3,0.4-0.6,0.4c-0.3,0-0.5-0.1-0.7-0.3c-0.1-0.1-0.1-0.3-0.2-0.4
	c-0.1-0.3-0.3-0.6-0.4-0.9c-0.1-0.2-0.2-0.4-0.3-0.5c-0.1-0.3-0.3-0.6-0.4-0.9c-0.1-0.2-0.1-0.5,0.1-0.7c0.2-0.3,0.6-0.4,0.9-0.3
	c0.2,0.1,0.3,0.2,0.4,0.4c0,0.1,0.1,0.2,0.2,0.3c0.1,0.2,0.2,0.4,0.3,0.7c0,0,0,0,0,0c0.1-0.2,0.2-0.3,0.2-0.5
	c0.2-0.4,0.3-0.7,0.5-1.1c0.1-0.2,0.4-0.4,0.7-0.4c0.3,0,0.5,0.2,0.7,0.5c0.1,0.3,0.3,0.7,0.5,1c0.1,0.1,0.1,0.3,0.2,0.4
	c0,0,0,0,0,0c0-0.1,0.1-0.2,0.1-0.2c0.1-0.2,0.2-0.5,0.3-0.7c0.1-0.3,0.3-0.6,0.4-0.8c0.1-0.3,0.3-0.5,0.4-0.8
	c0.1-0.1,0.1-0.3,0.2-0.4c0.1-0.2,0.3-0.3,0.5-0.3c0.3,0,0.6,0.1,0.8,0.4c0,0,0,0.1,0.1,0.1c0,0,0,0,0,0c0,0,0,0.1,0,0.2
	C19.5,23.1,19.5,23.1,19.5,23.2z"/>
<linearGradient id="SVGID_00000067958628578381250280000006407013222720823204_" gradientUnits="userSpaceOnUse" x1="11.9198" y1="25.1822" x2="13.9176" y2="25.1822">
	<stop  offset="0.2432" style="stop-color:#E84040"/>
	<stop  offset="1" style="stop-color:#F9B233"/>
</linearGradient>
<path style="fill:url(#SVGID_00000067958628578381250280000006407013222720823204_);" d="M13.9,25.6c0,0-0.2,0.7-0.8,0.7
	c0,0-0.5,0-0.8-0.3c-0.1-0.3-0.3-0.6-0.4-0.9c-0.1-0.2,0-0.4,0.1-0.6c0.2-0.3,0.6-0.5,0.9-0.4c0.3,0.1,0.4,0.3,0.4,0.3L13.9,25.6z"
	/>
<linearGradient id="SVGID_00000157287216009744865230000000292120922427367612_" gradientUnits="userSpaceOnUse" x1="7.9473" y1="24.616" x2="7.9473" y2="24.616">
	<stop  offset="0.2432" style="stop-color:#E84040"/>
	<stop  offset="1" style="stop-color:#F9B233"/>
</linearGradient>
<path style="fill:none;stroke:url(#SVGID_00000157287216009744865230000000292120922427367612_);stroke-width:1.4985;stroke-miterlimit:10;" d="
	M7.9,24.6"/>
<linearGradient id="SVGID_00000168109841683049674380000015910554787340903832_" gradientUnits="userSpaceOnUse" x1="6.4165" y1="24.616" x2="23.7707" y2="24.616">
	<stop  offset="0.2432" style="stop-color:#E84040"/>
	<stop  offset="1" style="stop-color:#F9B233"/>
</linearGradient>
<circle style="fill:none;stroke:url(#SVGID_00000168109841683049674380000015910554787340903832_);stroke-width:2.1596;stroke-linecap:round;stroke-miterlimit:10;" cx="15.1" cy="24.6" r="7.6"/>
<g>
	<g>
		<path class="st2" d="M56,16.7c-1.3,2.8-2.5,5.5-3.6,8c-1.1,2.5-1.7,4.1-2,4.6h-3.7c-0.1-0.3-0.5-1.3-1.2-2.8
			C44.9,25.1,44,23.2,43,21h-0.1c-0.9,2-1.8,3.8-2.5,5.5c-0.7,1.6-1.2,2.6-1.3,2.9h-3.7c-0.1-0.3-0.7-1.6-1.7-3.9
			c-1-2.3-2.3-5.2-3.9-8.6l4.2-1c0.1,0.3,0.5,1.2,1.1,2.9c0.7,1.7,1.5,3.7,2.4,6l0.1,0c0.9-2,1.7-3.8,2.4-5.5
			c0.7-1.7,1.1-2.6,1.2-2.8h3.5c0.1,0.3,0.5,1.3,1.2,2.9c0.7,1.6,1.4,3.4,2.3,5.4l0.1,0c1-2.3,1.8-4.3,2.4-5.9s1-2.7,1.2-3L56,16.7z
			"/>
		<path class="st2" d="M76.7,28.6l-4.1,1.1c-0.1-0.2-0.3-0.7-0.7-1.4c-0.3-0.7-0.8-1.6-1.2-2.5h-6.5c-0.5,0.9-0.9,1.8-1.3,2.5
			s-0.6,1.2-0.6,1.4l-3.9-1c0.2-0.4,1.1-2,2.6-4.7c1.5-2.7,3-5.4,4.4-7.9h4.3c1.5,2.6,2.9,5.4,4.5,8.1
			C75.8,26.9,76.6,28.3,76.7,28.6z M69.7,23.6c-0.3-0.7-0.7-1.4-1.1-2.2c-0.4-0.8-0.8-1.6-1.1-2.4l-0.1,0c-0.3,0.6-0.7,1.4-1.1,2.4
			c-0.4,0.9-0.8,1.7-1.1,2.2l0,0L69.7,23.6L69.7,23.6z"/>
		<path class="st2" d="M96.9,22.8c0,1.2-0.4,2.2-1.1,3.1c-0.7,0.9-1.7,1.6-2.8,2.1c-1,0.5-2.2,0.8-3.4,1.1c-1.3,0.2-2.7,0.4-4.4,0.4
			c-0.8,0-1.7,0-2.6,0s-1.5,0-1.6,0c0-0.1,0-0.8,0-2.1c0-1.3,0-2.9,0-4.7c0-0.7,0-1.7,0-2.8c0-1.1,0-2.3,0-3.7c0.1,0,0.7,0,1.7,0
			c1,0,1.7,0,2.1,0c1.9,0,3.5,0.1,4.9,0.4c1.4,0.2,2.6,0.6,3.7,1.2c1.2,0.6,2.2,1.4,2.8,2.2S96.9,21.7,96.9,22.8z M92.6,22.7
			c0-0.7-0.2-1.3-0.6-1.8c-0.4-0.5-1-1-1.8-1.4c-0.7-0.3-1.5-0.6-2.3-0.7s-1.6-0.2-2.4-0.2c-0.1,0-0.2,0-0.3,0c-0.1,0-0.2,0-0.2,0
			c0,0.7,0,1.3,0,1.9c0,0.6,0,1.1,0,1.5c0,0.3,0,0.9,0,1.7s0,1.8,0,3.1c0.1,0,0.1,0,0.2,0c0.1,0,0.1,0,0.2,0c0.8,0,1.6-0.1,2.4-0.2
			c0.9-0.1,1.6-0.3,2.1-0.6c0.9-0.4,1.5-0.9,1.9-1.4C92.3,24,92.6,23.4,92.6,22.7z"/>
	</g>
</g>
<g>
	
		<linearGradient id="SVGID_00000130633548422149893910000004993251218318263686_" gradientUnits="userSpaceOnUse" x1="35.2203" y1="34.8247" x2="42.9736" y2="34.8247">
		<stop  offset="0.6507" style="stop-color:#E84040"/>
		<stop  offset="1" style="stop-color:#F9B233"/>
	</linearGradient>
	<path style="fill:url(#SVGID_00000130633548422149893910000004993251218318263686_);" d="M37,37.3l-1.8-5h0.5l1.2,3.5l0.3,1.1h0
		c0.1-0.4,0.2-0.8,0.3-1l1.2-3.5h0.5l1.2,3.5l0.3,1h0c0.1-0.4,0.2-0.8,0.3-1.1l1.2-3.5H43l-1.8,5h-0.5l-1.3-3.7l-0.3-0.8h0
		c-0.1,0.3-0.2,0.6-0.3,0.8l-1.3,3.7H37z"/>
	
		<linearGradient id="SVGID_00000063629295431265584640000015950833660669974713_" gradientUnits="userSpaceOnUse" x1="44.6357" y1="34.8247" x2="45.1185" y2="34.8247">
		<stop  offset="0.6507" style="stop-color:#E84040"/>
		<stop  offset="1" style="stop-color:#F9B233"/>
	</linearGradient>
	<path style="fill:url(#SVGID_00000063629295431265584640000015950833660669974713_);" d="M44.6,37.3v-5h0.5v5H44.6z"/>
	
		<linearGradient id="SVGID_00000022558931460836879840000012356090836806485400_" gradientUnits="userSpaceOnUse" x1="47.2541" y1="34.8247" x2="52.1289" y2="34.8247">
		<stop  offset="0.6507" style="stop-color:#E84040"/>
		<stop  offset="1" style="stop-color:#F9B233"/>
	</linearGradient>
	<path style="fill:url(#SVGID_00000022558931460836879840000012356090836806485400_);" d="M47.3,37.3v-5h0.5l3.1,3.5l0.8,0.9h0v-4.5
		h0.5v5h-0.5l-3-3.5l-0.8-1h0v4.5H47.3z"/>
	
		<linearGradient id="SVGID_00000017507465761808691060000010678717669168910000_" gradientUnits="userSpaceOnUse" x1="56.1494" y1="34.8247" x2="61.8321" y2="34.8247">
		<stop  offset="0.6507" style="stop-color:#E84040"/>
		<stop  offset="1" style="stop-color:#F9B233"/>
	</linearGradient>
	<path style="fill:url(#SVGID_00000017507465761808691060000010678717669168910000_);" d="M56.1,37.3l2.6-5h0.5l2.6,5h-0.5l-0.8-1.6
		h-3.1l-0.8,1.6H56.1z M58.6,33.4l-1,2h2.7l-1-2L59,32.7h0C58.8,33,58.7,33.2,58.6,33.4z"/>
	
		<linearGradient id="SVGID_00000046314798793161061940000001648610916810321315_" gradientUnits="userSpaceOnUse" x1="63.4106" y1="34.8247" x2="67.4683" y2="34.8247">
		<stop  offset="0.6507" style="stop-color:#E84040"/>
		<stop  offset="1" style="stop-color:#F9B233"/>
	</linearGradient>
	<path style="fill:url(#SVGID_00000046314798793161061940000001648610916810321315_);" d="M63.4,37.3v-5h0.5V37h3.6v0.3H63.4z"/>
	
		<linearGradient id="SVGID_00000004504080601378247150000002958767341592260228_" gradientUnits="userSpaceOnUse" x1="69.2232" y1="34.8247" x2="73.2809" y2="34.8247">
		<stop  offset="0.6507" style="stop-color:#E84040"/>
		<stop  offset="1" style="stop-color:#F9B233"/>
	</linearGradient>
	<path style="fill:url(#SVGID_00000004504080601378247150000002958767341592260228_);" d="M69.2,37.3v-5h0.5V37h3.6v0.3H69.2z"/>
	
		<linearGradient id="SVGID_00000134218927819836464000000011119333044018393478_" gradientUnits="userSpaceOnUse" x1="77.4778" y1="34.8247" x2="82.5662" y2="34.8247">
		<stop  offset="0.6507" style="stop-color:#E84040"/>
		<stop  offset="1" style="stop-color:#F9B233"/>
	</linearGradient>
	<path style="fill:url(#SVGID_00000134218927819836464000000011119333044018393478_);" d="M77.5,37.3v-5h2.3c0.9,0,1.6,0.2,2.1,0.7
		c0.5,0.5,0.7,1.1,0.7,1.8c0,0.8-0.2,1.4-0.7,1.8c-0.5,0.4-1.2,0.7-2.1,0.7H77.5z M78,37h1.8c0.8,0,1.4-0.2,1.8-0.6
		c0.4-0.4,0.6-0.9,0.6-1.6c0-0.7-0.2-1.2-0.6-1.6c-0.4-0.4-0.9-0.6-1.7-0.6H78V37z"/>
	
		<linearGradient id="SVGID_00000035520380941135947730000003777248103599205545_" gradientUnits="userSpaceOnUse" x1="83.5133" y1="34.8247" x2="89.1961" y2="34.8247">
		<stop  offset="0.6507" style="stop-color:#E84040"/>
		<stop  offset="1" style="stop-color:#F9B233"/>
	</linearGradient>
	<path style="fill:url(#SVGID_00000035520380941135947730000003777248103599205545_);" d="M83.5,37.3l2.6-5h0.5l2.6,5h-0.5l-0.8-1.6
		h-3.1L84,37.3H83.5z M86,33.4l-1,2h2.7l-1-2l-0.4-0.7h0C86.2,33,86.1,33.2,86,33.4z"/>
	
		<linearGradient id="SVGID_00000011711134579971371480000005562853756707742091_" gradientUnits="userSpaceOnUse" x1="89.4561" y1="34.8247" x2="94.7395" y2="34.8247">
		<stop  offset="0.6507" style="stop-color:#E84040"/>
		<stop  offset="1" style="stop-color:#F9B233"/>
	</linearGradient>
	<path style="fill:url(#SVGID_00000011711134579971371480000005562853756707742091_);" d="M91.9,37.3v-2.2l-2.4-2.8H90l2.1,2.5h0
		l2.1-2.5h0.5l-2.4,2.8v2.2H91.9z"/>
</g>
<linearGradient id="SVGID_00000101083499625172830720000009900938011282831760_" gradientUnits="userSpaceOnUse" x1="-9685.0156" y1="11174.2139" x2="-9682.6787" y2="11177.2627" gradientTransform="matrix(-1 0 0 -1 -9669.3301 11188.665)">
	<stop  offset="0.2432" style="stop-color:#E84040"/>
	<stop  offset="1" style="stop-color:#F9B233"/>
</linearGradient>
<polygon style="fill:url(#SVGID_00000101083499625172830720000009900938011282831760_);" points="12.5,9.7 14.8,9.7 14.8,14 
	12.5,14 "/>
<linearGradient id="SVGID_00000147215749780831992680000004475844497756382378_" gradientUnits="userSpaceOnUse" x1="-9687.8184" y1="11174.2139" x2="-9685.4814" y2="11177.2627" gradientTransform="matrix(-1 0 0 -1 -9669.3301 11188.665)">
	<stop  offset="0.2432" style="stop-color:#E84040"/>
	<stop  offset="1" style="stop-color:#F9B233"/>
</linearGradient>
<polygon style="fill:url(#SVGID_00000147215749780831992680000004475844497756382378_);" points="15.3,9.7 17.6,9.7 17.6,14 
	15.3,14 "/>
<linearGradient id="SVGID_00000128463085755316744350000001505656557370824076_" gradientUnits="userSpaceOnUse" x1="11.3653" y1="-311.2625" x2="13.7019" y2="-308.2143" gradientTransform="matrix(1 0 0 1 3.3921 346.0437)">
	<stop  offset="0.2432" style="stop-color:#E84040"/>
	<stop  offset="1" style="stop-color:#F9B233"/>
</linearGradient>
<rect x="15.6" y="35.2" style="fill:url(#SVGID_00000128463085755316744350000001505656557370824076_);" width="2.3" height="4.4"/>
<linearGradient id="SVGID_00000170982795659757752370000013576242190481394111_" gradientUnits="userSpaceOnUse" x1="8.5623" y1="-311.2625" x2="10.8989" y2="-308.2143" gradientTransform="matrix(1 0 0 1 3.3921 346.0437)">
	<stop  offset="0.2432" style="stop-color:#E84040"/>
	<stop  offset="1" style="stop-color:#F9B233"/>
</linearGradient>
<rect x="12.8" y="35.2" style="fill:url(#SVGID_00000170982795659757752370000013576242190481394111_);" width="2.3" height="4.4"/>
<linearGradient id="SVGID_00000047052176092634914350000001856898447858898849_" gradientUnits="userSpaceOnUse" x1="3.0851" y1="17.9446" x2="25.2343" y2="17.9446">
	<stop  offset="0.2432" style="stop-color:#E84040"/>
	<stop  offset="1" style="stop-color:#F9B233"/>
</linearGradient>
<path style="fill:none;stroke:url(#SVGID_00000047052176092634914350000001856898447858898849_);stroke-width:2.0106;stroke-miterlimit:10;" d="
	M21.1,20l2.7-2.7c-2.1-2.4-5.1-3.9-8.6-3.9c-5.8,0-10.6,4.4-11.2,10.1"/>
<linearGradient id="SVGID_00000049204329067789371030000014682493651770914495_" gradientUnits="userSpaceOnUse" x1="3.2714" y1="31.7978" x2="24.4667" y2="31.7978">
	<stop  offset="0.2432" style="stop-color:#E84040"/>
	<stop  offset="1" style="stop-color:#F9B233"/>
</linearGradient>
<path style="fill:none;stroke:url(#SVGID_00000049204329067789371030000014682493651770914495_);stroke-width:2.0106;stroke-miterlimit:10;" d="
	M4.3,26.9c1.1,5.1,5.6,9,11.1,9c3,0,5.7-1.2,7.7-3l-2.7-2.7"/>
<linearGradient id="SVGID_00000123419909926955629290000001690676111244620985_" gradientUnits="userSpaceOnUse" x1="2.3661" y1="25.1763" x2="5.0443" y2="25.1763">
	<stop  offset="0.2432" style="stop-color:#E84040"/>
	<stop  offset="1" style="stop-color:#F9B233"/>
</linearGradient>
<path style="fill:url(#SVGID_00000123419909926955629290000001690676111244620985_);" d="M4.2,23.9C4.2,23.9,4.2,23.9,4.2,23.9
	C4.1,23.9,4.1,23.9,4.2,23.9c-0.2-0.1-0.4-0.1-0.5-0.1c-0.7,0-1.3,0.6-1.3,1.3c0,0.8,0.6,1.3,1.3,1.3c0.7,0,1.3-0.6,1.3-1.3
	C5,24.6,4.7,24.1,4.2,23.9z"/>
</svg>
