<svg width="16" height="16" viewBox="0 0 16 16" fill="none" xmlns="http://www.w3.org/2000/svg">
<g clip-path="url(#clip0_244_852)">
<mask id="mask0_244_852" style="mask-type:luminance" maskUnits="userSpaceOnUse" x="0" y="0" width="16" height="16">
<path d="M16 0H0V16H16V0Z" fill="white"/>
</mask>
<g mask="url(#mask0_244_852)">
<path d="M6 0.27781C6.09761 0.396423 6.15741 0.541582 6.17168 0.694533C6.18594 0.847484 6.154 1.0012 6.08 1.13581C5.50186 2.19729 5.19993 3.38711 5.202 4.59581C5.202 8.61681 8.48 11.8728 12.52 11.8728C13.047 11.8728 13.56 11.8178 14.053 11.7128C14.2041 11.6801 14.3615 11.6926 14.5056 11.7488C14.6497 11.805 14.774 11.9024 14.863 12.0288C14.957 12.1602 15.0049 12.3191 14.9993 12.4806C14.9937 12.6421 14.9349 12.7972 14.832 12.9218C14.0477 13.8852 13.0582 14.6615 11.9358 15.194C10.8134 15.7265 9.58632 16.0018 8.344 15.9998C3.734 15.9998 0 12.2858 0 7.70981C0 4.26581 2.114 1.31181 5.124 0.0598102C5.27394 -0.00355791 5.44039 -0.016564 5.59835 0.0227459C5.75631 0.0620557 5.89725 0.151559 6 0.27781ZM4.858 1.31081C3.7006 1.93164 2.73304 2.85446 2.05813 3.98118C1.38323 5.1079 1.0262 6.39642 1.025 7.70981C1.025 11.7298 4.304 14.9858 8.344 14.9858C9.31144 14.9875 10.2696 14.7972 11.1631 14.4261C12.0565 14.055 12.8675 13.5104 13.549 12.8238C13.212 12.8658 12.869 12.8868 12.52 12.8868C7.91 12.8868 4.177 9.17281 4.177 4.59681C4.177 3.42981 4.419 2.31881 4.858 1.31081Z" fill="black"/>
</g>
</g>
<defs>
<clipPath id="clip0_244_852">
<rect width="16" height="16" fill="white"/>
</clipPath>
</defs>
</svg>
