<svg width="615" height="148" viewBox="0 0 615 148" fill="none" xmlns="http://www.w3.org/2000/svg">
<path opacity="0.32" d="M39.4838 24.2976L38.4886 24.3963L38.578 25.2976H39.4838V24.2976ZM21.8254 16.7869L22.1946 17.7163L22.2055 17.7119L21.8254 16.7869ZM18.0867 19.4908L17.2867 18.8907L17.2793 18.9007L18.0867 19.4908ZM16.8183 23.4297L17.8176 23.466L17.8183 23.4479V23.4297H16.8183ZM17.586 26.6342L16.7322 27.1548L16.7368 27.1623L16.7415 27.1698L17.586 26.6342ZM19.9561 29.0043L19.4014 29.8363L19.4078 29.8406L19.4144 29.8448L19.9561 29.0043ZM23.4276 30.7067L23.0783 31.6437L23.0853 31.6463L23.0923 31.6488L23.4276 30.7067ZM27.6336 31.9084L27.8662 30.9358L27.8591 30.9341L27.8521 30.9325L27.6336 31.9084ZM33.7757 33.3771L33.5431 34.3497L33.5501 34.3514L33.5572 34.353L33.7757 33.3771ZM41.9873 36.0476L41.5797 36.9607L41.5797 36.9607L41.9873 36.0476ZM48.4632 40.1534L49.1281 39.4065L49.1281 39.4065L48.4632 40.1534ZM52.7025 45.8949L51.7921 46.3087L51.7956 46.3163L52.7025 45.8949ZM54.2714 53.4723L55.2715 53.4776L55.2714 53.4645L54.2714 53.4723ZM51.0669 64.3544L50.2432 63.7874L50.2423 63.7886L51.0669 64.3544ZM41.9873 71.4645L42.3775 72.3852L42.38 72.3842L41.9873 71.4645ZM13.3133 71.4311L12.9298 72.3546L12.9315 72.3554L13.3133 71.4311ZM3.76642 63.9205L2.93947 64.4828L2.94383 64.4891L3.76642 63.9205ZM0.194691 51.5362V50.5362H-0.828189L-0.805053 51.5588L0.194691 51.5362ZM14.1812 51.5362L15.1789 51.4684L15.1155 50.5362H14.1812V51.5362ZM16.1507 57.2777L15.352 57.8795L15.3569 57.886L15.3619 57.8924L16.1507 57.2777ZM20.8573 60.7159L20.4877 61.6452L20.5005 61.6501L20.8573 60.7159ZM33.9426 60.7827L33.579 59.8511L33.5751 59.8526L33.9426 60.7827ZM38.1819 57.8118L38.9668 58.4314L38.9668 58.4314L38.1819 57.8118ZM38.3154 49.5668L37.5538 50.2149L37.5619 50.2241L38.3154 49.5668ZM34.3765 46.8963L33.9826 47.8155L33.9869 47.8173L34.3765 46.8963ZM28.0676 44.8935L27.824 45.8634L27.8332 45.8656L28.0676 44.8935ZM20.6237 43.0241L20.8672 42.0542L20.86 42.0525L20.6237 43.0241ZM6.97097 36.4482L6.30476 37.1939L6.30476 37.1939L6.97097 36.4482ZM1.99725 24.3977L2.99729 24.4021L2.99723 24.3923L1.99725 24.3977ZM5.30194 13.549L4.49294 12.9612L4.49018 12.965L5.30194 13.549ZM41.1862 6.3054L40.7691 7.21429L40.7712 7.21522L41.1862 6.3054ZM50.0654 13.549L49.2398 14.1133L49.2398 14.1133L50.0654 13.549ZM53.3367 24.2976V25.2976H54.3533L54.3366 24.2812L53.3367 24.2976ZM40.4789 24.1989C40.1863 21.2484 38.9104 18.8895 36.6384 17.2167L35.4526 18.8273C37.2309 20.1365 38.2472 21.9613 38.4886 24.3963L40.4789 24.1989ZM36.6384 17.2167C34.387 15.5591 31.406 14.7855 27.8005 14.7855V16.7855C31.1382 16.7855 33.6539 17.5029 35.4526 18.8273L36.6384 17.2167ZM27.8005 14.7855C25.3534 14.7855 23.2241 15.131 21.4453 15.862L22.2055 17.7119C23.6757 17.1077 25.5298 16.7855 27.8005 16.7855V14.7855ZM21.4562 15.8576C19.6963 16.5567 18.2862 17.5581 17.2867 18.8908L18.8867 20.0908C19.6231 19.109 20.7054 18.3079 22.1946 17.7163L21.4562 15.8576ZM17.2793 18.9007C16.3053 20.2337 15.8183 21.7544 15.8183 23.4297H17.8183C17.8183 22.1674 18.1769 21.0622 18.8941 20.0808L17.2793 18.9007ZM15.8189 23.3933C15.7684 24.7838 16.0595 26.0516 16.7322 27.1548L18.4398 26.1136C17.9999 25.3921 17.7792 24.5235 17.8176 23.466L15.8189 23.3933ZM16.7415 27.1698C17.4031 28.213 18.297 29.1001 19.4014 29.8363L20.5108 28.1722C19.6123 27.5732 18.9262 26.8803 18.4305 26.0987L16.7415 27.1698ZM19.4144 29.8448C20.4857 30.5353 21.7094 31.1332 23.0783 31.6437L23.777 29.7697C22.52 29.301 21.4292 28.764 20.4978 28.1637L19.4144 29.8448ZM23.0923 31.6488C24.447 32.1309 25.8883 32.5424 27.4151 32.8842L27.8521 30.9325C26.3969 30.6068 25.0343 30.2171 23.763 29.7646L23.0923 31.6488ZM27.401 32.881L33.5431 34.3497L34.0082 32.4046L27.8662 30.9358L27.401 32.881ZM33.5572 34.353C36.4818 35.0077 39.1548 35.8782 41.5797 36.9607L42.395 35.1344C39.835 33.9916 37.0335 33.0817 33.9941 32.4013L33.5572 34.353ZM41.5797 36.9607C43.9892 38.0364 46.0585 39.3516 47.7982 40.9003L49.1281 39.4065C47.2182 37.7062 44.9703 36.2842 42.395 35.1344L41.5797 36.9607ZM47.7982 40.9003C49.5199 42.433 50.849 44.2337 51.7921 46.3087L53.6129 45.4811C52.5532 43.1498 51.056 41.1228 49.1281 39.4065L47.7982 40.9003ZM51.7956 46.3163C52.7496 48.3693 53.2501 50.7501 53.2714 53.4801L55.2714 53.4645C55.2482 50.4975 54.7028 47.8267 53.6094 45.4735L51.7956 46.3163ZM53.2714 53.467C53.2501 57.4754 52.2299 60.9014 50.2432 63.7874L51.8905 64.9214C54.1321 61.6653 55.2482 57.8366 55.2714 53.4776L53.2714 53.467ZM50.2423 63.7886C48.2746 66.6564 45.4105 68.9156 41.5946 70.5448L42.38 72.3842C46.4865 70.6308 49.6754 68.1499 51.8914 64.9202L50.2423 63.7886ZM41.5972 70.5437C37.8127 72.1473 33.2016 72.968 27.7338 72.968V74.968C33.3928 74.968 38.2841 74.1197 42.3775 72.3852L41.5972 70.5437ZM27.7338 72.968C22.3147 72.968 17.6429 72.1375 13.6951 70.5068L12.9315 72.3554C17.1731 74.1073 22.1149 74.968 27.7338 74.968V72.968ZM13.6968 70.5076C9.78447 68.8828 6.76173 66.4949 4.58901 63.3518L2.94383 64.4891C5.3554 67.9777 8.69724 70.5969 12.9298 72.3546L13.6968 70.5076ZM4.59335 63.3581C2.45354 60.2114 1.3023 56.2813 1.19444 51.5136L-0.805053 51.5588C-0.690383 56.6273 0.539539 60.9534 2.9395 64.4828L4.59335 63.3581ZM0.194691 52.5362H14.1812V50.5362H0.194691V52.5362ZM13.1835 51.604C13.3498 54.0515 14.057 56.1611 15.352 57.8795L16.9493 56.6758C15.9299 55.3233 15.3241 53.6052 15.1789 51.4684L13.1835 51.604ZM15.3619 57.8924C16.6612 59.5595 18.381 60.8072 20.4878 61.6451L21.2269 59.7867C19.417 59.0669 17.999 58.0224 16.9394 56.663L15.3619 57.8924ZM20.5005 61.6501C22.6131 62.4571 24.9734 62.8509 27.5668 62.8509V60.8509C25.1754 60.8509 23.0627 60.4879 21.2142 59.7818L20.5005 61.6501ZM27.5668 62.8509C30.1088 62.8509 32.3641 62.4815 34.31 61.7127L33.5751 59.8526C31.9159 60.5081 29.9208 60.8509 27.5668 60.8509V62.8509ZM34.3061 61.7142C36.2615 60.9512 37.8339 59.8664 38.9668 58.4314L37.397 57.1921C36.527 58.2941 35.2733 59.1899 33.579 59.8511L34.3061 61.7142ZM38.9668 58.4314C40.1104 56.9829 40.684 55.3059 40.684 53.4389H38.684C38.684 54.8655 38.2563 56.1038 37.397 57.1921L38.9668 58.4314ZM40.684 53.4389C40.684 51.6893 40.1576 50.1572 39.069 48.9094L37.5619 50.2241C38.2981 51.0681 38.684 52.1175 38.684 53.4389H40.684ZM39.077 48.9186C38.0554 47.7183 36.5949 46.749 34.7661 45.9753L33.9869 47.8173C35.6297 48.5123 36.7952 49.3234 37.5539 50.2149L39.077 48.9186ZM34.7704 45.9772C32.9902 45.2142 30.8302 44.5308 28.3019 43.9213L27.8332 45.8656C30.2898 46.4578 32.3357 47.1097 33.9826 47.8155L34.7704 45.9772ZM28.3111 43.9236L20.8672 42.0543L20.3801 43.994L27.824 45.8634L28.3111 43.9236ZM20.86 42.0525C15.206 40.6772 10.8193 38.5451 7.63718 35.7024L6.30476 37.1939C9.79873 40.3152 14.5139 42.5671 20.3873 43.9958L20.86 42.0525ZM7.63718 35.7024C4.54139 32.9368 2.97607 29.2084 2.99724 24.4021L0.997258 24.3933C0.973923 29.6903 2.72441 33.9955 6.30476 37.1939L7.63718 35.7024ZM2.99723 24.3923C2.97601 20.4453 4.02256 17.0397 6.11369 14.133L4.49018 12.965C2.13055 16.2449 0.973975 20.0717 0.997263 24.4031L2.99723 24.3923ZM6.11092 14.1368C8.243 11.2026 11.1781 8.89286 14.9536 7.21964L14.1432 5.39116C10.0854 7.18952 6.85613 9.70887 4.49295 12.9612L6.11092 14.1368ZM14.9536 7.21964C18.7234 5.54889 23.0327 4.7017 27.9007 4.7017V2.7017C22.7989 2.7017 18.2067 3.59031 14.1432 5.39116L14.9536 7.21964ZM27.9007 4.7017C32.8614 4.7017 37.1423 5.55019 40.7691 7.21429L41.6032 5.3965C37.6638 3.58901 33.0876 2.7017 27.9007 2.7017V4.7017ZM40.7712 7.21522C44.4306 8.88442 47.2402 11.1874 49.2398 14.1133L50.891 12.9847C48.6625 9.72401 45.5526 7.19796 41.6012 5.39558L40.7712 7.21522ZM49.2398 14.1133C51.2338 17.0308 52.273 20.4195 52.3369 24.314L54.3366 24.2812C54.2669 20.0308 53.1252 16.2537 50.891 12.9847L49.2398 14.1133ZM53.3367 23.2976H39.4838V25.2976H53.3367V23.2976ZM96.6064 51.169H95.6064L95.6065 51.1787L96.6064 51.169ZM96.6064 21.7273V20.7273H95.6064V21.7273H96.6064ZM110.827 21.7273H111.827V20.7273H110.827V21.7273ZM110.827 73V74H111.827V73H110.827ZM97.1739 73H96.1739V74H97.1739V73ZM97.1739 63.6868H98.1739V62.6868H97.1739V63.6868ZM96.6398 63.6868V62.6868H95.9534L95.7067 63.3273L96.6398 63.6868ZM90.865 70.9304L90.304 70.1026L90.3008 70.1048L90.865 70.9304ZM72.0383 71.331L72.5517 70.4728L72.5517 70.4728L72.0383 71.331ZM65.9296 64.6882L65.0365 65.1382L65.0394 65.1437L65.9296 64.6882ZM63.7265 54.3736L62.7265 54.3736L62.7265 54.3791L63.7265 54.3736ZM63.7265 21.7273V20.7273H62.7265V21.7273H63.7265ZM77.9466 21.7273H78.9466V20.7273H77.9466V21.7273ZM77.9466 51.8366H76.9466L76.9467 51.844L77.9466 51.8366ZM80.3834 59.0135L81.1225 58.3399L81.1225 58.3399L80.3834 59.0135ZM91.6327 60.4822L92.0958 61.3687L92.106 61.3631L91.6327 60.4822ZM95.2378 56.9439L94.3803 56.4294L94.375 56.4385L95.2378 56.9439ZM97.6064 51.169V21.7273H95.6064V51.169H97.6064ZM96.6064 22.7273H110.827V20.7273H96.6064V22.7273ZM109.827 21.7273V73H111.827V21.7273H109.827ZM110.827 72H97.1739V74H110.827V72ZM98.1739 73V63.6868H96.1739V73H98.1739ZM97.1739 62.6868H96.6398V64.6868H97.1739V62.6868ZM95.7067 63.3273C94.6236 66.1391 92.8296 68.391 90.304 70.1026L91.426 71.7582C94.2857 69.8202 96.3416 67.243 97.573 64.0462L95.7067 63.3273ZM90.3008 70.1048C87.8261 71.7958 84.7721 72.6676 81.0844 72.6676V74.6676C85.0966 74.6676 88.5629 73.7147 91.4292 71.756L90.3008 70.1048ZM81.0844 72.6676C77.8142 72.6676 74.9809 71.9262 72.5517 70.4728L71.5248 72.1891C74.303 73.8513 77.5005 74.6676 81.0844 74.6676V72.6676ZM72.5517 70.4728C70.1191 69.0174 68.2088 66.9475 66.8198 64.2327L65.0394 65.1437C66.5879 68.1704 68.75 70.529 71.5248 72.1891L72.5517 70.4728ZM66.8226 64.2382C65.4606 61.5351 64.7481 58.2564 64.7265 54.368L62.7265 54.3791C62.7494 58.5021 63.5056 62.0998 65.0366 65.1382L66.8226 64.2382ZM64.7265 54.3736V21.7273H62.7265V54.3736H64.7265ZM63.7265 22.7273H77.9466V20.7273H63.7265V22.7273ZM76.9466 21.7273V51.8366H78.9466V21.7273H76.9466ZM76.9467 51.844C76.9702 55.0477 77.8344 57.7012 79.6443 59.6871L81.1225 58.3399C79.7279 56.8097 78.9676 54.6786 78.9466 51.8293L76.9467 51.844ZM79.6443 59.6871C81.4621 61.6816 83.893 62.6506 86.8259 62.6506V60.6506C84.3734 60.6506 82.5093 59.8615 81.1225 58.3399L79.6443 59.6871ZM86.8259 62.6506C88.6976 62.6506 90.4591 62.2236 92.0957 61.3686L91.1697 59.5959C89.8244 60.2987 88.3813 60.6506 86.8259 60.6506V62.6506ZM92.106 61.3631C93.7698 60.4692 95.1019 59.1546 96.1007 57.4493L94.375 56.4385C93.549 57.8487 92.4777 58.893 91.1594 59.6014L92.106 61.3631ZM96.0953 57.4584C97.1469 55.7058 97.63 53.5882 97.6064 51.1593L95.6065 51.1787C95.6274 53.3342 95.1981 55.0664 94.3803 56.4294L96.0953 57.4584ZM122.468 73H121.468V74H122.468V73ZM122.468 4.63636V3.63636H121.468V4.63636H122.468ZM136.688 4.63636H137.688V3.63636H136.688V4.63636ZM136.688 30.3395H135.688V31.3395H136.688V30.3395ZM137.122 30.3395V31.3395H137.768L138.034 30.7511L137.122 30.3395ZM139.826 26.1335L139.057 25.4945L139.056 25.4957L139.826 26.1335ZM144.499 22.5284L144.947 23.4228L144.951 23.4208L144.499 22.5284ZM162.058 23.9972L161.531 24.8472L161.535 24.8498L162.058 23.9972ZM169.635 32.7763L168.735 33.2112L168.736 33.2132L169.635 32.7763ZM169.702 61.9176L168.796 61.493L168.795 61.4953L169.702 61.9176ZM162.225 70.8303L162.763 71.6732L162.764 71.6722L162.225 70.8303ZM144.633 72.4659L144.203 73.3686L144.207 73.3705L144.633 72.4659ZM139.926 69.0277L139.173 69.6854L139.178 69.6913L139.926 69.0277ZM137.122 64.7884L138.033 64.3756L137.767 63.7884H137.122V64.7884ZM136.488 64.7884V63.7884H135.488V64.7884H136.488ZM136.488 73V74H137.488V73H136.488ZM141.328 60.6491L140.707 61.4332L140.714 61.4385L141.328 60.6491ZM153.045 60.6158L153.666 61.3998L153.672 61.3945L153.045 60.6158ZM156.683 55.2749L155.745 54.9287L155.743 54.9339L156.683 55.2749ZM156.717 39.5526L157.656 39.2086L157.656 39.2086L156.717 39.5526ZM153.078 34.2784L153.699 33.4944L153.699 33.4944L153.078 34.2784ZM141.295 34.2116L140.688 33.417L140.682 33.4211L141.295 34.2116ZM137.656 39.419L136.72 39.0669L136.72 39.0669L137.656 39.419ZM123.468 73V4.63636H121.468V73H123.468ZM122.468 5.63636H136.688V3.63636H122.468V5.63636ZM135.688 4.63636V30.3395H137.688V4.63636H135.688ZM136.688 31.3395H137.122V29.3395H136.688V31.3395ZM138.034 30.7511C138.613 29.4683 139.462 28.1414 140.596 26.7713L139.056 25.4957C137.832 26.9741 136.878 28.4512 136.211 29.9279L138.034 30.7511ZM140.595 26.7725C141.697 25.4463 143.14 24.3263 144.947 23.4228L144.052 21.634C142.032 22.6443 140.358 23.9278 139.057 25.4945L140.595 26.7725ZM144.951 23.4208C146.709 22.5315 148.947 22.0597 151.71 22.0597V20.0597C148.731 20.0597 146.162 20.567 144.048 21.636L144.951 23.4208ZM151.71 22.0597C155.263 22.0597 158.53 22.9875 161.531 24.8472L162.584 23.1471C159.265 21.0902 155.633 20.0597 151.71 20.0597V22.0597ZM161.535 24.8498C164.505 26.6694 166.912 29.4366 168.735 33.2112L170.536 32.3414C168.575 28.2826 165.93 25.197 162.58 23.1445L161.535 24.8498ZM168.736 33.2132C170.542 36.9318 171.472 41.6555 171.472 47.4304H173.472C173.472 41.4553 172.511 36.4095 170.535 32.3394L168.736 33.2132ZM171.472 47.4304C171.472 53.047 170.565 57.7219 168.796 61.493L170.607 62.3422C172.533 58.2355 173.472 53.2522 173.472 47.4304H171.472ZM168.795 61.4953C167.038 65.2667 164.662 68.0802 161.685 69.9883L162.764 71.6722C166.107 69.5301 168.716 66.4018 170.608 62.3399L168.795 61.4953ZM161.686 69.9873C158.717 71.8827 155.389 72.8345 151.676 72.8345V74.8345C155.752 74.8345 159.456 73.7835 162.763 71.6732L161.686 69.9873ZM151.676 72.8345C149.023 72.8345 146.829 72.3955 145.059 71.5613L144.207 73.3705C146.309 74.3612 148.81 74.8345 151.676 74.8345V72.8345ZM145.063 71.5632C143.252 70.6999 141.797 69.6298 140.674 68.3641L139.178 69.6913C140.503 71.1851 142.186 72.4071 144.203 73.3686L145.063 71.5632ZM140.68 68.37C139.508 67.028 138.631 65.696 138.033 64.3756L136.211 65.2011C136.904 66.7292 137.897 68.2234 139.173 69.6854L140.68 68.37ZM137.122 63.7884H136.488V65.7884H137.122V63.7884ZM135.488 64.7884V73H137.488V64.7884H135.488ZM136.488 72H122.468V74H136.488V72ZM135.388 47.3636C135.388 50.502 135.823 53.2845 136.719 55.6907L138.593 54.9925C137.799 52.859 137.388 50.3228 137.388 47.3636H135.388ZM136.719 55.6907C137.617 58.0998 138.937 60.0319 140.708 61.4332L141.949 59.8651C140.514 58.7295 139.387 57.1233 138.593 54.9925L136.719 55.6907ZM140.714 61.4385C142.515 62.8387 144.686 63.5185 147.17 63.5185V61.5185C145.07 61.5185 143.346 60.952 141.942 59.8598L140.714 61.4385ZM147.17 63.5185C149.678 63.5185 151.863 62.8265 153.666 61.3998L152.424 59.8317C151.022 60.942 149.29 61.5185 147.17 61.5185V63.5185ZM153.672 61.3945C155.44 59.9706 156.749 58.0273 157.623 55.6159L155.743 54.9339C154.971 57.0622 153.854 58.6795 152.418 59.837L153.672 61.3945ZM157.622 55.621C158.516 53.1966 158.952 50.4386 158.952 47.3636H156.952C156.952 50.2527 156.542 52.7688 155.745 54.9287L157.622 55.621ZM158.952 47.3636C158.952 44.3133 158.528 41.589 157.656 39.2086L155.778 39.8965C156.552 42.0114 156.952 44.4945 156.952 47.3636H158.952ZM157.656 39.2086C156.78 36.8178 155.469 34.8957 153.699 33.4944L152.458 35.0625C153.892 36.198 155.007 37.7921 155.778 39.8965L157.656 39.2086ZM153.699 33.4944C151.895 32.0663 149.698 31.3757 147.17 31.3757V33.3757C149.315 33.3757 151.057 33.9536 152.458 35.0625L153.699 33.4944ZM147.17 31.3757C144.67 31.3757 142.49 32.0406 140.688 33.417L141.902 35.0063C143.305 33.9347 145.041 33.3757 147.17 33.3757V31.3757ZM140.682 33.4211C138.929 34.7794 137.618 36.6811 136.72 39.0669L138.592 39.7712C139.386 37.6617 140.501 36.0918 141.907 35.0022L140.682 33.4211ZM136.72 39.0669C135.823 41.4529 135.388 44.2256 135.388 47.3636H137.388C137.388 44.4041 137.799 41.8805 138.592 39.7712L136.72 39.0669ZM224.621 36.348L224.683 37.3461L225.753 37.2803L225.613 36.2171L224.621 36.348ZM211.603 37.1491L210.622 37.3453L210.793 38.2009L211.664 38.1473L211.603 37.1491ZM210.168 34.1449L209.388 34.7719L209.396 34.7813L210.168 34.1449ZM207.263 31.9751L206.837 32.8796L206.847 32.8844L206.857 32.889L207.263 31.9751ZM197.449 32.5426L197.966 33.399L197.975 33.3934L197.449 32.5426ZM196.648 39.3189L195.995 40.0757L195.995 40.0757L196.648 39.3189ZM201.689 41.3551L201.479 42.3329L201.491 42.3354L201.689 41.3551ZM210.969 43.2244L211.17 42.2449L211.166 42.2441L210.969 43.2244ZM222.118 48.1648L221.438 48.898L221.438 48.898L222.118 48.1648ZM222.819 65.9567L222.031 65.3413L222.027 65.3456L222.819 65.9567ZM214.741 71.8984L215.121 72.8231L215.124 72.8219L214.741 71.8984ZM186.734 69.7621L186.155 70.577L186.16 70.5807L186.734 69.7621ZM179.691 58.1456L179.639 57.147L178.548 57.2042L178.701 58.2851L179.691 58.1456ZM193.677 57.4112L194.657 57.2111L194.485 56.3674L193.625 56.4126L193.677 57.4112ZM196.748 62.1513L196.191 62.9816L196.199 62.9868L196.748 62.1513ZM208.999 62.3182L209.534 63.1634L209.537 63.1613L208.999 62.3182ZM211.336 58.5462L212.336 58.5607L212.336 58.5448L212.336 58.5289L211.336 58.5462ZM209.7 55.375L209.079 56.1591L209.09 56.167L209.7 55.375ZM204.76 53.4389L204.956 52.4583L204.955 52.4582L204.76 53.4389ZM195.881 51.6697L195.684 52.6503L195.685 52.6505L195.881 51.6697ZM184.698 46.4624L183.985 47.163L183.988 47.1663L184.698 46.4624ZM183.73 28.5035L182.933 27.9L182.929 27.9047L183.73 28.5035ZM191.307 22.9957L190.94 22.0655L190.938 22.0664L191.307 22.9957ZM218.079 25.1655L217.486 25.9707L217.488 25.9723L218.079 25.1655ZM224.56 35.3499L211.541 36.151L211.664 38.1473L224.683 37.3461L224.56 35.3499ZM212.583 36.953C212.328 35.6757 211.776 34.5237 210.939 33.5085L209.396 34.7813C210.027 35.5464 210.433 36.3972 210.622 37.3453L212.583 36.953ZM210.947 33.5179C210.101 32.4671 208.999 31.652 207.67 31.0613L206.857 32.889C207.932 33.3665 208.766 33.9979 209.389 34.7719L210.947 33.5179ZM207.69 31.0707C206.347 30.4372 204.781 30.1406 203.024 30.1406V32.1406C204.561 32.1406 205.821 32.4004 206.837 32.8796L207.69 31.0707ZM203.024 30.1406C200.679 30.1406 198.629 30.6388 196.924 31.6918L197.975 33.3934C199.297 32.5772 200.962 32.1406 203.024 32.1406V30.1406ZM196.933 31.6862C195.173 32.7472 194.18 34.27 194.18 36.2145H196.18C196.18 35.0879 196.699 34.1628 197.966 33.399L196.933 31.6862ZM194.18 36.2145C194.18 37.7474 194.81 39.0524 195.995 40.0757L197.302 38.5621C196.528 37.894 196.18 37.1295 196.18 36.2145H194.18ZM195.995 40.0757C197.17 41.0905 199.055 41.8117 201.479 42.3328L201.899 40.3774C199.561 39.8748 198.085 39.2386 197.302 38.5621L195.995 40.0757ZM201.491 42.3354L210.771 44.2047L211.166 42.2441L201.886 40.3748L201.491 42.3354ZM210.768 44.204C215.66 45.2087 219.177 46.8014 221.438 48.898L222.798 47.4315C220.163 44.9884 216.247 43.2875 211.17 42.2449L210.768 44.204ZM221.438 48.898C223.659 50.9574 224.79 53.662 224.79 57.1108H226.79C226.79 53.1713 225.473 49.9119 222.798 47.4315L221.438 48.898ZM224.79 57.1108C224.79 60.2587 223.868 62.9883 222.031 65.3413L223.607 66.5721C225.731 63.8512 226.79 60.6835 226.79 57.1108H224.79ZM222.027 65.3456C220.191 67.7242 217.649 69.6069 214.357 70.975L215.124 72.8219C218.687 71.3415 221.53 69.263 223.61 66.5677L222.027 65.3456ZM214.36 70.9738C211.098 72.3168 207.304 73.0014 202.957 73.0014V75.0014C207.512 75.0014 211.573 74.2841 215.121 72.8231L214.36 70.9738ZM202.957 73.0014C196.3 73.0014 191.115 71.6145 187.309 68.9435L186.16 70.5807C190.409 73.5621 196.04 75.0014 202.957 75.0014V73.0014ZM187.314 68.9471C183.533 66.2589 181.333 62.6317 180.681 58.0061L178.701 58.2851C179.429 63.4511 181.924 67.5683 186.155 70.577L187.314 68.9471ZM179.743 59.1442L193.73 58.4098L193.625 56.4126L179.639 57.147L179.743 59.1442ZM192.698 57.6114C193.168 59.9158 194.33 61.7324 196.191 62.9816L197.306 61.321C195.918 60.3893 195.032 59.0459 194.657 57.2111L192.698 57.6114ZM196.199 62.9868C198.03 64.1905 200.317 64.7536 202.991 64.7536V62.7536C200.59 62.7536 198.716 62.2484 197.298 61.3157L196.199 62.9868ZM202.991 64.7536C205.601 64.7536 207.809 64.2537 209.534 63.1634L208.465 61.473C207.162 62.2965 205.365 62.7536 202.991 62.7536V64.7536ZM209.537 63.1613C211.295 62.0402 212.308 60.499 212.336 58.5607L210.336 58.5317C210.32 59.6644 209.774 60.6379 208.462 61.475L209.537 63.1613ZM212.336 58.5289C212.308 56.9188 211.607 55.5824 210.311 54.583L209.09 56.167C209.93 56.8144 210.319 57.5921 210.336 58.5634L212.336 58.5289ZM210.321 54.591C209.072 53.6025 207.246 52.9163 204.956 52.4583L204.564 54.4195C206.725 54.8517 208.192 55.4563 209.079 56.159L210.321 54.591ZM204.955 52.4582L196.076 50.689L195.685 52.6505L204.564 54.4196L204.955 52.4582ZM196.077 50.6892C191.178 49.7095 187.665 48.0355 185.408 45.7585L183.988 47.1663C186.627 49.8296 190.569 51.6272 195.684 52.6503L196.077 50.6892ZM185.412 45.7617C183.19 43.4991 182.06 40.6115 182.06 37.0156H180.06C180.06 41.0751 181.355 44.4853 183.985 47.163L185.412 45.7617ZM182.06 37.0156C182.06 33.9134 182.894 31.292 184.531 29.1024L182.929 27.9047C181.006 30.4774 180.06 33.5307 180.06 37.0156H182.06ZM184.527 29.1071C186.202 26.8949 188.568 25.16 191.677 23.9251L190.938 22.0664C187.549 23.4129 184.863 25.3499 182.933 27.9L184.527 29.1071ZM191.674 23.9259C194.804 22.6912 198.502 22.0597 202.79 22.0597V20.0597C198.311 20.0597 194.353 20.7189 190.94 22.0655L191.674 23.9259ZM202.79 22.0597C209.137 22.0597 213.998 23.4019 217.486 25.9707L218.672 24.3603C214.727 21.4546 209.396 20.0597 202.79 20.0597V22.0597ZM217.488 25.9723C221 28.5435 223.042 32.0234 223.63 36.4789L225.613 36.2171C224.955 31.237 222.635 27.2619 218.669 24.3586L217.488 25.9723ZM244.358 70.6634L243.845 71.5218L243.851 71.5253L244.358 70.6634ZM235.679 61.3168L234.785 61.766L234.787 61.7699L235.679 61.3168ZM235.712 33.7443L234.823 33.2872L234.822 33.2891L235.712 33.7443ZM244.424 24.4311L244.934 25.2917L244.937 25.2895L244.424 24.4311ZM269.593 23.4964L270.029 22.5961L270.029 22.5961L269.593 23.4964ZM277.571 30.3395L276.739 30.8942L277.571 30.3395ZM280.809 40.6875V41.6875H281.861L281.808 40.637L280.809 40.6875ZM267.39 40.6875L266.401 40.8337L266.527 41.6875H267.39V40.6875ZM264.386 34.5121L263.684 35.2242L263.694 35.2339L264.386 34.5121ZM252.302 33.9446L252.89 34.7538L252.892 34.7524L252.302 33.9446ZM248.464 55.7088L247.531 56.0708L247.534 56.0786L248.464 55.7088ZM252.302 60.9496L252.892 60.1418L252.892 60.1418L252.302 60.9496ZM262.45 61.7507L261.997 60.8593L261.991 60.8625L262.45 61.7507ZM265.688 58.8466L264.858 58.2886L264.856 58.2919L265.688 58.8466ZM267.39 54.2067V53.2067H266.528L266.401 54.0601L267.39 54.2067ZM280.809 54.2067L281.808 54.2634L281.868 53.2067H280.809V54.2067ZM277.605 64.5547L276.763 64.0146L276.762 64.0162L277.605 64.5547ZM269.76 71.4979L269.313 70.6034L269.313 70.6034L269.76 71.4979ZM257.91 73.0014C252.801 73.0014 248.466 71.9201 244.865 69.8014L243.851 71.5253C247.815 73.8574 252.515 75.0014 257.91 75.0014V73.0014ZM244.871 69.805C241.275 67.6561 238.512 64.6825 236.57 60.8636L234.787 61.7699C236.896 65.9179 239.919 69.1754 243.845 71.5217L244.871 69.805ZM236.572 60.8676C234.65 57.0446 233.674 52.6185 233.674 47.5639H231.674C231.674 52.8796 232.702 57.6221 234.785 61.766L236.572 60.8676ZM233.674 47.5639C233.674 42.4418 234.661 37.9964 236.602 34.1995L234.822 33.2891C232.713 37.4145 231.674 42.1822 231.674 47.5639H233.674ZM236.601 34.2014C238.565 30.3812 241.339 27.4186 244.934 25.2917L243.915 23.5705C239.988 25.8943 236.954 29.1405 234.823 33.2872L236.601 34.2014ZM244.937 25.2895C248.517 23.1503 252.806 22.0597 257.843 22.0597V20.0597C252.511 20.0597 247.854 21.2166 243.911 23.5727L244.937 25.2895ZM257.843 22.0597C262.195 22.0597 265.958 22.8496 269.158 24.3968L270.029 22.5961C266.508 20.8943 262.438 20.0597 257.843 20.0597V22.0597ZM269.158 24.3968C272.367 25.9482 274.886 28.1138 276.739 30.8942L278.404 29.7848C276.34 26.6901 273.54 24.2938 270.029 22.5961L269.158 24.3968ZM276.739 30.8942C278.586 33.6638 279.618 36.9341 279.811 40.738L281.808 40.637C281.6 36.5186 280.474 32.8901 278.404 29.7848L276.739 30.8942ZM280.809 39.6875H267.39V41.6875H280.809V39.6875ZM268.38 40.5413C267.974 37.7969 266.886 35.524 265.078 33.7903L263.694 35.2339C265.135 36.6157 266.05 38.4597 266.401 40.8337L268.38 40.5413ZM265.088 33.8C263.269 32.0064 260.899 31.142 258.077 31.142V33.142C260.463 33.142 262.298 33.8577 263.684 35.2241L265.088 33.8ZM258.077 31.142C255.68 31.142 253.545 31.8 251.713 33.1368L252.892 34.7524C254.353 33.6858 256.068 33.142 258.077 33.142V31.142ZM251.715 33.1354C249.908 34.4473 248.536 36.3395 247.569 38.7456L249.425 39.4916C250.282 37.3579 251.448 35.8008 252.89 34.7538L251.715 33.1354ZM247.569 38.7456C246.596 41.1653 246.128 44.0477 246.128 47.3636H248.128C248.128 44.226 248.573 41.6117 249.425 39.4916L247.569 38.7456ZM246.128 47.3636C246.128 50.7202 246.584 53.632 247.531 56.0708L249.396 55.3468C248.562 53.2013 248.128 50.5497 248.128 47.3636H246.128ZM247.534 56.0786C248.502 58.5088 249.885 60.4232 251.713 61.7574L252.892 60.1418C251.426 59.0725 250.25 57.4931 249.393 55.339L247.534 56.0786ZM251.713 61.7574C253.545 63.0942 255.68 63.7521 258.077 63.7521V61.7521C256.068 61.7521 254.353 61.2083 252.892 60.1418L251.713 61.7574ZM258.077 63.7521C259.842 63.7521 261.461 63.3883 262.909 62.6389L261.991 60.8625C260.858 61.4484 259.561 61.7521 258.077 61.7521V63.7521ZM262.903 62.6421C264.375 61.8939 265.583 60.8074 266.52 59.4013L264.856 58.2919C264.102 59.4227 263.151 60.2723 261.997 60.8593L262.903 62.6421ZM266.518 59.4046C267.482 57.9708 268.094 56.278 268.38 54.3532L266.401 54.0601C266.152 55.7405 265.63 57.1409 264.858 58.2886L266.518 59.4046ZM267.39 55.2067H280.809V53.2067H267.39V55.2067ZM279.811 54.1499C279.597 57.9135 278.574 61.1926 276.763 64.0146L278.446 65.0948C280.463 61.9528 281.577 58.3332 281.808 54.2634L279.811 54.1499ZM276.762 64.0162C274.974 66.8142 272.5 69.0099 269.313 70.6034L270.208 72.3923C273.697 70.6478 276.453 68.2147 278.447 65.0932L276.762 64.0162ZM269.313 70.6034C266.141 72.1893 262.351 73.0014 257.91 73.0014V75.0014C262.594 75.0014 266.703 74.1445 270.208 72.3923L269.313 70.6034ZM289.914 73H288.914V74H289.914V73ZM289.914 21.7273V20.7273H288.914V21.7273H289.914ZM303.7 21.7273H304.7V20.7273H303.7V21.7273ZM303.7 30.6733H302.7V31.6733H303.7V30.6733ZM304.234 30.6733V31.6733H304.983L305.194 30.9551L304.234 30.6733ZM308.941 23.4631L309.534 24.2679L309.54 24.264L308.941 23.4631ZM318.855 21.1264L318.963 20.1322L318.963 20.1322L318.855 21.1264ZM321.025 21.4936H322.025V20.7128L321.267 20.5235L321.025 21.4936ZM321.025 34.1115L320.737 35.0693L322.025 35.4555V34.1115H321.025ZM309.408 34.7124L309.889 35.5893L309.893 35.5871L309.408 34.7124ZM305.536 38.451L304.678 37.9382L304.672 37.9471L305.536 38.451ZM304.134 73V74H305.134V73H304.134ZM290.914 73V21.7273H288.914V73H290.914ZM289.914 22.7273H303.7V20.7273H289.914V22.7273ZM302.7 21.7273V30.6733H304.7V21.7273H302.7ZM303.7 31.6733H304.234V29.6733H303.7V31.6733ZM305.194 30.9551C306.08 27.9369 307.542 25.7372 309.534 24.2679L308.347 22.6582C305.934 24.438 304.258 27.0451 303.275 30.3915L305.194 30.9551ZM309.54 24.264C311.562 22.7524 313.887 21.9929 316.552 21.9929V19.9929C313.475 19.9929 310.726 20.8802 308.342 22.6621L309.54 24.264ZM316.552 21.9929C317.223 21.9929 317.954 22.0349 318.748 22.1206L318.963 20.1322C318.109 20.0399 317.305 19.9929 316.552 19.9929V21.9929ZM318.748 22.1206C319.538 22.206 320.214 22.3217 320.782 22.4637L321.267 20.5235C320.589 20.3539 319.819 20.2248 318.963 20.1322L318.748 22.1206ZM320.025 21.4936V34.1115H322.025V21.4936H320.025ZM321.312 33.1537C320.57 32.931 319.586 32.7446 318.385 32.586L318.123 34.5688C319.281 34.7217 320.144 34.8914 320.737 35.0693L321.312 33.1537ZM318.385 32.586C317.171 32.4257 316.047 32.3438 315.016 32.3438V34.3438C315.944 34.3438 316.978 34.4176 318.123 34.5688L318.385 32.586ZM315.016 32.3438C312.774 32.3438 310.735 32.8342 308.924 33.8376L309.893 35.5871C311.375 34.7657 313.075 34.3438 315.016 34.3438V32.3438ZM308.928 33.8354C307.146 34.8118 305.725 36.1843 304.678 37.9383L306.395 38.9637C307.261 37.5132 308.422 36.3932 309.889 35.5893L308.928 33.8354ZM304.672 37.9471C303.638 39.7211 303.134 41.7464 303.134 43.9922H305.134C305.134 42.0543 305.565 40.3854 306.4 38.9549L304.672 37.9471ZM303.134 43.9922V73H305.134V43.9922H303.134ZM304.134 72H289.914V74H304.134V72ZM328.377 73H327.377V74H328.377V73ZM328.377 21.7273V20.7273H327.377V21.7273H328.377ZM342.597 21.7273H343.597V20.7273H342.597V21.7273ZM342.597 73V74H343.597V73H342.597ZM330.079 13.0149L329.389 13.738L329.394 13.7433L329.4 13.7485L330.079 13.0149ZM330.079 2.86719L330.764 3.59571L330.765 3.59539L330.079 2.86719ZM340.928 2.86719L340.237 3.5903L340.243 3.59557L340.248 3.60075L340.928 2.86719ZM340.928 13.0149L341.613 13.7434L341.613 13.7431L340.928 13.0149ZM329.377 73V21.7273H327.377V73H329.377ZM328.377 22.7273H342.597V20.7273H328.377V22.7273ZM341.597 21.7273V73H343.597V21.7273H341.597ZM342.597 72H328.377V74H342.597V72ZM335.52 14.1179C333.651 14.1179 332.082 13.5074 330.759 12.2813L329.4 13.7485C331.103 15.3264 333.161 16.1179 335.52 16.1179V14.1179ZM330.77 12.2918C329.467 11.0475 328.843 9.60274 328.843 7.90767H326.843C326.843 10.1738 327.709 12.1338 329.389 13.738L330.77 12.2918ZM328.843 7.90767C328.843 6.23892 329.464 4.81829 330.764 3.59571L329.394 2.13867C327.712 3.72006 326.843 5.65975 326.843 7.90767H328.843ZM330.765 3.59539C332.089 2.34906 333.656 1.73082 335.52 1.73082V-0.26918C333.156 -0.26918 331.096 0.536821 329.394 2.13899L330.765 3.59539ZM335.52 1.73082C337.384 1.73082 338.937 2.34871 340.237 3.5903L341.619 2.14408C339.937 0.537175 337.884 -0.26918 335.52 -0.26918V1.73082ZM340.248 3.60075C341.57 4.82486 342.198 6.2441 342.198 7.90767H344.198C344.198 5.65457 343.313 3.71349 341.608 2.13363L340.248 3.60075ZM342.198 7.90767C342.198 9.59763 341.566 11.041 340.243 12.2867L341.613 13.7431C343.316 12.1403 344.198 10.1789 344.198 7.90767H342.198ZM340.243 12.2864C338.944 13.5077 337.389 14.1179 335.52 14.1179V16.1179C337.88 16.1179 339.93 15.3261 341.613 13.7434L340.243 12.2864ZM354.255 73H353.255V74H354.255V73ZM354.255 4.63636V3.63636H353.255V4.63636H354.255ZM368.475 4.63636H369.475V3.63636H368.475V4.63636ZM368.475 30.3395H367.475V31.3395H368.475V30.3395ZM368.909 30.3395V31.3395H369.555L369.821 30.7511L368.909 30.3395ZM371.613 26.1335L370.844 25.4945L370.843 25.4957L371.613 26.1335ZM376.286 22.5284L376.734 23.4228L376.738 23.4208L376.286 22.5284ZM393.845 23.9972L393.318 24.8472L393.322 24.8498L393.845 23.9972ZM401.422 32.7763L400.522 33.2112L400.523 33.2132L401.422 32.7763ZM401.489 61.9176L400.584 61.493L400.582 61.4953L401.489 61.9176ZM394.012 70.8303L394.55 71.6732L394.551 71.6722L394.012 70.8303ZM376.42 72.4659L375.99 73.3686L375.994 73.3705L376.42 72.4659ZM371.713 69.0277L370.96 69.6854L370.965 69.6913L371.713 69.0277ZM368.909 64.7884L369.82 64.3756L369.554 63.7884H368.909V64.7884ZM368.275 64.7884V63.7884H367.275V64.7884H368.275ZM368.275 73V74H369.275V73H368.275ZM373.115 60.6491L372.495 61.4332L372.501 61.4385L373.115 60.6491ZM384.832 60.6158L385.453 61.3998L385.459 61.3945L384.832 60.6158ZM388.47 55.2749L387.532 54.9287L387.53 54.9339L388.47 55.2749ZM388.504 39.5526L389.443 39.2086L389.443 39.2086L388.504 39.5526ZM384.865 34.2784L385.486 33.4944L385.486 33.4944L384.865 34.2784ZM373.082 34.2116L372.475 33.417L372.47 33.4211L373.082 34.2116ZM369.443 39.419L368.508 39.0669L368.508 39.0669L369.443 39.419ZM355.255 73V4.63636H353.255V73H355.255ZM354.255 5.63636H368.475V3.63636H354.255V5.63636ZM367.475 4.63636V30.3395H369.475V4.63636H367.475ZM368.475 31.3395H368.909V29.3395H368.475V31.3395ZM369.821 30.7511C370.4 29.4683 371.249 28.1414 372.383 26.7713L370.843 25.4957C369.619 26.9741 368.665 28.4512 367.998 29.9279L369.821 30.7511ZM372.382 26.7725C373.484 25.4463 374.927 24.3263 376.734 23.4228L375.839 21.634C373.819 22.6443 372.146 23.9278 370.844 25.4945L372.382 26.7725ZM376.738 23.4208C378.496 22.5315 380.734 22.0597 383.497 22.0597V20.0597C380.518 20.0597 377.949 20.567 375.835 21.636L376.738 23.4208ZM383.497 22.0597C387.05 22.0597 390.317 22.9875 393.318 24.8472L394.371 23.1471C391.052 21.0902 387.42 20.0597 383.497 20.0597V22.0597ZM393.322 24.8498C396.292 26.6694 398.699 29.4366 400.522 33.2112L402.323 32.3414C400.362 28.2826 397.717 25.197 394.367 23.1445L393.322 24.8498ZM400.523 33.2132C402.329 36.9318 403.26 41.6555 403.26 47.4304H405.26C405.26 41.4553 404.299 36.4095 402.322 32.3394L400.523 33.2132ZM403.26 47.4304C403.26 53.047 402.352 57.7219 400.584 61.493L402.394 62.3422C404.32 58.2355 405.26 53.2522 405.26 47.4304H403.26ZM400.582 61.4953C398.825 65.2667 396.45 68.0802 393.472 69.9883L394.551 71.6722C397.894 69.5301 400.503 66.4018 402.395 62.3399L400.582 61.4953ZM393.474 69.9873C390.504 71.8827 387.176 72.8345 383.463 72.8345V74.8345C387.539 74.8345 391.244 73.7835 394.55 71.6732L393.474 69.9873ZM383.463 72.8345C380.81 72.8345 378.616 72.3955 376.846 71.5613L375.994 73.3705C378.096 74.3612 380.598 74.8345 383.463 74.8345V72.8345ZM376.85 71.5632C375.039 70.6999 373.584 69.6298 372.461 68.3641L370.965 69.6913C372.29 71.1851 373.973 72.4071 375.99 73.3686L376.85 71.5632ZM372.467 68.37C371.295 67.028 370.418 65.696 369.82 64.3756L367.999 65.2011C368.691 66.7292 369.684 68.2234 370.96 69.6854L372.467 68.37ZM368.909 63.7884H368.275V65.7884H368.909V63.7884ZM367.275 64.7884V73H369.275V64.7884H367.275ZM368.275 72H354.255V74H368.275V72ZM367.175 47.3636C367.175 50.502 367.61 53.2845 368.506 55.6907L370.381 54.9925C369.586 52.859 369.175 50.3228 369.175 47.3636H367.175ZM368.506 55.6907C369.404 58.0998 370.725 60.0319 372.495 61.4332L373.736 59.8651C372.302 58.7295 371.174 57.1233 370.381 54.9925L368.506 55.6907ZM372.501 61.4385C374.302 62.8387 376.473 63.5185 378.957 63.5185V61.5185C376.857 61.5185 375.134 60.952 373.729 59.8598L372.501 61.4385ZM378.957 63.5185C381.465 63.5185 383.651 62.8265 385.453 61.3998L384.211 59.8317C382.809 60.942 381.077 61.5185 378.957 61.5185V63.5185ZM385.459 61.3945C387.227 59.9706 388.536 58.0273 389.411 55.6159L387.53 54.9339C386.758 57.0622 385.642 58.6795 384.205 59.837L385.459 61.3945ZM389.409 55.621C390.303 53.1966 390.739 50.4386 390.739 47.3636H388.739C388.739 50.2527 388.329 52.7688 387.532 54.9287L389.409 55.621ZM390.739 47.3636C390.739 44.3133 390.315 41.589 389.443 39.2086L387.565 39.8965C388.34 42.0114 388.739 44.4945 388.739 47.3636H390.739ZM389.443 39.2086C388.567 36.8178 387.256 34.8957 385.486 33.4944L384.245 35.0625C385.679 36.198 386.794 37.7921 387.565 39.8965L389.443 39.2086ZM385.486 33.4944C383.682 32.0663 381.485 31.3757 378.957 31.3757V33.3757C381.102 33.3757 382.844 33.9536 384.245 35.0625L385.486 33.4944ZM378.957 31.3757C376.457 31.3757 374.277 32.0406 372.475 33.417L373.689 35.0063C375.092 33.9347 376.828 33.3757 378.957 33.3757V31.3757ZM372.47 33.4211C370.716 34.7794 369.405 36.6811 368.508 39.0669L370.379 39.7712C371.173 37.6617 372.288 36.0918 373.694 35.0022L372.47 33.4211ZM368.508 39.0669C367.61 41.4529 367.175 44.2256 367.175 47.3636H369.175C369.175 44.4041 369.586 41.8805 370.379 39.7712L368.508 39.0669ZM423.495 70.7969L423 71.6655L423.006 71.6689L423.495 70.7969ZM414.749 61.6506L413.861 62.1097L413.862 62.1118L414.749 61.6506ZM414.749 33.7109L413.86 33.2538L413.86 33.2538L414.749 33.7109ZM423.395 24.3977L422.883 23.5384L422.881 23.5398L423.395 24.3977ZM445.994 22.6953L445.643 23.632L445.652 23.6351L445.994 22.6953ZM453.671 27.5355L452.968 28.2462L452.971 28.2498L453.671 27.5355ZM458.812 35.6804L457.875 36.0308L457.876 36.0329L458.812 35.6804ZM460.648 51.0021V52.0021H461.648V51.0021H460.648ZM417.353 51.0021H416.353V52.0021H417.353V51.0021ZM417.353 42.1896V41.1896H416.353V42.1896H417.353ZM447.262 42.1896V43.1896H448.262V42.1896H447.262ZM445.927 36.7486L445.056 37.2394L445.056 37.2394L445.927 36.7486ZM442.222 33.0433L441.716 33.9062L441.724 33.9104L441.731 33.9146L442.222 33.0433ZM431.039 33.1768L431.55 34.0364L431.554 34.0343L431.039 33.1768ZM427.167 37.1491L428.037 37.6428L428.039 37.6377L427.167 37.1491ZM425.732 42.657L424.732 42.646V42.657H425.732ZM427.134 57.6115L426.241 58.063L426.246 58.0715L427.134 57.6115ZM441.688 62.7188L441.367 61.7717L441.367 61.7717L441.688 62.7188ZM445.059 60.7159L444.369 59.9918L444.369 59.9918L445.059 60.7159ZM447.195 57.4446L447.261 56.4468L446.523 56.398L446.26 57.0899L447.195 57.4446ZM460.347 58.3125L461.326 58.5192L461.564 57.3906L460.413 57.3147L460.347 58.3125ZM456.242 66.5909L455.49 65.9314L455.489 65.9319L456.242 66.5909ZM448.297 72.0653L448.668 72.9938L448.672 72.9925L448.297 72.0653ZM437.114 73.0014C431.976 73.0014 427.612 71.9615 423.985 69.9249L423.006 71.6689C426.989 73.905 431.704 75.0014 437.114 75.0014V73.0014ZM423.991 69.9283C420.378 67.8669 417.597 64.9611 415.637 61.1894L413.862 62.1118C415.996 66.2178 419.046 69.4096 423 71.6654L423.991 69.9283ZM415.638 61.1914C413.678 57.3993 412.678 52.8788 412.678 47.5973H410.678C410.678 53.1311 411.726 57.9795 413.861 62.1097L415.638 61.1914ZM412.678 47.5973C412.678 42.454 413.676 37.987 415.639 34.1681L413.86 33.2538C411.728 37.4017 410.678 42.1923 410.678 47.5973H412.678ZM415.639 34.1681C417.604 30.3448 420.358 27.3818 423.909 25.2557L422.881 23.5398C418.999 25.8644 415.99 29.1103 413.86 33.2538L415.639 34.1681ZM423.906 25.257C427.468 23.1373 431.669 22.0597 436.547 22.0597V20.0597C431.366 20.0597 426.8 21.2074 422.883 23.5384L423.906 25.257ZM436.547 22.0597C439.82 22.0597 442.85 22.5869 445.643 23.6319L446.344 21.7587C443.307 20.6228 440.039 20.0597 436.547 20.0597V22.0597ZM445.652 23.6351C448.456 24.6549 450.891 26.1911 452.968 28.2462L454.375 26.8248C452.089 24.5627 449.406 22.8721 446.335 21.7555L445.652 23.6351ZM452.971 28.2498C455.057 30.2931 456.696 32.8785 457.875 36.0308L459.748 35.33C458.48 31.9397 456.692 29.0951 454.371 26.8212L452.971 28.2498ZM457.876 36.0329C459.048 39.1446 459.648 42.8256 459.648 47.0966H461.648C461.648 42.6441 461.023 38.7143 459.748 35.3279L457.876 36.0329ZM459.648 47.0966V51.0021H461.648V47.0966H459.648ZM460.648 50.0021H417.353V52.0021H460.648V50.0021ZM418.353 51.0021V42.1896H416.353V51.0021H418.353ZM417.353 43.1896H447.262V41.1896H417.353V43.1896ZM448.262 42.1896C448.262 39.9929 447.783 38.0061 446.798 36.2577L445.056 37.2394C445.851 38.6511 446.262 40.2917 446.262 42.1896H448.262ZM446.798 36.2577C445.818 34.5185 444.452 33.1519 442.713 32.1721L441.731 33.9146C443.152 34.715 444.255 35.8186 445.056 37.2394L446.798 36.2577ZM442.727 32.1804C440.995 31.1658 439.001 30.6747 436.781 30.6747V32.6747C438.699 32.6747 440.333 33.0961 441.716 33.9062L442.727 32.1804ZM436.781 30.6747C434.461 30.6747 432.366 31.2148 430.525 32.3194L431.554 34.0343C433.051 33.1361 434.783 32.6747 436.781 32.6747V30.6747ZM430.528 32.3173C428.731 33.3861 427.315 34.838 426.294 36.6605L428.039 37.6377C428.888 36.1222 430.054 34.9259 431.55 34.0364L430.528 32.3173ZM426.297 36.6555C425.273 38.4598 424.756 40.4637 424.732 42.646L426.732 42.6679C426.752 40.8 427.191 39.1321 428.037 37.6428L426.297 36.6555ZM424.732 42.657V51.0355H426.732V42.657H424.732ZM424.732 51.0355C424.732 53.6945 425.222 56.0479 426.241 58.063L428.026 57.16C427.176 55.481 426.732 53.4504 426.732 51.0355H424.732ZM426.246 58.0715C427.287 60.0815 428.765 61.6497 430.673 62.7504L431.672 61.018C430.109 60.1159 428.894 58.8357 428.022 57.1515L426.246 58.0715ZM430.673 62.7504C432.587 63.8547 434.825 64.3864 437.348 64.3864V62.3864C435.109 62.3864 433.23 61.9166 431.672 61.018L430.673 62.7504ZM437.348 64.3864C439.022 64.3864 440.579 64.1505 442.009 63.6658L441.367 61.7717C440.17 62.1772 438.834 62.3864 437.348 62.3864V64.3864ZM442.009 63.6658C443.449 63.1776 444.701 62.4377 445.749 61.44L444.369 59.9918C443.548 60.7744 442.552 61.3697 441.367 61.7717L442.009 63.6658ZM445.749 61.44C446.799 60.4396 447.591 59.22 448.13 57.7993L446.26 57.0899C445.82 58.2506 445.188 59.2119 444.369 59.9918L445.749 61.44ZM447.13 58.4424L460.282 59.3103L460.413 57.3147L447.261 56.4468L447.13 58.4424ZM459.369 58.1058C458.736 61.1031 457.443 63.7054 455.49 65.9314L456.993 67.2504C459.179 64.7587 460.624 61.842 461.326 58.5192L459.369 58.1058ZM455.489 65.9319C453.558 68.1366 451.045 69.8763 447.922 71.1382L448.672 72.9925C452.047 71.6285 454.831 69.7186 456.994 67.2499L455.489 65.9319ZM447.926 71.1369C444.839 72.3713 441.242 73.0014 437.114 73.0014V75.0014C441.443 75.0014 445.301 74.3408 448.668 72.9938L447.926 71.1369ZM519.256 21.7273H520.256V20.7273H519.256V21.7273ZM519.256 32.4091V33.4091H520.256V32.4091H519.256ZM487.611 32.4091H486.611V33.4091H487.611V32.4091ZM487.611 21.7273V20.7273H486.611V21.7273H487.611ZM494.855 73H493.855V74H494.855V73ZM497.024 8.77556L496.167 8.26106L496.163 8.26683L497.024 8.77556ZM503.033 3.26775L502.598 2.36709L502.598 2.36709L503.033 3.26775ZM517.654 1.93253L517.472 2.91581L517.474 2.91621L517.654 1.93253ZM521.726 2.83381L522.699 3.06488L522.917 2.14705L522.013 1.87598L521.726 2.83381ZM519.189 13.5156L518.884 14.468L519.913 14.7971L520.162 13.7467L519.189 13.5156ZM517.12 13.0149L516.929 13.9965L516.934 13.9975L517.12 13.0149ZM510.277 14.25L511.035 14.9023L511.042 14.8936L510.277 14.25ZM509.041 73V74H510.041V73H509.041ZM518.256 21.7273V32.4091H520.256V21.7273H518.256ZM519.256 31.4091H487.611V33.4091H519.256V31.4091ZM488.611 32.4091V21.7273H486.611V32.4091H488.611ZM487.611 22.7273H519.256V20.7273H487.611V22.7273ZM495.855 73V18.022H493.855V73H495.855ZM495.855 18.022C495.855 14.431 496.554 11.5377 497.885 9.28429L496.163 8.26683C494.602 10.9092 493.855 14.1803 493.855 18.022H495.855ZM497.882 9.29006C499.252 7.00695 501.109 5.30643 503.467 4.16841L502.598 2.36709C499.883 3.67699 497.735 5.64834 496.167 8.26107L497.882 9.29006ZM503.467 4.16841C505.85 3.01874 508.58 2.43181 511.679 2.43181V0.431814C508.323 0.431814 505.289 1.06885 502.598 2.36709L503.467 4.16841ZM511.679 2.43181C513.809 2.43181 515.739 2.59498 517.472 2.91581L517.836 0.949246C515.963 0.60246 513.909 0.431814 511.679 0.431814V2.43181ZM517.474 2.91621C519.29 3.24853 520.604 3.54106 521.439 3.79163L522.013 1.87598C521.068 1.59246 519.667 1.28413 517.834 0.94885L517.474 2.91621ZM520.753 2.60273L518.216 13.2846L520.162 13.7467L522.699 3.06488L520.753 2.60273ZM519.494 12.5632C518.886 12.3686 518.153 12.1928 517.305 12.0323L516.934 13.9975C517.733 14.1486 518.38 14.3066 518.884 14.468L519.494 12.5632ZM517.31 12.0333C516.444 11.8649 515.557 11.7812 514.649 11.7812V13.7812C515.433 13.7812 516.193 13.8534 516.929 13.9965L517.31 12.0333ZM514.649 11.7812C512.446 11.7812 510.617 12.2908 509.511 13.6064L511.042 14.8936C511.582 14.2509 512.669 13.7812 514.649 13.7812V11.7812ZM509.519 13.5978C508.489 14.7942 508.041 16.4036 508.041 18.2891H510.041C510.041 16.7029 510.417 15.6196 511.035 14.9022L509.519 13.5978ZM508.041 18.2891V73H510.041V18.2891H508.041ZM509.041 72H494.855V74H509.041V72ZM535.821 70.6967L535.312 71.5574L535.318 71.5609L535.821 70.6967ZM527.109 61.4169L526.219 61.874L526.22 61.8761L527.109 61.4169ZM527.109 33.6776L527.997 34.1367L527.998 34.1347L527.109 33.6776ZM535.821 24.3977L536.327 25.2606L536.328 25.2597L535.821 24.3977ZM562.693 24.3977L562.183 25.2584L562.189 25.2619L562.693 24.3977ZM571.438 33.6776L570.549 34.1347L570.55 34.1367L571.438 33.6776ZM571.438 61.4169L572.327 61.8761L572.328 61.874L571.438 61.4169ZM562.693 70.6967L563.198 71.5596L563.2 71.5587L562.693 70.6967ZM555.249 60.983L555.894 61.7468L555.9 61.7415L555.249 60.983ZM558.82 55.4418L557.877 55.1094L557.874 55.1174L558.82 55.4418ZM558.82 39.4858L557.874 39.8101L557.877 39.8181L558.82 39.4858ZM543.332 33.9446L542.691 33.1772L542.685 33.1816L543.332 33.9446ZM539.693 39.4858L538.75 39.1534L538.747 39.1615L539.693 39.4858ZM539.693 55.4418L538.747 55.7661L538.75 55.7741L539.693 55.4418ZM543.332 60.983L542.685 61.7459L542.691 61.7508L542.697 61.7555L543.332 60.983ZM549.274 73.0014C544.232 73.0014 539.929 71.9316 536.324 69.8326L535.318 71.5609C539.28 73.8681 543.944 75.0014 549.274 75.0014V73.0014ZM536.33 69.8361C532.734 67.7084 529.96 64.7558 527.997 60.9578L526.22 61.8761C528.352 66.0004 531.386 69.2344 535.312 71.5574L536.33 69.8361ZM527.998 60.9598C526.035 57.1403 525.038 52.6842 525.038 47.5639H523.038C523.038 52.9474 524.088 57.7267 526.219 61.874L527.998 60.9598ZM525.038 47.5639C525.038 42.3974 526.036 37.9316 527.997 34.1367L526.22 33.2184C524.087 37.3459 523.038 42.1376 523.038 47.5639H525.038ZM527.998 34.1347C529.961 30.3153 532.734 27.3649 536.327 25.2606L535.316 23.5349C531.386 25.8368 528.351 29.073 526.219 33.2204L527.998 34.1347ZM536.328 25.2597C539.932 23.1399 544.234 22.0597 549.274 22.0597V20.0597C543.943 20.0597 539.277 21.2048 535.314 23.5358L536.328 25.2597ZM549.274 22.0597C554.313 22.0597 558.603 23.1399 562.183 25.2583L563.202 23.5371C559.26 21.2048 554.604 20.0597 549.274 20.0597V22.0597ZM562.189 25.2619C565.804 27.3666 568.587 30.3169 570.549 34.1347L572.328 33.2204C570.195 29.0714 567.148 25.8351 563.196 23.5336L562.189 25.2619ZM570.55 34.1367C572.511 37.9316 573.509 42.3974 573.509 47.5639H575.509C575.509 42.1376 574.46 37.3459 572.327 33.2184L570.55 34.1367ZM573.509 47.5639C573.509 52.6842 572.512 57.1403 570.549 60.9598L572.328 61.874C574.459 57.7267 575.509 52.9474 575.509 47.5639H573.509ZM570.55 60.9578C568.588 64.7542 565.803 67.7066 562.186 69.8348L563.2 71.5587C567.148 69.2361 570.194 66.0019 572.327 61.8761L570.55 60.9578ZM562.187 69.8339C558.606 71.9315 554.315 73.0014 549.274 73.0014V75.0014C554.602 75.0014 559.257 73.8682 563.198 71.5596L562.187 69.8339ZM549.34 63.9858C551.9 63.9858 554.108 63.2558 555.894 61.7467L554.603 60.2192C553.229 61.3806 551.498 61.9858 549.34 61.9858V63.9858ZM555.9 61.7415C557.639 60.2481 558.918 58.2396 559.766 55.7661L557.874 55.1174C557.12 57.3172 556.019 59.0029 554.597 60.2245L555.9 61.7415ZM559.764 55.7741C560.631 53.3115 561.055 50.5366 561.055 47.4638H559.055C559.055 50.3549 558.656 52.8988 557.877 55.1094L559.764 55.7741ZM561.055 47.4638C561.055 44.3909 560.631 41.6161 559.764 39.1534L557.877 39.8181C558.656 42.0288 559.055 44.5726 559.055 47.4638H561.055ZM559.766 39.1615C558.918 36.688 557.639 34.6795 555.9 33.1861L554.597 34.7031C556.019 35.9247 557.12 37.6103 557.874 39.8101L559.766 39.1615ZM555.9 33.1861C554.115 31.6521 551.905 30.9084 549.34 30.9084V32.9084C551.494 32.9084 553.222 33.5221 554.597 34.7031L555.9 33.1861ZM549.34 30.9084C546.756 30.9084 544.517 31.6507 542.691 33.1772L543.973 34.712C545.395 33.5236 547.162 32.9084 549.34 32.9084V30.9084ZM542.685 33.1816C540.925 34.6729 539.622 36.6798 538.75 39.1534L540.636 39.8181C541.412 37.6185 542.534 35.9313 543.978 34.7076L542.685 33.1816ZM538.747 39.1615C537.904 41.6216 537.492 44.3936 537.492 47.4638H539.492C539.492 44.57 539.88 42.0233 540.639 39.8101L538.747 39.1615ZM537.492 47.4638C537.492 50.534 537.904 53.306 538.747 55.7661L540.639 55.1174C539.88 52.9042 539.492 50.3576 539.492 47.4638H537.492ZM538.75 55.7741C539.622 58.2478 540.925 60.2547 542.685 61.7459L543.978 60.22C542.534 58.9963 541.412 57.309 540.636 55.1094L538.75 55.7741ZM542.697 61.7555C544.524 63.2572 546.76 63.9858 549.34 63.9858V61.9858C547.158 61.9858 545.389 61.3792 543.967 60.2104L542.697 61.7555ZM583.756 73H582.756V74H583.756V73ZM583.756 21.7273V20.7273H582.756V21.7273H583.756ZM597.542 21.7273H598.542V20.7273H597.542V21.7273ZM597.542 30.6733H596.542V31.6733H597.542V30.6733ZM598.076 30.6733V31.6733H598.825L599.036 30.9551L598.076 30.6733ZM602.783 23.4631L603.376 24.2679L603.381 24.264L602.783 23.4631ZM612.697 21.1264L612.804 20.1322L612.804 20.1322L612.697 21.1264ZM614.867 21.4936H615.867V20.7128L615.109 20.5235L614.867 21.4936ZM614.867 34.1115L614.579 35.0693L615.867 35.4555V34.1115H614.867ZM603.25 34.7124L603.731 35.5893L603.735 35.5871L603.25 34.7124ZM599.378 38.451L598.519 37.9382L598.514 37.9471L599.378 38.451ZM597.976 73V74H598.976V73H597.976ZM584.756 73V21.7273H582.756V73H584.756ZM583.756 22.7273H597.542V20.7273H583.756V22.7273ZM596.542 21.7273V30.6733H598.542V21.7273H596.542ZM597.542 31.6733H598.076V29.6733H597.542V31.6733ZM599.036 30.9551C599.922 27.9369 601.384 25.7372 603.376 24.2679L602.189 22.6582C599.776 24.438 598.099 27.0451 597.117 30.3915L599.036 30.9551ZM603.381 24.264C605.404 22.7524 607.729 21.9929 610.394 21.9929V19.9929C607.317 19.9929 604.568 20.8802 602.184 22.6621L603.381 24.264ZM610.394 21.9929C611.065 21.9929 611.796 22.0349 612.589 22.1206L612.804 20.1322C611.951 20.0399 611.147 19.9929 610.394 19.9929V21.9929ZM612.589 22.1206C613.379 22.206 614.056 22.3217 614.624 22.4637L615.109 20.5235C614.431 20.3539 613.661 20.2248 612.804 20.1322L612.589 22.1206ZM613.867 21.4936V34.1115H615.867V21.4936H613.867ZM615.154 33.1537C614.412 32.931 613.428 32.7446 612.227 32.586L611.965 34.5688C613.123 34.7217 613.986 34.8914 614.579 35.0693L615.154 33.1537ZM612.227 32.586C611.013 32.4257 609.889 32.3438 608.858 32.3438V34.3438C609.785 34.3438 610.82 34.4176 611.965 34.5688L612.227 32.586ZM608.858 32.3438C606.616 32.3438 604.577 32.8342 602.765 33.8376L603.735 35.5871C605.217 34.7657 606.917 34.3438 608.858 34.3438V32.3438ZM602.77 33.8354C600.988 34.8118 599.567 36.1843 598.519 37.9383L600.236 38.9637C601.103 37.5132 602.264 36.3932 603.731 35.5893L602.77 33.8354ZM598.514 37.9471C597.479 39.7211 596.976 41.7464 596.976 43.9922H598.976C598.976 42.0543 599.407 40.3854 600.242 38.9549L598.514 37.9471ZM596.976 43.9922V73H598.976V43.9922H596.976ZM597.976 72H583.756V74H597.976V72ZM116.309 77.6364H117.309V76.6364H116.309V77.6364ZM116.309 146V147H117.309V146H116.309ZM103.825 146L103.002 146.569L103.301 147H103.825V146ZM74.0828 102.972L74.9054 102.404L74.6072 101.972H74.0828V102.972ZM73.5821 102.972V101.972H72.5821V102.972H73.5821ZM73.5821 146V147H74.5821V146H73.5821ZM59.1283 146H58.1283V147H59.1283V146ZM59.1283 77.6364V76.6364H58.1283V77.6364H59.1283ZM71.8129 77.6364L72.6374 77.0705L72.3395 76.6364H71.8129V77.6364ZM101.321 120.631L100.497 121.197L100.795 121.631H101.321V120.631ZM101.922 120.631V121.631H102.922V120.631H101.922ZM101.922 77.6364V76.6364H100.922V77.6364H101.922ZM115.309 77.6364V146H117.309V77.6364H115.309ZM116.309 145H103.825V147H116.309V145ZM104.648 145.431L74.9054 102.404L73.2602 103.541L103.002 146.569L104.648 145.431ZM74.0828 101.972H73.5821V103.972H74.0828V101.972ZM72.5821 102.972V146H74.5821V102.972H72.5821ZM73.5821 145H59.1283V147H73.5821V145ZM60.1283 146V77.6364H58.1283V146H60.1283ZM59.1283 78.6364H71.8129V76.6364H59.1283V78.6364ZM70.9885 78.2022L100.497 121.197L102.146 120.065L72.6374 77.0705L70.9885 78.2022ZM101.321 121.631H101.922V119.631H101.321V121.631ZM102.922 120.631V77.6364H100.922V120.631H102.922ZM101.922 78.6364H116.309V76.6364H101.922V78.6364ZM137.731 143.797L137.236 144.665L137.242 144.669L137.731 143.797ZM128.986 134.651L128.097 135.11L128.098 135.112L128.986 134.651ZM128.986 106.711L128.096 106.254L128.096 106.254L128.986 106.711ZM137.631 97.3977L137.12 96.5384L137.118 96.5398L137.631 97.3977ZM160.23 95.6953L159.88 96.632L159.888 96.6351L160.23 95.6953ZM167.908 100.536L167.204 101.246L167.208 101.25L167.908 100.536ZM173.048 108.68L172.112 109.031L172.112 109.033L173.048 108.68ZM174.884 124.002V125.002H175.884V124.002H174.884ZM131.589 124.002H130.589V125.002H131.589V124.002ZM131.589 115.19V114.19H130.589V115.19H131.589ZM161.498 115.19V116.19H162.498V115.19H161.498ZM160.163 109.749L159.292 110.239L159.292 110.239L160.163 109.749ZM156.458 106.043L155.953 106.906L155.96 106.91L155.967 106.915L156.458 106.043ZM145.275 106.177L145.787 107.036L145.79 107.034L145.275 106.177ZM141.403 110.149L142.273 110.643L142.276 110.638L141.403 110.149ZM139.968 115.657L138.968 115.646V115.657H139.968ZM141.37 130.612L140.478 131.063L140.482 131.072L141.37 130.612ZM155.924 135.719L155.603 134.772L155.603 134.772L155.924 135.719ZM159.295 133.716L158.606 132.992L158.606 132.992L159.295 133.716ZM161.432 130.445L161.498 129.447L160.759 129.398L160.497 130.09L161.432 130.445ZM174.584 131.312L175.562 131.519L175.801 130.391L174.65 130.315L174.584 131.312ZM170.478 139.591L169.726 138.931L169.726 138.932L170.478 139.591ZM162.533 145.065L162.905 145.994L162.908 145.992L162.533 145.065ZM151.351 146.001C146.212 146.001 141.849 144.961 138.221 142.925L137.242 144.669C141.225 146.905 145.941 148.001 151.351 148.001V146.001ZM138.227 142.928C134.614 140.867 131.833 137.961 129.873 134.189L128.098 135.112C130.233 139.218 133.282 142.41 137.236 144.665L138.227 142.928ZM129.874 134.191C127.914 130.399 126.915 125.879 126.915 120.597H124.915C124.915 126.131 125.963 130.979 128.097 135.11L129.874 134.191ZM126.915 120.597C126.915 115.454 127.912 110.987 129.875 107.168L128.096 106.254C125.964 110.402 124.915 115.192 124.915 120.597H126.915ZM129.875 107.168C131.84 103.345 134.594 100.382 138.145 98.2557L137.118 96.5398C133.235 98.8644 130.226 102.11 128.096 106.254L129.875 107.168ZM138.143 98.257C141.704 96.1373 145.905 95.0597 150.783 95.0597V93.0597C145.602 93.0597 141.036 94.2074 137.12 96.5384L138.143 98.257ZM150.783 95.0597C154.057 95.0597 157.086 95.5869 159.88 96.6319L160.58 94.7587C157.544 93.6228 154.275 93.0597 150.783 93.0597V95.0597ZM159.888 96.6351C162.693 97.6549 165.128 99.1911 167.204 101.246L168.611 99.8248C166.326 97.5627 163.642 95.8721 160.572 94.7555L159.888 96.6351ZM167.208 101.25C169.293 103.293 170.932 105.878 172.112 109.031L173.985 108.33C172.716 104.94 170.928 102.095 168.607 99.8212L167.208 101.25ZM172.112 109.033C173.285 112.145 173.884 115.826 173.884 120.097H175.884C175.884 115.644 175.26 111.714 173.984 108.328L172.112 109.033ZM173.884 120.097V124.002H175.884V120.097H173.884ZM174.884 123.002H131.589V125.002H174.884V123.002ZM132.589 124.002V115.19H130.589V124.002H132.589ZM131.589 116.19H161.498V114.19H131.589V116.19ZM162.498 115.19C162.498 112.993 162.019 111.006 161.035 109.258L159.292 110.239C160.087 111.651 160.498 113.292 160.498 115.19H162.498ZM161.035 109.258C160.055 107.519 158.688 106.152 156.949 105.172L155.967 106.915C157.388 107.715 158.492 108.819 159.292 110.239L161.035 109.258ZM156.963 105.18C155.231 104.166 153.238 103.675 151.017 103.675V105.675C152.935 105.675 154.569 106.096 155.953 106.906L156.963 105.18ZM151.017 103.675C148.697 103.675 146.602 104.215 144.761 105.319L145.79 107.034C147.287 106.136 149.019 105.675 151.017 105.675V103.675ZM144.764 105.317C142.967 106.386 141.551 107.838 140.531 109.661L142.276 110.638C143.125 109.122 144.29 107.926 145.787 107.036L144.764 105.317ZM140.534 109.656C139.51 111.46 138.992 113.464 138.968 115.646L140.968 115.668C140.988 113.8 141.428 112.132 142.273 110.643L140.534 109.656ZM138.968 115.657V124.036H140.968V115.657H138.968ZM138.968 124.036C138.968 126.694 139.458 129.048 140.478 131.063L142.262 130.16C141.413 128.481 140.968 126.45 140.968 124.036H138.968ZM140.482 131.072C141.523 133.081 143.001 134.65 144.909 135.75L145.909 134.018C144.345 133.116 143.13 131.836 142.258 130.152L140.482 131.072ZM144.909 135.75C146.823 136.855 149.061 137.386 151.584 137.386V135.386C149.346 135.386 147.466 134.917 145.909 134.018L144.909 135.75ZM151.584 137.386C153.259 137.386 154.815 137.15 156.245 136.666L155.603 134.772C154.407 135.177 153.07 135.386 151.584 135.386V137.386ZM156.245 136.666C157.685 136.178 158.937 135.438 159.985 134.44L158.606 132.992C157.784 133.774 156.789 134.37 155.603 134.772L156.245 136.666ZM159.985 134.44C161.036 133.44 161.828 132.22 162.367 130.799L160.497 130.09C160.056 131.251 159.425 132.212 158.606 132.992L159.985 134.44ZM161.366 131.442L174.518 132.31L174.65 130.315L161.498 129.447L161.366 131.442ZM173.605 131.106C172.972 134.103 171.679 136.705 169.726 138.931L171.23 140.25C173.416 137.759 174.86 134.842 175.562 131.519L173.605 131.106ZM169.726 138.932C167.794 141.137 165.281 142.876 162.159 144.138L162.908 145.992C166.283 144.628 169.067 142.719 171.23 140.25L169.726 138.932ZM162.162 144.137C159.076 145.371 155.479 146.001 151.351 146.001V148.001C155.679 148.001 159.537 147.341 162.905 145.994L162.162 144.137ZM193.911 146L192.946 146.263L193.147 147H193.911V146ZM179.958 94.7273V93.7273H178.65L178.993 94.9899L179.958 94.7273ZM194.345 94.7273L195.32 94.5025L195.141 93.7273H194.345V94.7273ZM202.29 129.176L201.315 129.401L201.494 130.176H202.29V129.176ZM202.757 129.176V130.176H203.545L203.729 129.41L202.757 129.176ZM211.035 94.7273V93.7273H210.247L210.063 94.4936L211.035 94.7273ZM225.155 94.7273L226.127 94.4887L225.94 93.7273H225.155V94.7273ZM233.567 128.976L232.596 129.214L232.783 129.976H233.567V128.976ZM234.001 128.976V129.976H234.799L234.976 129.198L234.001 128.976ZM241.812 94.7273V93.7273H241.015L240.837 94.5049L241.812 94.7273ZM256.166 94.7273L257.131 94.9893L257.474 93.7273H256.166V94.7273ZM242.246 146V147H243.011L243.211 146.262L242.246 146ZM227.192 146L226.227 146.264L226.428 147H227.192V146ZM218.379 113.754L219.344 113.491L219.143 112.754H218.379V113.754ZM217.745 113.754V112.754H216.982L216.78 113.491L217.745 113.754ZM208.932 146V147H209.696L209.897 146.264L208.932 146ZM194.876 145.737L180.923 94.4647L178.993 94.9899L192.946 146.263L194.876 145.737ZM179.958 95.7273H194.345V93.7273H179.958V95.7273ZM193.371 94.952L201.315 129.401L203.264 128.951L195.32 94.5025L193.371 94.952ZM202.29 130.176H202.757V128.176H202.29V130.176ZM203.729 129.41L212.008 94.9609L210.063 94.4936L201.785 128.942L203.729 129.41ZM211.035 95.7273H225.155V93.7273H211.035V95.7273ZM224.184 94.9658L232.596 129.214L234.539 128.737L226.127 94.4887L224.184 94.9658ZM233.567 129.976H234.001V127.976H233.567V129.976ZM234.976 129.198L242.787 94.9496L240.837 94.5049L233.026 128.753L234.976 129.198ZM241.812 95.7273H256.166V93.7273H241.812V95.7273ZM255.201 94.4653L241.281 145.738L243.211 146.262L257.131 94.9893L255.201 94.4653ZM242.246 145H227.192V147H242.246V145ZM228.156 145.736L219.344 113.491L217.415 114.018L226.227 146.264L228.156 145.736ZM218.379 112.754H217.745V114.754H218.379V112.754ZM216.78 113.491L207.968 145.736L209.897 146.264L218.71 114.018L216.78 113.491ZM208.932 145H193.911V147H208.932V145ZM306.412 109.348L306.474 110.346L307.544 110.28L307.404 109.217L306.412 109.348ZM293.394 110.149L292.413 110.345L292.584 111.201L293.455 111.147L293.394 110.149ZM291.959 107.145L291.179 107.772L291.187 107.781L291.959 107.145ZM289.054 104.975L288.628 105.88L288.638 105.884L288.648 105.889L289.054 104.975ZM279.241 105.543L279.757 106.399L279.766 106.393L279.241 105.543ZM278.439 112.319L277.786 113.076L277.786 113.076L278.439 112.319ZM283.48 114.355L283.27 115.333L283.282 115.335L283.48 114.355ZM292.76 116.224L292.961 115.245L292.957 115.244L292.76 116.224ZM303.909 121.165L303.229 121.898L303.229 121.898L303.909 121.165ZM304.61 138.957L303.822 138.341L303.818 138.346L304.61 138.957ZM296.532 144.898L296.912 145.823L296.915 145.822L296.532 144.898ZM268.525 142.762L267.946 143.577L267.951 143.581L268.525 142.762ZM261.482 131.146L261.43 130.147L260.339 130.204L260.492 131.285L261.482 131.146ZM275.468 130.411L276.448 130.211L276.276 129.367L275.416 129.413L275.468 130.411ZM278.54 135.151L277.982 135.982L277.99 135.987L278.54 135.151ZM290.79 135.318L291.325 136.163L291.328 136.161L290.79 135.318ZM293.127 131.546L294.127 131.561L294.127 131.545L294.127 131.529L293.127 131.546ZM291.491 128.375L290.87 129.159L290.881 129.167L291.491 128.375ZM286.551 126.439L286.747 125.458L286.746 125.458L286.551 126.439ZM277.672 124.67L277.475 125.65L277.476 125.65L277.672 124.67ZM266.489 119.462L265.776 120.163L265.779 120.166L266.489 119.462ZM265.521 101.504L264.724 100.9L264.72 100.905L265.521 101.504ZM273.098 95.9957L272.731 95.0655L272.729 95.0664L273.098 95.9957ZM299.87 98.1655L299.277 98.9707L299.279 98.9723L299.87 98.1655ZM306.351 108.35L293.332 109.151L293.455 111.147L306.474 110.346L306.351 108.35ZM294.374 109.953C294.119 108.676 293.567 107.524 292.73 106.509L291.187 107.781C291.818 108.546 292.224 109.397 292.413 110.345L294.374 109.953ZM292.738 106.518C291.892 105.467 290.79 104.652 289.461 104.061L288.648 105.889C289.723 106.366 290.557 106.998 291.18 107.772L292.738 106.518ZM289.481 104.071C288.138 103.437 286.572 103.141 284.815 103.141V105.141C286.352 105.141 287.612 105.4 288.628 105.88L289.481 104.071ZM284.815 103.141C282.471 103.141 280.42 103.639 278.715 104.692L279.766 106.393C281.088 105.577 282.753 105.141 284.815 105.141V103.141ZM278.724 104.686C276.964 105.747 275.971 107.27 275.971 109.214H277.971C277.971 108.088 278.49 107.163 279.757 106.399L278.724 104.686ZM275.971 109.214C275.971 110.747 276.601 112.052 277.786 113.076L279.093 111.562C278.319 110.894 277.971 110.129 277.971 109.214H275.971ZM277.786 113.076C278.961 114.09 280.846 114.812 283.27 115.333L283.69 113.377C281.352 112.875 279.876 112.239 279.093 111.562L277.786 113.076ZM283.282 115.335L292.562 117.205L292.957 115.244L283.677 113.375L283.282 115.335ZM292.559 117.204C297.451 118.209 300.968 119.801 303.229 121.898L304.589 120.432C301.954 117.988 298.038 116.288 292.961 115.245L292.559 117.204ZM303.229 121.898C305.45 123.957 306.581 126.662 306.581 130.111H308.581C308.581 126.171 307.264 122.912 304.589 120.432L303.229 121.898ZM306.581 130.111C306.581 133.259 305.659 135.988 303.822 138.341L305.398 139.572C307.522 136.851 308.581 133.684 308.581 130.111H306.581ZM303.818 138.346C301.982 140.724 299.44 142.607 296.148 143.975L296.915 145.822C300.478 144.341 303.321 142.263 305.401 139.568L303.818 138.346ZM296.151 143.974C292.889 145.317 289.095 146.001 284.748 146.001V148.001C289.303 148.001 293.364 147.284 296.912 145.823L296.151 143.974ZM284.748 146.001C278.091 146.001 272.906 144.614 269.1 141.943L267.951 143.581C272.2 146.562 277.831 148.001 284.748 148.001V146.001ZM269.105 141.947C265.324 139.259 263.124 135.632 262.472 131.006L260.492 131.285C261.22 136.451 263.715 140.568 267.946 143.577L269.105 141.947ZM261.534 132.144L275.521 131.41L275.416 129.413L261.43 130.147L261.534 132.144ZM274.489 130.611C274.96 132.916 276.121 134.732 277.982 135.982L279.097 134.321C277.709 133.389 276.823 132.046 276.448 130.211L274.489 130.611ZM277.99 135.987C279.821 137.191 282.108 137.754 284.782 137.754V135.754C282.381 135.754 280.507 135.248 279.089 134.316L277.99 135.987ZM284.782 137.754C287.392 137.754 289.6 137.254 291.325 136.163L290.256 134.473C288.954 135.296 287.156 135.754 284.782 135.754V137.754ZM291.328 136.161C293.086 135.04 294.099 133.499 294.127 131.561L292.127 131.532C292.111 132.664 291.565 133.638 290.253 134.475L291.328 136.161ZM294.127 131.529C294.099 129.919 293.398 128.582 292.102 127.583L290.881 129.167C291.721 129.814 292.11 130.592 292.127 131.563L294.127 131.529ZM292.112 127.591C290.863 126.602 289.037 125.916 286.747 125.458L286.355 127.42C288.516 127.852 289.983 128.456 290.871 129.159L292.112 127.591ZM286.746 125.458L277.867 123.689L277.476 125.65L286.355 127.42L286.746 125.458ZM277.868 123.689C272.969 122.709 269.456 121.035 267.199 118.758L265.779 120.166C268.418 122.83 272.36 124.627 277.475 125.65L277.868 123.689ZM267.203 118.762C264.981 116.499 263.851 113.611 263.851 110.016H261.851C261.851 114.075 263.146 117.485 265.776 120.163L267.203 118.762ZM263.851 110.016C263.851 106.913 264.685 104.292 266.322 102.102L264.72 100.905C262.797 103.477 261.851 106.531 261.851 110.016H263.851ZM266.318 102.107C267.993 99.8949 270.359 98.16 273.468 96.9251L272.729 95.0664C269.34 96.4129 266.654 98.3499 264.724 100.9L266.318 102.107ZM273.465 96.9259C276.595 95.6912 280.293 95.0597 284.581 95.0597V93.0597C280.102 93.0597 276.145 93.7189 272.731 95.0655L273.465 96.9259ZM284.581 95.0597C290.928 95.0597 295.789 96.4019 299.277 98.9707L300.463 97.3603C296.518 94.4546 291.187 93.0597 284.581 93.0597V95.0597ZM299.279 98.9723C302.791 101.544 304.833 105.023 305.421 109.479L307.404 109.217C306.746 104.237 304.426 100.262 300.461 97.3586L299.279 98.9723ZM330.755 77.6364H331.755V76.6364H330.755V77.6364ZM330.755 146V147H331.755V146H330.755ZM316.535 146H315.535V147H316.535V146ZM316.535 77.6364V76.6364H315.535V77.6364H316.535ZM329.755 77.6364V146H331.755V77.6364H329.755ZM330.755 145H316.535V147H330.755V145ZM317.535 146V77.6364H315.535V146H317.535ZM316.535 78.6364H330.755V76.6364H316.535V78.6364ZM351.894 143.797L351.398 144.665L351.404 144.669L351.894 143.797ZM343.148 134.651L342.259 135.11L342.261 135.112L343.148 134.651ZM343.148 106.711L342.258 106.254L342.258 106.254L343.148 106.711ZM351.793 97.3977L351.282 96.5384L351.28 96.5398L351.793 97.3977ZM374.392 95.6953L374.042 96.632L374.05 96.6351L374.392 95.6953ZM382.07 100.536L381.366 101.246L381.37 101.25L382.07 100.536ZM387.21 108.68L386.274 109.031L386.275 109.033L387.21 108.68ZM389.046 124.002V125.002H390.046V124.002H389.046ZM345.752 124.002H344.752V125.002H345.752V124.002ZM345.752 115.19V114.19H344.752V115.19H345.752ZM375.661 115.19V116.19H376.661V115.19H375.661ZM374.325 109.749L373.454 110.239L373.454 110.239L374.325 109.749ZM370.62 106.043L370.115 106.906L370.122 106.91L370.129 106.915L370.62 106.043ZM359.438 106.177L359.949 107.036L359.952 107.034L359.438 106.177ZM355.565 110.149L356.435 110.643L356.438 110.638L355.565 110.149ZM354.13 115.657L353.13 115.646V115.657H354.13ZM355.532 130.612L354.64 131.063L354.644 131.072L355.532 130.612ZM370.086 135.719L369.765 134.772L369.765 134.772L370.086 135.719ZM373.457 133.716L372.768 132.992L372.768 132.992L373.457 133.716ZM375.594 130.445L375.66 129.447L374.921 129.398L374.659 130.09L375.594 130.445ZM388.746 131.312L389.724 131.519L389.963 130.391L388.812 130.315L388.746 131.312ZM384.64 139.591L383.888 138.931L383.888 138.932L384.64 139.591ZM376.695 145.065L377.067 145.994L377.07 145.992L376.695 145.065ZM365.513 146.001C360.375 146.001 356.011 144.961 352.383 142.925L351.404 144.669C355.387 146.905 360.103 148.001 365.513 148.001V146.001ZM352.389 142.928C348.776 140.867 345.996 137.961 344.035 134.189L342.261 135.112C344.395 139.218 347.444 142.41 351.398 144.665L352.389 142.928ZM344.036 134.191C342.076 130.399 341.077 125.879 341.077 120.597H339.077C339.077 126.131 340.125 130.979 342.259 135.11L344.036 134.191ZM341.077 120.597C341.077 115.454 342.074 110.987 344.037 107.168L342.258 106.254C340.127 110.402 339.077 115.192 339.077 120.597H341.077ZM344.037 107.168C346.002 103.345 348.757 100.382 352.307 98.2557L351.28 96.5398C347.397 98.8644 344.388 102.11 342.258 106.254L344.037 107.168ZM352.305 98.257C355.866 96.1373 360.068 95.0597 364.945 95.0597V93.0597C359.765 93.0597 355.198 94.2074 351.282 96.5384L352.305 98.257ZM364.945 95.0597C368.219 95.0597 371.248 95.5869 374.042 96.6319L374.742 94.7587C371.706 93.6228 368.437 93.0597 364.945 93.0597V95.0597ZM374.05 96.6351C376.855 97.6549 379.29 99.1911 381.366 101.246L382.773 99.8248C380.488 97.5627 377.804 95.8721 374.734 94.7555L374.05 96.6351ZM381.37 101.25C383.455 103.293 385.094 105.878 386.274 109.031L388.147 108.33C386.878 104.94 385.09 102.095 382.77 99.8212L381.37 101.25ZM386.275 109.033C387.447 112.145 388.046 115.826 388.046 120.097H390.046C390.046 115.644 389.422 111.714 388.146 108.328L386.275 109.033ZM388.046 120.097V124.002H390.046V120.097H388.046ZM389.046 123.002H345.752V125.002H389.046V123.002ZM346.752 124.002V115.19H344.752V124.002H346.752ZM345.752 116.19H375.661V114.19H345.752V116.19ZM376.661 115.19C376.661 112.993 376.182 111.006 375.197 109.258L373.454 110.239C374.249 111.651 374.661 113.292 374.661 115.19H376.661ZM375.197 109.258C374.217 107.519 372.85 106.152 371.111 105.172L370.129 106.915C371.55 107.715 372.654 108.819 373.454 110.239L375.197 109.258ZM371.126 105.18C369.393 104.166 367.4 103.675 365.179 103.675V105.675C367.097 105.675 368.732 106.096 370.115 106.906L371.126 105.18ZM365.179 103.675C362.86 103.675 360.764 104.215 358.923 105.319L359.952 107.034C361.449 106.136 363.181 105.675 365.179 105.675V103.675ZM358.927 105.317C357.129 106.386 355.714 107.838 354.693 109.661L356.438 110.638C357.287 109.122 358.453 107.926 359.949 107.036L358.927 105.317ZM354.696 109.656C353.672 111.46 353.154 113.464 353.13 115.646L355.13 115.668C355.151 113.8 355.59 112.132 356.435 110.643L354.696 109.656ZM353.13 115.657V124.036H355.13V115.657H353.13ZM353.13 124.036C353.13 126.694 353.62 129.048 354.64 131.063L356.424 130.16C355.575 128.481 355.13 126.45 355.13 124.036H353.13ZM354.644 131.072C355.685 133.081 357.164 134.65 359.071 135.75L360.071 134.018C358.507 133.116 357.292 131.836 356.42 130.152L354.644 131.072ZM359.071 135.75C360.985 136.855 363.223 137.386 365.747 137.386V135.386C363.508 135.386 361.628 134.917 360.071 134.018L359.071 135.75ZM365.747 137.386C367.421 137.386 368.977 137.15 370.407 136.666L369.765 134.772C368.569 135.177 367.232 135.386 365.747 135.386V137.386ZM370.407 136.666C371.847 136.178 373.1 135.438 374.147 134.44L372.768 132.992C371.946 133.774 370.951 134.37 369.765 134.772L370.407 136.666ZM374.147 134.44C375.198 133.44 375.99 132.22 376.529 130.799L374.659 130.09C374.219 131.251 373.587 132.212 372.768 132.992L374.147 134.44ZM375.528 131.442L388.68 132.31L388.812 130.315L375.66 129.447L375.528 131.442ZM387.767 131.106C387.134 134.103 385.841 136.705 383.888 138.931L385.392 140.25C387.578 137.759 389.022 134.842 389.724 131.519L387.767 131.106ZM383.888 138.932C381.956 141.137 379.443 142.876 376.321 144.138L377.07 145.992C380.445 144.628 383.229 142.719 385.392 140.25L383.888 138.932ZM376.324 144.137C373.238 145.371 369.641 146.001 365.513 146.001V148.001C369.842 148.001 373.699 147.341 377.067 145.994L376.324 144.137ZM425.598 94.7273H426.598V93.7273H425.598V94.7273ZM425.598 105.409V106.409H426.598V105.409H425.598ZM394.721 105.409H393.721V106.409H394.721V105.409ZM394.721 94.7273V93.7273H393.721V94.7273H394.721ZM401.731 82.4432V81.4432H400.731V82.4432H401.731ZM415.951 82.4432H416.951V81.4432H415.951V82.4432ZM416.552 133.315L415.674 133.794L415.68 133.806L416.552 133.315ZM418.221 134.817L417.845 135.744L417.854 135.748L418.221 134.817ZM422.761 135.085L422.925 136.071L422.941 136.068L422.957 136.065L422.761 135.085ZM424.296 134.784L425.275 134.577L425.073 133.621L424.112 133.801L424.296 134.784ZM426.533 145.366L426.831 146.32L427.699 146.049L427.511 145.159L426.533 145.366ZM423.528 146.134L423.31 145.158L423.302 145.16L423.294 145.161L423.528 146.134ZM418.822 146.701L418.786 145.702L418.783 145.702L418.822 146.701ZM409.809 145.332L409.431 146.258L409.434 146.259L409.809 145.332ZM403.834 140.459L404.674 139.916L404.674 139.916L403.834 140.459ZM401.731 132.114L402.731 132.12V132.114H401.731ZM424.598 94.7273V105.409H426.598V94.7273H424.598ZM425.598 104.409H394.721V106.409H425.598V104.409ZM395.721 105.409V94.7273H393.721V105.409H395.721ZM394.721 95.7273H425.598V93.7273H394.721V95.7273ZM401.731 83.4432H415.951V81.4432H401.731V83.4432ZM414.951 82.4432V130.244H416.951V82.4432H414.951ZM414.951 130.244C414.951 131.638 415.16 132.852 415.674 133.794L417.43 132.836C417.142 132.31 416.951 131.476 416.951 130.244H414.951ZM415.68 133.806C416.184 134.702 416.909 135.364 417.845 135.744L418.597 133.891C418.109 133.692 417.721 133.353 417.424 132.825L415.68 133.806ZM417.854 135.748C418.727 136.092 419.701 136.251 420.758 136.251V134.251C419.901 134.251 419.183 134.122 418.587 133.887L417.854 135.748ZM420.758 136.251C421.481 136.251 422.204 136.191 422.925 136.071L422.596 134.098C421.982 134.2 421.37 134.251 420.758 134.251V136.251ZM422.957 136.065C423.623 135.932 424.13 135.833 424.481 135.767L424.112 133.801C423.75 133.869 423.233 133.97 422.565 134.104L422.957 136.065ZM423.318 134.991L425.554 145.573L427.511 145.159L425.275 134.577L423.318 134.991ZM426.234 144.411C425.561 144.622 424.591 144.871 423.31 145.158L423.747 147.109C425.048 146.818 426.08 146.555 426.831 146.32L426.234 144.411ZM423.294 145.161C422.088 145.453 420.59 145.636 418.786 145.702L418.858 147.7C420.748 147.632 422.388 147.438 423.763 147.106L423.294 145.161ZM418.783 145.702C415.466 145.831 412.608 145.387 410.185 144.406L409.434 146.259C412.173 147.369 415.324 147.838 418.861 147.7L418.783 145.702ZM410.187 144.407C407.807 143.434 405.981 141.938 404.674 139.916L402.994 141.002C404.536 143.386 406.693 145.139 409.431 146.258L410.187 144.407ZM404.674 139.916C403.381 137.917 402.71 135.34 402.731 132.12L400.731 132.107C400.708 135.608 401.438 138.595 402.994 141.002L404.674 139.916ZM402.731 132.114V82.4432H400.731V132.114H402.731ZM462.133 94.7273H463.133V93.7273H462.133V94.7273ZM462.133 105.409V106.409H463.133V105.409H462.133ZM431.256 105.409H430.256V106.409H431.256V105.409ZM431.256 94.7273V93.7273H430.256V94.7273H431.256ZM438.266 82.4432V81.4432H437.266V82.4432H438.266ZM452.486 82.4432H453.486V81.4432H452.486V82.4432ZM453.087 133.315L452.209 133.794L452.216 133.806L453.087 133.315ZM454.756 134.817L454.38 135.744L454.39 135.748L454.756 134.817ZM459.296 135.085L459.46 136.071L459.476 136.068L459.492 136.065L459.296 135.085ZM460.831 134.784L461.81 134.577L461.608 133.621L460.647 133.801L460.831 134.784ZM463.068 145.366L463.366 146.32L464.234 146.049L464.046 145.159L463.068 145.366ZM460.064 146.134L459.845 145.158L459.837 145.16L459.829 145.161L460.064 146.134ZM455.357 146.701L455.321 145.702L455.318 145.702L455.357 146.701ZM446.344 145.332L445.966 146.258L445.969 146.259L446.344 145.332ZM440.369 140.459L441.209 139.916L441.209 139.916L440.369 140.459ZM438.266 132.114L439.266 132.12V132.114H438.266ZM461.133 94.7273V105.409H463.133V94.7273H461.133ZM462.133 104.409H431.256V106.409H462.133V104.409ZM432.256 105.409V94.7273H430.256V105.409H432.256ZM431.256 95.7273H462.133V93.7273H431.256V95.7273ZM438.266 83.4432H452.486V81.4432H438.266V83.4432ZM451.486 82.4432V130.244H453.486V82.4432H451.486ZM451.486 130.244C451.486 131.638 451.695 132.852 452.209 133.794L453.965 132.836C453.678 132.31 453.486 131.476 453.486 130.244H451.486ZM452.216 133.806C452.72 134.702 453.444 135.364 454.38 135.744L455.133 133.891C454.644 133.692 454.256 133.353 453.959 132.825L452.216 133.806ZM454.39 135.748C455.263 136.092 456.237 136.251 457.293 136.251V134.251C456.436 134.251 455.718 134.122 455.123 133.887L454.39 135.748ZM457.293 136.251C458.017 136.251 458.739 136.191 459.46 136.071L459.131 134.098C458.517 134.2 457.905 134.251 457.293 134.251V136.251ZM459.492 136.065C460.158 135.932 460.666 135.833 461.016 135.767L460.647 133.801C460.285 133.869 459.769 133.97 459.1 134.104L459.492 136.065ZM459.853 134.991L462.09 145.573L464.046 145.159L461.81 134.577L459.853 134.991ZM462.77 144.411C462.096 144.622 461.126 144.871 459.845 145.158L460.282 147.109C461.583 146.818 462.615 146.555 463.366 146.32L462.77 144.411ZM459.829 145.161C458.623 145.453 457.125 145.636 455.321 145.702L455.393 147.7C457.283 147.632 458.923 147.438 460.298 147.106L459.829 145.161ZM455.318 145.702C452.001 145.831 449.143 145.387 446.72 144.406L445.969 146.259C448.708 147.369 451.859 147.838 455.396 147.7L455.318 145.702ZM446.723 144.407C444.342 143.434 442.516 141.938 441.209 139.916L439.529 141.002C441.071 143.386 443.228 145.139 445.966 146.258L446.723 144.407ZM441.209 139.916C439.916 137.917 439.245 135.34 439.266 132.12L437.266 132.107C437.243 135.608 437.973 138.595 439.529 141.002L441.209 139.916ZM439.266 132.114V82.4432H437.266V132.114H439.266ZM480.593 143.797L480.097 144.665L480.103 144.669L480.593 143.797ZM471.847 134.651L470.959 135.11L470.96 135.112L471.847 134.651ZM471.847 106.711L470.958 106.254L470.958 106.254L471.847 106.711ZM480.493 97.3977L479.981 96.5384L479.979 96.5398L480.493 97.3977ZM503.091 95.6953L502.741 96.632L502.75 96.6351L503.091 95.6953ZM510.769 100.536L510.065 101.246L510.069 101.25L510.769 100.536ZM515.91 108.68L514.973 109.031L514.974 109.033L515.91 108.68ZM517.745 124.002V125.002H518.745V124.002H517.745ZM474.451 124.002H473.451V125.002H474.451V124.002ZM474.451 115.19V114.19H473.451V115.19H474.451ZM504.36 115.19V116.19H505.36V115.19H504.36ZM503.025 109.749L502.153 110.239L502.153 110.239L503.025 109.749ZM499.319 106.043L498.814 106.906L498.821 106.91L498.828 106.915L499.319 106.043ZM488.137 106.177L488.648 107.036L488.651 107.034L488.137 106.177ZM484.265 110.149L485.134 110.643L485.137 110.638L484.265 110.149ZM482.829 115.657L481.829 115.646V115.657H482.829ZM484.231 130.612L483.339 131.063L483.343 131.072L484.231 130.612ZM498.785 135.719L498.464 134.772L498.464 134.772L498.785 135.719ZM502.157 133.716L501.467 132.992L501.467 132.992L502.157 133.716ZM504.293 130.445L504.359 129.447L503.621 129.398L503.358 130.09L504.293 130.445ZM517.445 131.312L518.423 131.519L518.662 130.391L517.511 130.315L517.445 131.312ZM513.339 139.591L512.588 138.931L512.587 138.932L513.339 139.591ZM505.395 145.065L505.766 145.994L505.769 145.992L505.395 145.065ZM494.212 146.001C489.074 146.001 484.71 144.961 481.082 142.925L480.103 144.669C484.086 146.905 488.802 148.001 494.212 148.001V146.001ZM481.088 142.928C477.476 140.867 474.695 137.961 472.734 134.189L470.96 135.112C473.094 139.218 476.144 142.41 480.097 144.665L481.088 142.928ZM472.735 134.191C470.775 130.399 469.776 125.879 469.776 120.597H467.776C467.776 126.131 468.824 130.979 470.959 135.11L472.735 134.191ZM469.776 120.597C469.776 115.454 470.774 110.987 472.736 107.168L470.958 106.254C468.826 110.402 467.776 115.192 467.776 120.597H469.776ZM472.736 107.168C474.701 103.345 477.456 100.382 481.006 98.2557L479.979 96.5398C476.097 98.8644 473.087 102.11 470.958 106.254L472.736 107.168ZM481.004 98.257C484.565 96.1373 488.767 95.0597 493.645 95.0597V93.0597C488.464 93.0597 483.897 94.2074 479.981 96.5384L481.004 98.257ZM493.645 95.0597C496.918 95.0597 499.947 95.5869 502.741 96.6319L503.442 94.7587C500.405 93.6228 497.136 93.0597 493.645 93.0597V95.0597ZM502.75 96.6351C505.554 97.6549 507.989 99.1911 510.065 101.246L511.472 99.8248C509.187 97.5627 506.504 95.8721 503.433 94.7555L502.75 96.6351ZM510.069 101.25C512.155 103.293 513.793 105.878 514.973 109.031L516.846 108.33C515.578 104.94 513.79 102.095 511.469 99.8212L510.069 101.25ZM514.974 109.033C516.146 112.145 516.745 115.826 516.745 120.097H518.745C518.745 115.644 518.121 111.714 516.845 108.328L514.974 109.033ZM516.745 120.097V124.002H518.745V120.097H516.745ZM517.745 123.002H474.451V125.002H517.745V123.002ZM475.451 124.002V115.19H473.451V124.002H475.451ZM474.451 116.19H504.36V114.19H474.451V116.19ZM505.36 115.19C505.36 112.993 504.881 111.006 503.896 109.258L502.153 110.239C502.949 111.651 503.36 113.292 503.36 115.19H505.36ZM503.896 109.258C502.916 107.519 501.549 106.152 499.81 105.172L498.828 106.915C500.249 107.715 501.353 108.819 502.153 110.239L503.896 109.258ZM499.825 105.18C498.092 104.166 496.099 103.675 493.878 103.675V105.675C495.797 105.675 497.431 106.096 498.814 106.906L499.825 105.18ZM493.878 103.675C491.559 103.675 489.463 104.215 487.622 105.319L488.651 107.034C490.148 106.136 491.881 105.675 493.878 105.675V103.675ZM487.626 105.317C485.828 106.386 484.413 107.838 483.392 109.661L485.137 110.638C485.986 109.122 487.152 107.926 488.648 107.036L487.626 105.317ZM483.395 109.656C482.371 111.46 481.853 113.464 481.829 115.646L483.829 115.668C483.85 113.8 484.289 112.132 485.134 110.643L483.395 109.656ZM481.829 115.657V124.036H483.829V115.657H481.829ZM481.829 124.036C481.829 126.694 482.319 129.048 483.339 131.063L485.124 130.16C484.274 128.481 483.829 126.45 483.829 124.036H481.829ZM483.343 131.072C484.385 133.081 485.863 134.65 487.771 135.75L488.77 134.018C487.206 133.116 485.992 131.836 485.119 130.152L483.343 131.072ZM487.771 135.75C489.685 136.855 491.922 137.386 494.446 137.386V135.386C492.207 135.386 490.328 134.917 488.77 134.018L487.771 135.75ZM494.446 137.386C496.12 137.386 497.677 137.15 499.106 136.666L498.464 134.772C497.268 135.177 495.932 135.386 494.446 135.386V137.386ZM499.106 136.666C500.546 136.178 501.799 135.438 502.846 134.44L501.467 132.992C500.645 133.774 499.65 134.37 498.464 134.772L499.106 136.666ZM502.846 134.44C503.897 133.44 504.689 132.22 505.228 130.799L503.358 130.09C502.918 131.251 502.286 132.212 501.467 132.992L502.846 134.44ZM504.227 131.442L517.379 132.31L517.511 130.315L504.359 129.447L504.227 131.442ZM516.467 131.106C515.833 134.103 514.541 136.705 512.588 138.931L514.091 140.25C516.277 137.759 517.721 134.842 518.423 131.519L516.467 131.106ZM512.587 138.932C510.655 141.137 508.143 142.876 505.02 144.138L505.769 145.992C509.145 144.628 511.928 142.719 514.091 140.25L512.587 138.932ZM505.023 144.137C501.937 145.371 498.34 146.001 494.212 146.001V148.001C498.541 148.001 502.399 147.341 505.766 145.994L505.023 144.137ZM527.025 146H526.025V147H527.025V146ZM527.025 94.7273V93.7273H526.025V94.7273H527.025ZM540.812 94.7273H541.812V93.7273H540.812V94.7273ZM540.812 103.673H539.812V104.673H540.812V103.673ZM541.346 103.673V104.673H542.094L542.305 103.955L541.346 103.673ZM546.052 96.4631L546.646 97.2679L546.651 97.264L546.052 96.4631ZM555.966 94.1264L556.074 93.1322L556.074 93.1322L555.966 94.1264ZM558.136 94.4936H559.136V93.7128L558.379 93.5235L558.136 94.4936ZM558.136 107.112L557.849 108.069L559.136 108.456V107.112H558.136ZM546.52 107.712L547 108.589L547.004 108.587L546.52 107.712ZM542.647 111.451L541.789 110.938L541.784 110.947L542.647 111.451ZM541.245 146V147H542.245V146H541.245ZM528.025 146V94.7273H526.025V146H528.025ZM527.025 95.7273H540.812V93.7273H527.025V95.7273ZM539.812 94.7273V103.673H541.812V94.7273H539.812ZM540.812 104.673H541.346V102.673H540.812V104.673ZM542.305 103.955C543.192 100.937 544.653 98.7372 546.646 97.2679L545.459 95.6582C543.045 97.438 541.369 100.045 540.386 103.391L542.305 103.955ZM546.651 97.264C548.673 95.7524 550.998 94.9929 553.663 94.9929V92.9929C550.587 92.9929 547.837 93.8802 545.454 95.6621L546.651 97.264ZM553.663 94.9929C554.334 94.9929 555.066 95.0349 555.859 95.1206L556.074 93.1322C555.22 93.0399 554.416 92.9929 553.663 92.9929V94.9929ZM555.859 95.1206C556.649 95.206 557.325 95.3217 557.894 95.4637L558.379 93.5235C557.701 93.3539 556.93 93.2248 556.074 93.1322L555.859 95.1206ZM557.136 94.4936V107.112H559.136V94.4936H557.136ZM558.423 106.154C557.681 105.931 556.697 105.745 555.496 105.586L555.235 107.569C556.392 107.722 557.256 107.891 557.849 108.069L558.423 106.154ZM555.496 105.586C554.282 105.426 553.159 105.344 552.128 105.344V107.344C553.055 107.344 554.09 107.418 555.235 107.569L555.496 105.586ZM552.128 105.344C549.885 105.344 547.846 105.834 546.035 106.838L547.004 108.587C548.487 107.766 550.186 107.344 552.128 107.344V105.344ZM546.039 106.835C544.257 107.812 542.836 109.184 541.789 110.938L543.506 111.964C544.372 110.513 545.533 109.393 547 108.589L546.039 106.835ZM541.784 110.947C540.749 112.721 540.245 114.746 540.245 116.992H542.245C542.245 115.054 542.677 113.385 543.511 111.955L541.784 110.947ZM540.245 116.992V146H542.245V116.992H540.245ZM541.245 145H527.025V147H541.245V145Z" fill="url(#paint0_linear_1_337)"/>
<defs>
<linearGradient id="paint0_linear_1_337" x1="-117.054" y1="149" x2="565.229" y2="-89.6268" gradientUnits="userSpaceOnUse">
<stop offset="0.6896" stop-color="#F42D32"/>
<stop offset="1" stop-color="#FCCB4C"/>
</linearGradient>
</defs>
</svg>
