<svg width="55" height="54" viewBox="0 0 55 54" fill="none" xmlns="http://www.w3.org/2000/svg">
<path d="M44.9063 46.7124C44.4274 46.7124 43.9484 46.536 43.5703 46.1579C43.2187 45.8021 43.0215 45.3221 43.0215 44.8219C43.0215 44.3217 43.2187 43.8416 43.5703 43.4859C52.6703 34.3859 52.6703 19.5889 43.5703 10.5141C43.2187 10.1584 43.0215 9.67833 43.0215 9.17813C43.0215 8.67794 43.2187 8.1979 43.5703 7.84212C44.3013 7.1111 45.5113 7.1111 46.2423 7.84212C56.8044 18.4042 56.8044 35.5958 46.2423 46.1579C45.8642 46.536 45.3853 46.7124 44.9063 46.7124ZM9.25754 46.7124C8.77859 46.7124 8.29964 46.536 7.92153 46.1579C-2.64051 35.5958 -2.64051 18.4042 7.92153 7.84212C8.65255 7.1111 9.86252 7.1111 10.5935 7.84212C11.3246 8.57315 11.3246 9.78312 10.5935 10.5141C1.49356 19.6141 1.49356 34.4111 10.5935 43.4859C11.3246 44.2169 11.3246 45.4269 10.5935 46.1579C10.2154 46.536 9.73648 46.7124 9.25754 46.7124ZM27.0769 54C23.9259 53.9748 20.9262 53.4706 18.1281 52.4875C17.654 52.3197 17.2657 51.9707 17.0484 51.5171C16.831 51.0636 16.8023 50.5423 16.9686 50.0676C17.3215 49.0845 18.3802 48.5551 19.3885 48.908C21.8085 49.7399 24.3797 50.1936 27.1021 50.1936C29.7993 50.1936 32.3957 49.7399 34.7904 48.908C35.7735 48.5803 36.8575 49.0845 37.2104 50.0676C37.5633 51.0507 37.0339 52.1346 36.0508 52.4875C33.2276 53.4706 30.2278 54 27.0769 54ZM35.3954 5.16758C35.1938 5.16758 34.9669 5.14238 34.7652 5.06675C32.2953 4.19982 29.6945 3.76493 27.0769 3.78116C24.3797 3.78116 21.8085 4.2349 19.3885 5.06675C18.3802 5.39445 17.3215 4.8903 16.9686 3.9072C16.6157 2.9241 17.145 1.84016 18.1281 1.48726C20.9514 0.504155 23.9511 0 27.0769 0C30.2026 0 33.2276 0.504155 36.0256 1.48726C36.4514 1.63209 36.8117 1.92398 37.0416 2.31052C37.2716 2.69705 37.3562 3.1529 37.2803 3.59621C37.2044 4.03952 36.9729 4.44125 36.6274 4.72925C36.282 5.01726 35.8452 5.17267 35.3954 5.16758ZM18.8566 26.9975V22.7878C18.8566 17.5446 22.5622 15.4019 27.0996 18.0235L30.7547 20.141L34.4098 22.2584C38.9472 24.88 38.9472 29.1653 34.4098 31.7869L30.7547 33.9044L27.0996 36.0218C22.5622 38.6435 18.8566 36.5008 18.8566 31.2576V26.9975Z" fill="url(#paint0_linear_204_4)"/>
<defs>
<linearGradient id="paint0_linear_204_4" x1="-3.0554" y1="63.5" x2="64.0967" y2="55.3509" gradientUnits="userSpaceOnUse">
<stop offset="0.689647" stop-color="#F42D32"/>
<stop offset="1" stop-color="#FCCB4C"/>
</linearGradient>
</defs>
</svg>
