<svg width="329" height="222" viewBox="0 0 329 222" fill="none" xmlns="http://www.w3.org/2000/svg">
<path d="M306.459 6.69526L306.459 6.69526L24.4142 1.00812C17.8699 0.876204 11.9205 2.10575 7.64493 4.13394C3.29865 6.19565 1 8.90596 1 11.5968V210.407C1 213.059 3.2363 215.735 7.48389 217.79C11.6643 219.813 17.4953 221.066 23.9478 221L305.984 218.156C312.258 218.093 317.852 216.795 321.841 214.786C325.89 212.746 328 210.138 328 207.564V17.284C328 14.7477 325.949 12.1733 321.999 10.1407C318.105 8.13702 312.632 6.81893 306.459 6.69526Z" fill="#0D0D0D" stroke="url(#paint0_linear_285_1072)" stroke-width="2"/>
<defs>
<linearGradient id="paint0_linear_285_1072" x1="231.924" y1="364.535" x2="-96.112" y2="141.115" gradientUnits="userSpaceOnUse">
<stop offset="0.6896" stop-color="#F42D32" stop-opacity="0.04"/>
<stop offset="1" stop-color="#FCCB4C"/>
</linearGradient>
</defs>
</svg>
