<svg width="545" height="108" viewBox="0 0 545 108" fill="none" xmlns="http://www.w3.org/2000/svg">
<path opacity="0.3" d="M0.70277 84H-0.29723V85H0.70277V84ZM0.70277 0.363634V-0.636366H-0.29723V0.363634H0.70277ZM49.8718 3.75319L49.4202 4.64546L49.4268 4.6487L49.8718 3.75319ZM60.1222 13.2685L59.2532 13.7634L59.2571 13.7702L60.1222 13.2685ZM60.0813 42.0185L60.9378 42.5347L60.9393 42.5321L60.0813 42.0185ZM49.6676 51.1662L49.2444 50.2601L49.2423 50.2611L49.6676 51.1662ZM11.1573 54.3516H10.1573V55.3516H11.1573V54.3516ZM11.1573 40.1399V39.1399H10.1573V40.1399H11.1573ZM38.8047 38.7514L39.1877 39.6752L38.8047 38.7514ZM43.7869 34.5859L42.9305 34.0696L42.925 34.0789L43.7869 34.5859ZM43.7869 20.6602L42.9186 21.1563L42.924 21.1656L43.7869 20.6602ZM38.7639 16.3313L38.3526 17.2428L38.3592 17.2458L38.3659 17.2487L38.7639 16.3313ZM18.3857 14.8203V13.8203H17.3857V14.8203H18.3857ZM18.3857 84V85H19.3857V84H18.3857ZM45.8697 45.9389L46.7473 45.4596L46.463 44.9389H45.8697V45.9389ZM66.6562 84V85H68.3418L67.5339 83.5207L66.6562 84ZM47.1357 84L46.2537 84.4713L46.5362 85H47.1357V84ZM26.7983 45.9389V44.9389H25.1302L25.9163 46.4102L26.7983 45.9389ZM1.70277 84V0.363634H-0.29723V84H1.70277ZM0.70277 1.36363H33.6999V-0.636366H0.70277V1.36363ZM33.6999 1.36363C39.8994 1.36363 45.1271 2.47269 49.4202 4.64544L50.3234 2.86095C45.6866 0.51428 40.133 -0.636366 33.6999 -0.636366V1.36363ZM49.4268 4.6487C53.7523 6.79836 57.0163 9.83568 59.2532 13.7634L60.9911 12.7736C58.5453 8.47919 54.9757 5.17299 50.3168 2.85768L49.4268 4.6487ZM59.2571 13.7702C61.5233 17.6773 62.6751 22.3034 62.6751 27.6843H64.6751C64.6751 22.0117 63.4583 17.0272 60.9872 12.7667L59.2571 13.7702ZM62.6751 27.6843C62.6751 33.0921 61.5099 37.6852 59.2233 41.5048L60.9393 42.5321C63.4444 38.3474 64.6751 33.3845 64.6751 27.6843H62.6751ZM59.2249 41.5022C56.9399 45.2932 53.6265 48.2135 49.2444 50.2601L50.0908 52.0722C54.8021 49.8718 58.431 46.6936 60.9378 42.5347L59.2249 41.5022ZM49.2423 50.2611C44.8884 52.3069 39.5695 53.3516 33.2507 53.3516V55.3516C39.7823 55.3516 45.408 54.2726 50.0929 52.0713L49.2423 50.2611ZM33.2507 53.3516H11.1573V55.3516H33.2507V53.3516ZM12.1573 54.3516V40.1399H10.1573V54.3516H12.1573ZM11.1573 41.1399H30.392V39.1399H11.1573V41.1399ZM30.392 41.1399C33.8509 41.1399 36.7958 40.6669 39.1877 39.6752L38.4217 37.8277C36.3486 38.6873 33.6851 39.1399 30.392 39.1399V41.1399ZM39.1877 39.6752C41.5945 38.6772 43.4361 37.1547 44.6489 35.093L42.925 34.0789C41.9598 35.7198 40.4799 36.9743 38.4217 37.8277L39.1877 39.6752ZM44.6433 35.1023C45.8759 33.058 46.4613 30.5672 46.4613 27.6843H44.4613C44.4613 30.3009 43.9305 32.4112 42.9306 34.0696L44.6433 35.1023ZM46.4613 27.6843C46.4613 24.7748 45.8762 22.2486 44.6498 20.1548L42.924 21.1656C43.9301 22.8833 44.4613 25.0398 44.4613 27.6843H46.4613ZM44.6552 20.164C43.446 18.048 41.5942 16.4689 39.1618 15.4139L38.3659 17.2487C40.4529 18.1539 41.9498 19.4607 42.9187 21.1563L44.6552 20.164ZM39.1751 15.4198C36.7734 14.3361 33.8037 13.8203 30.3104 13.8203V15.8203C33.6234 15.8203 36.2894 16.3119 38.3526 17.2428L39.1751 15.4198ZM30.3104 13.8203H18.3857V15.8203H30.3104V13.8203ZM17.3857 14.8203V84H19.3857V14.8203H17.3857ZM18.3857 83H0.70277V85H18.3857V83ZM44.992 46.4182L65.7786 84.4793L67.5339 83.5207L46.7473 45.4596L44.992 46.4182ZM66.6562 83H47.1357V85H66.6562V83ZM48.0176 83.5287L27.6803 45.4676L25.9163 46.4102L46.2537 84.4713L48.0176 83.5287ZM26.7983 46.9389H45.8697V44.9389H26.7983V46.9389ZM86.7179 81.1822L86.2087 82.0428L86.2147 82.0463L86.7179 81.1822ZM76.0592 69.8292L75.1698 70.2863L75.1709 70.2883L76.0592 69.8292ZM76.0592 35.8928L76.9476 36.3519L76.9486 36.3499L76.0592 35.8928ZM86.7179 24.5398L87.2234 25.4026L87.225 25.4017L86.7179 24.5398ZM119.593 24.5398L119.083 25.4004L119.089 25.4039L119.593 24.5398ZM130.292 35.8928L129.403 36.3499L129.404 36.3519L130.292 35.8928ZM130.292 69.8292L131.181 70.2883L131.182 70.2863L130.292 69.8292ZM119.593 81.1822L120.098 82.045L120.1 82.0441L119.593 81.1822ZM110.486 69.2983L111.131 70.0621L111.137 70.0568L110.486 69.2983ZM114.855 62.5192L113.912 62.1868L113.909 62.1949L114.855 62.5192ZM114.855 42.9986L113.909 43.3229L113.912 43.3309L114.855 42.9986ZM95.9065 36.2195L95.2653 35.4521L95.2601 35.4565L95.9065 36.2195ZM91.4552 42.9986L90.512 42.6662L90.5092 42.6743L91.4552 42.9986ZM91.4552 62.5192L90.5092 62.8435L90.512 62.8515L91.4552 62.5192ZM95.9065 69.2983L95.2601 70.0613L95.2658 70.0661L95.2716 70.0708L95.9065 69.2983ZM103.176 84.2251C96.9762 84.2251 91.6707 82.9092 87.2212 80.318L86.2147 82.0463C91.0219 84.8458 96.6882 86.2251 103.176 86.2251V84.2251ZM87.2272 80.3216C82.7911 77.6966 79.368 74.053 76.9476 69.37L75.1709 70.2883C77.7599 75.2976 81.4426 79.2226 86.2087 82.0428L87.2272 80.3216ZM76.9486 69.3721C74.5281 64.6627 73.3021 59.175 73.3021 52.8814H71.3021C71.3021 59.4382 72.5808 65.249 75.1698 70.2863L76.9486 69.3721ZM73.3021 52.8814C73.3021 46.5317 74.5288 41.0317 76.9476 36.3519L75.1709 35.4336C72.5802 40.446 71.3021 46.2718 71.3021 52.8814H73.3021ZM76.9486 36.3499C79.369 31.6406 82.7909 27.9992 87.2234 25.4026L86.2125 23.6769C81.4428 26.471 77.7589 30.3982 75.1698 35.4356L76.9486 36.3499ZM87.225 25.4017C91.6738 22.7848 96.9779 21.456 103.176 21.456V19.456C96.6865 19.456 91.0188 20.8497 86.2109 23.6778L87.225 25.4017ZM103.176 21.456C109.374 21.456 114.663 22.7848 119.083 25.4004L120.102 23.6791C115.32 20.8496 109.665 19.456 103.176 19.456V21.456ZM119.089 25.4039C123.549 28.0009 126.983 31.6421 129.403 36.3499L131.182 35.4356C128.592 30.3967 124.893 26.4693 120.096 23.6756L119.089 25.4039ZM129.404 36.3519C131.823 41.0317 133.049 46.5317 133.049 52.8814H135.049C135.049 46.2718 133.771 40.446 131.181 35.4336L129.404 36.3519ZM133.049 52.8814C133.049 59.175 131.823 64.6627 129.403 69.3721L131.182 70.2863C133.771 65.249 135.049 59.4382 135.049 52.8814H133.049ZM129.404 69.37C126.984 74.0514 123.549 77.6949 119.086 80.3202L120.1 82.0441C124.893 79.2244 128.591 75.2992 131.181 70.2883L129.404 69.37ZM119.087 80.3193C114.666 82.9091 109.375 84.2251 103.176 84.2251V86.2251C109.663 86.2251 115.317 84.8458 120.098 82.045L119.087 80.3193ZM103.257 72.7486C106.344 72.7486 108.993 71.8694 111.131 70.0621L109.84 68.5345C108.113 69.9942 105.942 70.7486 103.257 70.7486V72.7486ZM111.137 70.0568C113.229 68.2602 114.774 65.839 115.801 62.8435L113.909 62.1949C112.976 64.9167 111.609 67.0149 109.834 68.5398L111.137 70.0568ZM115.799 62.8515C116.85 59.8669 117.366 56.4979 117.366 52.7589H115.366C115.366 56.3162 114.875 59.4542 113.912 62.1868L115.799 62.8515ZM117.366 52.7589C117.366 49.0198 116.85 45.6509 115.799 42.6662L113.912 43.3309C114.875 46.0636 115.366 49.2015 115.366 52.7589H117.366ZM115.801 42.6743C114.774 39.6787 113.229 37.2576 111.137 35.461L109.834 36.978C111.609 38.5028 112.976 40.6011 113.909 43.3229L115.801 42.6743ZM111.137 35.461C108.999 33.6237 106.349 32.7283 103.257 32.7283V34.7283C105.938 34.7283 108.106 35.4937 109.834 36.978L111.137 35.461ZM103.257 32.7283C100.141 32.7283 97.4551 33.6222 95.2653 35.4521L96.5477 36.9868C98.3328 35.4952 100.548 34.7283 103.257 34.7283V32.7283ZM95.2601 35.4565C93.1419 37.251 91.5676 39.6705 90.512 42.6662L92.3983 43.3309C93.3574 40.6093 94.7506 38.5094 96.5529 36.9824L95.2601 35.4565ZM90.5092 42.6743C89.4868 45.6564 88.985 49.0225 88.985 52.7589H90.985C90.985 49.1989 91.4633 46.0581 92.4011 43.3229L90.5092 42.6743ZM88.985 52.7589C88.985 56.4953 89.4868 59.8614 90.5092 62.8435L92.4011 62.1949C91.4633 59.4596 90.985 56.3189 90.985 52.7589H88.985ZM90.512 62.8515C91.5676 65.8472 93.1419 68.2667 95.2601 70.0613L96.5529 68.5353C94.7506 67.0084 93.3574 64.9085 92.3983 62.1868L90.512 62.8515ZM95.2716 70.0708C97.4615 71.8708 100.145 72.7486 103.257 72.7486V70.7486C100.543 70.7486 98.3264 69.9928 96.5415 68.5258L95.2716 70.0708ZM152.549 83.1016L152.137 84.0128L152.144 84.0157L152.549 83.1016ZM145.116 76.8533L144.277 77.3966L144.283 77.4061L145.116 76.8533ZM144.34 57.7003L143.461 57.225L144.34 57.7003ZM149.568 51.983L149.02 51.1462L149.568 51.983ZM157.082 48.7159L156.831 47.748L156.828 47.7486L157.082 48.7159ZM165.985 47.1641L166.081 48.1595L166.089 48.1586L165.985 47.1641ZM174.806 46.1023L174.95 47.0918L174.962 47.0899L174.806 46.1023ZM179.665 44.5504L179.106 43.7218H179.106L179.665 44.5504ZM178.726 35.2802L178.065 36.0304L178.071 36.0359L178.726 35.2802ZM164.392 35.2393L164.984 36.045L164.992 36.0393L164.392 35.2393ZM160.717 40.3849L160.636 41.3817L161.45 41.4478L161.677 40.663L160.717 40.3849ZM144.626 39.0781L143.649 38.8686L143.41 39.9826L144.545 40.0748L144.626 39.0781ZM149.445 29.1953L150.202 29.8486L150.206 29.8449L149.445 29.1953ZM158.715 22.7429L159.083 23.6728L159.087 23.6714L158.715 22.7429ZM181.952 21.6811L181.704 22.6498L181.706 22.6503L181.952 21.6811ZM190.487 25.479L189.918 26.3012L189.922 26.3041L190.487 25.479ZM196.409 32.0948L195.527 32.5668L195.529 32.5705L196.409 32.0948ZM198.573 84V85H199.573V84H198.573ZM182.075 84H181.075V85H182.075V84ZM182.075 75.3015H183.075V74.3015H182.075V75.3015ZM181.585 75.3015V74.3015H180.974L180.695 74.8444L181.585 75.3015ZM177.542 80.4879L178.199 81.242L178.205 81.236L177.542 80.4879ZM171.457 83.9592L171.783 84.9046L171.793 84.9011L171.457 83.9592ZM175.01 71.6669L175.467 72.5564L175.477 72.5513L175.01 71.6669ZM179.625 67.5014L178.783 66.962L179.625 67.5014ZM181.299 54.9233H182.299V53.0806L180.754 54.0849L181.299 54.9233ZM179.053 55.9034L179.335 56.8628L179.344 56.8602L179.353 56.8574L179.053 55.9034ZM175.908 56.6793L176.091 57.6625L176.102 57.6604L176.113 57.6581L175.908 56.6793ZM172.396 57.2919L172.534 58.2823L172.546 58.2807L172.557 58.2789L172.396 57.2919ZM169.211 57.7411L169.069 56.7512L169.066 56.7517L169.211 57.7411ZM163.861 59.1705L164.255 60.0896L163.861 59.1705ZM160.308 61.8249L161.099 62.4375L161.106 62.428L160.308 61.8249ZM161.615 71.3402L161.025 72.1478L161.032 72.1531L161.04 72.1582L161.615 71.3402ZM163.248 84.1843C159.363 84.1843 155.938 83.5106 152.954 82.1874L152.144 84.0157C155.422 85.4695 159.13 86.1843 163.248 86.1843V84.1843ZM152.961 82.1904C149.994 80.8488 147.665 78.8869 145.95 76.3005L144.283 77.4061C146.216 80.3193 148.842 82.5229 152.137 84.0127L152.961 82.1904ZM145.956 76.3101C144.287 73.7312 143.421 70.4743 143.421 66.4805H141.421C141.421 70.7632 142.352 74.4215 144.277 77.3966L145.956 76.3101ZM143.421 66.4805C143.421 63.1141 144.039 60.3615 145.22 58.1756L143.461 57.225C142.082 59.7763 141.421 62.8771 141.421 66.4805H143.421ZM145.22 58.1756C146.423 55.9499 148.052 54.1697 150.115 52.8197L149.02 51.1462C146.673 52.6821 144.817 54.7134 143.461 57.225L145.22 58.1756ZM150.115 52.8197C152.222 51.4415 154.625 50.3937 157.336 49.6832L156.828 47.7486C153.93 48.5083 151.324 49.6385 149.02 51.1462L150.115 52.8197ZM157.333 49.6838C160.111 48.9628 163.026 48.4542 166.081 48.1594L165.889 46.1687C162.736 46.4729 159.716 46.9988 156.831 47.748L157.333 49.6838ZM166.089 48.1586C169.743 47.7768 172.699 47.4213 174.95 47.0917L174.661 45.1128C172.448 45.4367 169.523 45.789 165.881 46.1695L166.089 48.1586ZM174.962 47.0899C177.236 46.7295 179.033 46.1848 180.225 45.379L179.106 43.7218C178.283 44.2773 176.84 44.7672 174.649 45.1146L174.962 47.0899ZM180.225 45.379C181.538 44.4921 182.176 43.1565 182.176 41.5284H180.176C180.176 42.5684 179.808 43.2475 179.106 43.7218L180.225 45.379ZM182.176 41.5284V41.2834H180.176V41.5284H182.176ZM182.176 41.2834C182.176 38.4695 181.277 36.1676 179.381 34.5245L178.071 36.0359C179.442 37.2242 180.176 38.9245 180.176 41.2834H182.176ZM179.387 34.53C177.538 32.9004 174.982 32.1566 171.865 32.1566V34.1566C174.683 34.1566 176.701 34.8285 178.065 36.0304L179.387 34.53ZM171.865 32.1566C168.593 32.1566 165.868 32.8821 163.792 34.4393L164.992 36.0393C166.618 34.8196 168.875 34.1566 171.865 34.1566V32.1566ZM163.8 34.4337C161.783 35.9162 160.42 37.8115 159.756 40.1069L161.677 40.663C162.211 38.8201 163.298 37.2851 164.984 36.045L163.8 34.4337ZM160.797 39.3882L144.707 38.0814L144.545 40.0748L160.636 41.3817L160.797 39.3882ZM145.604 39.2877C146.388 35.6295 147.923 32.4905 150.202 29.8485L148.688 28.5421C146.176 31.4541 144.498 34.9036 143.649 38.8686L145.604 39.2877ZM150.206 29.8449C152.485 27.1771 155.435 25.1164 159.083 23.6727L158.348 21.813C154.428 23.3641 151.197 25.605 148.685 28.5457L150.206 29.8449ZM159.087 23.6714C162.757 22.2032 167.038 21.456 171.947 21.456V19.456C166.838 19.456 162.297 20.2334 158.344 21.8144L159.087 23.6714ZM171.947 21.456C175.353 21.456 178.604 21.855 181.704 22.6498L182.201 20.7124C178.929 19.8737 175.511 19.456 171.947 19.456V21.456ZM181.706 22.6503C184.815 23.4406 187.548 24.6603 189.918 26.3012L191.057 24.6569C188.472 22.8674 185.515 21.5551 182.199 20.7119L181.706 22.6503ZM189.922 26.3041C192.294 27.9281 194.16 30.0118 195.527 32.5668L197.291 31.6228C195.773 28.7872 193.691 26.4604 191.052 24.654L189.922 26.3041ZM195.529 32.5705C196.877 35.0626 197.573 38.0903 197.573 41.6918H199.573C199.573 37.8335 198.827 34.4632 197.289 31.6191L195.529 32.5705ZM197.573 41.6918V84H199.573V41.6918H197.573ZM198.573 83H182.075V85H198.573V83ZM183.075 84V75.3015H181.075V84H183.075ZM182.075 74.3015H181.585V76.3015H182.075V74.3015ZM180.695 74.8444C179.746 76.6919 178.476 78.3226 176.878 79.7399L178.205 81.236C179.984 79.6584 181.409 77.8316 182.474 75.7586L180.695 74.8444ZM176.885 79.7338C175.302 81.1123 173.387 82.21 171.121 83.0172L171.793 84.9011C174.265 84.0203 176.405 82.8039 178.199 81.242L176.885 79.7338ZM171.131 83.0138C168.889 83.7869 166.267 84.1843 163.248 84.1843V86.1843C166.438 86.1843 169.288 85.7649 171.783 84.9045L171.131 83.0138ZM168.231 74.1779C170.923 74.1779 173.344 73.6472 175.467 72.5563L174.553 70.7775C172.755 71.7013 170.657 72.1779 168.231 72.1779V74.1779ZM175.477 72.5513C177.578 71.442 179.251 69.9391 180.467 68.0408L178.783 66.962C177.766 68.5486 176.362 69.8227 174.543 70.7825L175.477 72.5513ZM180.467 68.0408C181.693 66.1267 182.299 63.9632 182.299 61.5799H180.299C180.299 63.6071 179.789 65.3913 178.783 66.962L180.467 68.0408ZM182.299 61.5799V54.9233H180.299V61.5799H182.299ZM180.754 54.0849C180.315 54.3703 179.66 54.6642 178.753 54.9494L179.353 56.8574C180.351 56.5436 181.194 56.1841 181.844 55.7617L180.754 54.0849ZM178.771 54.944C177.876 55.2073 176.854 55.4597 175.703 55.7005L176.113 57.6581C177.304 57.4089 178.379 57.144 179.335 56.8628L178.771 54.944ZM175.725 55.6962C174.562 55.9126 173.399 56.1155 172.236 56.3049L172.557 58.2789C173.735 58.0871 174.913 57.8816 176.091 57.6625L175.725 55.6962ZM172.258 56.3015C171.086 56.465 170.024 56.6149 169.069 56.7512L169.352 58.7311C170.304 58.5951 171.365 58.4455 172.534 58.2823L172.258 56.3015ZM169.066 56.7517C166.958 57.0608 165.088 57.5567 163.467 58.2513L164.255 60.0896C165.683 59.4774 167.38 59.0204 169.356 58.7305L169.066 56.7517ZM163.467 58.2513C161.812 58.9604 160.477 59.9432 159.51 61.2218L161.106 62.428C161.827 61.4741 162.86 60.6873 164.255 60.0896L163.467 58.2513ZM159.518 61.2124C158.514 62.5076 158.042 64.0961 158.042 65.9087H160.042C160.042 64.4543 160.414 63.3202 161.099 62.4375L159.518 61.2124ZM158.042 65.9087C158.042 68.5541 159.02 70.6834 161.025 72.1478L162.205 70.5326C160.78 69.4922 160.042 68.0006 160.042 65.9087H158.042ZM161.04 72.1582C162.989 73.5287 165.409 74.1779 168.231 74.1779V72.1779C165.716 72.1779 163.726 71.602 162.19 70.5222L161.04 72.1582ZM222.239 81.3455L221.697 82.1858L221.704 82.1902L222.239 81.3455ZM213.091 70.4418L212.184 70.8621L212.187 70.8683L213.091 70.4418ZM213.214 34.7901L214.113 35.227L214.114 35.225L213.214 34.7901ZM222.443 24.0497L222.968 24.9008L222.97 24.8997L222.443 24.0497ZM243.924 22.2528L243.469 23.1432L243.481 23.1493L243.924 22.2528ZM249.641 26.6634L248.866 27.2953L248.872 27.3018L248.877 27.3082L249.641 26.6634ZM252.99 31.8089L252.079 32.2205L252.345 32.8089H252.99V31.8089ZM253.521 31.8089V32.8089H254.521V31.8089H253.521ZM253.521 0.363634V-0.636366H252.521V0.363634H253.521ZM270.877 0.363634H271.877V-0.636366H270.877V0.363634ZM270.877 84V85H271.877V84H270.877ZM253.725 84H252.725V85H253.725V84ZM253.725 73.9538H254.725V72.9538H253.725V73.9538ZM252.99 73.9538V72.9538H252.354L252.085 73.5294L252.99 73.9538ZM249.519 79.1403L248.766 78.4826L248.765 78.4835L249.519 79.1403ZM243.761 83.3466L243.334 82.442L243.33 82.4439L243.761 83.3466ZM247.804 68.8899L248.423 69.6751L248.424 69.674L247.804 68.8899ZM252.296 62.3967L251.362 62.0395L251.359 62.0476L252.296 62.3967ZM252.337 42.9169L253.273 42.5648L252.337 42.9169ZM233.47 36.6278L232.849 35.8438V35.8438L233.47 36.6278ZM229.018 62.315L228.077 62.6531L228.081 62.6641L229.018 62.315ZM233.47 68.8491L232.837 69.6235L232.843 69.6284L232.849 69.6331L233.47 68.8491ZM235.185 84.021C230.602 84.021 226.474 82.8454 222.774 80.5009L221.704 82.1902C225.737 84.7462 230.239 86.021 235.185 86.021V84.021ZM222.781 80.5053C219.123 78.1444 216.189 74.6653 213.996 70.0152L212.187 70.8683C214.513 75.8015 217.677 79.5916 221.697 82.1857L222.781 80.5053ZM213.999 70.0214C211.843 65.3691 210.743 59.6138 210.743 52.718H208.743C208.743 59.8161 209.874 65.8767 212.184 70.8621L213.999 70.0214ZM210.743 52.718C210.743 45.6307 211.885 39.8157 214.113 35.227L212.314 34.3532C209.915 39.2934 208.743 45.4304 208.743 52.718H210.743ZM214.114 35.225C216.361 30.5737 219.319 27.1524 222.968 24.9008L221.918 23.1987C217.89 25.6842 214.695 29.4232 212.313 34.3552L214.114 35.225ZM222.97 24.8997C226.676 22.6031 230.727 21.456 235.144 21.456V19.456C230.359 19.456 225.943 20.7046 221.917 23.1997L222.97 24.8997ZM235.144 21.456C238.548 21.456 241.307 22.0374 243.469 23.1431L244.38 21.3626C241.858 20.0725 238.764 19.456 235.144 19.456V21.456ZM243.481 23.1493C245.741 24.2665 247.527 25.6527 248.866 27.2953L250.416 26.0314C248.87 24.1347 246.844 22.5806 244.367 21.3564L243.481 23.1493ZM248.877 27.3082C250.301 28.9956 251.362 30.6335 252.079 32.2205L253.902 31.3974C253.094 29.6084 251.922 27.8159 250.406 26.0185L248.877 27.3082ZM252.99 32.8089H253.521V30.8089H252.99V32.8089ZM254.521 31.8089V0.363634H252.521V31.8089H254.521ZM253.521 1.36363H270.877V-0.636366H253.521V1.36363ZM269.877 0.363634V84H271.877V0.363634H269.877ZM270.877 83H253.725V85H270.877V83ZM254.725 84V73.9538H252.725V84H254.725ZM253.725 72.9538H252.99V74.9538H253.725V72.9538ZM252.085 73.5294C251.314 75.1736 250.213 76.8252 248.766 78.4826L250.272 79.7979C251.82 78.0249 253.033 76.2189 253.896 74.3783L252.085 73.5294ZM248.765 78.4835C247.4 80.0508 245.599 81.3749 243.334 82.442L244.187 84.2512C246.66 83.0858 248.698 81.6056 250.273 79.7971L248.765 78.4835ZM243.33 82.4439C241.158 83.4798 238.455 84.021 235.185 84.021V86.021C238.666 86.021 241.681 85.4459 244.191 84.2493L243.33 82.4439ZM240.698 72.1768C243.694 72.1768 246.289 71.3579 248.423 69.6751L247.184 68.1047C245.452 69.4712 243.31 70.1768 240.698 70.1768V72.1768ZM248.424 69.674C250.552 67.9893 252.147 65.6619 253.233 62.7458L251.359 62.0476C250.376 64.6854 248.975 66.6869 247.183 68.1059L248.424 69.674ZM253.23 62.7538C254.345 59.8379 254.889 56.4585 254.889 52.6364H252.889C252.889 56.274 252.371 59.4015 251.362 62.0395L253.23 62.7538ZM254.889 52.6364C254.889 48.8172 254.359 45.4529 253.273 42.5648L251.401 43.269C252.383 45.8805 252.889 48.9958 252.889 52.6364H254.889ZM253.273 42.5648C252.185 39.6734 250.587 37.3828 248.452 35.7515L247.238 37.3408C249.022 38.7043 250.419 40.6608 251.401 43.269L253.273 42.5648ZM248.452 35.7515C246.294 34.103 243.69 33.3001 240.698 33.3001V35.3001C243.314 35.3001 245.475 35.9945 247.238 37.3408L248.452 35.7515ZM240.698 33.3001C237.648 33.3001 235.011 34.1324 232.849 35.8438L234.09 37.4119C235.849 36.0196 238.031 35.3001 240.698 35.3001V33.3001ZM232.849 35.8438C230.721 37.5285 229.139 39.8434 228.079 42.7363L229.957 43.4242C230.912 40.8176 232.298 38.8308 234.09 37.4119L232.849 35.8438ZM228.079 42.7363C227.023 45.6188 226.507 48.9248 226.507 52.6364H228.507C228.507 49.106 228.998 46.0412 229.957 43.4242L228.079 42.7363ZM226.507 52.6364C226.507 56.3748 227.023 59.7191 228.077 62.6531L229.959 61.9769C228.999 59.3024 228.507 56.1943 228.507 52.6364H226.507ZM228.081 62.6641C229.166 65.576 230.743 67.9128 232.837 69.6235L234.102 68.0746C232.33 66.6272 230.94 64.6079 229.955 61.9659L228.081 62.6641ZM232.849 69.6331C235.011 71.3445 237.648 72.1768 240.698 72.1768V70.1768C238.031 70.1768 235.849 69.4573 234.09 68.065L232.849 69.6331ZM312.124 0.363634V-0.636366H311.124V0.363634H312.124ZM333.931 0.363634L334.856 -0.0156269L334.602 -0.636366H333.931V0.363634ZM356.964 56.5568L356.039 56.9361L356.293 57.5568H356.964V56.5568ZM357.944 56.5568V57.5568H358.615L358.869 56.9361L357.944 56.5568ZM380.977 0.363634V-0.636366H380.306L380.051 -0.0156269L380.977 0.363634ZM402.784 0.363634H403.784V-0.636366H402.784V0.363634ZM402.784 84V85H403.784V84H402.784ZM385.632 84H384.632V85H385.632V84ZM385.632 29.5629H386.632V28.5629H385.632V29.5629ZM384.938 29.5629V28.5629H384.261L384.01 29.191L384.938 29.5629ZM363.294 83.5916V84.5916H363.97L364.222 83.9635L363.294 83.5916ZM351.614 83.5916L350.685 83.9623L350.936 84.5916H351.614V83.5916ZM329.97 29.3587L330.899 28.988L330.647 28.3587H329.97V29.3587ZM329.276 29.3587V28.3587H328.276V29.3587H329.276ZM329.276 84V85H330.276V84H329.276ZM312.124 84H311.124V85H312.124V84ZM312.124 1.36363H333.931V-0.636366H312.124V1.36363ZM333.006 0.742895L356.039 56.9361L357.889 56.1776L334.856 -0.0156269L333.006 0.742895ZM356.964 57.5568H357.944V55.5568H356.964V57.5568ZM358.869 56.9361L381.902 0.742895L380.051 -0.0156269L357.019 56.1776L358.869 56.9361ZM380.977 1.36363H402.784V-0.636366H380.977V1.36363ZM401.784 0.363634V84H403.784V0.363634H401.784ZM402.784 83H385.632V85H402.784V83ZM386.632 84V29.5629H384.632V84H386.632ZM385.632 28.5629H384.938V30.5629H385.632V28.5629ZM384.01 29.191L362.365 83.2197L364.222 83.9635L385.866 29.9347L384.01 29.191ZM363.294 82.5916H351.614V84.5916H363.294V82.5916ZM352.543 83.221L330.899 28.988L329.041 29.7293L350.685 83.9623L352.543 83.221ZM329.97 28.3587H329.276V30.3587H329.97V28.3587ZM328.276 29.3587V84H330.276V29.3587H328.276ZM329.276 83H312.124V85H329.276V83ZM313.124 84V0.363634H311.124V84H313.124ZM424.214 83.1016L423.802 84.0128L423.809 84.0157L424.214 83.1016ZM416.781 76.8533L415.942 77.3966L415.948 77.4061L416.781 76.8533ZM416.005 57.7003L415.126 57.225L416.005 57.7003ZM421.233 51.983L420.685 51.1462L421.233 51.983ZM428.747 48.7159L428.496 47.748L428.493 47.7486L428.747 48.7159ZM437.65 47.1641L437.746 48.1595L437.754 48.1586L437.65 47.1641ZM446.471 46.1023L446.616 47.0918L446.627 47.0899L446.471 46.1023ZM451.33 44.5504L450.771 43.7218L451.33 44.5504ZM450.391 35.2802L449.73 36.0304L449.736 36.0359L450.391 35.2802ZM436.057 35.2393L436.649 36.045L436.657 36.0393L436.057 35.2393ZM432.382 40.3849L432.301 41.3817L433.115 41.4478L433.342 40.663L432.382 40.3849ZM416.291 39.0781L415.314 38.8686L415.075 39.9826L416.21 40.0748L416.291 39.0781ZM421.11 29.1953L421.867 29.8486L421.871 29.8449L421.11 29.1953ZM430.38 22.7429L430.748 23.6728L430.752 23.6714L430.38 22.7429ZM453.617 21.6811L453.369 22.6498L453.371 22.6503L453.617 21.6811ZM462.153 25.479L461.583 26.3012L461.588 26.3041L462.153 25.479ZM468.074 32.0948L467.192 32.5668L467.194 32.5705L468.074 32.0948ZM470.238 84V85H471.238V84H470.238ZM453.74 84H452.74V85H453.74V84ZM453.74 75.3015H454.74V74.3015H453.74V75.3015ZM453.25 75.3015V74.3015H452.639L452.36 74.8444L453.25 75.3015ZM449.207 80.4879L449.864 81.242L449.87 81.236L449.207 80.4879ZM443.122 83.9592L443.448 84.9046L443.458 84.9011L443.122 83.9592ZM446.675 71.6669L447.132 72.5564L447.142 72.5513L446.675 71.6669ZM451.29 67.5014L450.448 66.962L451.29 67.5014ZM452.964 54.9233H453.964V53.0806L452.419 54.0849L452.964 54.9233ZM450.718 55.9034L451 56.8628L451.009 56.8602L451.018 56.8574L450.718 55.9034ZM447.573 56.6793L447.756 57.6625L447.767 57.6604L447.778 57.6581L447.573 56.6793ZM444.061 57.2919L444.199 58.2823L444.211 58.2807L444.222 58.2789L444.061 57.2919ZM440.876 57.7411L440.734 56.7512L440.731 56.7517L440.876 57.7411ZM435.526 59.1705L435.92 60.0896L435.526 59.1705ZM431.973 61.8249L432.764 62.4375L432.771 62.428L431.973 61.8249ZM433.28 71.3402L432.69 72.1478L432.698 72.1531L432.705 72.1582L433.28 71.3402ZM434.914 84.1843C431.028 84.1843 427.603 83.5106 424.619 82.1874L423.809 84.0157C427.087 85.4695 430.795 86.1843 434.914 86.1843V84.1843ZM424.626 82.1904C421.659 80.8488 419.33 78.8869 417.615 76.3005L415.948 77.4061C417.881 80.3193 420.507 82.5229 423.802 84.0127L424.626 82.1904ZM417.621 76.3101C415.952 73.7312 415.086 70.4743 415.086 66.4805H413.086C413.086 70.7632 414.017 74.4215 415.942 77.3966L417.621 76.3101ZM415.086 66.4805C415.086 63.1141 415.704 60.3615 416.885 58.1756L415.126 57.225C413.747 59.7763 413.086 62.8771 413.086 66.4805H415.086ZM416.885 58.1756C418.088 55.9499 419.717 54.1697 421.78 52.8197L420.685 51.1462C418.338 52.6821 416.483 54.7134 415.126 57.225L416.885 58.1756ZM421.78 52.8197C423.887 51.4415 426.29 50.3937 429.001 49.6832L428.493 47.7486C425.595 48.5083 422.989 49.6385 420.685 51.1462L421.78 52.8197ZM428.998 49.6838C431.776 48.9628 434.691 48.4542 437.746 48.1594L437.554 46.1687C434.401 46.4729 431.381 46.9988 428.496 47.748L428.998 49.6838ZM437.754 48.1586C441.408 47.7768 444.364 47.4213 446.616 47.0917L446.326 45.1128C444.113 45.4367 441.188 45.789 437.546 46.1695L437.754 48.1586ZM446.627 47.0899C448.901 46.7295 450.698 46.1848 451.89 45.379L450.771 43.7218C449.948 44.2773 448.505 44.7672 446.314 45.1146L446.627 47.0899ZM451.89 45.379C453.203 44.4921 453.841 43.1565 453.841 41.5284H451.841C451.841 42.5684 451.473 43.2475 450.771 43.7218L451.89 45.379ZM453.841 41.5284V41.2834H451.841V41.5284H453.841ZM453.841 41.2834C453.841 38.4695 452.942 36.1676 451.046 34.5245L449.736 36.0359C451.107 37.2242 451.841 38.9245 451.841 41.2834H453.841ZM451.052 34.53C449.203 32.9004 446.647 32.1566 443.53 32.1566V34.1566C446.348 34.1566 448.366 34.8285 449.73 36.0304L451.052 34.53ZM443.53 32.1566C440.259 32.1566 437.533 32.8821 435.457 34.4393L436.657 36.0393C438.283 34.8196 440.54 34.1566 443.53 34.1566V32.1566ZM435.465 34.4337C433.448 35.9162 432.085 37.8115 431.421 40.1069L433.342 40.663C433.876 38.8201 434.963 37.2851 436.649 36.045L435.465 34.4337ZM432.463 39.3882L416.372 38.0814L416.21 40.0748L432.301 41.3817L432.463 39.3882ZM417.269 39.2877C418.053 35.6295 419.588 32.4905 421.867 29.8485L420.353 28.5421C417.841 31.4541 416.163 34.9036 415.314 38.8686L417.269 39.2877ZM421.871 29.8449C424.15 27.1771 427.1 25.1164 430.748 23.6727L430.013 21.813C426.093 23.3641 422.862 25.605 420.35 28.5457L421.871 29.8449ZM430.752 23.6714C434.422 22.2032 438.703 21.456 443.612 21.456V19.456C438.503 19.456 433.962 20.2334 430.009 21.8144L430.752 23.6714ZM443.612 21.456C447.018 21.456 450.269 21.855 453.369 22.6498L453.866 20.7124C450.595 19.8737 447.176 19.456 443.612 19.456V21.456ZM453.371 22.6503C456.48 23.4406 459.213 24.6603 461.583 26.3012L462.722 24.6569C460.137 22.8674 457.18 21.5551 453.864 20.7119L453.371 22.6503ZM461.588 26.3041C463.959 27.9281 465.825 30.0118 467.192 32.5668L468.956 31.6228C467.438 28.7872 465.356 26.4604 462.718 24.654L461.588 26.3041ZM467.194 32.5705C468.542 35.0626 469.238 38.0903 469.238 41.6918H471.238C471.238 37.8335 470.492 34.4632 468.954 31.6191L467.194 32.5705ZM469.238 41.6918V84H471.238V41.6918H469.238ZM470.238 83H453.74V85H470.238V83ZM454.74 84V75.3015H452.74V84H454.74ZM453.74 74.3015H453.25V76.3015H453.74V74.3015ZM452.36 74.8444C451.411 76.6919 450.141 78.3226 448.543 79.7399L449.87 81.236C451.649 79.6584 453.074 77.8316 454.139 75.7586L452.36 74.8444ZM448.55 79.7338C446.967 81.1123 445.052 82.21 442.786 83.0172L443.458 84.9011C445.93 84.0203 448.07 82.8039 449.864 81.242L448.55 79.7338ZM442.796 83.0138C440.554 83.7869 437.932 84.1843 434.914 84.1843V86.1843C438.103 86.1843 440.953 85.7649 443.448 84.9045L442.796 83.0138ZM439.896 74.1779C442.588 74.1779 445.009 73.6472 447.132 72.5563L446.218 70.7775C444.42 71.7013 442.322 72.1779 439.896 72.1779V74.1779ZM447.142 72.5513C449.243 71.442 450.916 69.9391 452.132 68.0408L450.448 66.962C449.431 68.5486 448.027 69.8227 446.208 70.7825L447.142 72.5513ZM452.132 68.0408C453.358 66.1267 453.964 63.9632 453.964 61.5799H451.964C451.964 63.6071 451.454 65.3913 450.448 66.962L452.132 68.0408ZM453.964 61.5799V54.9233H451.964V61.5799H453.964ZM452.419 54.0849C451.98 54.3703 451.326 54.6642 450.418 54.9494L451.018 56.8574C452.016 56.5436 452.859 56.1841 453.509 55.7617L452.419 54.0849ZM450.436 54.944C449.541 55.2073 448.519 55.4597 447.368 55.7005L447.778 57.6581C448.969 57.4089 450.044 57.144 451 56.8628L450.436 54.944ZM447.39 55.6962C446.227 55.9126 445.064 56.1155 443.901 56.3049L444.222 58.2789C445.4 58.0871 446.578 57.8816 447.756 57.6625L447.39 55.6962ZM443.923 56.3015C442.752 56.465 441.689 56.6149 440.734 56.7512L441.017 58.7311C441.969 58.5951 443.03 58.4455 444.199 58.2823L443.923 56.3015ZM440.731 56.7517C438.623 57.0608 436.753 57.5567 435.132 58.2513L435.92 60.0896C437.349 59.4774 439.045 59.0204 441.021 58.7305L440.731 56.7517ZM435.132 58.2513C433.478 58.9604 432.142 59.9432 431.176 61.2218L432.771 62.428C433.492 61.4741 434.525 60.6873 435.92 60.0896L435.132 58.2513ZM431.183 61.2124C430.179 62.5076 429.707 64.0961 429.707 65.9087H431.707C431.707 64.4543 432.079 63.3202 432.764 62.4375L431.183 61.2124ZM429.707 65.9087C429.707 68.5541 430.685 70.6834 432.69 72.1478L433.87 70.5326C432.445 69.4922 431.707 68.0006 431.707 65.9087H429.707ZM432.705 72.1582C434.654 73.5287 437.074 74.1779 439.896 74.1779V72.1779C437.381 72.1779 435.391 71.602 433.855 70.5222L432.705 72.1582ZM483.735 107.523H482.735V108.523H483.735V107.523ZM483.735 21.2727V20.2727H482.735V21.2727H483.735ZM500.887 21.2727H501.887V20.2727H500.887V21.2727ZM500.887 31.8089H499.887V32.8089H500.887V31.8089ZM501.663 31.8089V32.8089H502.309L502.575 32.2205L501.663 31.8089ZM504.971 26.6634L504.202 26.0243L504.201 26.0255L504.971 26.6634ZM510.689 22.2528L511.136 23.1473L511.14 23.1452L510.689 22.2528ZM532.169 24.0497L531.643 24.8997L531.647 24.9024L532.169 24.0497ZM541.44 34.7901L540.539 35.225L540.54 35.227L541.44 34.7901ZM541.521 70.4418L540.616 70.0172L540.615 70.0194L541.521 70.4418ZM532.374 81.3455L532.912 82.1884L532.913 82.1875L532.374 81.3455ZM510.852 83.3466L510.422 84.2493L510.426 84.2512L510.852 83.3466ZM505.094 79.1403L504.34 79.7979L504.346 79.8039L505.094 79.1403ZM501.663 73.9538L502.574 73.5411L502.308 72.9538H501.663V73.9538ZM501.132 73.9538V72.9538H500.132V73.9538H501.132ZM501.132 107.523V108.523H502.132V107.523H501.132ZM506.809 68.8899L506.188 69.674L506.195 69.6793L506.809 68.8899ZM521.143 68.8491L521.764 69.6332L521.77 69.6278L521.143 68.8491ZM525.594 62.315L524.656 61.9689L524.654 61.974L525.594 62.315ZM525.635 43.0803L526.574 42.7363L525.635 43.0803ZM521.184 36.6278L521.805 35.8438V35.8438L521.184 36.6278ZM506.768 36.5462L506.161 35.7515L506.156 35.7556L506.768 36.5462ZM502.317 42.9169L501.381 42.5648L502.317 42.9169ZM484.735 107.523V21.2727H482.735V107.523H484.735ZM483.735 22.2727H500.887V20.2727H483.735V22.2727ZM499.887 21.2727V31.8089H501.887V21.2727H499.887ZM500.887 32.8089H501.663V30.8089H500.887V32.8089ZM502.575 32.2205C503.293 30.6296 504.343 28.9894 505.741 27.3012L504.201 26.0255C502.713 27.8221 501.558 29.6124 500.752 31.3974L502.575 32.2205ZM505.74 27.3024C507.111 25.653 508.901 24.2645 511.136 23.1473L510.241 21.3584C507.793 22.5825 505.772 24.1344 504.202 26.0243L505.74 27.3024ZM511.14 23.1452C513.331 22.0371 516.106 21.456 519.51 21.456V19.456C515.889 19.456 512.784 20.0727 510.237 21.3605L511.14 23.1452ZM519.51 21.456C523.898 21.456 527.936 22.6025 531.643 24.8997L532.696 23.1997C528.671 20.7052 524.268 19.456 519.51 19.456V21.456ZM531.647 24.9024C535.323 27.1545 538.294 30.5755 540.539 35.225L542.34 34.3552C539.957 29.4215 536.748 25.6821 532.692 23.197L531.647 24.9024ZM540.54 35.227C542.769 39.8157 543.911 45.6307 543.911 52.718H545.911C545.911 45.4304 544.739 39.2934 542.339 34.3532L540.54 35.227ZM543.911 52.718C543.911 59.6124 542.797 65.3661 540.616 70.0172L542.427 70.8663C544.765 65.8797 545.911 59.8175 545.911 52.718H543.911ZM540.615 70.0194C538.45 74.6659 535.517 78.1431 531.834 80.5036L532.913 82.1875C536.962 79.5929 540.128 75.801 542.428 70.8641L540.615 70.0194ZM531.836 80.5026C528.165 82.8454 524.052 84.021 519.469 84.021V86.021C524.415 86.021 528.904 84.7462 532.912 82.1884L531.836 80.5026ZM519.469 84.021C516.199 84.021 513.481 83.48 511.278 82.442L510.426 84.2512C512.96 85.4457 515.986 86.021 519.469 86.021V84.021ZM511.282 82.4439C509.044 81.3767 507.238 80.0506 505.842 78.4767L504.346 79.8039C505.944 81.6059 507.977 83.084 510.422 84.2493L511.282 82.4439ZM505.847 78.4826C504.402 76.8274 503.317 75.1796 502.574 73.5411L500.753 74.3666C501.589 76.2129 502.791 78.0228 504.34 79.7979L505.847 78.4826ZM501.663 72.9538H501.132V74.9538H501.663V72.9538ZM500.132 73.9538V107.523H502.132V73.9538H500.132ZM501.132 106.523H483.735V108.523H501.132V106.523ZM499.765 52.6364C499.765 56.4559 500.294 59.8324 501.38 62.7458L503.254 62.0476C502.27 59.4069 501.765 56.2766 501.765 52.6364H499.765ZM501.38 62.7458C502.466 65.6619 504.06 67.9893 506.188 69.674L507.43 68.1059C505.637 66.6869 504.237 64.6854 503.254 62.0476L501.38 62.7458ZM506.195 69.6793C508.353 71.3579 510.959 72.1768 513.956 72.1768V70.1768C511.344 70.1768 509.185 69.4712 507.423 68.1006L506.195 69.6793ZM513.956 72.1768C516.981 72.1768 519.604 71.3432 521.764 69.6331L520.522 68.065C518.762 69.4587 516.593 70.1768 513.956 70.1768V72.1768ZM521.77 69.6278C523.896 67.9156 525.476 65.5745 526.535 62.656L524.654 61.974C523.698 64.6094 522.311 66.6245 520.516 68.0703L521.77 69.6278ZM526.533 62.6611C527.616 59.7247 528.146 56.3775 528.146 52.6364H526.146C526.146 56.1917 525.642 59.2969 524.656 61.9689L526.533 62.6611ZM528.146 52.6364C528.146 48.9248 527.63 45.6188 526.574 42.7363L524.696 43.4242C525.655 46.0412 526.146 49.106 526.146 52.6364H528.146ZM526.574 42.7363C525.515 39.8434 523.933 37.5285 521.805 35.8438L520.563 37.4119C522.356 38.8308 523.741 40.8176 524.696 43.4242L526.574 42.7363ZM521.805 35.8438C519.643 34.1324 517.006 33.3001 513.956 33.3001V35.3001C516.623 35.3001 518.805 36.0196 520.563 37.4119L521.805 35.8438ZM513.956 33.3001C510.939 33.3001 508.321 34.1017 506.161 35.7515L507.375 37.3408C509.136 35.9958 511.31 35.3001 513.956 35.3001V33.3001ZM506.156 35.7556C504.049 37.3874 502.467 39.6769 501.381 42.5648L503.253 43.269C504.235 40.6574 505.621 38.6998 507.38 37.3367L506.156 35.7556ZM501.381 42.5648C500.294 45.4529 499.765 48.8172 499.765 52.6364H501.765C501.765 48.9958 502.27 45.8805 503.253 43.269L501.381 42.5648Z" fill="url(#paint0_linear_0_9)"/>
<defs>
<linearGradient id="paint0_linear_0_9" x1="-108.403" y1="60" x2="151.676" y2="-273.148" gradientUnits="userSpaceOnUse">
<stop offset="0.6896" stop-color="#F42D32"/>
<stop offset="1" stop-color="#FCCB4C"/>
</linearGradient>
</defs>
</svg>
