<svg width="387" height="229" viewBox="0 0 387 229" fill="none" xmlns="http://www.w3.org/2000/svg">
<path d="M26.5085 6.87504L26.5086 6.87503L358.276 1.00857C366.012 0.87181 373.056 2.14605 378.127 4.25574C380.665 5.3114 382.662 6.55678 384.01 7.89697C385.353 9.23319 386 10.6069 386 11.9626V217.042C386 218.378 385.37 219.733 384.061 221.053C382.748 222.378 380.8 223.613 378.318 224.666C373.359 226.77 366.455 228.068 358.827 228L27.07 225.067C19.6537 225.001 13.0293 223.656 8.29617 221.565C5.92815 220.518 4.07839 219.305 2.83445 218.012C1.5952 216.724 1 215.407 1 214.109V17.8291C1 16.5499 1.57877 15.251 2.78442 13.9786C3.99486 12.7011 5.79659 11.498 8.10824 10.4549C12.729 8.36976 19.211 7.00325 26.5085 6.87504Z" fill="#0D0D0D" stroke="url(#paint0_linear_285_1091)" stroke-width="2"/>
<defs>
<linearGradient id="paint0_linear_285_1091" x1="114.19" y1="376.029" x2="466.521" y2="102.387" gradientUnits="userSpaceOnUse">
<stop offset="0.6896" stop-color="#F42D32" stop-opacity="0.04"/>
<stop offset="1" stop-color="#FCCB4C"/>
</linearGradient>
</defs>
</svg>
