<svg width="328" height="90" viewBox="0 0 328 90" fill="none" xmlns="http://www.w3.org/2000/svg">
<path opacity="0.4" d="M37.6938 23.37L36.6987 23.4687L36.7881 24.37H37.6938V23.37ZM20.7868 16.179L21.1561 17.1084L21.167 17.1039L20.7868 16.179ZM17.2073 18.7678L16.4072 18.1677L16.3999 18.1777L17.2073 18.7678ZM15.9928 22.5391L16.9921 22.5754L16.9928 22.5572V22.5391H15.9928ZM16.7279 25.6072L15.8741 26.1279L15.8787 26.1354L15.8834 26.1428L16.7279 25.6072ZM18.9971 27.8764L18.4424 28.7085L18.4488 28.7128L18.4554 28.717L18.9971 27.8764ZM22.3209 29.5064L21.9715 30.4434L21.9786 30.446L21.9856 30.4485L22.3209 29.5064ZM26.3479 30.657L26.5805 29.6844L26.5735 29.6827L26.5664 29.6811L26.3479 30.657ZM32.2286 32.0632L31.996 33.0358L32.0031 33.0375L32.0101 33.0391L32.2286 32.0632ZM40.0908 34.62L39.6832 35.5332L40.0908 34.62ZM46.2911 38.5511L46.956 37.8042L46.2911 38.5511ZM50.3501 44.0483L49.4397 44.4621L49.4432 44.4697L50.3501 44.0483ZM51.8522 51.3033L52.8523 51.3086L52.8522 51.2955L51.8522 51.3033ZM48.784 61.7223L47.9603 61.1553L47.9594 61.1565L48.784 61.7223ZM40.0908 68.5298L40.481 69.4506L40.4835 69.4495L40.0908 68.5298ZM12.637 68.4979L12.2534 69.4214L12.2552 69.4221L12.637 68.4979ZM3.49636 61.3068L2.66941 61.8691L2.67377 61.8755L3.49636 61.3068ZM0.0766158 49.4496V48.4496H-0.946265L-0.923128 49.4722L0.0766158 49.4496ZM13.468 49.4496L14.4657 49.3818L14.4023 48.4496H13.468V49.4496ZM15.3536 54.9467L14.555 55.5486L14.5599 55.5551L14.5649 55.5615L15.3536 54.9467ZM19.86 58.2386L19.4904 59.1679L19.5031 59.1728L19.86 58.2386ZM32.3884 58.3026L32.0249 57.371L32.021 57.3725L32.3884 58.3026ZM36.4474 55.4581L37.2322 56.0777L36.4474 55.4581ZM36.5752 47.5639L35.8136 48.2121L35.8216 48.2213L36.5752 47.5639ZM32.8039 45.0071L32.41 45.9263L32.4142 45.9281L32.8039 45.0071ZM26.7634 43.0895L26.5198 44.0594L26.529 44.0616L26.7634 43.0895ZM19.6363 41.2997L19.8798 40.3298L19.8726 40.328L19.6363 41.2997ZM6.56454 35.0036L5.89833 35.7493L6.56454 35.0036ZM1.80247 23.4659L2.80251 23.4703L2.80245 23.4605L1.80247 23.4659ZM4.96653 13.0788L4.15753 12.491L4.15478 12.4948L4.96653 13.0788ZM39.3238 6.14346L38.9067 7.05236L38.9088 7.05328L39.3238 6.14346ZM47.8252 13.0788L46.9996 13.6431V13.6431L47.8252 13.0788ZM50.9573 23.37V24.37H51.9738L51.9572 23.3536L50.9573 23.37ZM38.6889 23.2713C38.4077 20.4354 37.1806 18.1656 34.9948 16.5562L33.809 18.1668C35.501 19.4126 36.4686 21.1484 36.6987 23.4687L38.6889 23.2713ZM34.9948 16.5562C32.8296 14.962 29.9655 14.2202 26.5077 14.2202V16.2202C29.6977 16.2202 32.0964 16.9058 33.809 18.1668L34.9948 16.5562ZM26.5077 14.2202C24.161 14.2202 22.1164 14.5514 20.4067 15.254L21.167 17.1039C22.5681 16.5281 24.3374 16.2202 26.5077 16.2202V14.2202ZM20.4176 15.2496C18.7269 15.9213 17.3698 16.8844 16.4073 18.1678L18.0073 19.3678C18.7067 18.4352 19.736 17.6725 21.156 17.1083L20.4176 15.2496ZM16.3999 18.1777C15.4618 19.4615 14.9928 20.9263 14.9928 22.5391H16.9928C16.9928 21.3393 17.3335 20.29 18.0147 19.3578L16.3999 18.1777ZM14.9935 22.5027C14.9448 23.8411 15.2251 25.0634 15.8741 26.1279L17.5817 25.0866C17.1654 24.4039 16.9556 23.5808 16.9921 22.5754L14.9935 22.5027ZM15.8834 26.1428C16.5203 27.1472 17.3806 28.0006 18.4424 28.7085L19.5518 27.0444C18.6959 26.4738 18.0434 25.8145 17.5724 25.0717L15.8834 26.1428ZM18.4554 28.717C19.4841 29.38 20.6585 29.9538 21.9715 30.4434L22.6703 28.5694C21.4691 28.1215 20.4277 27.6087 19.5388 27.0358L18.4554 28.717ZM21.9856 30.4485C23.2844 30.9108 24.666 31.3052 26.1295 31.6328L26.5664 29.6811C25.1747 29.3695 23.8717 28.9969 22.6563 28.5643L21.9856 30.4485ZM26.1154 31.6295L31.996 33.0358L32.4612 31.0906L26.5805 29.6844L26.1154 31.6295ZM32.0101 33.0391C34.8078 33.6654 37.3643 34.498 39.6832 35.5332L40.4985 33.7069C38.0446 32.6114 35.3596 31.7394 32.4471 31.0874L32.0101 33.0391ZM39.6832 35.5332C41.9866 36.5615 43.9641 37.8184 45.6262 39.298L46.956 37.8042C45.1238 36.1731 42.9678 34.8092 40.4985 33.7069L39.6832 35.5332ZM45.6262 39.298C47.2702 40.7616 48.5391 42.4809 49.4397 44.4621L51.2604 43.6345C50.2434 41.3969 48.8063 39.4514 46.956 37.8042L45.6262 39.298ZM49.4432 44.4697C50.3535 46.429 50.8318 48.7023 50.8522 51.3111L52.8522 51.2955C52.8299 48.4497 52.3068 45.8864 51.2569 43.6269L49.4432 44.4697ZM50.8522 51.2979C50.8318 55.1284 49.857 58.4 47.9603 61.1553L49.6077 62.2893C51.7593 59.1639 52.8299 55.4895 52.8522 51.3086L50.8522 51.2979ZM47.9594 61.1565C46.0808 63.8946 43.3455 66.0529 39.6981 67.6101L40.4835 69.4495C44.4214 67.7682 47.4816 65.3881 49.6086 62.2881L47.9594 61.1565ZM39.7007 67.6091C36.0838 69.1416 31.6749 69.9268 26.4438 69.9268V71.9268C31.8661 71.9268 36.5552 71.1141 40.481 69.4506L39.7007 67.6091ZM26.4438 69.9268C21.2596 69.9268 16.7924 69.1323 13.0187 67.5736L12.2552 69.4221C16.3225 71.1021 21.0598 71.9268 26.4438 71.9268V69.9268ZM13.0205 67.5743C9.28145 66.0215 6.39412 63.7401 4.31895 60.7382L2.67377 61.8755C4.9878 65.2229 8.19423 67.7356 12.2534 69.4214L13.0205 67.5743ZM4.32329 60.7445C2.28006 57.7398 1.17949 53.9854 1.07636 49.427L-0.923128 49.4722C-0.813193 54.3313 0.366066 58.4818 2.66943 61.8691L4.32329 60.7445ZM0.0766158 50.4496H13.468V48.4496H0.0766158V50.4496ZM12.4703 49.5174C12.63 51.8673 13.3092 53.8955 14.555 55.5486L16.1522 54.3449C15.1821 53.0577 14.6042 51.4211 14.4657 49.3818L12.4703 49.5174ZM14.5649 55.5615C15.814 57.1641 17.467 58.3631 19.4904 59.1678L20.2296 57.3094C18.503 56.6227 17.1517 55.6271 16.1423 54.332L14.5649 55.5615ZM19.5031 59.1728C21.5315 59.9477 23.7967 60.3253 26.284 60.3253V58.3253C23.9986 58.3253 21.9811 57.9785 20.2169 57.3045L19.5031 59.1728ZM26.284 60.3253C28.7218 60.3253 30.8867 59.971 32.7558 59.2326L32.021 57.3725C30.4384 57.9977 28.5337 58.3253 26.284 58.3253V60.3253ZM32.7519 59.2341C34.6297 58.5014 36.142 57.4587 37.2322 56.0777L35.6625 54.8385C34.8351 55.8865 33.6414 56.7401 32.0249 57.371L32.7519 59.2341ZM37.2322 56.0777C38.3332 54.6832 38.8856 53.0682 38.8856 51.2713H36.8856C36.8856 52.6278 36.4791 53.804 35.6625 54.8385L37.2322 56.0777ZM38.8856 51.2713C38.8856 49.587 38.3785 48.1099 37.3288 46.9065L35.8216 48.2213C36.5191 49.0208 36.8856 50.0152 36.8856 51.2713H38.8856ZM37.3367 46.9158C36.353 45.7599 34.9484 44.8286 33.1935 44.0861L32.4142 45.9281C33.9832 46.5919 35.0928 47.365 35.8137 48.212L37.3367 46.9158ZM33.1978 44.088C31.4905 43.3562 29.42 42.7013 26.9978 42.1173L26.529 44.0616C28.8795 44.6283 30.836 45.2517 32.41 45.9262L33.1978 44.088ZM27.007 42.1196L19.8798 40.3298L19.3927 42.2696L26.5198 44.0594L27.007 42.1196ZM19.8726 40.328C14.4638 39.0124 10.2709 36.9736 7.23075 34.2578L5.89833 35.7493C9.25026 38.7437 13.7718 40.9024 19.3999 42.2714L19.8726 40.328ZM7.23076 34.2578C4.27701 31.6191 2.78223 28.0616 2.80246 23.4703L0.802478 23.4615C0.78009 28.5435 2.46003 32.6778 5.89833 35.7493L7.23076 34.2578ZM2.80245 23.4605C2.78218 19.6896 3.78186 16.4379 5.77829 13.6628L4.15478 12.4948C1.88984 15.6431 0.780143 19.316 0.802483 23.4713L2.80245 23.4605ZM5.77552 13.6667C7.81195 10.864 10.6159 8.65707 14.2247 7.0577L13.4143 5.22923C9.52316 6.95373 6.42509 9.37033 4.15754 12.491L5.77552 13.6667ZM14.2247 7.0577C17.8279 5.46082 21.9478 4.65057 26.6036 4.65057V2.65057C21.7139 2.65057 17.3111 3.50224 13.4143 5.22923L14.2247 7.0577ZM26.6036 4.65057C31.3485 4.65057 35.4408 5.46212 38.9068 7.05236L39.7408 5.23457C35.9624 3.50095 31.5746 2.65057 26.6036 2.65057V4.65057ZM38.9088 7.05328C42.4063 8.64863 45.0899 10.8489 46.9996 13.6431L48.6508 12.5146C46.5122 9.38547 43.5282 6.96217 39.7388 5.23365L38.9088 7.05328ZM46.9996 13.6431C48.9036 16.429 49.8964 19.6652 49.9574 23.3864L51.9572 23.3536C51.8903 19.2765 50.795 15.6519 48.6508 12.5146L46.9996 13.6431ZM50.9573 22.37H37.6938V24.37H50.9573V22.37ZM87.0164 20.9091H88.0164V19.9091H87.0164V20.9091ZM87.0164 31.1364V32.1364H88.0164V31.1364H87.0164ZM57.4532 31.1364H56.4532V32.1364H57.4532V31.1364ZM57.4532 20.9091V19.9091H56.4532V20.9091H57.4532ZM64.1649 9.14773V8.14773H63.1649V9.14773H64.1649ZM77.7799 9.14773H78.7799V8.14773H77.7799V9.14773ZM78.3552 57.8551L77.4772 58.334L77.4836 58.3454L78.3552 57.8551ZM79.9532 59.2933L79.5768 60.2198L79.5867 60.2237L79.9532 59.2933ZM84.2998 59.549L84.4642 60.5354L84.4801 60.5327L84.4959 60.5296L84.2998 59.549ZM85.77 59.2614L86.7484 59.0546L86.5463 58.0984L85.5857 58.2785L85.77 59.2614ZM87.9113 69.3928L88.2096 70.3472L89.0778 70.0759L88.8897 69.186L87.9113 69.3928ZM85.0349 70.1278L84.8162 69.1521L84.8082 69.1538L84.8002 69.1558L85.0349 70.1278ZM80.5285 70.6712L80.4924 69.6718L80.4896 69.6719L80.5285 70.6712ZM71.8992 69.3608L71.5209 70.2865L71.5237 70.2876L71.8992 69.3608ZM66.1784 64.6946L67.0182 64.1517L66.1784 64.6946ZM64.1649 56.7045L65.1649 56.7112V56.7045H64.1649ZM86.0164 20.9091V31.1364H88.0164V20.9091H86.0164ZM87.0164 30.1364H57.4532V32.1364H87.0164V30.1364ZM58.4532 31.1364V20.9091H56.4532V31.1364H58.4532ZM57.4532 21.9091H87.0164V19.9091H57.4532V21.9091ZM64.1649 10.1477H77.7799V8.14773H64.1649V10.1477ZM76.7799 9.14773V54.9148H78.7799V9.14773H76.7799ZM76.7799 54.9148C76.7799 56.2529 76.9806 57.4233 77.4773 58.334L79.2331 57.3763C78.9628 56.8806 78.7799 56.0908 78.7799 54.9148H76.7799ZM77.4836 58.3454C77.9706 59.2111 78.6716 59.852 79.5768 60.2198L80.3296 58.3669C79.8712 58.1806 79.5069 57.8628 79.2268 57.3649L77.4836 58.3454ZM79.5867 60.2237C80.4284 60.5553 81.3665 60.7088 82.3822 60.7088V58.7088C81.5655 58.7088 80.8842 58.5853 80.3197 58.3629L79.5867 60.2237ZM82.3822 60.7088C83.0772 60.7088 83.7714 60.6509 84.4642 60.5354L84.1354 58.5626C83.5498 58.6602 82.9656 58.7088 82.3822 58.7088V60.7088ZM84.4959 60.5296C85.134 60.402 85.6193 60.307 85.9543 60.2442L85.5857 58.2785C85.2388 58.3435 84.7441 58.4403 84.1037 58.5684L84.4959 60.5296ZM84.7916 59.4682L86.9329 69.5995L88.8897 69.186L86.7484 59.0546L84.7916 59.4682ZM87.613 68.4383C86.97 68.6392 86.0422 68.8773 84.8162 69.1521L85.2536 71.1036C86.4992 70.8245 87.489 70.5724 88.2096 70.3472L87.613 68.4383ZM84.8002 69.1558C83.6493 69.4336 82.2178 69.6095 80.4924 69.6718L80.5646 71.6705C82.3761 71.605 83.9489 71.4187 85.2695 71.0999L84.8002 69.1558ZM80.4896 69.6719C77.3181 69.7955 74.5882 69.3713 72.2748 68.434L71.5237 70.2876C74.1535 71.3531 77.1764 71.8025 80.5674 71.6704L80.4896 69.6719ZM72.2776 68.4351C70.0058 67.5067 68.2646 66.0797 67.0182 64.1517L65.3386 65.2375C66.8194 67.5282 68.8921 69.2121 71.5209 70.2865L72.2776 68.4351ZM67.0182 64.1517C65.7864 62.2463 65.1445 59.7879 65.1648 56.7112L63.1649 56.6979C63.1426 60.0558 63.8431 62.9242 65.3386 65.2375L67.0182 64.1517ZM65.1649 56.7045V9.14773H63.1649V56.7045H65.1649ZM101.51 69.2969L101.098 70.2081L101.105 70.211L101.51 69.2969ZM95.6936 64.407L94.854 64.9502L94.8603 64.9598L95.6936 64.407ZM95.0864 49.4176L94.2066 48.9423L95.0864 49.4176ZM99.1773 44.9432L98.6298 44.1064L99.1773 44.9432ZM105.058 42.3864L104.807 41.4184L104.804 41.419L105.058 42.3864ZM112.025 41.1719L112.121 42.1673L112.129 42.1665L112.025 41.1719ZM118.929 40.3409L119.074 41.3304L119.085 41.3286L118.929 40.3409ZM122.732 39.1264L122.172 38.2978L122.732 39.1264ZM121.997 31.8714L121.336 32.6217L121.342 32.6271L121.997 31.8714ZM110.779 31.8395L111.371 32.6452L111.379 32.6395L110.779 31.8395ZM107.902 35.8665L107.821 36.8632L108.636 36.9293L108.863 36.1445L107.902 35.8665ZM95.3101 34.8438L94.3323 34.6342L94.0936 35.7482L95.2291 35.8405L95.3101 34.8438ZM99.0814 27.1094L99.8386 27.7626L99.8417 27.7589L99.0814 27.1094ZM106.336 22.0597L106.704 22.9895L106.708 22.9881L106.336 22.0597ZM124.522 21.2287L124.273 22.1974L124.275 22.1979L124.522 21.2287ZM131.201 24.201L130.632 25.0232L130.636 25.0261L131.201 24.201ZM135.836 29.3786L134.954 29.8505L134.956 29.8543L135.836 29.3786ZM137.53 70V71H138.53V70H137.53ZM124.618 70H123.618V71H124.618V70ZM124.618 63.1925H125.618V62.1925H124.618V63.1925ZM124.234 63.1925V62.1925H123.624L123.345 62.7354L124.234 63.1925ZM121.07 67.2514L121.727 68.0055L121.734 67.9995L121.07 67.2514ZM116.308 69.968L116.634 70.9135L116.644 70.91L116.308 69.968ZM119.089 60.348L119.546 61.2375L119.555 61.2324L119.089 60.348ZM122.7 57.0881L121.858 56.5486L122.7 57.0881ZM124.01 47.2443H125.01V45.4016L123.465 46.4059L124.01 47.2443ZM122.253 48.0114L122.535 48.9707L122.544 48.9681L122.552 48.9654L122.253 48.0114ZM119.792 48.6186L119.975 49.6017L119.986 49.5997L119.997 49.5974L119.792 48.6186ZM117.043 49.098L117.181 50.0884L117.193 50.0868L117.204 50.085L117.043 49.098ZM114.55 49.4496L114.409 48.4596L114.405 48.4602L114.55 49.4496ZM110.363 50.5682L110.757 51.4873L110.363 50.5682ZM107.583 52.6456L108.373 53.2582L108.38 53.2487L107.583 52.6456ZM108.606 60.0923L108.016 60.9L108.023 60.9052L108.03 60.9104L108.606 60.0923ZM109.884 69.9268C106.868 69.9268 104.219 69.404 101.916 68.3827L101.105 70.211C103.703 71.363 106.636 71.9268 109.884 71.9268V69.9268ZM101.922 68.3857C99.636 67.3519 97.8461 65.8428 96.5269 63.8542L94.8603 64.9598C96.3962 67.2751 98.4842 69.026 101.098 70.2081L101.922 68.3857ZM96.5332 63.8637C95.2551 61.8885 94.5843 59.3833 94.5843 56.2891H92.5843C92.5843 59.6721 93.3196 62.5788 94.8541 64.9502L96.5332 63.8637ZM94.5843 56.2891C94.5843 53.6803 95.0635 51.5639 95.9662 49.8929L94.2066 48.9423C93.1064 50.9787 92.5843 53.4433 92.5843 56.2891H94.5843ZM95.9662 49.8929C96.8904 48.1822 98.1411 46.8162 99.7248 45.78L98.6298 44.1064C96.7617 45.3287 95.2852 46.9457 94.2066 48.9423L95.9662 49.8929ZM99.7248 45.78C101.352 44.7154 103.211 43.9043 105.312 43.3537L104.804 41.419C102.516 42.019 100.454 42.9124 98.6298 44.1064L99.7248 45.78ZM105.309 43.3543C107.471 42.7931 109.741 42.3969 112.121 42.1673L111.929 40.1765C109.451 40.4156 107.077 40.8291 104.807 41.4184L105.309 43.3543ZM112.129 42.1665C114.991 41.8675 117.307 41.5889 119.074 41.3304L118.784 39.3514C117.056 39.6043 114.77 39.8797 111.921 40.1773L112.129 42.1665ZM119.085 41.3286C120.874 41.0451 122.318 40.6128 123.292 39.955L122.172 38.2978C121.569 38.7054 120.478 39.0828 118.772 39.3532L119.085 41.3286ZM123.292 39.955C124.386 39.216 124.915 38.0995 124.915 36.7614H122.915C122.915 37.5113 122.655 37.9715 122.172 38.2978L123.292 39.955ZM124.915 36.7614V36.5696H122.915V36.7614H124.915ZM124.915 36.5696C124.915 34.3179 124.193 32.4511 122.652 31.1158L121.342 32.6271C122.358 33.5077 122.915 34.773 122.915 36.5696H124.915ZM122.658 31.1212C121.158 29.7995 119.1 29.2095 116.628 29.2095V31.2095C118.801 31.2095 120.321 31.7275 121.336 32.6217L122.658 31.1212ZM116.628 29.2095C114.036 29.2095 111.853 29.7841 110.179 31.0395L111.379 32.6395C112.603 31.7216 114.318 31.2095 116.628 31.2095V29.2095ZM110.186 31.0338C108.573 32.2204 107.476 33.7429 106.942 35.5884L108.863 36.1445C109.266 34.7514 110.087 33.5893 111.371 32.6451L110.186 31.0338ZM107.983 34.8698L95.3911 33.847L95.2291 35.8405L107.821 36.8632L107.983 34.8698ZM96.2879 35.0533C96.8942 32.2238 98.0801 29.8009 99.8386 27.7626L98.3243 26.4561C96.3327 28.7645 95.0044 31.4978 94.3323 34.6342L96.2879 35.0533ZM99.8417 27.7589C101.6 25.7008 103.878 24.1077 106.704 22.9895L105.968 21.1298C102.871 22.3554 100.313 24.1287 98.3211 26.4598L99.8417 27.7589ZM106.708 22.9881C109.55 21.8514 112.871 21.2699 116.691 21.2699V19.2699C112.671 19.2699 109.089 19.8816 105.965 21.1312L106.708 22.9881ZM116.691 21.2699C119.34 21.2699 121.866 21.5802 124.273 22.1974L124.77 20.26C122.191 19.5988 119.498 19.2699 116.691 19.2699V21.2699ZM124.275 22.1979C126.686 22.8106 128.801 23.7552 130.632 25.0232L131.771 23.3788C129.724 21.9622 127.386 20.9252 124.768 20.2595L124.275 22.1979ZM130.636 25.0261C132.463 26.2771 133.9 27.8815 134.954 29.8505L136.717 28.9066C135.513 26.6569 133.86 24.8095 131.766 23.3759L130.636 25.0261ZM134.956 29.8543C135.99 31.7663 136.53 34.0986 136.53 36.8892H138.53C138.53 33.8417 137.94 31.1669 136.715 28.9028L134.956 29.8543ZM136.53 36.8892V70H138.53V36.8892H136.53ZM137.53 69H124.618V71H137.53V69ZM125.618 70V63.1925H123.618V70H125.618ZM124.618 62.1925H124.234V64.1925H124.618V62.1925ZM123.345 62.7354C122.614 64.1567 121.637 65.4117 120.406 66.5033L121.734 67.9995C123.145 66.7474 124.277 65.2964 125.124 63.6495L123.345 62.7354ZM120.413 66.4973C119.198 67.5562 117.723 68.4024 115.972 69.0261L116.644 70.91C118.601 70.2127 120.301 69.2478 121.727 68.0055L120.413 66.4973ZM115.982 69.0227C114.255 69.6183 112.227 69.9268 109.884 69.9268V71.9268C112.398 71.9268 114.654 71.5962 116.634 70.9134L115.982 69.0227ZM113.783 62.5305C115.919 62.5305 117.849 62.1093 119.546 61.2374L118.631 59.4586C117.26 60.1634 115.653 60.5305 113.783 60.5305V62.5305ZM119.555 61.2324C121.231 60.348 122.569 59.1469 123.542 57.6275L121.858 56.5486C121.084 57.7565 120.014 58.7287 118.622 59.4636L119.555 61.2324ZM123.542 57.6275C124.526 56.0921 125.01 54.3578 125.01 52.4538H123.01C123.01 54.0016 122.622 55.3567 121.858 56.5486L123.542 57.6275ZM125.01 52.4538V47.2443H123.01V52.4538H125.01ZM123.465 46.4059C123.145 46.6144 122.653 46.8373 121.953 47.0574L122.552 48.9654C123.344 48.7167 124.024 48.4282 124.555 48.0828L123.465 46.4059ZM121.97 47.052C121.277 47.256 120.483 47.4523 119.587 47.6398L119.997 49.5974C120.933 49.4014 121.78 49.1928 122.535 48.9707L121.97 47.052ZM119.609 47.6355C118.7 47.8046 117.791 47.9631 116.882 48.111L117.204 50.085C118.127 49.9347 119.051 49.7736 119.975 49.6017L119.609 47.6355ZM116.905 48.1076C115.988 48.2356 115.156 48.3529 114.409 48.4596L114.692 50.4395C115.436 50.3332 116.266 50.2161 117.181 50.0884L116.905 48.1076ZM114.405 48.4602C112.741 48.7042 111.259 49.0965 109.969 49.649L110.757 51.4873C111.854 51.0172 113.163 50.6637 114.695 50.439L114.405 48.4602ZM109.969 49.649C108.646 50.2161 107.568 51.0066 106.785 52.0425L108.38 53.2487C108.918 52.5375 109.694 51.943 110.757 51.4873L109.969 49.649ZM106.792 52.033C105.972 53.0916 105.592 54.3841 105.592 55.8416H107.592C107.592 54.7423 107.873 53.9042 108.373 53.2582L106.792 52.033ZM105.592 55.8416C105.592 57.9721 106.383 59.7078 108.016 60.9L109.195 59.2847C108.143 58.5166 107.592 57.4186 107.592 55.8416H105.592ZM108.03 60.9104C109.601 62.0145 111.542 62.5305 113.783 62.5305V60.5305C111.849 60.5305 110.338 60.0878 109.181 59.2743L108.03 60.9104ZM160.429 55.8736L159.429 55.8716L159.424 58.5392L161.181 56.5324L160.429 55.8736ZM160.461 39.5419V38.5419H159.463L159.461 39.5399L160.461 39.5419ZM162.443 39.5419V40.5419H162.907L163.207 40.1868L162.443 39.5419ZM178.167 20.9091V19.9091H177.702L177.403 20.2641L178.167 20.9091ZM193.796 20.9091L194.555 21.5595L195.968 19.9091H193.796V20.9091ZM172.67 45.5824V46.5824H173.13L173.429 46.2328L172.67 45.5824ZM169.442 45.5824V44.5824H168.988L168.69 44.9236L169.442 45.5824ZM148.092 70H147.092V71H148.092V70ZM148.092 4.54545V3.54545H147.092V4.54545H148.092ZM161.707 4.54545H162.707V3.54545H161.707V4.54545ZM161.707 70V71H162.707V70H161.707ZM178.774 70L177.946 70.5598L178.243 71H178.774V70ZM164.328 48.6186L163.601 47.9323L163.051 48.5148L163.5 49.1784L164.328 48.6186ZM173.405 38.9986L174.229 38.432L173.527 37.4117L172.678 38.3123L173.405 38.9986ZM194.722 70V71H196.624L195.546 69.4334L194.722 70ZM161.429 55.8755L161.461 39.5439L159.461 39.5399L159.429 55.8716L161.429 55.8755ZM160.461 40.5419H162.443V38.5419H160.461V40.5419ZM163.207 40.1868L178.931 21.554L177.403 20.2641L161.678 38.897L163.207 40.1868ZM178.167 21.9091H193.796V19.9091H178.167V21.9091ZM193.036 20.2587L171.91 44.932L173.429 46.2328L194.555 21.5595L193.036 20.2587ZM172.67 44.5824H169.442V46.5824H172.67V44.5824ZM168.69 44.9236L159.677 55.2147L161.181 56.5324L170.194 46.2412L168.69 44.9236ZM149.092 70V4.54545H147.092V70H149.092ZM148.092 5.54545H161.707V3.54545H148.092V5.54545ZM160.707 4.54545V70H162.707V4.54545H160.707ZM161.707 69H148.092V71H161.707V69ZM179.603 69.4402L165.157 48.0588L163.5 49.1784L177.946 70.5598L179.603 69.4402ZM165.056 49.3049L174.132 39.6848L172.678 38.3123L163.601 47.9323L165.056 49.3049ZM172.581 39.5652L193.898 70.5666L195.546 69.4334L174.229 38.432L172.581 39.5652ZM194.722 69H178.774V71H194.722V69ZM200.475 70H199.475V71H200.475V70ZM200.475 20.9091V19.9091H199.475V20.9091H200.475ZM214.09 20.9091H215.09V19.9091H214.09V20.9091ZM214.09 70V71H215.09V70H214.09ZM202.105 12.5675L201.414 13.2906L201.42 13.2958L201.426 13.301L202.105 12.5675ZM202.105 2.85156L202.79 3.58008L202.791 3.57976L202.105 2.85156ZM212.492 2.85156L211.802 3.57467L211.807 3.57994L211.813 3.58512L212.492 2.85156ZM212.492 12.5675L213.177 13.296L213.178 13.2957L212.492 12.5675ZM201.475 70V20.9091H199.475V70H201.475ZM200.475 21.9091H214.09V19.9091H200.475V21.9091ZM213.09 20.9091V70H215.09V20.9091H213.09ZM214.09 69H200.475V71H214.09V69ZM207.315 13.581C205.536 13.581 204.044 13.0003 202.785 11.8339L201.426 13.301C203.064 14.8193 205.045 15.581 207.315 15.581V13.581ZM202.796 11.8444C201.557 10.6607 200.964 9.28835 200.964 7.67755H198.964C198.964 9.85938 199.799 11.747 201.414 13.2906L202.796 11.8444ZM200.964 7.67755C200.964 6.09214 201.553 4.743 202.79 3.58008L201.42 2.12304C199.802 3.64478 198.964 5.51297 198.964 7.67755H200.964ZM202.791 3.57976C204.05 2.39405 205.54 1.8061 207.315 1.8061V-0.193895C205.041 -0.193895 203.058 0.581802 201.42 2.12336L202.791 3.57976ZM207.315 1.8061C209.089 1.8061 210.565 2.39369 211.802 3.57467L213.183 2.12845C211.564 0.582155 209.589 -0.193895 207.315 -0.193895V1.8061ZM211.813 3.58512C213.07 4.74958 213.666 6.09732 213.666 7.67755H215.666C215.666 5.50779 214.813 3.6382 213.172 2.118L211.813 3.58512ZM213.666 7.67755C213.666 9.28324 213.066 10.6542 211.807 11.8393L213.178 13.2957C214.816 11.7535 215.666 9.86448 215.666 7.67755H213.666ZM211.807 11.8389C210.572 13.0006 209.094 13.581 207.315 13.581V15.581C209.584 15.581 211.558 14.819 213.177 13.296L211.807 11.8389ZM238.612 41.6193L237.612 41.6092V41.6193H238.612ZM238.612 70V71H239.612V70H238.612ZM224.997 70H223.997V71H224.997V70ZM224.997 20.9091V19.9091H223.997V20.9091H224.997ZM237.973 20.9091H238.973V19.9091H237.973V20.9091ZM237.973 29.5703H236.973V30.5703H237.973V29.5703ZM238.548 29.5703V30.5703H239.237L239.482 29.926L238.548 29.5703ZM244.013 22.7947L244.558 23.6332L244.563 23.63L244.013 22.7947ZM268.143 28.8991L267.251 29.3518L267.253 29.3546L268.143 28.8991ZM270.252 70V71H271.252V70H270.252ZM256.637 70H255.637V71H256.637V70ZM256.637 41.1719L255.637 41.1648V41.1719H256.637ZM254.336 34.1406L253.598 34.8147L253.602 34.8193L254.336 34.1406ZM243.054 32.7663L242.565 31.894L242.56 31.8973L243.054 32.7663ZM239.794 36.218L238.907 35.7559L238.905 35.7607L239.794 36.218ZM237.612 41.6193V70H239.612V41.6193H237.612ZM238.612 69H224.997V71H238.612V69ZM225.997 70V20.9091H223.997V70H225.997ZM224.997 21.9091H237.973V19.9091H224.997V21.9091ZM236.973 20.9091V29.5703H238.973V20.9091H236.973ZM237.973 30.5703H238.548V28.5703H237.973V30.5703ZM239.482 29.926C240.494 27.2687 242.179 25.1794 244.558 23.6332L243.468 21.9563C240.733 23.734 238.775 26.1617 237.613 29.2146L239.482 29.926ZM244.563 23.63C246.928 22.0733 249.828 21.2699 253.313 21.2699V19.2699C249.512 19.2699 246.212 20.1497 243.463 21.9595L244.563 23.63ZM253.313 21.2699C256.573 21.2699 259.365 21.9815 261.723 23.369L262.737 21.6452C260.025 20.0498 256.872 19.2699 253.313 19.2699V21.2699ZM261.723 23.369C264.085 24.7581 265.927 26.7423 267.251 29.3518L269.035 28.4465C267.547 25.5162 265.447 23.239 262.737 21.6452L261.723 23.369ZM267.253 29.3546C268.572 31.9329 269.252 35.0507 269.252 38.7429H271.252C271.252 34.8072 270.527 31.3626 269.033 28.4437L267.253 29.3546ZM269.252 38.7429V70H271.252V38.7429H269.252ZM270.252 69H256.637V71H270.252V69ZM257.637 70V41.1719H255.637V70H257.637ZM257.637 41.179C257.66 38.002 256.847 35.3839 255.071 33.462L253.602 34.8193C254.937 36.2638 255.657 38.3333 255.637 41.1648L257.637 41.179ZM255.075 33.4666C253.295 31.5165 250.865 30.5838 247.912 30.5838V32.5838C250.414 32.5838 252.266 33.3557 253.598 34.8147L255.075 33.4666ZM247.912 30.5838C245.932 30.5838 244.14 31.0111 242.565 31.8941L243.543 33.6386C244.781 32.9449 246.227 32.5838 247.912 32.5838V30.5838ZM242.56 31.8973C240.996 32.7875 239.778 34.0852 238.907 35.7559L240.681 36.6802C241.387 35.3253 242.343 34.3219 243.549 33.6354L242.56 31.8973ZM238.905 35.7607C238.051 37.4216 237.634 39.3833 237.612 41.6092L239.612 41.6294C239.632 39.6366 240.004 37.9974 240.684 36.6754L238.905 35.7607ZM291.754 87.6101L292.113 86.6769L292.11 86.6756L291.754 87.6101ZM284.275 82.7202L283.531 83.3879L284.275 82.7202ZM280.663 75.7528L280.53 74.7618L279.459 74.9059L279.686 75.9629L280.663 75.7528ZM293.256 74.0589L294.187 73.6945L293.901 72.9632L293.122 73.0679L293.256 74.0589ZM295.078 76.8075L295.794 76.1094L295.078 76.8075ZM298.369 78.853L298.728 77.9196L298.721 77.9167L298.369 78.853ZM310.738 77.4787L310.145 76.6734L310.135 76.6808L310.738 77.4787ZM313.646 61.3068H314.646V60.3068H313.646V61.3068ZM313.071 61.3068V60.3068H312.417L312.155 60.906L313.071 61.3068ZM310.386 65.174L311.1 65.8748L310.386 65.174ZM289.005 66.7401L288.507 67.6072L288.514 67.6113L289.005 66.7401ZM281.814 58.8459L280.918 59.291L280.922 59.2974L281.814 58.8459ZM281.878 31.424L280.978 30.9871V30.9871L281.878 31.424ZM289.101 23.0504L288.579 22.1977L288.576 22.1994L289.101 23.0504ZM305.944 21.6761L305.493 22.5685L305.501 22.5726L305.944 21.6761ZM310.418 25.1278L309.643 25.7598L309.649 25.7663L309.654 25.7727L310.418 25.1278ZM313.071 29.1548L312.165 29.5785L312.435 30.1548H313.071V29.1548ZM313.582 29.1548V30.1548H314.582V29.1548H313.582ZM313.582 20.9091V19.9091H312.582V20.9091H313.582ZM327.102 20.9091H328.102V19.9091H327.102V20.9091ZM324.033 80.9624L323.225 80.3742L324.033 80.9624ZM315.532 87.2905L315.17 86.3582L315.164 86.3609L315.532 87.2905ZM308.948 57.4396L309.532 58.2518L309.534 58.2503L308.948 57.4396ZM312.464 52.7095L311.536 52.3365L311.534 52.3415L312.464 52.7095ZM312.496 37.8161L311.561 38.1713L311.562 38.1744L312.496 37.8161ZM297.73 32.9261L298.344 33.7155L298.351 33.7102L297.73 32.9261ZM294.247 37.9119L295.184 38.2589L294.247 37.9119ZM294.247 52.6456L293.312 53.002L293.317 53.0136L294.247 52.6456ZM297.73 57.4077L297.132 58.209L297.138 58.2137L297.145 58.2183L297.73 57.4077ZM303.1 88.4318C298.776 88.4318 295.123 87.836 292.113 86.6769L291.394 88.5433C294.691 89.8131 298.602 90.4318 303.1 90.4318V88.4318ZM292.11 86.6756C289.096 85.5275 286.747 83.9785 285.019 82.0525L283.531 83.3879C285.51 85.5954 288.147 87.3063 291.398 88.5446L292.11 86.6756ZM285.019 82.0525C283.276 80.1082 282.157 77.9415 281.641 75.5428L279.686 75.9629C280.278 78.7204 281.567 81.1986 283.531 83.3879L285.019 82.0525ZM280.797 76.7439L293.389 75.05L293.122 73.0679L280.53 74.7618L280.797 76.7439ZM292.325 74.4233C292.763 75.5433 293.449 76.5701 294.362 77.5056L295.794 76.1094C295.044 75.3404 294.516 74.5349 294.187 73.6945L292.325 74.4233ZM294.362 77.5056C295.315 78.484 296.547 79.2376 298.018 79.7893L298.721 77.9167C297.464 77.4456 296.502 76.8356 295.794 76.1094L294.362 77.5056ZM298.01 79.7863C299.541 80.3751 301.354 80.652 303.419 80.652V78.652C301.522 78.652 299.967 78.3962 298.728 77.9196L298.01 79.7863ZM303.419 80.652C306.547 80.652 309.213 79.8846 311.341 78.2766L310.135 76.6808C308.428 77.9705 306.215 78.652 303.419 78.652V80.652ZM311.331 78.284C313.618 76.6 314.646 73.8367 314.646 70.2876H312.646C312.646 73.4716 311.736 75.5023 310.145 76.6734L311.331 78.284ZM314.646 70.2876V61.3068H312.646V70.2876H314.646ZM313.646 60.3068H313.071V62.3068H313.646V60.3068ZM312.155 60.906C311.614 62.1433 310.793 63.3332 309.673 64.4732L311.1 65.8748C312.366 64.5859 313.335 63.1976 313.987 61.7076L312.155 60.906ZM309.673 64.4732C308.591 65.5742 307.178 66.4955 305.406 67.2208L306.163 69.0719C308.14 68.263 309.795 67.2027 311.1 65.8748L309.673 64.4732ZM305.406 67.2208C303.679 67.9269 301.577 68.2969 299.073 68.2969V70.2969C301.767 70.2969 304.139 69.8998 306.163 69.0719L305.406 67.2208ZM299.073 68.2969C295.547 68.2969 292.362 67.4837 289.496 65.8688L288.514 67.6113C291.699 69.4055 295.225 70.2969 299.073 70.2969V68.2969ZM289.503 65.873C286.691 64.2577 284.421 61.7831 282.706 58.3944L280.922 59.2974C282.787 62.9825 285.31 65.7707 288.507 67.6072L289.503 65.873ZM282.71 58.4008C281.03 55.0221 280.161 50.6912 280.161 45.3587H278.161C278.161 50.8926 279.061 55.5532 280.919 59.2909L282.71 58.4008ZM280.161 45.3587C280.161 39.8997 281.051 35.4152 282.777 31.8609L280.978 30.9871C279.083 34.8902 278.161 39.6954 278.161 45.3587H280.161ZM282.777 31.8609C284.52 28.2727 286.81 25.6392 289.626 23.9015L288.576 22.1994C285.384 24.1691 282.858 27.1179 280.978 30.9871L282.777 31.8609ZM289.623 23.9031C292.489 22.1472 295.621 21.2699 299.041 21.2699V19.2699C295.258 19.2699 291.764 20.2462 288.579 22.1977L289.623 23.9031ZM299.041 21.2699C301.681 21.2699 303.817 21.7209 305.493 22.5685L306.395 20.7838C304.364 19.7564 301.897 19.2699 299.041 19.2699V21.2699ZM305.501 22.5726C307.246 23.4353 308.618 24.5019 309.643 25.7598L311.193 24.4959C309.961 22.9839 308.349 21.7494 306.387 20.7797L305.501 22.5726ZM309.654 25.7727C310.76 27.0835 311.592 28.3525 312.165 29.5785L313.977 28.7311C313.315 27.3151 312.378 25.8994 311.183 24.483L309.654 25.7727ZM313.071 30.1548H313.582V28.1548H313.071V30.1548ZM314.582 29.1548V20.9091H312.582V29.1548H314.582ZM313.582 21.9091H327.102V19.9091H313.582V21.9091ZM326.102 20.9091V70.4794H328.102V20.9091H326.102ZM326.102 70.4794C326.102 74.4877 325.123 77.7647 323.225 80.3742L324.842 81.5505C327.035 78.535 328.102 74.8234 328.102 70.4794H326.102ZM323.225 80.3742C321.305 83.0137 318.635 85.013 315.17 86.3583L315.894 88.2227C319.673 86.7554 322.671 84.536 324.842 81.5505L323.225 80.3742ZM315.164 86.3609C311.702 87.7333 307.687 88.4318 303.1 88.4318V90.4318C307.887 90.4318 312.161 89.7028 315.901 88.2201L315.164 86.3609ZM303.387 60.0696C305.753 60.0696 307.82 59.4812 309.532 58.2518L308.365 56.6274C307.051 57.5713 305.411 58.0696 303.387 58.0696V60.0696ZM309.534 58.2503C311.246 57.0135 312.525 55.271 313.394 53.0776L311.534 52.3415C310.783 54.239 309.718 55.6499 308.363 56.629L309.534 58.2503ZM313.392 53.0826C314.282 50.8682 314.71 48.2635 314.71 45.2947H312.71C312.71 48.0789 312.308 50.4173 311.536 52.3365L313.392 53.0826ZM314.71 45.2947C314.71 42.3278 314.293 39.7079 313.429 37.4577L311.562 38.1744C312.318 40.1429 312.71 42.5088 312.71 45.2947H314.71ZM313.431 37.4608C312.567 35.1879 311.294 33.3716 309.587 32.0675L308.373 33.6569C309.734 34.6966 310.805 36.1829 311.561 38.1713L313.431 37.4608ZM309.587 32.0675C307.855 30.7446 305.77 30.1044 303.387 30.1044V32.1044C305.394 32.1044 307.037 32.6361 308.373 33.6569L309.587 32.0675ZM303.387 30.1044C300.959 30.1044 298.845 30.768 297.109 32.1421L298.351 33.7102C299.683 32.6553 301.341 32.1044 303.387 32.1044V30.1044ZM297.116 32.1368C295.412 33.4625 294.151 35.2895 293.309 37.5649L295.184 38.2589C295.919 36.273 296.98 34.7761 298.344 33.7155L297.116 32.1368ZM293.309 37.5649C292.471 39.8288 292.064 42.4113 292.064 45.2947H294.064C294.064 42.5958 294.445 40.2564 295.184 38.2589L293.309 37.5649ZM292.064 45.2947C292.064 48.2177 292.47 50.7944 293.312 53.002L295.181 52.2892C294.446 50.3632 294.064 48.0394 294.064 45.2947H292.064ZM293.317 53.0136C294.183 55.2025 295.448 56.9516 297.132 58.209L298.328 56.6063C296.987 55.6052 295.929 54.1796 295.176 52.2775L293.317 53.0136ZM297.145 58.2183C298.879 59.4706 300.979 60.0696 303.387 60.0696V58.0696C301.321 58.0696 299.65 57.5606 298.316 56.597L297.145 58.2183Z" fill="url(#paint0_linear_38_7019)"/>
<defs>
<linearGradient id="paint0_linear_38_7019" x1="-65.3513" y1="55" x2="194.262" y2="-146.203" gradientUnits="userSpaceOnUse">
<stop offset="0.6896" stop-color="#F42D32"/>
<stop offset="1" stop-color="#FCCB4C"/>
</linearGradient>
</defs>
</svg>
