<svg width="350" height="300" viewBox="0 0 350 300" fill="none" xmlns="http://www.w3.org/2000/svg">
<path d="M23.9837 8.69817L23.9838 8.69817L324.032 1.01298C330.962 0.835517 337.267 2.48866 341.807 5.22397C346.363 7.96924 349 11.7009 349 15.6732V284.331C349 288.247 346.432 291.935 341.978 294.673C337.539 297.401 331.359 299.085 324.526 298.997L24.4867 295.154C17.8434 295.068 11.9139 293.324 7.67655 290.612C3.42708 287.892 1 284.293 1 280.488V23.3583C1 19.6094 3.36012 16.0522 7.50817 13.3409C11.6453 10.6368 17.4471 8.86453 23.9837 8.69817Z" fill="white" stroke="url(#paint0_linear_11_2)" stroke-width="2"/>
<defs>
<linearGradient id="paint0_linear_11_2" x1="103.272" y1="492.608" x2="500.056" y2="279.86" gradientUnits="userSpaceOnUse">
<stop offset="0.6896" stop-color="#F42D32" stop-opacity="0.04"/>
<stop offset="1" stop-color="#FCCB4C"/>
</linearGradient>
</defs>
</svg>
