<svg width="387" height="420" viewBox="0 0 387 420" fill="none" xmlns="http://www.w3.org/2000/svg">
<path d="M9.27607 30.927L9.27619 30.9248C9.82079 20.7292 18.3916 12.0219 30.2336 10.1401L30.2343 10.14C145.099 -8.19793 302.075 5.73943 357.016 11.6681L357.018 11.6683C368.78 12.9152 377.892 20.8786 379.385 30.8619L379.385 30.8629C386.339 77.076 386.895 151.142 385.183 221.711C383.471 292.254 379.496 359.218 377.411 391.188C376.694 401.98 367.021 410.91 354.342 412.056C207.033 425.373 76.8192 416.224 28.9286 411.82L28.9284 411.82C16.989 410.725 7.6715 402.708 6.12162 392.624C0.347709 354.824 0.229131 280.613 2.01348 207.677C3.79694 134.778 7.47736 63.2651 9.27607 30.927Z" fill="#0D0D0D" stroke="url(#paint0_linear_285_1297)" stroke-width="2"/>
<defs>
<linearGradient id="paint0_linear_285_1297" x1="114.19" y1="689.651" x2="593.156" y2="486.821" gradientUnits="userSpaceOnUse">
<stop offset="0.0729167" stop-color="#F42D32" stop-opacity="0"/>
<stop offset="0.963542" stop-color="#FCCB4C"/>
</linearGradient>
</defs>
</svg>
