<svg width="787" height="71" viewBox="0 0 787 71" fill="none" xmlns="http://www.w3.org/2000/svg">
<path opacity="0.25" d="M19.4587 70L18.4973 70.2751L18.7047 71H19.4587V70ZM0.730025 4.54545V3.54545H-0.596239L-0.231393 4.82055L0.730025 4.54545ZM15.8472 4.54545L16.82 4.31371L16.637 3.54545H15.8472V4.54545ZM26.6817 50.0249L25.709 50.2566L25.892 51.0249H26.6817V50.0249ZM27.2251 50.0249V51.0249H27.9962L28.1922 50.279L27.2251 50.0249ZM39.1782 4.54545V3.54545H38.407L38.211 4.29126L39.1782 4.54545ZM52.1221 4.54545L53.0895 4.2924L52.8941 3.54545H52.1221V4.54545ZM64.0432 50.1207L63.0758 50.3738L63.2712 51.1207H64.0432V50.1207ZM64.6185 50.1207V51.1207H65.4087L65.5914 50.352L64.6185 50.1207ZM75.453 4.54545V3.54545H74.6629L74.4802 4.31417L75.453 4.54545ZM90.5702 4.54545L91.5316 4.82055L91.8965 3.54545H90.5702V4.54545ZM71.8415 70V71H72.5955L72.8029 70.2751L71.8415 70ZM58.3543 70L57.3942 70.2796L57.604 71H58.3543V70ZM45.8898 27.2053L46.8499 26.9256L46.6401 26.2053H45.8898V27.2053ZM45.3785 27.2053V26.2053H44.6276L44.4182 26.9263L45.3785 27.2053ZM32.9459 70V71H33.6968L33.9062 70.279L32.9459 70ZM20.4201 69.7249L1.69144 4.27036L-0.231393 4.82055L18.4973 70.2751L20.4201 69.7249ZM0.730025 5.54545H15.8472V3.54545H0.730025V5.54545ZM14.8744 4.7772L25.709 50.2566L27.6545 49.7931L16.82 4.31371L14.8744 4.7772ZM26.6817 51.0249H27.2251V49.0249H26.6817V51.0249ZM28.1922 50.279L40.1453 4.79964L38.211 4.29126L26.2579 49.7707L28.1922 50.279ZM39.1782 5.54545H52.1221V3.54545H39.1782V5.54545ZM51.1546 4.79851L63.0758 50.3738L65.0107 49.8677L53.0895 4.2924L51.1546 4.79851ZM64.0432 51.1207H64.6185V49.1207H64.0432V51.1207ZM65.5914 50.352L76.4259 4.77674L74.4802 4.31417L63.6456 49.8895L65.5914 50.352ZM75.453 5.54545H90.5702V3.54545H75.453V5.54545ZM89.6088 4.27036L70.8801 69.7249L72.8029 70.2751L91.5316 4.82055L89.6088 4.27036ZM71.8415 69H58.3543V71H71.8415V69ZM59.3144 69.7204L46.8499 26.9256L44.9297 27.4849L57.3942 70.2796L59.3144 69.7204ZM45.8898 26.2053H45.3785V28.2053H45.8898V26.2053ZM44.4182 26.9263L31.9856 69.721L33.9062 70.279L46.3388 27.4842L44.4182 26.9263ZM32.9459 69H19.4587V71H32.9459V69ZM102.667 70V71H103.393L103.618 70.3094L102.667 70ZM87.8376 70L86.8924 69.6737L86.4345 71H87.8376V70ZM110.434 4.54545V3.54545H109.721L109.488 4.21913L110.434 4.54545ZM128.267 4.54545L129.213 4.21955L128.98 3.54545H128.267V4.54545ZM150.831 70V71H152.234L151.777 69.6741L150.831 70ZM136.002 70L135.051 70.3088L135.275 71H136.002V70ZM119.606 19.5028L120.557 19.194L120.333 18.5028H119.606V19.5028ZM119.095 19.5028V18.5028H118.368L118.144 19.1935L119.095 19.5028ZM101.74 44.272V43.272H100.74V44.272H101.74ZM136.769 44.272H137.769V43.272H136.769V44.272ZM136.769 55.0746V56.0746H137.769V55.0746H136.769ZM101.74 55.0746H100.74V56.0746H101.74V55.0746ZM102.667 69H87.8376V71H102.667V69ZM88.7829 70.3263L111.379 4.87177L109.488 4.21913L86.8924 69.6737L88.7829 70.3263ZM110.434 5.54545H128.267V3.54545H110.434V5.54545ZM127.322 4.87136L149.886 70.3259L151.777 69.6741L129.213 4.21955L127.322 4.87136ZM150.831 69H136.002V71H150.831V69ZM136.953 69.6912L120.557 19.194L118.655 19.8117L135.051 70.3088L136.953 69.6912ZM119.606 18.5028H119.095V20.5028H119.606V18.5028ZM118.144 19.1935L101.716 69.6906L103.618 70.3094L120.046 19.8122L118.144 19.1935ZM101.74 45.272H136.769V43.272H101.74V45.272ZM135.769 44.272V55.0746H137.769V44.272H135.769ZM136.769 54.0746H101.74V56.0746H136.769V54.0746ZM102.74 55.0746V44.272H100.74V55.0746H102.74ZM158.709 70H157.709V71H158.709V70ZM158.709 4.54545V3.54545H157.709V4.54545H158.709ZM199.107 8.47656L198.624 9.3522L198.627 9.35386L199.107 8.47656ZM210.07 19.6946L209.184 20.1588L209.185 20.1618L210.07 19.6946ZM210.07 54.7869L209.185 54.3213L209.183 54.3244L210.07 54.7869ZM199.043 66.0689L198.564 65.1914L198.562 65.1923L199.043 66.0689ZM172.548 58.1428H171.548V59.1428H172.548V58.1428ZM191.66 55.9695L192.121 56.857L192.124 56.8557L191.66 55.9695ZM197.989 49.1619L197.081 48.7425L197.079 48.7453L197.989 49.1619ZM197.989 25.3516L197.079 25.7682L197.082 25.7734L197.989 25.3516ZM191.692 18.576L192.153 17.6884V17.6884L191.692 18.576ZM172.548 16.4027V15.4027H171.548V16.4027H172.548ZM181.913 69H158.709V71H181.913V69ZM159.709 70V4.54545H157.709V70H159.709ZM158.709 5.54545H182.104V3.54545H158.709V5.54545ZM182.104 5.54545C188.555 5.54545 194.049 6.82874 198.624 9.3522L199.59 7.60093C194.662 4.88291 188.821 3.54545 182.104 3.54545V5.54545ZM198.627 9.35386C203.202 11.8569 206.717 15.451 209.184 20.1588L210.955 19.2305C208.309 14.1796 204.515 10.2951 199.587 7.59927L198.627 9.35386ZM209.185 20.1618C211.672 24.8674 212.937 30.5376 212.937 37.2088H214.937C214.937 30.2863 213.624 24.2803 210.954 19.2274L209.185 20.1618ZM212.937 37.2088C212.937 43.9017 211.672 49.5938 209.185 54.3213L210.955 55.2525C213.624 50.1789 214.937 44.1522 214.937 37.2088H212.937ZM209.183 54.3244C206.717 59.0516 203.182 62.6668 198.564 65.1914L199.523 66.9463C204.493 64.2295 208.309 60.3234 210.956 55.2495L209.183 54.3244ZM198.562 65.1923C193.966 67.716 188.429 69 181.913 69V71C188.692 71 194.575 69.6632 199.525 66.9454L198.562 65.1923ZM172.548 59.1428H181.337V57.1428H172.548V59.1428ZM181.337 59.1428C185.542 59.1428 189.151 58.3986 192.121 56.857L191.2 55.0819C188.587 56.438 185.314 57.1428 181.337 57.1428V59.1428ZM192.124 56.8557C195.146 55.276 197.405 52.8347 198.898 49.5786L197.079 48.7453C195.759 51.6255 193.8 53.7226 191.197 55.0832L192.124 56.8557ZM198.896 49.5814C200.405 46.3162 201.13 42.1747 201.13 37.2088H199.13C199.13 42.0014 198.427 45.8287 197.081 48.7425L198.896 49.5814ZM201.13 37.2088C201.13 32.2845 200.405 28.1741 198.895 24.9297L197.082 25.7734C198.427 28.6654 199.13 32.4598 199.13 37.2088H201.13ZM198.898 24.9349C197.406 21.68 195.157 19.2477 192.153 17.6884L191.232 19.4635C193.81 20.802 195.759 22.8867 197.079 25.7682L198.898 24.9349ZM192.153 17.6884C189.183 16.1468 185.574 15.4027 181.369 15.4027V17.4027C185.346 17.4027 188.619 18.1074 191.232 19.4635L192.153 17.6884ZM181.369 15.4027H172.548V17.4027H181.369V15.4027ZM171.548 16.4027V58.1428H173.548V16.4027H171.548ZM242.525 15.9553H241.525V16.9553H242.525V15.9553ZM242.525 4.54545V3.54545H241.525V4.54545H242.525ZM296.282 4.54545H297.282V3.54545H296.282V4.54545ZM296.282 15.9553V16.9553H297.282V15.9553H296.282ZM276.243 15.9553V14.9553H275.243V15.9553H276.243ZM276.243 70V71H277.243V70H276.243ZM262.564 70H261.564V71H262.564V70ZM262.564 15.9553H263.564V14.9553H262.564V15.9553ZM243.525 15.9553V4.54545H241.525V15.9553H243.525ZM242.525 5.54545H296.282V3.54545H242.525V5.54545ZM295.282 4.54545V15.9553H297.282V4.54545H295.282ZM296.282 14.9553H276.243V16.9553H296.282V14.9553ZM275.243 15.9553V70H277.243V15.9553H275.243ZM276.243 69H262.564V71H276.243V69ZM263.564 70V15.9553H261.564V70H263.564ZM262.564 14.9553H242.525V16.9553H262.564V14.9553ZM318.495 41.6193L317.495 41.6092V41.6193H318.495ZM318.495 70V71H319.495V70H318.495ZM304.88 70H303.88V71H304.88V70ZM304.88 4.54545V3.54545H303.88V4.54545H304.88ZM318.111 4.54545H319.111V3.54545H318.111V4.54545ZM318.111 29.5703H317.111V30.5703H318.111V29.5703ZM318.686 29.5703V30.5703H319.375L319.62 29.9275L318.686 29.5703ZM324.056 22.7628L324.609 23.5959L324.614 23.5926L324.056 22.7628ZM342.273 22.5071L341.766 23.3691L341.775 23.374L342.273 22.5071ZM348.218 28.8672L347.326 29.3199L347.33 29.3281L348.218 28.8672ZM350.327 38.7429L349.327 38.7373V38.7429H350.327ZM350.327 70V71H351.327V70H350.327ZM336.712 70H335.712V71H336.712V70ZM336.712 41.1719L335.712 41.1648V41.1719H336.712ZM334.411 34.1087L333.672 34.7823L333.676 34.7873L334.411 34.1087ZM323.033 32.7663L322.549 31.8909L322.544 31.8941L323.033 32.7663ZM319.709 36.218L318.827 35.7462L318.825 35.7507L319.709 36.218ZM317.495 41.6193V70H319.495V41.6193H317.495ZM318.495 69H304.88V71H318.495V69ZM305.88 70V4.54545H303.88V70H305.88ZM304.88 5.54545H318.111V3.54545H304.88V5.54545ZM317.111 4.54545V29.5703H319.111V4.54545H317.111ZM318.111 30.5703H318.686V28.5703H318.111V30.5703ZM319.62 29.9275C320.658 27.2147 322.319 25.1159 324.609 23.5959L323.503 21.9296C320.849 23.6909 318.931 26.1305 317.752 29.2132L319.62 29.9275ZM324.614 23.5926C326.883 22.0666 329.776 21.2699 333.356 21.2699V19.2699C329.479 19.2699 326.171 20.1351 323.498 21.9329L324.614 23.5926ZM333.356 21.2699C336.616 21.2699 339.407 21.9815 341.766 23.369L342.78 21.6452C340.068 20.0498 336.915 19.2699 333.356 19.2699V21.2699ZM341.775 23.374C344.154 24.742 346.003 26.7136 347.326 29.3199L349.109 28.4145C347.62 25.481 345.506 23.2126 342.771 21.6402L341.775 23.374ZM347.33 29.3281C348.667 31.9023 349.348 35.0264 349.327 38.7373L351.327 38.7485C351.349 34.789 350.623 31.3293 349.105 28.4063L347.33 29.3281ZM349.327 38.7429V70H351.327V38.7429H349.327ZM350.327 69H336.712V71H350.327V69ZM337.712 70V41.1719H335.712V70H337.712ZM337.712 41.1789C337.734 37.9828 336.922 35.3532 335.145 33.43L333.676 34.7873C335.01 36.2306 335.732 38.3098 335.712 41.1648L337.712 41.1789ZM335.15 33.4351C333.386 31.4998 330.94 30.5838 327.955 30.5838V32.5838C330.509 32.5838 332.367 33.3511 333.672 34.7823L335.15 33.4351ZM327.955 30.5838C325.955 30.5838 324.144 31.0102 322.55 31.8909L323.516 33.6417C324.777 32.9457 326.247 32.5838 327.955 32.5838V30.5838ZM322.544 31.8941C320.96 32.7818 319.721 34.0765 318.827 35.7462L320.591 36.6899C321.316 35.334 322.293 34.3276 323.522 33.6386L322.544 31.8941ZM318.825 35.7507C317.946 37.4141 317.517 39.3795 317.495 41.6092L319.495 41.6294C319.515 39.6404 319.896 38.0049 320.593 36.6853L318.825 35.7507ZM361.042 70H360.042V71H361.042V70ZM361.042 20.9091V19.9091H360.042V20.9091H361.042ZM374.241 20.9091H375.241V19.9091H374.241V20.9091ZM374.241 29.4744H373.241V30.4744H374.241V29.4744ZM374.753 29.4744V30.4744H375.501L375.712 29.7562L374.753 29.4744ZM379.259 22.571L379.852 23.3759L379.858 23.372L379.259 22.571ZM388.751 20.3338L388.859 19.3396V19.3396L388.751 20.3338ZM390.829 20.6854H391.829V19.9046L391.071 19.7152L390.829 20.6854ZM390.829 32.7663L390.541 33.7242L391.829 34.1104V32.7663H390.829ZM379.706 33.3416L380.187 34.2186L380.191 34.2163L379.706 33.3416ZM375.999 36.9212L375.14 36.4084L375.135 36.4173L375.999 36.9212ZM374.657 70V71H375.657V70H374.657ZM362.042 70V20.9091H360.042V70H362.042ZM361.042 21.9091H374.241V19.9091H361.042V21.9091ZM373.241 20.9091V29.4744H375.241V20.9091H373.241ZM374.241 30.4744H374.753V28.4744H374.241V30.4744ZM375.712 29.7562C376.559 26.8734 377.954 24.776 379.852 23.3759L378.665 21.7662C376.346 23.4769 374.736 25.9817 373.793 29.1926L375.712 29.7562ZM379.858 23.372C381.786 21.9304 384.003 21.206 386.546 21.206V19.206C383.592 19.206 380.95 20.0582 378.66 21.7701L379.858 23.372ZM386.546 21.206C387.187 21.206 387.885 21.246 388.644 21.328L388.859 19.3396C388.04 19.2511 387.269 19.206 386.546 19.206V21.206ZM388.644 21.328C389.399 21.4096 390.044 21.5201 390.586 21.6555L391.071 19.7152C390.42 19.5523 389.68 19.4284 388.859 19.3396L388.644 21.328ZM389.829 20.6854V32.7663H391.829V20.6854H389.829ZM391.116 31.8085C390.402 31.5944 389.458 31.4156 388.307 31.2636L388.045 33.2464C389.153 33.3927 389.977 33.5547 390.541 33.7242L391.116 31.8085ZM388.307 31.2636C387.143 31.1099 386.065 31.0312 385.076 31.0312V33.0312C385.961 33.0312 386.95 33.1018 388.045 33.2464L388.307 31.2636ZM385.076 31.0312C382.923 31.0312 380.963 31.5023 379.222 32.4669L380.191 34.2163C381.603 33.4338 383.223 33.0312 385.076 33.0312V31.0312ZM379.226 32.4646C377.513 33.4032 376.147 34.7226 375.14 36.4084L376.858 37.4339C377.683 36.0515 378.789 34.9846 380.187 34.2186L379.226 32.4646ZM375.135 36.4173C374.14 38.1231 373.657 40.0697 373.657 42.2266H375.657C375.657 40.3777 376.068 38.7874 376.863 37.425L375.135 36.4173ZM373.657 42.2266V70H375.657V42.2266H373.657ZM374.657 69H361.042V71H374.657V69ZM404.915 67.8906L404.419 68.7592L404.426 68.7626L404.915 67.8906ZM396.541 59.1335L395.653 59.5927L395.654 59.5947L396.541 59.1335ZM396.541 32.3828L395.652 31.9257L396.541 32.3828ZM404.819 23.4659L404.308 22.6066L404.305 22.608L404.819 23.4659ZM426.456 21.8359L426.106 22.7726L426.115 22.7757L426.456 21.8359ZM433.807 26.4702L433.104 27.1809L433.107 27.1845L433.807 26.4702ZM438.729 34.2685L437.792 34.6189L437.793 34.621L438.729 34.2685ZM440.487 48.9382V49.9382H441.487V48.9382H440.487ZM399.034 48.9382H398.034V49.9382H399.034V48.9382ZM399.034 40.5007V39.5007H398.034V40.5007H399.034ZM427.671 40.5007V41.5007H428.671V40.5007H427.671ZM426.392 35.2912L425.521 35.782V35.782L426.392 35.2912ZM422.845 31.7436L422.339 32.6065L422.347 32.6107L422.354 32.6149L422.845 31.7436ZM412.138 31.8714L412.649 32.731L412.653 32.7289L412.138 31.8714ZM408.431 35.6747L409.3 36.1683L409.303 36.1633L408.431 35.6747ZM407.056 40.9482L406.056 40.9372V40.9482H407.056ZM408.399 55.2663L407.506 55.7179L407.511 55.7263L408.399 55.2663ZM422.333 60.1562L422.012 59.2092L422.333 60.1562ZM425.561 58.2386L424.872 57.5145V57.5145L425.561 58.2386ZM427.607 55.1065L427.673 54.1087L426.934 54.06L426.672 54.7519L427.607 55.1065ZM440.199 55.9375L441.178 56.1442L441.416 55.0156L440.265 54.9397L440.199 55.9375ZM436.268 63.8636L435.516 63.2041L435.516 63.2046L436.268 63.8636ZM428.661 69.1051L429.033 70.0336L429.036 70.0323L428.661 69.1051ZM417.955 69.9588C413.041 69.9588 408.87 68.9643 405.405 67.0186L404.426 68.7626C408.247 70.9079 412.769 71.9588 417.955 71.9588V69.9588ZM405.411 67.0221C401.959 65.0525 399.302 62.2765 397.429 58.6723L395.654 59.5947C397.701 63.5332 400.627 66.5952 404.419 68.7592L405.411 67.0221ZM397.43 58.6744C395.557 55.0508 394.601 50.7297 394.601 45.6783H392.601C392.601 50.982 393.605 55.631 395.653 59.5927L397.43 58.6744ZM394.601 45.6783C394.601 40.7594 395.555 36.4894 397.431 32.8399L395.652 31.9257C393.607 35.9041 392.601 40.4977 392.601 45.6783H394.601ZM397.431 32.8399C399.309 29.1861 401.94 26.3552 405.333 24.3239L404.305 22.608C400.581 24.8379 397.695 27.9516 395.652 31.9257L397.431 32.8399ZM405.331 24.3252C408.733 22.3002 412.748 21.2699 417.411 21.2699V19.2699C412.445 19.2699 408.065 20.3703 404.308 22.6066L405.331 24.3252ZM417.411 21.2699C420.541 21.2699 423.436 21.7739 426.106 22.7726L426.807 20.8993C423.894 19.8099 420.759 19.2699 417.411 19.2699V21.2699ZM426.115 22.7757C428.794 23.7501 431.12 25.2176 433.104 27.1809L434.511 25.7594C432.318 23.5892 429.744 21.9673 426.798 20.8961L426.115 22.7757ZM433.107 27.1845C435.099 29.1359 436.665 31.6057 437.792 34.6189L439.666 33.918C438.449 30.667 436.734 27.9379 434.507 25.7559L433.107 27.1845ZM437.793 34.621C438.913 37.5944 439.487 41.1135 439.487 45.1989H441.487C441.487 40.9319 440.888 37.1642 439.665 33.9159L437.793 34.621ZM439.487 45.1989V48.9382H441.487V45.1989H439.487ZM440.487 47.9382H399.034V49.9382H440.487V47.9382ZM400.034 48.9382V40.5007H398.034V48.9382H400.034ZM399.034 41.5007H427.671V39.5007H399.034V41.5007ZM428.671 40.5007C428.671 38.3911 428.211 36.4815 427.264 34.8003L425.521 35.782C426.279 37.1265 426.671 38.6899 426.671 40.5007H428.671ZM427.264 34.8004C426.322 33.1284 425.008 31.8143 423.336 30.8724L422.354 32.6149C423.707 33.3775 424.758 34.4284 425.521 35.782L427.264 34.8004ZM423.35 30.8807C421.684 29.9049 419.768 29.4332 417.635 29.4332V31.4332C419.466 31.4332 421.022 31.8352 422.339 32.6065L423.35 30.8807ZM417.635 29.4332C415.408 29.4332 413.394 29.952 411.624 31.014L412.653 32.7289C414.079 31.8733 415.729 31.4332 417.635 31.4332V29.4332ZM411.627 31.0119C409.9 32.039 408.539 33.4346 407.558 35.1861L409.303 36.1633C410.112 34.7188 411.223 33.5789 412.649 32.731L411.627 31.0119ZM407.561 35.1811C406.577 36.9153 406.079 38.8411 406.056 40.9372L408.056 40.9591C408.076 39.1774 408.495 37.5876 409.3 36.1683L407.561 35.1811ZM406.056 40.9482V48.9702H408.056V40.9482H406.056ZM406.056 48.9702C406.056 51.5212 406.527 53.7813 407.506 55.7178L409.291 54.8148C408.481 53.2144 408.056 51.2771 408.056 48.9702H406.056ZM407.511 55.7263C408.511 57.6577 409.932 59.1654 411.766 60.2234L412.766 58.4911C411.276 57.6315 410.118 56.4119 409.287 54.8063L407.511 55.7263ZM411.766 60.2234C413.606 61.2851 415.756 61.7955 418.179 61.7955V59.7955C416.041 59.7955 414.249 59.347 412.766 58.4911L411.766 60.2234ZM418.179 61.7955C419.785 61.7955 421.281 61.569 422.654 61.1033L422.012 59.2092C420.872 59.5957 419.597 59.7955 418.179 59.7955V61.7955ZM422.654 61.1033C424.039 60.634 425.243 59.9225 426.251 58.9628L424.872 57.5145C424.09 58.2593 423.142 58.8262 422.012 59.2092L422.654 61.1033ZM426.251 58.9628C427.262 58.0002 428.024 56.827 428.542 55.4612L426.672 54.7519C426.252 55.8576 425.651 56.7726 424.872 57.5145L426.251 58.9628ZM427.541 56.1044L440.133 56.9353L440.265 54.9397L427.673 54.1087L427.541 56.1044ZM439.221 55.7308C438.616 58.5936 437.381 61.0785 435.516 63.2041L437.02 64.5231C439.118 62.1318 440.504 59.3325 441.178 56.1442L439.221 55.7308ZM435.516 63.2046C433.671 65.3099 431.271 66.9719 428.287 68.178L429.036 70.0323C432.273 68.7241 434.944 66.8919 437.02 64.5226L435.516 63.2046ZM428.29 68.1766C425.341 69.3562 421.903 69.9588 417.955 69.9588V71.9588C422.104 71.9588 425.803 71.3257 429.033 70.0336L428.29 68.1766ZM458.704 67.8906L458.208 68.7592L458.215 68.7626L458.704 67.8906ZM450.331 59.1335L449.442 59.5927L449.443 59.5947L450.331 59.1335ZM450.331 32.3828L449.441 31.9257L450.331 32.3828ZM458.608 23.4659L458.097 22.6066L458.094 22.608L458.608 23.4659ZM480.245 21.8359L479.895 22.7726L479.904 22.7757L480.245 21.8359ZM487.596 26.4702L486.893 27.1809L486.896 27.1845L487.596 26.4702ZM492.518 34.2685L491.581 34.6189L491.582 34.621L492.518 34.2685ZM494.276 48.9382V49.9382H495.276V48.9382H494.276ZM452.823 48.9382H451.823V49.9382H452.823V48.9382ZM452.823 40.5007V39.5007H451.823V40.5007H452.823ZM481.46 40.5007V41.5007H482.46V40.5007H481.46ZM480.181 35.2912L479.31 35.782V35.782L480.181 35.2912ZM476.634 31.7436L476.128 32.6065L476.136 32.6107L476.143 32.6149L476.634 31.7436ZM465.927 31.8714L466.438 32.731L466.442 32.7289L465.927 31.8714ZM462.22 35.6747L463.089 36.1683L463.092 36.1633L462.22 35.6747ZM460.845 40.9482L459.845 40.9372V40.9482H460.845ZM462.188 55.2663L461.295 55.7179L461.3 55.7263L462.188 55.2663ZM476.122 60.1562L475.801 59.2092L476.122 60.1562ZM479.35 58.2386L478.661 57.5145V57.5145L479.35 58.2386ZM481.396 55.1065L481.462 54.1087L480.723 54.06L480.461 54.7519L481.396 55.1065ZM493.988 55.9375L494.967 56.1442L495.205 55.0156L494.054 54.9397L493.988 55.9375ZM490.057 63.8636L489.305 63.2041L489.305 63.2046L490.057 63.8636ZM482.451 69.1051L482.822 70.0336L482.825 70.0323L482.451 69.1051ZM471.744 69.9588C466.83 69.9588 462.659 68.9643 459.194 67.0186L458.215 68.7626C462.036 70.9079 466.558 71.9588 471.744 71.9588V69.9588ZM459.2 67.0221C455.748 65.0525 453.091 62.2765 451.218 58.6723L449.443 59.5947C451.49 63.5332 454.416 66.5952 458.209 68.7592L459.2 67.0221ZM451.219 58.6744C449.346 55.0508 448.39 50.7297 448.39 45.6783H446.39C446.39 50.982 447.395 55.631 449.442 59.5927L451.219 58.6744ZM448.39 45.6783C448.39 40.7594 449.344 36.4894 451.22 32.8399L449.441 31.9257C447.396 35.9041 446.39 40.4977 446.39 45.6783H448.39ZM451.22 32.8399C453.098 29.1861 455.73 26.3552 459.122 24.3239L458.094 22.608C454.37 24.8379 451.484 27.9516 449.441 31.9257L451.22 32.8399ZM459.12 24.3252C462.522 22.3002 466.537 21.2699 471.201 21.2699V19.2699C466.234 19.2699 461.854 20.3703 458.097 22.6066L459.12 24.3252ZM471.201 21.2699C474.33 21.2699 477.225 21.7739 479.895 22.7726L480.596 20.8993C477.683 19.8099 474.548 19.2699 471.201 19.2699V21.2699ZM479.904 22.7757C482.583 23.7501 484.909 25.2176 486.893 27.1809L488.3 25.7594C486.107 23.5892 483.533 21.9673 480.587 20.8961L479.904 22.7757ZM486.896 27.1845C488.888 29.1359 490.454 31.6057 491.581 34.6189L493.455 33.918C492.238 30.667 490.523 27.9379 488.296 25.7559L486.896 27.1845ZM491.582 34.621C492.702 37.5944 493.276 41.1135 493.276 45.1989H495.276C495.276 40.9319 494.677 37.1642 493.454 33.9159L491.582 34.621ZM493.276 45.1989V48.9382H495.276V45.1989H493.276ZM494.276 47.9382H452.823V49.9382H494.276V47.9382ZM453.823 48.9382V40.5007H451.823V48.9382H453.823ZM452.823 41.5007H481.46V39.5007H452.823V41.5007ZM482.46 40.5007C482.46 38.3911 482 36.4815 481.053 34.8003L479.31 35.782C480.068 37.1265 480.46 38.6899 480.46 40.5007H482.46ZM481.053 34.8004C480.111 33.1284 478.797 31.8143 477.125 30.8724L476.143 32.6149C477.497 33.3775 478.548 34.4284 479.31 35.782L481.053 34.8004ZM477.139 30.8807C475.473 29.9049 473.557 29.4332 471.424 29.4332V31.4332C473.255 31.4332 474.812 31.8352 476.128 32.6065L477.139 30.8807ZM471.424 29.4332C469.197 29.4332 467.183 29.952 465.413 31.014L466.442 32.7289C467.868 31.8733 469.518 31.4332 471.424 31.4332V29.4332ZM465.416 31.0119C463.689 32.039 462.328 33.4346 461.347 35.1861L463.092 36.1633C463.901 34.7188 465.012 33.5789 466.438 32.731L465.416 31.0119ZM461.35 35.1811C460.366 36.9153 459.869 38.8411 459.845 40.9372L461.845 40.9591C461.865 39.1774 462.284 37.5876 463.089 36.1683L461.35 35.1811ZM459.845 40.9482V48.9702H461.845V40.9482H459.845ZM459.845 48.9702C459.845 51.5212 460.316 53.7813 461.296 55.7178L463.08 54.8148C462.27 53.2144 461.845 51.2771 461.845 48.9702H459.845ZM461.3 55.7263C462.3 57.6577 463.721 59.1654 465.555 60.2234L466.555 58.4911C465.065 57.6315 463.907 56.4119 463.076 54.8063L461.3 55.7263ZM465.555 60.2234C467.395 61.2851 469.546 61.7955 471.968 61.7955V59.7955C469.83 59.7955 468.038 59.347 466.555 58.4911L465.555 60.2234ZM471.968 61.7955C473.575 61.7955 475.07 61.569 476.443 61.1033L475.801 59.2092C474.661 59.5957 473.386 59.7955 471.968 59.7955V61.7955ZM476.443 61.1033C477.828 60.634 479.032 59.9225 480.04 58.9628L478.661 57.5145C477.879 58.2593 476.931 58.8262 475.801 59.2092L476.443 61.1033ZM480.04 58.9628C481.051 58.0002 481.813 56.827 482.331 55.4612L480.461 54.7519C480.041 55.8576 479.44 56.7726 478.661 57.5145L480.04 58.9628ZM481.33 56.1044L493.922 56.9353L494.054 54.9397L481.462 54.1087L481.33 56.1044ZM493.01 55.7308C492.405 58.5936 491.17 61.0785 489.305 63.2041L490.809 64.5231C492.907 62.1318 494.293 59.3325 494.967 56.1442L493.01 55.7308ZM489.305 63.2046C487.46 65.3099 485.06 66.9719 482.076 68.178L482.825 70.0323C486.062 68.7241 488.733 66.8919 490.809 64.5226L489.305 63.2046ZM482.079 68.1766C479.13 69.3562 475.692 69.9588 471.744 69.9588V71.9588C475.893 71.9588 479.592 71.3257 482.822 70.0336L482.079 68.1766ZM524.247 70H523.247V71H524.247V70ZM524.247 4.54545V3.54545H523.247V4.54545H524.247ZM562.759 7.38991L562.282 8.26884L562.286 8.27107L562.759 7.38991ZM570.749 15.2202L569.872 15.7006L569.875 15.7072L570.749 15.2202ZM562.567 45.9979L562.105 45.111L562.103 45.1121L562.567 45.9979ZM533.259 48.7784H532.259V49.7784H533.259V48.7784ZM533.259 37.6882V36.6882H532.259V37.6882H533.259ZM554.065 36.3139L554.534 37.1972L554.538 37.1951L554.065 36.3139ZM557.965 32.4467L557.079 31.9814L557.077 31.9857L557.965 32.4467ZM557.965 21.0369L557.077 21.4979L557.081 21.5048L557.084 21.5117L557.965 21.0369ZM554.065 17.2337L553.601 18.1193L553.61 18.1237L554.065 17.2337ZM538.085 15.8594V14.8594H537.085V15.8594H538.085ZM538.085 70V71H539.085V70H538.085ZM525.247 70V4.54545H523.247V70H525.247ZM524.247 5.54545H550.07V3.54545H524.247V5.54545ZM550.07 5.54545C554.909 5.54545 558.966 6.46938 562.282 8.26883L563.236 6.511C559.563 4.51783 555.161 3.54545 550.07 3.54545V5.54545ZM562.286 8.27107C565.617 10.0583 568.136 12.5323 569.872 15.7006L571.626 14.7398C569.696 11.2177 566.889 8.47152 563.231 6.50875L562.286 8.27107ZM569.875 15.7072C571.635 18.8621 572.529 22.5252 572.529 26.7259H574.529C574.529 22.2333 573.57 18.2259 571.622 14.7331L569.875 15.7072ZM572.529 26.7259C572.529 30.9246 571.625 34.5861 569.846 37.7402L571.588 38.7229C573.558 35.2292 574.529 31.2203 574.529 26.7259H572.529ZM569.846 37.7402C568.071 40.8865 565.501 43.3419 562.105 45.111L563.029 46.8847C566.75 44.9464 569.613 42.2243 571.588 38.7229L569.846 37.7402ZM562.103 45.1121C558.741 46.8738 554.627 47.7784 549.719 47.7784V49.7784C554.868 49.7784 559.319 48.8293 563.031 46.8836L562.103 45.1121ZM549.719 47.7784H533.259V49.7784H549.719V47.7784ZM534.259 48.7784V37.6882H532.259V48.7784H534.259ZM533.259 38.6882H547.482V36.6882H533.259V38.6882ZM547.482 38.6882C550.252 38.6882 552.621 38.2128 554.534 37.1972L553.597 35.4307C552.058 36.2475 550.038 36.6882 547.482 36.6882V38.6882ZM554.538 37.1951C556.449 36.1697 557.9 34.7401 558.852 32.9077L557.077 31.9857C556.325 33.4346 555.176 34.5832 553.593 35.4328L554.538 37.1951ZM558.85 32.912C559.809 31.0868 560.275 29.0161 560.275 26.7259H558.275C558.275 28.7396 557.867 30.4827 557.079 31.9815L558.85 32.912ZM560.275 26.7259C560.275 24.4168 559.81 22.3517 558.845 20.5621L557.084 21.5117C557.866 22.9608 558.275 24.6883 558.275 26.7259H560.275ZM558.852 20.5759C557.898 18.7392 556.441 17.327 554.521 16.3436L553.61 18.1237C555.184 18.9301 556.327 20.0534 557.077 21.4979L558.852 20.5759ZM554.53 16.348C552.597 15.3346 550.209 14.8594 547.418 14.8594V16.8594C549.996 16.8594 552.039 17.3004 553.601 18.1193L554.53 16.348ZM547.418 14.8594H538.085V16.8594H547.418V14.8594ZM537.085 15.8594V70H539.085V15.8594H537.085ZM538.085 69H524.247V71H538.085V69ZM582.262 70H581.262V71H582.262V70ZM582.262 20.9091V19.9091H581.262V20.9091H582.262ZM595.877 20.9091H596.877V19.9091H595.877V20.9091ZM595.877 70V71H596.877V70H595.877ZM583.892 12.5675L583.202 13.2906L583.207 13.2958L583.213 13.301L583.892 12.5675ZM583.892 2.85156L584.577 3.58008L584.578 3.57976L583.892 2.85156ZM594.279 2.85156L593.589 3.57467L593.594 3.57994L593.6 3.58512L594.279 2.85156ZM594.279 12.5675L594.964 13.296L594.965 13.2957L594.279 12.5675ZM583.262 70V20.9091H581.262V70H583.262ZM582.262 21.9091H595.877V19.9091H582.262V21.9091ZM594.877 20.9091V70H596.877V20.9091H594.877ZM595.877 69H582.262V71H595.877V69ZM589.102 13.581C587.323 13.581 585.831 13.0003 584.572 11.8339L583.213 13.301C584.851 14.8193 586.833 15.581 589.102 15.581V13.581ZM584.583 11.8444C583.344 10.6607 582.751 9.28835 582.751 7.67755H580.751C580.751 9.85938 581.586 11.747 583.202 13.2906L584.583 11.8444ZM582.751 7.67755C582.751 6.09214 583.341 4.743 584.577 3.58008L583.207 2.12304C581.589 3.64478 580.751 5.51297 580.751 7.67755H582.751ZM584.578 3.57976C585.838 2.39405 587.328 1.8061 589.102 1.8061V-0.193895C586.828 -0.193895 584.845 0.581802 583.207 2.12336L584.578 3.57976ZM589.102 1.8061C590.876 1.8061 592.352 2.39369 593.589 3.57467L594.97 2.12845C593.351 0.582155 591.376 -0.193895 589.102 -0.193895V1.8061ZM593.6 3.58512C594.857 4.74958 595.453 6.09732 595.453 7.67755H597.453C597.453 5.50779 596.6 3.6382 594.959 2.118L593.6 3.58512ZM595.453 7.67755C595.453 9.28324 594.853 10.6542 593.594 11.8393L594.965 13.2957C596.603 11.7535 597.453 9.86448 597.453 7.67755H595.453ZM593.594 11.8389C592.359 13.0006 590.881 13.581 589.102 13.581V15.581C591.371 15.581 593.345 14.819 594.964 13.296L593.594 11.8389ZM620.399 4.54545H621.399V3.54545H620.399V4.54545ZM620.399 70V71H621.399V70H620.399ZM606.784 70H605.784V71H606.784V70ZM606.784 4.54545V3.54545H605.784V4.54545H606.784ZM619.399 4.54545V70H621.399V4.54545H619.399ZM620.399 69H606.784V71H620.399V69ZM607.784 70V4.54545H605.784V70H607.784ZM606.784 5.54545H620.399V3.54545H606.784V5.54545ZM644.92 4.54545H645.92V3.54545H644.92V4.54545ZM644.92 70V71H645.92V70H644.92ZM631.305 70H630.305V71H631.305V70ZM631.305 4.54545V3.54545H630.305V4.54545H631.305ZM643.92 4.54545V70H645.92V4.54545H643.92ZM644.92 69H631.305V71H644.92V69ZM632.305 70V4.54545H630.305V70H632.305ZM631.305 5.54545H644.92V3.54545H631.305V5.54545ZM661.452 69.2969L661.04 70.2081L661.046 70.211L661.452 69.2969ZM655.635 64.407L654.795 64.9502L654.802 64.9598L655.635 64.407ZM655.028 49.4176L654.148 48.9423L655.028 49.4176ZM659.119 44.9432L658.571 44.1064L659.119 44.9432ZM664.999 42.3864L664.748 41.4184L664.746 41.419L664.999 42.3864ZM671.967 41.1719L672.063 42.1673L672.071 42.1665L671.967 41.1719ZM678.87 40.3409L679.015 41.3304L679.027 41.3286L678.87 40.3409ZM682.673 39.1264L682.114 38.2978L682.673 39.1264ZM681.938 31.8714L681.277 32.6217L681.283 32.6271L681.938 31.8714ZM670.72 31.8395L671.313 32.6452L671.32 32.6395L670.72 31.8395ZM667.844 35.8665L667.763 36.8632L668.577 36.9293L668.804 36.1445L667.844 35.8665ZM655.252 34.8438L654.274 34.6342L654.035 35.7482L655.171 35.8405L655.252 34.8438ZM659.023 27.1094L659.78 27.7626L659.783 27.7589L659.023 27.1094ZM666.278 22.0597L666.646 22.9895L666.649 22.9881L666.278 22.0597ZM684.463 21.2287L684.215 22.1974L684.217 22.1979L684.463 21.2287ZM691.143 24.201L690.574 25.0232L690.578 25.0261L691.143 24.201ZM695.777 29.3786L694.895 29.8505L694.897 29.8543L695.777 29.3786ZM697.471 70V71H698.471V70H697.471ZM684.559 70H683.559V71H684.559V70ZM684.559 63.1925H685.559V62.1925H684.559V63.1925ZM684.176 63.1925V62.1925H683.565L683.286 62.7354L684.176 63.1925ZM681.011 67.2514L681.668 68.0055L681.675 67.9995L681.011 67.2514ZM676.249 69.968L676.575 70.9135L676.585 70.91L676.249 69.968ZM679.03 60.348L679.487 61.2375L679.497 61.2324L679.03 60.348ZM682.641 57.0881L681.799 56.5486L682.641 57.0881ZM683.952 47.2443H684.952V45.4016L683.407 46.4059L683.952 47.2443ZM682.194 48.0114L682.476 48.9707L682.485 48.9681L682.494 48.9654L682.194 48.0114ZM679.733 48.6186L679.916 49.6017L679.927 49.5997L679.938 49.5974L679.733 48.6186ZM676.984 49.098L677.123 50.0884L677.134 50.0868L677.145 50.085L676.984 49.098ZM674.492 49.4496L674.35 48.4596L674.346 48.4602L674.492 49.4496ZM670.305 50.5682L670.699 51.4873L670.305 50.5682ZM667.524 52.6456L668.315 53.2582L668.322 53.2487L667.524 52.6456ZM668.547 60.0923L667.957 60.9L667.964 60.9052L667.972 60.9104L668.547 60.0923ZM669.825 69.9268C666.81 69.9268 664.16 69.404 661.857 68.3827L661.046 70.211C663.644 71.363 666.577 71.9268 669.825 71.9268V69.9268ZM661.864 68.3857C659.577 67.3519 657.788 65.8428 656.468 63.8542L654.802 64.9598C656.338 67.2751 658.426 69.026 661.04 70.2081L661.864 68.3857ZM656.475 63.8637C655.197 61.8885 654.526 59.3833 654.526 56.2891H652.526C652.526 59.6721 653.261 62.5788 654.795 64.9502L656.475 63.8637ZM654.526 56.2891C654.526 53.6803 655.005 51.5639 655.908 49.8929L654.148 48.9423C653.048 50.9787 652.526 53.4433 652.526 56.2891H654.526ZM655.908 49.8929C656.832 48.1822 658.083 46.8162 659.666 45.78L658.571 44.1064C656.703 45.3287 655.227 46.9457 654.148 48.9423L655.908 49.8929ZM659.666 45.78C661.293 44.7154 663.152 43.9043 665.253 43.3537L664.746 41.419C662.457 42.019 660.396 42.9124 658.571 44.1064L659.666 45.78ZM665.251 43.3543C667.412 42.7931 669.683 42.3969 672.063 42.1673L671.871 40.1765C669.393 40.4156 667.018 40.8291 664.748 41.4184L665.251 43.3543ZM672.071 42.1665C674.932 41.8675 677.248 41.5889 679.015 41.3304L678.725 39.3514C676.997 39.6043 674.712 39.8797 671.863 40.1773L672.071 42.1665ZM679.027 41.3286C680.815 41.0451 682.26 40.6128 683.233 39.955L682.114 38.2978C681.51 38.7054 680.42 39.0828 678.714 39.3532L679.027 41.3286ZM683.233 39.955C684.327 39.216 684.856 38.0995 684.856 36.7614H682.856C682.856 37.5113 682.597 37.9715 682.114 38.2978L683.233 39.955ZM684.856 36.7614V36.5696H682.856V36.7614H684.856ZM684.856 36.5696C684.856 34.3179 684.134 32.4511 682.593 31.1158L681.283 32.6271C682.299 33.5077 682.856 34.773 682.856 36.5696H684.856ZM682.599 31.1212C681.1 29.7995 679.041 29.2095 676.569 29.2095V31.2095C678.742 31.2095 680.263 31.7275 681.277 32.6217L682.599 31.1212ZM676.569 29.2095C673.978 29.2095 671.794 29.7841 670.12 31.0395L671.32 32.6395C672.544 31.7216 674.26 31.2095 676.569 31.2095V29.2095ZM670.128 31.0338C668.514 32.2204 667.418 33.7429 666.883 35.5884L668.804 36.1445C669.208 34.7514 670.029 33.5893 671.313 32.6451L670.128 31.0338ZM667.925 34.8698L655.332 33.847L655.171 35.8405L667.763 36.8632L667.925 34.8698ZM656.229 35.0533C656.836 32.2238 658.021 29.8009 659.78 27.7626L658.266 26.4561C656.274 28.7645 654.946 31.4978 654.274 34.6342L656.229 35.0533ZM659.783 27.7589C661.542 25.7008 663.82 24.1077 666.646 22.9895L665.91 21.1298C662.812 22.3554 660.254 24.1287 658.263 26.4598L659.783 27.7589ZM666.649 22.9881C669.491 21.8514 672.812 21.2699 676.633 21.2699V19.2699C672.612 19.2699 669.03 19.8816 665.906 21.1312L666.649 22.9881ZM676.633 21.2699C679.281 21.2699 681.808 21.5802 684.215 22.1974L684.712 20.26C682.133 19.5988 679.439 19.2699 676.633 19.2699V21.2699ZM684.217 22.1979C686.627 22.8106 688.742 23.7552 690.574 25.0232L691.712 23.3788C689.666 21.9622 687.328 20.9252 684.71 20.2595L684.217 22.1979ZM690.578 25.0261C692.405 26.2771 693.841 27.8815 694.895 29.8505L696.659 28.9066C695.454 26.6569 693.801 24.8095 691.708 23.3759L690.578 25.0261ZM694.897 29.8543C695.932 31.7663 696.471 34.0986 696.471 36.8892H698.471C698.471 33.8417 697.881 31.1669 696.657 28.9028L694.897 29.8543ZM696.471 36.8892V70H698.471V36.8892H696.471ZM697.471 69H684.559V71H697.471V69ZM685.559 70V63.1925H683.559V70H685.559ZM684.559 62.1925H684.176V64.1925H684.559V62.1925ZM683.286 62.7354C682.556 64.1567 681.578 65.4117 680.348 66.5033L681.675 67.9995C683.086 66.7474 684.219 65.2964 685.065 63.6495L683.286 62.7354ZM680.355 66.4973C679.139 67.5562 677.664 68.4024 675.914 69.0261L676.585 70.91C678.542 70.2127 680.242 69.2478 681.668 68.0055L680.355 66.4973ZM675.923 69.0227C674.196 69.6183 672.169 69.9268 669.825 69.9268V71.9268C672.34 71.9268 674.595 71.5962 676.575 70.9134L675.923 69.0227ZM673.725 62.5305C675.861 62.5305 677.79 62.1093 679.487 61.2374L678.573 59.4586C677.201 60.1634 675.594 60.5305 673.725 60.5305V62.5305ZM679.497 61.2324C681.172 60.348 682.51 59.1469 683.483 57.6275L681.799 56.5486C681.026 57.7565 679.956 58.7287 678.563 59.4636L679.497 61.2324ZM683.483 57.6275C684.467 56.0921 684.952 54.3578 684.952 52.4538H682.952C682.952 54.0016 682.563 55.3567 681.799 56.5486L683.483 57.6275ZM684.952 52.4538V47.2443H682.952V52.4538H684.952ZM683.407 46.4059C683.086 46.6144 682.594 46.8373 681.894 47.0574L682.494 48.9654C683.285 48.7167 683.965 48.4282 684.497 48.0828L683.407 46.4059ZM681.912 47.052C681.218 47.256 680.424 47.4523 679.528 47.6398L679.938 49.5974C680.874 49.4014 681.721 49.1928 682.476 48.9707L681.912 47.052ZM679.55 47.6355C678.641 47.8046 677.733 47.9631 676.824 48.111L677.145 50.085C678.069 49.9347 678.992 49.7736 679.916 49.6017L679.55 47.6355ZM676.846 48.1076C675.929 48.2356 675.097 48.3529 674.35 48.4596L674.633 50.4395C675.377 50.3332 676.207 50.2161 677.123 50.0884L676.846 48.1076ZM674.346 48.4602C672.683 48.7042 671.2 49.0965 669.911 49.649L670.699 51.4873C671.796 51.0172 673.104 50.6637 674.637 50.439L674.346 48.4602ZM669.911 49.649C668.588 50.2161 667.51 51.0066 666.727 52.0425L668.322 53.2487C668.86 52.5375 669.636 51.943 670.699 51.4873L669.911 49.649ZM666.734 52.033C665.913 53.0916 665.533 54.3841 665.533 55.8416H667.533C667.533 54.7423 667.814 53.9042 668.315 53.2582L666.734 52.033ZM665.533 55.8416C665.533 57.9721 666.325 59.7078 667.957 60.9L669.137 59.2847C668.085 58.5166 667.533 57.4186 667.533 55.8416H665.533ZM667.972 60.9104C669.542 62.0145 671.483 62.5305 673.725 62.5305V60.5305C671.79 60.5305 670.279 60.0878 669.122 59.2743L667.972 60.9104ZM708.034 70H707.034V71H708.034V70ZM708.034 20.9091V19.9091H707.034V20.9091H708.034ZM721.233 20.9091H722.233V19.9091H721.233V20.9091ZM721.233 29.4744H720.233V30.4744H721.233V29.4744ZM721.745 29.4744V30.4744H722.493L722.704 29.7562L721.745 29.4744ZM726.251 22.571L726.845 23.3759L726.85 23.372L726.251 22.571ZM735.743 20.3338L735.851 19.3396V19.3396L735.743 20.3338ZM737.821 20.6854H738.821V19.9046L738.063 19.7152L737.821 20.6854ZM737.821 32.7663L737.533 33.7242L738.821 34.1104V32.7663H737.821ZM726.699 33.3416L727.179 34.2186L727.183 34.2163L726.699 33.3416ZM722.991 36.9212L722.133 36.4084L722.127 36.4173L722.991 36.9212ZM721.649 70V71H722.649V70H721.649ZM709.034 70V20.9091H707.034V70H709.034ZM708.034 21.9091H721.233V19.9091H708.034V21.9091ZM720.233 20.9091V29.4744H722.233V20.9091H720.233ZM721.233 30.4744H721.745V28.4744H721.233V30.4744ZM722.704 29.7562C723.551 26.8734 724.946 24.776 726.845 23.3759L725.658 21.7662C723.338 23.4769 721.728 25.9817 720.785 29.1926L722.704 29.7562ZM726.85 23.372C728.778 21.9304 730.995 21.206 733.538 21.206V19.206C730.584 19.206 727.943 20.0582 725.652 21.7701L726.85 23.372ZM733.538 21.206C734.179 21.206 734.878 21.246 735.636 21.328L735.851 19.3396C735.032 19.2511 734.261 19.206 733.538 19.206V21.206ZM735.636 21.328C736.391 21.4096 737.037 21.5201 737.578 21.6555L738.063 19.7152C737.412 19.5523 736.672 19.4284 735.851 19.3396L735.636 21.328ZM736.821 20.6854V32.7663H738.821V20.6854H736.821ZM738.108 31.8085C737.394 31.5944 736.45 31.4156 735.299 31.2636L735.037 33.2464C736.145 33.3927 736.969 33.5547 737.533 33.7242L738.108 31.8085ZM735.299 31.2636C734.135 31.1099 733.057 31.0312 732.068 31.0312V33.0312C732.953 33.0312 733.942 33.1018 735.037 33.2464L735.299 31.2636ZM732.068 31.0312C729.915 31.0312 727.955 31.5023 726.214 32.4669L727.183 34.2163C728.596 33.4338 730.215 33.0312 732.068 33.0312V31.0312ZM726.218 32.4646C724.505 33.4032 723.139 34.7226 722.133 36.4084L723.85 37.4339C724.675 36.0515 725.781 34.9846 727.179 34.2186L726.218 32.4646ZM722.127 36.4173C721.132 38.1231 720.649 40.0697 720.649 42.2266H722.649C722.649 40.3777 723.06 38.7874 723.855 37.425L722.127 36.4173ZM720.649 42.2266V70H722.649V42.2266H720.649ZM721.649 69H708.034V71H721.649V69ZM785.705 34.9077L785.767 35.9058L786.837 35.8399L786.697 34.7767L785.705 34.9077ZM773.241 35.6747L772.26 35.8708L772.431 36.7264L773.302 36.6728L773.241 35.6747ZM771.866 32.7983L771.087 33.4254L771.095 33.4347L771.866 32.7983ZM769.086 30.7209L768.659 31.6253L768.669 31.6301L768.68 31.6347L769.086 30.7209ZM759.69 31.2642L760.206 32.1206L760.215 32.115L759.69 31.2642ZM758.922 37.7521L758.269 38.509V38.509L758.922 37.7521ZM763.748 39.7017L763.538 40.6795L763.551 40.682L763.748 39.7017ZM772.633 41.4915L772.835 40.5119L772.831 40.5112L772.633 41.4915ZM783.308 46.2216L782.628 46.9549V46.9549L783.308 46.2216ZM783.979 63.2564L783.191 62.641L783.188 62.6453L783.979 63.2564ZM776.245 68.9453L776.626 69.87L776.629 69.8687L776.245 68.9453ZM749.43 66.8999L748.851 67.7148L748.856 67.7185L749.43 66.8999ZM742.687 55.7777L742.634 54.7791L741.544 54.8363L741.696 55.9172L742.687 55.7777ZM756.078 55.0746L757.058 54.8744L756.885 54.0308L756.026 54.0759L756.078 55.0746ZM759.018 59.6129L758.461 60.4433L758.469 60.4485L759.018 59.6129ZM770.748 59.7727L771.282 60.6179L771.285 60.6159L770.748 59.7727ZM772.985 56.1612L773.985 56.1757L773.985 56.1598L773.985 56.144L772.985 56.1612ZM771.419 53.125L770.798 53.9091L770.808 53.917L771.419 53.125ZM766.689 51.2713L766.885 50.2907L766.884 50.2906L766.689 51.2713ZM758.187 49.5774L757.991 50.558L757.992 50.5581L758.187 49.5774ZM747.481 44.5916L746.767 45.2923L746.77 45.2955L747.481 44.5916ZM746.554 27.397L745.757 26.7934L745.753 26.7982L746.554 27.397ZM753.809 22.1236L753.442 21.1934L753.44 21.1942L753.809 22.1236ZM779.441 24.201L778.848 25.0062L778.85 25.0079L779.441 24.201ZM785.644 33.9096L773.179 34.6766L773.302 36.6728L785.767 35.9058L785.644 33.9096ZM774.221 35.4786C773.975 34.2487 773.444 33.1392 772.638 32.1619L771.095 33.4347C771.695 34.1619 772.08 34.9701 772.26 35.8708L774.221 35.4786ZM772.645 32.1713C771.831 31.1593 770.77 30.375 769.492 29.8071L768.68 31.6347C769.703 32.0895 770.496 32.6901 771.087 33.4253L772.645 32.1713ZM769.512 29.8164C768.22 29.2066 766.714 28.9219 765.027 28.9219V30.9219C766.494 30.9219 767.694 31.1699 768.659 31.6253L769.512 29.8164ZM765.027 28.9219C762.776 28.9219 760.805 29.4001 759.164 30.4134L760.215 32.115C761.472 31.3385 763.059 30.9219 765.027 30.9219V28.9219ZM759.173 30.4078C757.478 31.43 756.516 32.9007 756.516 34.7798H758.516C758.516 33.7186 759.003 32.8456 760.206 32.1206L759.173 30.4078ZM756.516 34.7798C756.516 36.2607 757.126 37.5217 758.269 38.509L759.576 36.9953C758.844 36.3633 758.516 35.6427 758.516 34.7798H756.516ZM758.269 38.509C759.402 39.4877 761.216 40.1801 763.538 40.6794L763.959 38.724C761.722 38.2432 760.318 37.6359 759.576 36.9953L758.269 38.509ZM763.551 40.682L772.436 42.4718L772.831 40.5112L763.946 38.7214L763.551 40.682ZM772.432 42.471C777.113 43.4322 780.471 44.9548 782.628 46.9549L783.988 45.4883C781.458 43.1418 777.7 41.511 772.835 40.5119L772.432 42.471ZM782.628 46.9549C784.745 48.9176 785.824 51.4954 785.824 54.7869H787.824C787.824 51.0046 786.559 47.8721 783.988 45.4883L782.628 46.9549ZM785.824 54.7869C785.824 57.7918 784.944 60.396 783.191 62.641L784.768 63.8718C786.807 61.2589 787.824 58.2167 787.824 54.7869H785.824ZM783.188 62.6453C781.435 64.916 779.007 66.7144 775.861 68.0219L776.629 69.8687C780.045 68.4489 782.774 66.4548 784.771 63.8674L783.188 62.6453ZM775.864 68.0206C772.747 69.304 769.12 69.9588 764.963 69.9588V71.9588C769.328 71.9588 773.223 71.2713 776.626 69.87L775.864 68.0206ZM764.963 69.9588C758.594 69.9588 753.64 68.632 750.005 66.0813L748.856 67.7185C752.934 70.5797 758.335 71.9588 764.963 71.9588V69.9588ZM750.01 66.0849C746.4 63.5179 744.299 60.0555 743.677 55.6382L741.696 55.9172C742.395 60.8749 744.79 64.8273 748.851 67.7148L750.01 66.0849ZM742.739 56.7763L756.13 56.0732L756.026 54.0759L742.634 54.7791L742.739 56.7763ZM755.098 55.2747C755.551 57.4911 756.669 59.2404 758.461 60.4432L759.576 58.7826C758.257 57.8974 757.415 56.6211 757.058 54.8744L755.098 55.2747ZM758.469 60.4485C760.23 61.6067 762.429 62.147 764.995 62.147V60.147C762.703 60.147 760.917 59.6646 759.568 58.7774L758.469 60.4485ZM764.995 62.147C767.499 62.147 769.622 61.6675 771.282 60.6179L770.213 58.9275C768.975 59.7103 767.263 60.147 764.995 60.147V62.147ZM771.285 60.6159C772.978 59.5364 773.958 58.0487 773.985 56.1757L771.985 56.1467C771.97 57.2141 771.458 58.1341 770.21 58.9296L771.285 60.6159ZM773.985 56.144C773.958 54.5888 773.281 53.2974 772.029 52.333L770.808 53.917C771.603 54.5293 771.969 55.2621 771.985 56.1785L773.985 56.144ZM772.04 52.341C770.836 51.3884 769.08 50.7297 766.885 50.2907L766.493 52.2519C768.559 52.6652 769.956 53.2422 770.798 53.909L772.04 52.341ZM766.884 50.2906L758.383 48.5967L757.992 50.5581L766.493 52.252L766.884 50.2906ZM758.384 48.5968C753.698 47.6597 750.343 46.0596 748.191 43.8877L746.77 45.2955C749.306 47.8537 753.089 49.5775 757.991 50.558L758.384 48.5968ZM748.194 43.891C746.076 41.7334 744.997 38.9799 744.997 35.5469H742.997C742.997 39.4434 744.241 42.7197 746.767 45.2923L748.194 43.891ZM744.997 35.5469C744.997 32.5848 745.793 30.0841 747.355 27.9958L745.753 26.7982C743.905 29.2696 742.997 32.2021 742.997 35.5469H744.997ZM747.351 28.0006C748.949 25.8897 751.208 24.2329 754.178 23.0529L753.44 21.1942C750.188 22.4858 747.61 24.3447 745.757 26.7934L747.351 28.0006ZM754.176 23.0538C757.166 21.8739 760.701 21.2699 764.803 21.2699V19.2699C760.51 19.2699 756.716 19.9016 753.442 21.1934L754.176 23.0538ZM764.803 21.2699C770.874 21.2699 775.518 22.5539 778.848 25.0062L780.034 23.3958C776.247 20.6066 771.133 19.2699 764.803 19.2699V21.2699ZM778.85 25.0079C782.203 27.4625 784.152 30.7839 784.714 35.0386L786.697 34.7767C786.065 29.9974 783.838 26.1809 780.032 23.3941L778.85 25.0079Z" fill="url(#paint0_linear_90_3150)"/>
<defs>
<linearGradient id="paint0_linear_90_3150" x1="-145.003" y1="55" x2="81.3481" y2="-356.752" gradientUnits="userSpaceOnUse">
<stop offset="0.6896" stop-color="#F42D32"/>
<stop offset="1" stop-color="#FCCB4C"/>
</linearGradient>
</defs>
</svg>
