<svg width="528" height="71" viewBox="0 0 528 71" fill="none" xmlns="http://www.w3.org/2000/svg">
<path opacity="0.25" d="M0.447976 15.9553H-0.552024V16.9553H0.447976V15.9553ZM0.447976 4.54545V3.54545H-0.552024V4.54545H0.447976ZM54.2051 4.54545H55.2051V3.54545H54.2051V4.54545ZM54.2051 15.9553V16.9553H55.2051V15.9553H54.2051ZM34.166 15.9553V14.9553H33.166V15.9553H34.166ZM34.166 70V71H35.166V70H34.166ZM20.487 70H19.487V71H20.487V70ZM20.487 15.9553H21.487V14.9553H20.487V15.9553ZM1.44798 15.9553V4.54545H-0.552024V15.9553H1.44798ZM0.447976 5.54545H54.2051V3.54545H0.447976V5.54545ZM53.2051 4.54545V15.9553H55.2051V4.54545H53.2051ZM54.2051 14.9553H34.166V16.9553H54.2051V14.9553ZM33.166 15.9553V70H35.166V15.9553H33.166ZM34.166 69H20.487V71H34.166V69ZM21.487 70V15.9553H19.487V70H21.487ZM20.487 14.9553H0.447976V16.9553H20.487V14.9553ZM64.9837 67.7947L64.4744 68.6554L64.4804 68.6589L64.9837 67.7947ZM56.642 58.9098L55.7526 59.3669L55.7537 59.369L56.642 58.9098ZM56.642 32.3509L57.5304 32.81L57.5314 32.808L56.642 32.3509ZM64.9837 23.4659L65.4891 24.3288L65.4907 24.3278L64.9837 23.4659ZM90.7116 23.4659L90.2024 24.3265L90.2084 24.3301L90.7116 23.4659ZM99.0852 32.3509L98.1958 32.808L98.1969 32.81L99.0852 32.3509ZM99.0852 58.9098L99.9736 59.369L99.9746 59.3669L99.0852 58.9098ZM90.7116 67.7947L91.2171 68.6576L91.2187 68.6567L90.7116 67.7947ZM83.5845 58.4943L84.23 59.2581L84.2362 59.2528L83.5845 58.4943ZM87.0043 53.1889L86.0611 52.8566L86.0583 52.8646L87.0043 53.1889ZM87.0043 37.9119L86.0583 38.2363L86.0611 38.2443L87.0043 37.9119ZM72.1747 32.6065L71.5335 31.8392L71.5283 31.8435L72.1747 32.6065ZM68.6911 37.9119L67.7479 37.5796L67.7451 37.5876L68.6911 37.9119ZM68.6911 53.1889L67.7451 53.5133L67.7479 53.5213L68.6911 53.1889ZM72.1747 58.4943L71.5283 59.2573L71.534 59.2621L71.5397 59.2669L72.1747 58.4943ZM77.8636 69.9588C73.0432 69.9588 68.9302 68.9358 65.4869 66.9306L64.4804 68.6589C68.2814 70.8724 72.7551 71.9588 77.8636 71.9588V69.9588ZM65.4929 66.9341C62.057 64.9011 59.4063 62.0801 57.5304 58.4506L55.7537 59.369C57.7982 63.3247 60.7086 66.4271 64.4744 68.6554L65.4929 66.9341ZM57.5314 58.4527C55.6555 54.8027 54.7017 50.5431 54.7017 45.6463H52.7017C52.7017 50.8063 53.7082 55.3891 55.7526 59.3669L57.5314 58.4527ZM54.7017 45.6463C54.7017 40.7052 55.6561 36.4363 57.5304 32.81L55.7537 31.8917C53.7075 35.8506 52.7017 40.4454 52.7017 45.6463H54.7017ZM57.5314 32.808C59.4074 29.1581 62.0569 26.3394 65.4891 24.3288L64.4782 22.6031C60.7087 24.8112 57.7972 27.9158 55.7526 31.8937L57.5314 32.808ZM65.4907 24.3278C68.9333 22.3028 73.0449 21.2699 77.8636 21.2699V19.2699C72.7534 19.2699 68.2783 20.3677 64.4766 22.604L65.4907 24.3278ZM77.8636 21.2699C82.6826 21.2699 86.7823 22.3028 90.2024 24.3265L91.2209 22.6053C87.4393 20.3676 82.9736 19.2699 77.8636 19.2699V21.2699ZM90.2084 24.3301C93.6617 26.3411 96.3207 29.1597 98.1958 32.808L99.9746 31.8937C97.9293 27.9142 95.0059 24.8095 91.2149 22.6018L90.2084 24.3301ZM98.1969 32.81C100.071 36.4363 101.026 40.7052 101.026 45.6463H103.026C103.026 40.4454 102.02 35.8506 99.9736 31.8917L98.1969 32.81ZM101.026 45.6463C101.026 50.5431 100.072 54.8027 98.1958 58.4527L99.9746 59.3669C102.019 55.3891 103.026 50.8063 103.026 45.6463H101.026ZM98.1969 58.4506C96.3218 62.0786 93.6615 64.8993 90.2046 66.9328L91.2187 68.6567C95.0061 66.4288 97.9282 63.3263 99.9736 59.369L98.1969 58.4506ZM90.2062 66.9319C86.7854 68.9358 82.6843 69.9588 77.8636 69.9588V71.9588C82.9719 71.9588 87.4362 70.8725 91.2171 68.6576L90.2062 66.9319ZM77.9276 61.4119C80.3872 61.4119 82.5116 60.7103 84.23 59.2581L82.9391 57.7305C81.6319 58.8351 79.9849 59.4119 77.9276 59.4119V61.4119ZM84.2362 59.2528C85.9071 57.8172 87.1362 55.8873 87.9502 53.5132L86.0583 52.8646C85.3382 54.965 84.2875 56.572 82.9328 57.7358L84.2362 59.2528ZM87.9474 53.5213C88.7802 51.1581 89.1868 48.4964 89.1868 45.5504H87.1868C87.1868 48.3147 86.8051 50.7454 86.0611 52.8566L87.9474 53.5213ZM89.1868 45.5504C89.1868 42.6045 88.7802 39.9428 87.9474 37.5796L86.0611 38.2443C86.8051 40.3555 87.1868 42.7861 87.1868 45.5504H89.1868ZM87.9502 37.5876C87.1362 35.2135 85.9071 33.2836 84.2362 31.848L82.9328 33.365C84.2875 34.5289 85.3382 36.1359 86.0583 38.2363L87.9502 37.5876ZM84.2362 31.848C82.518 30.3718 80.3915 29.657 77.9276 29.657V31.657C79.9807 31.657 81.6255 32.2418 82.9328 33.365L84.2362 31.848ZM77.9276 29.657C75.4444 29.657 73.2913 30.3704 71.5335 31.8392L72.8159 33.3739C74.169 32.2433 75.851 31.657 77.9276 31.657V29.657ZM71.5283 31.8435C69.8363 33.2771 68.5845 35.2053 67.7479 37.5796L69.6342 38.2443C70.3743 36.1441 71.445 34.5354 72.8211 33.3695L71.5283 31.8435ZM67.7451 37.5876C66.9357 39.9483 66.5405 42.6071 66.5405 45.5504H68.5405C68.5405 42.7835 68.9123 40.35 69.637 38.2363L67.7451 37.5876ZM66.5405 45.5504C66.5405 48.4937 66.9357 51.1526 67.7451 53.5132L69.637 52.8646C68.9123 50.7508 68.5405 48.3173 68.5405 45.5504H66.5405ZM67.7479 53.5213C68.5845 55.8955 69.8363 57.8238 71.5283 59.2573L72.8211 57.7313C71.445 56.5654 70.3743 54.9568 69.6342 52.8566L67.7479 53.5213ZM71.5397 59.2669C73.2976 60.7117 75.4486 61.4119 77.9276 61.4119V59.4119C75.8469 59.4119 74.1626 58.8338 72.8097 57.7218L71.5397 59.2669ZM123.215 55.8736L122.215 55.8716L122.21 58.5392L123.967 56.5324L123.215 55.8736ZM123.247 39.5419V38.5419H122.249L122.247 39.5399L123.247 39.5419ZM125.229 39.5419V40.5419H125.693L125.993 40.1868L125.229 39.5419ZM140.953 20.9091V19.9091H140.489L140.189 20.2641L140.953 20.9091ZM156.582 20.9091L157.341 21.5595L158.754 19.9091H156.582V20.9091ZM135.456 45.5824V46.5824H135.916L136.216 46.2328L135.456 45.5824ZM132.228 45.5824V44.5824H131.774L131.476 44.9236L132.228 45.5824ZM110.879 70H109.879V71H110.879V70ZM110.879 4.54545V3.54545H109.879V4.54545H110.879ZM124.494 4.54545H125.494V3.54545H124.494V4.54545ZM124.494 70V71H125.494V70H124.494ZM141.56 70L140.732 70.5598L141.029 71H141.56V70ZM127.114 48.6186L126.387 47.9323L125.837 48.5148L126.286 49.1784L127.114 48.6186ZM136.191 38.9986L137.015 38.432L136.313 37.4117L135.464 38.3123L136.191 38.9986ZM157.509 70V71H159.41L158.333 69.4334L157.509 70ZM124.215 55.8755L124.247 39.5439L122.247 39.5399L122.215 55.8716L124.215 55.8755ZM123.247 40.5419H125.229V38.5419H123.247V40.5419ZM125.993 40.1868L141.717 21.554L140.189 20.2641L124.464 38.897L125.993 40.1868ZM140.953 21.9091H156.582V19.9091H140.953V21.9091ZM155.822 20.2587L134.696 44.932L136.216 46.2328L157.341 21.5595L155.822 20.2587ZM135.456 44.5824H132.228V46.5824H135.456V44.5824ZM131.476 44.9236L122.463 55.2147L123.967 56.5324L132.98 46.2412L131.476 44.9236ZM111.879 70V4.54545H109.879V70H111.879ZM110.879 5.54545H124.494V3.54545H110.879V5.54545ZM123.494 4.54545V70H125.494V4.54545H123.494ZM124.494 69H110.879V71H124.494V69ZM142.389 69.4402L127.943 48.0588L126.286 49.1784L140.732 70.5598L142.389 69.4402ZM127.842 49.3049L136.918 39.6848L135.464 38.3123L126.387 47.9323L127.842 49.3049ZM135.367 39.5652L156.685 70.5666L158.333 69.4334L137.015 38.432L135.367 39.5652ZM157.509 69H141.56V71H157.509V69ZM170.572 67.8906L170.077 68.7592L170.083 68.7626L170.572 67.8906ZM162.199 59.1335L161.31 59.5927L161.311 59.5947L162.199 59.1335ZM162.199 32.3828L161.309 31.9257L162.199 32.3828ZM170.476 23.4659L169.965 22.6066L169.963 22.608L170.476 23.4659ZM192.113 21.8359L191.763 22.7726L191.772 22.7757L192.113 21.8359ZM199.464 26.4702L198.761 27.1809L198.764 27.1845L199.464 26.4702ZM204.386 34.2685L203.45 34.6189L203.45 34.621L204.386 34.2685ZM206.144 48.9382V49.9382H207.144V48.9382H206.144ZM164.692 48.9382H163.692V49.9382H164.692V48.9382ZM164.692 40.5007V39.5007H163.692V40.5007H164.692ZM193.328 40.5007V41.5007H194.328V40.5007H193.328ZM192.05 35.2912L191.178 35.782L191.178 35.782L192.05 35.2912ZM188.502 31.7436L187.997 32.6065L188.004 32.6107L188.011 32.6149L188.502 31.7436ZM177.795 31.8714L178.306 32.731L178.31 32.7289L177.795 31.8714ZM174.088 35.6747L174.958 36.1683L174.96 36.1633L174.088 35.6747ZM172.714 40.9482L171.714 40.9372V40.9482H172.714ZM174.056 55.2663L173.164 55.7179L173.168 55.7263L174.056 55.2663ZM187.991 60.1562L187.67 59.2092L187.991 60.1562ZM191.219 58.2386L190.529 57.5145V57.5145L191.219 58.2386ZM193.264 55.1065L193.33 54.1087L192.591 54.06L192.329 54.7519L193.264 55.1065ZM205.856 55.9375L206.835 56.1442L207.073 55.0156L205.922 54.9397L205.856 55.9375ZM201.925 63.8636L201.174 63.2041L201.173 63.2046L201.925 63.8636ZM194.319 69.1051L194.69 70.0336L194.693 70.0323L194.319 69.1051ZM183.612 69.9588C178.698 69.9588 174.527 68.9643 171.062 67.0186L170.083 68.7626C173.904 70.9079 178.426 71.9588 183.612 71.9588V69.9588ZM171.068 67.0221C167.616 65.0525 164.959 62.2765 163.086 58.6723L161.311 59.5947C163.359 63.5332 166.284 66.5952 170.077 68.7592L171.068 67.0221ZM163.087 58.6744C161.214 55.0508 160.258 50.7297 160.258 45.6783H158.258C158.258 50.982 159.263 55.631 161.31 59.5927L163.087 58.6744ZM160.258 45.6783C160.258 40.7594 161.212 36.4894 163.088 32.8399L161.309 31.9257C159.265 35.9041 158.258 40.4977 158.258 45.6783H160.258ZM163.088 32.8399C164.966 29.1861 167.598 26.3552 170.99 24.3239L169.963 22.608C166.239 24.8379 163.352 27.9516 161.309 31.9257L163.088 32.8399ZM170.988 24.3252C174.39 22.3002 178.405 21.2699 183.069 21.2699V19.2699C178.102 19.2699 173.722 20.3703 169.965 22.6066L170.988 24.3252ZM183.069 21.2699C186.198 21.2699 189.093 21.7739 191.763 22.7726L192.464 20.8993C189.551 19.8099 186.417 19.2699 183.069 19.2699V21.2699ZM191.772 22.7757C194.451 23.7501 196.777 25.2176 198.761 27.1809L200.168 25.7594C197.975 23.5892 195.401 21.9673 192.455 20.8961L191.772 22.7757ZM198.764 27.1845C200.756 29.1359 202.322 31.6057 203.45 34.6189L205.323 33.918C204.106 30.667 202.391 27.9379 200.164 25.7559L198.764 27.1845ZM203.45 34.621C204.57 37.5944 205.144 41.1135 205.144 45.1989H207.144C207.144 40.9319 206.546 37.1642 205.322 33.9159L203.45 34.621ZM205.144 45.1989V48.9382H207.144V45.1989H205.144ZM206.144 47.9382H164.692V49.9382H206.144V47.9382ZM165.692 48.9382V40.5007H163.692V48.9382H165.692ZM164.692 41.5007H193.328V39.5007H164.692V41.5007ZM194.328 40.5007C194.328 38.3911 193.868 36.4815 192.921 34.8003L191.178 35.782C191.936 37.1265 192.328 38.6899 192.328 40.5007H194.328ZM192.921 34.8004C191.979 33.1284 190.665 31.8143 188.993 30.8724L188.011 32.6149C189.365 33.3775 190.416 34.4284 191.178 35.782L192.921 34.8004ZM189.007 30.8807C187.341 29.9049 185.425 29.4332 183.292 29.4332V31.4332C185.123 31.4332 186.68 31.8352 187.997 32.6065L189.007 30.8807ZM183.292 29.4332C181.065 29.4332 179.051 29.952 177.281 31.014L178.31 32.7289C179.736 31.8733 181.387 31.4332 183.292 31.4332V29.4332ZM177.284 31.0119C175.557 32.039 174.196 33.4346 173.215 35.1861L174.96 36.1633C175.769 34.7188 176.88 33.5789 178.306 32.731L177.284 31.0119ZM173.218 35.1811C172.234 36.9153 171.737 38.8411 171.714 40.9372L173.714 40.9591C173.733 39.1774 174.152 37.5876 174.958 36.1683L173.218 35.1811ZM171.714 40.9482V48.9702H173.714V40.9482H171.714ZM171.714 48.9702C171.714 51.5212 172.184 53.7813 173.164 55.7178L174.948 54.8148C174.138 53.2144 173.714 51.2771 173.714 48.9702H171.714ZM173.168 55.7263C174.169 57.6577 175.589 59.1654 177.423 60.2234L178.423 58.4911C176.933 57.6315 175.776 56.4119 174.944 54.8063L173.168 55.7263ZM177.423 60.2234C179.264 61.2851 181.414 61.7955 183.836 61.7955V59.7955C181.698 59.7955 179.906 59.347 178.423 58.4911L177.423 60.2234ZM183.836 61.7955C185.443 61.7955 186.938 61.569 188.312 61.1033L187.67 59.2092C186.529 59.5957 185.254 59.7955 183.836 59.7955V61.7955ZM188.312 61.1033C189.696 60.634 190.9 59.9225 191.908 58.9628L190.529 57.5145C189.747 58.2593 188.799 58.8262 187.67 59.2092L188.312 61.1033ZM191.908 58.9628C192.919 58.0002 193.681 56.827 194.199 55.4612L192.329 54.7519C191.91 55.8576 191.308 56.7726 190.529 57.5145L191.908 58.9628ZM193.198 56.1044L205.791 56.9353L205.922 54.9397L193.33 54.1087L193.198 56.1044ZM204.878 55.7308C204.273 58.5936 203.039 61.0785 201.174 63.2041L202.677 64.5231C204.775 62.1318 206.161 59.3325 206.835 56.1442L204.878 55.7308ZM201.173 63.2046C199.329 65.3099 196.929 66.9719 193.944 68.178L194.693 70.0323C197.931 68.7241 200.602 66.8919 202.677 64.5226L201.173 63.2046ZM193.947 68.1766C190.999 69.3562 187.56 69.9588 183.612 69.9588V71.9588C187.761 71.9588 191.46 71.3257 194.69 70.0336L193.947 68.1766ZM228.644 41.6193L227.644 41.6092V41.6193H228.644ZM228.644 70V71H229.644V70H228.644ZM215.029 70H214.029V71H215.029V70ZM215.029 20.9091V19.9091H214.029V20.9091H215.029ZM228.005 20.9091H229.005V19.9091H228.005V20.9091ZM228.005 29.5703H227.005V30.5703H228.005V29.5703ZM228.58 29.5703V30.5703H229.269L229.515 29.926L228.58 29.5703ZM234.045 22.7947L234.59 23.6332L234.595 23.63L234.045 22.7947ZM258.175 28.8991L257.284 29.3518L257.285 29.3546L258.175 28.8991ZM260.285 70V71H261.285V70H260.285ZM246.67 70H245.67V71H246.67V70ZM246.67 41.1719L245.67 41.1648V41.1719H246.67ZM244.368 34.1406L243.63 34.8147L243.634 34.8193L244.368 34.1406ZM233.086 32.7663L232.597 31.894L232.592 31.8973L233.086 32.7663ZM229.827 36.218L228.94 35.7559L228.937 35.7607L229.827 36.218ZM227.644 41.6193V70H229.644V41.6193H227.644ZM228.644 69H215.029V71H228.644V69ZM216.029 70V20.9091H214.029V70H216.029ZM215.029 21.9091H228.005V19.9091H215.029V21.9091ZM227.005 20.9091V29.5703H229.005V20.9091H227.005ZM228.005 30.5703H228.58V28.5703H228.005V30.5703ZM229.515 29.926C230.526 27.2687 232.212 25.1794 234.59 23.6332L233.5 21.9563C230.765 23.734 228.807 26.1617 227.645 29.2146L229.515 29.926ZM234.595 23.63C236.96 22.0733 239.86 21.2699 243.346 21.2699V19.2699C239.545 19.2699 236.244 20.1497 233.495 21.9595L234.595 23.63ZM243.346 21.2699C246.605 21.2699 249.397 21.9815 251.756 23.369L252.77 21.6452C250.057 20.0498 246.904 19.2699 243.346 19.2699V21.2699ZM251.756 23.369C254.117 24.7581 255.959 26.7423 257.284 29.3518L259.067 28.4465C257.579 25.5162 255.479 23.239 252.77 21.6452L251.756 23.369ZM257.285 29.3546C258.604 31.9329 259.285 35.0507 259.285 38.7429H261.285C261.285 34.8072 260.559 31.3626 259.065 28.4437L257.285 29.3546ZM259.285 38.7429V70H261.285V38.7429H259.285ZM260.285 69H246.67V71H260.285V69ZM247.67 70V41.1719H245.67V70H247.67ZM247.67 41.179C247.692 38.002 246.879 35.3839 245.103 33.462L243.634 34.8193C244.969 36.2638 245.69 38.3333 245.67 41.1648L247.67 41.179ZM245.107 33.4666C243.328 31.5165 240.897 30.5838 237.944 30.5838V32.5838C240.446 32.5838 242.298 33.3557 243.63 34.8147L245.107 33.4666ZM237.944 30.5838C235.965 30.5838 234.173 31.0111 232.597 31.8941L233.575 33.6386C234.813 32.9449 236.26 32.5838 237.944 32.5838V30.5838ZM232.592 31.8973C231.028 32.7875 229.81 34.0852 228.94 35.7559L230.713 36.6802C231.419 35.3253 232.375 34.3219 233.581 33.6354L232.592 31.8973ZM228.937 35.7607C228.083 37.4216 227.667 39.3833 227.644 41.6092L229.644 41.6294C229.664 39.6366 230.036 37.9974 230.716 36.6754L228.937 35.7607ZM280.316 67.7947L279.806 68.6554L279.812 68.6589L280.316 67.7947ZM271.974 58.9098L271.085 59.3669L271.086 59.369L271.974 58.9098ZM271.974 32.3509L272.862 32.81L272.863 32.808L271.974 32.3509ZM280.316 23.4659L280.821 24.3288L280.823 24.3278L280.316 23.4659ZM306.044 23.4659L305.534 24.3265L305.54 24.3301L306.044 23.4659ZM314.417 32.3509L313.528 32.808L313.529 32.81L314.417 32.3509ZM314.417 58.9098L315.306 59.369L315.307 59.3669L314.417 58.9098ZM306.044 67.7947L306.549 68.6576L306.551 68.6567L306.044 67.7947ZM298.917 58.4943L299.562 59.2581L299.568 59.2528L298.917 58.4943ZM302.336 53.1889L301.393 52.8566L301.39 52.8646L302.336 53.1889ZM302.336 37.9119L301.39 38.2363L301.393 38.2443L302.336 37.9119ZM287.507 32.6065L286.866 31.8392L286.86 31.8435L287.507 32.6065ZM284.023 37.9119L283.08 37.5796L283.077 37.5876L284.023 37.9119ZM284.023 53.1889L283.077 53.5133L283.08 53.5213L284.023 53.1889ZM287.507 58.4943L286.86 59.2573L286.866 59.2621L286.872 59.2669L287.507 58.4943ZM293.196 69.9588C288.375 69.9588 284.262 68.9358 280.819 66.9306L279.812 68.6589C283.613 70.8724 288.087 71.9588 293.196 71.9588V69.9588ZM280.825 66.9341C277.389 64.9011 274.738 62.0801 272.862 58.4506L271.086 59.369C273.13 63.3247 276.041 66.4271 279.806 68.6554L280.825 66.9341ZM272.863 58.4527C270.988 54.8027 270.034 50.5431 270.034 45.6463H268.034C268.034 50.8063 269.04 55.3891 271.085 59.3669L272.863 58.4527ZM270.034 45.6463C270.034 40.7052 270.988 36.4363 272.862 32.81L271.086 31.8917C269.04 35.8506 268.034 40.4454 268.034 45.6463H270.034ZM272.863 32.808C274.739 29.1581 277.389 26.3394 280.821 24.3288L279.81 22.6031C276.041 24.8112 273.129 27.9158 271.085 31.8937L272.863 32.808ZM280.823 24.3278C284.265 22.3028 288.377 21.2699 293.196 21.2699V19.2699C288.085 19.2699 283.61 20.3677 279.809 22.604L280.823 24.3278ZM293.196 21.2699C298.015 21.2699 302.114 22.3028 305.534 24.3265L306.553 22.6053C302.771 20.3676 298.306 19.2699 293.196 19.2699V21.2699ZM305.54 24.3301C308.994 26.3411 311.653 29.1597 313.528 32.808L315.307 31.8937C313.261 27.9142 310.338 24.8095 306.547 22.6018L305.54 24.3301ZM313.529 32.81C315.403 36.4363 316.358 40.7052 316.358 45.6463H318.358C318.358 40.4454 317.352 35.8506 315.306 31.8917L313.529 32.81ZM316.358 45.6463C316.358 50.5431 315.404 54.8027 313.528 58.4527L315.307 59.3669C317.351 55.3891 318.358 50.8063 318.358 45.6463H316.358ZM313.529 58.4506C311.654 62.0786 308.994 64.8993 305.537 66.9328L306.551 68.6567C310.338 66.4288 313.26 63.3263 315.306 59.369L313.529 58.4506ZM305.538 66.9319C302.117 68.9358 298.016 69.9588 293.196 69.9588V71.9588C298.304 71.9588 302.768 70.8725 306.549 68.6576L305.538 66.9319ZM293.26 61.4119C295.719 61.4119 297.844 60.7103 299.562 59.2581L298.271 57.7305C296.964 58.8351 295.317 59.4119 293.26 59.4119V61.4119ZM299.568 59.2528C301.239 57.8172 302.468 55.8873 303.282 53.5132L301.39 52.8646C300.67 54.965 299.62 56.572 298.265 57.7358L299.568 59.2528ZM303.279 53.5213C304.112 51.1581 304.519 48.4964 304.519 45.5504H302.519C302.519 48.3147 302.137 50.7454 301.393 52.8566L303.279 53.5213ZM304.519 45.5504C304.519 42.6045 304.112 39.9428 303.279 37.5796L301.393 38.2443C302.137 40.3555 302.519 42.7861 302.519 45.5504H304.519ZM303.282 37.5876C302.468 35.2135 301.239 33.2836 299.568 31.848L298.265 33.365C299.62 34.5289 300.67 36.1359 301.39 38.2363L303.282 37.5876ZM299.568 31.848C297.85 30.3718 295.723 29.657 293.26 29.657V31.657C295.313 31.657 296.957 32.2418 298.265 33.365L299.568 31.848ZM293.26 29.657C290.776 29.657 288.623 30.3704 286.866 31.8392L288.148 33.3739C289.501 32.2433 291.183 31.657 293.26 31.657V29.657ZM286.86 31.8435C285.168 33.2771 283.917 35.2053 283.08 37.5796L284.966 38.2443C285.706 36.1441 286.777 34.5354 288.153 33.3695L286.86 31.8435ZM283.077 37.5876C282.268 39.9483 281.873 42.6071 281.873 45.5504H283.873C283.873 42.7835 284.244 40.35 284.969 38.2363L283.077 37.5876ZM281.873 45.5504C281.873 48.4937 282.268 51.1526 283.077 53.5132L284.969 52.8646C284.244 50.7508 283.873 48.3173 283.873 45.5504H281.873ZM283.08 53.5213C283.917 55.8955 285.168 57.8238 286.86 59.2573L288.153 57.7313C286.777 56.5654 285.706 54.9568 284.966 52.8566L283.08 53.5213ZM286.872 59.2669C288.63 60.7117 290.781 61.4119 293.26 61.4119V59.4119C291.179 59.4119 289.495 58.8338 288.142 57.7218L286.872 59.2669ZM326.211 70H325.211V71H326.211V70ZM326.211 20.9091V19.9091H325.211V20.9091H326.211ZM339.186 20.9091H340.186V19.9091H339.186V20.9091ZM339.186 29.5703H338.186V30.5703H339.186V29.5703ZM339.762 29.5703V30.5703H340.467L340.704 29.9053L339.762 29.5703ZM344.875 22.7628L344.304 21.9422V21.9422L344.875 22.7628ZM362.038 22.7947L361.458 23.6095L361.463 23.6129L362.038 22.7947ZM366.768 29.5703L365.804 29.8365L366.007 30.5703H366.768V29.5703ZM367.279 29.5703V30.5703H367.985L368.222 29.9057L367.279 29.5703ZM372.713 22.8267L373.253 23.6681L373.255 23.667L372.713 22.8267ZM393.231 24.6484L392.516 25.3477L392.521 25.3529L393.231 24.6484ZM397.546 70V71H398.546V70H397.546ZM383.963 70H382.963V71H383.963V70ZM381.789 33.5334L381.104 34.2616V34.2616L381.789 33.5334ZM370.571 33.853L371.318 34.518L371.323 34.5129L370.571 33.853ZM368.494 70V71H369.494V70H368.494ZM355.294 70H354.294V71H355.294V70ZM353.217 33.6293L352.494 34.32L352.499 34.3256L353.217 33.6293ZM343.725 32.6385L344.255 33.4865L344.259 33.484L343.725 32.6385ZM340.88 35.8026L341.766 36.2666L341.769 36.2608L340.88 35.8026ZM339.826 70V71H340.826V70H339.826ZM327.211 70V20.9091H325.211V70H327.211ZM326.211 21.9091H339.186V19.9091H326.211V21.9091ZM338.186 20.9091V29.5703H340.186V20.9091H338.186ZM339.186 30.5703H339.762V28.5703H339.186V30.5703ZM340.704 29.9053C341.66 27.2151 343.241 25.1199 345.447 23.5834L344.304 21.9422C341.737 23.7295 339.908 26.1727 338.82 29.2353L340.704 29.9053ZM345.447 23.5834C347.642 22.0544 350.291 21.2699 353.441 21.2699V19.2699C349.943 19.2699 346.881 20.1473 344.304 21.9422L345.447 23.5834ZM353.441 21.2699C356.634 21.2699 359.288 22.0652 361.458 23.6095L362.618 21.98C360.058 20.1578 356.981 19.2699 353.441 19.2699V21.2699ZM361.463 23.6129C363.633 25.138 365.076 27.1989 365.804 29.8365L367.732 29.3042C366.884 26.2315 365.173 23.7754 362.613 21.9765L361.463 23.6129ZM366.768 30.5703H367.279V28.5703H366.768V30.5703ZM368.222 29.9057C369.145 27.3112 370.81 25.2373 373.253 23.6681L372.172 21.9853C369.374 23.7826 367.416 26.2044 366.337 29.2349L368.222 29.9057ZM373.255 23.667C375.713 22.0812 378.64 21.2699 382.077 21.2699V19.2699C378.313 19.2699 374.997 20.1631 372.171 21.9864L373.255 23.667ZM382.077 21.2699C386.425 21.2699 389.873 22.6453 392.516 25.3477L393.946 23.9492C390.879 20.8136 386.891 19.2699 382.077 19.2699V21.2699ZM392.521 25.3529C395.16 28.0114 396.546 31.8387 396.546 36.9851H398.546C398.546 31.478 397.055 27.081 393.941 23.9439L392.521 25.3529ZM396.546 36.9851V70H398.546V36.9851H396.546ZM397.546 69H383.963V71H397.546V69ZM384.963 70V39.6697H382.963V70H384.963ZM384.963 39.6697C384.963 36.7723 384.19 34.4197 382.475 32.8052L381.104 34.2616C382.286 35.3744 382.963 37.1126 382.963 39.6697H384.963ZM382.475 32.8052C380.823 31.2501 378.759 30.4879 376.356 30.4879V32.4879C378.3 32.4879 379.859 33.0893 381.104 34.2616L382.475 32.8052ZM376.356 30.4879C373.653 30.4879 371.429 31.3612 369.82 33.193L371.323 34.5129C372.484 33.1913 374.116 32.4879 376.356 32.4879V30.4879ZM369.825 33.188C368.242 34.9658 367.494 37.2776 367.494 40.0213H369.494C369.494 37.6514 370.131 35.8509 371.318 34.518L369.825 33.188ZM367.494 40.0213V70H369.494V40.0213H367.494ZM368.494 69H355.294V71H368.494V69ZM356.294 70V39.3821H354.294V70H356.294ZM356.294 39.3821C356.294 36.7726 355.537 34.585 353.935 32.9329L352.499 34.3256C353.666 35.5286 354.294 37.1763 354.294 39.3821H356.294ZM353.94 32.9385C352.362 31.2863 350.286 30.4879 347.816 30.4879V32.4879C349.82 32.4879 351.345 33.1171 352.494 34.32L353.94 32.9385ZM347.816 30.4879C346.124 30.4879 344.574 30.9195 343.191 31.793L344.259 33.484C345.305 32.8234 346.481 32.4879 347.816 32.4879V30.4879ZM343.195 31.7905C341.836 32.64 340.769 33.8357 339.992 35.3443L341.769 36.2608C342.398 35.0421 343.228 34.1284 344.255 33.4865L343.195 31.7905ZM339.995 35.3385C339.203 36.8495 338.826 38.5913 338.826 40.5327H340.826C340.826 38.8518 341.151 37.4403 341.766 36.2666L339.995 35.3385ZM338.826 40.5327V70H340.826V40.5327H338.826ZM339.826 69H326.211V71H339.826V69ZM408.3 70H407.3V71H408.3V70ZM408.3 20.9091V19.9091H407.3V20.9091H408.3ZM421.915 20.9091H422.915V19.9091H421.915V20.9091ZM421.915 70V71H422.915V70H421.915ZM409.93 12.5675L409.24 13.2906L409.245 13.2958L409.251 13.301L409.93 12.5675ZM409.93 2.85156L410.615 3.58008L410.616 3.57976L409.93 2.85156ZM420.317 2.85156L419.627 3.57467L419.632 3.57994L419.638 3.58512L420.317 2.85156ZM420.317 12.5675L421.003 13.296L421.003 13.2957L420.317 12.5675ZM409.3 70V20.9091H407.3V70H409.3ZM408.3 21.9091H421.915V19.9091H408.3V21.9091ZM420.915 20.9091V70H422.915V20.9091H420.915ZM421.915 69H408.3V71H421.915V69ZM415.14 13.581C413.361 13.581 411.869 13.0003 410.61 11.8339L409.251 13.301C410.89 14.8193 412.871 15.581 415.14 15.581V13.581ZM410.621 11.8444C409.382 10.6607 408.789 9.28835 408.789 7.67755H406.789C406.789 9.85938 407.624 11.747 409.24 13.2906L410.621 11.8444ZM408.789 7.67755C408.789 6.09214 409.379 4.743 410.615 3.58008L409.245 2.12304C407.627 3.64478 406.789 5.51297 406.789 7.67755H408.789ZM410.616 3.57976C411.876 2.39405 413.366 1.8061 415.14 1.8061V-0.193895C412.866 -0.193895 410.883 0.581802 409.245 2.12336L410.616 3.57976ZM415.14 1.8061C416.914 1.8061 418.39 2.39369 419.627 3.57467L421.008 2.12845C419.389 0.582155 417.414 -0.193895 415.14 -0.193895V1.8061ZM419.638 3.58512C420.895 4.74958 421.491 6.09732 421.491 7.67755H423.491C423.491 5.50779 422.638 3.6382 420.997 2.118L419.638 3.58512ZM421.491 7.67755C421.491 9.28324 420.891 10.6542 419.632 11.8393L421.003 13.2957C422.641 11.7535 423.491 9.86448 423.491 7.67755H421.491ZM419.632 11.8389C418.397 13.0006 416.919 13.581 415.14 13.581V15.581C417.409 15.581 419.383 14.819 421.003 13.296L419.632 11.8389ZM442.026 67.7628L441.513 68.6212L441.519 68.6247L442.026 67.7628ZM433.717 58.8139L432.823 59.2631L432.825 59.2671L433.717 58.8139ZM433.749 32.4148L432.859 31.9576L432.858 31.9596L433.749 32.4148ZM442.09 23.4979L442.6 24.3585L442.603 24.3563L442.09 23.4979ZM466.188 22.603L466.624 21.7027V21.7027L466.188 22.603ZM476.927 39.0625V40.0625H477.979L477.926 39.012L476.927 39.0625ZM464.079 39.0625L463.09 39.2087L463.216 40.0625H464.079V39.0625ZM461.203 33.1499L460.5 33.862L460.51 33.8716L461.203 33.1499ZM449.633 32.6065L450.22 33.4158L450.222 33.4143L449.633 32.6065ZM445.958 53.4446L445.025 53.8066L445.028 53.8144L445.958 53.4446ZM449.633 58.4624L450.222 57.6546L449.633 58.4624ZM459.349 59.2294L458.896 58.338L458.889 58.3412L459.349 59.2294ZM462.449 56.4489L461.619 55.8909L461.617 55.8942L462.449 56.4489ZM464.079 52.0064V51.0064H463.216L463.09 51.8598L464.079 52.0064ZM476.927 52.0064L477.925 52.0631L477.985 51.0064H476.927V52.0064ZM473.859 61.9141L473.017 61.3739L473.016 61.3755L473.859 61.9141ZM466.348 68.5618L465.901 67.6674L466.348 68.5618ZM455.002 69.9588C450.117 69.9588 445.974 68.9248 442.533 66.9008L441.519 68.6247C445.323 70.8621 449.831 71.9588 455.002 71.9588V69.9588ZM442.539 66.9044C439.104 64.8511 436.464 62.0102 434.608 58.3607L432.825 59.2671C434.848 63.2455 437.747 66.3705 441.513 68.6212L442.539 66.9044ZM434.61 58.3647C432.773 54.7112 431.84 50.4802 431.84 45.6463H429.84C429.84 50.7414 430.825 55.2888 432.823 59.2631L434.61 58.3647ZM431.84 45.6463C431.84 40.7477 432.784 36.4983 434.639 32.87L432.858 31.9596C430.835 35.9164 429.84 40.4881 429.84 45.6463H431.84ZM434.638 32.8719C436.514 29.2212 439.165 26.3907 442.6 24.3585L441.581 22.6372C437.814 24.8664 434.903 27.9805 432.859 31.9576L434.638 32.8719ZM442.603 24.3563C446.023 22.3127 450.121 21.2699 454.938 21.2699V19.2699C449.827 19.2699 445.36 20.3791 441.577 22.6395L442.603 24.3563ZM454.938 21.2699C459.1 21.2699 462.696 22.0253 465.753 23.5033L466.624 21.7027C463.246 20.0699 459.342 19.2699 454.938 19.2699V21.2699ZM465.753 23.5033C468.819 24.9856 471.225 27.0542 472.995 29.7095L474.659 28.6001C472.679 25.6305 469.992 23.3312 466.624 21.7027L465.753 23.5033ZM472.995 29.7095C474.758 32.3542 475.744 35.4776 475.928 39.113L477.926 39.012C477.726 35.0621 476.646 31.5805 474.659 28.6001L472.995 29.7095ZM476.927 38.0625H464.079V40.0625H476.927V38.0625ZM465.068 38.9163C464.679 36.2808 463.634 34.0955 461.895 32.4281L460.51 33.8716C461.882 35.1871 462.755 36.9436 463.09 39.2087L465.068 38.9163ZM461.905 32.4378C460.154 30.7114 457.873 29.8807 455.162 29.8807V31.8807C457.437 31.8807 459.183 32.5627 460.5 33.8619L461.905 32.4378ZM455.162 29.8807C452.859 29.8807 450.805 30.513 449.044 31.7987L450.222 33.4143C451.614 32.3989 453.247 31.8807 455.162 31.8807V29.8807ZM449.045 31.7973C447.308 33.0591 445.99 34.8779 445.062 37.1874L446.917 37.9333C447.736 35.8963 448.848 34.4125 450.22 33.4157L449.045 31.7973ZM445.062 37.1874C444.128 39.5105 443.679 42.2759 443.679 45.4545H445.679C445.679 42.4542 446.104 39.9568 446.917 37.9333L445.062 37.1874ZM443.679 45.4545C443.679 48.6719 444.116 51.4654 445.025 53.8066L446.89 53.0826C446.094 51.0346 445.679 48.5014 445.679 45.4545H443.679ZM445.028 53.8144C445.957 56.1471 447.285 57.9872 449.044 59.2701L450.222 57.6546C448.827 56.6364 447.705 55.1313 446.887 53.0748L445.028 53.8144ZM449.044 59.2701C450.805 60.5559 452.859 61.1882 455.162 61.1882V59.1882C453.247 59.1882 451.614 58.67 450.222 57.6546L449.044 59.2701ZM455.162 61.1882C456.858 61.1882 458.414 60.8386 459.808 60.1176L458.889 58.3412C457.812 58.8986 456.577 59.1882 455.162 59.1882V61.1882ZM459.802 60.1208C461.218 59.401 462.38 58.3557 463.281 57.0036L461.617 55.8942C460.899 56.971 459.994 57.7794 458.896 58.338L459.802 60.1208ZM463.279 57.0069C464.206 55.628 464.794 54.001 465.068 52.1529L463.09 51.8598C462.852 53.4635 462.354 54.7981 461.619 55.8909L463.279 57.0069ZM464.079 53.0064H476.927V51.0064H464.079V53.0064ZM475.929 51.9497C475.724 55.5466 474.747 58.6789 473.017 61.3739L474.7 62.4542C476.636 59.439 477.704 55.9662 477.925 52.0631L475.929 51.9497ZM473.016 61.3755C471.309 64.0476 468.946 66.1449 465.901 67.6674L466.795 69.4562C470.142 67.7827 472.787 65.4481 474.701 62.4526L473.016 61.3755ZM465.901 67.6674C462.871 69.1822 459.249 69.9588 455.002 69.9588V71.9588C459.491 71.9588 463.433 71.1374 466.795 69.4562L465.901 67.6674ZM526.489 34.9077L526.551 35.9058L527.621 35.8399L527.481 34.7767L526.489 34.9077ZM514.025 35.6747L513.044 35.8708L513.215 36.7264L514.086 36.6728L514.025 35.6747ZM512.651 32.7983L511.872 33.4254L511.879 33.4347L512.651 32.7983ZM509.87 30.7209L509.443 31.6253L509.454 31.6301L509.464 31.6347L509.87 30.7209ZM500.474 31.2642L500.99 32.1206L500.999 32.115L500.474 31.2642ZM499.707 37.7521L499.053 38.509V38.509L499.707 37.7521ZM504.533 39.7017L504.323 40.6795L504.335 40.682L504.533 39.7017ZM513.418 41.4915L513.619 40.5119L513.615 40.5112L513.418 41.4915ZM524.092 46.2216L523.412 46.9549V46.9549L524.092 46.2216ZM524.763 63.2564L523.975 62.641L523.972 62.6453L524.763 63.2564ZM517.029 68.9453L517.41 69.87L517.413 69.8687L517.029 68.9453ZM490.214 66.8999L489.635 67.7148L489.64 67.7185L490.214 66.8999ZM483.471 55.7777L483.418 54.7791L482.328 54.8363L482.481 55.9172L483.471 55.7777ZM496.862 55.0746L497.842 54.8744L497.67 54.0308L496.81 54.0759L496.862 55.0746ZM499.803 59.6129L499.245 60.4433L499.253 60.4485L499.803 59.6129ZM511.532 59.7727L512.066 60.6179L512.07 60.6159L511.532 59.7727ZM513.769 56.1612L514.769 56.1757L514.769 56.1598L514.769 56.144L513.769 56.1612ZM512.203 53.125L511.582 53.9091L511.593 53.917L512.203 53.125ZM507.473 51.2713L507.669 50.2907L507.668 50.2906L507.473 51.2713ZM498.972 49.5774L498.775 50.558L498.776 50.5581L498.972 49.5774ZM488.265 44.5916L487.551 45.2923L487.555 45.2955L488.265 44.5916ZM487.338 27.397L486.541 26.7934L486.537 26.7982L487.338 27.397ZM494.593 22.1236L494.226 21.1934L494.224 21.1942L494.593 22.1236ZM520.225 24.201L519.632 25.0062L519.634 25.0079L520.225 24.201ZM526.428 33.9096L513.963 34.6766L514.086 36.6728L526.551 35.9058L526.428 33.9096ZM515.005 35.4786C514.759 34.2487 514.228 33.1392 513.422 32.1619L511.879 33.4347C512.479 34.1619 512.864 34.9701 513.044 35.8708L515.005 35.4786ZM513.43 32.1713C512.615 31.1593 511.554 30.375 510.276 29.8071L509.464 31.6347C510.487 32.0895 511.28 32.6901 511.872 33.4253L513.43 32.1713ZM510.297 29.8164C509.004 29.2066 507.498 28.9219 505.811 28.9219V30.9219C507.278 30.9219 508.478 31.1699 509.443 31.6253L510.297 29.8164ZM505.811 28.9219C503.56 28.9219 501.589 29.4001 499.948 30.4134L500.999 32.115C502.256 31.3385 503.843 30.9219 505.811 30.9219V28.9219ZM499.957 30.4078C498.262 31.43 497.3 32.9007 497.3 34.7798H499.3C499.3 33.7186 499.788 32.8456 500.99 32.1206L499.957 30.4078ZM497.3 34.7798C497.3 36.2607 497.91 37.5217 499.053 38.509L500.36 36.9953C499.628 36.3633 499.3 35.6427 499.3 34.7798H497.3ZM499.053 38.509C500.186 39.4877 502 40.1801 504.323 40.6794L504.743 38.724C502.506 38.2432 501.102 37.6359 500.36 36.9953L499.053 38.509ZM504.335 40.682L513.22 42.4718L513.615 40.5112L504.73 38.7214L504.335 40.682ZM513.216 42.471C517.897 43.4322 521.255 44.9548 523.412 46.9549L524.772 45.4883C522.242 43.1418 518.484 41.511 513.619 40.5119L513.216 42.471ZM523.412 46.9549C525.529 48.9176 526.608 51.4954 526.608 54.7869H528.608C528.608 51.0046 527.343 47.8721 524.772 45.4883L523.412 46.9549ZM526.608 54.7869C526.608 57.7918 525.728 60.396 523.975 62.641L525.552 63.8718C527.592 61.2589 528.608 58.2167 528.608 54.7869H526.608ZM523.972 62.6453C522.219 64.916 519.792 66.7144 516.645 68.0219L517.413 69.8687C520.829 68.4489 523.558 66.4548 525.555 63.8674L523.972 62.6453ZM516.648 68.0206C513.532 69.304 509.905 69.9588 505.747 69.9588V71.9588C510.113 71.9588 514.007 71.2713 517.41 69.87L516.648 68.0206ZM505.747 69.9588C499.378 69.9588 494.424 68.632 490.789 66.0813L489.64 67.7185C493.718 70.5797 499.119 71.9588 505.747 71.9588V69.9588ZM490.794 66.0849C487.184 63.5179 485.084 60.0555 484.461 55.6382L482.481 55.9172C483.179 60.8749 485.574 64.8273 489.635 67.7148L490.794 66.0849ZM483.523 56.7763L496.915 56.0732L496.81 54.0759L483.418 54.7791L483.523 56.7763ZM495.882 55.2747C496.335 57.4911 497.453 59.2404 499.245 60.4432L500.36 58.7826C499.041 57.8974 498.199 56.6211 497.842 54.8744L495.882 55.2747ZM499.253 60.4485C501.015 61.6067 503.214 62.147 505.779 62.147V60.147C503.487 60.147 501.701 59.6646 500.352 58.7774L499.253 60.4485ZM505.779 62.147C508.283 62.147 510.407 61.6675 512.066 60.6179L510.997 58.9275C509.76 59.7103 508.047 60.147 505.779 60.147V62.147ZM512.07 60.6159C513.763 59.5364 514.742 58.0487 514.769 56.1757L512.769 56.1467C512.754 57.2141 512.242 58.1341 510.994 58.9296L512.07 60.6159ZM514.769 56.144C514.742 54.5888 514.065 53.2974 512.814 52.333L511.593 53.917C512.387 54.5293 512.754 55.2621 512.769 56.1785L514.769 56.144ZM512.824 52.341C511.621 51.3884 509.864 50.7297 507.669 50.2907L507.277 52.2519C509.343 52.6652 510.74 53.2422 511.582 53.909L512.824 52.341ZM507.668 50.2906L499.167 48.5967L498.776 50.5581L507.278 52.252L507.668 50.2906ZM499.168 48.5968C494.482 47.6597 491.128 46.0596 488.975 43.8877L487.555 45.2955C490.09 47.8537 493.873 49.5775 498.775 50.558L499.168 48.5968ZM488.978 43.891C486.86 41.7334 485.781 38.9799 485.781 35.5469H483.781C483.781 39.4434 485.025 42.7197 487.551 45.2923L488.978 43.891ZM485.781 35.5469C485.781 32.5848 486.578 30.0841 488.139 27.9958L486.537 26.7982C484.689 29.2696 483.781 32.2021 483.781 35.5469H485.781ZM488.135 28.0006C489.733 25.8897 491.992 24.2329 494.962 23.0529L494.224 21.1942C490.973 22.4858 488.395 24.3447 486.541 26.7934L488.135 28.0006ZM494.96 23.0538C497.95 21.8739 501.486 21.2699 505.587 21.2699V19.2699C501.294 19.2699 497.5 19.9016 494.226 21.1934L494.96 23.0538ZM505.587 21.2699C511.658 21.2699 516.303 22.5539 519.632 25.0062L520.818 23.3958C517.031 20.6066 511.917 19.2699 505.587 19.2699V21.2699ZM519.634 25.0079C522.987 27.4625 524.936 30.7839 525.498 35.0386L527.481 34.7767C526.849 29.9974 524.622 26.1809 520.816 23.3941L519.634 25.0079Z" fill="url(#paint0_linear_90_2765)"/>
<defs>
<linearGradient id="paint0_linear_90_2765" x1="-100.215" y1="55" x2="162.317" y2="-267.405" gradientUnits="userSpaceOnUse">
<stop offset="0.6896" stop-color="#F42D32"/>
<stop offset="1" stop-color="#FCCB4C"/>
</linearGradient>
</defs>
</svg>
