<svg width="284" height="404" viewBox="0 0 284 404" fill="none" xmlns="http://www.w3.org/2000/svg">
<path d="M7.07837 29.7395L7.07843 29.7378C7.4849 19.7634 13.846 11.5416 22.2804 9.78477L22.2813 9.78458C106.491 -7.83714 221.617 5.55616 261.939 11.2593L261.941 11.2597C270.307 12.4222 277.036 19.9108 278.147 29.659L278.147 29.6598C288.364 118.649 279.764 314.748 276.7 376.296C276.165 386.856 268.997 395.253 259.986 396.321C151.932 409.125 56.4132 400.328 21.2864 396.094C12.7967 395.074 5.91955 387.541 4.76496 377.694C0.525431 341.314 0.43918 269.913 1.74854 199.761C3.05739 129.636 5.75835 60.8462 7.07837 29.7395Z" fill="white" stroke="url(#paint0_linear_0_519)" stroke-width="2"/>
<defs>
<linearGradient id="paint0_linear_0_519" x1="83.8026" y1="663.373" x2="459.145" y2="542.109" gradientUnits="userSpaceOnUse">
<stop offset="0.0729167" stop-color="#F42D32" stop-opacity="0"/>
<stop offset="0.963542" stop-color="#FCCB4C"/>
</linearGradient>
</defs>
</svg>
