<svg width="607" height="86" viewBox="0 0 607 86" fill="none" xmlns="http://www.w3.org/2000/svg">
<path opacity="0.3" d="M24.5491 84L23.5877 84.2751L23.7951 85H24.5491V84ZM0.618031 0.363634V-0.636366H-0.708233L-0.343387 0.638727L0.618031 0.363634ZM19.9344 0.363634L20.9072 0.131889L20.7242 -0.636366H19.9344V0.363634ZM33.7785 58.4762L32.8058 58.708L32.9888 59.4762H33.7785V58.4762ZM34.4728 58.4762V59.4762H35.2439L35.4399 58.7304L34.4728 58.4762ZM49.7462 0.363634V-0.636366H48.9751L48.7791 0.109442L49.7462 0.363634ZM66.2856 0.363634L67.2531 0.110577L67.0577 -0.636366H66.2856V0.363634ZM81.5182 58.5987L80.5508 58.8518L80.7462 59.5987H81.5182V58.5987ZM82.2533 58.5987V59.5987H83.0435L83.2262 58.83L82.2533 58.5987ZM96.0974 0.363634V-0.636366H95.3073L95.1245 0.132351L96.0974 0.363634ZM115.414 0.363634L116.375 0.638727L116.74 -0.636366H115.414V0.363634ZM91.4827 84V85H92.2367L92.4442 84.2751L91.4827 84ZM74.2491 84L73.289 84.2796L73.4988 85H74.2491V84ZM58.3222 29.3178L59.2823 29.0382L59.0725 28.3178H58.3222V29.3178ZM57.6688 29.3178V28.3178H56.918L56.7085 29.0388L57.6688 29.3178ZM41.7828 84V85H42.5336L42.7431 84.279L41.7828 84ZM25.5106 83.7249L1.57945 0.088541L-0.343387 0.638727L23.5877 84.2751L25.5106 83.7249ZM0.618031 1.36363H19.9344V-0.636366H0.618031V1.36363ZM18.9617 0.595377L32.8058 58.708L34.7513 58.2445L20.9072 0.131889L18.9617 0.595377ZM33.7785 59.4762H34.4728V57.4762H33.7785V59.4762ZM35.4399 58.7304L50.7134 0.617826L48.7791 0.109442L33.5056 58.222L35.4399 58.7304ZM49.7462 1.36363H66.2856V-0.636366H49.7462V1.36363ZM65.3182 0.616692L80.5508 58.8518L82.4857 58.3457L67.2531 0.110577L65.3182 0.616692ZM81.5182 59.5987H82.2533V57.5987H81.5182V59.5987ZM83.2262 58.83L97.0703 0.594915L95.1245 0.132351L81.2804 58.3674L83.2262 58.83ZM96.0974 1.36363H115.414V-0.636366H96.0974V1.36363ZM114.452 0.088541L90.5213 83.7249L92.4442 84.2751L116.375 0.638727L114.452 0.088541ZM91.4827 83H74.2491V85H91.4827V83ZM75.2092 83.7204L59.2823 29.0382L57.3621 29.5975L73.289 84.2796L75.2092 83.7204ZM58.3222 28.3178H57.6688V30.3178H58.3222V28.3178ZM56.7085 29.0388L40.8225 83.721L42.7431 84.279L58.6291 29.5968L56.7085 29.0388ZM41.7828 83H24.5491V85H41.7828V83ZM130.871 84V85H131.597L131.822 84.3094L130.871 84ZM111.922 84L110.977 83.6737L110.519 85H111.922V84ZM140.795 0.363634V-0.636366H140.082L139.849 0.0373154L140.795 0.363634ZM163.582 0.363634L164.528 0.0377293L164.295 -0.636366H163.582V0.363634ZM192.414 84V85H193.816L193.359 83.6741L192.414 84ZM173.465 84L172.514 84.3088L172.738 85H173.465V84ZM152.515 19.4759L153.466 19.167L153.242 18.4759H152.515V19.4759ZM151.862 19.4759V18.4759H151.136L150.911 19.1665L151.862 19.4759ZM129.687 51.1254V50.1254H128.687V51.1254H129.687ZM174.445 51.1254H175.445V50.1254H174.445V51.1254ZM174.445 64.9286V65.9286H175.445V64.9286H174.445ZM129.687 64.9286H128.687V65.9286H129.687V64.9286ZM130.871 83H111.922V85H130.871V83ZM112.867 84.3263L141.74 0.689951L139.849 0.0373154L110.977 83.6737L112.867 84.3263ZM140.795 1.36363H163.582V-0.636366H140.795V1.36363ZM162.637 0.689539L191.469 84.3259L193.359 83.6741L164.528 0.0377293L162.637 0.689539ZM192.414 83H173.465V85H192.414V83ZM174.416 83.6912L153.466 19.167L151.564 19.7847L172.514 84.3088L174.416 83.6912ZM152.515 18.4759H151.862V20.4759H152.515V18.4759ZM150.911 19.1665L129.92 83.6906L131.822 84.3094L152.813 19.7852L150.911 19.1665ZM129.687 52.1254H174.445V50.1254H129.687V52.1254ZM173.445 51.1254V64.9286H175.445V51.1254H173.445ZM174.445 63.9286H129.687V65.9286H174.445V63.9286ZM130.687 64.9286V51.1254H128.687V64.9286H130.687ZM202.481 84H201.481V85H202.481V84ZM202.481 0.363634V-0.636366H201.481V0.363634H202.481ZM254.1 5.38672L253.617 6.26236L253.62 6.26401L254.1 5.38672ZM268.107 19.7209L267.222 20.185L267.223 20.1881L268.107 19.7209ZM268.107 64.5611L267.222 64.0955L267.221 64.0985L268.107 64.5611ZM254.018 78.9769L253.539 78.0995L253.537 78.1004L254.018 78.9769ZM220.163 68.8491H219.163V69.8491H220.163V68.8491ZM244.585 66.0721L245.045 66.9596L245.048 66.9583L244.585 66.0721ZM252.671 57.3736L251.763 56.9541L251.762 56.9569L252.671 57.3736ZM252.671 26.9492L251.762 27.3659L251.764 27.3711L252.671 26.9492ZM244.625 18.2915L245.086 17.404V17.404L244.625 18.2915ZM220.163 15.5146V14.5146H219.163V15.5146H220.163ZM232.129 83H202.481V85H232.129V83ZM203.481 84V0.363634H201.481V84H203.481ZM202.481 1.36363H232.374V-0.636366H202.481V1.36363ZM232.374 1.36363C240.654 1.36363 247.722 3.01091 253.617 6.26235L254.583 4.51108C248.335 1.06508 240.92 -0.636366 232.374 -0.636366V1.36363ZM253.62 6.26401C259.515 9.48912 264.044 14.122 267.222 20.185L268.993 19.2567C265.636 12.8506 260.827 7.9273 254.58 4.50942L253.62 6.26401ZM267.223 20.1881C270.426 26.2491 272.049 33.5409 272.049 42.1001H274.049C274.049 33.2896 272.378 25.6619 268.992 19.2537L267.223 20.1881ZM272.049 42.1001C272.049 50.687 270.426 58.0067 267.222 64.0955L268.992 65.0267C272.378 58.5918 274.049 50.9375 274.049 42.1001H272.049ZM267.221 64.0985C264.044 70.187 259.488 74.8469 253.539 78.0995L254.498 79.8544C260.799 76.4095 265.636 71.4588 268.994 65.0236L267.221 64.0985ZM253.537 78.1004C247.615 81.352 240.492 83 232.129 83V85C240.755 85 248.224 83.2992 254.5 79.8535L253.537 78.1004ZM220.163 69.8491H231.394V67.8491H220.163V69.8491ZM231.394 69.8491C236.735 69.8491 241.3 68.9037 245.045 66.9596L244.124 65.1845C240.736 66.9431 236.508 67.8491 231.394 67.8491V69.8491ZM245.048 66.9583C248.851 64.9702 251.697 61.8986 253.58 57.7902L251.762 56.9569C250.051 60.6894 247.506 63.4168 244.121 65.1859L245.048 66.9583ZM253.578 57.793C255.484 53.6697 256.407 48.4214 256.407 42.1001H254.407C254.407 48.2481 253.506 53.1821 251.763 56.9541L253.578 57.793ZM256.407 42.1001C256.407 35.8323 255.483 30.6241 253.577 26.5274L251.764 27.3711C253.506 31.1153 254.407 36.0077 254.407 42.1001H256.407ZM253.58 26.5326C251.697 22.4254 248.865 19.3657 245.086 17.404L244.165 19.1791C247.519 20.92 250.05 23.6321 251.762 27.3659L253.58 26.5326ZM245.086 17.404C241.341 15.4599 236.776 14.5146 231.435 14.5146V16.5146C236.548 16.5146 240.777 17.4205 244.165 19.1791L245.086 17.404ZM231.435 14.5146H220.163V16.5146H231.435V14.5146ZM219.163 15.5146V68.8491H221.163V15.5146H219.163ZM309.578 14.9428H308.578V15.9428H309.578V14.9428ZM309.578 0.363634V-0.636366H308.578V0.363634H309.578ZM378.268 0.363634H379.268V-0.636366H378.268V0.363634ZM378.268 14.9428V15.9428H379.268V14.9428H378.268ZM352.663 14.9428V13.9428H351.663V14.9428H352.663ZM352.663 84V85H353.663V84H352.663ZM335.184 84H334.184V85H335.184V84ZM335.184 14.9428H336.184V13.9428H335.184V14.9428ZM310.578 14.9428V0.363634H308.578V14.9428H310.578ZM309.578 1.36363H378.268V-0.636366H309.578V1.36363ZM377.268 0.363634V14.9428H379.268V0.363634H377.268ZM378.268 13.9428H352.663V15.9428H378.268V13.9428ZM351.663 14.9428V84H353.663V14.9428H351.663ZM352.663 83H335.184V85H352.663V83ZM336.184 84V14.9428H334.184V84H336.184ZM335.184 13.9428H309.578V15.9428H335.184V13.9428ZM392.082 81.3047L391.586 82.1733L391.592 82.1767L392.082 81.3047ZM381.382 70.1151L380.494 70.5742L380.495 70.5763L381.382 70.1151ZM381.382 35.9336L380.493 35.4765L381.382 35.9336ZM391.959 24.5398L391.448 23.6805L391.445 23.6818L391.959 24.5398ZM419.606 22.457L419.256 23.3937L419.265 23.3968L419.606 22.457ZM428.999 28.3786L428.296 29.0893L428.299 29.0928L428.999 28.3786ZM435.288 38.343L434.352 38.6935L434.352 38.6956L435.288 38.343ZM437.534 57.0877V58.0877H438.534V57.0877H437.534ZM384.567 57.0877H383.567V58.0877H384.567V57.0877ZM384.567 46.3065V45.3065H383.567V46.3065H384.567ZM421.158 46.3065V47.3065H422.158V46.3065H421.158ZM419.525 39.6499L418.653 40.1407V40.1407L419.525 39.6499ZM414.992 35.1168L414.486 35.9797L414.494 35.984L414.501 35.9881L414.992 35.1168ZM401.311 35.2802L401.822 36.1397L401.825 36.1377L401.311 35.2802ZM396.574 40.1399L397.443 40.6335L397.446 40.6285L396.574 40.1399ZM394.818 46.8782L393.818 46.8672V46.8782H394.818ZM396.533 65.1736L395.641 65.6252L395.645 65.6337L396.533 65.1736ZM414.338 71.4219L414.017 70.4748L414.338 71.4219ZM418.463 68.9716L417.773 68.2475L418.463 68.9716ZM421.077 64.9695L421.142 63.9716L420.404 63.9229L420.142 64.6148L421.077 64.9695ZM437.167 66.0312L438.145 66.238L438.384 65.1094L437.233 65.0334L437.167 66.0312ZM432.144 76.1591L431.392 75.4996L431.392 75.5001L432.144 76.1591ZM422.424 82.8565L422.796 83.785L422.799 83.7837L422.424 82.8565ZM408.743 84.2251C402.427 84.2251 397.049 82.9465 392.571 80.4327L391.592 82.1767C396.425 84.8901 402.155 86.2251 408.743 86.2251V84.2251ZM392.577 80.4361C388.119 77.8925 384.687 74.3056 382.269 69.6539L380.495 70.5763C383.086 75.5623 386.787 79.4352 391.586 82.1732L392.577 80.4361ZM382.27 69.6559C379.853 64.9788 378.625 59.4118 378.625 52.9222H376.625C376.625 59.6642 377.901 65.559 380.494 70.5742L382.27 69.6559ZM378.625 52.9222C378.625 46.6006 379.851 41.0996 382.271 36.3907L380.493 35.4765C377.903 40.5143 376.625 46.339 376.625 52.9222H378.625ZM382.271 36.3907C384.694 31.6775 388.092 28.021 392.473 25.3977L391.445 23.6818C386.733 26.5036 383.08 30.443 380.493 35.4765L382.271 36.3907ZM392.471 25.3991C396.867 22.7822 402.048 21.456 408.049 21.456V19.456C401.745 19.456 396.199 20.8523 391.448 23.6805L392.471 25.3991ZM408.049 21.456C412.078 21.456 415.811 22.105 419.256 23.3937L419.957 21.5204C416.269 20.141 412.297 19.456 408.049 19.456V21.456ZM419.265 23.3968C422.725 24.6552 425.732 26.5519 428.296 29.0893L429.703 27.6678C426.93 24.9235 423.675 22.8725 419.948 21.5172L419.265 23.3968ZM428.299 29.0928C430.877 31.6184 432.899 34.8103 434.352 38.6935L436.225 37.9926C434.683 33.8715 432.512 30.4204 429.699 27.6643L428.299 29.0928ZM434.352 38.6956C435.798 42.533 436.534 47.0643 436.534 52.3097H438.534C438.534 46.8827 437.773 42.1028 436.224 37.9905L434.352 38.6956ZM436.534 52.3097V57.0877H438.534V52.3097H436.534ZM437.534 56.0877H384.567V58.0877H437.534V56.0877ZM385.567 57.0877V46.3065H383.567V57.0877H385.567ZM384.567 47.3065H421.158V45.3065H384.567V47.3065ZM422.158 46.3065C422.158 43.6523 421.58 41.2603 420.396 39.159L418.653 40.1407C419.648 41.9054 420.158 43.9511 420.158 46.3065H422.158ZM420.396 39.159C419.217 37.0668 417.575 35.4243 415.483 34.2456L414.501 35.9881C416.275 36.9874 417.654 38.3669 418.653 40.1407L420.396 39.159ZM415.497 34.2539C413.417 33.0354 411.018 32.4425 408.335 32.4425V34.4425C410.716 34.4425 412.755 34.9657 414.486 35.9797L415.497 34.2539ZM408.335 32.4425C405.533 32.4425 403.01 33.0944 400.796 34.4227L401.825 36.1377C403.695 35.0157 405.855 34.4425 408.335 34.4425V32.4425ZM400.8 34.4206C398.634 35.7082 396.931 37.4559 395.701 39.6513L397.446 40.6285C398.504 38.7401 399.958 37.248 401.822 36.1397L400.8 34.4206ZM395.704 39.6463C394.471 41.8184 393.847 44.2325 393.818 46.8672L395.818 46.8892C395.843 44.5688 396.389 42.4907 397.443 40.6335L395.704 39.6463ZM393.818 46.8782V57.1286H395.818V46.8782H393.818ZM393.818 57.1286C393.818 60.3543 394.412 63.1974 395.641 65.6252L397.425 64.7221C396.367 62.6305 395.818 60.1102 395.818 57.1286H393.818ZM395.645 65.6337C396.9 68.0563 398.679 69.9427 400.975 71.2671L401.974 69.5347C400.023 68.4089 398.507 66.8104 397.421 64.7136L395.645 65.6337ZM400.975 71.2671C403.276 72.5951 405.974 73.2386 409.029 73.2386V71.2386C406.259 71.2386 403.919 70.657 401.974 69.5347L400.975 71.2671ZM409.029 73.2386C411.057 73.2386 412.936 72.953 414.659 72.3689L414.017 70.4748C412.528 70.9797 410.868 71.2386 409.029 71.2386V73.2386ZM414.659 72.3689C416.393 71.7813 417.896 70.8922 419.153 69.6957L417.773 68.2475C416.743 69.229 415.496 69.9734 414.017 70.4748L414.659 72.3689ZM419.153 69.6957C420.412 68.4964 421.363 67.0332 422.012 65.3241L420.142 64.6148C419.592 66.0638 418.801 67.2688 417.773 68.2475L419.153 69.6957ZM421.011 65.9673L437.101 67.0291L437.233 65.0334L421.142 63.9716L421.011 65.9673ZM436.188 65.8245C435.406 69.5278 433.807 72.7466 431.392 75.4996L432.895 76.8186C435.544 73.7998 437.294 70.2667 438.145 66.238L436.188 65.8245ZM431.392 75.5001C429.002 78.2268 425.898 80.3741 422.05 81.9294L422.799 83.7837C426.9 82.1263 430.275 79.8088 432.896 76.8181L431.392 75.5001ZM422.053 81.9281C418.246 83.4509 413.816 84.2251 408.743 84.2251V86.2251C414.017 86.2251 418.707 85.4204 422.796 83.785L422.053 81.9281ZM456.075 83.1016L455.663 84.0128L455.669 84.0157L456.075 83.1016ZM448.642 76.8533L447.803 77.3966L447.809 77.4061L448.642 76.8533ZM447.866 57.7003L446.987 57.225L447.866 57.7003ZM453.094 51.983L452.546 51.1462L453.094 51.983ZM460.608 48.7159L460.357 47.748L460.354 47.7486L460.608 48.7159ZM469.511 47.1641L469.607 48.1595L469.614 48.1586L469.511 47.1641ZM478.332 46.1023L478.476 47.0918L478.488 47.0899L478.332 46.1023ZM483.191 44.5504L482.631 43.7218L483.191 44.5504ZM482.252 35.2802L481.591 36.0304L481.597 36.0359L482.252 35.2802ZM467.918 35.2393L468.51 36.045L468.518 36.0393L467.918 35.2393ZM464.242 40.3849L464.161 41.3817L464.976 41.4478L465.203 40.663L464.242 40.3849ZM448.152 39.0781L447.174 38.8686L446.936 39.9826L448.071 40.0748L448.152 39.0781ZM452.971 29.1953L453.728 29.8486L453.731 29.8449L452.971 29.1953ZM462.241 22.7429L462.609 23.6728L462.613 23.6714L462.241 22.7429ZM485.478 21.6811L485.23 22.6498L485.232 22.6503L485.478 21.6811ZM494.013 25.479L493.444 26.3012L493.448 26.3041L494.013 25.479ZM499.935 32.0948L499.053 32.5668L499.055 32.5705L499.935 32.0948ZM502.099 84V85H503.099V84H502.099ZM485.601 84H484.601V85H485.601V84ZM485.601 75.3015H486.601V74.3015H485.601V75.3015ZM485.111 75.3015V74.3015H484.5L484.221 74.8444L485.111 75.3015ZM481.068 80.4879L481.724 81.242L481.731 81.236L481.068 80.4879ZM474.983 83.9592L475.309 84.9046L475.318 84.9011L474.983 83.9592ZM478.536 71.6669L478.993 72.5564L479.003 72.5513L478.536 71.6669ZM483.15 67.5014L482.308 66.962L483.15 67.5014ZM484.825 54.9233H485.825V53.0806L484.28 54.0849L484.825 54.9233ZM482.579 55.9034L482.861 56.8628L482.87 56.8602L482.879 56.8574L482.579 55.9034ZM479.434 56.6793L479.617 57.6625L479.628 57.6604L479.639 57.6581L479.434 56.6793ZM475.922 57.2919L476.06 58.2823L476.072 58.2807L476.083 58.2789L475.922 57.2919ZM472.737 57.7411L472.595 56.7512L472.592 56.7517L472.737 57.7411ZM467.387 59.1705L467.781 60.0896L467.387 59.1705ZM463.834 61.8249L464.625 62.4375L464.632 62.428L463.834 61.8249ZM465.141 71.3402L464.551 72.1478L464.558 72.1531L464.566 72.1582L465.141 71.3402ZM466.774 84.1843C462.889 84.1843 459.464 83.5106 456.48 82.1874L455.669 84.0157C458.948 85.4695 462.656 86.1843 466.774 86.1843V84.1843ZM456.487 82.1904C453.52 80.8488 451.191 78.8869 449.476 76.3005L447.809 77.4061C449.741 80.3193 452.368 82.5229 455.663 84.0127L456.487 82.1904ZM449.482 76.3101C447.813 73.7312 446.947 70.4743 446.947 66.4805H444.947C444.947 70.7632 445.878 74.4215 447.803 77.3966L449.482 76.3101ZM446.947 66.4805C446.947 63.1141 447.565 60.3615 448.746 58.1756L446.987 57.225C445.608 59.7763 444.947 62.8771 444.947 66.4805H446.947ZM448.746 58.1756C449.949 55.9499 451.578 54.1697 453.641 52.8197L452.546 51.1462C450.199 52.6821 448.343 54.7134 446.987 57.225L448.746 58.1756ZM453.641 52.8197C455.748 51.4415 458.151 50.3937 460.861 49.6832L460.354 47.7486C457.456 48.5083 454.85 49.6385 452.546 51.1462L453.641 52.8197ZM460.859 49.6838C463.636 48.9628 466.552 48.4542 469.607 48.1594L469.414 46.1687C466.262 46.4729 463.242 46.9988 460.357 47.748L460.859 49.6838ZM469.614 48.1586C473.269 47.7768 476.225 47.4213 478.476 47.0917L478.187 45.1128C475.974 45.4367 473.048 45.789 469.407 46.1695L469.614 48.1586ZM478.488 47.0899C480.762 46.7295 482.559 46.1848 483.751 45.379L482.631 43.7218C481.809 44.2773 480.366 44.7672 478.175 45.1146L478.488 47.0899ZM483.751 45.379C485.064 44.4921 485.702 43.1565 485.702 41.5284H483.702C483.702 42.5684 483.333 43.2475 482.631 43.7218L483.751 45.379ZM485.702 41.5284V41.2834H483.702V41.5284H485.702ZM485.702 41.2834C485.702 38.4695 484.803 36.1676 482.907 34.5245L481.597 36.0359C482.968 37.2242 483.702 38.9245 483.702 41.2834H485.702ZM482.913 34.53C481.064 32.9004 478.508 32.1566 475.391 32.1566V34.1566C478.209 34.1566 480.227 34.8285 481.591 36.0304L482.913 34.53ZM475.391 32.1566C472.119 32.1566 469.394 32.8821 467.318 34.4393L468.518 36.0393C470.144 34.8196 472.401 34.1566 475.391 34.1566V32.1566ZM467.325 34.4337C465.309 35.9162 463.946 37.8115 463.282 40.1069L465.203 40.663C465.736 38.8201 466.824 37.2851 468.51 36.045L467.325 34.4337ZM464.323 39.3882L448.233 38.0814L448.071 40.0748L464.161 41.3817L464.323 39.3882ZM449.13 39.2877C449.914 35.6295 451.449 32.4905 453.728 29.8485L452.214 28.5421C449.702 31.4541 448.024 34.9036 447.174 38.8686L449.13 39.2877ZM453.731 29.8449C456.011 27.1771 458.961 25.1164 462.609 23.6727L461.873 21.813C457.953 23.3641 454.723 25.605 452.211 28.5457L453.731 29.8449ZM462.613 23.6714C466.283 22.2032 470.563 21.456 475.473 21.456V19.456C470.363 19.456 465.823 20.2334 461.87 21.8144L462.613 23.6714ZM475.473 21.456C478.879 21.456 482.13 21.855 485.23 22.6498L485.727 20.7124C482.455 19.8737 479.037 19.456 475.473 19.456V21.456ZM485.232 22.6503C488.34 23.4406 491.074 24.6603 493.444 26.3012L494.583 24.6569C491.998 22.8674 489.041 21.5551 485.725 20.7119L485.232 22.6503ZM493.448 26.3041C495.82 27.9281 497.685 30.0118 499.053 32.5668L500.816 31.6228C499.298 28.7872 497.216 26.4604 494.578 24.654L493.448 26.3041ZM499.055 32.5705C500.403 35.0626 501.099 38.0903 501.099 41.6918H503.099C503.099 37.8335 502.353 34.4632 500.814 31.6191L499.055 32.5705ZM501.099 41.6918V84H503.099V41.6918H501.099ZM502.099 83H485.601V85H502.099V83ZM486.601 84V75.3015H484.601V84H486.601ZM485.601 74.3015H485.111V76.3015H485.601V74.3015ZM484.221 74.8444C483.272 76.6919 482.002 78.3226 480.404 79.7399L481.731 81.236C483.51 79.6584 484.935 77.8316 486 75.7586L484.221 74.8444ZM480.411 79.7338C478.828 81.1123 476.912 82.21 474.647 83.0172L475.318 84.9011C477.79 84.0203 479.931 82.8039 481.724 81.242L480.411 79.7338ZM474.657 83.0138C472.415 83.7869 469.793 84.1843 466.774 84.1843V86.1843C469.964 86.1843 472.814 85.7649 475.309 84.9045L474.657 83.0138ZM471.757 74.1779C474.449 74.1779 476.87 73.6472 478.993 72.5563L478.079 70.7775C476.281 71.7013 474.182 72.1779 471.757 72.1779V74.1779ZM479.003 72.5513C481.104 71.442 482.776 69.9391 483.992 68.0408L482.308 66.962C481.292 68.5486 479.888 69.8227 478.069 70.7825L479.003 72.5513ZM483.992 68.0408C485.219 66.1267 485.825 63.9632 485.825 61.5799H483.825C483.825 63.6071 483.315 65.3913 482.308 66.962L483.992 68.0408ZM485.825 61.5799V54.9233H483.825V61.5799H485.825ZM484.28 54.0849C483.841 54.3703 483.186 54.6642 482.279 54.9494L482.879 56.8574C483.877 56.5436 484.72 56.1841 485.37 55.7617L484.28 54.0849ZM482.297 54.944C481.402 55.2073 480.38 55.4597 479.229 55.7005L479.639 57.6581C480.83 57.4089 481.905 57.144 482.861 56.8628L482.297 54.944ZM479.251 55.6962C478.088 55.9126 476.925 56.1155 475.761 56.3049L476.083 58.2789C477.261 58.0871 478.439 57.8816 479.617 57.6625L479.251 55.6962ZM475.784 56.3015C474.612 56.465 473.549 56.6149 472.595 56.7512L472.878 58.7311C473.83 58.5951 474.89 58.4455 476.06 58.2823L475.784 56.3015ZM472.592 56.7517C470.484 57.0608 468.614 57.5567 466.993 58.2513L467.781 60.0896C469.209 59.4774 470.906 59.0204 472.882 58.7305L472.592 56.7517ZM466.993 58.2513C465.338 58.9604 464.003 59.9432 463.036 61.2218L464.632 62.428C465.353 61.4741 466.386 60.6873 467.781 60.0896L466.993 58.2513ZM463.044 61.2124C462.04 62.5076 461.568 64.0961 461.568 65.9087H463.568C463.568 64.4543 463.94 63.3202 464.624 62.4375L463.044 61.2124ZM461.568 65.9087C461.568 68.5541 462.546 70.6834 464.551 72.1478L465.731 70.5326C464.306 69.4922 463.568 68.0006 463.568 65.9087H461.568ZM464.566 72.1582C466.515 73.5287 468.935 74.1779 471.757 74.1779V72.1779C469.242 72.1779 467.252 71.602 465.716 70.5222L464.566 72.1582ZM515.596 84H514.596V85H515.596V84ZM515.596 21.2727V20.2727H514.596V21.2727H515.596ZM532.177 21.2727H533.177V20.2727H532.177V21.2727ZM532.177 32.3398H531.177V33.3398H532.177V32.3398ZM532.912 32.3398V33.3398H533.617L533.854 32.6749L532.912 32.3398ZM539.446 23.6413L538.874 22.8207V22.8207L539.446 23.6413ZM561.376 23.6822L560.796 24.4969L560.801 24.5004L561.376 23.6822ZM567.42 32.3398L566.456 32.606L566.659 33.3398H567.42V32.3398ZM568.073 32.3398V33.3398H568.779L569.015 32.6753L568.073 32.3398ZM575.016 23.723L575.556 24.5644L575.558 24.5633L575.016 23.723ZM601.234 26.0508L600.519 26.75L600.524 26.7553L601.234 26.0508ZM606.747 84V85H607.747V84H606.747ZM589.391 84H588.391V85H589.391V84ZM586.614 37.4038L585.928 38.132V38.132L586.614 37.4038ZM572.28 37.8121L573.026 38.4772L573.031 38.4721L572.28 37.8121ZM569.625 84V85H570.625V84H569.625ZM552.759 84H551.759V85H552.759V84ZM550.104 37.5263L549.381 38.217L549.387 38.2226L550.104 37.5263ZM537.976 36.2603L538.506 37.1083L538.51 37.1058L537.976 36.2603ZM534.341 40.3033L535.227 40.7673L535.23 40.7616L534.341 40.3033ZM532.993 84V85H533.993V84H532.993ZM516.596 84V21.2727H514.596V84H516.596ZM515.596 22.2727H532.177V20.2727H515.596V22.2727ZM531.177 21.2727V32.3398H533.177V21.2727H531.177ZM532.177 33.3398H532.912V31.3398H532.177V33.3398ZM533.854 32.6749C535.094 29.1856 537.148 26.4601 540.017 24.4619L538.874 22.8207C535.645 25.0697 533.342 28.1432 531.969 32.0048L533.854 32.6749ZM540.017 24.4619C542.876 22.4713 546.317 21.456 550.39 21.456V19.456C545.969 19.456 542.114 20.5642 538.874 22.8207L540.017 24.4619ZM550.39 21.456C554.518 21.456 557.969 22.4851 560.796 24.4969L561.956 22.8674C558.738 20.5777 554.865 19.456 550.39 19.456V21.456ZM560.801 24.5004C563.628 26.4871 565.509 29.1753 566.456 32.606L568.384 32.0737C567.316 28.2079 565.167 25.1244 561.951 22.864L560.801 24.5004ZM567.42 33.3398H568.073V31.3398H567.42V33.3398ZM569.015 32.6753C570.217 29.2995 572.385 26.6012 575.556 24.5644L574.475 22.8816C570.949 25.1464 568.488 28.1927 567.131 32.0044L569.015 32.6753ZM575.558 24.5633C578.75 22.504 582.544 21.456 586.981 21.456V19.456C582.216 19.456 578.034 20.5859 574.474 22.8827L575.558 24.5633ZM586.981 21.456C592.602 21.456 597.083 23.2368 600.519 26.75L601.949 25.3515C598.089 21.4051 593.068 19.456 586.981 19.456V21.456ZM600.524 26.7553C603.962 30.2186 605.747 35.1883 605.747 41.8143H607.747C607.747 34.8276 605.856 29.2882 601.943 25.3463L600.524 26.7553ZM605.747 41.8143V84H607.747V41.8143H605.747ZM606.747 83H589.391V85H606.747V83ZM590.391 84V45.2447H588.391V84H590.391ZM590.391 45.2447C590.391 41.5897 589.417 38.6688 587.299 36.6756L585.928 38.132C587.513 39.6235 588.391 41.93 588.391 45.2447H590.391ZM587.299 36.6756C585.244 34.7417 582.677 33.7901 579.671 33.7901V35.7901C582.219 35.7901 584.28 36.5809 585.928 38.132L587.299 36.6756ZM579.671 33.7901C576.282 33.7901 573.522 34.8824 571.528 37.1522L573.031 38.4721C574.576 36.7125 576.745 35.7901 579.671 35.7901V33.7901ZM571.533 37.1471C569.565 39.357 568.625 42.2399 568.625 45.6939H570.625C570.625 42.6137 571.455 40.2422 573.026 38.4771L571.533 37.1471ZM568.625 45.6939V84H570.625V45.6939H568.625ZM569.625 83H552.759V85H569.625V83ZM553.759 84V44.8771H551.759V84H553.759ZM553.759 44.8771C553.759 41.5988 552.81 38.8786 550.822 36.83L549.387 38.2226C550.939 39.8222 551.759 42.0025 551.759 44.8771H553.759ZM550.828 36.8355C548.871 34.7868 546.295 33.7901 543.203 33.7901V35.7901C545.828 35.7901 547.854 36.6176 549.381 38.217L550.828 36.8355ZM543.203 33.7901C541.091 33.7901 539.162 34.3283 537.442 35.4148L538.51 37.1058C539.893 36.2321 541.448 35.7901 543.203 35.7901V33.7901ZM537.446 35.4123C535.755 36.469 534.425 37.9577 533.452 39.845L535.23 40.7616C536.053 39.164 537.147 37.9574 538.506 37.1083L537.446 35.4123ZM533.455 39.8393C532.468 41.723 531.993 43.9029 531.993 46.3473H533.993C533.993 44.1634 534.417 42.3139 535.227 40.7673L533.455 39.8393ZM531.993 46.3473V84H533.993V46.3473H531.993ZM532.993 83H515.596V85H532.993V83Z" fill="url(#paint0_linear_0_543)"/>
<defs>
<linearGradient id="paint0_linear_0_543" x1="-114.144" y1="60" x2="138.471" y2="-297.863" gradientUnits="userSpaceOnUse">
<stop offset="0.6896" stop-color="#F42D32"/>
<stop offset="1" stop-color="#FCCB4C"/>
</linearGradient>
</defs>
</svg>
